<svg width="18" height="27" viewBox="0 0 18 27" fill="none" xmlns="http://www.w3.org/2000/svg">
<path d="M9.89855 1C10.4231 1.19252 10.9869 1.31578 11.4642 1.58933C13.0716 2.51557 13.882 3.95109 13.8962 5.79816C13.9188 8.64268 13.9109 11.4877 13.8996 14.3322C13.8898 16.6635 12.4302 18.5022 10.1672 19.07C7.78481 19.6681 5.13526 18.1094 4.52775 15.7304C4.40562 15.2576 4.34114 14.7718 4.33573 14.2836C4.31805 11.4715 4.30921 8.65938 4.33327 5.84776C4.35095 3.7851 5.30518 2.27198 7.17632 1.37865C7.53827 1.20528 7.9454 1.12671 8.3319 1.00442L9.89855 1ZM5.83018 10.0566C5.83018 11.4582 5.82281 12.8603 5.83509 14.262C5.83328 14.6034 5.87202 14.9438 5.9505 15.2761C6.34339 16.8236 7.90218 17.8692 9.49682 17.6767C11.0915 17.4842 12.3782 16.1341 12.3895 14.5483C12.4111 11.5579 12.4165 8.56656 12.3895 5.57618C12.3713 3.6579 10.4898 2.15362 8.60202 2.48807C6.9563 2.7793 5.84442 4.09253 5.83411 5.77852C5.82281 7.20422 5.83018 8.6304 5.83018 10.0566ZM8.04018 24.5046C7.2328 24.5046 6.4259 24.4958 5.619 24.51C5.15441 24.5184 4.8514 24.8327 4.85385 25.257C4.85631 25.6813 5.17307 25.9868 5.62637 25.9991C5.66713 25.9991 5.70789 25.9991 5.74866 25.9991H12.4735C12.5554 26.0015 12.6374 25.9992 12.719 25.9922C12.8821 25.9729 13.0343 25.9005 13.1521 25.786C13.2699 25.6716 13.3467 25.5216 13.3707 25.3591C13.4154 25.0119 13.2234 24.6716 12.8992 24.5631C12.7588 24.5223 12.6128 24.5036 12.4666 24.5076C11.6921 24.5022 10.9181 24.5076 10.1436 24.5041C10.0567 24.5041 9.96976 24.4968 9.87449 24.4923V22.5279C10.4191 22.4085 10.9549 22.3314 11.4642 22.1728C13.6084 21.501 15.2232 20.1691 16.2918 18.1909C16.9269 17.0122 17.2215 15.7461 17.2318 14.4128C17.2332 14.3127 17.214 14.2134 17.1755 14.121C17.137 14.0286 17.08 13.9451 17.008 13.8756C16.936 13.806 16.8505 13.752 16.7568 13.7168C16.6631 13.6815 16.5632 13.6658 16.4632 13.6707C16.2903 13.6723 16.1238 13.7366 15.9946 13.8517C15.8655 13.9667 15.7825 14.1247 15.761 14.2964C15.7168 14.6431 15.7177 14.9962 15.6657 15.3414C15.371 17.2931 14.4148 18.8549 12.7637 19.923C10.6058 21.3198 8.32257 21.4298 6.03547 20.2614C4.36077 19.4054 3.25381 18.0234 2.75582 16.2014C2.60063 15.6346 2.56822 15.0325 2.49455 14.4447C2.4312 13.9413 2.14242 13.6501 1.69797 13.6717C1.26382 13.6923 0.952458 14.0385 1.00599 14.5321C1.08506 15.258 1.1268 16.0054 1.34338 16.693C2.26913 19.6318 4.24536 21.5059 7.23673 22.2917C7.60359 22.3899 7.98223 22.439 8.36334 22.5102V24.5046C8.23417 24.5046 8.13841 24.5041 8.04166 24.5046H8.04018Z" fill="#636C78" stroke="#636C78" stroke-width="0.3"/>
</svg>
