<svg width="22" height="25" viewBox="0 0 22 25" fill="none" xmlns="http://www.w3.org/2000/svg">
<path d="M19.0614 13.981L18.054 14.99L19.666 16.6046L13.6193 22.6602C10.504 25.7801 5.45317 25.7802 2.3362 22.6588C-0.780026 19.5382 -0.776997 14.4757 2.33487 11.3592L10.3974 3.28464L12.0053 1.67452C14.233 -0.556547 17.843 -0.55865 20.0693 1.67108C22.2951 3.90004 22.2976 7.51171 20.0657 9.74659L11.2029 18.622C9.86736 19.9596 7.69942 19.9569 6.3666 18.6222C5.03109 17.2848 5.03148 15.1161 6.36679 13.7789L11.2028 8.93585L12.8148 10.5502L7.97901 15.3932C7.53397 15.8389 7.53397 16.5622 7.97882 17.0077C8.42252 17.452 9.14714 17.4524 9.59104 17.0077L18.4539 8.13227C19.7942 6.78987 19.7944 4.62402 18.4573 3.2853C17.122 1.94789 14.9556 1.94906 13.6176 3.28893L3.9472 12.9736C1.72429 15.1996 1.72409 18.8167 3.94854 21.0442C6.17487 23.2739 9.78234 23.2741 12.0077 21.0457L19.0614 13.981ZM11.6058 8.53222L13.2179 10.1465L12.8148 10.5502L11.2028 8.93585L11.6058 8.53222ZM12.8129 7.32324C13.2591 6.87643 13.9785 6.87241 14.4268 7.32133C14.8721 7.7672 14.8726 8.48941 14.4249 8.93776L13.2179 10.1465L11.6058 8.53222L12.8129 7.32324ZM19.2613 13.7813C19.7075 13.3343 20.427 13.3303 20.8752 13.7792C21.3205 14.2251 21.321 14.9473 20.8733 15.3956L19.666 16.6046L18.054 14.99L19.2613 13.7813Z" fill="#636C78"/>
</svg>
