<svg xmlns="http://www.w3.org/2000/svg" width="33" height="31" viewBox="0 0 33 31">
  <defs>
    <style>
      .cls-1 {
        fill: #2f3990;
        fill-rule: evenodd;
      }
    </style>
  </defs>
  <path class="cls-1" d="M14.828,20.61a0.658,0.658,0,0,0,0-.922,0.64,0.64,0,0,0-.911,0,0.659,0.659,0,0,0,0,.922A0.64,0.64,0,0,0,14.828,20.61ZM15.063,5.277v1.3a3.862,3.862,0,1,0,7.724,0v-1.3a0.652,0.652,0,0,0,0-1.3H21.5a0.652,0.652,0,0,0,0,1.3v1.3a2.575,2.575,0,1,1-5.149,0v-1.3a0.652,0.652,0,0,0,0-1.3H15.063A0.652,0.652,0,0,0,15.063,5.277ZM7.481,30.81a0.638,0.638,0,0,0,.91,0l1.977-2a3.038,3.038,0,0,0,.864-2.445l0.709-.693a2.967,2.967,0,0,1,2.082-.851H22.5a5.724,5.724,0,0,0,4.04-1.662,0.635,0.635,0,0,0,.046-0.05L32.349,16.1a2.632,2.632,0,0,0-.306-3.673,2.56,2.56,0,0,0-3.613.292l-0.623.652V0.651A0.648,0.648,0,0,0,27.164,0H10.621a0.648,0.648,0,0,0-.644.652v14.6a7.759,7.759,0,0,0-5.534,4.385,2.953,2.953,0,0,0-2.266.884l-1.987,2a0.657,0.657,0,0,0,0,.923ZM26.52,1.3V14.719l-1.863,1.949a2.575,2.575,0,0,0-2-.968H15.2a0.351,0.351,0,0,1-.131-0.028,8.234,8.234,0,0,0-3.155-.623q-0.323,0-.644.022V1.3H26.52ZM10.713,16.437a7.235,7.235,0,0,1,3.867.442A1.619,1.619,0,0,0,15.2,17h7.463a1.3,1.3,0,0,1,0,2.606h-5.6a0.652,0.652,0,0,0,0,1.3h5.6a2.593,2.593,0,0,0,2.575-2.606,2.666,2.666,0,0,0-.023-0.342c0.134-.139,4.025-4.212,4.16-4.353l0.029-.032a1.281,1.281,0,0,1,1.815-.155,1.316,1.316,0,0,1,.15,1.84l-5.747,6.985A4.45,4.45,0,0,1,22.5,23.518H14.022a4.239,4.239,0,0,0-2.976,1.216l-0.284.277a3.019,3.019,0,0,0-.4-0.493l-3.953-4a3.005,3.005,0,0,0-.71-0.532A6.448,6.448,0,0,1,10.713,16.437Zm-7.627,5a1.692,1.692,0,0,1,2.418,0l3.954,4a1.743,1.743,0,0,1,0,2.447l-1.522,1.54L1.556,22.98Z"/>
</svg>
