<svg width="9" height="21" viewBox="0 0 9 21" fill="none" xmlns="http://www.w3.org/2000/svg">
<path d="M9 18.6C9 19.5942 8.19411 20.4 7.2 20.4C6.20589 20.4 5.4 19.5942 5.4 18.6C5.4 17.6059 6.20589 16.8 7.2 16.8C8.19411 16.8 9 17.6059 9 18.6Z" fill="#D9D9D9"/>
<path d="M3.6 18.6001C3.6 19.5942 2.79411 20.4001 1.8 20.4001C0.805887 20.4001 0 19.5942 0 18.6001C0 17.606 0.805887 16.8001 1.8 16.8001C2.79411 16.8001 3.6 17.606 3.6 18.6001Z" fill="#D9D9D9"/>
<path d="M9 13.2001C9 14.1942 8.19411 15.0001 7.2 15.0001C6.20589 15.0001 5.4 14.1942 5.4 13.2001C5.4 12.206 6.20589 11.4001 7.2 11.4001C8.19411 11.4001 9 12.206 9 13.2001Z" fill="#D9D9D9"/>
<path d="M3.6 13.2001C3.6 14.1942 2.79411 15.0001 1.8 15.0001C0.805887 15.0001 0 14.1942 0 13.2001C0 12.206 0.805887 11.4001 1.8 11.4001C2.79411 11.4001 3.6 12.206 3.6 13.2001Z" fill="#D9D9D9"/>
<path d="M9 7.8001C9 8.79421 8.19411 9.6001 7.2 9.6001C6.20589 9.6001 5.4 8.79421 5.4 7.8001C5.4 6.80598 6.20589 6.0001 7.2 6.0001C8.19411 6.0001 9 6.80598 9 7.8001Z" fill="#D9D9D9"/>
<path d="M3.6 7.8001C3.6 8.79421 2.79411 9.6001 1.8 9.6001C0.805887 9.6001 0 8.79421 0 7.8001C0 6.80598 0.805887 6.0001 1.8 6.0001C2.79411 6.0001 3.6 6.80598 3.6 7.8001Z" fill="#D9D9D9"/>
<path d="M9 2.40012C9 3.39423 8.19411 4.20012 7.2 4.20012C6.20589 4.20012 5.4 3.39423 5.4 2.40012C5.4 1.40601 6.20589 0.600122 7.2 0.600122C8.19411 0.600122 9 1.40601 9 2.40012Z" fill="#D9D9D9"/>
<path d="M3.6 2.4001C3.6 3.39421 2.79411 4.2001 1.8 4.2001C0.805887 4.2001 0 3.39421 0 2.4001C0 1.40599 0.805887 0.600098 1.8 0.600098C2.79411 0.600098 3.6 1.40599 3.6 2.4001Z" fill="#D9D9D9"/>
</svg>
