<svg width="32" height="30" viewBox="0 0 32 30" fill="none" xmlns="http://www.w3.org/2000/svg">
<path d="M22.0588 17.6471C22.8235 17.6471 23.4559 17.3971 23.9559 16.8971C24.4559 16.3971 24.7059 15.7647 24.7059 15C24.7059 14.2353 24.4559 13.6029 23.9559 13.1029C23.4559 12.6029 22.8235 12.3529 22.0588 12.3529C21.2941 12.3529 20.6618 12.6029 20.1618 13.1029C19.6618 13.6029 19.4118 14.2353 19.4118 15C19.4118 15.7647 19.6618 16.3971 20.1618 16.8971C20.6618 17.3971 21.2941 17.6471 22.0588 17.6471ZM3.17647 30C2.29412 30 1.54412 29.6912 0.926471 29.0735C0.308824 28.4559 0 27.7059 0 26.8235V3.17647C0 2.29412 0.308824 1.54412 0.926471 0.926471C1.54412 0.308824 2.29412 0 3.17647 0H26.8235C27.7059 0 28.4559 0.308824 29.0735 0.926471C29.6912 1.54412 30 2.29412 30 3.17647V7.98529H27.3529V3.17647C27.3529 3.02941 27.3018 2.90471 27.1994 2.80235C27.0959 2.69882 26.9706 2.64706 26.8235 2.64706H3.17647C3.02941 2.64706 2.90471 2.69882 2.80235 2.80235C2.69882 2.90471 2.64706 3.02941 2.64706 3.17647V26.8235C2.64706 26.9706 2.69882 27.0959 2.80235 27.1994C2.90471 27.3018 3.02941 27.3529 3.17647 27.3529H26.8235C26.9706 27.3529 27.0959 27.3018 27.1994 27.1994C27.3018 27.0959 27.3529 26.9706 27.3529 26.8235V22.0147H30V26.8235C30 27.7059 29.6912 28.4559 29.0735 29.0735C28.4559 29.6912 27.7059 30 26.8235 30H3.17647ZM17.2941 22.9412C16.4118 22.9412 15.6618 22.6324 15.0441 22.0147C14.4265 21.3971 14.1176 20.6471 14.1176 19.7647V10.2353C14.1176 9.35294 14.4265 8.60294 15.0441 7.98529C15.6618 7.36765 16.4118 7.05882 17.2941 7.05882H28.5882C29.4706 7.05882 30.2206 7.36765 30.8382 7.98529C31.4559 8.60294 31.7647 9.35294 31.7647 10.2353V19.7647C31.7647 20.6471 31.4559 21.3971 30.8382 22.0147C30.2206 22.6324 29.4706 22.9412 28.5882 22.9412H17.2941ZM28.5882 20.2941C28.7353 20.2941 28.8606 20.2424 28.9641 20.1388C29.0665 20.0365 29.1176 19.9118 29.1176 19.7647V10.2353C29.1176 10.0882 29.0665 9.96294 28.9641 9.85941C28.8606 9.75706 28.7353 9.70588 28.5882 9.70588H17.2941C17.1471 9.70588 17.0224 9.75706 16.92 9.85941C16.8165 9.96294 16.7647 10.0882 16.7647 10.2353V19.7647C16.7647 19.9118 16.8165 20.0365 16.92 20.1388C17.0224 20.2424 17.1471 20.2941 17.2941 20.2941H28.5882Z" fill="white"/>
</svg>
