<svg xmlns="http://www.w3.org/2000/svg" width="7" height="7" viewBox="0 0 7 7" fill="none">
  <path d="M3.31641 4.9003H3.2069C2.56211 4.9003 1.91689 4.89417 1.2721 4.90336C1.00687 4.90708 0.852679 4.72831 0.863849 4.47669C0.898454 3.69839 1.18055 3.02993 1.73992 2.48795C1.87024 2.36126 1.94514 2.23654 1.91513 2.05515C1.9103 2.01152 1.9103 1.96749 1.91513 1.92386C1.92915 1.69543 1.89871 1.48625 1.77825 1.27707C1.6199 1.00203 1.57171 0.686289 1.56712 0.367705C1.56317 0.15415 1.70838 0.00207867 1.92083 0.000984632C3.0825 -0.000328211 4.24402 -0.000328211 5.4054 0.000984632C5.61916 0.000984632 5.76744 0.151962 5.76196 0.365736C5.75211 0.766153 5.66078 1.14425 5.44285 1.48647C5.42533 1.51657 5.41611 1.55077 5.41613 1.58559C5.41372 1.80177 5.41197 2.01795 5.41723 2.23391C5.41972 2.28081 5.43891 2.32528 5.47133 2.35929C5.78803 2.66321 6.05545 3.00127 6.22891 3.40956C6.38059 3.76501 6.46024 4.14697 6.46326 4.53336C6.46545 4.75216 6.3163 4.89942 6.09093 4.89986C5.43504 4.90117 4.77908 4.90117 4.12305 4.89986H4.01354V5.00204C4.01354 5.54622 4.01354 6.09061 4.01354 6.635C4.01354 6.85643 3.86023 7.00697 3.64954 6.99975C3.56402 6.99673 3.48271 6.96192 3.42154 6.90214C3.36036 6.84236 3.32373 6.76192 3.31882 6.67657C3.31685 6.64375 3.31729 6.61093 3.31729 6.57811V4.89986L3.31641 4.9003Z" fill="#2F3990"/>
</svg>