<svg width="17" height="12" viewBox="0 0 17 12" fill="none" xmlns="http://www.w3.org/2000/svg">
<path d="M10.6508 5.99995C12.2581 5.99995 13.5599 4.70717 13.5599 3.11106C13.5599 1.51495 12.2581 0.222168 10.6508 0.222168C9.04354 0.222168 7.74172 1.51495 7.74172 3.11106C7.74172 4.70717 9.04354 5.99995 10.6508 5.99995ZM4.10536 4.5555V3.11106C4.10536 2.71383 3.77809 2.38883 3.37809 2.38883C2.97809 2.38883 2.65081 2.71383 2.65081 3.11106V4.5555H1.19627C0.796267 4.5555 0.468994 4.8805 0.468994 5.27772C0.468994 5.67495 0.796267 5.99995 1.19627 5.99995H2.65081V7.44439C2.65081 7.84161 2.97809 8.16661 3.37809 8.16661C3.77809 8.16661 4.10536 7.84161 4.10536 7.44439V5.99995H5.5599C5.9599 5.99995 6.28718 5.67495 6.28718 5.27772C6.28718 4.8805 5.9599 4.5555 5.5599 4.5555H4.10536ZM10.6508 7.44439C8.70899 7.44439 4.83263 8.41217 4.83263 10.3333V11.0555C4.83263 11.4527 5.1599 11.7777 5.5599 11.7777H15.7417C16.1417 11.7777 16.469 11.4527 16.469 11.0555V10.3333C16.469 8.41217 12.5926 7.44439 10.6508 7.44439Z" fill="#3845B3"/>
</svg>
