<svg width="55" height="55" viewBox="0 0 55 55" fill="none" xmlns="http://www.w3.org/2000/svg">
<rect width="55" height="55" rx="8" fill="#2F3990"/>
<path d="M27.5 15C20.5972 15 15 20.5972 15 27.5C15 34.4028 20.5972 40 27.5 40C28.6528 40 29.5833 39.0694 29.5833 37.9167C29.5833 37.375 29.375 36.8889 29.0417 36.5139C28.7222 36.1528 28.5139 35.6667 28.5139 35.1389C28.5139 33.9861 29.4444 33.0556 30.5972 33.0556H33.0556C36.8889 33.0556 40 29.9444 40 26.1111C40 19.9722 34.4028 15 27.5 15ZM19.8611 27.5C18.7083 27.5 17.7778 26.5694 17.7778 25.4167C17.7778 24.2639 18.7083 23.3333 19.8611 23.3333C21.0139 23.3333 21.9444 24.2639 21.9444 25.4167C21.9444 26.5694 21.0139 27.5 19.8611 27.5ZM24.0278 21.9444C22.875 21.9444 21.9444 21.0139 21.9444 19.8611C21.9444 18.7083 22.875 17.7778 24.0278 17.7778C25.1806 17.7778 26.1111 18.7083 26.1111 19.8611C26.1111 21.0139 25.1806 21.9444 24.0278 21.9444ZM30.9722 21.9444C29.8194 21.9444 28.8889 21.0139 28.8889 19.8611C28.8889 18.7083 29.8194 17.7778 30.9722 17.7778C32.125 17.7778 33.0556 18.7083 33.0556 19.8611C33.0556 21.0139 32.125 21.9444 30.9722 21.9444ZM35.1389 27.5C33.9861 27.5 33.0556 26.5694 33.0556 25.4167C33.0556 24.2639 33.9861 23.3333 35.1389 23.3333C36.2917 23.3333 37.2222 24.2639 37.2222 25.4167C37.2222 26.5694 36.2917 27.5 35.1389 27.5Z" fill="white"/>
</svg>
