<svg width="20" height="5" viewBox="0 0 20 5" fill="none" xmlns="http://www.w3.org/2000/svg">
<path d="M17.8409 4.98281C17.3487 5.0413 16.8503 4.94874 16.4119 4.71743C15.9735 4.48611 15.6159 4.12697 15.3863 3.68766C15.1568 3.24834 15.0663 2.74957 15.1268 2.25761C15.1873 1.76565 15.3959 1.3038 15.725 0.933177C16.0542 0.56255 16.4882 0.300765 16.9695 0.182537C17.4509 0.0643086 17.9568 0.0952158 18.4202 0.271196C18.8836 0.447176 19.2825 0.759908 19.564 1.16786C19.8455 1.57582 19.9963 2.05969 19.9964 2.55535C20.0302 3.16254 19.8225 3.75849 19.4187 4.21321C19.0149 4.66793 18.4478 4.94454 17.8409 4.98281ZM10.2866 4.98281C9.7944 5.0415 9.29595 4.94908 8.85746 4.7179C8.41896 4.48673 8.06116 4.12776 7.83147 3.68848C7.60179 3.24921 7.51112 2.75045 7.57148 2.25844C7.63184 1.76643 7.8404 1.30438 8.16946 0.93365C8.49852 0.562923 8.93252 0.301097 9.41389 0.182774C9.89526 0.0644507 10.4012 0.0952659 10.8647 0.271196C11.3281 0.447126 11.7271 0.759785 12.0086 1.16774C12.2902 1.5757 12.4411 2.05966 12.4412 2.55535C12.4752 3.16245 12.2678 3.75834 11.8642 4.21309C11.4605 4.66784 10.8934 4.94455 10.2866 4.98281ZM2.73233 4.98281C2.24013 5.0413 1.74179 4.94874 1.30341 4.71743C0.865034 4.48611 0.507374 4.12697 0.277845 3.68766C0.048316 3.24834 -0.0422209 2.74957 0.0182682 2.25761C0.0787573 1.76565 0.287424 1.3038 0.61654 0.933177C0.945656 0.56255 1.37967 0.300765 1.86103 0.182537C2.34238 0.0643086 2.84832 0.0952158 3.31169 0.271196C3.77507 0.447176 4.17397 0.759908 4.45549 1.16786C4.73701 1.57582 4.88783 2.05969 4.88794 2.55535C4.92195 3.16261 4.71437 3.75867 4.31053 4.21345C3.90669 4.66822 3.33934 4.94479 2.73233 4.98281Z" fill="#CFCFCF"/>
</svg>
