<svg width="15" height="16" viewBox="0 0 15 16" fill="none" xmlns="http://www.w3.org/2000/svg">
<path d="M7.69595 7.37511L7.69389 1.81453C7.69458 1.73199 7.67893 1.65017 7.64777 1.57392C7.6166 1.49766 7.57058 1.42845 7.51238 1.37024C7.45418 1.31204 7.38496 1.26601 7.3087 1.23485C7.23244 1.20369 7.15064 1.18804 7.0681 1.18873C6.90291 1.18945 6.74435 1.25565 6.62721 1.37279C6.51008 1.48992 6.44388 1.64848 6.44316 1.81367L6.44532 7.37415L0.884735 7.37209C0.719546 7.37281 0.560986 7.43901 0.443853 7.55615C0.326719 7.67328 0.260519 7.83184 0.259797 7.99703C0.25911 8.07957 0.274755 8.16138 0.305917 8.23763C0.33708 8.31389 0.38311 8.38311 0.441312 8.44131C0.499513 8.49951 0.568728 8.54554 0.644984 8.5767C0.721241 8.60786 0.803053 8.62351 0.885594 8.62283L6.44618 8.62488L6.44824 14.1855C6.44755 14.268 6.4632 14.3498 6.49436 14.4261C6.52552 14.5023 6.57155 14.5716 6.62976 14.6298C6.68796 14.688 6.75718 14.734 6.83344 14.7652C6.90969 14.7963 6.9915 14.812 7.07404 14.8113C7.23923 14.8105 7.39779 14.7443 7.51492 14.6272C7.63205 14.5101 7.69825 14.3515 7.69898 14.1863L7.69692 8.62575L13.2574 8.62791C13.4226 8.62719 13.5811 8.56099 13.6983 8.44385C13.8154 8.32672 13.8816 8.16816 13.8823 8.00297C13.883 7.92043 13.8674 7.83862 13.8362 7.76237C13.8051 7.68611 13.759 7.61689 13.7008 7.55869C13.6426 7.50049 13.5734 7.45446 13.4971 7.42329C13.4209 7.39213 13.3391 7.37649 13.2565 7.37717L7.69595 7.37511Z" fill="#535358" stroke="#535358" stroke-width="0.5"/>
</svg>
