<svg width="12" height="10" viewBox="0 0 12 10" fill="none" xmlns="http://www.w3.org/2000/svg">
<path d="M7.63636 5.2513C8.84182 5.2513 9.81818 4.28172 9.81818 3.08464C9.81818 1.88755 8.84182 0.917969 7.63636 0.917969C6.43091 0.917969 5.45455 1.88755 5.45455 3.08464C5.45455 4.28172 6.43091 5.2513 7.63636 5.2513ZM2.72727 4.16797V3.08464C2.72727 2.78672 2.48182 2.54297 2.18182 2.54297C1.88182 2.54297 1.63636 2.78672 1.63636 3.08464V4.16797H0.545455C0.245455 4.16797 0 4.41172 0 4.70964C0 5.00755 0.245455 5.2513 0.545455 5.2513H1.63636V6.33463C1.63636 6.63255 1.88182 6.8763 2.18182 6.8763C2.48182 6.8763 2.72727 6.63255 2.72727 6.33463V5.2513H3.81818C4.11818 5.2513 4.36364 5.00755 4.36364 4.70964C4.36364 4.41172 4.11818 4.16797 3.81818 4.16797H2.72727ZM7.63636 6.33463C6.18 6.33463 3.27273 7.06047 3.27273 8.5013V9.04297C3.27273 9.34089 3.51818 9.58463 3.81818 9.58463H11.4545C11.7545 9.58463 12 9.34089 12 9.04297V8.5013C12 7.06047 9.09273 6.33463 7.63636 6.33463Z" fill="#818181"/>
</svg>
