<svg width="13" height="12" viewBox="0 0 13 12" fill="none" xmlns="http://www.w3.org/2000/svg">
<path d="M7.13816 5.51869L7.12409 1.08265C7.12445 1.0168 7.11178 0.9515 7.08675 0.890596C7.06172 0.829692 7.02485 0.774372 6.97829 0.72781C6.93173 0.681249 6.8764 0.644373 6.8155 0.619342C6.75459 0.594312 6.6893 0.581648 6.62345 0.582012C6.49167 0.582218 6.36532 0.634676 6.27214 0.727859C6.17896 0.821042 6.1265 0.947387 6.12629 1.07917L6.14045 5.51512L1.70441 5.50105C1.57263 5.50126 1.44628 5.55372 1.3531 5.6469C1.25991 5.74009 1.20746 5.86643 1.20725 5.99821C1.20689 6.06406 1.21955 6.12935 1.24458 6.19026C1.26961 6.25116 1.30649 6.30649 1.35305 6.35305C1.39961 6.39961 1.45493 6.43648 1.51583 6.46151C1.57674 6.48654 1.64204 6.49921 1.70789 6.49885L6.14393 6.51292L6.15801 10.949C6.15764 11.0148 6.17031 11.0801 6.19534 11.141C6.22037 11.2019 6.25724 11.2572 6.3038 11.3038C6.35037 11.3504 6.40569 11.3872 6.4666 11.4123C6.5275 11.4373 6.5928 11.45 6.65864 11.4496C6.79042 11.4494 6.91677 11.3969 7.00995 11.3038C7.10313 11.2106 7.15559 11.0842 7.1558 10.9524L7.14173 6.5164L11.5777 6.53056C11.7095 6.53035 11.8358 6.4779 11.929 6.38471C12.0222 6.29153 12.0746 6.16518 12.0748 6.0334C12.0752 5.96756 12.0625 5.90226 12.0375 5.84136C12.0125 5.78045 11.9756 5.72513 11.929 5.67857C11.8825 5.632 11.8272 5.59513 11.7663 5.5701C11.7053 5.54507 11.6401 5.5324 11.5742 5.53277L7.13816 5.51869Z" fill="#818181" stroke="#818181" stroke-width="0.5"/>
</svg>
