<svg width="12" height="10" viewBox="0 0 12 10" fill="none" xmlns="http://www.w3.org/2000/svg">
<path d="M7.63636 5.00521C8.84182 5.00521 9.81818 4.03562 9.81818 2.83854C9.81818 1.64146 8.84182 0.671875 7.63636 0.671875C6.43091 0.671875 5.45455 1.64146 5.45455 2.83854C5.45455 4.03562 6.43091 5.00521 7.63636 5.00521ZM2.72727 3.92187V2.83854C2.72727 2.54062 2.48182 2.29687 2.18182 2.29687C1.88182 2.29687 1.63636 2.54062 1.63636 2.83854V3.92187H0.545455C0.245455 3.92187 0 4.16562 0 4.46354C0 4.76146 0.245455 5.00521 0.545455 5.00521H1.63636V6.08854C1.63636 6.38646 1.88182 6.63021 2.18182 6.63021C2.48182 6.63021 2.72727 6.38646 2.72727 6.08854V5.00521H3.81818C4.11818 5.00521 4.36364 4.76146 4.36364 4.46354C4.36364 4.16562 4.11818 3.92187 3.81818 3.92187H2.72727ZM7.63636 6.08854C6.18 6.08854 3.27273 6.81437 3.27273 8.25521V8.79687C3.27273 9.09479 3.51818 9.33854 3.81818 9.33854H11.4545C11.7545 9.33854 12 9.09479 12 8.79687V8.25521C12 6.81437 9.09273 6.08854 7.63636 6.08854Z" fill="#3845B3"/>
</svg>
