<svg width="14" height="14" viewBox="0 0 14 14" fill="none" xmlns="http://www.w3.org/2000/svg">
<path d="M0.000364593 11.7053C0.0798458 11.6021 0.148754 11.489 0.239902 11.3975C3.09065 8.54314 5.94396 5.69056 8.79653 2.83799C9.07253 2.56199 9.2891 2.56236 9.56655 2.83981C10.1076 3.3805 10.6487 3.9212 11.1894 4.46262C11.4271 4.7007 11.4285 4.93805 11.1919 5.17503C8.30725 8.06005 5.42259 10.9451 2.53574 13.8283C2.46684 13.8968 2.37605 13.9435 2.29511 14H2.07636C1.97026 13.9176 1.85505 13.845 1.76025 13.7513C1.25311 13.2508 0.749238 12.7469 0.248652 12.2397C0.154952 12.145 0.082398 12.0294 0 11.9233C0 11.8504 0 11.7774 0 11.7045L0.000364593 11.7053ZM2.17516 12.9062C4.14651 10.9352 6.12151 8.96023 8.07209 7.01003C7.71551 6.64799 7.34655 6.27355 6.99216 5.9137C5.02628 7.87958 3.05383 9.85203 1.08795 11.8175C1.44853 12.1785 1.81786 12.5482 2.17516 12.9059V12.9062ZM9.19321 3.7338C8.68205 4.24459 8.16323 4.76341 7.65718 5.2691C8.01266 5.62457 8.38199 5.99391 8.73091 6.34319C9.24206 5.83239 9.76124 5.31394 10.268 4.80789C9.91219 4.45241 9.54285 4.08308 9.19321 3.7338ZM5.4091 2.46939C5.70442 2.76325 5.91807 3.11472 6.12479 3.51249C6.49449 2.70455 7.06836 2.13469 7.8825 1.75952C7.06362 1.38618 6.49449 0.811584 6.11933 0C5.74525 0.815594 5.1754 1.38509 4.36855 1.75661C4.7696 1.96224 5.11597 2.17771 5.4091 2.46939ZM11.2656 0.780958C11.0508 0.995338 10.7821 1.15503 10.5273 1.34608C11.0997 1.60311 11.5208 2.03662 11.8052 2.64366C12.0884 2.02823 12.5132 1.60275 13.0823 1.34571C12.8289 1.15722 12.5624 1.00117 12.3509 0.790073C12.1355 0.574963 11.9743 0.305893 11.8026 0.0780229C11.6349 0.302247 11.4777 0.569129 11.2656 0.780958ZM13.114 6.12297C12.9226 6.53861 12.6397 6.81533 12.2339 7.00565C12.6459 7.19816 12.923 7.48108 13.1151 7.88396C13.3084 7.4778 13.5887 7.19779 14.0007 7.00383C13.5804 6.81315 13.3058 6.52803 13.114 6.12297Z" fill="url(#paint0_linear_29672_1086974)"/>
<defs>
<linearGradient id="paint0_linear_29672_1086974" x1="0.00988842" y1="1.4" x2="16.186" y2="5.57835" gradientUnits="userSpaceOnUse">
<stop stop-color="#5363F1"/>
<stop offset="1" stop-color="#1222A8"/>
</linearGradient>
</defs>
</svg>
