<svg width="42" height="38" viewBox="0 0 42 38" fill="none" xmlns="http://www.w3.org/2000/svg">
<path d="M6.00093 30.3047C5.17785 30.3047 4.42085 30.3047 3.66383 30.3047C2.03197 30.293 1.00089 29.2436 1 27.5986C1 25.2067 1 22.8148 1 20.423C1 18.8219 2.015 17.7761 3.6058 17.7483C4.37888 17.7348 5.15197 17.7483 6.00093 17.7483C6.00093 17.5527 5.99646 17.3814 6.00093 17.2101C6.02681 16.3006 5.9688 15.3785 6.09913 14.4842C6.23882 13.5498 6.7029 12.6951 7.40931 12.0714C8.11572 11.4476 9.01894 11.095 9.95918 11.0758C13.1131 11.0256 16.2688 11.0579 19.4218 11.0498C20.2654 11.0498 20.1574 11.1575 20.1637 10.3188C20.169 9.58599 20.1378 8.85228 20.1762 8.12127C20.1967 7.72571 20.0619 7.5526 19.7048 7.40371C18.3479 6.84221 17.5882 5.56764 17.6802 4.08947C17.7694 2.72789 18.7514 1.5179 20.0958 1.12952C21.7553 0.646065 23.506 1.55378 24.13 3.22301C24.4212 4.00662 24.402 4.87263 24.0764 5.64248C23.7509 6.41232 23.1438 7.02731 22.3802 7.36065C21.9214 7.55888 21.8062 7.78939 21.8295 8.24953C21.8678 9.0245 21.8589 9.80395 21.8295 10.5816C21.8161 10.9646 21.9509 11.0552 22.3124 11.0534C25.4226 11.0408 28.5337 11.0534 31.6438 11.0435C33.1855 11.0435 34.4112 11.6346 35.2959 12.9119C35.7544 13.5817 36 14.3754 36.0002 15.1884C36.0154 16.0216 36.0002 16.8558 36.0002 17.7447C36.8278 17.7447 37.6071 17.7348 38.3953 17.7447C39.7656 17.7671 40.6967 18.5304 40.9619 19.84C40.9905 20.0015 41.0031 20.1656 40.9994 20.3297C40.9994 22.7814 40.9994 25.233 40.9994 27.6847C40.9994 29.2095 39.9478 30.276 38.4257 30.2993C37.6392 30.3119 36.8519 30.2993 35.9993 30.2993C35.9993 31.1505 36.0047 31.965 35.9993 32.7803C36.0079 33.6995 35.711 34.5953 35.1557 35.3258C34.3336 36.4022 33.2346 36.9843 31.8938 36.9879C24.6331 37.004 17.3704 37.004 10.1056 36.9879C7.86489 36.9879 6.02235 35.1151 5.99914 32.8664C5.99378 32.0394 6.00093 31.2034 6.00093 30.3047ZM20.9546 35.3276C24.5254 35.3276 28.0962 35.3276 31.667 35.3276C33.2828 35.3276 34.33 34.2863 34.3317 32.6735C34.3389 26.9043 34.3389 21.134 34.3317 15.3624C34.3317 13.7909 33.298 12.7307 31.7376 12.728C24.5805 12.7167 17.4243 12.7167 10.2689 12.728C8.70582 12.728 7.67296 13.7882 7.67117 15.3588C7.66284 21.1429 7.66523 26.9271 7.67832 32.7112C7.67592 33.1129 7.75901 33.5105 7.92203 33.8773C8.39337 34.8818 9.23162 35.3303 10.3323 35.3285C13.8728 35.3219 17.4126 35.3211 20.9519 35.3258L20.9546 35.3276ZM5.97682 19.4229C5.18856 19.4229 4.41905 19.4184 3.65043 19.4229C2.98715 19.4274 2.67738 19.7404 2.66846 20.4158C2.65953 21.0912 2.66846 21.7612 2.66846 22.4321C2.66846 24.1651 2.66846 25.898 2.66846 27.6345C2.66846 28.2381 2.88092 28.5727 3.37726 28.5987C4.23336 28.6417 5.09304 28.6104 5.97593 28.6104L5.97682 19.4229ZM36.0386 19.4229V28.6283C36.7671 28.6283 37.4669 28.6283 38.1597 28.6283C38.2934 28.6321 38.4273 28.6273 38.5605 28.6139C39.0479 28.5512 39.3264 28.2821 39.3291 27.787C39.3404 25.2755 39.3404 22.7658 39.3291 20.2579C39.3334 20.1486 39.3154 20.0396 39.2761 19.9376C39.2368 19.8356 39.1772 19.7428 39.1008 19.6649C39.0244 19.587 38.9329 19.5256 38.832 19.4846C38.7311 19.4436 38.6229 19.4238 38.5141 19.4265C37.6946 19.4067 36.8786 19.4229 36.0386 19.4229ZM20.9823 6.01522C21.3099 6.01972 21.6314 5.92675 21.9065 5.74802C22.1817 5.56929 22.398 5.31278 22.5283 5.01077C22.6587 4.70877 22.6972 4.37478 22.639 4.05084C22.5808 3.72689 22.4286 3.42748 22.2014 3.19028C21.9743 2.95309 21.6824 2.78871 21.3624 2.71784C21.0425 2.64697 20.7089 2.67278 20.4035 2.79202C20.0981 2.91125 19.8347 3.11859 19.6464 3.38792C19.458 3.65726 19.3532 3.97656 19.3451 4.30563C19.3385 4.5265 19.3759 4.74645 19.4551 4.95261C19.5342 5.15876 19.6535 5.34697 19.806 5.50619C19.9585 5.66542 20.1411 5.79246 20.3431 5.87987C20.545 5.96727 20.7624 6.01329 20.9823 6.01522Z" fill="black"/>
<path d="M15.9349 22.764C15.4407 22.7509 14.9615 22.5908 14.5579 22.304C14.1542 22.0173 13.8442 21.6166 13.6672 21.1529C13.4901 20.6891 13.4539 20.183 13.5632 19.6985C13.6724 19.2141 13.9222 18.7731 14.2808 18.4312C14.6395 18.0894 15.091 17.8621 15.5783 17.7781C16.0655 17.6941 16.5667 17.7572 17.0182 17.9593C17.4698 18.1615 17.8516 18.4937 18.1153 18.9138C18.379 19.334 18.5127 19.8233 18.4997 20.3198C18.4805 20.9851 18.2 21.6157 17.7193 22.0737C17.2387 22.5318 16.5972 22.7799 15.9349 22.764ZM16.001 21.0804C16.1086 21.0821 16.2154 21.0622 16.3152 21.022C16.4151 20.9818 16.506 20.922 16.5826 20.8461C16.6592 20.7702 16.72 20.6797 16.7615 20.58C16.8029 20.4802 16.8242 20.3732 16.8241 20.2651C16.8277 20.1542 16.8091 20.0436 16.7693 19.94C16.7296 19.8364 16.6695 19.7419 16.5927 19.6622C16.5159 19.5824 16.4238 19.5189 16.3221 19.4756C16.2204 19.4323 16.111 19.41 16.0005 19.41C15.8901 19.41 15.7807 19.4323 15.679 19.4756C15.5773 19.5189 15.4852 19.5824 15.4084 19.6622C15.3316 19.7419 15.2715 19.8364 15.2318 19.94C15.192 20.0436 15.1734 20.1542 15.177 20.2651C15.1768 20.3733 15.198 20.4805 15.2395 20.5803C15.281 20.6802 15.3418 20.7707 15.4186 20.8467C15.4953 20.9226 15.5863 20.9824 15.6863 21.0225C15.7863 21.0627 15.8933 21.0823 16.001 21.0804Z" fill="black"/>
<path d="M25.9984 22.7649C25.5037 22.7649 25.0202 22.6174 24.6089 22.3411C24.1977 22.0649 23.8774 21.6722 23.6884 21.2129C23.4994 20.7535 23.4503 20.2482 23.5474 19.7608C23.6444 19.2735 23.8832 18.826 24.2334 18.475C24.5837 18.1241 25.0298 17.8855 25.5151 17.7894C26.0005 17.6933 26.5033 17.744 26.9599 17.9352C27.4165 18.1264 27.8064 18.4494 28.0802 18.8634C28.354 19.2773 28.4994 19.7636 28.4979 20.2606C28.4949 20.9251 28.2303 21.5614 27.762 22.0306C27.2937 22.4997 26.6597 22.7637 25.9984 22.7649ZM25.1789 20.2534C25.1771 20.3641 25.1974 20.474 25.2386 20.5767C25.2799 20.6793 25.3412 20.7726 25.419 20.851C25.4968 20.9294 25.5894 20.9913 25.6915 21.033C25.7935 21.0747 25.9028 21.0955 26.013 21.094C26.1231 21.0925 26.2319 21.0688 26.3327 21.0243C26.4336 20.9797 26.5246 20.9153 26.6002 20.8349C26.6759 20.7544 26.7347 20.6595 26.7731 20.5558C26.8116 20.452 26.8289 20.3416 26.8241 20.231C26.8148 20.0162 26.7226 19.8135 26.567 19.6658C26.4114 19.5182 26.2047 19.4372 25.9907 19.4401C25.7767 19.4431 25.5722 19.5296 25.4207 19.6814C25.2691 19.8333 25.1824 20.0384 25.1789 20.2534Z" fill="black"/>
<path d="M20.9903 30.3047C19.4854 30.3054 18.0003 29.9596 16.6491 29.2938C16.0724 29.0113 15.868 28.5906 16.0822 28.1278C16.3072 27.6416 16.7714 27.508 17.3722 27.795C19.1737 28.6543 21.0483 28.8292 22.9766 28.3807C23.5354 28.2516 24.0746 28.0219 24.6084 27.8013C25.2333 27.5439 25.6797 27.6309 25.9118 28.1054C26.1439 28.5799 25.9305 29.014 25.3351 29.3064C23.9818 29.9684 22.4955 30.3099 20.9903 30.3047Z" fill="black"/>
<path d="M6.00093 30.3047C5.17785 30.3047 4.42085 30.3047 3.66383 30.3047C2.03197 30.293 1.00089 29.2436 1 27.5986C1 25.2067 1 22.8148 1 20.423C1 18.8219 2.015 17.7761 3.6058 17.7483C4.37888 17.7348 5.15197 17.7483 6.00093 17.7483C6.00093 17.5527 5.99646 17.3814 6.00093 17.2101C6.02681 16.3006 5.9688 15.3785 6.09913 14.4842C6.23882 13.5498 6.7029 12.6951 7.40931 12.0714C8.11572 11.4476 9.01894 11.095 9.95918 11.0758C13.1131 11.0256 16.2688 11.0579 19.4218 11.0498C20.2654 11.0498 20.1574 11.1575 20.1637 10.3188C20.169 9.58599 20.1378 8.85228 20.1762 8.12127C20.1967 7.72571 20.0619 7.5526 19.7048 7.40371C18.3479 6.84221 17.5882 5.56764 17.6802 4.08947C17.7694 2.72789 18.7514 1.5179 20.0958 1.12952C21.7553 0.646065 23.506 1.55378 24.13 3.22301C24.4212 4.00662 24.402 4.87263 24.0764 5.64248C23.7509 6.41232 23.1438 7.02731 22.3802 7.36065C21.9214 7.55888 21.8062 7.78939 21.8295 8.24953C21.8678 9.0245 21.8589 9.80395 21.8295 10.5816C21.8161 10.9646 21.9509 11.0552 22.3124 11.0534C25.4226 11.0408 28.5337 11.0534 31.6438 11.0435C33.1855 11.0435 34.4112 11.6346 35.2959 12.9119C35.7544 13.5817 36 14.3754 36.0002 15.1884C36.0154 16.0216 36.0002 16.8558 36.0002 17.7447C36.8278 17.7447 37.6071 17.7348 38.3953 17.7447C39.7656 17.7671 40.6967 18.5304 40.9619 19.84C40.9905 20.0015 41.0031 20.1656 40.9994 20.3297C40.9994 22.7814 40.9994 25.233 40.9994 27.6847C40.9994 29.2095 39.9478 30.276 38.4257 30.2993C37.6392 30.3119 36.8519 30.2993 35.9993 30.2993C35.9993 31.1505 36.0047 31.965 35.9993 32.7803C36.0079 33.6995 35.711 34.5953 35.1557 35.3258C34.3336 36.4022 33.2346 36.9843 31.8938 36.9879C24.6331 37.004 17.3704 37.004 10.1056 36.9879C7.86489 36.9879 6.02235 35.1151 5.99914 32.8664C5.99378 32.0394 6.00093 31.2034 6.00093 30.3047ZM20.9546 35.3276C24.5254 35.3276 28.0962 35.3276 31.667 35.3276C33.2828 35.3276 34.33 34.2863 34.3317 32.6735C34.3389 26.9043 34.3389 21.134 34.3317 15.3624C34.3317 13.7909 33.298 12.7307 31.7376 12.728C24.5805 12.7167 17.4243 12.7167 10.2689 12.728C8.70582 12.728 7.67296 13.7882 7.67117 15.3588C7.66284 21.1429 7.66523 26.9271 7.67832 32.7112C7.67592 33.1129 7.75901 33.5105 7.92203 33.8773C8.39337 34.8818 9.23162 35.3303 10.3323 35.3285C13.8728 35.3219 17.4126 35.3211 20.9519 35.3258L20.9546 35.3276ZM5.97682 19.4229C5.18856 19.4229 4.41905 19.4184 3.65043 19.4229C2.98715 19.4274 2.67738 19.7404 2.66846 20.4158C2.65953 21.0912 2.66846 21.7612 2.66846 22.4321C2.66846 24.1651 2.66846 25.898 2.66846 27.6345C2.66846 28.2381 2.88092 28.5727 3.37726 28.5987C4.23336 28.6417 5.09304 28.6104 5.97593 28.6104L5.97682 19.4229ZM36.0386 19.4229V28.6283C36.7671 28.6283 37.4669 28.6283 38.1597 28.6283C38.2934 28.6321 38.4273 28.6273 38.5605 28.6139C39.0479 28.5512 39.3264 28.2821 39.3291 27.787C39.3404 25.2755 39.3404 22.7658 39.3291 20.2579C39.3334 20.1486 39.3154 20.0396 39.2761 19.9376C39.2368 19.8356 39.1772 19.7428 39.1008 19.6649C39.0244 19.587 38.9329 19.5256 38.832 19.4846C38.7311 19.4436 38.6229 19.4238 38.5141 19.4265C37.6946 19.4067 36.8786 19.4229 36.0386 19.4229ZM20.9823 6.01522C21.3099 6.01972 21.6314 5.92675 21.9065 5.74802C22.1817 5.56929 22.398 5.31278 22.5283 5.01077C22.6587 4.70877 22.6972 4.37478 22.639 4.05084C22.5808 3.72689 22.4286 3.42748 22.2014 3.19028C21.9743 2.95309 21.6824 2.78871 21.3624 2.71784C21.0425 2.64697 20.7089 2.67278 20.4035 2.79202C20.0981 2.91125 19.8347 3.11859 19.6464 3.38792C19.458 3.65726 19.3532 3.97656 19.3451 4.30563C19.3385 4.5265 19.3759 4.74645 19.4551 4.95261C19.5342 5.15876 19.6535 5.34697 19.806 5.50619C19.9585 5.66542 20.1411 5.79246 20.3431 5.87987C20.545 5.96727 20.7624 6.01329 20.9823 6.01522Z" stroke="black" stroke-width="0.3" stroke-miterlimit="10"/>
<path d="M15.9349 22.764C15.4407 22.7509 14.9615 22.5908 14.5579 22.304C14.1542 22.0173 13.8442 21.6166 13.6672 21.1529C13.4901 20.6891 13.4539 20.183 13.5632 19.6985C13.6724 19.2141 13.9222 18.7731 14.2808 18.4312C14.6395 18.0894 15.091 17.8621 15.5783 17.7781C16.0655 17.6941 16.5667 17.7572 17.0182 17.9593C17.4698 18.1615 17.8516 18.4937 18.1153 18.9138C18.379 19.334 18.5127 19.8233 18.4997 20.3198C18.4805 20.9851 18.2 21.6157 17.7193 22.0737C17.2387 22.5318 16.5972 22.7799 15.9349 22.764ZM16.001 21.0804C16.1086 21.0821 16.2154 21.0622 16.3152 21.022C16.4151 20.9818 16.506 20.922 16.5826 20.8461C16.6592 20.7702 16.72 20.6797 16.7615 20.58C16.8029 20.4802 16.8242 20.3732 16.8241 20.2651C16.8277 20.1542 16.8091 20.0436 16.7693 19.94C16.7296 19.8364 16.6695 19.7419 16.5927 19.6622C16.5159 19.5824 16.4238 19.5189 16.3221 19.4756C16.2204 19.4323 16.111 19.41 16.0005 19.41C15.8901 19.41 15.7807 19.4323 15.679 19.4756C15.5773 19.5189 15.4852 19.5824 15.4084 19.6622C15.3316 19.7419 15.2715 19.8364 15.2318 19.94C15.192 20.0436 15.1734 20.1542 15.177 20.2651C15.1768 20.3733 15.198 20.4805 15.2395 20.5803C15.281 20.6802 15.3418 20.7707 15.4186 20.8467C15.4953 20.9226 15.5863 20.9824 15.6863 21.0225C15.7863 21.0627 15.8933 21.0823 16.001 21.0804Z" stroke="black" stroke-width="0.3" stroke-miterlimit="10"/>
<path d="M25.9984 22.7649C25.5037 22.7649 25.0202 22.6174 24.6089 22.3411C24.1977 22.0649 23.8774 21.6722 23.6884 21.2129C23.4994 20.7535 23.4503 20.2482 23.5474 19.7608C23.6444 19.2735 23.8832 18.826 24.2334 18.475C24.5837 18.1241 25.0298 17.8855 25.5151 17.7894C26.0005 17.6933 26.5033 17.744 26.9599 17.9352C27.4165 18.1264 27.8064 18.4494 28.0802 18.8634C28.354 19.2773 28.4994 19.7636 28.4979 20.2606C28.4949 20.9251 28.2303 21.5614 27.762 22.0306C27.2937 22.4997 26.6597 22.7637 25.9984 22.7649ZM25.1789 20.2534C25.1771 20.3641 25.1974 20.474 25.2386 20.5767C25.2799 20.6793 25.3412 20.7726 25.419 20.851C25.4968 20.9294 25.5894 20.9913 25.6915 21.033C25.7935 21.0747 25.9028 21.0955 26.013 21.094C26.1231 21.0925 26.2319 21.0688 26.3327 21.0243C26.4336 20.9797 26.5246 20.9153 26.6002 20.8349C26.6759 20.7544 26.7347 20.6595 26.7731 20.5558C26.8116 20.452 26.8289 20.3416 26.8241 20.231C26.8148 20.0162 26.7226 19.8135 26.567 19.6658C26.4114 19.5182 26.2047 19.4372 25.9907 19.4401C25.7767 19.4431 25.5722 19.5296 25.4207 19.6814C25.2691 19.8333 25.1824 20.0384 25.1789 20.2534Z" stroke="black" stroke-width="0.3" stroke-miterlimit="10"/>
<path d="M20.9903 30.3047C19.4854 30.3054 18.0003 29.9596 16.6491 29.2938C16.0724 29.0113 15.868 28.5906 16.0822 28.1278C16.3072 27.6416 16.7714 27.508 17.3722 27.795C19.1737 28.6543 21.0483 28.8292 22.9766 28.3807C23.5354 28.2516 24.0746 28.0219 24.6084 27.8013C25.2333 27.5439 25.6797 27.6309 25.9118 28.1054C26.1439 28.5799 25.9305 29.014 25.3351 29.3064C23.9818 29.9684 22.4955 30.3099 20.9903 30.3047Z" stroke="black" stroke-width="0.3" stroke-miterlimit="10"/>
</svg>
