<svg width="37" height="37" viewBox="0 0 37 37" fill="none" xmlns="http://www.w3.org/2000/svg">
<path d="M18.5 36.5C28.4411 36.5 36.5 28.4411 36.5 18.5C36.5 8.55887 28.4411 0.5 18.5 0.5C8.55887 0.5 0.5 8.55887 0.5 18.5C0.5 28.4411 8.55887 36.5 18.5 36.5Z" fill="white" stroke="#DFE1E6"/>
<path d="M23.0172 19.9656C22.8901 19.9656 22.7709 19.9455 22.6596 19.9055C22.5483 19.8661 22.445 19.7987 22.3497 19.7033L18.2967 15.6503C18.2013 15.555 18.1339 15.4517 18.0945 15.3404C18.0545 15.2291 18.0344 15.1099 18.0344 14.9828C18.0344 14.8556 18.0545 14.7364 18.0945 14.6252C18.1339 14.5139 18.2013 14.4106 18.2967 14.3152L22.3497 10.2623C22.445 10.1669 22.5483 10.0995 22.6596 10.0601C22.7709 10.02 22.8901 10 23.0172 10C23.1444 10 23.2636 10.02 23.3748 10.0601C23.4861 10.0995 23.5894 10.1669 23.6848 10.2623L27.7377 14.3152C27.8331 14.4106 27.9005 14.5139 27.9399 14.6252C27.98 14.7364 28 14.8556 28 14.9828C28 15.1099 27.98 15.2291 27.9399 15.3404C27.9005 15.4517 27.8331 15.555 27.7377 15.6503L23.6848 19.7033C23.5894 19.7987 23.4861 19.8661 23.3748 19.9055C23.2636 19.9455 23.1444 19.9656 23.0172 19.9656ZM10.9536 18.4636C10.6834 18.4636 10.4571 18.372 10.2746 18.1889C10.0915 18.0065 10 17.7801 10 17.5099V11.7881C10 11.5179 10.0915 11.2912 10.2746 11.1081C10.4571 10.9257 10.6834 10.8344 10.9536 10.8344H16.6755C16.9457 10.8344 17.1723 10.9257 17.3554 11.1081C17.5379 11.2912 17.6291 11.5179 17.6291 11.7881V17.5099C17.6291 17.7801 17.5379 18.0065 17.3554 18.1889C17.1723 18.372 16.9457 18.4636 16.6755 18.4636H10.9536ZM20.4901 28C20.2199 28 19.9935 27.9084 19.8111 27.7254C19.628 27.5429 19.5364 27.3166 19.5364 27.0464V21.3245C19.5364 21.0543 19.628 20.8277 19.8111 20.6446C19.9935 20.4621 20.2199 20.3709 20.4901 20.3709H26.2119C26.4821 20.3709 26.7085 20.4621 26.8909 20.6446C27.074 20.8277 27.1656 21.0543 27.1656 21.3245V27.0464C27.1656 27.3166 27.074 27.5429 26.8909 27.7254C26.7085 27.9084 26.4821 28 26.2119 28H20.4901ZM10.9536 28C10.6834 28 10.4571 27.9084 10.2746 27.7254C10.0915 27.5429 10 27.3166 10 27.0464V21.3245C10 21.0543 10.0915 20.8277 10.2746 20.6446C10.4571 20.4621 10.6834 20.3709 10.9536 20.3709H16.6755C16.9457 20.3709 17.1723 20.4621 17.3554 20.6446C17.5379 20.8277 17.6291 21.0543 17.6291 21.3245V27.0464C17.6291 27.3166 17.5379 27.5429 17.3554 27.7254C17.1723 27.9084 16.9457 28 16.6755 28H10.9536ZM11.9073 16.5563H15.7219V12.7417H11.9073V16.5563ZM23.0411 17.7007L25.7351 15.0066L23.0411 12.3126L20.347 15.0066L23.0411 17.7007ZM21.4437 26.0927H25.2583V22.2781H21.4437V26.0927ZM11.9073 26.0927H15.7219V22.2781H11.9073V26.0927Z" fill="#818181"/>
</svg>
