<svg width="116" height="23" viewBox="0 0 116 23" fill="none" xmlns="http://www.w3.org/2000/svg">
<path d="M19.3066 5.55716C20.4508 7.31604 21.0618 9.38457 21.0617 11.5011C21.0617 12.9063 20.7922 14.2975 20.2687 15.5953C19.7453 16.8931 18.9783 18.0719 18.0117 19.0645C17.0452 20.0572 15.8982 20.8442 14.6362 21.381C13.3743 21.9179 12.0221 22.1941 10.6566 22.1941C8.59994 22.1942 6.58888 21.568 4.87769 20.3939C3.16641 19.2197 1.83162 17.55 1.04313 15.5952C0.254612 13.6403 0.0481639 11.4888 0.450156 9.41307C0.852143 7.33735 1.8443 5.43157 3.30014 3.93639C4.75592 2.44128 6.60989 1.4239 8.6272 1.01183C10.6445 0.599769 12.7355 0.811262 14.6361 1.61988C16.5368 2.42853 18.1624 3.79835 19.3066 5.55716Z" fill="white" stroke="#E8E8E8" stroke-width="0.5"/>
<path d="M8.81982 10.0534L12.533 14.6904C12.8057 15.0309 13.1483 15.3053 13.5365 15.4937C13.9246 15.6822 14.3485 15.7801 14.7778 15.7804H18.2868L14.3555 10.8632C14.1525 10.6095 13.8971 10.4052 13.6079 10.2651C13.3187 10.1249 13.0028 10.0524 12.6831 10.0527L8.81982 10.0534Z" fill="#41D7FF"/>
<path d="M12.8186 3.55762L3.02539 15.7811H6.53505C6.96459 15.78 7.38864 15.6818 7.77705 15.4934C8.16546 15.305 8.5087 15.0311 8.7824 14.6911L14.0326 8.12541C14.3749 7.69114 14.5616 7.14935 14.5616 6.59062C14.5616 6.0319 14.3749 5.4901 14.0326 5.05583L12.8186 3.55762Z" fill="#F241CD"/>
<path d="M10.6424 12.3448L12.4789 10.0537H8.81982L10.6424 12.3448Z" fill="#3D36CC"/>
<path d="M98.57 14.9809V12.0308H95.2489V10.977H98.5685V8.1748H99.7149V14.9809H98.57ZM93.2593 14.9809V8.1748H94.4019V14.9809H93.2593Z" fill="#F241CD"/>
<path d="M106.751 8.1748H107.873V11.9565C107.873 14.0515 106.871 15.0427 104.313 15.0427C101.778 15.0427 100.751 14.0515 100.751 11.9565V8.1748H101.934V11.9565C101.934 13.3201 102.526 13.8778 104.336 13.8778C106.146 13.8778 106.739 13.3201 106.739 11.9565V8.1748H106.751Z" fill="#F241CD"/>
<path d="M110.906 12.005V11.013H113.759C114.41 11.013 114.724 10.7783 114.724 10.1947C114.724 9.47579 114.169 9.36469 113.312 9.36469H110.077V13.7777H113.421C114.241 13.7777 114.845 13.543 114.845 12.8851C114.845 12.3273 114.495 12.005 113.843 12.005H110.906ZM108.915 14.9433V8.1748H113.743C115.038 8.1748 115.876 8.77014 115.876 9.92326C115.876 10.7783 115.454 11.2125 114.962 11.3737C115.565 11.5716 116 12.1051 116 12.8984C116 14.1376 115.167 14.9433 113.876 14.9433H108.915Z" fill="#F241CD"/>
<path fill-rule="evenodd" clip-rule="evenodd" d="M34.0783 5.77246H36.7664L43.1863 15.0428H40.2536L35.3496 7.73058L30.7549 14.4741H35.9034V15.0428H27.7407L34.0783 5.77246Z" fill="white"/>
<path fill-rule="evenodd" clip-rule="evenodd" d="M45.1738 5.77246H47.3082V13.2521H54.0373V15.0428H45.1738V5.77246Z" fill="white"/>
<path d="M58.3873 5.77246H56.2529V15.042H58.3873V5.77246Z" fill="white"/>
<path fill-rule="evenodd" clip-rule="evenodd" d="M88.024 15.0428H86.8342L79.3883 8.76792V15.0428H77.4824V5.77246H78.932L86.1174 12.0638V5.77246H88.024V15.0428Z" fill="white"/>
<path fill-rule="evenodd" clip-rule="evenodd" d="M66.5661 5.77246H69.2542L75.6741 15.0428H72.7407L67.8367 7.73058L63.2427 14.4741H68.3912V15.0428H60.2285L66.5661 5.77246Z" fill="white"/>
<path fill-rule="evenodd" clip-rule="evenodd" d="M89.9618 2.55371H89.6366C89.2598 2.59642 88.9133 2.78573 88.6683 3.08272C88.4233 3.37972 88.2983 3.76184 88.3191 4.15053C88.34 4.53922 88.505 4.90495 88.7803 5.17254C89.0555 5.44014 89.4202 5.58926 89.7992 5.58926C90.1783 5.58926 90.5429 5.44014 90.8182 5.17254C91.0935 4.90495 91.2585 4.53922 91.2793 4.15053C91.3001 3.76184 91.1752 3.37972 90.9301 3.08272C90.6851 2.78573 90.3386 2.59642 89.9618 2.55371ZM89.7988 2.69375C89.5346 2.69375 89.2762 2.77419 89.0564 2.92492C88.8367 3.07564 88.6653 3.28988 88.5641 3.54057C88.4628 3.79126 88.4361 4.06715 88.4875 4.33339C88.5388 4.59964 88.6658 4.84428 88.8525 5.03641C89.0391 5.22855 89.2771 5.35955 89.5362 5.41288C89.7953 5.46621 90.064 5.43947 90.3083 5.33603C90.5526 5.2326 90.7616 5.05711 90.9089 4.83174C91.0562 4.60638 91.1351 4.34123 91.1357 4.06982C91.1362 3.88923 91.102 3.71031 91.035 3.54333C90.968 3.37635 90.8696 3.22459 90.7454 3.09675C90.6212 2.96891 90.4737 2.8675 90.3112 2.79834C90.1488 2.72919 89.9747 2.69364 89.7988 2.69375Z" fill="white"/>
<path fill-rule="evenodd" clip-rule="evenodd" d="M89.4902 4.88239H89.2495V3.25128H89.9275C90.0144 3.2493 90.1012 3.25716 90.1864 3.27474C90.2449 3.28741 90.3003 3.31187 90.3495 3.34671C90.3989 3.38867 90.4376 3.44237 90.4622 3.50318C90.4899 3.56746 90.5039 3.63707 90.5033 3.70736C90.504 3.7731 90.4926 3.83838 90.4698 3.8998C90.4494 3.9553 90.4156 4.00456 90.3715 4.04297C90.3484 4.06411 90.3228 4.08224 90.2954 4.09695C90.262 4.11245 90.2277 4.12553 90.1925 4.13606C90.2362 4.1577 90.2775 4.18392 90.3159 4.21429C90.3491 4.24039 90.3769 4.27312 90.3974 4.31051C90.42 4.35336 90.4359 4.39954 90.4447 4.44742C90.4562 4.51125 90.4636 4.57581 90.4668 4.64066C90.4668 4.68916 90.4721 4.7267 90.4736 4.75252C90.4745 4.77352 90.4768 4.79443 90.4805 4.81511C90.4826 4.82791 90.4859 4.84048 90.4904 4.85266C90.4949 4.86466 90.5005 4.87618 90.5071 4.88707H90.2596C90.2558 4.87839 90.2525 4.86952 90.2497 4.86048C90.2453 4.84703 90.2425 4.83312 90.2413 4.81901C90.2413 4.77833 90.236 4.74705 90.2352 4.72592C90.2344 4.7048 90.2352 4.68055 90.2283 4.65238C90.2233 4.57907 90.2089 4.50675 90.1857 4.43725C90.1681 4.38309 90.1372 4.33456 90.0958 4.29644C90.0521 4.25781 89.9998 4.23093 89.9434 4.21821C89.8707 4.20151 89.7963 4.19389 89.7218 4.19552H89.4864L89.4902 4.88239ZM89.9115 3.98742C89.9663 3.98877 90.0212 3.98458 90.0752 3.97491C90.1087 3.96948 90.1402 3.95519 90.1666 3.93345C90.1948 3.9064 90.2167 3.8733 90.231 3.83652C90.2452 3.79973 90.2513 3.76016 90.2489 3.72066C90.2498 3.67264 90.241 3.62495 90.223 3.58062C90.2085 3.5421 90.1816 3.50981 90.1468 3.48909C90.1209 3.47563 90.0927 3.46715 90.0638 3.46406C90.0132 3.45864 89.9623 3.45629 89.9115 3.45702H89.4902V3.99134L89.9115 3.98742Z" fill="white"/>
</svg>
