<svg width="16" height="13" viewBox="0 0 16 13" fill="none" xmlns="http://www.w3.org/2000/svg">
<g id="icon">
<path d="M0.397473 0H1.98733C2.20707 0 2.38488 0.181691 2.38488 0.406241V2.03127C2.38488 2.25583 2.20707 2.43751 1.98741 2.43751H0.397473C0.177739 2.43751 0 2.25583 0 2.03127V0.406241C0 0.181691 0.177739 0 0.397473 0Z" fill="#2F3990"/>
<path d="M0.397473 5.28126H1.98733C2.20707 5.28126 2.38488 5.46295 2.38488 5.68747V7.31248C2.38488 7.53705 2.20707 7.71874 1.98741 7.71874H0.397473C0.177739 7.71874 0 7.53705 0 7.31253V5.68752C0 5.46295 0.177739 5.28126 0.397473 5.28126Z" fill="#2F3990"/>
<path d="M1.98733 10.5625H0.397473C0.177739 10.5625 0 10.7442 0 10.9687V12.5938C0 12.8183 0.177739 13 0.397473 13H1.98741C2.20707 13 2.38488 12.8183 2.38488 12.5938V10.9687C2.38488 10.7442 2.20707 10.5625 1.98733 10.5625Z" fill="#2F3990"/>
<path d="M4.37221 0.812495H14.8976C15.1173 0.812495 15.2951 0.994225 15.2951 1.21879V2.03127C15.2951 2.25583 15.1173 2.43751 14.8976 2.43751H4.37221C4.15256 2.43751 3.97474 2.25583 3.97474 2.03127V1.21879C3.97474 0.994225 4.15256 0.812495 4.37221 0.812495Z" fill="#2F3990"/>
<path d="M14.8955 5.68796H4.3701C4.15044 5.68796 3.97263 5.86969 3.97263 6.0942V6.90668C3.97263 7.13124 4.15044 7.31297 4.3701 7.31297H14.8955C15.1151 7.31297 15.293 7.13124 15.293 6.90668V6.0942C15.293 5.86969 15.1151 5.68796 14.8955 5.68796Z" fill="#2F3990"/>
<path d="M4.37221 10.5625H14.8976C15.1173 10.5625 15.2951 10.7442 15.2951 10.9688V11.7813C15.2951 12.0058 15.1173 12.1875 14.8976 12.1875H4.37221C4.15256 12.1875 3.97474 12.0058 3.97474 11.7813V10.9688C3.97474 10.7442 4.15256 10.5625 4.37221 10.5625Z" fill="#2F3990"/>
</g>
</svg>
