<svg width="18" height="12" viewBox="0 0 18 12" fill="none" xmlns="http://www.w3.org/2000/svg">
<path d="M10.1451 0.000248902C9.97801 0.00442973 9.81677 0.0622319 9.6848 0.164756C9.55284 0.26728 9.4574 0.409425 9.41214 0.570294L6.28508 10.994C6.2051 11.2617 6.27381 11.5516 6.46577 11.7549C6.65754 11.9579 6.94312 12.0434 7.21488 11.9788C7.48681 11.9143 7.70349 11.7096 7.78348 11.4419L10.9105 1.01821C10.9871 0.777175 10.9422 0.51415 10.7902 0.312005C10.6382 0.10986 10.3979 -0.00628032 10.1451 0.000262393L10.1451 0.000248902ZM4.90902 0.79026C4.70652 0.802439 4.51657 0.892961 4.37969 1.04275L0.210131 5.47276C0.0750742 5.61746 0 5.80813 0 6.00609C0 6.20404 0.0750742 6.39473 0.210131 6.53961L4.37969 10.9696C4.51766 11.1341 4.71725 11.2348 4.93154 11.2477C5.14586 11.2608 5.35617 11.185 5.51303 11.0383C5.66991 10.8915 5.75934 10.6868 5.76061 10.4719C5.76188 10.2572 5.67481 10.0513 5.51976 9.9028L1.85519 6.01012L5.51976 2.10943C5.66445 1.95711 5.74189 1.75297 5.73425 1.54283C5.7268 1.33288 5.635 1.13475 5.47977 0.993168C5.32453 0.851565 5.11876 0.77831 4.90898 0.790126L4.90902 0.79026ZM12.1809 0.79026C11.9833 0.805711 11.7988 0.895507 11.665 1.04183C11.5311 1.18798 11.4578 1.37957 11.4598 1.57772C11.4618 1.77604 11.5393 1.966 11.676 2.10942L15.3405 6.01011L11.676 9.90261V9.90279C11.5209 10.0513 11.4338 10.2573 11.4351 10.4719C11.4364 10.6868 11.5258 10.8914 11.6827 11.0383C11.8395 11.185 12.0499 11.2608 12.2642 11.2477C12.4785 11.2348 12.6781 11.1341 12.816 10.9696L16.9856 6.53959C17.1206 6.39472 17.1957 6.20404 17.1957 6.00608C17.1957 5.80812 17.1206 5.61744 16.9856 5.47275L12.816 1.04255C12.6542 0.865497 12.4201 0.772429 12.1809 0.790061L12.1809 0.79026Z" fill="#818181"/>
</svg>
