<svg width="9" height="5" viewBox="0 0 9 5" fill="none" xmlns="http://www.w3.org/2000/svg">
<path fill-rule="evenodd" clip-rule="evenodd" d="M0.201528 0.167961C0.311166 0.0595758 0.457074 -0.000129253 0.612261 -0.000129267C0.767556 -0.00012928 0.913464 0.0595757 1.02298 0.167961L4.51607 3.6157L8.00904 0.168605C8.11867 0.0601351 8.26458 0.000350064 8.41988 0.000350051C8.57517 0.000350037 8.72108 0.059655 8.83106 0.168605C9.05731 0.39206 9.05731 0.75609 8.83094 0.980025L4.92702 4.83348C4.8183 4.94042 4.67251 4.99932 4.51641 4.99932C4.51641 4.99932 4.51641 4.99932 4.5163 4.99932C4.35985 4.99932 4.21383 4.94018 4.10534 4.83275L0.20142 0.979626C-0.024372 0.756091 -0.0243721 0.392061 0.201528 0.167961Z" fill="black"/>
</svg>
