<svg width="24" height="24" viewBox="0 0 24 24" fill="none" xmlns="http://www.w3.org/2000/svg">
<path d="M12 23.5C18.3513 23.5 23.5 18.3513 23.5 12C23.5 5.64873 18.3513 0.5 12 0.5C5.64873 0.5 0.5 5.64873 0.5 12C0.5 18.3513 5.64873 23.5 12 23.5Z" fill="white" stroke="#DFE1E6"/>
<path d="M13.6364 12.3333C14.8418 12.3333 15.8182 11.3637 15.8182 10.1667C15.8182 8.96958 14.8418 8 13.6364 8C12.4309 8 11.4545 8.96958 11.4545 10.1667C11.4545 11.3637 12.4309 12.3333 13.6364 12.3333ZM8.72727 11.25V10.1667C8.72727 9.86875 8.48182 9.625 8.18182 9.625C7.88182 9.625 7.63636 9.86875 7.63636 10.1667V11.25H6.54545C6.24545 11.25 6 11.4937 6 11.7917C6 12.0896 6.24545 12.3333 6.54545 12.3333H7.63636V13.4167C7.63636 13.7146 7.88182 13.9583 8.18182 13.9583C8.48182 13.9583 8.72727 13.7146 8.72727 13.4167V12.3333H9.81818C10.1182 12.3333 10.3636 12.0896 10.3636 11.7917C10.3636 11.4937 10.1182 11.25 9.81818 11.25H8.72727ZM13.6364 13.4167C12.18 13.4167 9.27273 14.1425 9.27273 15.5833V16.125C9.27273 16.4229 9.51818 16.6667 9.81818 16.6667H17.4545C17.7545 16.6667 18 16.4229 18 16.125V15.5833C18 14.1425 15.0927 13.4167 13.6364 13.4167Z" fill="#818181"/>
</svg>
