<svg width="13" height="18" viewBox="0 0 13 18" fill="none" xmlns="http://www.w3.org/2000/svg">
<path d="M6.87328 0.5C7.22995 0.630911 7.61333 0.714734 7.93793 0.900747C9.03097 1.53059 9.582 2.50674 9.59168 3.76275C9.60705 5.69702 9.6017 7.63163 9.59402 9.56591C9.58734 11.1512 8.59482 12.4015 7.05595 12.7876C5.43593 13.1943 3.63424 12.1344 3.22114 10.5167C3.13809 10.1952 3.09424 9.86485 3.09056 9.53284C3.07854 7.62061 3.07253 5.70838 3.08889 3.79648C3.10091 2.39386 3.74979 1.36495 5.02216 0.75748C5.26829 0.639594 5.54514 0.586161 5.80796 0.503005L6.87328 0.5ZM4.10679 6.65848C4.10679 7.61159 4.10178 8.56504 4.11013 9.51815C4.1089 9.75032 4.13524 9.98181 4.18861 10.2078C4.45577 11.2601 5.51575 11.9711 6.6001 11.8401C7.68446 11.7092 8.55942 10.7912 8.56711 9.71285C8.5818 7.67939 8.58547 5.64526 8.56711 3.6118C8.55475 2.30737 7.27536 1.28446 5.99164 1.51189C4.87255 1.70992 4.11647 2.60292 4.10946 3.74939C4.10178 4.71887 4.10679 5.68868 4.10679 6.65848ZM5.60959 16.4831C5.06057 16.4831 4.51188 16.4771 3.96319 16.4868C3.64726 16.4925 3.44121 16.7062 3.44288 16.9948C3.44455 17.2833 3.65996 17.491 3.9682 17.4994C3.99591 17.4994 4.02363 17.4994 4.05135 17.4994H8.62421C8.67992 17.501 8.73567 17.4995 8.79119 17.4947C8.90209 17.4816 9.00558 17.4323 9.08568 17.3545C9.16578 17.2767 9.21803 17.1747 9.23435 17.0642C9.26474 16.8281 9.13416 16.5967 8.91375 16.5229C8.81822 16.4952 8.71897 16.4825 8.61954 16.4851C8.09289 16.4815 7.56657 16.4851 7.03992 16.4828C6.98081 16.4828 6.9217 16.4778 6.85692 16.4748V15.139C7.22727 15.0578 7.59162 15.0054 7.93793 14.8975C9.39598 14.4407 10.494 13.535 11.2207 12.1898C11.6525 11.3883 11.8529 10.5274 11.8599 9.62067C11.8608 9.55262 11.8478 9.4851 11.8216 9.42228C11.7954 9.35946 11.7566 9.30266 11.7077 9.25539C11.6587 9.20811 11.6006 9.17136 11.5369 9.1474C11.4732 9.12344 11.4053 9.11278 11.3373 9.11607C11.2197 9.11717 11.1064 9.1609 11.0186 9.23914C10.9308 9.31738 10.8743 9.42482 10.8597 9.54153C10.8297 9.7773 10.8303 10.0174 10.7949 10.2522C10.5946 11.5793 9.94434 12.6413 8.82158 13.3677C7.35418 14.3174 5.80162 14.3922 4.24638 13.5978C3.10759 13.0157 2.35486 12.0759 2.01622 10.8369C1.91069 10.4516 1.88865 10.0421 1.83856 9.64238C1.79548 9.30008 1.59911 9.10204 1.29688 9.11674C1.00167 9.13076 0.789937 9.3662 0.826338 9.70183C0.880105 10.1954 0.908491 10.7037 1.05577 11.1712C1.68527 13.1696 3.02911 14.444 5.06324 14.9783C5.3127 15.0451 5.57018 15.0785 5.82933 15.1269V16.4831C5.7415 16.4831 5.67638 16.4828 5.61059 16.4831H5.60959Z" fill="#818181" stroke="#818181" stroke-width="0.3"/>
</svg>
