<svg width="40" height="40" viewBox="0 0 40 40" fill="none" xmlns="http://www.w3.org/2000/svg">
<rect width="40" height="40" rx="4" fill="#E1E3F4"/>
<path d="M14.6471 29C16.1029 29 17.2941 27.8429 17.2941 26.4286V13.5714C17.2941 12.1571 16.1029 11 14.6471 11C13.1912 11 12 12.1571 12 13.5714V26.4286C12 27.8429 13.1912 29 14.6471 29ZM22.5882 13.5714V26.4286C22.5882 27.8429 23.7794 29 25.2353 29C26.6912 29 27.8824 27.8429 27.8824 26.4286V13.5714C27.8824 12.1571 26.6912 11 25.2353 11C23.7794 11 22.5882 12.1571 22.5882 13.5714Z" fill="#2F3990"/>
</svg>
