<svg width="15" height="22" viewBox="0 0 15 22" fill="none" xmlns="http://www.w3.org/2000/svg">
<path d="M8.11884 1C8.53845 1.15401 8.98948 1.25263 9.37137 1.47147C10.6573 2.21246 11.3056 3.36087 11.317 4.83853C11.335 7.11415 11.3287 9.39015 11.3197 11.6658C11.3119 13.5308 10.1442 15.0018 8.33375 15.456C6.42784 15.9345 4.30821 14.6875 3.8222 12.7843C3.72449 12.4061 3.67291 12.0175 3.66858 11.6269C3.65444 9.37719 3.64737 7.1275 3.66662 4.87821C3.68076 3.22808 4.44415 2.01758 5.94105 1.30292C6.23061 1.16423 6.55632 1.10137 6.86552 1.00354L8.11884 1ZM4.86414 8.24528C4.86414 9.36658 4.85825 10.4883 4.86807 11.6096C4.86662 11.8827 4.89762 12.1551 4.9604 12.4209C5.27471 13.6589 6.52174 14.4954 7.79746 14.3413C9.07317 14.1873 10.1025 13.1073 10.1116 11.8386C10.1289 9.44634 10.1332 7.05325 10.1116 4.66094C10.097 3.12632 8.59188 1.9229 7.08161 2.19046C5.76504 2.42344 4.87554 3.47403 4.86729 4.82281C4.85825 5.96337 4.86414 7.10432 4.86414 8.24528ZM6.63215 19.8037C5.98624 19.8037 5.34072 19.7966 4.6952 19.808C4.32353 19.8147 4.08112 20.0661 4.08308 20.4056C4.08505 20.7451 4.33846 20.9894 4.7011 20.9993C4.7337 20.9993 4.76632 20.9993 4.79893 20.9993H10.1788C10.2443 21.0012 10.3099 20.9994 10.3752 20.9938C10.5057 20.9783 10.6274 20.9204 10.7217 20.8288C10.8159 20.7373 10.8774 20.6173 10.8966 20.4873C10.9323 20.2095 10.7787 19.9373 10.5194 19.8504C10.407 19.8179 10.2902 19.8029 10.1733 19.806C9.55367 19.8017 8.93448 19.806 8.31489 19.8033C8.24535 19.8033 8.17581 19.7974 8.09959 19.7939V18.2223C8.5353 18.1268 8.96395 18.0652 9.37137 17.9383C11.0867 17.4008 12.3785 16.3353 13.2335 14.7527C13.7415 13.8098 13.9772 12.7969 13.9855 11.7302C13.9865 11.6501 13.9712 11.5707 13.9404 11.4968C13.9096 11.4229 13.864 11.3561 13.8064 11.3005C13.7488 11.2448 13.6804 11.2016 13.6054 11.1734C13.5305 11.1452 13.4506 11.1327 13.3706 11.1365C13.2322 11.1379 13.099 11.1893 12.9957 11.2813C12.8924 11.3734 12.826 11.4998 12.8088 11.6371C12.7734 11.9145 12.7742 12.197 12.7325 12.4732C12.4968 14.0345 11.7319 15.2839 10.411 16.1384C8.6846 17.2558 6.85806 17.3438 5.02837 16.4091C3.68862 15.7243 2.80305 14.6187 2.40466 13.1611C2.2805 12.7077 2.25457 12.226 2.19564 11.7557C2.14496 11.353 1.91394 11.12 1.55837 11.1373C1.21106 11.1538 0.961966 11.4308 1.00479 11.8257C1.06805 12.4064 1.10144 13.0043 1.27471 13.5544C2.0153 15.9054 3.59629 17.4047 5.98938 18.0333C6.28287 18.1119 6.58579 18.1512 6.89067 18.2082V19.8037C6.78734 19.8037 6.71072 19.8033 6.63333 19.8037H6.63215Z" fill="#818181" stroke="#818181" stroke-width="0.3"/>
</svg>
