<svg width="172" height="106" viewBox="0 0 172 106" fill="none" xmlns="http://www.w3.org/2000/svg">
<path d="M1.35098 80.9829C1.35098 80.9829 2.12906 81.9823 3.53988 83.5453L2.27444 84.6984C0.820868 83.1098 0.0342016 82.136 0 82.0591L1.35098 80.9829ZM38.4341 79.6591C39.415 81.8316 40.5973 83.9076 41.9654 85.86L43.3677 84.8778C42.0443 83.0163 40.8992 81.0345 39.9475 78.9587L38.4341 79.6591ZM31.3971 104.164C33.6688 104.861 35.9937 105.373 38.3486 105.693L38.5794 103.984C36.3179 103.673 34.0849 103.182 31.9016 102.515L31.3971 104.164ZM45.3941 104.292L45.4796 106C47.8637 105.887 50.2315 105.546 52.5508 104.984L52.1489 103.327C49.9209 103.858 47.648 104.182 45.3599 104.292H45.3941ZM46.5912 91.2922C48.2938 92.9616 50.1487 94.4685 52.1319 95.7934L53.0809 94.3755C51.1891 93.1174 49.4174 91.6878 47.7882 90.1049L46.5912 91.2922ZM37.8612 72.5016C37.4481 70.619 37.236 68.6979 37.2285 66.7706C37.2285 66.4375 37.2285 66.1043 37.2285 65.7798L35.5184 65.7114C35.5184 66.0616 35.5184 66.4118 35.5184 66.7706C35.5245 68.8184 35.7481 70.8596 36.1853 72.8603L37.8612 72.5016ZM18.5373 98.219C20.5468 99.4651 22.6282 100.592 24.7706 101.593L25.4888 100.047C23.4098 99.07 21.3886 97.975 19.4351 96.7671L18.5373 98.219ZM41.991 53.583L40.7341 52.4214C39.0818 54.2256 37.7928 56.331 36.9378 58.6223L38.5367 59.2201C39.305 57.1423 40.4662 55.2314 41.9568 53.5915L41.991 53.583ZM76.9793 57.6486L78.3901 56.6834C77.0234 54.7035 75.4053 52.9091 73.5762 51.3452L72.4647 52.6435C74.1595 54.1137 75.6543 55.7992 76.9109 57.6571L76.9793 57.6486ZM7.30208 89.6522C9.06346 91.258 10.8847 92.7869 12.7144 94.1962L13.7576 92.8381C11.962 91.4629 10.175 89.9683 8.46492 88.3967L7.30208 89.6522ZM46.5057 48.1423L47.2923 49.6541C49.2841 48.6064 51.4187 47.8554 53.6282 47.4249L53.3118 45.7166C50.9382 46.1942 48.6459 47.0112 46.5057 48.1423ZM60.3231 47.2113C62.5504 47.5021 64.721 48.1269 66.7616 49.0647L67.4713 47.5103C65.275 46.4973 62.9364 45.8262 60.5369 45.5202L60.3231 47.2113ZM85.8974 99.1842L86.3249 100.841C88.6148 100.256 90.8676 99.5344 93.0712 98.6803L92.4555 97.0831C90.3129 97.9002 88.1229 98.5875 85.8974 99.1414V99.1842ZM98.723 94.2816L99.5011 95.8019C101.528 94.777 103.605 93.6154 105.657 92.3855L104.802 90.9334C102.784 92.095 100.749 93.231 98.7572 94.2645L98.723 94.2816ZM110.369 86.8678L111.412 88.2174C113.259 86.7995 115.114 85.3475 116.927 83.887L115.858 82.5546C114.088 83.9639 112.241 85.4159 110.403 86.8252L110.369 86.8678ZM64.5983 97.9713C63.9998 98.3471 63.3927 98.7144 62.7856 99.0646C61.5007 98.675 60.239 98.2131 59.0064 97.6809L58.3309 99.2525C59.109 99.5856 59.9041 99.8931 60.7079 100.175C59.9897 100.539 59.2715 100.881 58.5532 101.2L59.2372 102.763C60.497 102.193 61.751 101.573 62.9994 100.901C63.7005 101.106 64.4102 101.285 65.1199 101.439L65.4961 99.7735L65.0857 99.6795L65.5132 99.4148L64.5983 97.9713ZM121.245 78.1473L122.348 79.4542C124.22 77.874 125.999 76.3281 127.649 74.8505L126.512 73.5778C124.904 74.9871 123.134 76.516 121.279 78.0876L121.245 78.1473ZM76.244 90.1049L74.9187 89.0202C73.4653 90.7747 71.8602 92.3982 70.1219 93.8716L71.2334 95.1699C73.0643 93.6274 74.7526 91.9236 76.2782 90.0793L76.244 90.1049ZM79.9805 63.6871C80.7384 65.812 81.2016 68.0306 81.3571 70.281L83.0672 70.1614C82.8997 67.7575 82.4078 65.3873 81.6051 63.1149L79.9805 63.6871ZM74.209 100.687C73.5164 100.687 72.9093 100.687 72.2681 100.687L72.1911 102.396C72.8409 102.396 73.4993 102.396 74.1577 102.396H74.209C75.923 102.396 77.6356 102.301 79.3392 102.114L79.1511 100.406C77.5209 100.579 75.8826 100.665 74.2432 100.662L74.209 100.687ZM78.6381 83.3489L80.1686 84.109C81.2544 81.9642 82.0563 79.6875 82.5542 77.336L80.8869 76.9857C80.4208 79.1836 79.6766 81.3131 78.6723 83.3232L78.6381 83.3489ZM171.966 1.72119C171.803 3.42942 171.624 5.18886 171.487 6.92271C170.831 15.424 170.182 23.9253 169.537 32.4266C168.922 40.6431 168.312 48.8626 167.708 57.0848L167.502 59.6472C167.391 60.9369 166.767 61.3555 165.51 60.9797L146.87 55.2229C146.015 54.9667 145.22 54.7617 144.425 54.4457C144.317 54.3814 144.197 54.3416 144.072 54.3291C143.947 54.3166 143.821 54.3316 143.703 54.3732C143.585 54.4148 143.477 54.4818 143.387 54.5696C143.298 54.6574 143.229 54.7638 143.185 54.8813C139.927 60.1768 136.627 65.4382 133.335 70.7166C133.224 70.8874 133.121 71.0668 133.002 71.2376C132.895 71.4571 132.727 71.6406 132.517 71.7655C132.308 71.8903 132.066 71.951 131.822 71.9401C131.578 71.9292 131.343 71.8471 131.145 71.704C130.948 71.561 130.796 71.3632 130.71 71.1351C129.479 68.8802 128.265 66.6083 127.051 64.3022C123.913 58.4344 120.757 52.5666 117.645 46.6903C117.531 46.4647 117.37 46.2663 117.172 46.1086C116.974 45.9509 116.745 45.8376 116.499 45.7764C109.733 43.7094 102.978 41.6169 96.2348 39.4987C95.779 39.3463 95.3876 39.0455 95.1233 38.6445C94.7642 38.0637 95.1233 37.406 95.9783 37.0046L110.386 29.8471L157.558 6.39317L169.726 0.328975C170.752 -0.183494 171.111 -0.123764 171.906 0.696186C171.94 1.08054 171.966 1.38806 172 1.69554L171.966 1.72119ZM118.56 43.1969C134.07 30.7269 149.589 18.2682 165.117 5.82087C165.254 5.70984 165.373 5.57324 165.502 5.45366L165.408 5.33407L99.5695 38.0551L100.749 38.431C106.162 40.1392 111.591 41.7706 116.995 43.4703C117.261 43.5866 117.556 43.6202 117.841 43.5669C118.126 43.5135 118.388 43.3758 118.594 43.1714L118.56 43.1969ZM131.052 65.9079C131.497 60.7832 131.907 55.6585 132.412 50.5339C132.471 49.9179 132.692 49.3286 133.053 48.8256C142.544 36.6687 152.049 24.5289 161.568 12.4062L162.073 11.7485L161.91 11.5947L119.74 45.5543L130.907 66.3691C130.983 66.2131 131.043 66.0501 131.086 65.8823L131.052 65.9079ZM141.167 53.4976L134.806 51.5331C134.404 56.188 134.002 60.749 133.609 65.31L133.754 65.3868C136.242 61.4237 138.705 57.4863 141.201 53.472L141.167 53.4976ZM168.973 6.89707L135.78 49.2527L165.1 58.3063C166.425 41.1129 167.708 24.099 169.007 6.87152L168.973 6.89707Z" fill="#343F99"/>
</svg>
