<svg width="40" height="40" viewBox="0 0 40 40" fill="none" xmlns="http://www.w3.org/2000/svg">
<path d="M13.8271 28.2455C13.6058 28.3392 13.1533 28.4839 12.7464 28.7116C11.8387 29.2187 11.2693 29.0866 10.7499 28.1865C9.93243 26.7704 9.11581 25.3537 8.3001 23.9363C7.77444 23.0202 7.9342 22.4987 8.81863 21.9389C9.21042 21.6907 9.61471 21.3889 9.87084 21.0138C10.4527 20.1638 10.1993 19.0209 9.36125 18.3985C9.11136 18.2128 8.83022 18.0708 8.56873 17.9012C8.00291 17.5351 7.82533 16.8931 8.15911 16.3073C9.05692 14.7311 9.96396 13.1608 10.8802 11.5964C11.2649 10.9419 11.9244 10.8062 12.6116 11.2196C13.1685 11.5535 13.7263 11.8384 14.4117 11.7142C14.863 11.6421 15.2753 11.4159 15.5789 11.0741C15.8824 10.7323 16.0584 10.296 16.077 9.83914C16.0886 9.60163 16.077 9.36233 16.0842 9.12482C16.1083 8.4105 16.5759 7.89351 17.2827 7.88636C19.0968 7.86672 20.9115 7.86672 22.7268 7.88636C23.4327 7.8944 23.8968 8.41318 23.9209 9.13018C23.928 9.33823 23.9209 9.54628 23.9209 9.75522C23.9637 11.2473 25.405 12.1661 26.7687 11.5625C27.0258 11.4491 27.2596 11.2848 27.5095 11.1535C28.1146 10.8356 28.7589 10.9821 29.1007 11.5669C30.0348 13.1551 30.9556 14.7519 31.8629 16.3573C32.1708 16.902 31.9887 17.5315 31.4649 17.8833C31.2301 18.0405 30.9776 18.1699 30.7446 18.3298C29.5086 19.1682 29.5193 20.8817 30.7652 21.6987C30.9892 21.8451 31.2275 21.9666 31.4506 22.1148C31.9923 22.472 32.1726 23.1148 31.8531 23.6774C30.9499 25.2667 30.0351 26.8499 29.1088 28.4267C28.7366 29.0589 28.0699 29.1946 27.4077 28.7955C26.8374 28.4517 26.269 28.1571 25.5666 28.2928C25.1233 28.3695 24.7193 28.5948 24.421 28.9317C24.1228 29.2686 23.9479 29.697 23.9253 30.1465C23.9119 30.3992 23.9253 30.6527 23.9164 30.9054C23.887 31.5948 23.4229 32.1118 22.7401 32.1198C20.9106 32.1412 19.081 32.1412 17.2515 32.1198C16.5706 32.1109 16.1145 31.5894 16.0797 30.8992C16.0592 30.5001 16.0797 30.0884 15.9833 29.7054C15.7727 28.8276 14.9641 28.2401 13.8271 28.2455ZM27.6701 26.2391C28.1369 25.431 28.5786 24.6399 29.0498 23.8676C29.2149 23.5997 29.173 23.4586 28.941 23.2425C27.6371 22.0317 27.231 20.5442 27.6549 18.8209C27.8923 17.8583 28.4706 17.1244 29.2373 16.4734L27.6772 13.7724C24.8963 14.8367 22.0547 13.2036 21.5567 10.2811H18.4242C18.1779 11.7098 17.4818 12.8063 16.2395 13.5206C14.9972 14.2349 13.6772 14.2706 12.334 13.7581C11.8664 14.5671 11.4255 15.3591 10.9534 16.1314C10.7856 16.4056 10.8338 16.5422 11.0641 16.7565C12.3689 17.9673 12.7722 19.4557 12.3474 21.1781C12.11 22.1416 11.5317 22.8747 10.766 23.5247L12.3269 26.2293C15.1132 25.1578 17.9494 26.8016 18.4438 29.7206H21.5746C22.0074 26.8749 24.8678 25.1319 27.6701 26.2391Z" fill="black"/>
<path d="M9.45674 34.1485C10.766 35.1443 12.2141 35.9427 13.7548 36.5182C16.3287 37.479 18.9918 37.8799 21.7245 37.5728C26.8258 37.0013 30.9695 34.6771 34.0976 30.5938C36.0887 27.9937 37.2212 25.0328 37.563 21.7862C37.8889 18.7538 37.4054 15.6891 36.1619 12.9045C36.0509 12.6776 35.9555 12.4434 35.8763 12.2036C35.7948 11.9269 35.8191 11.6297 35.9446 11.37C36.0701 11.1103 36.2878 10.9067 36.5551 10.7988C36.8225 10.6909 37.1205 10.6865 37.391 10.7864C37.6614 10.8863 37.8851 11.0834 38.0182 11.3392C38.7202 12.7182 39.2307 14.1866 39.5354 15.7037C40.6635 21.2898 39.7665 26.5231 36.5242 31.2403C33.1373 36.1646 28.4403 39.0791 22.4822 39.8309C17.4371 40.4667 12.807 39.3041 8.60443 36.4379C8.52232 36.3825 8.43486 36.3352 8.27154 36.2361C8.3715 37.0334 8.45628 37.754 8.55445 38.4683C8.62941 39.0094 8.53392 39.4827 8.04218 39.7952C7.30411 40.264 6.38487 39.8363 6.25725 38.9514C6.06448 37.5978 5.90027 36.2405 5.72177 34.8842C5.65752 34.3985 5.56916 33.9145 5.53792 33.427C5.49151 32.7189 5.91544 32.2368 6.61781 32.1439L11.8744 31.4492C12.6562 31.3456 13.2559 31.7474 13.3577 32.4466C13.4541 33.102 12.9819 33.6493 12.21 33.7627C11.3327 33.8904 10.4527 34.0092 9.45674 34.1485Z" fill="black"/>
<path d="M31.7237 3.68882C31.6344 2.962 31.5452 2.24232 31.4479 1.52532C31.3729 0.982431 31.472 0.510088 31.9655 0.20025C32.7036 -0.263167 33.6192 0.168993 33.7451 1.05386C33.9379 2.4075 34.1021 3.76472 34.2806 5.12104C34.3439 5.60678 34.4323 6.09073 34.4635 6.57915C34.5081 7.26669 34.0958 7.7578 33.4202 7.84976C31.6389 8.08787 29.8569 8.323 28.0744 8.55515C27.3265 8.65158 26.7357 8.22746 26.6411 7.54439C26.5518 6.90328 27.0249 6.34522 27.7549 6.24075C28.6474 6.11306 29.5398 5.9943 30.5465 5.8559C30.3198 5.68179 30.1788 5.56125 30.0262 5.45767C26.6054 3.1513 22.8454 2.10035 18.7196 2.395C11.2051 2.93075 4.75791 8.28817 2.90962 15.5796C1.88746 19.612 2.23136 23.5318 3.94132 27.3392C4.07118 27.6045 4.14644 27.8933 4.16265 28.1883C4.16265 28.7241 3.78246 29.1384 3.25502 29.2598C2.74364 29.3759 2.22155 29.1312 1.96184 28.616C1.27189 27.2474 0.768518 25.7924 0.465181 24.2899C-0.661107 18.72 0.228676 13.4992 3.45314 8.79356C6.8445 3.84776 11.5487 0.923505 17.5237 0.169001C22.5518 -0.464961 27.1703 0.690455 31.3658 3.53793C31.4399 3.58793 31.513 3.63883 31.5898 3.68347C31.6148 3.69419 31.6478 3.68525 31.7237 3.68882Z" fill="black"/>
<path d="M25.0891 19.9718C25.0971 22.7595 22.8053 25.0775 20.0315 25.0864C17.2578 25.0953 14.9266 22.7997 14.9195 20.0263C14.9115 17.2387 17.2042 14.9207 19.9771 14.9117C22.7624 14.9028 25.0784 17.1958 25.0891 19.9718ZM22.7455 20.0111C22.7553 18.5441 21.5175 17.2833 20.0387 17.2556C18.5598 17.2279 17.272 18.4968 17.2622 19.9861C17.2524 21.4532 18.4911 22.7148 19.969 22.7425C21.447 22.7702 22.7339 21.5032 22.7437 20.0111H22.7455Z" fill="black"/>
</svg>
