<svg width="30" height="30" viewBox="0 0 30 30" fill="none" xmlns="http://www.w3.org/2000/svg">
<path d="M24.3198 29.9708C19.8434 29.9543 15.3669 29.9506 10.8905 29.9596H5.51927C5.31519 29.9596 5.1111 29.9596 4.90926 29.9393C3.89294 29.8855 2.91546 29.5297 2.10089 28.917C1.28632 28.3044 0.671396 27.4626 0.334158 26.4984C0.196843 26.0831 0.0852463 25.6597 0 25.2305V21.7558C0.0865133 21.4676 0.272897 21.2199 0.525452 21.0576C0.778007 20.8952 1.08006 20.829 1.37701 20.8709C2.35483 20.8979 3.3304 20.8709 4.30597 20.8709H4.85543V20.4655C4.85543 14.0911 4.85543 7.71667 4.85543 1.34226C4.81467 1.09635 4.85634 0.843821 4.97391 0.624245C5.09148 0.404668 5.2783 0.230482 5.50507 0.128993C5.73184 0.0275041 5.98575 0.00446027 6.22697 0.0634656C6.4682 0.122471 6.6831 0.26017 6.83798 0.455014C7.73506 1.25895 8.63214 2.05389 9.52921 2.85557C9.60547 2.92538 9.69068 2.98843 9.7759 3.05824L10.0114 2.85557C10.9279 2.03137 11.8452 1.20566 12.7632 0.378457C12.8683 0.26088 12.997 0.166836 13.1407 0.102466C13.2844 0.0380957 13.4401 0.00484496 13.5975 0.00484496C13.7548 0.00484496 13.9105 0.0380957 14.0542 0.102466C14.1979 0.166836 14.3266 0.26088 14.4317 0.378457L17.2261 2.88708C17.2889 2.94338 17.3585 2.99294 17.4302 3.04924L20.3457 0.43024C20.4525 0.296013 20.5879 0.187667 20.742 0.113187C20.8962 0.0387063 21.065 0 21.2361 0C21.4071 0 21.576 0.0387063 21.7301 0.113187C21.8843 0.187667 22.0197 0.296013 22.1264 0.43024C23.0235 1.23642 23.9258 2.04638 24.8334 2.86008C24.9096 2.92988 24.9904 2.99291 25.0733 3.06047L28.0359 0.428006C28.1668 0.28788 28.3299 0.182165 28.5109 0.120128C28.692 0.0580902 28.8854 0.0416168 29.0743 0.0721934C29.3627 0.1235 29.6196 0.286056 29.7901 0.525077C29.9607 0.764099 30.0314 1.06064 29.9871 1.3513V24.546C29.9871 24.6946 29.9871 24.841 29.9759 24.9964C29.915 26.182 29.4494 27.3105 28.6572 28.1918C28.1152 28.7948 27.4465 29.2693 26.6994 29.5809C25.9524 29.8925 25.1457 30.0333 24.3377 29.9934L24.3198 29.9708ZM2.25615 25.181C2.30993 25.6728 2.50911 26.1371 2.82803 26.5142C3.14049 26.9236 3.54765 27.2504 4.01426 27.4662C4.48086 27.682 4.99283 27.7804 5.50581 27.7527C10.3769 27.7452 15.2473 27.7452 20.117 27.7527H20.4803C19.6022 26.3776 19.25 24.7296 19.489 23.1138H2.24718C2.24718 23.8186 2.21578 24.5032 2.25615 25.181ZM7.06898 20.8731H20.4287C20.5971 20.8529 20.7679 20.8712 20.9282 20.9268C21.0885 20.9825 21.2342 21.0739 21.3542 21.1942C21.4743 21.3145 21.5655 21.4606 21.6212 21.6215C21.6769 21.7823 21.6955 21.9538 21.6756 22.1229C21.6756 22.9651 21.6756 23.8096 21.6756 24.6541C21.6654 25.0628 21.7368 25.4695 21.8856 25.85C22.0345 26.2306 22.2578 26.5773 22.5423 26.8698C22.8269 27.1623 23.1669 27.3945 23.5423 27.5528C23.9177 27.7112 24.3209 27.7924 24.7281 27.7916C25.1353 27.7909 25.5382 27.7082 25.913 27.5485C26.2879 27.3888 26.6271 27.1552 26.9105 26.8617C27.194 26.5682 27.416 26.2206 27.5635 25.8395C27.7109 25.4584 27.7808 25.0515 27.7691 24.6428C27.7765 17.7369 27.7765 10.8236 27.7691 3.9027C27.7637 3.82031 27.7532 3.73832 27.7377 3.65723C27.639 3.7383 27.5717 3.79237 27.5134 3.85092L25.9121 5.27411C25.8068 5.3958 25.6768 5.49339 25.5307 5.56027C25.3847 5.62714 25.226 5.66177 25.0655 5.66177C24.905 5.66177 24.7463 5.62714 24.6002 5.56027C24.4542 5.49339 24.3241 5.3958 24.2189 5.27411L23.629 4.7449L21.2383 2.60109L20.8122 2.97941C19.9555 3.75182 19.0988 4.52649 18.2354 5.29214C18.1304 5.40607 18.0031 5.49696 17.8614 5.55913C17.7198 5.6213 17.5669 5.65339 17.4123 5.65339C17.2577 5.65339 17.1048 5.6213 16.9631 5.55913C16.8215 5.49696 16.6942 5.40607 16.5892 5.29214C16.1205 4.87779 15.6585 4.45442 15.192 4.03781C14.6627 3.56041 14.1335 3.08977 13.5952 2.60786L13.3575 2.81276L10.5855 5.30338C10.4808 5.4141 10.3547 5.50229 10.2149 5.56253C10.0751 5.62278 9.92464 5.65383 9.77254 5.65383C9.62045 5.65383 9.46994 5.62278 9.33018 5.56253C9.19042 5.50229 9.06432 5.4141 8.95957 5.30338C8.41683 4.82598 7.87859 4.34182 7.33586 3.86216C7.26185 3.7946 7.18335 3.73382 7.06673 3.63699L7.06898 20.8731ZM16.5399 17.6551C16.5358 17.5801 16.5358 17.505 16.5399 17.4299V14.1804H13.187C12.9848 14.1977 12.784 14.1337 12.6288 14.0024C12.4736 13.871 12.3767 13.6832 12.3595 13.4801C12.3422 13.277 12.406 13.0754 12.5368 12.9196C12.6676 12.7637 12.8547 12.6665 13.057 12.6491C13.131 12.6491 13.2072 12.6491 13.2812 12.6491H16.5309C16.5309 11.5622 16.5309 10.4753 16.5309 9.38837C16.5264 9.25888 16.5392 9.12935 16.569 9.00328C16.6227 8.82799 16.7372 8.67787 16.8918 8.58019C17.0463 8.48252 17.2307 8.44379 17.4113 8.47106C17.5919 8.49833 17.7568 8.58977 17.8759 8.72877C17.995 8.86777 18.0605 9.04511 18.0604 9.22849C18.0604 10.3364 18.0604 11.4466 18.0604 12.5545V12.6604H21.3078C21.4368 12.6558 21.5658 12.6687 21.6913 12.6987C21.8659 12.7526 22.0154 12.8675 22.1127 13.0227C22.21 13.178 22.2486 13.363 22.2214 13.5444C22.1942 13.7257 22.1032 13.8913 21.9647 14.0109C21.8263 14.1305 21.6497 14.1963 21.4671 14.1962H18.0672C18.0672 15.3146 18.0672 16.4338 18.0672 17.5538C18.0744 17.6565 18.0611 17.7596 18.0279 17.857C17.9947 17.9544 17.9424 18.0441 17.8739 18.1208C17.8055 18.1975 17.7224 18.2596 17.6297 18.3034C17.5369 18.3472 17.4362 18.3718 17.3338 18.3757H17.3024C17.1078 18.3777 16.92 18.3041 16.7783 18.1702C16.6366 18.0363 16.552 17.8525 16.5421 17.6574L16.5399 17.6551Z" fill="#F16C84"/>
</svg>
