<svg width="14" height="14" viewBox="0 0 14 14" fill="none" xmlns="http://www.w3.org/2000/svg">
<path d="M10.844 13.3092C8.848 13.3019 6.852 13.3002 4.856 13.3042H2.461C2.37 13.3042 2.279 13.3042 2.189 13.2952C1.73583 13.2713 1.29998 13.1133 0.936771 12.8412C0.573562 12.5692 0.29937 12.1953 0.148998 11.7672C0.0877706 11.5828 0.0380107 11.3947 0 11.2042V9.66118C0.0385756 9.53316 0.121683 9.42317 0.234295 9.35109C0.346907 9.27901 0.481591 9.24961 0.613998 9.26819C1.05 9.28019 1.485 9.26819 1.92 9.26819H2.165V9.08818C2.165 6.25751 2.165 3.42684 2.165 0.596176C2.14682 0.486973 2.1654 0.374835 2.21783 0.277328C2.27025 0.179822 2.35355 0.102471 2.45467 0.0574036C2.55578 0.0123357 2.669 0.00210273 2.77656 0.0283051C2.88412 0.0545074 2.97994 0.115655 3.049 0.202179C3.449 0.559179 3.849 0.912188 4.249 1.26819C4.283 1.29919 4.321 1.32718 4.359 1.35818L4.464 1.26819C4.87267 0.902188 5.28166 0.535516 5.691 0.168182C5.73789 0.11597 5.79525 0.0742084 5.85934 0.0456238C5.92343 0.0170391 5.99282 0.00227356 6.063 0.00227356C6.13318 0.00227356 6.20257 0.0170391 6.26666 0.0456238C6.33075 0.0742084 6.38811 0.11597 6.435 0.168182L7.681 1.28218C7.709 1.30718 7.74 1.32919 7.772 1.35419L9.072 0.191177C9.11959 0.131572 9.17998 0.0834588 9.24871 0.0503845C9.31744 0.0173102 9.39273 0.00012207 9.469 0.00012207C9.54527 0.00012207 9.62056 0.0173102 9.68929 0.0503845C9.75802 0.0834588 9.81841 0.131572 9.866 0.191177C10.266 0.549177 10.6683 0.908854 11.073 1.27019C11.107 1.30119 11.143 1.32918 11.18 1.35918L12.501 0.190186C12.5593 0.12796 12.6321 0.0810156 12.7128 0.0534668C12.7935 0.025918 12.8798 0.0186027 12.964 0.0321808C13.0926 0.0549642 13.2071 0.12715 13.2832 0.233292C13.3592 0.339433 13.3908 0.471116 13.371 0.600189V10.9002C13.371 10.9662 13.371 11.0312 13.366 11.1002C13.3389 11.6267 13.1312 12.1278 12.778 12.5192C12.5363 12.787 12.2382 12.9977 11.9051 13.136C11.572 13.2744 11.2123 13.3369 10.852 13.3192L10.844 13.3092ZM1.006 11.1822C1.02998 11.4006 1.11879 11.6067 1.261 11.7742C1.40032 11.956 1.58187 12.1011 1.78992 12.197C1.99798 12.2928 2.22626 12.3365 2.455 12.3242C4.627 12.3209 6.79866 12.3209 8.97 12.3242H9.132C8.74046 11.7135 8.58344 10.9817 8.69 10.2642H1.002C1.002 10.5772 0.988001 10.8812 1.006 11.1822ZM3.152 9.26918H9.109C9.18409 9.26019 9.26024 9.26835 9.33172 9.29305C9.4032 9.31774 9.46815 9.35835 9.52168 9.41177C9.5752 9.4652 9.61591 9.53007 9.64073 9.6015C9.66556 9.67294 9.67385 9.74908 9.665 9.82419C9.665 10.1982 9.665 10.5732 9.665 10.9482C9.66042 11.1297 9.69226 11.3103 9.75863 11.4793C9.825 11.6483 9.92456 11.8022 10.0514 11.9321C10.1783 12.062 10.3299 12.1651 10.4973 12.2354C10.6647 12.3057 10.8445 12.3418 11.0261 12.3415C11.2076 12.3411 11.3873 12.3044 11.5544 12.2335C11.7216 12.1626 11.8728 12.0589 11.9992 11.9285C12.1256 11.7982 12.2246 11.6438 12.2903 11.4746C12.3561 11.3054 12.3872 11.1247 12.382 10.9432C12.3853 7.87651 12.3853 4.80652 12.382 1.73318C12.3796 1.6966 12.3749 1.66019 12.368 1.62418C12.324 1.66018 12.294 1.68419 12.268 1.71019L11.554 2.34218C11.5071 2.39622 11.4491 2.43956 11.3839 2.46925C11.3188 2.49895 11.2481 2.51433 11.1765 2.51433C11.1049 2.51433 11.0342 2.49895 10.9691 2.46925C10.9039 2.43956 10.8459 2.39622 10.799 2.34218L10.536 2.10718L9.47 1.15518L9.28 1.32318C8.898 1.66618 8.516 2.01019 8.131 2.35019C8.08419 2.40078 8.02742 2.44114 7.96426 2.46875C7.90111 2.49636 7.83293 2.5106 7.764 2.5106C7.69507 2.5106 7.62689 2.49636 7.56373 2.46875C7.50058 2.44114 7.44381 2.40078 7.397 2.35019C7.188 2.16619 6.982 1.97818 6.774 1.79318C6.538 1.58118 6.302 1.37219 6.062 1.15819L5.956 1.24918L4.72 2.35518C4.67329 2.40435 4.61706 2.44351 4.55474 2.47026C4.49243 2.49701 4.42532 2.5108 4.3575 2.5108C4.28968 2.5108 4.22257 2.49701 4.16025 2.47026C4.09793 2.44351 4.04171 2.40435 3.995 2.35518C3.753 2.14318 3.513 1.92818 3.271 1.71518C3.238 1.68518 3.203 1.65819 3.151 1.61519L3.152 9.26918ZM7.375 7.84018C7.3732 7.80687 7.3732 7.7735 7.375 7.74019V6.29718H5.88C5.78982 6.30487 5.70029 6.27643 5.63109 6.21811C5.56189 6.15979 5.51869 6.07636 5.511 5.98619C5.50331 5.89602 5.53175 5.80648 5.59008 5.73727C5.6484 5.66807 5.73182 5.62488 5.822 5.61719C5.855 5.61719 5.889 5.61719 5.922 5.61719H7.371C7.371 5.13452 7.371 4.65186 7.371 4.16919C7.36898 4.11169 7.3747 4.05416 7.388 3.99818C7.41192 3.92034 7.46298 3.85368 7.53191 3.8103C7.60083 3.76693 7.68303 3.74973 7.76356 3.76184C7.84409 3.77395 7.91759 3.81456 7.97071 3.87628C8.02383 3.93801 8.05303 4.01676 8.053 4.09819C8.053 4.59019 8.053 5.08318 8.053 5.57518V5.62218H9.501C9.5585 5.62016 9.61602 5.62589 9.672 5.63919C9.74984 5.66311 9.81651 5.71417 9.85988 5.7831C9.90326 5.85202 9.92045 5.93421 9.90834 6.01474C9.89623 6.09527 9.85563 6.16878 9.7939 6.22189C9.73217 6.27501 9.65343 6.30421 9.572 6.30418H8.056C8.056 6.80085 8.056 7.29785 8.056 7.79518C8.05925 7.84078 8.0533 7.88657 8.0385 7.92982C8.0237 7.97308 8.00035 8.01293 7.96984 8.04698C7.93934 8.08103 7.9023 8.1086 7.86092 8.12805C7.81954 8.1475 7.77468 8.15843 7.729 8.16019H7.715C7.62824 8.16107 7.5445 8.12835 7.48131 8.06889C7.41812 8.00943 7.38038 7.92784 7.376 7.84119L7.375 7.84018Z" fill="#2F3990"/>
</svg>
