<svg width="10" height="10" viewBox="0 0 10 10" fill="none" xmlns="http://www.w3.org/2000/svg">
<path d="M5.26738 7.9522L5.00053 7.78332L4.73338 7.95172L2.30845 9.48022L2.30755 9.48079C2.28592 9.49449 2.27429 9.49413 2.26942 9.49379C2.26148 9.49325 2.24786 9.48973 2.23219 9.4778C2.21648 9.46585 2.20336 9.4488 2.19581 9.42904C2.18904 9.41131 2.18473 9.38647 2.19253 9.35137L2.83523 6.46577L2.89844 6.18195L2.68303 5.98665L0.538575 4.04238L0.538401 4.04223C0.504413 4.01144 0.489696 3.9651 0.506956 3.90975C0.515304 3.88299 0.528743 3.86518 0.53962 3.85573C0.548023 3.84843 0.558086 3.84272 0.577269 3.84113L0.57727 3.84113L0.580033 3.84089L3.4023 3.59021L3.70649 3.56319L3.82135 3.28022L4.92571 0.559479L4.92572 0.559481L4.92648 0.557586C4.93836 0.527971 4.95199 0.516528 4.9601 0.511221C4.97031 0.504541 4.98407 0.5 5 0.5C5.01593 0.5 5.02969 0.504541 5.0399 0.511221C5.04801 0.516528 5.06164 0.527972 5.07352 0.557588L5.07414 0.559117L6.1785 3.28598L6.29324 3.56928L6.5977 3.59633L9.41997 3.847L9.41997 3.84701L9.42273 3.84724C9.44191 3.84884 9.45198 3.85455 9.46038 3.86184C9.47126 3.87129 9.4847 3.8891 9.49304 3.91587C9.5103 3.97121 9.49559 4.01755 9.4616 4.04834L9.46142 4.0485L7.31697 5.99276L7.10156 6.18807L7.16477 6.47188L7.80747 9.35749C7.80749 9.35756 7.80751 9.35763 7.80752 9.3577C7.81526 9.39268 7.81094 9.41746 7.80419 9.43515C7.79664 9.45492 7.78352 9.47196 7.76781 9.48392C7.75213 9.49584 7.73852 9.49936 7.73058 9.49991C7.72571 9.50024 7.71408 9.50061 7.69245 9.48691L7.69231 9.48682L5.26738 7.9522Z" stroke="#818181"/>
</svg>
