<svg width="14" height="15" viewBox="0 0 10 11" fill="none" xmlns="http://www.w3.org/2000/svg">
<path d="M5.26738 8.49126L5.00053 8.32238L4.73338 8.49078L2.30845 10.0193L2.30755 10.0199C2.28592 10.0336 2.27429 10.0332 2.26942 10.0329C2.26148 10.0323 2.24786 10.0288 2.23219 10.0169C2.21648 10.0049 2.20336 9.98786 2.19581 9.9681C2.18904 9.95038 2.18473 9.92553 2.19253 9.89044L2.83523 7.00483L2.89844 6.72101L2.68303 6.52571L0.538575 4.58145L0.538401 4.58129C0.504413 4.5505 0.489696 4.50416 0.506956 4.44882C0.515304 4.42205 0.528743 4.40424 0.53962 4.39479C0.548023 4.38749 0.558086 4.38178 0.577269 4.38019L0.57727 4.3802L0.580033 4.37995L3.4023 4.12927L3.70649 4.10226L3.82135 3.81929L4.92571 1.09854L4.92572 1.09854L4.92648 1.09665C4.93836 1.06703 4.95199 1.05559 4.9601 1.05028C4.97031 1.0436 4.98407 1.03906 5 1.03906C5.01593 1.03906 5.02969 1.0436 5.0399 1.05028C5.04801 1.05559 5.06164 1.06703 5.07352 1.09665L5.07414 1.09818L6.1785 3.82504L6.29324 4.10835L6.5977 4.13539L9.41997 4.38606L9.41997 4.38607L9.42273 4.3863C9.44191 4.3879 9.45198 4.39361 9.46038 4.40091C9.47126 4.41035 9.4847 4.42816 9.49304 4.45493C9.5103 4.51028 9.49559 4.55662 9.4616 4.5874L9.46142 4.58756L7.31697 6.53182L7.10156 6.72713L7.16477 7.01094L7.80747 9.89655C7.80749 9.89662 7.80751 9.89669 7.80752 9.89676C7.81526 9.93175 7.81094 9.95653 7.80419 9.97421C7.79664 9.99398 7.78352 10.011 7.76781 10.023C7.75213 10.0349 7.73852 10.0384 7.73058 10.039C7.72571 10.0393 7.71408 10.0397 7.69245 10.026L7.69231 10.0259L5.26738 8.49126Z" stroke="#818181"/>
</svg>
