<svg width="12" height="9" viewBox="0 0 12 9" fill="none" xmlns="http://www.w3.org/2000/svg">
<path d="M11.5714 3.56707H10.125V2.00854C10.125 1.7657 9.93348 1.56951 9.69643 1.56951H5.47768L3.9067 0.0301829C3.88671 0.0110137 3.86042 0.000240498 3.83304 0H0.428571C0.191518 0 0 0.196189 0 0.439024V8.56098C0 8.80381 0.191518 9 0.428571 9H9.77679C9.95089 9 10.1089 8.89162 10.1746 8.72561L11.9692 4.17073C11.9893 4.1186 12 4.06235 12 4.0061C12 3.76326 11.8085 3.56707 11.5714 3.56707ZM9.16071 3.56707H2.33036C2.15625 3.56707 1.99821 3.67546 1.93259 3.84146L0.964286 6.3V0.987805H3.48884L5.09063 2.55732H9.16071V3.56707Z" fill="#2F3990"/>
</svg>
