<svg width="21" height="14" viewBox="0 0 21 14" fill="none" xmlns="http://www.w3.org/2000/svg">
<path d="M19.7569 0.473327C19.9124 0.618361 20.0366 0.79426 20.1214 0.990013C20.2063 1.18577 20.25 1.39711 20.25 1.61077C20.25 1.82443 20.2063 2.03578 20.1214 2.23154C20.0366 2.42729 19.9124 2.60322 19.7569 2.74825L8.48546 13.5294C8.16221 13.8319 7.73775 14 7.29692 14C6.85609 14 6.4315 13.8319 6.10826 13.5294L0.743077 8.39633C0.587608 8.25129 0.463555 8.07536 0.37871 7.87961C0.293865 7.68386 0.25 7.47251 0.25 7.25885C0.25 7.04519 0.293865 6.83384 0.37871 6.63809C0.463555 6.44233 0.587608 6.2664 0.743077 6.12137C1.06598 5.81902 1.49013 5.65101 1.93061 5.65101C2.3711 5.65101 2.79537 5.81902 3.11828 6.12137L7.29479 10.117L17.3777 0.471244C17.7011 0.16799 18.1263 -0.000383065 18.5678 6.54425e-07C19.0092 0.000384374 19.4341 0.169511 19.7569 0.473327V0.473327Z" fill="#2F3990"/>
</svg>
