<svg width="18" height="13" viewBox="0 0 18 13" fill="none" xmlns="http://www.w3.org/2000/svg">
<path d="M17.5563 0.422128C17.6962 0.551474 17.8079 0.708346 17.8842 0.882924C17.9606 1.0575 18 1.24599 18 1.43654C18 1.62709 17.9606 1.81558 17.8842 1.99015C17.8079 2.16473 17.6962 2.32163 17.5563 2.45098L7.41195 12.066C7.12123 12.3361 6.73905 12.4863 6.34218 12.4863C5.94531 12.4863 5.56313 12.3361 5.27242 12.066L0.443713 7.48811C0.303791 7.35876 0.192137 7.20186 0.115776 7.02728C0.0394154 6.8527 0 6.66422 0 6.47367C0 6.28312 0.0394154 6.09463 0.115776 5.92005C0.192137 5.74548 0.303791 5.58858 0.443713 5.45923C0.734327 5.18958 1.11611 5.03975 1.51255 5.03975C1.90899 5.03975 2.29079 5.18958 2.5814 5.45923L6.34034 9.02267L15.4149 0.42027C15.706 0.149819 16.0887 -0.000341629 16.486 5.83636e-07C16.8833 0.000342796 17.2657 0.151175 17.5563 0.422128Z" fill="#2F3990"/>
</svg>
