<svg width="11" height="11" viewBox="0 0 11 11" fill="none" xmlns="http://www.w3.org/2000/svg">
<path d="M10.499 5.52064C10.4656 5.59398 10.4392 5.67099 10.3769 5.726C10.2563 5.83088 10.1188 5.8634 9.96912 5.80472C9.81943 5.74605 9.73836 5.63114 9.72126 5.47198C9.71858 5.43628 9.71784 5.40045 9.71907 5.36466C9.71907 4.66251 9.71907 3.9602 9.71907 3.25772C9.71907 2.8624 9.49539 2.55753 9.12812 2.46438C8.91127 2.40937 8.68735 2.44507 8.46659 2.43749C8.4158 2.43578 8.43119 2.47392 8.43094 2.4991C8.42972 2.60642 8.43241 2.71375 8.43094 2.82108C8.42557 3.05016 8.25512 3.22007 8.03584 3.21738C7.8207 3.21469 7.65587 3.04625 7.65074 2.82083C7.64854 2.71669 7.64781 2.61254 7.65074 2.50863C7.65245 2.45754 7.64366 2.43529 7.58408 2.43529C7.03415 2.43773 6.48422 2.43773 5.9343 2.43529C5.8796 2.43529 5.87032 2.4546 5.87179 2.50203C5.87447 2.60936 5.87472 2.71669 5.87179 2.82401C5.86617 3.04845 5.69865 3.21518 5.48303 3.21665C5.2674 3.21812 5.09842 3.04967 5.09232 2.82548C5.08914 2.7184 5.09036 2.61107 5.09232 2.50374C5.09232 2.45974 5.09085 2.43431 5.032 2.4348C4.48549 2.43724 3.93882 2.43724 3.39199 2.4348C3.34315 2.4348 3.33168 2.44922 3.33314 2.49519C3.33632 2.59909 3.33534 2.70324 3.33314 2.80714C3.32948 3.04478 3.16221 3.21714 2.93999 3.21567C2.72021 3.2142 2.55636 3.04453 2.55245 2.81154C2.55074 2.70446 2.55245 2.59713 2.55245 2.48981C2.55245 2.46536 2.56222 2.43407 2.51851 2.43578C2.30142 2.44409 2.08067 2.40717 1.86749 2.46511C1.51829 2.55973 1.30096 2.8421 1.28386 3.20516C1.28386 3.21836 1.28386 3.23132 1.28386 3.24427C1.28386 5.25374 1.28386 7.26313 1.28386 9.27244C1.28386 9.65945 1.5012 9.94892 1.86358 10.0548C1.95182 10.0775 2.04284 10.0876 2.1339 10.0846C3.09066 10.0846 4.04741 10.0846 5.00416 10.0846C5.13408 10.0846 5.24836 10.1147 5.33895 10.212C5.38114 10.2574 5.41182 10.3123 5.42842 10.372C5.44503 10.4318 5.44706 10.4947 5.43435 10.5554C5.42165 10.6161 5.39458 10.6728 5.35541 10.7209C5.31625 10.7689 5.26614 10.8069 5.20929 10.8315C5.18316 10.8432 5.15679 10.8545 5.13066 10.866H1.86724C1.40083 10.8249 1.04919 10.588 0.773253 10.224C0.614615 10.0139 0.519749 9.76262 0.5 9.50005V3.02131C0.535897 2.55484 0.773498 2.20401 1.13686 1.92995C1.40816 1.72678 1.71951 1.63535 2.05796 1.62923C2.18152 1.62703 2.30533 1.62923 2.42889 1.62923C2.49409 1.62923 2.52413 1.60307 2.52291 1.53633C2.52144 1.44881 2.52022 1.36079 2.52291 1.27303C2.53194 1.02048 2.68774 0.868165 2.93633 0.867188C3.19126 0.867188 3.34853 1.01754 3.35829 1.27474C3.36147 1.35908 3.36074 1.44367 3.35829 1.52826C3.35683 1.59623 3.38052 1.62972 3.45377 1.62972C3.95844 1.62858 4.46311 1.62858 4.96778 1.62972C5.03371 1.62972 5.06253 1.60356 5.06131 1.53731C5.0596 1.44954 5.05862 1.36153 5.06131 1.27376C5.07083 1.02048 5.2254 0.868654 5.47375 0.867432C5.72918 0.867432 5.88619 1.01657 5.89645 1.274C5.89987 1.35835 5.89987 1.44318 5.89645 1.52753C5.89352 1.60332 5.92502 1.63095 6.00023 1.63021C6.26689 1.62801 6.5338 1.63021 6.8007 1.63021C7.03171 1.63021 7.26272 1.63021 7.49372 1.63021C7.60972 1.63021 7.61582 1.62239 7.61826 1.51017C7.61826 1.42876 7.61558 1.34759 7.61973 1.26569C7.63194 1.0151 7.79066 0.866699 8.04096 0.867676C8.28516 0.867676 8.44217 1.01754 8.45414 1.26349C8.45878 1.35444 8.45658 1.44563 8.45414 1.53658C8.45414 1.60332 8.4832 1.63021 8.5484 1.62972C8.66537 1.62972 8.78258 1.62972 8.89979 1.62972C9.56351 1.6373 10.0456 1.94461 10.3625 2.51988C10.4516 2.68197 10.4795 2.86215 10.4966 3.04307L10.499 5.52064ZM10.499 8.35001C10.4746 8.36297 10.4773 8.37593 10.499 8.38913V8.35001ZM10.499 8.6231C10.4773 8.6363 10.4746 8.64926 10.499 8.66221V8.6231ZM7.99945 10.8672C7.98626 10.8447 7.97332 10.8408 7.96038 10.8672H7.99945ZM8.31178 10.8672C8.29883 10.8408 8.28565 10.8447 8.2727 10.8672H8.31178ZM2.9395 4.58403C2.83613 4.58442 2.73713 4.6258 2.66417 4.69912C2.59122 4.77243 2.55025 4.87171 2.55025 4.9752C2.55084 5.07856 2.59226 5.17749 2.66547 5.25038C2.73868 5.32326 2.83772 5.36417 2.94097 5.36417C3.04429 5.36372 3.14323 5.3223 3.21614 5.24899C3.28904 5.17568 3.32997 5.07645 3.32997 4.973C3.32926 4.86993 3.28795 4.77131 3.21502 4.69857C3.14209 4.62582 3.04343 4.58484 2.94048 4.58452L2.9395 4.58403ZM5.02932 4.97227C5.02854 4.86903 4.98704 4.77029 4.91385 4.69756C4.84066 4.62484 4.74172 4.58403 4.6386 4.58403C4.53536 4.58461 4.43655 4.62608 4.36375 4.69938C4.29095 4.77267 4.25009 4.87183 4.25009 4.9752C4.25086 5.07843 4.29237 5.17718 4.36556 5.2499C4.43875 5.32263 4.53769 5.36344 4.6408 5.36343C4.74413 5.36311 4.84312 5.32182 4.91612 5.24861C4.98911 5.17539 5.03016 5.0762 5.03029 4.97275L5.02932 4.97227ZM6.34186 4.58403C6.23866 4.58331 6.13936 4.6235 6.06565 4.69583C5.99194 4.76816 5.94981 4.86675 5.94846 4.97007C5.94775 5.07352 5.98799 5.17304 6.06039 5.24685C6.13279 5.32067 6.23145 5.36276 6.33478 5.36392C6.43807 5.36471 6.53746 5.32451 6.61123 5.25212C6.685 5.17974 6.72713 5.08105 6.72842 4.97764C6.72894 4.87444 6.68871 4.77522 6.61649 4.70158C6.54427 4.62795 6.44591 4.58587 6.34284 4.58452L6.34186 4.58403ZM8.04047 4.58403C7.93723 4.58338 7.83792 4.62366 7.76425 4.69609C7.69059 4.76852 7.64855 4.86719 7.64732 4.97055C7.64687 5.07396 7.68733 5.17334 7.75986 5.24697C7.83239 5.32059 7.93109 5.36247 8.03437 5.36343C8.13762 5.36409 8.23692 5.3238 8.31059 5.25137C8.38426 5.17895 8.4263 5.08027 8.42752 4.97691C8.42753 4.87385 8.38705 4.77492 8.31481 4.7015C8.24257 4.62808 8.14438 4.58606 8.04145 4.58452L8.04047 4.58403ZM3.33119 6.66823C3.32977 6.56495 3.28762 6.46643 3.21392 6.39415C3.14022 6.32188 3.04095 6.28172 2.93779 6.28244C2.83455 6.28354 2.73594 6.3255 2.66351 6.39916C2.59108 6.47283 2.55071 6.5722 2.55123 6.67556C2.55252 6.77897 2.59466 6.87765 2.66842 6.95004C2.74219 7.02243 2.84158 7.06263 2.94487 7.06184C3.04816 7.06068 3.14678 7.01862 3.21917 6.94486C3.29157 6.8711 3.33184 6.77164 3.33119 6.66823ZM5.03029 6.67263C5.03029 6.56914 4.98933 6.46986 4.91637 6.39655C4.84342 6.32323 4.74442 6.28185 4.64105 6.28146C4.5378 6.28146 4.43876 6.32237 4.36555 6.39525C4.29234 6.46814 4.25092 6.56707 4.25034 6.67043C4.25034 6.77392 4.2913 6.87319 4.36425 6.94651C4.43721 7.01983 4.53621 7.06121 4.63958 7.0616C4.74266 7.0616 4.84156 7.02083 4.91474 6.94815C4.98792 6.87548 5.02945 6.7768 5.03029 6.67361V6.67263ZM2.55123 8.3659C2.55065 8.46931 2.59098 8.56875 2.66342 8.64246C2.73586 8.71618 2.83451 8.75818 2.93779 8.75927C3.04104 8.75999 3.14037 8.71977 3.21409 8.64739C3.2878 8.57501 3.3299 8.47636 3.33119 8.37299C3.33171 8.26967 3.29138 8.17033 3.219 8.09668C3.14662 8.02302 3.04807 7.98103 2.94487 7.97987C2.84163 7.97908 2.74227 8.01925 2.66851 8.09158C2.59475 8.16392 2.55258 8.26254 2.55123 8.3659ZM4.25034 8.36859C4.25033 8.47204 4.29126 8.57128 4.36417 8.64459C4.43707 8.7179 4.53601 8.75931 4.63934 8.75976C4.74254 8.75976 4.84155 8.71889 4.91475 8.64606C4.98795 8.57323 5.0294 8.47436 5.03005 8.37104C5.03005 8.26759 4.98912 8.16835 4.91622 8.09504C4.84331 8.02173 4.74437 7.98032 4.64105 7.97987C4.53785 7.97987 4.43883 8.02074 4.36563 8.09357C4.29243 8.1664 4.25098 8.26527 4.25034 8.36859ZM10.499 8.35001C10.496 8.35229 10.4935 8.35524 10.4918 8.35864C10.4901 8.36203 10.4893 8.36578 10.4893 8.36957C10.4893 8.37337 10.4901 8.37711 10.4918 8.3805C10.4935 8.3839 10.496 8.38685 10.499 8.38913V8.6231C10.496 8.62537 10.4935 8.62833 10.4918 8.63172C10.4901 8.63512 10.4893 8.63886 10.4893 8.64266C10.4893 8.64645 10.4901 8.65019 10.4918 8.65359C10.4935 8.65698 10.496 8.65994 10.499 8.66221V8.77932C10.4681 9.12685 10.3537 9.46175 10.1657 9.75553C9.80185 10.3308 9.2866 10.6943 8.6197 10.8393C8.53765 10.8572 8.45219 10.8467 8.37038 10.8672H8.31275C8.31048 10.8642 8.30753 10.8617 8.30414 10.86C8.30075 10.8583 8.29701 10.8574 8.29322 10.8574C8.28943 10.8574 8.28569 10.8583 8.2823 10.86C8.2789 10.8617 8.27595 10.8642 8.27368 10.8672H8.00043C7.99815 10.8642 7.9952 10.8617 7.99181 10.86C7.98842 10.8583 7.98468 10.8574 7.98089 10.8574C7.9771 10.8574 7.97336 10.8583 7.96997 10.86C7.96658 10.8617 7.96363 10.8642 7.96136 10.8672H7.86368C7.74305 10.8114 7.60923 10.8083 7.48274 10.7745C6.64368 10.5511 5.93601 9.75602 5.80976 8.90083C5.69474 8.12338 5.89303 7.44079 6.43661 6.87604C6.99654 6.29442 7.6925 6.05434 8.49272 6.17853C9.33104 6.3086 9.92688 6.77947 10.2912 7.54298C10.3878 7.75243 10.4514 7.9756 10.4797 8.20455C10.4819 8.2219 10.4731 8.24513 10.5 8.25344L10.499 8.35001ZM9.7176 8.50844C9.71931 7.64248 9.01359 6.93227 8.14572 6.92591C7.72666 6.92422 7.32399 7.08876 7.0258 7.38354C6.7276 7.67833 6.55817 8.07936 6.55455 8.4989C6.54967 9.36803 7.26003 10.0834 8.13132 10.0866C8.55039 10.0869 8.95255 9.92105 9.24982 9.62531C9.54709 9.32957 9.71528 8.928 9.7176 8.50844ZM7.74573 8.1004C7.74573 8.23706 7.7428 8.37373 7.74573 8.51015C7.75159 8.71698 7.90055 8.88298 8.10226 8.89227C8.31348 8.90181 8.52569 8.90156 8.73716 8.89227C8.92739 8.88371 9.07561 8.72553 9.09075 8.53753C9.09794 8.44587 9.07244 8.35464 9.01879 8.28003C8.96514 8.20541 8.88681 8.15225 8.79772 8.12998C8.72715 8.11042 8.6556 8.11556 8.58454 8.11727C8.53717 8.11727 8.52349 8.10406 8.52496 8.05737C8.52813 7.94686 8.52715 7.83734 8.52496 7.72561C8.52154 7.48797 8.35524 7.31537 8.13254 7.31659C7.90983 7.31781 7.74695 7.49042 7.74427 7.73001C7.7428 7.85347 7.74427 7.97718 7.74427 8.10064L7.74573 8.1004Z" fill="#3A3A3A"/>
</svg>
