<svg width="18" height="20" viewBox="0 0 18 20" fill="none" xmlns="http://www.w3.org/2000/svg">
<path d="M1.88235 20C1.35948 20 0.915033 19.817 0.54902 19.451C0.183007 19.085 0 18.6405 0 18.1176V4.10458C0 3.5817 0.183007 3.13726 0.54902 2.77124C0.915033 2.40523 1.35948 2.22222 1.88235 2.22222H3.34641V0H4.94118V2.22222H12.8627V0H14.4314V2.22222H15.8954C16.4183 2.22222 16.8627 2.40523 17.2288 2.77124C17.5948 3.13726 17.7778 3.5817 17.7778 4.10458V18.1176C17.7778 18.6405 17.5948 19.085 17.2288 19.451C16.8627 19.817 16.4183 20 15.8954 20H1.88235ZM1.88235 18.4314H15.8954C15.9651 18.4314 16.0349 18.3965 16.1046 18.3268C16.1743 18.2571 16.2092 18.1874 16.2092 18.1176V8.28758H1.56863V18.1176C1.56863 18.1874 1.60349 18.2571 1.6732 18.3268C1.74292 18.3965 1.81264 18.4314 1.88235 18.4314ZM1.56863 6.71896H16.2092V4.10458C16.2092 4.03486 16.1743 3.96514 16.1046 3.89542C16.0349 3.82571 15.9651 3.79085 15.8954 3.79085H1.88235C1.81264 3.79085 1.74292 3.82571 1.6732 3.89542C1.60349 3.96514 1.56863 4.03486 1.56863 4.10458V6.71896ZM8.88889 12.2353C8.62745 12.2353 8.40959 12.1436 8.23529 11.9603C8.061 11.7776 7.97386 11.5643 7.97386 11.3203C7.97386 11.0588 8.061 10.8364 8.23529 10.6531C8.40959 10.4704 8.62745 10.3791 8.88889 10.3791C9.15033 10.3791 9.36819 10.4704 9.54248 10.6531C9.71678 10.8364 9.80392 11.0588 9.80392 11.3203C9.80392 11.5643 9.71678 11.7776 9.54248 11.9603C9.36819 12.1436 9.15033 12.2353 8.88889 12.2353ZM4.70588 12.2353C4.44444 12.2353 4.22658 12.1436 4.05229 11.9603C3.878 11.7776 3.79085 11.5643 3.79085 11.3203C3.79085 11.0588 3.878 10.8364 4.05229 10.6531C4.22658 10.4704 4.44444 10.3791 4.70588 10.3791C4.96732 10.3791 5.18519 10.4704 5.35948 10.6531C5.53377 10.8364 5.62092 11.0588 5.62092 11.3203C5.62092 11.5643 5.53377 11.7776 5.35948 11.9603C5.18519 12.1436 4.96732 12.2353 4.70588 12.2353ZM13.0719 12.2353C12.8105 12.2353 12.5926 12.1436 12.4183 11.9603C12.244 11.7776 12.1569 11.5643 12.1569 11.3203C12.1569 11.0588 12.244 10.8364 12.4183 10.6531C12.5926 10.4704 12.8105 10.3791 13.0719 10.3791C13.3333 10.3791 13.5512 10.4704 13.7255 10.6531C13.8998 10.8364 13.9869 11.0588 13.9869 11.3203C13.9869 11.5643 13.8998 11.7776 13.7255 11.9603C13.5512 12.1436 13.3333 12.2353 13.0719 12.2353ZM8.88889 16.3399C8.62745 16.3399 8.40959 16.2485 8.23529 16.0659C8.061 15.8825 7.97386 15.6688 7.97386 15.4248C7.97386 15.1634 8.061 14.9414 8.23529 14.7587C8.40959 14.5753 8.62745 14.4837 8.88889 14.4837C9.15033 14.4837 9.36819 14.5753 9.54248 14.7587C9.71678 14.9414 9.80392 15.1634 9.80392 15.4248C9.80392 15.6688 9.71678 15.8825 9.54248 16.0659C9.36819 16.2485 9.15033 16.3399 8.88889 16.3399ZM4.70588 16.3399C4.44444 16.3399 4.22658 16.2485 4.05229 16.0659C3.878 15.8825 3.79085 15.6688 3.79085 15.4248C3.79085 15.1634 3.878 14.9414 4.05229 14.7587C4.22658 14.5753 4.44444 14.4837 4.70588 14.4837C4.96732 14.4837 5.18519 14.5753 5.35948 14.7587C5.53377 14.9414 5.62092 15.1634 5.62092 15.4248C5.62092 15.6688 5.53377 15.8825 5.35948 16.0659C5.18519 16.2485 4.96732 16.3399 4.70588 16.3399ZM13.0719 16.3399C12.8105 16.3399 12.5926 16.2485 12.4183 16.0659C12.244 15.8825 12.1569 15.6688 12.1569 15.4248C12.1569 15.1634 12.244 14.9414 12.4183 14.7587C12.5926 14.5753 12.8105 14.4837 13.0719 14.4837C13.3333 14.4837 13.5512 14.5753 13.7255 14.7587C13.8998 14.9414 13.9869 15.1634 13.9869 15.4248C13.9869 15.6688 13.8998 15.8825 13.7255 16.0659C13.5512 16.2485 13.3333 16.3399 13.0719 16.3399Z" fill="#ABB3BB"/>
</svg>
