<svg width="17" height="16" viewBox="0 0 17 16" fill="none" xmlns="http://www.w3.org/2000/svg">
<path d="M2.34497 15.999C1.84762 15.9985 1.37069 15.8007 1.01901 15.449C0.667327 15.0973 0.469524 14.6205 0.468994 14.1231V3.1238C0.469524 2.62654 0.66742 2.14981 1.01913 1.79829C1.37084 1.44677 1.84771 1.24918 2.34497 1.24891H3.09493V0H4.34485V1.24992H12.5953V0H13.8462V1.24992H14.5962C15.0932 1.25045 15.5698 1.44817 15.9213 1.79966C16.2728 2.15115 16.4705 2.62772 16.471 3.1248V14.1241C16.4705 14.6213 16.2729 15.098 15.9214 15.4496C15.5699 15.8013 15.0933 15.9992 14.5962 16L2.34497 15.999ZM1.72001 14.1231C1.72001 14.2889 1.78581 14.448 1.90299 14.5654C2.02016 14.6827 2.17913 14.7488 2.34497 14.7491H14.5962C14.7619 14.7485 14.9207 14.6824 15.0378 14.5651C15.1549 14.4478 15.2209 14.2889 15.2211 14.1231V5.87463H1.72197L1.72001 14.1231ZM1.72001 3.1238V4.6237H15.2192V3.1238C15.2189 2.95813 15.153 2.79932 15.0358 2.68217C14.9187 2.56503 14.7599 2.4991 14.5942 2.49884H13.8443V3.74876H12.5932V2.49984H4.34277V3.74976H3.09285V2.49984H2.3429C2.1774 2.50037 2.01882 2.56643 1.90189 2.68355C1.78496 2.80066 1.71918 2.95931 1.71892 3.1248L1.72001 3.1238ZM10.3445 13.4381V12.1882H11.5944V13.4381H10.3445ZM7.84463 13.4381V12.1882H9.09345V13.4381H7.84463ZM5.34479 13.4381V12.1882H6.59471V13.4381H5.34479ZM2.84494 13.4381V12.1882H4.09486V13.4381H2.84494ZM12.8443 10.9383V9.68939H14.0942V10.9383H12.8443ZM10.3445 10.9383V9.68939H11.5944V10.9383H10.3445ZM7.84463 10.9383V9.68939H9.09345V10.9383H7.84463ZM5.34479 10.9383V9.68939H6.59471V10.9383H5.34479ZM2.84494 10.9383V9.68939H4.09486V10.9383H2.84494ZM12.8443 8.43846V7.18854H14.0942V8.43846H12.8443ZM10.3445 8.43846V7.18854H11.5944V8.43846H10.3445ZM7.84463 8.43846V7.18854H9.09345V8.43846H7.84463ZM5.34479 8.43846V7.18854H6.59471V8.43846H5.34479ZM2.84494 8.43846V7.18854H4.09486V8.43846H2.84494Z" fill="#3845B3"/>
</svg>
