<svg width="17" height="16" viewBox="0 0 17 16" fill="none" xmlns="http://www.w3.org/2000/svg">
<path d="M1.88088 16C1.3835 15.9995 0.906639 15.8017 0.554935 15.45C0.203232 15.0982 0.00541223 14.6214 0.00488281 14.124V3.124C0.00541262 2.62671 0.203264 2.14995 0.554996 1.79841C0.906729 1.44686 1.38359 1.24927 1.88088 1.249H2.63088V0H3.88088V1.25H12.1319V0H13.3819V1.25H14.1329C14.6302 1.25026 15.107 1.44786 15.4588 1.79941C15.8105 2.15095 16.0084 2.62771 16.0089 3.125V14.125C16.0081 14.6222 15.8101 15.0988 15.4585 15.4503C15.1068 15.8018 14.6301 15.9995 14.1329 16H1.88088ZM1.25588 14.124C1.25615 14.2897 1.32208 14.4485 1.43923 14.5656C1.55638 14.6828 1.7152 14.7487 1.88088 14.749H14.1329C14.2986 14.7487 14.4574 14.6828 14.5745 14.5656C14.6917 14.4485 14.7576 14.2897 14.7579 14.124V5.875H1.25788L1.25588 14.124ZM1.25588 3.124V4.624H14.7559V3.124C14.7559 2.95824 14.69 2.79927 14.5728 2.68206C14.4556 2.56485 14.2966 2.499 14.1309 2.499H13.3799V3.749H12.1299V2.5H3.88088V3.75H2.63088V2.5H1.88088C1.71503 2.5 1.55596 2.56582 1.43859 2.683C1.32122 2.80018 1.25515 2.95915 1.25488 3.125L1.25588 3.124ZM9.88088 13.44V12.19H11.1309V13.44H9.88088ZM7.38088 13.44V12.19H8.63088V13.44H7.38088ZM4.88088 13.44V12.19H6.13088V13.44H4.88088ZM2.38088 13.44V12.19H3.63088V13.44H2.38088ZM12.3809 10.94V9.69H13.6309V10.94H12.3809ZM9.88088 10.94V9.69H11.1309V10.94H9.88088ZM7.38088 10.94V9.69H8.63088V10.94H7.38088ZM4.88088 10.94V9.69H6.13088V10.94H4.88088ZM2.38088 10.94V9.69H3.63088V10.94H2.38088ZM12.3809 8.44V7.19H13.6309V8.439L12.3809 8.44ZM9.88088 8.44V7.19H11.1309V8.439L9.88088 8.44ZM7.38088 8.44V7.19H8.63088V8.439L7.38088 8.44ZM4.88088 8.44V7.19H6.13088V8.439L4.88088 8.44ZM2.38088 8.44V7.19H3.63088V8.439L2.38088 8.44Z" fill="black"/>
</svg>
