<svg width="13" height="13" viewBox="0 0 13 13" fill="none" xmlns="http://www.w3.org/2000/svg">
<path d="M1.40699 12.0041C1.03397 12.0037 0.676272 11.8554 0.412511 11.5916C0.14875 11.3279 0.000397035 10.9702 0 10.5972V2.34773C0.000397332 1.97478 0.14882 1.61724 0.412602 1.3536C0.676385 1.08996 1.03404 0.941767 1.40699 0.941569H1.96945V0.00488281H2.90689V0.942324H9.09473V0.00488281H10.0329V0.942324H10.5954C10.9682 0.942721 11.3256 1.09101 11.5892 1.35463C11.8528 1.61825 12.0011 1.97567 12.0015 2.34849V10.598C12.0011 10.9709 11.8529 11.3284 11.5893 11.5921C11.3257 11.8558 10.9683 12.0043 10.5954 12.0049L1.40699 12.0041ZM0.938265 10.5972C0.938265 10.7216 0.987613 10.8409 1.07549 10.9289C1.16337 11.0169 1.2826 11.0665 1.40699 11.0667H10.5954C10.7197 11.0663 10.8388 11.0167 10.9266 10.9287C11.0144 10.8407 11.0639 10.7215 11.0641 10.5972V4.41086H0.93973L0.938265 10.5972ZM0.938265 2.34773V3.47266H11.0626V2.34773C11.0624 2.22348 11.013 2.10437 10.9251 2.01651C10.8373 1.92865 10.7182 1.87921 10.5939 1.87901H10.0314V2.81645H9.09318V1.87976H2.90533V2.81721H1.96789V1.87976H1.40543C1.28131 1.88016 1.16237 1.92971 1.07467 2.01754C0.986973 2.10538 0.937639 2.22436 0.937441 2.34849L0.938265 2.34773ZM7.40661 10.0835V9.14605H8.34405V10.0835H7.40661ZM5.53173 10.0835V9.14605H6.46834V10.0835H5.53173ZM3.65684 10.0835V9.14605H4.59429V10.0835H3.65684ZM1.78196 10.0835V9.14605H2.7194V10.0835H1.78196ZM9.28149 8.20861V7.27193H10.2189V8.20861H9.28149ZM7.40661 8.20861V7.27193H8.34405V8.20861H7.40661ZM5.53173 8.20861V7.27193H6.46834V8.20861H5.53173ZM3.65684 8.20861V7.27193H4.59429V8.20861H3.65684ZM1.78196 8.20861V7.27193H2.7194V8.20861H1.78196ZM9.28149 6.33373V5.39629H10.2189V6.33373H9.28149ZM7.40661 6.33373V5.39629H8.34405V6.33373H7.40661ZM5.53173 6.33373V5.39629H6.46834V6.33373H5.53173ZM3.65684 6.33373V5.39629H4.59429V6.33373H3.65684ZM1.78196 6.33373V5.39629H2.7194V6.33373H1.78196Z" fill="#3845B3"/>
</svg>
