<svg width="52" height="50" viewBox="0 0 52 50" fill="none" xmlns="http://www.w3.org/2000/svg">
<path d="M44.7368 0H6.57901C4.39806 0 2.63159 1.76647 2.63159 3.94734L2.70725 28.9473H48.6841V3.94734C48.6842 1.76647 46.9177 0 44.7368 0Z" fill="#C2C2C2"/>
<path d="M47.3684 7.89355H3.94734C1.76647 7.89355 0 9.66002 0 11.841C0 12.0252 0.0131875 12.2061 0.0361736 12.3804L2.63154 28.9462H48.6841L51.2794 12.3804C51.3025 12.2028 51.3156 12.0218 51.3156 11.841C51.3157 9.66002 49.5492 7.89355 47.3684 7.89355Z" fill="#3367D6"/>
<path opacity="0.5" d="M47.3684 7.89355H3.94734C1.76647 7.89355 0 9.66002 0 11.841C0 12.0252 0.0131875 12.2061 0.0361736 12.3804L2.63154 28.9462H48.6841L51.2794 12.3804C51.3025 12.2028 51.3156 12.0218 51.3156 11.841C51.3157 9.66002 49.5492 7.89355 47.3684 7.89355Z" fill="#2A56C6"/>
<path d="M49.9896 45.7795L48.6837 28.9473H2.63116L1.3253 45.7795C1.31874 45.8716 1.31543 45.9604 1.31543 46.0525C1.31543 48.2335 3.0819 49.9999 5.26277 49.9999H46.0522C48.2331 49.9999 49.9995 48.2334 49.9995 46.0525C49.9995 45.9604 49.9963 45.8716 49.9896 45.7795Z" fill="#4285F4"/>
<path d="M2.63135 28.9473L23.6839 49.9999H49.9997V28.9473H2.63135Z" fill="url(#paint0_linear_7602_128897)"/>
<path d="M3.94734 8.22348H47.3684C49.5032 8.22348 51.24 9.92084 51.3091 12.0392C51.3125 11.9735 51.3157 11.9077 51.3157 11.8419C51.3157 9.66092 49.5492 7.89453 47.3684 7.89453H3.94734C1.76647 7.89453 0 9.661 0 11.842C0 11.9077 0.0033153 11.9735 0.00655693 12.0393C0.0756625 9.92084 1.81251 8.22348 3.94734 8.22348Z" fill="white" fill-opacity="0.2"/>
<path d="M46.0527 49.6712H5.26326C3.12843 49.6712 1.39158 47.9739 1.32247 45.8555C1.31916 45.9213 1.31592 45.9871 1.31592 46.0528C1.31592 48.2338 3.08238 50.0002 5.26326 50.0002H46.0527C48.2336 50.0002 50 48.2337 50 46.0528C50 45.9871 49.9967 45.9213 49.9935 45.8555C49.9243 47.9739 48.1876 49.6712 46.0527 49.6712Z" fill="#1A237E" fill-opacity="0.2"/>
<path d="M44.7368 0H6.57901C4.39806 0 2.63159 1.76647 2.63159 3.94734V4.25987C2.64146 2.08879 4.40461 0.328952 6.57901 0.328952H44.7369C46.9178 0.328952 48.6842 2.09542 48.6842 4.2763V3.94734C48.6842 1.76647 46.9178 0 44.7368 0Z" fill="white" fill-opacity="0.2"/>
<path d="M21.7958 28.665C23.2925 28.0466 25.2202 26.4018 25.2202 23.9248C25.2202 20.1091 22.7695 17.7637 18.6412 17.7637C14.9636 17.7637 11.9998 20.1715 11.9472 23.6847H14.6182C14.6577 21.6321 16.0459 19.9446 18.638 19.9446C21.1347 19.9446 22.5426 21.2439 22.5426 23.8657C22.5426 26.4874 20.536 27.6979 18.0887 27.6979C17.1281 27.6979 16.2236 27.6979 16.2236 27.6979V29.79C16.2236 29.79 17.2565 29.79 18.0887 29.79C21.6873 29.79 22.8716 31.6585 22.8716 33.8262C22.8716 36.6618 21.1479 37.9709 18.6512 37.9709C16.4769 37.9709 14.4966 36.8098 14.4374 34.2143H11.7466C11.8617 38.3952 15.3815 40.1354 18.6512 40.1354C22.4274 40.1354 25.5426 37.9348 25.5426 33.767C25.5491 30.4051 23.1544 29.063 21.7958 28.665ZM37.0655 17.7637L29.2761 20.5597V23.0729L34.8682 21.2044V40.132H37.4998V17.7637H37.0655Z" fill="#E1E1E1"/>
<g opacity="0.5">
<path d="M21.7958 28.665C23.2925 28.0466 25.2202 26.4018 25.2202 23.9248C25.2202 20.1091 22.7695 17.7637 18.6412 17.7637C14.9636 17.7637 11.9998 20.1715 11.9472 23.6847H14.6182C14.6577 21.6321 16.0459 19.9446 18.638 19.9446C21.1347 19.9446 22.5426 21.2439 22.5426 23.8657C22.5426 26.4874 20.536 27.6979 18.0887 27.6979C17.1281 27.6979 16.2236 27.6979 16.2236 27.6979V29.79C16.2236 29.79 17.2565 29.79 18.0887 29.79C21.6873 29.79 22.8716 31.6585 22.8716 33.8262C22.8716 36.6618 21.1479 37.9709 18.6512 37.9709C16.4769 37.9709 14.4966 36.8098 14.4374 34.2143H11.7466C11.8617 38.3952 15.3815 40.1354 18.6512 40.1354C22.4274 40.1354 25.5426 37.9348 25.5426 33.767C25.5491 30.4051 23.1544 29.063 21.7958 28.665ZM37.0655 17.7637L29.2761 20.5597V23.0729L34.8682 21.2044V40.132H37.4998V17.7637H37.0655Z" fill="#C2C2C2"/>
</g>
<path d="M21.7958 28.6611C23.2925 28.0427 25.2202 26.3979 25.2202 23.9209C25.2202 20.1052 22.7695 17.7598 18.6412 17.7598C14.9636 17.7598 11.9998 20.1676 11.9472 23.6808H14.6182C14.6577 21.6282 16.0459 19.9407 18.638 19.9407C21.1347 19.9407 22.5426 21.24 22.5426 23.8618C22.5426 26.4835 20.536 27.694 18.0887 27.694C17.1281 27.694 16.2236 27.694 16.2236 27.694V29.7861C16.2236 29.7861 17.2565 29.7861 18.0887 29.7861C21.6873 29.7861 22.8716 31.6546 22.8716 33.8223C22.8716 36.6579 21.1479 37.967 18.6512 37.967C16.4769 37.967 14.4966 36.8059 14.4374 34.2104H11.7466C11.8617 38.3913 15.3815 40.1315 18.6512 40.1315C22.4274 40.1315 25.5426 37.9309 25.5426 33.7631C25.5491 30.4012 23.1544 29.0591 21.7958 28.6611ZM37.0655 17.7598L29.2761 20.5558V23.069L34.8682 21.2005V40.1281H37.4998V17.7598H37.0655Z" fill="#EEEEEE"/>
<path d="M14.3123 7.89577L11.7629 5.34321L14.5524 2.55371L19.8978 7.89577H14.3123Z" fill="url(#paint1_linear_7602_128897)"/>
<path d="M13.1578 5.92203C14.2478 5.92203 15.1315 5.03837 15.1315 3.94832C15.1315 2.85827 14.2478 1.97461 13.1578 1.97461C12.0677 1.97461 11.1841 2.85827 11.1841 3.94832C11.1841 5.03837 12.0677 5.92203 13.1578 5.92203Z" fill="#EEEEEE"/>
<path d="M13.1578 2.30356C14.194 2.30356 15.0393 3.0996 15.1216 4.11276C15.1282 4.05684 15.1315 4.00424 15.1315 3.94832C15.1315 2.8595 14.2466 1.97461 13.1578 1.97461C12.069 1.97461 11.1841 2.8595 11.1841 3.94832C11.1841 4.00424 11.1874 4.05684 11.194 4.11276C11.2762 3.0996 12.1216 2.30356 13.1578 2.30356Z" fill="white" fill-opacity="0.4"/>
<path d="M15.1216 4.1123C15.0394 5.12546 14.1907 5.9215 13.1578 5.9215C12.1249 5.9215 11.2762 5.12546 11.194 4.1123C11.1874 4.16822 11.1841 4.22083 11.1841 4.27674C11.1841 5.36556 12.069 6.25045 13.1578 6.25045C14.2466 6.25045 15.1315 5.36556 15.1315 4.27674C15.1315 4.22083 15.1282 4.16822 15.1216 4.1123Z" fill="#212121" fill-opacity="0.1"/>
<path d="M49.0129 28.9463H2.30249V29.2752H49.0129V28.9463Z" fill="white" fill-opacity="0.05"/>
<path d="M49.0129 28.6182H2.30249V28.9471H49.0129V28.6182Z" fill="#1A237E" fill-opacity="0.05"/>
<path d="M39.3123 7.89577L36.7629 5.34321L39.5524 2.55371L43.582 7.89577H39.3123Z" fill="url(#paint2_linear_7602_128897)"/>
<path d="M38.158 5.92203C39.2481 5.92203 40.1317 5.03837 40.1317 3.94832C40.1317 2.85827 39.2481 1.97461 38.158 1.97461C37.068 1.97461 36.1843 2.85827 36.1843 3.94832C36.1843 5.03837 37.068 5.92203 38.158 5.92203Z" fill="#EEEEEE"/>
<path d="M38.158 2.30356C39.1942 2.30356 40.0396 3.0996 40.1219 4.11276C40.1252 4.05684 40.1317 4.00424 40.1317 3.94832C40.1317 2.8595 39.2469 1.97461 38.158 1.97461C37.0692 1.97461 36.1843 2.8595 36.1843 3.94832C36.1843 4.00424 36.1876 4.05684 36.1942 4.11276C36.2764 3.0996 37.1218 2.30356 38.158 2.30356Z" fill="white" fill-opacity="0.4"/>
<path d="M40.1216 4.1123C40.0394 5.12546 39.1907 5.9215 38.1578 5.9215C37.1249 5.9215 36.2762 5.12546 36.194 4.1123C36.1906 4.16822 36.1841 4.22083 36.1841 4.27674C36.1841 5.36556 37.069 6.25045 38.1578 6.25045C39.2466 6.25045 40.1315 5.36556 40.1315 4.27674C40.1315 4.22083 40.1283 4.16822 40.1216 4.1123Z" fill="#212121" fill-opacity="0.1"/>
<path d="M51.3157 11.8421C51.3157 10.125 50.217 8.66774 48.6842 8.12499V3.94734C48.6842 1.76647 46.9177 0 44.7367 0H6.57896C4.398 0 2.63154 1.76647 2.63154 3.94734L2.64141 8.11836C1.10525 8.65787 0 10.1184 0 11.8421C0 12.0263 0.0131875 12.2072 0.0361736 12.3815L2.63154 28.9473L1.32568 45.7795C1.31912 45.8716 1.31581 45.9605 1.31581 46.0526C1.31581 48.2335 3.08227 49.9999 5.26315 49.9999H46.0525C48.2335 49.9999 49.9999 48.2334 49.9999 46.0526C49.9999 45.9605 49.9966 45.8716 49.99 45.7795L48.6841 28.9473L51.2794 12.3815C51.3026 12.2072 51.3157 12.0263 51.3157 11.8421Z" fill="url(#paint3_radial_7602_128897)" fill-opacity="0.05"/>
<defs>
<linearGradient id="paint0_linear_7602_128897" x1="14.5768" y1="17.2141" x2="36.1446" y2="38.7818" gradientUnits="userSpaceOnUse">
<stop stop-color="#1A237E" stop-opacity="0.2"/>
<stop offset="1" stop-color="#1A237E" stop-opacity="0.02"/>
</linearGradient>
<linearGradient id="paint1_linear_7602_128897" x1="13.1246" y1="3.92202" x2="15.6835" y2="6.48097" gradientUnits="userSpaceOnUse">
<stop stop-color="#212121" stop-opacity="0.2"/>
<stop offset="1" stop-color="#212121" stop-opacity="0.02"/>
</linearGradient>
<linearGradient id="paint2_linear_7602_128897" x1="38.1242" y1="3.9258" x2="40.3681" y2="6.16965" gradientUnits="userSpaceOnUse">
<stop stop-color="#212121" stop-opacity="0.2"/>
<stop offset="1" stop-color="#212121" stop-opacity="0.02"/>
</linearGradient>
<radialGradient id="paint3_radial_7602_128897" cx="0" cy="0" r="1" gradientUnits="userSpaceOnUse" gradientTransform="translate(3.52328 1.1048) scale(65.8695 65.8695)">
<stop offset="0.33" stop-color="white"/>
<stop offset="1" stop-color="white" stop-opacity="0"/>
</radialGradient>
</defs>
</svg>
