<svg width="26" height="26" viewBox="0 0 26 26" fill="none" xmlns="http://www.w3.org/2000/svg">
<g filter="url(#filter0_d_25729_203409)">
<circle cx="13" cy="12" r="11" fill="white"/>
</g>
<path fill-rule="evenodd" clip-rule="evenodd" d="M15.832 7.20153C15.9404 7.31117 16.0001 7.45707 16.0001 7.61226C16.0001 7.76756 15.9404 7.91346 15.832 8.02298L12.3843 11.5161L15.8314 15.009C15.9399 15.1187 15.9996 15.2646 15.9996 15.4199C15.9996 15.5752 15.9403 15.7211 15.8314 15.8311C15.6079 16.0573 15.2439 16.0573 15.02 15.8309L11.1665 11.927C11.0596 11.8183 11.0007 11.6725 11.0007 11.5164C11.0007 11.5164 11.0007 11.5164 11.0007 11.5163C11.0007 11.3599 11.0598 11.2138 11.1673 11.1053L15.0204 7.20142C15.2439 6.97563 15.6079 6.97563 15.832 7.20153Z" fill="black"/>
<defs>
<filter id="filter0_d_25729_203409" x="0" y="0" width="26" height="26" filterUnits="userSpaceOnUse" color-interpolation-filters="sRGB">
<feFlood flood-opacity="0" result="BackgroundImageFix"/>
<feColorMatrix in="SourceAlpha" type="matrix" values="0 0 0 0 0 0 0 0 0 0 0 0 0 0 0 0 0 0 127 0" result="hardAlpha"/>
<feOffset dy="1"/>
<feGaussianBlur stdDeviation="1"/>
<feComposite in2="hardAlpha" operator="out"/>
<feColorMatrix type="matrix" values="0 0 0 0 0 0 0 0 0 0 0 0 0 0 0 0 0 0 0.15 0"/>
<feBlend mode="normal" in2="BackgroundImageFix" result="effect1_dropShadow_25729_203409"/>
<feBlend mode="normal" in="SourceGraphic" in2="effect1_dropShadow_25729_203409" result="shape"/>
</filter>
</defs>
</svg>
