<svg width="15" height="16" viewBox="0 0 15 16" fill="none" xmlns="http://www.w3.org/2000/svg">
<path d="M1.50588 16C1.08758 16 0.732026 15.8536 0.439216 15.5608C0.146405 15.268 0 14.9124 0 14.4941V3.28366C0 2.86536 0.146405 2.5098 0.439216 2.21699C0.732026 1.92418 1.08758 1.77778 1.50588 1.77778H2.67712V0H3.95294V1.77778H10.2902V0H11.5451V1.77778H12.7163C13.1346 1.77778 13.4902 1.92418 13.783 2.21699C14.0758 2.5098 14.2222 2.86536 14.2222 3.28366V14.4941C14.2222 14.9124 14.0758 15.268 13.783 15.5608C13.4902 15.8536 13.1346 16 12.7163 16H1.50588ZM1.50588 14.7451H12.7163C12.7721 14.7451 12.8279 14.7172 12.8837 14.6614C12.9394 14.6057 12.9673 14.5499 12.9673 14.4941V6.63007H1.2549V14.4941C1.2549 14.5499 1.28279 14.6057 1.33856 14.6614C1.39434 14.7172 1.45011 14.7451 1.50588 14.7451ZM1.2549 5.37516H12.9673V3.28366C12.9673 3.22789 12.9394 3.17211 12.8837 3.11634C12.8279 3.06057 12.7721 3.03268 12.7163 3.03268H1.50588C1.45011 3.03268 1.39434 3.06057 1.33856 3.11634C1.28279 3.17211 1.2549 3.22789 1.2549 3.28366V5.37516ZM7.11111 9.78824C6.90196 9.78824 6.72767 9.71489 6.58824 9.56821C6.4488 9.42208 6.37909 9.25142 6.37909 9.05621C6.37909 8.84706 6.4488 8.66914 6.58824 8.52246C6.72767 8.37633 6.90196 8.30327 7.11111 8.30327C7.32026 8.30327 7.49455 8.37633 7.63399 8.52246C7.77342 8.66914 7.84314 8.84706 7.84314 9.05621C7.84314 9.25142 7.77342 9.42208 7.63399 9.56821C7.49455 9.71489 7.32026 9.78824 7.11111 9.78824ZM3.76471 9.78824C3.55556 9.78824 3.38126 9.71489 3.24183 9.56821C3.1024 9.42208 3.03268 9.25142 3.03268 9.05621C3.03268 8.84706 3.1024 8.66914 3.24183 8.52246C3.38126 8.37633 3.55556 8.30327 3.76471 8.30327C3.97386 8.30327 4.14815 8.37633 4.28758 8.52246C4.42702 8.66914 4.49673 8.84706 4.49673 9.05621C4.49673 9.25142 4.42702 9.42208 4.28758 9.56821C4.14815 9.71489 3.97386 9.78824 3.76471 9.78824ZM10.4575 9.78824C10.2484 9.78824 10.0741 9.71489 9.93464 9.56821C9.79521 9.42208 9.72549 9.25142 9.72549 9.05621C9.72549 8.84706 9.79521 8.66914 9.93464 8.52246C10.0741 8.37633 10.2484 8.30327 10.4575 8.30327C10.6667 8.30327 10.841 8.37633 10.9804 8.52246C11.1198 8.66914 11.1895 8.84706 11.1895 9.05621C11.1895 9.25142 11.1198 9.42208 10.9804 9.56821C10.841 9.71489 10.6667 9.78824 10.4575 9.78824ZM7.11111 13.0719C6.90196 13.0719 6.72767 12.9988 6.58824 12.8527C6.4488 12.706 6.37909 12.5351 6.37909 12.3399C6.37909 12.1307 6.4488 11.9531 6.58824 11.807C6.72767 11.6603 6.90196 11.5869 7.11111 11.5869C7.32026 11.5869 7.49455 11.6603 7.63399 11.807C7.77342 11.9531 7.84314 12.1307 7.84314 12.3399C7.84314 12.5351 7.77342 12.706 7.63399 12.8527C7.49455 12.9988 7.32026 13.0719 7.11111 13.0719ZM3.76471 13.0719C3.55556 13.0719 3.38126 12.9988 3.24183 12.8527C3.1024 12.706 3.03268 12.5351 3.03268 12.3399C3.03268 12.1307 3.1024 11.9531 3.24183 11.807C3.38126 11.6603 3.55556 11.5869 3.76471 11.5869C3.97386 11.5869 4.14815 11.6603 4.28758 11.807C4.42702 11.9531 4.49673 12.1307 4.49673 12.3399C4.49673 12.5351 4.42702 12.706 4.28758 12.8527C4.14815 12.9988 3.97386 13.0719 3.76471 13.0719ZM10.4575 13.0719C10.2484 13.0719 10.0741 12.9988 9.93464 12.8527C9.79521 12.706 9.72549 12.5351 9.72549 12.3399C9.72549 12.1307 9.79521 11.9531 9.93464 11.807C10.0741 11.6603 10.2484 11.5869 10.4575 11.5869C10.6667 11.5869 10.841 11.6603 10.9804 11.807C11.1198 11.9531 11.1895 12.1307 11.1895 12.3399C11.1895 12.5351 11.1198 12.706 10.9804 12.8527C10.841 12.9988 10.6667 13.0719 10.4575 13.0719Z" fill="#ABB3BB"/>
</svg>
