<svg width="13" height="12" viewBox="0 0 13 12" fill="none" xmlns="http://www.w3.org/2000/svg">
<path d="M10.4702 1.35461e-08H1.53468C1.42105 -2.02142e-05 1.30856 0.0226136 1.20378 0.0665784C1.099 0.110543 1.00403 0.174957 0.924441 0.256052C0.844848 0.337147 0.782221 0.433297 0.740222 0.53888C0.698223 0.644462 0.677696 0.757359 0.67984 0.870968V11.129C0.677696 11.2426 0.698223 11.3555 0.740222 11.4611C0.782221 11.5667 0.844848 11.6629 0.924441 11.7439C1.00403 11.825 1.099 11.8895 1.20378 11.9334C1.30856 11.9774 1.42105 12 1.53468 12H10.4702C10.5838 12 10.6963 11.9774 10.8011 11.9334C10.9058 11.8895 11.0008 11.825 11.0804 11.7439C11.16 11.6629 11.2226 11.5667 11.2646 11.4611C11.3066 11.3555 11.3271 11.2426 11.325 11.129V0.870968C11.3271 0.757359 11.3066 0.644462 11.2646 0.53888C11.2226 0.433297 11.16 0.337147 11.0804 0.256052C11.0008 0.174957 10.9058 0.110543 10.8011 0.0665784C10.6963 0.0226136 10.5838 -2.02142e-05 10.4702 1.35461e-08ZM3.53468 1.35484C3.42774 1.35484 3.32517 1.31236 3.24955 1.23674C3.17394 1.16112 3.13145 1.05855 3.13145 0.951613C3.13145 0.844671 3.17394 0.742109 3.24955 0.666489C3.32517 0.59087 3.42774 0.548387 3.53468 0.548387C3.64162 0.548387 3.74418 0.59087 3.8198 0.666489C3.89542 0.742109 3.9379 0.844671 3.9379 0.951613C3.9379 1.05855 3.89542 1.16112 3.8198 1.23674C3.74418 1.31236 3.64162 1.35484 3.53468 1.35484ZM8.47016 1.35484C8.36322 1.35484 8.26066 1.31236 8.18504 1.23674C8.10942 1.16112 8.06694 1.05855 8.06694 0.951613C8.06694 0.844671 8.10942 0.742109 8.18504 0.666489C8.26066 0.59087 8.36322 0.548387 8.47016 0.548387C8.5771 0.548387 8.67967 0.59087 8.75529 0.666489C8.8309 0.742109 8.87339 0.844671 8.87339 0.951613C8.87339 1.05855 8.8309 1.16112 8.75529 1.23674C8.67967 1.31236 8.5771 1.35484 8.47016 1.35484Z" fill="#D9D9D9"/>
<path d="M0.236995 11.0242L0.632156 6.75H11.3741L11.7693 11.0242C11.7816 11.1441 11.7688 11.2652 11.7315 11.3798C11.6942 11.4944 11.6334 11.5999 11.5529 11.6896C11.4723 11.7792 11.3739 11.851 11.2639 11.9003C11.154 11.9496 11.0349 11.9753 10.9144 11.9758H1.09183C0.971327 11.9753 0.85226 11.9496 0.7423 11.9003C0.632339 11.851 0.533924 11.7792 0.453394 11.6896C0.372863 11.5999 0.312002 11.4944 0.274731 11.3798C0.23746 11.2652 0.224605 11.1441 0.236995 11.0242Z" fill="#008DFF"/>
<path d="M0.0109613 2.71773L0.631929 6.74999H11.3739L11.9948 2.71773C12.0147 2.59416 12.0075 2.46775 11.9736 2.34725C11.9398 2.22676 11.8801 2.11507 11.7988 2.01993C11.7175 1.9248 11.6164 1.84849 11.5027 1.79631C11.3889 1.74412 11.2652 1.71731 11.14 1.71773H0.8658C0.740641 1.71731 0.61689 1.74412 0.503128 1.79631C0.389366 1.84849 0.288318 1.9248 0.206992 2.01993C0.125666 2.11507 0.0660089 2.22676 0.0321587 2.34725C-0.00169154 2.46775 -0.00892446 2.59416 0.0109613 2.71773Z" fill="#0066E0"/>
<path d="M5.7448 9.22581H2.72061V8.91936L4.38996 7.08065C4.61056 6.83423 4.80263 6.5637 4.96254 6.2742C5.06357 6.09116 5.1189 5.88644 5.12383 5.67743C5.13078 5.54475 5.11078 5.41203 5.06504 5.28729C5.0193 5.16255 4.94877 5.04836 4.8577 4.95162C4.75799 4.86008 4.641 4.78938 4.51359 4.74368C4.38618 4.69798 4.25093 4.6782 4.11577 4.68549C3.9667 4.67748 3.81764 4.70139 3.67857 4.75563C3.53949 4.80987 3.4136 4.89319 3.30932 5.00001C3.20782 5.1074 3.12907 5.23419 3.07779 5.37277C3.02652 5.51135 3.00378 5.65887 3.01093 5.80646H2.61577C2.60913 5.55495 2.66452 5.30568 2.77706 5.08065C2.89558 4.85754 3.07814 4.67498 3.30125 4.55646C3.54717 4.41904 3.82621 4.35207 4.1077 4.36291C4.48409 4.33756 4.85522 4.46223 5.13996 4.70968C5.26718 4.83223 5.36679 4.98049 5.43216 5.14459C5.49752 5.30869 5.52712 5.48485 5.51899 5.6613C5.50766 5.92153 5.43587 6.17556 5.30932 6.40323C5.09825 6.76199 4.84954 7.09722 4.56738 7.40323L3.21254 8.92743H5.7448V9.22581ZM7.36577 6.62904H7.77706C7.9851 6.63354 8.19159 6.59224 8.3819 6.50807C8.53948 6.43649 8.67366 6.32188 8.76899 6.17743C8.85917 6.03219 8.90668 5.86451 8.90609 5.69356C8.91448 5.56073 8.89516 5.42762 8.84934 5.30267C8.80353 5.17772 8.73222 5.06366 8.63996 4.96775C8.53929 4.87521 8.42097 4.80394 8.2921 4.75821C8.16323 4.71248 8.02645 4.69323 7.88996 4.70162C7.60848 4.68884 7.33328 4.78733 7.12383 4.97581C7.02638 5.06771 6.94943 5.17915 6.89801 5.30283C6.8466 5.42651 6.82187 5.55966 6.82545 5.69356H6.43028C6.42832 5.45131 6.49546 5.21352 6.62383 5.00807C6.74906 4.80227 6.9311 4.63704 7.14803 4.53227C7.37829 4.41744 7.63268 4.35937 7.88996 4.36291C8.26699 4.34324 8.63697 4.47043 8.92222 4.71775C9.04988 4.8467 9.14947 5.00069 9.2147 5.17002C9.27993 5.33934 9.3094 5.52034 9.30125 5.70162C9.30186 5.93481 9.2253 6.16165 9.08351 6.34678C8.92378 6.54622 8.7115 6.69706 8.47061 6.78227C8.74072 6.84822 8.98161 7.00126 9.15609 7.21775C9.31301 7.42981 9.39525 7.68787 9.38996 7.95162C9.39625 8.13721 9.36362 8.32207 9.29417 8.49429C9.22473 8.66652 9.12 8.8223 8.98674 8.95162C8.68782 9.20997 8.30066 9.34288 7.90609 9.32259C7.62782 9.32902 7.35182 9.27106 7.09964 9.15323C6.86907 9.04924 6.67315 8.88131 6.53512 8.66936C6.40246 8.4539 6.33523 8.20456 6.34157 7.95162H6.73674C6.73369 8.09244 6.76091 8.23227 6.81656 8.36166C6.87221 8.49105 6.955 8.60698 7.05932 8.70162C7.28331 8.89424 7.5704 8.99759 7.86577 8.99194C8.15887 9.01071 8.44786 8.91534 8.67222 8.72581C8.7788 8.62235 8.86035 8.49593 8.91067 8.35617C8.96098 8.21641 8.97872 8.06701 8.96254 7.91936C8.97112 7.78097 8.94713 7.64249 8.89251 7.51504C8.83789 7.38759 8.75416 7.27472 8.64803 7.18549C8.38365 6.99584 8.0613 6.90455 7.73673 6.92743H7.33351L7.36577 6.62904Z" fill="white"/>
</svg>
