<svg width="11" height="11" viewBox="0 0 11 11" fill="none" xmlns="http://www.w3.org/2000/svg">
<path d="M10.499 4.6847C10.4656 4.75804 10.4392 4.83505 10.3769 4.89006C10.2563 4.99494 10.1188 5.02746 9.96912 4.96879C9.81943 4.91011 9.73836 4.7952 9.72126 4.63605C9.71858 4.60034 9.71784 4.56451 9.71907 4.52872C9.71907 3.82657 9.71907 3.12426 9.71907 2.42178C9.71907 2.02646 9.49538 1.72159 9.12812 1.62844C8.91127 1.57344 8.68735 1.60913 8.46659 1.60155C8.4158 1.59984 8.43119 1.63798 8.43094 1.66316C8.42972 1.77049 8.43241 1.87781 8.43094 1.98514C8.42557 2.21422 8.25512 2.38413 8.03584 2.38144C7.8207 2.37875 7.65587 2.21031 7.65074 1.9849C7.64854 1.88075 7.64781 1.7766 7.65074 1.67269C7.65245 1.6216 7.64366 1.59935 7.58408 1.59935C7.03415 1.60179 6.48422 1.60179 5.9343 1.59935C5.8796 1.59935 5.87032 1.61866 5.87179 1.66609C5.87447 1.77342 5.87472 1.88075 5.87179 1.98807C5.86617 2.21251 5.69865 2.37924 5.48303 2.38071C5.2674 2.38218 5.09842 2.21373 5.09232 1.98954C5.08914 1.88246 5.09036 1.77513 5.09232 1.6678C5.09232 1.6238 5.09085 1.59837 5.032 1.59886C4.48549 1.60131 3.93882 1.60131 3.39199 1.59886C3.34315 1.59886 3.33168 1.61329 3.33314 1.65925C3.33632 1.76315 3.33534 1.8673 3.33314 1.97121C3.32948 2.20884 3.16221 2.3812 2.93999 2.37973C2.72021 2.37827 2.55636 2.2086 2.55245 1.97561C2.55074 1.86852 2.55245 1.7612 2.55245 1.65387C2.55245 1.62942 2.56222 1.59813 2.51851 1.59984C2.30142 1.60815 2.08067 1.57123 1.86749 1.62918C1.51829 1.72379 1.30096 2.00617 1.28386 2.36922C1.28386 2.38242 1.28386 2.39538 1.28386 2.40834C1.28386 4.41781 1.28386 6.42719 1.28386 8.4365C1.28386 8.82351 1.5012 9.11298 1.86358 9.21884C1.95182 9.24159 2.04284 9.25163 2.1339 9.24867C3.09066 9.24867 4.04741 9.24867 5.00416 9.24867C5.13407 9.24867 5.24836 9.27874 5.33895 9.37604C5.38114 9.42146 5.41182 9.47634 5.42843 9.5361C5.44503 9.59585 5.44706 9.65871 5.43435 9.71941C5.42165 9.78012 5.39458 9.83688 5.35541 9.88493C5.31625 9.93298 5.26614 9.97092 5.20929 9.99556C5.18316 10.0073 5.15678 10.0185 5.13066 10.03H1.86724C1.40083 9.98895 1.04919 9.75205 0.773253 9.38802C0.614615 9.178 0.519749 8.92668 0.5 8.66411V2.18537C0.535897 1.7189 0.773498 1.36807 1.13686 1.09401C1.40816 0.890845 1.71951 0.799409 2.05796 0.793297C2.18152 0.791096 2.30533 0.793297 2.42889 0.793297C2.49409 0.793297 2.52413 0.767137 2.52291 0.700394C2.52144 0.61287 2.52022 0.524857 2.52291 0.437088C2.53194 0.184539 2.68774 0.0322279 2.93633 0.03125C3.19126 0.03125 3.34853 0.181606 3.35829 0.4388C3.36147 0.523145 3.36074 0.607736 3.35829 0.692326C3.35683 0.760292 3.38052 0.793786 3.45377 0.793786C3.95844 0.792645 4.46311 0.792645 4.96778 0.793786C5.03371 0.793786 5.06253 0.767626 5.0613 0.701372C5.0596 0.613603 5.05862 0.52559 5.0613 0.437822C5.07083 0.18454 5.2254 0.0327169 5.47375 0.0314945C5.72918 0.0314945 5.88619 0.180628 5.89645 0.438066C5.89987 0.522412 5.89987 0.607247 5.89645 0.691593C5.89352 0.767382 5.92502 0.795008 6.00023 0.794275C6.26689 0.792074 6.5338 0.794275 6.8007 0.794275C7.03171 0.794275 7.26272 0.794275 7.49372 0.794275C7.60972 0.794275 7.61582 0.786451 7.61826 0.674235C7.61826 0.592822 7.61558 0.511655 7.61973 0.429754C7.63194 0.179161 7.79066 0.030761 8.04096 0.031739C8.28516 0.031739 8.44217 0.181606 8.45414 0.427553C8.45878 0.5185 8.45658 0.609692 8.45414 0.700639C8.45414 0.767382 8.4832 0.794275 8.5484 0.793786C8.66537 0.793786 8.78258 0.793786 8.89979 0.793786C9.56351 0.801365 10.0456 1.10868 10.3625 1.68394C10.4516 1.84603 10.4795 2.02621 10.4966 2.20713L10.499 4.6847ZM10.499 7.51408C10.4746 7.52703 10.4773 7.53999 10.499 7.55319V7.51408ZM10.499 7.78716C10.4773 7.80036 10.4746 7.81332 10.499 7.82628V7.78716ZM7.99945 10.0312C7.98626 10.0088 7.97332 10.0048 7.96038 10.0312H7.99945ZM8.31178 10.0312C8.29883 10.0048 8.28565 10.0088 8.2727 10.0312H8.31178ZM2.9395 3.74809C2.83613 3.74848 2.73713 3.78986 2.66417 3.86318C2.59122 3.9365 2.55025 4.03577 2.55025 4.13926C2.55084 4.24262 2.59226 4.34156 2.66547 4.41444C2.73868 4.48732 2.83772 4.52823 2.94097 4.52823C3.04429 4.52778 3.14323 4.48637 3.21614 4.41306C3.28904 4.33975 3.32997 4.24051 3.32997 4.13706C3.32926 4.03399 3.28795 3.93537 3.21502 3.86263C3.14209 3.78989 3.04343 3.7489 2.94048 3.74858L2.9395 3.74809ZM5.02932 4.13633C5.02854 4.03309 4.98704 3.93435 4.91385 3.86162C4.84066 3.7889 4.74172 3.74809 4.6386 3.74809C4.53536 3.74867 4.43655 3.79014 4.36375 3.86344C4.29095 3.93673 4.25009 4.0359 4.25009 4.13926C4.25086 4.2425 4.29237 4.34124 4.36556 4.41397C4.43875 4.48669 4.53769 4.5275 4.6408 4.5275C4.74413 4.52717 4.84312 4.48589 4.91612 4.41267C4.98911 4.33945 5.03016 4.24026 5.03029 4.13682L5.02932 4.13633ZM6.34186 3.74809C6.23865 3.74737 6.13936 3.78757 6.06565 3.85989C5.99194 3.93222 5.94981 4.03081 5.94846 4.13413C5.94775 4.23758 5.98799 4.3371 6.06039 4.41092C6.13279 4.48473 6.23145 4.52682 6.33478 4.52799C6.43807 4.52877 6.53746 4.48857 6.61123 4.41619C6.685 4.3438 6.72713 4.24511 6.72842 4.14171C6.72894 4.03851 6.68871 3.93928 6.61649 3.86565C6.54427 3.79201 6.44591 3.74993 6.34284 3.74858L6.34186 3.74809ZM8.04048 3.74809C7.93723 3.74744 7.83792 3.78773 7.76425 3.86015C7.69059 3.93258 7.64855 4.03125 7.64732 4.13462C7.64687 4.23802 7.68733 4.33741 7.75986 4.41103C7.83239 4.48465 7.93109 4.52653 8.03437 4.5275C8.13762 4.52815 8.23692 4.48786 8.31059 4.41544C8.38426 4.34301 8.4263 4.24434 8.42752 4.14097C8.42753 4.03791 8.38705 3.93899 8.31481 3.86556C8.24257 3.79214 8.14438 3.75012 8.04145 3.74858L8.04048 3.74809ZM3.33119 5.83229C3.32977 5.72901 3.28762 5.63049 3.21392 5.55821C3.14022 5.48594 3.04095 5.44578 2.93779 5.4465C2.83455 5.4476 2.73594 5.48956 2.66351 5.56322C2.59108 5.63689 2.55071 5.73626 2.55123 5.83963C2.55252 5.94303 2.59465 6.04172 2.66842 6.1141C2.74219 6.18649 2.84158 6.22669 2.94487 6.22591C3.04816 6.22474 3.14678 6.18268 3.21917 6.10892C3.29157 6.03516 3.33184 5.9357 3.33119 5.83229ZM5.03029 5.83669C5.03029 5.7332 4.98933 5.63393 4.91637 5.56061C4.84342 5.48729 4.74442 5.44591 4.64105 5.44552C4.5378 5.44552 4.43876 5.48643 4.36555 5.55931C4.29234 5.6322 4.25092 5.73113 4.25034 5.83449C4.25034 5.93798 4.2913 6.03726 4.36425 6.11057C4.43721 6.18389 4.53621 6.22527 4.63958 6.22566C4.74266 6.22566 4.84156 6.18489 4.91474 6.11222C4.98792 6.03954 5.02945 5.94086 5.03029 5.83767V5.83669ZM2.55123 7.52997C2.55065 7.63338 2.59098 7.73281 2.66342 7.80652C2.73586 7.88024 2.83451 7.92224 2.93779 7.92334C3.04104 7.92405 3.14037 7.88383 3.21409 7.81145C3.2878 7.73907 3.3299 7.64042 3.33119 7.53706C3.33171 7.43373 3.29138 7.3344 3.219 7.26074C3.14662 7.18708 3.04807 7.14509 2.94487 7.14393C2.84163 7.14315 2.74227 7.18331 2.66851 7.25565C2.59475 7.32798 2.55258 7.4266 2.55123 7.52997V7.52997ZM4.25034 7.53266C4.25034 7.6361 4.29126 7.73534 4.36417 7.80865C4.43707 7.88196 4.53601 7.92337 4.63934 7.92382C4.74254 7.92383 4.84155 7.88295 4.91475 7.81012C4.98795 7.73729 5.0294 7.63842 5.03005 7.5351C5.03005 7.43165 4.98912 7.33241 4.91622 7.2591C4.84331 7.1858 4.74437 7.14438 4.64105 7.14393C4.53785 7.14393 4.43883 7.18481 4.36563 7.25764C4.29243 7.33047 4.25098 7.42933 4.25034 7.53266V7.53266ZM10.499 7.51408C10.496 7.51635 10.4935 7.51931 10.4918 7.5227C10.4901 7.52609 10.4893 7.52984 10.4893 7.53363C10.4893 7.53743 10.4901 7.54117 10.4918 7.54457C10.4935 7.54796 10.496 7.55091 10.499 7.55319V7.78716C10.496 7.78944 10.4935 7.79239 10.4918 7.79578C10.4901 7.79918 10.4893 7.80292 10.4893 7.80672C10.4893 7.81051 10.4901 7.81426 10.4918 7.81765C10.4935 7.82105 10.496 7.824 10.499 7.82628V7.94338C10.4681 8.29091 10.3537 8.62581 10.1657 8.9196C9.80185 9.49486 9.2866 9.8584 8.6197 10.0034C8.53765 10.0212 8.45219 10.0107 8.37038 10.0312H8.31275C8.31048 10.0282 8.30753 10.0257 8.30414 10.0241C8.30075 10.0224 8.29701 10.0215 8.29322 10.0215C8.28943 10.0215 8.28569 10.0224 8.2823 10.0241C8.27891 10.0257 8.27595 10.0282 8.27368 10.0312H8.00043C7.99815 10.0282 7.9952 10.0257 7.99181 10.0241C7.98842 10.0224 7.98468 10.0215 7.98089 10.0215C7.9771 10.0215 7.97336 10.0224 7.96997 10.0241C7.96658 10.0257 7.96363 10.0282 7.96136 10.0312H7.86368C7.74305 9.97551 7.60923 9.97233 7.48274 9.93859C6.64368 9.71514 5.93601 8.92008 5.80976 8.06489C5.69474 7.28744 5.89303 6.60485 6.43661 6.0401C6.99654 5.45848 7.6925 5.2184 8.49272 5.3426C9.33104 5.47266 9.92688 5.94353 10.2912 6.70704C10.3878 6.91649 10.4514 7.13966 10.4797 7.36861C10.4819 7.38597 10.4731 7.40919 10.5 7.4175L10.499 7.51408ZM9.7176 7.6725C9.71931 6.80655 9.01359 6.09633 8.14572 6.08997C7.72666 6.08828 7.32399 6.25282 7.0258 6.54761C6.7276 6.84239 6.55817 7.24342 6.55455 7.66296C6.54967 8.53209 7.26003 9.24744 8.13132 9.25062C8.55039 9.25095 8.95255 9.08511 9.24982 8.78937C9.54709 8.49363 9.71528 8.09206 9.7176 7.6725V7.6725ZM7.74573 7.26446C7.74573 7.40112 7.7428 7.53779 7.74573 7.67421C7.75159 7.88104 7.90055 8.04704 8.10226 8.05633C8.31348 8.06587 8.52569 8.06562 8.73716 8.05633C8.92739 8.04778 9.07561 7.8896 9.09075 7.70159C9.09794 7.60994 9.07244 7.5187 9.01879 7.44409C8.96514 7.36947 8.88681 7.31631 8.79772 7.29404C8.72715 7.27448 8.6556 7.27962 8.58454 7.28133C8.53717 7.28133 8.52349 7.26813 8.52496 7.22143C8.52813 7.11093 8.52715 7.0014 8.52496 6.88967C8.52154 6.65204 8.35524 6.47943 8.13254 6.48065C7.90983 6.48188 7.74695 6.65448 7.74427 6.89407C7.7428 7.01753 7.74427 7.14124 7.74427 7.2647L7.74573 7.26446Z" fill="#EF4026"/>
</svg>
