<svg width="13" height="12" viewBox="0 0 13 12" fill="none" xmlns="http://www.w3.org/2000/svg">
<path d="M6.78711 0C3.46911 0 0.787109 2.682 0.787109 6C0.787109 9.318 3.46911 12 6.78711 12C10.1051 12 12.7871 9.318 12.7871 6C12.7871 2.682 10.1051 0 6.78711 0ZM9.36711 8.58C9.13311 8.814 8.75511 8.814 8.52111 8.58L6.78711 6.846L5.05311 8.58C4.81911 8.814 4.44111 8.814 4.20711 8.58C3.97311 8.346 3.97311 7.968 4.20711 7.734L5.94111 6L4.20711 4.266C3.97311 4.032 3.97311 3.654 4.20711 3.42C4.44111 3.186 4.81911 3.186 5.05311 3.42L6.78711 5.154L8.52111 3.42C8.75511 3.186 9.13311 3.186 9.36711 3.42C9.60111 3.654 9.60111 4.032 9.36711 4.266L7.63311 6L9.36711 7.734C9.59511 7.962 9.59511 8.346 9.36711 8.58Z" fill="#C5C1C1"/>
</svg>
