<svg width="24" height="24" viewBox="0 0 24 24" fill="none" xmlns="http://www.w3.org/2000/svg">
<path d="M12 23.5C18.3513 23.5 23.5 18.3513 23.5 12C23.5 5.64873 18.3513 0.5 12 0.5C5.64873 0.5 0.5 5.64873 0.5 12C0.5 18.3513 5.64873 23.5 12 23.5Z" fill="white" stroke="#DFE1E6"/>
<path d="M8.17249 16.9994C7.86164 16.999 7.56356 16.8754 7.34376 16.6556C7.12396 16.4358 7.00033 16.1378 7 15.8269V8.95237C7.00033 8.64158 7.12402 8.34363 7.34384 8.12393C7.56365 7.90423 7.8617 7.78074 8.17249 7.78057H8.64121V7H9.42241V7.7812H14.5789V7H15.3608V7.7812H15.8295C16.1402 7.78153 16.438 7.9051 16.6577 8.12479C16.8774 8.34447 17.0009 8.64232 17.0013 8.953V15.8276C17.0009 16.1383 16.8774 16.4362 16.6577 16.656C16.4381 16.8758 16.1402 16.9995 15.8295 17L8.17249 16.9994ZM7.78189 15.8269C7.78189 15.9306 7.82301 16.03 7.89624 16.1034C7.96948 16.1767 8.06884 16.218 8.17249 16.2182H15.8295C15.9331 16.2178 16.0323 16.1765 16.1055 16.1032C16.1787 16.0299 16.2199 15.9305 16.2201 15.8269V10.6716H7.78311L7.78189 15.8269ZM7.78189 8.95237V9.88981H16.2189V8.95237C16.2187 8.84883 16.1775 8.74957 16.1043 8.67636C16.0311 8.60314 15.9318 8.56194 15.8283 8.56177H15.3595V9.34297H14.5776V8.5624H9.42111V9.3436H8.63991V8.5624H8.17119C8.06776 8.56273 7.96864 8.60402 7.89556 8.67722C7.82248 8.75041 7.78137 8.84957 7.7812 8.953L7.78189 8.95237ZM13.1722 15.3988V14.6176H13.9534V15.3988H13.1722ZM11.6098 15.3988V14.6176H12.3903V15.3988H11.6098ZM10.0474 15.3988V14.6176H10.8286V15.3988H10.0474ZM8.48497 15.3988V14.6176H9.26617V15.3988H8.48497ZM14.7346 13.8364V13.0559H15.5158V13.8364H14.7346ZM13.1722 13.8364V13.0559H13.9534V13.8364H13.1722ZM11.6098 13.8364V13.0559H12.3903V13.8364H11.6098ZM10.0474 13.8364V13.0559H10.8286V13.8364H10.0474ZM8.48497 13.8364V13.0559H9.26617V13.8364H8.48497ZM14.7346 12.274V11.4928H15.5158V12.274H14.7346ZM13.1722 12.274V11.4928H13.9534V12.274H13.1722ZM11.6098 12.274V11.4928H12.3903V12.274H11.6098ZM10.0474 12.274V11.4928H10.8286V12.274H10.0474ZM8.48497 12.274V11.4928H9.26617V12.274H8.48497Z" fill="#818181"/>
</svg>
