<svg width="10" height="10" viewBox="0 0 10 10" fill="none" xmlns="http://www.w3.org/2000/svg">
<path d="M5 0C2.23889 0 0 2.23889 0 5C0 7.76111 2.23889 10 5 10C5.46111 10 5.83333 9.62778 5.83333 9.16667C5.83333 8.95 5.75 8.75556 5.61667 8.60556C5.48889 8.46111 5.40556 8.26667 5.40556 8.05556C5.40556 7.59444 5.77778 7.22222 6.23889 7.22222H7.22222C8.75556 7.22222 10 5.97778 10 4.44444C10 1.98889 7.76111 0 5 0ZM1.94444 5C1.48333 5 1.11111 4.62778 1.11111 4.16667C1.11111 3.70556 1.48333 3.33333 1.94444 3.33333C2.40556 3.33333 2.77778 3.70556 2.77778 4.16667C2.77778 4.62778 2.40556 5 1.94444 5ZM3.61111 2.77778C3.15 2.77778 2.77778 2.40556 2.77778 1.94444C2.77778 1.48333 3.15 1.11111 3.61111 1.11111C4.07222 1.11111 4.44444 1.48333 4.44444 1.94444C4.44444 2.40556 4.07222 2.77778 3.61111 2.77778ZM6.38889 2.77778C5.92778 2.77778 5.55556 2.40556 5.55556 1.94444C5.55556 1.48333 5.92778 1.11111 6.38889 1.11111C6.85 1.11111 7.22222 1.48333 7.22222 1.94444C7.22222 2.40556 6.85 2.77778 6.38889 2.77778ZM8.05556 5C7.59444 5 7.22222 4.62778 7.22222 4.16667C7.22222 3.70556 7.59444 3.33333 8.05556 3.33333C8.51667 3.33333 8.88889 3.70556 8.88889 4.16667C8.88889 4.62778 8.51667 5 8.05556 5Z" fill="#818181"/>
</svg>
