<svg width="19" height="14" viewBox="0 0 19 14" fill="none" xmlns="http://www.w3.org/2000/svg">
<path d="M16.5236 4.46586C16.6226 4.91136 16.68 5.36923 16.68 5.83948C16.68 9.47098 13.5975 12.4984 9.53847 13.1486C10.3968 13.4951 11.3587 13.6976 12.3836 13.6976C13.35 13.6976 14.2623 13.5199 15.0858 13.2105C16.1287 13.566 17.2672 13.6582 18.2088 13.6582C17.7836 13.1483 17.4235 12.5875 17.1367 11.9887C18.1807 11.0572 18.8242 9.82311 18.8242 8.46411C18.8242 6.85761 17.9276 5.42548 16.5236 4.46586ZM14.9925 5.83948C14.9925 2.66136 11.8211 0.0839844 7.90834 0.0839844C3.99559 0.0839844 0.824219 2.66136 0.824219 5.83948C0.824219 7.49773 1.69159 8.98723 3.07309 10.038C2.72664 10.9254 2.23841 11.7506 1.62747 12.4815C3.04272 12.4815 4.86522 12.2959 6.26809 11.4341C6.79572 11.5365 7.34359 11.5961 7.90834 11.5961C11.8211 11.595 14.9925 9.01873 14.9925 5.83948Z" fill="#2F3990"/>
</svg>
