<svg width="24" height="18" viewBox="0 0 24 18" fill="none" xmlns="http://www.w3.org/2000/svg">
<path d="M20.4268 5.97186C20.5505 6.52818 20.6221 7.09995 20.6221 7.68718C20.6221 12.222 16.7728 16.0024 11.7042 16.8144C12.7761 17.2471 13.9772 17.5 15.257 17.5C16.4638 17.5 17.6031 17.278 18.6315 16.8917C19.9337 17.3356 21.3554 17.4508 22.5313 17.4508C22.0003 16.8141 21.5506 16.1138 21.1925 15.366C22.4962 14.2028 23.2997 12.6617 23.2997 10.9647C23.2997 8.95856 22.1801 7.17019 20.4268 5.97186ZM18.5149 7.68718C18.5149 3.71849 14.5546 0.5 9.66856 0.5C4.78252 0.5 0.822266 3.71849 0.822266 7.68718C0.822266 9.75791 1.9054 11.6179 3.63055 12.93C3.19791 14.0381 2.58824 15.0687 1.82532 15.9814C3.59262 15.9814 5.86846 15.7496 7.6203 14.6735C8.27917 14.8013 8.96333 14.8758 9.66856 14.8758C14.5546 14.8743 18.5149 11.6573 18.5149 7.68718Z" fill="#818181"/>
</svg>
