<svg width="18" height="14" viewBox="0 0 18 14" fill="none" xmlns="http://www.w3.org/2000/svg">
<path d="M15.6994 4.54789C15.7984 4.99339 15.8558 5.45127 15.8558 5.92152C15.8558 9.55302 12.7732 12.5804 8.71425 13.2306C9.57263 13.5771 10.5345 13.7796 11.5594 13.7796C12.5257 13.7796 13.4381 13.6019 14.2616 13.2925C15.3045 13.648 16.443 13.7403 17.3846 13.7403C16.9594 13.2304 16.5993 12.6696 16.3125 12.0708C17.3565 11.1393 18 9.90514 18 8.54614C18 6.93964 17.1034 5.50752 15.6994 4.54789ZM14.1683 5.92152C14.1683 2.74339 10.9969 0.166016 7.08413 0.166016C3.17138 0.166016 0 2.74339 0 5.92152C0 7.57977 0.867375 9.06927 2.24887 10.12C1.90242 11.0074 1.41419 11.8326 0.80325 12.5635C2.2185 12.5635 4.041 12.3779 5.44388 11.5161C5.9715 11.6185 6.51937 11.6781 7.08413 11.6781C10.9969 11.677 14.1683 9.10077 14.1683 5.92152Z" fill="#ADADAD"/>
</svg>
