<svg width="19" height="15" viewBox="0 0 19 15" fill="none" xmlns="http://www.w3.org/2000/svg">
<path id="Chat" d="M16.5716 4.82811C16.6761 5.31898 16.7366 5.82349 16.7366 6.34163C16.7366 10.3429 13.4829 13.6786 9.19837 14.3951C10.1044 14.7769 11.1197 15 12.2016 15C13.2216 15 14.1847 14.8041 15.0539 14.4633C16.1548 14.855 17.3565 14.9566 18.3504 14.9566C17.9016 14.3948 17.5215 13.7769 17.2188 13.1171C18.3207 12.0907 19 10.7309 19 9.23354C19 7.46343 18.0536 5.88546 16.5716 4.82811ZM14.9554 6.34163C14.9554 2.83985 11.6078 0 7.47769 0C3.34756 0 0 2.83985 0 6.34163C0 8.16875 0.915562 9.80993 2.37381 10.9677C2.00811 11.9454 1.49276 12.8547 0.847875 13.66C2.34175 13.66 4.2655 13.4555 5.74631 12.506C6.30325 12.6188 6.88156 12.6845 7.47769 12.6845C11.6078 12.6832 14.9554 9.84464 14.9554 6.34163Z" fill="#2F3990"/>
</svg>
