<svg width="17" height="16" viewBox="0 0 17 16" fill="none" xmlns="http://www.w3.org/2000/svg">
<path d="M14.4984 3.55848L7.22664 10.8302C6.94304 11.1138 6.48493 11.1138 6.20133 10.8302L4.14343 8.77231C3.85984 8.48871 3.85984 8.03059 4.14343 7.74699C4.42703 7.4634 4.88515 7.4634 5.16874 7.74699L6.71035 9.2886L13.4658 2.53317C13.7494 2.24957 14.2075 2.24957 14.4911 2.53317C14.782 2.81677 14.782 3.27489 14.4984 3.55848ZM7.74293 13.8189C4.31795 13.8189 1.57652 10.8447 1.96192 7.34705C2.24551 4.7874 4.23069 2.68588 6.76852 2.26412C8.0847 2.04597 9.33544 2.27866 10.3971 2.83131C10.6807 2.97675 11.0225 2.92584 11.2479 2.70042C11.5969 2.35138 11.5097 1.76237 11.0734 1.53695C10.0044 0.991567 8.79733 0.693426 7.51024 0.729785C3.77257 0.846132 0.66755 3.88571 0.478486 7.6161C0.267606 11.8119 3.59805 15.2732 7.74293 15.2732C8.61554 15.2732 9.44452 15.1205 10.2226 14.8369C10.7171 14.6551 10.8552 14.0152 10.4771 13.6371C10.2808 13.4407 9.98262 13.368 9.72084 13.4698C9.10275 13.6953 8.43375 13.8189 7.74293 13.8189ZM12.8331 10.183H11.3788C10.9788 10.183 10.6516 10.5102 10.6516 10.9102C10.6516 11.3101 10.9788 11.6374 11.3788 11.6374H12.8331V13.0917C12.8331 13.4917 13.1604 13.8189 13.5603 13.8189C13.9603 13.8189 14.2875 13.4917 14.2875 13.0917V11.6374H15.7418C16.1418 11.6374 16.469 11.3101 16.469 10.9102C16.469 10.5102 16.1418 10.183 15.7418 10.183H14.2875V8.72867C14.2875 8.32873 13.9603 8.0015 13.5603 8.0015C13.1604 8.0015 12.8331 8.32873 12.8331 8.72867V10.183Z" fill="#3845B3"/>
</svg>
