<svg width="20" height="18" viewBox="0 0 20 18" fill="none" xmlns="http://www.w3.org/2000/svg">
<path d="M17.218 3.8093L8.71974 12.3076C8.38831 12.639 7.85292 12.639 7.52149 12.3076L5.11648 9.90256C4.78505 9.57112 4.78505 9.03573 5.11648 8.7043C5.44791 8.37287 5.9833 8.37287 6.31474 8.7043L8.11637 10.5059L16.0113 2.61105C16.3427 2.27962 16.8781 2.27962 17.2095 2.61105C17.5494 2.94248 17.5494 3.47787 17.218 3.8093ZM9.32312 15.8003C5.32044 15.8003 2.1166 12.3246 2.567 8.2369C2.89844 5.24551 5.21846 2.78951 8.18435 2.29661C9.72254 2.04167 11.1842 2.31361 12.425 2.95948C12.7564 3.12944 13.1558 3.06996 13.4193 2.80651C13.8272 2.39859 13.7252 1.71023 13.2153 1.44679C11.9661 0.809418 10.5554 0.460989 9.05118 0.503481C4.68307 0.639453 1.05431 4.19173 0.833358 8.55133C0.586908 13.4548 4.47911 17.5 9.32312 17.5C10.3429 17.5 11.3117 17.3215 12.221 16.9901C12.7989 16.7776 12.9604 16.0298 12.5185 15.5879C12.289 15.3584 11.9406 15.2735 11.6346 15.3924C10.9123 15.6559 10.1305 15.8003 9.32312 15.8003ZM15.2719 11.5512H13.5723C13.1048 11.5512 12.7224 11.9336 12.7224 12.401C12.7224 12.8684 13.1048 13.2509 13.5723 13.2509H15.2719V14.9505C15.2719 15.4179 15.6543 15.8003 16.1217 15.8003C16.5891 15.8003 16.9716 15.4179 16.9716 14.9505V13.2509H18.6712C19.1386 13.2509 19.521 12.8684 19.521 12.401C19.521 11.9336 19.1386 11.5512 18.6712 11.5512H16.9716V9.85157C16.9716 9.38416 16.5891 9.00174 16.1217 9.00174C15.6543 9.00174 15.2719 9.38416 15.2719 9.85157V11.5512Z" fill="#818181"/>
</svg>
