<svg width="24" height="24" viewBox="0 0 24 24" fill="none" xmlns="http://www.w3.org/2000/svg">
<path d="M12 23.5C18.3513 23.5 23.5 18.3513 23.5 12C23.5 5.64873 18.3513 0.5 12 0.5C5.64873 0.5 0.5 5.64873 0.5 12C0.5 18.3513 5.64873 23.5 12 23.5Z" fill="white" stroke="#DFE1E6"/>
<path d="M16.522 9.12376L11.0682 14.5775C10.8555 14.7902 10.5119 14.7902 10.2993 14.5775L8.75583 13.0341C8.54313 12.8214 8.54313 12.4778 8.75583 12.2651C8.96853 12.0524 9.31211 12.0524 9.52481 12.2651L10.681 13.4213L15.7476 8.35477C15.9603 8.14208 16.3039 8.14208 16.5166 8.35477C16.7347 8.56747 16.7347 8.91106 16.522 9.12376ZM11.4555 16.8191C8.88672 16.8191 6.83064 14.5885 7.11969 11.9652C7.33239 10.0454 8.82127 8.4693 10.7246 8.15298C11.7118 7.98937 12.6498 8.16389 13.4461 8.57838C13.6588 8.68745 13.9151 8.64928 14.0842 8.48021C14.346 8.21843 14.2805 7.77667 13.9533 7.6076C13.1516 7.19857 12.2463 6.97496 11.2809 7.00223C8.47769 7.08949 6.14892 9.36918 6.00712 12.167C5.84896 15.3138 8.34679 17.9098 11.4555 17.9098C12.1099 17.9098 12.7316 17.7953 13.3152 17.5826C13.6861 17.4462 13.7897 16.9663 13.5061 16.6827C13.3588 16.5355 13.1352 16.4809 12.9389 16.5573C12.4753 16.7263 11.9736 16.8191 11.4555 16.8191ZM15.2731 14.0922H14.1823C13.8824 14.0922 13.637 14.3376 13.637 14.6375C13.637 14.9375 13.8824 15.1829 14.1823 15.1829H15.2731V16.2737C15.2731 16.5736 15.5185 16.8191 15.8185 16.8191C16.1184 16.8191 16.3639 16.5736 16.3639 16.2737V15.1829H17.4546C17.7546 15.1829 18 14.9375 18 14.6375C18 14.3376 17.7546 14.0922 17.4546 14.0922H16.3639V13.0014C16.3639 12.7014 16.1184 12.456 15.8185 12.456C15.5185 12.456 15.2731 12.7014 15.2731 13.0014V14.0922Z" fill="#818181"/>
</svg>
