<svg width="14" height="13" viewBox="0 0 14 13" fill="none" xmlns="http://www.w3.org/2000/svg">
<path d="M8.021 6.49218L12.7112 1.77212C12.7814 1.70267 12.8373 1.61997 12.8753 1.52882C12.9134 1.43767 12.9329 1.33989 12.9329 1.24112C12.9329 1.14235 12.9134 1.04455 12.8753 0.953405C12.8373 0.862257 12.7814 0.779567 12.7112 0.710112C12.5712 0.570557 12.3816 0.492188 12.1839 0.492188C11.9862 0.492188 11.7966 0.570557 11.6566 0.710112L6.96656 5.43017L2.27635 0.710112C2.13635 0.570557 1.9467 0.492188 1.74903 0.492188C1.55136 0.492188 1.36171 0.570557 1.22172 0.710112C1.15149 0.779567 1.09567 0.862257 1.05762 0.953405C1.01957 1.04455 1 1.14235 1 1.24112C1 1.33989 1.01957 1.43767 1.05762 1.52882C1.09567 1.61997 1.15149 1.70267 1.22172 1.77212L5.91193 6.49218L1.22172 11.2123C1.15149 11.2817 1.09567 11.3644 1.05762 11.4555C1.01957 11.5467 1 11.6445 1 11.7433C1 11.842 1.01957 11.9398 1.05762 12.031C1.09567 12.1221 1.15149 12.2048 1.22172 12.2743C1.36171 12.4138 1.55136 12.4922 1.74903 12.4922C1.9467 12.4922 2.13635 12.4138 2.27635 12.2743L6.96656 7.55421L11.6566 12.2743C11.7966 12.4138 11.9862 12.4922 12.1839 12.4922C12.3816 12.4922 12.5712 12.4138 12.7112 12.2743C12.7814 12.2048 12.8373 12.1221 12.8753 12.031C12.9134 11.9398 12.9329 11.842 12.9329 11.7433C12.9329 11.6445 12.9134 11.5467 12.8753 11.4555C12.8373 11.3644 12.7814 11.2817 12.7112 11.2123L8.021 6.49218Z" fill="#818181" stroke="#818181" stroke-width="0.5"/>
</svg>
