<svg width="12" height="12" viewBox="0 0 12 12" fill="none" xmlns="http://www.w3.org/2000/svg">
<path d="M10.522 3.04173L5.06824 8.49552C4.85554 8.70821 4.51195 8.70821 4.29925 8.49552L2.75583 6.95209C2.54313 6.7394 2.54313 6.39581 2.75583 6.18311C2.96853 5.97041 3.31211 5.97041 3.52481 6.18311L4.68102 7.33931L9.74759 2.27274C9.96028 2.06004 10.3039 2.06004 10.5166 2.27274C10.7347 2.48544 10.7347 2.82903 10.522 3.04173ZM5.45545 10.737C2.88672 10.737 0.830641 8.50642 1.11969 5.88315C1.33239 3.96342 2.82127 2.38727 4.72465 2.07095C5.71178 1.90734 6.64983 2.08186 7.44609 2.49635C7.65878 2.60542 7.91511 2.56725 8.08418 2.39818C8.34596 2.1364 8.28052 1.69464 7.95329 1.52557C7.15158 1.11654 6.24625 0.892933 5.28093 0.920202C2.47769 1.00746 0.148917 3.28715 0.00711854 6.08494C-0.151041 9.23178 2.34679 11.8278 5.45545 11.8278C6.10991 11.8278 6.73164 11.7133 7.3152 11.5006C7.68605 11.3642 7.78968 10.8843 7.50608 10.6007C7.35883 10.4534 7.13522 10.3989 6.93888 10.4752C6.47531 10.6443 5.97356 10.737 5.45545 10.737ZM9.27311 8.01013H8.18235C7.88239 8.01013 7.63697 8.25555 7.63697 8.55551C7.63697 8.85547 7.88239 9.10089 8.18235 9.10089H9.27311V10.1916C9.27311 10.4916 9.51853 10.737 9.81848 10.737C10.1184 10.737 10.3639 10.4916 10.3639 10.1916V9.10089H11.4546C11.7546 9.10089 12 8.85547 12 8.55551C12 8.25555 11.7546 8.01013 11.4546 8.01013H10.3639V6.91937C10.3639 6.61941 10.1184 6.37399 9.81848 6.37399C9.51853 6.37399 9.27311 6.61941 9.27311 6.91937V8.01013Z" fill="#818181"/>
</svg>
