<svg width="12" height="12" viewBox="0 0 12 12" fill="none" xmlns="http://www.w3.org/2000/svg">
<path d="M10.522 2.67454L5.06823 8.12833C4.85554 8.34103 4.51195 8.34103 4.29925 8.12833L2.75583 6.58491C2.54313 6.37221 2.54313 6.02862 2.75583 5.81592C2.96853 5.60322 3.31211 5.60322 3.52481 5.81592L4.68102 6.97212L9.74759 1.90555C9.96028 1.69286 10.3039 1.69286 10.5166 1.90555C10.7347 2.11825 10.7347 2.46184 10.522 2.67454ZM5.45545 10.3698C2.88672 10.3698 0.830641 8.13924 1.11969 5.51596C1.33239 3.59623 2.82127 2.02008 4.72465 1.70376C5.71178 1.54015 6.64983 1.71467 7.44609 2.12916C7.65878 2.23824 7.91511 2.20006 8.08418 2.03099C8.34596 1.76921 8.28052 1.32745 7.95329 1.15839C7.15158 0.749351 6.24625 0.525746 5.28093 0.553015C2.47769 0.640276 0.148917 2.91996 0.00711854 5.71775C-0.151041 8.86459 2.34679 11.4606 5.45545 11.4606C6.10991 11.4606 6.73164 11.3461 7.3152 11.1334C7.68605 10.997 7.78968 10.5171 7.50608 10.2335C7.35883 10.0862 7.13522 10.0317 6.93888 10.1081C6.47531 10.2771 5.97356 10.3698 5.45545 10.3698ZM9.27311 7.64294H8.18235C7.88239 7.64294 7.63697 7.88836 7.63697 8.18832C7.63697 8.48828 7.88239 8.7337 8.18235 8.7337H9.27311V9.82446C9.27311 10.1244 9.51853 10.3698 9.81848 10.3698C10.1184 10.3698 10.3639 10.1244 10.3639 9.82446V8.7337H11.4546C11.7546 8.7337 12 8.48828 12 8.18832C12 7.88836 11.7546 7.64294 11.4546 7.64294H10.3639V6.55218C10.3639 6.25222 10.1184 6.0068 9.81848 6.0068C9.51853 6.0068 9.27311 6.25222 9.27311 6.55218V7.64294Z" fill="#3845B3"/>
</svg>
