<svg width="16" height="16" viewBox="0 0 16 16" fill="none" xmlns="http://www.w3.org/2000/svg">
<path d="M12.3991 0H3.6009C1.61218 0 0 1.61218 0 3.6009V12.3991C0 14.3878 1.61218 16 3.6009 16H12.3991C14.3878 16 16 14.3878 16 12.3991V3.6009C16 1.61218 14.3878 0 12.3991 0Z" fill="#1CB303"/>
<path d="M12.5642 5.2861C12.5074 5.45576 12.4064 5.60723 12.2716 5.72496C9.83277 8.16724 9.85334 8.14666 7.41791 10.5901C7.31473 10.7117 7.17329 10.7948 7.01677 10.8255C6.91174 10.841 6.80453 10.83 6.70477 10.7937C6.60502 10.7574 6.51586 10.6969 6.44534 10.6175C5.4042 9.56954 5.22248 9.38897 4.17906 8.34211C3.98706 8.15011 3.79277 7.95924 3.60763 7.76381C3.5268 7.68301 3.47024 7.58118 3.44435 7.46987C3.41847 7.35855 3.42431 7.2422 3.46119 7.13403C3.49808 7.02586 3.56455 6.93022 3.65305 6.85791C3.74156 6.7856 3.84856 6.73953 3.96191 6.72496C4.05674 6.71117 4.15349 6.72059 4.24387 6.75244C4.33425 6.78429 4.41554 6.83762 4.48077 6.90782C4.66248 7.08725 4.84305 7.26897 5.02362 7.45068L6.81791 9.25066C6.8471 9.28642 6.8731 9.32467 6.89563 9.36496L6.95505 9.37981C6.97763 9.33218 7.00563 9.28731 7.03848 9.24609L11.4682 4.8004C11.5313 4.72621 11.6103 4.66714 11.6993 4.62758C11.7883 4.58802 11.8851 4.56896 11.9825 4.57181C12.1055 4.57535 12.2244 4.61676 12.323 4.69039C12.4216 4.76403 12.495 4.86632 12.5333 4.98326C12.5448 5.01297 12.5562 5.04381 12.5676 5.07352L12.5642 5.2861Z" fill="white"/>
</svg>
