<svg width="30" height="30" viewBox="0 0 30 30" fill="none" xmlns="http://www.w3.org/2000/svg">
<rect width="30" height="30" rx="4" fill="#DFE1E6"/>
<path d="M15.8837 15L19.8142 11.0666C19.873 11.0087 19.9198 10.9398 19.9517 10.8639C19.9836 10.7879 20 10.7064 20 10.6241C20 10.5418 19.9836 10.4603 19.9517 10.3843C19.9198 10.3084 19.873 10.2395 19.8142 10.1816C19.6969 10.0653 19.5379 10 19.3723 10C19.2066 10 19.0477 10.0653 18.9304 10.1816L15.0001 14.115L11.0696 10.1816C10.9523 10.0653 10.7934 10 10.6277 10C10.4621 10 10.3031 10.0653 10.1858 10.1816C10.127 10.2395 10.0802 10.3084 10.0483 10.3843C10.0164 10.4603 10 10.5418 10 10.6241C10 10.7064 10.0164 10.7879 10.0483 10.8639C10.0802 10.9398 10.127 11.0087 10.1858 11.0666L14.1163 15L10.1858 18.9334C10.127 18.9913 10.0802 19.0602 10.0483 19.1361C10.0164 19.2121 10 19.2936 10 19.3759C10 19.4582 10.0164 19.5397 10.0483 19.6157C10.0802 19.6916 10.127 19.7605 10.1858 19.8184C10.3031 19.9347 10.4621 20 10.6277 20C10.7934 20 10.9523 19.9347 11.0696 19.8184L15.0001 15.885L18.9304 19.8184C19.0477 19.9347 19.2066 20 19.3723 20C19.5379 20 19.6969 19.9347 19.8142 19.8184C19.873 19.7605 19.9198 19.6916 19.9517 19.6157C19.9836 19.5397 20 19.4582 20 19.3759C20 19.2936 19.9836 19.2121 19.9517 19.1361C19.9198 19.0602 19.873 18.9913 19.8142 18.9334L15.8837 15Z" fill="black" stroke="black" stroke-width="0.5"/>
</svg>
