<svg width="17" height="17" viewBox="0 0 17 17" fill="none" xmlns="http://www.w3.org/2000/svg">
<path d="M8.5 17C13.1944 17 17 13.1944 17 8.5C17 3.80558 13.1944 0 8.5 0C3.80558 0 0 3.80558 0 8.5C0 13.1944 3.80558 17 8.5 17Z" fill="#D7D7D7"/>
<path d="M9.69257 8.9915L12.8326 5.8315C12.8796 5.785 12.9169 5.72965 12.9424 5.66862C12.9679 5.6076 12.981 5.54212 12.981 5.476C12.981 5.40987 12.9679 5.34441 12.9424 5.28339C12.9169 5.22236 12.8796 5.167 12.8326 5.1205C12.7389 5.02707 12.6119 4.97461 12.4796 4.97461C12.3472 4.97461 12.2203 5.02707 12.1266 5.1205L8.98657 8.2805L5.84656 5.1205C5.75283 5.02707 5.62593 4.97461 5.49359 4.97461C5.36125 4.97461 5.23429 5.02707 5.14056 5.1205C5.09355 5.167 5.05624 5.22236 5.03076 5.28339C5.00529 5.34441 4.99219 5.40987 4.99219 5.476C4.99219 5.54212 5.00529 5.6076 5.03076 5.66862C5.05624 5.72965 5.09355 5.785 5.14056 5.8315L8.28058 8.9915L5.14056 12.1515C5.09355 12.198 5.05624 12.2534 5.03076 12.3144C5.00529 12.3754 4.99219 12.4409 4.99219 12.507C4.99219 12.5731 5.00529 12.6386 5.03076 12.6996C5.05624 12.7606 5.09355 12.816 5.14056 12.8625C5.23429 12.9559 5.36125 13.0084 5.49359 13.0084C5.62593 13.0084 5.75283 12.9559 5.84656 12.8625L8.98657 9.7025L12.1266 12.8625C12.2203 12.9559 12.3472 13.0084 12.4796 13.0084C12.6119 13.0084 12.7389 12.9559 12.8326 12.8625C12.8796 12.816 12.9169 12.7606 12.9424 12.6996C12.9679 12.6386 12.981 12.5731 12.981 12.507C12.981 12.4409 12.9679 12.3754 12.9424 12.3144C12.9169 12.2534 12.8796 12.198 12.8326 12.1515L9.69257 8.9915Z" fill="black"/>
</svg>
