<svg width="10" height="10" viewBox="0 0 10 10" fill="none" xmlns="http://www.w3.org/2000/svg">
<path d="M3.2 7.5L5 5.7L6.8 7.5L7.5 6.8L5.7 5L7.5 3.2L6.8 2.5L5 4.3L3.2 2.5L2.5 3.2L4.3 5L2.5 6.8L3.2 7.5ZM5 10C4.30833 10 3.65833 9.86867 3.05 9.606C2.44167 9.34367 1.9125 8.9875 1.4625 8.5375C1.0125 8.0875 0.656333 7.55833 0.394 6.95C0.131333 6.34167 0 5.69167 0 5C0 4.30833 0.131333 3.65833 0.394 3.05C0.656333 2.44167 1.0125 1.9125 1.4625 1.4625C1.9125 1.0125 2.44167 0.656167 3.05 0.3935C3.65833 0.131167 4.30833 0 5 0C5.69167 0 6.34167 0.131167 6.95 0.3935C7.55833 0.656167 8.0875 1.0125 8.5375 1.4625C8.9875 1.9125 9.34367 2.44167 9.606 3.05C9.86867 3.65833 10 4.30833 10 5C10 5.69167 9.86867 6.34167 9.606 6.95C9.34367 7.55833 8.9875 8.0875 8.5375 8.5375C8.0875 8.9875 7.55833 9.34367 6.95 9.606C6.34167 9.86867 5.69167 10 5 10ZM5 9C6.11667 9 7.0625 8.6125 7.8375 7.8375C8.6125 7.0625 9 6.11667 9 5C9 3.88333 8.6125 2.9375 7.8375 2.1625C7.0625 1.3875 6.11667 1 5 1C3.88333 1 2.9375 1.3875 2.1625 2.1625C1.3875 2.9375 1 3.88333 1 5C1 6.11667 1.3875 7.0625 2.1625 7.8375C2.9375 8.6125 3.88333 9 5 9Z" fill="#818181"/>
</svg>
