<svg width="10" height="10" viewBox="0 0 10 10" fill="none" xmlns="http://www.w3.org/2000/svg">
<path d="M5.68067 5L8.80748 1.85329C8.85429 1.80699 8.89151 1.75185 8.91688 1.69109C8.94224 1.63032 8.95529 1.56513 8.95529 1.49929C8.95529 1.43344 8.94224 1.36824 8.91688 1.30748C8.89151 1.24671 8.85429 1.19159 8.80748 1.14528C8.71415 1.05225 8.58771 1 8.45593 1C8.32415 1 8.19772 1.05225 8.10439 1.14528L4.97771 4.29199L1.8509 1.14528C1.75757 1.05225 1.63114 1 1.49936 1C1.36757 1 1.24114 1.05225 1.14781 1.14528C1.101 1.19159 1.06378 1.24671 1.03841 1.30748C1.01305 1.36824 1 1.43344 1 1.49929C1 1.56513 1.01305 1.63032 1.03841 1.69109C1.06378 1.75185 1.101 1.80699 1.14781 1.85329L4.27462 5L1.14781 8.14671C1.101 8.19301 1.06378 8.24814 1.03841 8.3089C1.01305 8.36967 1 8.43487 1 8.50071C1 8.56656 1.01305 8.63176 1.03841 8.69252C1.06378 8.75329 1.101 8.80841 1.14781 8.85472C1.24114 8.94775 1.36757 9 1.49936 9C1.63114 9 1.75757 8.94775 1.8509 8.85472L4.97771 5.70801L8.10439 8.85472C8.19772 8.94775 8.32415 9 8.45593 9C8.58771 9 8.71415 8.94775 8.80748 8.85472C8.85429 8.80841 8.89151 8.75329 8.91688 8.69252C8.94224 8.63176 8.95529 8.56656 8.95529 8.50071C8.95529 8.43487 8.94224 8.36967 8.91688 8.3089C8.89151 8.24814 8.85429 8.19301 8.80748 8.14671L5.68067 5Z" fill="#818181" stroke="#818181" stroke-width="0.5"/>
</svg>
