<svg width="12" height="12" viewBox="0 0 12 12" fill="none" xmlns="http://www.w3.org/2000/svg">
<path d="M6.85084 6L10.7593 2.06661C10.8179 2.00873 10.8644 1.93982 10.8961 1.86386C10.9278 1.7879 10.9441 1.70642 10.9441 1.62411C10.9441 1.5418 10.9278 1.4603 10.8961 1.38435C10.8644 1.30839 10.8179 1.23948 10.7593 1.1816C10.6427 1.06531 10.4846 1 10.3199 1C10.1552 1 9.99715 1.06531 9.88049 1.1816L5.97213 5.11498L2.06362 1.1816C1.94696 1.06531 1.78892 1 1.62419 1C1.45947 1 1.30143 1.06531 1.18477 1.1816C1.12624 1.23948 1.07972 1.30839 1.04801 1.38435C1.01631 1.4603 1 1.5418 1 1.62411C1 1.70642 1.01631 1.7879 1.04801 1.86386C1.07972 1.93982 1.12624 2.00873 1.18477 2.06661L5.09328 6L1.18477 9.93339C1.12624 9.99127 1.07972 10.0602 1.04801 10.1361C1.01631 10.2121 1 10.2936 1 10.3759C1 10.4582 1.01631 10.5397 1.04801 10.6157C1.07972 10.6916 1.12624 10.7605 1.18477 10.8184C1.30143 10.9347 1.45947 11 1.62419 11C1.78892 11 1.94696 10.9347 2.06362 10.8184L5.97213 6.88501L9.88049 10.8184C9.99715 10.9347 10.1552 11 10.3199 11C10.4846 11 10.6427 10.9347 10.7593 10.8184C10.8179 10.7605 10.8644 10.6916 10.8961 10.6157C10.9278 10.5397 10.9441 10.4582 10.9441 10.3759C10.9441 10.2936 10.9278 10.2121 10.8961 10.1361C10.8644 10.0602 10.8179 9.99127 10.7593 9.93339L6.85084 6Z" fill="#818181" stroke="#818181" stroke-width="0.5"/>
</svg>
