<svg width="14" height="14" viewBox="0 0 14 14" fill="none" xmlns="http://www.w3.org/2000/svg">
<path d="M8.021 6.99999L12.7112 2.27994C12.7814 2.21048 12.8373 2.12778 12.8753 2.03663C12.9134 1.94549 12.9329 1.8477 12.9329 1.74893C12.9329 1.65016 12.9134 1.55237 12.8753 1.46122C12.8373 1.37007 12.7814 1.28738 12.7112 1.21792C12.5712 1.07837 12.3816 1 12.1839 1C11.9862 1 11.7966 1.07837 11.6566 1.21792L6.96656 5.93798L2.27635 1.21792C2.13635 1.07837 1.9467 1 1.74903 1C1.55136 1 1.36171 1.07837 1.22172 1.21792C1.15149 1.28738 1.09567 1.37007 1.05762 1.46122C1.01957 1.55237 1 1.65016 1 1.74893C1 1.8477 1.01957 1.94549 1.05762 2.03663C1.09567 2.12778 1.15149 2.21048 1.22172 2.27994L5.91193 6.99999L1.22172 11.7201C1.15149 11.7895 1.09567 11.8722 1.05762 11.9634C1.01957 12.0545 1 12.1523 1 12.2511C1 12.3498 1.01957 12.4476 1.05762 12.5388C1.09567 12.6299 1.15149 12.7126 1.22172 12.7821C1.36171 12.9216 1.55136 13 1.74903 13C1.9467 13 2.13635 12.9216 2.27635 12.7821L6.96656 8.06202L11.6566 12.7821C11.7966 12.9216 11.9862 13 12.1839 13C12.3816 13 12.5712 12.9216 12.7112 12.7821C12.7814 12.7126 12.8373 12.6299 12.8753 12.5388C12.9134 12.4476 12.9329 12.3498 12.9329 12.2511C12.9329 12.1523 12.9134 12.0545 12.8753 11.9634C12.8373 11.8722 12.7814 11.7895 12.7112 11.7201L8.021 6.99999Z" fill="#566D82" stroke="#ff0000"/>
</svg>
