<svg width="17" height="17" viewBox="0 0 17 17" fill="none" xmlns="http://www.w3.org/2000/svg">
<path d="M8.5 17C13.1944 17 17 13.1944 17 8.5C17 3.80558 13.1944 0 8.5 0C3.80558 0 0 3.80558 0 8.5C0 13.1944 3.80558 17 8.5 17Z" fill="#D7D7D7"/>
<path d="M9.69305 8.99052L12.8331 5.83052C12.8801 5.78402 12.9174 5.72867 12.9429 5.66765C12.9683 5.60663 12.9814 5.54115 12.9814 5.47502C12.9814 5.4089 12.9683 5.34343 12.9429 5.28241C12.9174 5.22139 12.8801 5.16602 12.8331 5.11952C12.7393 5.02609 12.6124 4.97363 12.48 4.97363C12.3477 4.97363 12.2208 5.02609 12.1271 5.11952L8.98706 8.27953L5.84705 5.11952C5.75332 5.02609 5.62642 4.97363 5.49408 4.97363C5.36174 4.97363 5.23478 5.02609 5.14105 5.11952C5.09404 5.16602 5.05672 5.22139 5.03125 5.28241C5.00578 5.34343 4.99268 5.4089 4.99268 5.47502C4.99268 5.54115 5.00578 5.60663 5.03125 5.66765C5.05672 5.72867 5.09404 5.78402 5.14105 5.83052L8.28107 8.99052L5.14105 12.1505C5.09404 12.197 5.05672 12.2524 5.03125 12.3134C5.00578 12.3744 4.99268 12.4399 4.99268 12.506C4.99268 12.5722 5.00578 12.6376 5.03125 12.6986C5.05672 12.7597 5.09404 12.815 5.14105 12.8615C5.23478 12.955 5.36174 13.0074 5.49408 13.0074C5.62642 13.0074 5.75332 12.955 5.84705 12.8615L8.98706 9.70152L12.1271 12.8615C12.2208 12.955 12.3477 13.0074 12.48 13.0074C12.6124 13.0074 12.7393 12.955 12.8331 12.8615C12.8801 12.815 12.9174 12.7597 12.9429 12.6986C12.9683 12.6376 12.9814 12.5722 12.9814 12.506C12.9814 12.4399 12.9683 12.3744 12.9429 12.3134C12.9174 12.2524 12.8801 12.197 12.8331 12.1505L9.69305 8.99052Z" fill="black"/>
</svg>
