<svg xmlns="http://www.w3.org/2000/svg" width="10" height="7" viewBox="0 0 10 7" fill="none">
<path d="M1.25326 3.42757L3.27676 5.45107C3.3725 5.5468 3.42037 5.66865 3.42037 5.8166C3.42037 5.96456 3.3725 6.08641 3.27676 6.18214C3.18103 6.27788 3.05918 6.32574 2.91123 6.32574C2.76327 6.32574 2.64143 6.27788 2.54569 6.18214L0.143603 3.78005C0.0913838 3.72783 0.0543951 3.67126 0.0326371 3.61034C0.010879 3.54942 0 3.48414 0 3.41452C0 3.34489 0.010879 3.27962 0.0326371 3.21869C0.0543951 3.15777 0.0913838 3.1012 0.143603 3.04898L2.54569 0.646892C2.65013 0.542454 2.77415 0.490234 2.91775 0.490234C3.06136 0.490234 3.18538 0.542454 3.28982 0.646892C3.39426 0.751331 3.44648 0.875352 3.44648 1.01895C3.44648 1.16256 3.39426 1.28658 3.28982 1.39102L1.25326 3.42757ZM8.74674 3.40146L6.72324 1.37796C6.6275 1.28223 6.57963 1.16038 6.57963 1.01243C6.57963 0.864473 6.6275 0.742628 6.72324 0.646892C6.81897 0.551157 6.94082 0.503289 7.08877 0.503289C7.23673 0.503289 7.35857 0.551157 7.45431 0.646892L9.8564 3.04898C9.90862 3.1012 9.9456 3.15777 9.96736 3.21869C9.98912 3.27962 10 3.34489 10 3.41452C10 3.48414 9.98912 3.54942 9.96736 3.61034C9.9456 3.67126 9.90862 3.72783 9.8564 3.78005L7.45431 6.18214C7.34987 6.28658 7.22802 6.33662 7.08877 6.33227C6.94952 6.32792 6.82768 6.27352 6.72324 6.16909C6.6188 6.06465 6.56658 5.94063 6.56658 5.79702C6.56658 5.65342 6.6188 5.5294 6.72324 5.42496L8.74674 3.40146Z" fill="#818181"/>
</svg>