<svg width="10" height="10" viewBox="0 0 10 10" fill="none" xmlns="http://www.w3.org/2000/svg">
<path d="M5 10C4.31667 10 3.67083 9.86867 3.0625 9.606C2.45417 9.34367 1.923 8.98533 1.469 8.531C1.01467 8.077 0.656333 7.54583 0.394 6.9375C0.131333 6.32917 0 5.68333 0 5C0 4.30833 0.135333 3.65833 0.406 3.05C0.677 2.44167 1.04383 1.9125 1.5065 1.4625C1.96883 1.0125 2.50833 0.656167 3.125 0.3935C3.74167 0.131167 4.4 0 5.1 0C5.76667 0 6.39583 0.114667 6.9875 0.344C7.57917 0.573 8.09783 0.889667 8.5435 1.294C8.9895 1.698 9.34367 2.17717 9.606 2.7315C9.86867 3.2855 10 3.88333 10 4.525C10 5.48333 9.70833 6.21867 9.125 6.731C8.54167 7.24367 7.83333 7.5 7 7.5H6.075C6 7.5 5.948 7.52083 5.919 7.5625C5.88967 7.60417 5.875 7.65 5.875 7.7C5.875 7.8 5.9375 7.94367 6.0625 8.131C6.1875 8.31867 6.25 8.53333 6.25 8.775C6.25 9.19167 6.13533 9.5 5.906 9.7C5.677 9.9 5.375 10 5 10ZM2.25 5.5C2.46667 5.5 2.64583 5.42917 2.7875 5.2875C2.92917 5.14583 3 4.96667 3 4.75C3 4.53333 2.92917 4.35417 2.7875 4.2125C2.64583 4.07083 2.46667 4 2.25 4C2.03333 4 1.85417 4.07083 1.7125 4.2125C1.57083 4.35417 1.5 4.53333 1.5 4.75C1.5 4.96667 1.57083 5.14583 1.7125 5.2875C1.85417 5.42917 2.03333 5.5 2.25 5.5ZM3.75 3.5C3.96667 3.5 4.14583 3.42917 4.2875 3.2875C4.42917 3.14583 4.5 2.96667 4.5 2.75C4.5 2.53333 4.42917 2.35417 4.2875 2.2125C4.14583 2.07083 3.96667 2 3.75 2C3.53333 2 3.35417 2.07083 3.2125 2.2125C3.07083 2.35417 3 2.53333 3 2.75C3 2.96667 3.07083 3.14583 3.2125 3.2875C3.35417 3.42917 3.53333 3.5 3.75 3.5ZM6.25 3.5C6.46667 3.5 6.64583 3.42917 6.7875 3.2875C6.92917 3.14583 7 2.96667 7 2.75C7 2.53333 6.92917 2.35417 6.7875 2.2125C6.64583 2.07083 6.46667 2 6.25 2C6.03333 2 5.85417 2.07083 5.7125 2.2125C5.57083 2.35417 5.5 2.53333 5.5 2.75C5.5 2.96667 5.57083 3.14583 5.7125 3.2875C5.85417 3.42917 6.03333 3.5 6.25 3.5ZM7.75 5.5C7.96667 5.5 8.14583 5.42917 8.2875 5.2875C8.42917 5.14583 8.5 4.96667 8.5 4.75C8.5 4.53333 8.42917 4.35417 8.2875 4.2125C8.14583 4.07083 7.96667 4 7.75 4C7.53333 4 7.35417 4.07083 7.2125 4.2125C7.07083 4.35417 7 4.53333 7 4.75C7 4.96667 7.07083 5.14583 7.2125 5.2875C7.35417 5.42917 7.53333 5.5 7.75 5.5ZM5 9C5.075 9 5.1355 8.97917 5.1815 8.9375C5.22717 8.89583 5.25 8.84167 5.25 8.775C5.25 8.65833 5.1875 8.52083 5.0625 8.3625C4.9375 8.20417 4.875 7.96667 4.875 7.65C4.875 7.3 4.99583 7.02083 5.2375 6.8125C5.47917 6.60417 5.775 6.5 6.125 6.5H7C7.55 6.5 8.02083 6.3395 8.4125 6.0185C8.80417 5.69783 9 5.2 9 4.525C9 3.51667 8.61467 2.677 7.844 2.006C7.073 1.33533 6.15833 1 5.1 1C3.96667 1 3 1.3875 2.2 2.1625C1.4 2.9375 1 3.88333 1 5C1 6.10833 1.38967 7.05217 2.169 7.8315C2.948 8.6105 3.89167 9 5 9Z" fill="#818181"/>
</svg>
