<svg width="13" height="13" viewBox="0 0 13 13" fill="none" xmlns="http://www.w3.org/2000/svg">
<path d="M10.5165 0.370525C10.9995 -0.116998 11.7859 -0.116998 12.2692 0.370525C12.5032 0.606439 12.6322 0.920458 12.6322 1.25447C12.6322 1.58848 12.5032 1.90251 12.2692 2.13801L11.5831 2.83007L9.83035 1.06249L10.5165 0.370525Z" fill="#3845B3"/>
<path d="M5.38128 5.54917C5.34658 5.58413 5.32333 5.62869 5.31335 5.67663L4.9629 7.44478C4.94651 7.52671 4.97232 7.61121 5.03073 7.6707C5.07788 7.71823 5.14132 7.74367 5.20632 7.74367C5.22216 7.74367 5.23855 7.74223 5.25493 7.73872L7.00767 7.38525C7.05619 7.37516 7.10032 7.35172 7.13456 7.31665L11.0575 3.36054L9.30475 1.59306L5.38128 5.54917Z" fill="#3845B3"/>
<path d="M10.1531 6.00466C9.87886 6.00466 9.65732 6.22873 9.65732 6.50465V10.5048C9.65732 10.7803 9.43513 11.0048 9.16148 11.0048H2.21995C1.94631 11.0048 1.72421 10.7803 1.72421 10.5048V3.50459C1.72421 3.22908 1.94631 3.0046 2.21995 3.0046H6.18655C6.46074 3.0046 6.68239 2.78054 6.68239 2.50456C6.68239 2.22854 6.46074 2.00453 6.18655 2.00453H2.21995C1.39994 2.00453 0.732544 2.67755 0.732544 3.50459V10.5048C0.732544 11.3319 1.39994 12.0049 2.21995 12.0049H9.16148C9.98158 12.0049 10.649 11.3319 10.649 10.5048V6.50465C10.649 6.22815 10.4272 6.00466 10.1531 6.00466Z" fill="#3845B3"/>
</svg>
