<svg width="14" height="13" viewBox="0 0 14 13" fill="none" xmlns="http://www.w3.org/2000/svg">
<path d="M3.46676 12.9998C3.46676 12.9998 2.6001 12.9998 2.6001 12.1331C2.6001 11.2664 3.46676 8.66643 6.93343 8.66643C10.4001 8.66643 11.2668 11.2664 11.2668 12.1331C11.2668 12.9998 10.4001 12.9998 10.4001 12.9998H3.46676ZM6.93343 7.8431C7.50807 7.8431 8.05917 7.61483 8.4655 7.2085C8.87182 6.80217 9.1001 6.25107 9.1001 5.67643C9.1001 5.1018 8.87182 4.5507 8.4655 4.14437C8.05917 3.73804 7.50807 3.50977 6.93343 3.50977C6.3588 3.50977 5.8077 3.73804 5.40137 4.14437C4.99504 4.5507 4.76676 5.1018 4.76676 5.67643C4.76676 6.25107 4.99504 6.80217 5.40137 7.2085C5.8077 7.61483 6.3588 7.8431 6.93343 7.8431Z" fill="#2F3990"/>
<path d="M1.73333 0C1.27362 0 0.832745 0.182619 0.507682 0.507682C0.182619 0.832745 0 1.27362 0 1.73333L0 9.96667C0 10.3114 0.136964 10.6421 0.380761 10.8859C0.624558 11.1297 0.955219 11.2667 1.3 11.2667H1.86593C2.04715 10.6298 2.36211 10.0389 2.7898 9.53333H0.866667V1.73333C0.866667 1.50348 0.957976 1.28304 1.12051 1.12051C1.28304 0.957976 1.50348 0.866667 1.73333 0.866667H12.1333C12.3632 0.866667 12.5836 0.957976 12.7462 1.12051C12.9087 1.28304 13 1.50348 13 1.73333V9.53333H11.0769C11.557 10.1001 11.8482 10.7233 12.0007 11.2667H12.5667C12.9114 11.2667 13.2421 11.1297 13.4859 10.8859C13.7297 10.6421 13.8667 10.3114 13.8667 9.96667V1.73333C13.8667 1.27362 13.684 0.832745 13.359 0.507682C13.0339 0.182619 12.593 0 12.1333 0H1.73333Z" fill="#2F3990"/>
</svg>
