<svg width="26" height="30" viewBox="0 0 26 30" fill="none" xmlns="http://www.w3.org/2000/svg">
<path d="M12.8788 30L8.63636 25.7576H2.72727C1.9697 25.7576 1.32576 25.4924 0.795455 24.9621C0.265152 24.4318 0 23.7879 0 23.0303V2.72727C0 1.9697 0.265152 1.32576 0.795455 0.795455C1.32576 0.265152 1.9697 0 2.72727 0H23.0303C23.7879 0 24.4318 0.265152 24.9621 0.795455C25.4924 1.32576 25.7576 1.9697 25.7576 2.72727V23.0303C25.7576 23.7879 25.4924 24.4318 24.9621 24.9621C24.4318 25.4924 23.7879 25.7576 23.0303 25.7576H17.1212L12.8788 30ZM2.72727 23.4848H9.58333L12.8788 26.7803L16.1742 23.4848H23.0303C23.1566 23.4848 23.2641 23.4409 23.353 23.353C23.4409 23.2641 23.4848 23.1566 23.4848 23.0303V2.72727C23.4848 2.60101 23.4409 2.49343 23.353 2.40455C23.2641 2.31667 23.1566 2.27273 23.0303 2.27273H2.72727C2.60101 2.27273 2.49394 2.31667 2.40606 2.40455C2.31717 2.49343 2.27273 2.60101 2.27273 2.72727V23.0303C2.27273 23.1566 2.31717 23.2641 2.40606 23.353C2.49394 23.4409 2.60101 23.4848 2.72727 23.4848ZM12.8788 21.1364C13.3081 21.1364 13.6682 20.9848 13.9591 20.6818C14.249 20.3788 14.3939 20.0126 14.3939 19.5833C14.3939 19.154 14.249 18.7879 13.9591 18.4848C13.6682 18.1818 13.3081 18.0303 12.8788 18.0303C12.4242 18.0303 12.052 18.1818 11.7621 18.4848C11.4712 18.7879 11.3258 19.154 11.3258 19.5833C11.3258 20.0126 11.4712 20.3788 11.7621 20.6818C12.052 20.9848 12.4242 21.1364 12.8788 21.1364ZM13.9394 15.7197C13.9394 14.9116 14.047 14.299 14.2621 13.8818C14.4763 13.4657 14.899 12.9419 15.5303 12.3106C16.3131 11.5278 16.8813 10.852 17.2348 10.2833C17.5884 9.71566 17.7652 9.06566 17.7652 8.33333C17.7652 7.07071 17.3359 6.05404 16.4773 5.28333C15.6187 4.51364 14.5076 4.12879 13.1439 4.12879C11.9066 4.12879 10.8525 4.44444 9.98182 5.07576C9.1101 5.70707 8.48485 6.52778 8.10606 7.53788L10.0758 8.33333C10.2778 7.67677 10.6313 7.14646 11.1364 6.74242C11.6414 6.33838 12.2727 6.13636 13.0303 6.13636C13.8384 6.13636 14.4763 6.35758 14.9439 6.8C15.4106 7.24141 15.6439 7.77778 15.6439 8.40909C15.6439 8.88889 15.5051 9.3495 15.2273 9.79091C14.9495 10.2333 14.5202 10.7197 13.9394 11.25C13.1061 12.0076 12.5379 12.702 12.2348 13.3333C11.9318 13.9646 11.7803 14.7601 11.7803 15.7197H13.9394Z" fill="#28C76F"/>
</svg>
