<svg xmlns="http://www.w3.org/2000/svg" width="10" height="5" viewBox="0 0 10 5" fill="none">
<path d="M4.5 5H2.5C1.80833 5 1.21875 4.75625 0.73125 4.26875C0.24375 3.78125 0 3.19167 0 2.5C0 1.80833 0.24375 1.21875 0.73125 0.73125C1.21875 0.24375 1.80833 0 2.5 0H4.5V1H2.5C2.08333 1 1.72917 1.14583 1.4375 1.4375C1.14583 1.72917 1 2.08333 1 2.5C1 2.91667 1.14583 3.27083 1.4375 3.5625C1.72917 3.85417 2.08333 4 2.5 4H4.5V5ZM3 3V2H7V3H3ZM5.5 5V4H7.5C7.91667 4 8.27083 3.85417 8.5625 3.5625C8.85417 3.27083 9 2.91667 9 2.5C9 2.08333 8.85417 1.72917 8.5625 1.4375C8.27083 1.14583 7.91667 1 7.5 1H5.5V0H7.5C8.19167 0 8.78125 0.24375 9.26875 0.73125C9.75625 1.21875 10 1.80833 10 2.5C10 3.19167 9.75625 3.78125 9.26875 4.26875C8.78125 4.75625 8.19167 5 7.5 5H5.5Z" fill="#818181"/>
</svg>