<svg width="18" height="18" viewBox="0 0 18 18" fill="none" xmlns="http://www.w3.org/2000/svg">
<path d="M0.824035 4.31836C0.906822 3.97924 1.01219 3.64987 1.23841 3.37318C1.67536 2.83883 2.2407 2.59888 2.94904 2.62766C2.94904 2.9256 2.94372 3.2169 2.94904 3.50776C2.96542 4.25328 3.297 4.82039 3.93583 5.202C4.19676 5.36237 4.49641 5.44868 4.80265 5.45169C6.16354 5.45435 7.52487 5.46763 8.88575 5.44771C9.91461 5.43266 10.7221 4.5676 10.7411 3.50643C10.746 3.21956 10.7411 2.93091 10.7411 2.62943C11.3609 2.59578 11.8842 2.78128 12.311 3.21602C12.6231 3.53388 12.8298 3.91859 12.8422 4.36484C12.8644 5.07672 12.848 5.78992 12.848 6.51906C12.6634 6.53588 12.4726 6.55094 12.2822 6.57174C11.6106 6.64523 10.9771 6.84622 10.3648 7.1269C10.2259 7.19086 10.0751 7.22509 9.92213 7.2274C7.80865 7.23389 5.69516 7.23507 3.58167 7.23094C3.41786 7.23094 3.26159 7.24156 3.13276 7.36021C2.97781 7.5032 2.90831 7.67542 2.96143 7.8826C2.9825 7.98083 3.03231 8.07057 3.10452 8.14042C3.17673 8.21026 3.26808 8.25706 3.36695 8.27484C3.44843 8.28962 3.5312 8.296 3.61398 8.29388C5.23518 8.29388 6.85623 8.29388 8.47713 8.29388H8.68609C8.64182 8.34745 8.61659 8.37844 8.59135 8.41031C8.33104 8.73924 8.06409 9.06331 7.81351 9.39977C7.74224 9.49583 7.6807 9.53258 7.56029 9.53258C6.23216 9.52815 4.90404 9.52992 3.57591 9.53036C3.5042 9.52734 3.43238 9.53195 3.36164 9.54409C3.23699 9.57312 3.12685 9.64582 3.05116 9.74904C2.97548 9.85225 2.93925 9.97916 2.94904 10.1068C2.96106 10.2348 3.01893 10.3542 3.11199 10.4429C3.20505 10.5317 3.32704 10.5838 3.45549 10.5898C3.74325 10.5982 4.03101 10.5924 4.31878 10.5924H7.20125C7.1282 10.87 7.05825 11.1347 6.99008 11.3999C6.96354 11.4786 6.94688 11.5602 6.94049 11.643C6.94049 11.8099 6.85594 11.8333 6.70984 11.8324C5.66461 11.8267 4.61849 11.8254 3.57325 11.8324C3.43128 11.8342 3.29213 11.8723 3.16906 11.9431C2.97029 12.0618 2.90565 12.2973 2.97161 12.5107C3.04378 12.744 3.23502 12.8879 3.49622 12.8887C4.39802 12.8914 5.29982 12.8887 6.20161 12.8887C6.3787 12.8887 6.55578 12.883 6.73286 12.8927C6.77713 12.8954 6.85107 12.9481 6.8524 12.9813C6.88427 13.8091 7.08703 14.5949 7.43677 15.3719H7.24331C5.79388 15.3719 4.34401 15.3537 2.89503 15.3777C1.79268 15.3962 0.9719 14.6251 0.845728 13.721C0.840539 13.705 0.832601 13.6901 0.822266 13.6768L0.824035 4.31836ZM13.408 17.5C13.6891 17.4478 13.9751 17.4115 14.2514 17.3402C15.1898 17.0957 16.0315 16.571 16.6642 15.8361C17.297 15.1012 17.6907 14.1909 17.793 13.2265C17.7984 13.1783 17.8125 13.1314 17.8223 13.084V12.3535C17.8015 12.2238 17.778 12.0941 17.7603 11.9644C17.3233 9.08677 14.3165 7.2482 11.5588 8.17346C9.40417 8.89641 8.07693 10.9355 8.28677 13.2004C8.46385 15.093 9.84112 16.7731 11.6576 17.2924C11.9794 17.3845 12.3141 17.4318 12.6426 17.5H13.408ZM12.3371 11.1489C12.3371 11.0161 12.3345 10.8833 12.3393 10.7505C12.3429 10.566 12.4191 10.3904 12.5512 10.2616C12.6834 10.1328 12.8609 10.0613 13.0454 10.0625C13.2302 10.0619 13.4076 10.1346 13.5388 10.2647C13.67 10.3947 13.7443 10.5715 13.7454 10.7562C13.7533 11.1648 13.7454 11.5735 13.7454 12.0029C13.8144 12.0064 13.8724 12.0122 13.9304 12.0122C14.2731 12.0122 14.6162 12.01 14.9588 12.0122C15.3874 12.0166 15.6982 12.3172 15.6968 12.7205C15.6955 13.1238 15.3834 13.4187 14.9531 13.4227C14.5608 13.4262 14.1686 13.4227 13.7578 13.4227C13.7542 13.4908 13.7485 13.5493 13.7485 13.6073C13.7485 13.9499 13.7507 14.293 13.7485 14.6357C13.7436 15.0642 13.4421 15.375 13.0401 15.3732C12.6382 15.3715 12.3429 15.0598 12.3389 14.629C12.3353 14.2474 12.3367 13.8658 12.3353 13.4846C12.3321 13.4667 12.3272 13.449 12.3207 13.432C12.2698 13.4293 12.2118 13.4235 12.1534 13.4235C11.8107 13.4235 11.4676 13.4258 11.125 13.4235C10.6969 13.4187 10.3861 13.1176 10.3879 12.7152C10.3896 12.3128 10.7009 12.0179 11.1316 12.014C11.5132 12.0104 11.8948 12.0117 12.276 12.0109C12.2971 12.0066 12.3178 12.0008 12.338 11.9936L12.3371 11.1489ZM6.60138 0.5C6.58795 0.510002 6.57301 0.517775 6.55711 0.523021C5.78945 0.660703 5.27325 1.09854 4.99346 1.82414C4.97869 1.84935 4.95831 1.87082 4.93389 1.88687C4.90947 1.90292 4.88168 1.91311 4.85268 1.91667C4.63752 1.92685 4.42148 1.91667 4.20588 1.92242C3.88271 1.92862 3.66401 2.13935 3.65693 2.46341C3.64896 2.81758 3.64542 3.17174 3.65693 3.52591C3.6826 4.21875 4.21075 4.74469 4.88943 4.75C6.19453 4.7562 7.49963 4.7562 8.80474 4.75C9.12385 4.74916 9.43002 4.62375 9.65801 4.40047C9.886 4.17719 10.0178 3.87371 10.0253 3.55469C10.0364 3.19034 10.0328 2.82466 10.0279 2.45987C10.0235 2.14422 9.8088 1.93128 9.49669 1.92375C9.28685 1.91888 9.07612 1.91711 8.86627 1.92375C8.76047 1.92729 8.7162 1.89055 8.67857 1.79094C8.46208 1.21542 8.05877 0.819193 7.48016 0.609349C7.35753 0.565078 7.22825 0.53763 7.10164 0.502656L6.60138 0.5Z" fill="#818181"/>
</svg>
