<svg width="15" height="10" viewBox="0 0 15 10" fill="none" xmlns="http://www.w3.org/2000/svg">
<path d="M13.514 3.96341H11.8248V2.23171C11.8248 1.96189 11.6011 1.7439 11.3242 1.7439H6.39725L4.56254 0.0335365C4.5392 0.0122374 4.50849 0.00026722 4.47651 0H0.500519C0.223669 0 0 0.217988 0 0.487805V9.5122C0 9.78201 0.223669 10 0.500519 10H11.4181C11.6214 10 11.806 9.87957 11.8826 9.69512L13.9785 4.63415C14.002 4.57622 14.0145 4.51372 14.0145 4.45122C14.0145 4.1814 13.7909 3.96341 13.514 3.96341ZM10.6986 3.96341H2.72157C2.51823 3.96341 2.33367 4.08384 2.25703 4.26829L1.12617 7V1.09756H4.07454L5.94522 2.84146H10.6986V3.96341Z" fill="#818181"/>
</svg>
