<svg width="19" height="17" viewBox="0 0 19 17" fill="none" xmlns="http://www.w3.org/2000/svg">
<path d="M18.474 10.7553C17.83 9.63688 16.7864 8.80389 15.5531 8.42386C14.3197 8.04384 12.9882 8.14498 11.8265 8.70693C9.65209 9.76471 8.30756 12.5179 9.4105 15.1282H2.20304C1.3396 15.1282 0.822266 14.6082 0.822266 13.7411C0.822266 9.61887 0.822266 5.49667 0.822266 1.37447C0.822266 0.521533 1.34327 0 2.19516 0C3.96775 0 5.74033 0.00315126 7.51239 0C8.10588 0 8.52657 0.252101 8.78602 0.787815C9.04128 1.31303 9.31123 1.82983 9.56071 2.35662C9.62478 2.49055 9.70041 2.52836 9.84432 2.52836C12.2536 2.52346 14.6629 2.52241 17.0723 2.52521C17.9651 2.52521 18.474 3.03361 18.474 3.93015V10.7579V10.7553ZM17.8438 13.3288C17.8806 11.2232 16.2319 9.4895 14.1589 9.45483C12.0618 9.41964 10.3165 11.0788 10.2813 13.1418C10.2456 15.2474 11.9242 16.9638 14.0534 16.9995C16.0702 17.0341 17.807 15.3529 17.8422 13.3325L17.8438 13.3288ZM12.2256 13.8671C11.8254 13.8671 11.5429 13.6045 11.5429 13.2369C11.5429 12.8692 11.8238 12.6066 12.2256 12.6066C12.6274 12.6066 13.0134 12.6066 13.4336 12.6066V12.177C13.4336 11.895 13.4278 11.6124 13.4362 11.3309C13.4395 11.1682 13.5061 11.0132 13.6218 10.8989C13.7375 10.7845 13.8933 10.7198 14.056 10.7185C14.1383 10.7171 14.22 10.732 14.2965 10.7622C14.3731 10.7925 14.4429 10.8375 14.5019 10.8948C14.561 10.9521 14.6082 11.0205 14.6408 11.096C14.6735 11.1716 14.6908 11.2528 14.692 11.3351C14.7004 11.7553 14.692 12.1712 14.692 12.6092C15.1295 12.6092 15.5476 12.6045 15.9651 12.6092C16.1009 12.6106 16.2325 12.6564 16.3397 12.7397C16.4469 12.823 16.5238 12.9392 16.5586 13.0704C16.5976 13.1965 16.5935 13.3321 16.5469 13.4556C16.5003 13.5792 16.4139 13.6837 16.3013 13.7526C16.1824 13.8192 16.0493 13.8565 15.9131 13.8613C15.5145 13.875 15.1153 13.8661 14.6941 13.8661C14.6941 14.2925 14.6994 14.7038 14.6941 15.115C14.6862 15.5956 14.2135 15.8992 13.7976 15.6928C13.6857 15.6428 13.5914 15.5604 13.5268 15.4563C13.4622 15.3522 13.4303 15.2311 13.4352 15.1087C13.4352 14.7027 13.4352 14.2973 13.4352 13.8655C13.0113 13.8671 12.6185 13.8687 12.2256 13.8671Z" fill="#818181"/>
</svg>
