<svg width="16" height="13" viewBox="0 0 16 13" fill="none" xmlns="http://www.w3.org/2000/svg">
<path d="M15.4667 1.56V11.44C15.4667 11.8733 15.315 12.2417 15.0117 12.545C14.7083 12.8483 14.34 13 13.9067 13H1.56C1.12667 13 0.758333 12.8483 0.455 12.545C0.151667 12.2417 0 11.8733 0 11.44V1.56C0 1.12667 0.151667 0.758333 0.455 0.455C0.758333 0.151667 1.12667 0 1.56 0H13.9067C14.34 0 14.7083 0.151667 15.0117 0.455C15.315 0.758333 15.4667 1.12667 15.4667 1.56ZM1.3 3.38H14.1667V1.56C14.1667 1.50222 14.1378 1.44444 14.08 1.38667C14.0222 1.32889 13.9644 1.3 13.9067 1.3H1.56C1.50222 1.3 1.44444 1.32889 1.38667 1.38667C1.32889 1.44444 1.3 1.50222 1.3 1.56V3.38ZM1.3 6.15333V11.44C1.3 11.4978 1.32889 11.5556 1.38667 11.6133C1.44444 11.6711 1.50222 11.7 1.56 11.7H13.9067C13.9644 11.7 14.0222 11.6711 14.08 11.6133C14.1378 11.5556 14.1667 11.4978 14.1667 11.44V6.15333H1.3Z" fill="#535358"/>
</svg>
