<svg width="22" height="20" viewBox="0 0 22 20" fill="none" xmlns="http://www.w3.org/2000/svg">
<path d="M10.1336 19.2972V11.2327L8.18289 13.1784C8.11777 13.2449 8.03996 13.2977 7.95402 13.3335C7.86809 13.3693 7.77582 13.3874 7.68273 13.3868C7.49509 13.3858 7.31541 13.3109 7.18257 13.1784C7.11643 13.1129 7.06393 13.0351 7.0281 12.9492C6.99226 12.8634 6.97381 12.7713 6.97381 12.6782C6.97381 12.5852 6.99226 12.4931 7.0281 12.4072C7.06393 12.3214 7.11643 12.2435 7.18257 12.1781L10.337 9.03191C10.4022 8.96546 10.48 8.91277 10.5659 8.87697C10.6519 8.84118 10.7441 8.82299 10.8372 8.8235C10.9302 8.82364 11.0222 8.84213 11.108 8.87789C11.1938 8.91365 11.2718 8.96598 11.3373 9.03191L14.4918 12.1781C14.5904 12.2768 14.6576 12.4026 14.6847 12.5395C14.7119 12.6764 14.6978 12.8183 14.6442 12.9472C14.5907 13.0761 14.5 13.1862 14.3839 13.2636C14.2677 13.3409 14.1312 13.3821 13.9916 13.3818C13.8986 13.3828 13.8064 13.365 13.7204 13.3295C13.6345 13.294 13.5566 13.2414 13.4915 13.1751L11.5408 11.2294V19.2939C11.5408 19.4811 11.4664 19.6608 11.334 19.7932C11.2016 19.9256 11.0219 20 10.8347 20C10.6474 20 10.4678 19.9256 10.3354 19.7932C10.203 19.6608 10.1286 19.4811 10.1286 19.2939L10.1336 19.2972ZM4.56496 16.1011C3.94161 16.0592 3.33289 15.8933 2.77437 15.6134C2.21585 15.3334 1.71871 14.9449 1.31211 14.4705C0.472049 13.531 0.00528339 12.3163 0 11.056C0.00264931 10.3072 0.179187 9.56925 0.515676 8.90033C0.852164 8.2314 1.3394 7.64976 1.93901 7.20127C1.89963 6.98451 1.87957 6.76466 1.87902 6.54435C1.88211 5.61469 2.25354 4.72416 2.912 4.06788C3.57047 3.41161 4.46226 3.04314 5.39193 3.04315C5.59136 3.04361 5.79042 3.06034 5.98713 3.09316C6.46793 2.28605 7.1222 1.59592 7.90258 1.07284C8.68297 0.549765 9.5699 0.206808 10.4992 0.0687653C11.4285 -0.0692775 12.3768 0.00108121 13.2755 0.27473C14.1743 0.548379 15.0009 1.01845 15.6956 1.65095C16.7224 2.57985 17.411 3.82392 17.653 5.18721C18.564 5.45291 19.3922 5.94646 20.0595 6.62118C20.7268 7.2959 21.2112 8.12956 21.4668 9.04346C21.7224 9.95735 21.7409 10.9213 21.5205 11.8443C21.3001 12.7674 20.8481 13.619 20.2072 14.3188C19.2782 15.3558 17.9842 15.9932 16.5959 16.0978H13.2714C13.176 16.1024 13.0807 16.0876 12.9912 16.0543C12.9017 16.021 12.8198 15.9699 12.7507 15.904C12.6815 15.8381 12.6265 15.7589 12.5888 15.6711C12.5512 15.5833 12.5319 15.4889 12.5319 15.3934C12.5319 15.2979 12.5512 15.2033 12.5888 15.1156C12.6265 15.0278 12.6815 14.9485 12.7507 14.8827C12.8198 14.8168 12.9017 14.7657 12.9912 14.7324C13.0807 14.6991 13.176 14.6843 13.2714 14.6889H16.5175C17.5151 14.5928 18.4446 14.1406 19.1358 13.415C19.8271 12.6894 20.2338 11.739 20.2813 10.7379C20.3289 9.73691 20.0142 8.75225 19.395 7.96433C18.7757 7.17641 17.8933 6.63797 16.9093 6.44768C16.7567 6.4215 16.6168 6.34602 16.5111 6.23281C16.4054 6.11959 16.3397 5.97486 16.3241 5.82078C16.2184 4.75055 15.7647 3.74455 15.0324 2.95696C14.3001 2.16936 13.3297 1.64368 12.27 1.4605C11.2103 1.27733 10.1198 1.44673 9.1656 1.9428C8.21142 2.43888 7.44629 3.23424 6.98749 4.20689C6.9118 4.36644 6.77914 4.49188 6.61561 4.55853C6.45207 4.62518 6.26951 4.62822 6.10385 4.56702C5.87467 4.48351 5.63249 4.44115 5.38857 4.44196C4.83244 4.44152 4.29886 4.66179 3.90499 5.05441C3.51112 5.44703 3.28913 5.97992 3.28781 6.53606C3.28642 6.78126 3.32938 7.0247 3.41455 7.25464C3.47138 7.41102 3.47166 7.58233 3.41531 7.73888C3.35897 7.89542 3.24956 8.02729 3.10611 8.11158C2.59178 8.41162 2.16473 8.84087 1.86732 9.35673C1.56991 9.87259 1.41246 10.4572 1.41051 11.0526C1.40549 11.9483 1.73041 12.8144 2.32331 13.4857C2.91622 14.1571 3.73555 14.5866 4.62495 14.6923H8.39964C8.49503 14.6876 8.59038 14.7024 8.67989 14.7357C8.76939 14.769 8.8512 14.8202 8.92035 14.886C8.9895 14.9519 9.04453 15.0311 9.08215 15.1189C9.11977 15.2067 9.13919 15.3012 9.13919 15.3967C9.13919 15.4922 9.11977 15.5867 9.08215 15.6745C9.04453 15.7623 8.9895 15.8415 8.92035 15.9074C8.8512 15.9732 8.76939 16.0244 8.67989 16.0577C8.59038 16.091 8.49503 16.1058 8.39964 16.1011H4.56496Z" fill="#3845B3"/>
</svg>
