<svg width="9" height="8" viewBox="0 0 9 8" fill="none" xmlns="http://www.w3.org/2000/svg">
<path d="M5.09559 3.99609L7.83154 1.24272C7.87251 1.20221 7.90507 1.15397 7.92727 1.1008C7.94946 1.04763 7.96088 0.990587 7.96088 0.93297C7.96088 0.875354 7.94946 0.818307 7.92727 0.765137C7.90507 0.711967 7.87251 0.663732 7.83154 0.623217C7.74988 0.541809 7.63925 0.496094 7.52394 0.496094C7.40863 0.496094 7.29801 0.541809 7.21634 0.623217L4.48049 3.37658L1.74454 0.623217C1.66287 0.541809 1.55224 0.496094 1.43694 0.496094C1.32163 0.496094 1.211 0.541809 1.12934 0.623217C1.08837 0.663732 1.05581 0.711967 1.03361 0.765137C1.01141 0.818307 1 0.875354 1 0.93297C1 0.990587 1.01141 1.04763 1.03361 1.1008C1.05581 1.15397 1.08837 1.20221 1.12934 1.24272L3.86529 3.99609L1.12934 6.74946C1.08837 6.78998 1.05581 6.83821 1.03361 6.89138C1.01141 6.94455 1 7.0016 1 7.05922C1 7.11683 1.01141 7.17388 1.03361 7.22705C1.05581 7.28022 1.08837 7.32846 1.12934 7.36897C1.211 7.45038 1.32163 7.49609 1.43694 7.49609C1.55224 7.49609 1.66287 7.45038 1.74454 7.36897L4.48049 4.6156L7.21634 7.36897C7.29801 7.45038 7.40863 7.49609 7.52394 7.49609C7.63925 7.49609 7.74988 7.45038 7.83154 7.36897C7.87251 7.32846 7.90507 7.28022 7.92727 7.22705C7.94946 7.17388 7.96088 7.11683 7.96088 7.05922C7.96088 7.0016 7.94946 6.94455 7.92727 6.89138C7.90507 6.83821 7.87251 6.78998 7.83154 6.74946L5.09559 3.99609Z" fill="black" stroke="black" stroke-width="0.5"/>
</svg>
