<svg width="38" height="38" viewBox="0 0 38 38" fill="none" xmlns="http://www.w3.org/2000/svg">
<path d="M7.7548 10.002C6.29246 10.002 4.83013 10.002 3.36779 10.002C1.96057 10.002 1.01455 9.04711 1.00555 7.64013C0.996556 6.23315 0.999931 4.79243 1.00555 3.36633C1.01118 1.94024 1.9572 1.01237 3.36779 1.0045C6.29246 0.9985 9.21716 0.9985 12.1418 1.0045C13.5524 1.0045 14.4951 1.95373 14.5041 3.36633C14.5131 4.77894 14.5041 6.21516 14.5041 7.64013C14.5041 9.0651 13.5513 9.99184 12.1418 10.002C10.6772 10.0065 9.21601 10.002 7.7548 10.002ZM7.69968 8.52075C9.10352 8.52075 10.5119 8.52075 11.9124 8.52075C12.7594 8.52075 13.0192 8.25983 13.0226 7.41519C13.0279 6.14055 13.0279 4.86591 13.0226 3.59127C13.0226 2.74663 12.7605 2.48571 11.9146 2.48459C9.14367 2.48459 6.37271 2.48459 3.60177 2.48459C2.75362 2.48459 2.49491 2.74438 2.49154 3.58902C2.48704 4.86366 2.48704 6.1383 2.49154 7.41294C2.49154 8.2587 2.75474 8.5185 3.59952 8.52075C4.96624 8.52413 6.33296 8.52075 7.69968 8.52075Z" fill="black"/>
<path d="M7.77055 23.4982C6.32846 23.4982 4.88525 23.4982 3.44204 23.4982C1.95158 23.4982 1.01343 22.5703 1.01005 21.0947C1.01005 19.6889 1.01005 18.2838 1.01005 16.8794C1.01568 15.4634 1.95608 14.5086 3.3588 14.5063C6.28347 14.5003 9.20814 14.5003 12.1328 14.5063C13.5738 14.5063 14.5052 15.4533 14.5086 16.9086C14.5131 18.2943 14.5131 19.6814 14.5086 21.07C14.5086 22.5838 13.5783 23.4993 12.0462 23.5015L7.77055 23.4982ZM7.75479 15.9841C6.35095 15.9841 4.94261 15.9841 3.54327 15.9841C2.76711 15.9841 2.49715 16.2586 2.49265 17.0346C2.48478 18.3269 2.48703 19.6214 2.49265 20.9091C2.49265 21.7527 2.75586 22.0125 3.60402 22.0136C6.37495 22.0136 9.14591 22.0136 11.9168 22.0136C12.7616 22.0136 13.0203 21.7515 13.0237 20.9058C13.029 19.6311 13.029 18.3565 13.0237 17.0818C13.0237 16.2383 12.7605 15.9797 11.9123 15.9774C10.5231 15.9808 9.14063 15.9841 7.75479 15.9841Z" fill="black"/>
<path d="M7.81103 27.9992C9.25312 27.9992 10.6964 27.9992 12.1396 27.9992C13.5513 27.9992 14.5018 28.9473 14.5018 30.361C14.5018 31.7747 14.5018 33.2087 14.5018 34.6348C14.5018 36.0609 13.5524 36.9966 12.1396 36.9966C9.2149 37.0011 6.29023 37.0011 3.36556 36.9966C1.95384 36.9966 1.00332 36.0463 1.00332 34.6348C1.00332 33.2233 0.997699 31.7871 1.00332 30.361C1.00895 28.9349 1.95047 27.9992 3.36556 27.9992C4.84927 27.9958 6.32957 27.9992 7.81103 27.9992ZM7.81103 29.4804C6.40719 29.4804 4.99885 29.4804 3.59839 29.4804C2.74911 29.4804 2.4904 29.7402 2.48703 30.5848C2.48253 31.8594 2.48253 33.1341 2.48703 34.4087C2.48703 35.2545 2.7491 35.5154 3.59501 35.5165C6.36595 35.5165 9.1365 35.5165 11.9067 35.5165C12.7548 35.5165 13.0147 35.2556 13.0181 34.4121C13.0234 33.1375 13.0234 31.8628 13.0181 30.5882C13.0181 29.7424 12.756 29.4837 11.9101 29.4804C10.549 29.477 9.18226 29.4804 7.81554 29.4804H7.81103Z" fill="black"/>
<path d="M27.2736 2.48683H35.7664C35.9349 2.47818 36.1038 2.48307 36.2715 2.50145C36.6798 2.57006 36.9812 2.78488 36.9936 3.22801C37.006 3.7015 36.7023 3.9343 36.2681 4.00853C36.1005 4.02751 35.9315 4.0324 35.763 4.02315C30.0824 4.02315 24.4022 4.02315 18.7223 4.02315C18.5343 4.03273 18.3457 4.02217 18.1599 3.99166C17.7741 3.90731 17.5277 3.68575 17.5288 3.25388C17.5299 2.822 17.7774 2.60268 18.1633 2.52058C18.3491 2.49007 18.5376 2.47951 18.7257 2.48908C21.5754 2.48609 24.4247 2.48533 27.2736 2.48683Z" fill="black"/>
<path d="M27.2174 8.52301C24.3677 8.52301 21.518 8.52301 18.6683 8.52301C18.4287 8.52301 18.1397 8.532 17.9653 8.41054C17.7673 8.26995 17.5637 7.98428 17.5626 7.76159C17.5615 7.5389 17.7628 7.24311 17.9619 7.11265C18.161 6.98218 18.4636 7.00018 18.7212 7.00018C24.4018 6.99493 30.0821 6.99493 35.7619 7.00018C36.6123 7.00018 37.0195 7.26336 36.9993 7.79534C36.979 8.30819 36.6 8.5365 35.7619 8.5365L27.2174 8.52301Z" fill="black"/>
<path d="M27.2174 17.5205C24.3677 17.5205 21.518 17.5205 18.6683 17.5205C18.4287 17.5205 18.1396 17.5295 17.9641 17.408C17.7673 17.2674 17.5637 16.9817 17.5626 16.7591C17.5615 16.5364 17.7628 16.2406 17.9619 16.1101C18.161 15.9797 18.4636 15.9976 18.7212 15.9976C24.4018 15.9924 30.0821 15.9924 35.7619 15.9976C36.6123 15.9976 37.0195 16.2608 36.9993 16.7928C36.979 17.3057 36.6 17.534 35.7619 17.534L27.2174 17.5205Z" fill="black"/>
<path d="M18.7673 22.0192C18.6174 22.0271 18.467 22.0248 18.3174 22.0125C17.8674 21.9529 17.53 21.7639 17.53 21.2376C17.53 20.7112 17.8899 20.5425 18.3387 20.4863C18.4324 20.4806 18.5263 20.4806 18.62 20.4863H35.8857C35.979 20.4863 36.0735 20.4863 36.1669 20.4863C36.6236 20.5346 36.9767 20.7326 36.9869 21.2364C36.997 21.7403 36.6494 21.9551 36.1995 22.0136C36.0496 22.0226 35.8993 22.0226 35.7495 22.0136L18.7673 22.0192Z" fill="black"/>
<path d="M27.2174 31.0167C24.3677 31.0167 21.518 31.0167 18.6683 31.0167C18.4287 31.0167 18.1397 31.0257 17.9653 30.9042C17.7673 30.7636 17.5637 30.4779 17.5626 30.2553C17.5615 30.0326 17.7628 29.7368 17.9619 29.6063C18.161 29.4759 18.4636 29.4938 18.7212 29.4938C24.4018 29.4886 30.0821 29.4886 35.7619 29.4938C36.6123 29.4938 37.0195 29.757 36.9993 30.289C36.979 30.8019 36.6 31.0302 35.7619 31.0302L27.2174 31.0167Z" fill="black"/>
<path d="M27.2174 33.978H35.7664C35.9349 33.9693 36.1038 33.9742 36.2715 33.9926C36.6798 34.0612 36.9801 34.2749 36.9936 34.7191C37.006 35.1926 36.7034 35.4254 36.2681 35.4997C36.1005 35.5186 35.9315 35.5235 35.763 35.5143H18.7223C18.5342 35.5229 18.3457 35.512 18.1599 35.4817C17.7741 35.3973 17.5277 35.1758 17.5288 34.745C17.5299 34.3143 17.7763 34.0938 18.1622 34.0106C18.348 33.9801 18.5365 33.9695 18.7246 33.9791C21.5563 33.9768 24.3872 33.9765 27.2174 33.978Z" fill="black"/>
<path d="M7.7548 10.002C6.29246 10.002 4.83013 10.002 3.36779 10.002C1.96057 10.002 1.01455 9.04711 1.00555 7.64013C0.996556 6.23315 0.999931 4.79243 1.00555 3.36633C1.01118 1.94024 1.9572 1.01237 3.36779 1.0045C6.29246 0.9985 9.21716 0.9985 12.1418 1.0045C13.5524 1.0045 14.4951 1.95373 14.5041 3.36633C14.5131 4.77894 14.5041 6.21516 14.5041 7.64013C14.5041 9.0651 13.5513 9.99184 12.1418 10.002C10.6772 10.0065 9.21601 10.002 7.7548 10.002ZM7.69968 8.52075C9.10352 8.52075 10.5119 8.52075 11.9124 8.52075C12.7594 8.52075 13.0192 8.25983 13.0226 7.41519C13.0279 6.14055 13.0279 4.86591 13.0226 3.59127C13.0226 2.74663 12.7605 2.48571 11.9146 2.48459C9.14367 2.48459 6.37271 2.48459 3.60177 2.48459C2.75362 2.48459 2.49491 2.74438 2.49154 3.58902C2.48704 4.86366 2.48704 6.1383 2.49154 7.41294C2.49154 8.2587 2.75474 8.5185 3.59952 8.52075C4.96624 8.52413 6.33296 8.52075 7.69968 8.52075Z" stroke="black" stroke-width="0.4" stroke-miterlimit="10"/>
<path d="M7.77055 23.4982C6.32846 23.4982 4.88525 23.4982 3.44204 23.4982C1.95158 23.4982 1.01343 22.5703 1.01005 21.0947C1.01005 19.6889 1.01005 18.2838 1.01005 16.8794C1.01568 15.4634 1.95608 14.5086 3.3588 14.5063C6.28347 14.5003 9.20814 14.5003 12.1328 14.5063C13.5738 14.5063 14.5052 15.4533 14.5086 16.9086C14.5131 18.2943 14.5131 19.6814 14.5086 21.07C14.5086 22.5838 13.5783 23.4993 12.0462 23.5015L7.77055 23.4982ZM7.75479 15.9841C6.35095 15.9841 4.94261 15.9841 3.54327 15.9841C2.76711 15.9841 2.49715 16.2586 2.49265 17.0346C2.48478 18.3269 2.48703 19.6214 2.49265 20.9091C2.49265 21.7527 2.75586 22.0125 3.60402 22.0136C6.37495 22.0136 9.14591 22.0136 11.9168 22.0136C12.7616 22.0136 13.0203 21.7515 13.0237 20.9058C13.029 19.6311 13.029 18.3565 13.0237 17.0818C13.0237 16.2383 12.7605 15.9797 11.9123 15.9774C10.5231 15.9808 9.14063 15.9841 7.75479 15.9841Z" stroke="black" stroke-width="0.4" stroke-miterlimit="10"/>
<path d="M7.81103 27.9992C9.25312 27.9992 10.6964 27.9992 12.1396 27.9992C13.5513 27.9992 14.5018 28.9473 14.5018 30.361C14.5018 31.7747 14.5018 33.2087 14.5018 34.6348C14.5018 36.0609 13.5524 36.9966 12.1396 36.9966C9.2149 37.0011 6.29023 37.0011 3.36556 36.9966C1.95384 36.9966 1.00332 36.0463 1.00332 34.6348C1.00332 33.2233 0.997699 31.7871 1.00332 30.361C1.00895 28.9349 1.95047 27.9992 3.36556 27.9992C4.84927 27.9958 6.32957 27.9992 7.81103 27.9992ZM7.81103 29.4804C6.40719 29.4804 4.99885 29.4804 3.59839 29.4804C2.74911 29.4804 2.4904 29.7402 2.48703 30.5848C2.48253 31.8594 2.48253 33.1341 2.48703 34.4087C2.48703 35.2545 2.7491 35.5154 3.59501 35.5165C6.36595 35.5165 9.1365 35.5165 11.9067 35.5165C12.7548 35.5165 13.0147 35.2556 13.0181 34.4121C13.0234 33.1375 13.0234 31.8628 13.0181 30.5882C13.0181 29.7424 12.756 29.4837 11.9101 29.4804C10.549 29.477 9.18226 29.4804 7.81554 29.4804H7.81103Z" stroke="black" stroke-width="0.4" stroke-miterlimit="10"/>
<path d="M27.2736 2.48683H35.7664C35.9349 2.47818 36.1038 2.48307 36.2715 2.50145C36.6798 2.57006 36.9812 2.78488 36.9936 3.22801C37.006 3.7015 36.7023 3.9343 36.2681 4.00853C36.1005 4.02751 35.9315 4.0324 35.763 4.02315C30.0824 4.02315 24.4022 4.02315 18.7223 4.02315C18.5343 4.03273 18.3457 4.02217 18.1599 3.99166C17.7741 3.90731 17.5277 3.68575 17.5288 3.25388C17.5299 2.822 17.7774 2.60268 18.1633 2.52058C18.3491 2.49007 18.5376 2.47951 18.7257 2.48908C21.5754 2.48609 24.4247 2.48533 27.2736 2.48683Z" stroke="black" stroke-width="0.4" stroke-miterlimit="10"/>
<path d="M27.2174 8.52301C24.3677 8.52301 21.518 8.52301 18.6683 8.52301C18.4287 8.52301 18.1397 8.532 17.9653 8.41054C17.7673 8.26995 17.5637 7.98428 17.5626 7.76159C17.5615 7.5389 17.7628 7.24311 17.9619 7.11265C18.161 6.98218 18.4636 7.00018 18.7212 7.00018C24.4018 6.99493 30.0821 6.99493 35.7619 7.00018C36.6123 7.00018 37.0195 7.26336 36.9993 7.79534C36.979 8.30819 36.6 8.5365 35.7619 8.5365L27.2174 8.52301Z" stroke="black" stroke-width="0.4" stroke-miterlimit="10"/>
<path d="M27.2174 17.5205C24.3677 17.5205 21.518 17.5205 18.6683 17.5205C18.4287 17.5205 18.1396 17.5295 17.9641 17.408C17.7673 17.2674 17.5637 16.9817 17.5626 16.7591C17.5615 16.5364 17.7628 16.2406 17.9619 16.1101C18.161 15.9797 18.4636 15.9976 18.7212 15.9976C24.4018 15.9924 30.0821 15.9924 35.7619 15.9976C36.6123 15.9976 37.0195 16.2608 36.9993 16.7928C36.979 17.3057 36.6 17.534 35.7619 17.534L27.2174 17.5205Z" stroke="black" stroke-width="0.4" stroke-miterlimit="10"/>
<path d="M18.7673 22.0192C18.6174 22.0271 18.467 22.0248 18.3174 22.0125C17.8674 21.9529 17.53 21.7639 17.53 21.2376C17.53 20.7112 17.8899 20.5425 18.3387 20.4863C18.4324 20.4806 18.5263 20.4806 18.62 20.4863H35.8857C35.979 20.4863 36.0735 20.4863 36.1669 20.4863C36.6236 20.5346 36.9767 20.7326 36.9869 21.2364C36.997 21.7403 36.6494 21.9551 36.1995 22.0136C36.0496 22.0226 35.8993 22.0226 35.7495 22.0136L18.7673 22.0192Z" stroke="black" stroke-width="0.4" stroke-miterlimit="10"/>
<path d="M27.2174 31.0167C24.3677 31.0167 21.518 31.0167 18.6683 31.0167C18.4287 31.0167 18.1397 31.0257 17.9653 30.9042C17.7673 30.7636 17.5637 30.4779 17.5626 30.2553C17.5615 30.0326 17.7628 29.7368 17.9619 29.6063C18.161 29.4759 18.4636 29.4938 18.7212 29.4938C24.4018 29.4886 30.0821 29.4886 35.7619 29.4938C36.6123 29.4938 37.0195 29.757 36.9993 30.289C36.979 30.8019 36.6 31.0302 35.7619 31.0302L27.2174 31.0167Z" stroke="black" stroke-width="0.4" stroke-miterlimit="10"/>
<path d="M27.2174 33.978H35.7664C35.9349 33.9693 36.1038 33.9742 36.2715 33.9926C36.6798 34.0612 36.9801 34.2749 36.9936 34.7191C37.006 35.1926 36.7034 35.4254 36.2681 35.4997C36.1005 35.5186 35.9315 35.5235 35.763 35.5143H18.7223C18.5342 35.5229 18.3457 35.512 18.1599 35.4817C17.7741 35.3973 17.5277 35.1758 17.5288 34.745C17.5299 34.3143 17.7763 34.0938 18.1622 34.0106C18.348 33.9801 18.5365 33.9695 18.7246 33.9791C21.5563 33.9768 24.3872 33.9765 27.2174 33.978Z" stroke="black" stroke-width="0.4" stroke-miterlimit="10"/>
</svg>
