<svg width="13" height="7" viewBox="0 0 13 7" fill="none" xmlns="http://www.w3.org/2000/svg">
<path fill-rule="evenodd" clip-rule="evenodd" d="M12.709 0.235144C12.5506 0.083405 12.3398 -0.000182 12.1157 -0.000182C11.8914 -0.000182 11.6806 0.083405 11.5224 0.235144L6.47686 5.06198L1.43147 0.236047C1.2731 0.084189 1.06233 0.00049 0.838019 0.00049C0.613704 0.00049 0.402948 0.083517 0.244088 0.236047C-0.082719 0.548884 -0.082719 1.05853 0.244257 1.37204L5.88325 6.76687C6.04029 6.91658 6.25089 6.99905 6.47637 6.99905C6.47637 6.99905 6.47637 6.99905 6.47652 6.99905C6.7025 6.99905 6.91343 6.91624 7.07013 6.76585L12.7091 1.37147C13.0353 1.05853 13.0353 0.548884 12.709 0.235144Z" fill="#ffffff"/>
</svg>
