<svg width="30" height="30" viewBox="0 0 30 30" fill="none" xmlns="http://www.w3.org/2000/svg">
<rect x="0.5" y="0.5" width="29" height="29" rx="3.5" fill="#2F3990"/>
<path d="M8.874 23C8.37662 22.9995 7.89976 22.8017 7.54805 22.45C7.19635 22.0982 6.99853 21.6214 6.998 21.124V10.124C6.99853 9.62671 7.19638 9.14995 7.54811 8.79841C7.89985 8.44686 8.37671 8.24927 8.874 8.249H9.624V7H10.874V8.25H19.125V7H20.375V8.25H21.126C21.6233 8.25026 22.1002 8.44786 22.4519 8.79941C22.8036 9.15095 23.0015 9.62771 23.002 10.125V21.125C23.0012 21.6222 22.8033 22.0988 22.4516 22.4503C22.0999 22.8018 21.6232 22.9995 21.126 23H8.874ZM8.249 21.124C8.24926 21.2897 8.3152 21.4485 8.43235 21.5656C8.5495 21.6828 8.70832 21.7487 8.874 21.749H21.126C21.2917 21.7487 21.4505 21.6828 21.5676 21.5656C21.6848 21.4485 21.7507 21.2897 21.751 21.124V12.875H8.251L8.249 21.124ZM8.249 10.124V11.624H21.749V10.124C21.749 9.95824 21.6832 9.79927 21.5659 9.68206C21.4487 9.56485 21.2898 9.499 21.124 9.499H20.373V10.749H19.123V9.5H10.874V10.75H9.624V9.5H8.874C8.70815 9.5 8.54907 9.56582 8.43171 9.683C8.31434 9.80018 8.24827 9.95915 8.248 10.125L8.249 10.124ZM16.874 20.44V19.19H18.124V20.44H16.874ZM14.374 20.44V19.19H15.624V20.44H14.374ZM11.874 20.44V19.19H13.124V20.44H11.874ZM9.374 20.44V19.19H10.624V20.44H9.374ZM19.374 17.94V16.69H20.624V17.94H19.374ZM16.874 17.94V16.69H18.124V17.94H16.874ZM14.374 17.94V16.69H15.624V17.94H14.374ZM11.874 17.94V16.69H13.124V17.94H11.874ZM9.374 17.94V16.69H10.624V17.94H9.374ZM19.374 15.44V14.19H20.624V15.439L19.374 15.44ZM16.874 15.44V14.19H18.124V15.439L16.874 15.44ZM14.374 15.44V14.19H15.624V15.439L14.374 15.44ZM11.874 15.44V14.19H13.124V15.439L11.874 15.44ZM9.374 15.44V14.19H10.624V15.439L9.374 15.44Z" fill="white"/>
<rect x="0.5" y="0.5" width="29" height="29" rx="3.5" stroke="#2F3990"/>
</svg>
