<svg width="30" height="30" viewBox="0 0 30 30" fill="none" xmlns="http://www.w3.org/2000/svg">
<rect x="0.5" y="0.5" width="29" height="29" rx="3.5" fill="white"/>
<path d="M15 18.105C14.72 18.105 14.48 18.345 14.48 18.625C14.48 18.905 14.7 19.145 14.95 19.145C14.97 19.145 14.99 19.145 15.01 19.145C15.14 19.145 15.27 19.095 15.36 18.995C15.45 18.905 15.51 18.775 15.51 18.655C15.52 18.345 15.29 18.105 15 18.105Z" fill="#2F3990"/>
<path d="M22.48 11.465C22.2 11.465 21.96 11.705 21.96 11.985V16.665H8.06V9.175C8.06 8.795 8.37 8.495 8.74 8.495H18.81C19.1 8.495 19.33 8.275 19.33 7.975C19.33 7.685 19.11 7.455 18.81 7.455H8.74C7.76 7.465 7 8.225 7 9.205V18.725C7 19.705 7.76 20.465 8.74 20.465H14.43V21.525H12.58C12.29 21.525 12.06 21.745 12.06 22.045C12.06 22.345 12.28 22.565 12.58 22.565H17.42C17.71 22.565 17.94 22.345 17.94 22.045C17.94 21.745 17.72 21.525 17.42 21.525H15.57V20.465H21.26C22.24 20.465 23 19.705 23 18.725V11.975C23 11.685 22.78 11.465 22.48 11.465ZM21.29 19.385H8.74C8.36 19.385 8.06 19.075 8.06 18.705V17.695H21.99V18.565H21.96V18.705C21.97 19.075 21.66 19.385 21.29 19.385Z" fill="#2F3990"/>
<path d="M20.52 8.415H21.34L17.73 12.655C17.59 12.605 17.44 12.575 17.25 12.575C17.07 12.575 16.92 12.615 16.77 12.665L15.63 11.515C15.7 11.345 15.73 11.195 15.73 11.025C15.73 10.305 15.12 9.695 14.4 9.695C13.68 9.695 13.07 10.305 13.07 11.025C13.07 11.185 13.1 11.345 13.18 11.515L12.26 12.435C12.09 12.345 11.91 12.305 11.71 12.305C10.99 12.305 10.38 12.915 10.38 13.635C10.38 14.355 10.99 14.965 11.71 14.965C12.43 14.965 13.04 14.365 13.04 13.635C13.04 13.435 13 13.275 12.93 13.095L13.83 12.175C14 12.265 14.19 12.335 14.43 12.335C14.64 12.335 14.84 12.285 15.03 12.205L16.11 13.315C16 13.525 15.95 13.725 15.95 13.915C15.95 14.635 16.56 15.245 17.28 15.245C18 15.245 18.61 14.635 18.61 13.915C18.61 13.725 18.56 13.515 18.45 13.305L21.99 9.115V10.155C21.99 10.425 22.21 10.645 22.48 10.645C22.75 10.645 22.97 10.425 22.97 10.155V8.125C22.94 7.745 22.61 7.435 22.24 7.435H20.53C20.26 7.435 20.04 7.655 20.04 7.925C20.04 8.195 20.26 8.415 20.52 8.415ZM16.88 13.915C16.88 13.715 17.07 13.535 17.26 13.535C17.45 13.535 17.64 13.725 17.64 13.915C17.64 14.115 17.46 14.295 17.26 14.295C17.02 14.295 16.88 14.095 16.88 13.915ZM14.02 10.995C14.02 10.795 14.21 10.615 14.4 10.615C14.6 10.615 14.78 10.805 14.78 10.995C14.78 11.185 14.6 11.385 14.4 11.385C14.17 11.385 14.02 11.185 14.02 10.995ZM11.3 13.635C11.3 13.435 11.49 13.255 11.68 13.255C11.88 13.255 12.06 13.445 12.06 13.635C12.06 13.815 11.91 14.015 11.68 14.015C11.44 14.015 11.3 13.825 11.3 13.635Z" fill="#2F3990"/>
<rect x="0.5" y="0.5" width="29" height="29" rx="3.5" stroke="#DFE1E6"/>
</svg>
