<svg width="24" height="24" viewBox="0 0 24 24" fill="none" xmlns="http://www.w3.org/2000/svg">
<path d="M12 23.5C18.3513 23.5 23.5 18.3513 23.5 12C23.5 5.64873 18.3513 0.5 12 0.5C5.64873 0.5 0.5 5.64873 0.5 12C0.5 18.3513 5.64873 23.5 12 23.5Z" fill="white" stroke="#DFE1E6"/>
<path d="M7.40699 17.9992C7.03397 17.9988 6.67627 17.8505 6.41251 17.5867C6.14875 17.323 6.0004 16.9653 6 16.5923V8.34285C6.0004 7.9699 6.14882 7.61236 6.4126 7.34872C6.67638 7.08507 7.03404 6.93688 7.40699 6.93669H7.96945V6H8.90689V6.93744H15.0947V6H16.0329V6.93744H16.5954C16.9682 6.93784 17.3256 7.08613 17.5892 7.34975C17.8528 7.61337 18.0011 7.97079 18.0015 8.3436V16.5931C18.0011 16.966 17.8529 17.3235 17.5893 17.5872C17.3257 17.851 16.9683 17.9994 16.5954 18L7.40699 17.9992ZM6.93826 16.5923C6.93826 16.7167 6.98761 16.836 7.07549 16.924C7.16337 17.012 7.2826 17.0616 7.40699 17.0618H16.5954C16.7197 17.0614 16.8388 17.0118 16.9266 16.9238C17.0144 16.8358 17.0639 16.7166 17.0641 16.5923V10.406H6.93973L6.93826 16.5923ZM6.93826 8.34285V9.46778H17.0626V8.34285C17.0624 8.2186 17.013 8.09949 16.9251 8.01163C16.8373 7.92377 16.7182 7.87433 16.5939 7.87413H16.0314V8.81157H15.0932V7.87488H8.90533V8.81232H7.96789V7.87488H7.40543C7.28131 7.87528 7.16237 7.92482 7.07467 8.01266C6.98697 8.1005 6.93764 8.21948 6.93744 8.3436L6.93826 8.34285ZM13.4066 16.0786V15.1412H14.344V16.0786H13.4066ZM11.5317 16.0786V15.1412H12.4683V16.0786H11.5317ZM9.65684 16.0786V15.1412H10.5943V16.0786H9.65684ZM7.78196 16.0786V15.1412H8.7194V16.0786H7.78196ZM15.2815 14.2037V13.267H16.2189V14.2037H15.2815ZM13.4066 14.2037V13.267H14.344V14.2037H13.4066ZM11.5317 14.2037V13.267H12.4683V14.2037H11.5317ZM9.65684 14.2037V13.267H10.5943V14.2037H9.65684ZM7.78196 14.2037V13.267H8.7194V14.2037H7.78196ZM15.2815 12.3288V11.3914H16.2189V12.3288H15.2815ZM13.4066 12.3288V11.3914H14.344V12.3288H13.4066ZM11.5317 12.3288V11.3914H12.4683V12.3288H11.5317ZM9.65684 12.3288V11.3914H10.5943V12.3288H9.65684ZM7.78196 12.3288V11.3914H8.7194V12.3288H7.78196Z" fill="#818181"/>
</svg>
