<svg width="13" height="13" viewBox="0 0 13 13" fill="none" xmlns="http://www.w3.org/2000/svg">
<path d="M1.40699 12.9172C1.03397 12.9168 0.676272 12.7685 0.412511 12.5047C0.14875 12.2409 0.000397035 11.8833 0 11.5103V3.26082C0.000397332 2.88787 0.14882 2.53033 0.412602 2.26668C0.676385 2.00304 1.03404 1.85485 1.40699 1.85465H1.96945V0.917969H2.90689V1.85541H9.09473V0.917969H10.0329V1.85541H10.5954C10.9682 1.85581 11.3256 2.00409 11.5892 2.26771C11.8528 2.53133 12.0011 2.88876 12.0015 3.26157V11.5111C12.0011 11.8839 11.8529 12.2414 11.5893 12.5052C11.3257 12.7689 10.9683 12.9174 10.5954 12.918L1.40699 12.9172ZM0.938265 11.5103C0.938265 11.6347 0.987613 11.754 1.07549 11.842C1.16337 11.93 1.2826 11.9796 1.40699 11.9798H10.5954C10.7197 11.9794 10.8388 11.9298 10.9266 11.8418C11.0144 11.7538 11.0639 11.6346 11.0641 11.5103V5.32394H0.93973L0.938265 11.5103ZM0.938265 3.26082V4.38575H11.0626V3.26082C11.0624 3.13656 11.013 3.01746 10.9251 2.9296C10.8373 2.84174 10.7182 2.79229 10.5939 2.7921H10.0314V3.72954H9.09318V2.79285H2.90533V3.73029H1.96789V2.79285H1.40543C1.28131 2.79325 1.16237 2.84279 1.07467 2.93063C0.986973 3.01847 0.937639 3.13745 0.937441 3.26157L0.938265 3.26082ZM7.40661 10.9966V10.0591H8.34405V10.9966H7.40661ZM5.53173 10.9966V10.0591H6.46834V10.9966H5.53173ZM3.65684 10.9966V10.0591H4.59429V10.9966H3.65684ZM1.78196 10.9966V10.0591H2.7194V10.9966H1.78196ZM9.28149 9.1217V8.18501H10.2189V9.1217H9.28149ZM7.40661 9.1217V8.18501H8.34405V9.1217H7.40661ZM5.53173 9.1217V8.18501H6.46834V9.1217H5.53173ZM3.65684 9.1217V8.18501H4.59429V9.1217H3.65684ZM1.78196 9.1217V8.18501H2.7194V9.1217H1.78196ZM9.28149 7.24682V6.30938H10.2189V7.24682H9.28149ZM7.40661 7.24682V6.30938H8.34405V7.24682H7.40661ZM5.53173 7.24682V6.30938H6.46834V7.24682H5.53173ZM3.65684 7.24682V6.30938H4.59429V7.24682H3.65684ZM1.78196 7.24682V6.30938H2.7194V7.24682H1.78196Z" fill="#818181"/>
</svg>
