<svg width="33" height="31" viewBox="0 0 33 31" fill="none" xmlns="http://www.w3.org/2000/svg">
<path d="M28.7695 0.0292969H4.76953C2.56039 0.0292969 0.769531 1.82016 0.769531 4.0293V26.0293C0.769531 28.2384 2.56039 30.0293 4.76953 30.0293H28.7695C30.9787 30.0293 32.7695 28.2384 32.7695 26.0293V4.0293C32.7695 1.82016 30.9787 0.0292969 28.7695 0.0292969Z" fill="#2F3990"/>
<path d="M10.6475 23.0264C10.1501 23.0259 9.6733 22.8281 9.32159 22.4763C8.96989 22.1246 8.77201 21.6478 8.77148 21.1504V10.1504C8.77201 9.6531 8.96992 9.17634 9.32166 8.8248C9.67339 8.47325 10.1502 8.27566 10.6475 8.27539H11.3975V7.02539H12.6485V8.27539H20.8995V7.02539H22.1495V8.27539H22.8995C23.3968 8.27566 23.8737 8.47325 24.2254 8.8248C24.5771 9.17634 24.775 9.6531 24.7755 10.1504V21.1504C24.775 21.6478 24.5772 22.1246 24.2255 22.4763C23.8738 22.8281 23.3969 23.0259 22.8995 23.0264H10.6475ZM10.0225 21.1504C10.0225 21.3162 10.0883 21.4753 10.2055 21.5927C10.3227 21.7101 10.4817 21.7761 10.6475 21.7764H22.8995C23.0654 21.7761 23.2243 21.7101 23.3415 21.5927C23.4587 21.4753 23.5245 21.3162 23.5245 21.1504V12.8994H10.0245L10.0225 21.1504ZM10.0225 10.1504V11.6504H23.5225V10.1504C23.5223 9.98471 23.4563 9.82589 23.3392 9.70874C23.222 9.59159 23.0632 9.52566 22.8975 9.52539H22.1475V10.7744H20.8995V9.52539H12.6485V10.7744H11.3995V9.52539H10.6495C10.5673 9.52526 10.4859 9.54132 10.4099 9.57266C10.3339 9.604 10.2648 9.65 10.2065 9.70804C10.1483 9.76607 10.1021 9.83502 10.0706 9.91092C10.039 9.98682 10.0227 10.0682 10.0225 10.1504ZM18.6495 20.4594V19.2094H19.8995V20.4594H18.6495ZM16.1495 20.4594V19.2094H17.3995V20.4594H16.1495ZM13.6495 20.4594V19.2094H14.8995V20.4594H13.6495ZM11.1495 20.4594V19.2094H12.3995V20.4594H11.1495ZM21.1495 17.9594V16.7094H22.3995V17.9584L21.1495 17.9594ZM18.6495 17.9594V16.7094H19.8995V17.9584L18.6495 17.9594ZM16.1495 17.9594V16.7094H17.3995V17.9584L16.1495 17.9594ZM13.6495 17.9594V16.7094H14.8995V17.9584L13.6495 17.9594ZM11.1495 17.9594V16.7094H12.3995V17.9584L11.1495 17.9594ZM21.1495 15.4594V14.2094H22.3995V15.4594H21.1495ZM18.6495 15.4594V14.2094H19.8995V15.4594H18.6495ZM16.1495 15.4594V14.2094H17.3995V15.4594H16.1495ZM13.6495 15.4594V14.2094H14.8995V15.4594H13.6495ZM11.1495 15.4594V14.2094H12.3995V15.4594H11.1495Z" fill="white"/>
</svg>
