<svg width="17" height="17" viewBox="0 0 17 17" fill="none" xmlns="http://www.w3.org/2000/svg">
<path d="M2.79797 16.9707C2.30059 16.9702 1.82363 16.7724 1.47192 16.4207C1.12022 16.069 0.922404 15.5921 0.921875 15.0947V4.0947C0.922405 3.5974 1.12031 3.12065 1.47205 2.7691C1.82378 2.41756 2.30068 2.21996 2.79797 2.2197H3.54797V0.970703H4.79797V2.2207H13.049V0.970703H14.2999V2.2207H15.0499C15.547 2.22123 16.0236 2.41896 16.3751 2.77048C16.7266 3.12199 16.9244 3.59858 16.9249 4.0957V15.0957C16.9244 15.5929 16.7267 16.0696 16.3752 16.4213C16.0238 16.773 15.5471 16.9709 15.0499 16.9717L2.79797 16.9707ZM2.17297 15.0947C2.17297 15.2605 2.23878 15.4196 2.35596 15.537C2.47314 15.6544 2.63212 15.7204 2.79797 15.7207H15.0499C15.2157 15.7202 15.3745 15.654 15.4916 15.5367C15.6087 15.4194 15.6747 15.2605 15.6749 15.0947V6.8457H2.17493L2.17297 15.0947ZM2.17297 4.0947V5.5947H15.673V4.0947C15.6727 3.92902 15.6068 3.7702 15.4896 3.65305C15.3725 3.53589 15.2137 3.46996 15.048 3.4697H14.298V4.7197H13.0469V3.4707H4.7959V4.7207H3.5459V3.4707H2.7959C2.63039 3.47123 2.4718 3.53729 2.35486 3.65442C2.23792 3.77154 2.17214 3.9302 2.17188 4.0957L2.17297 4.0947ZM10.798 14.4097V13.1597H12.048V14.4097H10.798ZM8.29797 14.4097V13.1597H9.54688V14.4097H8.29797ZM5.79797 14.4097V13.1597H7.04797V14.4097H5.79797ZM3.29797 14.4097V13.1597H4.54797V14.4097H3.29797ZM13.298 11.9097V10.6607H14.548V11.9097H13.298ZM10.798 11.9097V10.6607H12.048V11.9097H10.798ZM8.29797 11.9097V10.6607H9.54688V11.9097H8.29797ZM5.79797 11.9097V10.6607H7.04797V11.9097H5.79797ZM3.29797 11.9097V10.6607H4.54797V11.9097H3.29797ZM13.298 9.4097V8.1597H14.548V9.4097H13.298ZM10.798 9.4097V8.1597H12.048V9.4097H10.798ZM8.29797 9.4097V8.1597H9.54688V9.4097H8.29797ZM5.79797 9.4097V8.1597H7.04797V9.4097H5.79797ZM3.29797 9.4097V8.1597H4.54797V9.4097H3.29797Z" fill="black"/>
</svg>
