<svg width="16" height="15" viewBox="0 0 16 15" fill="none" xmlns="http://www.w3.org/2000/svg">
<g clip-path="url(#clip0_10273_74761)">
<path d="M2.34 0.98133C2.47 0.18133 2.66 -0.0186701 3.26 0.0013299C3.8 0.0113299 4.01 0.25133 4.06 0.96133C6.59 0.96133 9.13 0.96133 11.58 0.96133C11.73 0.67133 11.82 0.38133 12.01 0.16133C12.1 0.0513299 12.38 0.0113299 12.57 0.0113299C13.11 0.0013299 13.28 0.20133 13.41 0.99133C13.73 0.99133 14.06 0.99133 14.38 0.99133C15.22 1.00133 15.75 1.44133 15.75 2.14133C15.75 5.97133 15.75 9.80133 15.75 13.6313C15.75 14.3513 15.22 14.7913 14.36 14.7913C10.03 14.7913 5.71 14.7913 1.39 14.7913C0.53 14.7913 0 14.3613 0 13.6313C0 9.80133 0 5.97133 0 2.14133C0 1.44133 0.54 0.99133 1.37 0.99133C1.68 0.98133 2 0.98133 2.34 0.98133ZM15.25 4.09133C15.25 3.38133 15.26 2.73133 15.25 2.08133C15.24 1.74133 14.98 1.46133 14.63 1.45133C13.83 1.43133 13.04 1.44133 12.23 1.44133C12.22 1.53133 12.21 1.61133 12.21 1.68133C12.21 1.95133 12.12 2.26133 12.62 2.32133C12.67 2.33133 12.75 2.49133 12.72 2.53133C12.67 2.60133 12.55 2.69133 12.45 2.70133C12.09 2.73133 11.74 2.44133 11.72 2.10133C11.71 1.88133 11.72 1.66133 11.72 1.45133C8.75 1.45133 5.83 1.45133 2.89 1.45133C2.89 1.55133 2.89 1.63133 2.89 1.70133C2.89 1.96133 2.82 2.26133 3.29 2.32133C3.34 2.33133 3.43 2.48133 3.4 2.52133C3.33 2.61133 3.21 2.69133 3.11 2.70133C2.76 2.74133 2.4 2.45133 2.38 2.11133C2.36 1.89133 2.38 1.67133 2.38 1.43133C1.99 1.43133 1.65 1.42133 1.31 1.43133C0.8 1.44133 0.51 1.68133 0.49 2.11133C0.48 2.46133 0.49 2.80133 0.49 3.15133C0.49 3.46133 0.49 3.76133 0.49 4.09133C0.66 4.09133 0.79 4.09133 0.91 4.09133C1.66 4.09133 2.42 4.09133 3.17 4.09133C3.36 4.09133 3.55 4.12133 3.52 4.31133C3.49 4.38133 3.29 4.49133 3.17 4.50133C2.52 4.52133 1.87 4.51133 1.22 4.51133C0.98 4.51133 0.75 4.51133 0.51 4.51133C0.5 4.59133 0.49 4.64133 0.49 4.69133C0.49 7.38133 0.49 10.0813 0.49 12.7713C0.49 13.2113 0.8 13.4713 1.32 13.4813C1.75 13.4913 2.19 13.4813 2.62 13.4813C5.41 13.4813 8.21 13.4813 11.01 13.4813C11.68 13.4813 11.85 13.3413 11.85 12.7913C11.85 12.4113 11.85 12.0413 11.85 11.6613C11.85 10.9813 12.28 10.6213 13.1 10.6213C13.55 10.6213 13.99 10.6213 14.43 10.6213C15.06 10.6213 15.25 10.4613 15.25 9.94133C15.25 8.24133 15.25 6.54133 15.25 4.83133C15.25 4.73133 15.24 4.63133 15.23 4.51133C15.05 4.51133 14.92 4.51133 14.78 4.51133C11.38 4.51133 7.98 4.51133 4.58 4.51133C4.37 4.51133 4.05 4.58133 4.06 4.29133C4.07 4.02133 4.37 4.09133 4.57 4.09133C7.98 4.09133 11.39 4.09133 14.81 4.09133C14.94 4.09133 15.07 4.09133 15.25 4.09133ZM15.25 11.3613C14.35 12.1213 13.53 12.8013 12.71 13.5113C12.38 13.7913 12 13.9313 11.52 13.9313C8.74 13.9213 5.95 13.9413 3.17 13.9213C2.29 13.9113 1.39 14.0513 0.51 13.7813C0.56 14.2113 0.98 14.3713 1.49 14.3713C5.74 14.3613 9.98 14.3713 14.22 14.3713C14.31 14.3713 14.4 14.3713 14.49 14.3613C14.91 14.3313 15.21 14.1113 15.23 13.7613C15.26 12.9713 15.25 12.2113 15.25 11.3613ZM14.77 11.0413C14.18 11.0413 13.56 11.0313 12.94 11.0513C12.62 11.0613 12.39 11.2113 12.38 11.5013C12.36 12.0413 12.38 12.5813 12.38 13.0713C13.16 12.4013 13.96 11.7213 14.77 11.0413ZM3.61 0.97133C3.52 0.77133 3.49 0.60133 3.37 0.48133C3.33 0.43133 3.05 0.43133 3.01 0.49133C2.91 0.62133 2.88 0.78133 2.81 0.97133C3.1 0.97133 3.3 0.97133 3.61 0.97133ZM12.14 0.96133C12.45 0.96133 12.65 0.96133 12.93 0.96133C12.85 0.77133 12.82 0.60133 12.72 0.48133C12.68 0.43133 12.4 0.43133 12.35 0.48133C12.24 0.61133 12.22 0.78133 12.14 0.96133Z" fill="#2F3990"/>
<path d="M3.76002 6.34125C3.76002 7.25125 3.73002 7.27125 2.65002 7.27125C1.55002 7.27125 1.52002 7.25125 1.52002 6.32125C1.52002 5.40125 1.55002 5.38125 2.62002 5.38125C3.74002 5.37125 3.76002 5.39125 3.76002 6.34125ZM2.06002 6.80125C2.47002 6.80125 2.84002 6.80125 3.20002 6.80125C3.20002 6.47125 3.20002 6.16125 3.20002 5.84125C2.81002 5.84125 2.44002 5.84125 2.06002 5.84125C2.06002 6.16125 2.06002 6.48125 2.06002 6.80125Z" fill="#2F3990"/>
<path d="M14.2302 6.3311C14.2302 7.2411 14.2002 7.2711 13.1202 7.2711C12.0102 7.2711 11.9902 7.2511 11.9902 6.3011C11.9902 5.4111 12.0302 5.3811 13.0802 5.3811C13.0902 5.3811 13.1002 5.3811 13.1102 5.3811C14.2002 5.3711 14.2302 5.4011 14.2302 6.3311ZM12.5302 6.8011C12.9402 6.8011 13.3002 6.8011 13.6702 6.8011C13.6702 6.4711 13.6702 6.1611 13.6702 5.8411C13.2802 5.8411 12.9102 5.8411 12.5302 5.8411C12.5302 6.1611 12.5302 6.4711 12.5302 6.8011Z" fill="#2F3990"/>
<path d="M6.13 12.6114C5.01 12.6114 5 12.6114 5 11.6614C5 10.7414 5.02 10.7314 6.1 10.7314C6.29 10.7314 6.49 10.7314 6.68 10.7314C7.03 10.7414 7.23 10.8914 7.24 11.1914C7.25 11.4914 7.25 11.7814 7.24 12.0814C7.23 12.4314 7.05 12.5914 6.64 12.6014C6.47 12.6214 6.3 12.6114 6.13 12.6114ZM6.7 12.1714C6.7 11.8314 6.7 11.5214 6.7 11.1914C6.31 11.1914 5.94 11.1914 5.56 11.1914C5.56 11.5314 5.56 11.8514 5.56 12.1714C5.94 12.1714 6.31 12.1714 6.7 12.1714Z" fill="#2F3990"/>
<path d="M6.13977 7.27135C5.02977 7.27135 5.00977 7.25135 5.00977 6.33135C5.00977 5.40135 5.02977 5.38135 6.13977 5.38135C7.21977 5.38135 7.24977 5.41135 7.24977 6.31135C7.24977 6.32135 7.24977 6.33135 7.24977 6.34135C7.24977 7.24135 7.20977 7.27135 6.13977 7.27135ZM5.54977 6.80135C5.93977 6.80135 6.30977 6.80135 6.69977 6.80135C6.69977 6.47135 6.69977 6.16135 6.69977 5.84135C6.30977 5.84135 5.93977 5.84135 5.54977 5.84135C5.54977 6.16135 5.54977 6.47135 5.54977 6.80135Z" fill="#2F3990"/>
<path d="M9.6 7.27135C8.53 7.27135 8.5 7.24135 8.5 6.33135C8.5 5.40135 8.53 5.38135 9.62 5.38135C10.71 5.38135 10.74 5.41135 10.74 6.31135C10.74 7.25135 10.72 7.27135 9.6 7.27135ZM10.19 5.85135C9.78 5.85135 9.41 5.85135 9.06 5.85135C9.06 6.19135 9.06 6.50135 9.06 6.80135C9.46 6.80135 9.83 6.80135 10.19 6.80135C10.19 6.47135 10.19 6.16135 10.19 5.85135Z" fill="#2F3990"/>
<path d="M2.64002 12.6114C1.52002 12.6114 1.52002 12.6114 1.52002 11.6614C1.52002 10.7514 1.54002 10.7314 2.63002 10.7314C2.81002 10.7314 3.00002 10.7314 3.18002 10.7314C3.57002 10.7414 3.76002 10.8914 3.77002 11.2214C3.78002 11.5014 3.77002 11.7814 3.77002 12.0514C3.77002 12.4414 3.59002 12.5914 3.13002 12.5914C2.95002 12.6214 2.80002 12.6114 2.64002 12.6114ZM2.07002 12.1714C2.46002 12.1714 2.83002 12.1714 3.20002 12.1714C3.20002 11.8314 3.20002 11.5114 3.20002 11.1914C2.81002 11.1914 2.45002 11.1914 2.07002 11.1914C2.07002 11.5114 2.07002 11.8314 2.07002 12.1714Z" fill="#2F3990"/>
<path d="M6.13012 8.07134C6.32012 8.07134 6.52012 8.06134 6.71012 8.07134C7.05012 8.08134 7.23012 8.24134 7.24012 8.52134C7.25012 8.84134 7.25012 9.15134 7.24012 9.47134C7.23012 9.77134 7.04012 9.92134 6.68012 9.93134C6.31012 9.94134 5.93012 9.94134 5.55012 9.93134C5.22012 9.92134 5.02012 9.78134 5.01012 9.49134C4.99012 9.16134 4.99012 8.84134 5.01012 8.51134C5.02012 8.22134 5.21012 8.08134 5.55012 8.07134C5.74012 8.06134 5.94012 8.07134 6.13012 8.07134ZM6.70012 8.50134C6.31012 8.50134 5.94012 8.50134 5.56012 8.50134C5.56012 8.84134 5.56012 9.15134 5.56012 9.49134C5.95012 9.49134 6.32012 9.49134 6.70012 9.49134C6.70012 9.16134 6.70012 8.85134 6.70012 8.50134Z" fill="#2F3990"/>
<path d="M9.5898 9.93147C9.4298 9.93147 9.2698 9.93147 9.1098 9.93147C8.6698 9.93147 8.4898 9.78146 8.4898 9.40146C8.4898 9.12146 8.4798 8.84146 8.4898 8.57146C8.4998 8.23146 8.6698 8.08146 9.0698 8.07146C9.4298 8.06146 9.7998 8.06146 10.1598 8.07146C10.5398 8.08146 10.7198 8.23147 10.7298 8.55147C10.7398 8.85147 10.7398 9.14146 10.7298 9.44146C10.7198 9.78146 10.5298 9.92147 10.1398 9.93147C9.9598 9.93147 9.7798 9.93147 9.5898 9.93147ZM10.1898 8.51147C9.7798 8.51147 9.4098 8.51147 9.0498 8.51147C9.0498 8.85147 9.0498 9.17146 9.0498 9.49146C9.4398 9.49146 9.8098 9.49146 10.1898 9.49146C10.1898 9.15146 10.1898 8.84147 10.1898 8.51147Z" fill="#2F3990"/>
<path d="M13.0999 8.13135C13.2799 8.13135 13.4699 8.13135 13.6499 8.13135C14.0199 8.14135 14.1999 8.28135 14.2199 8.58135C14.2399 8.91135 14.2399 9.23135 14.2199 9.56135C14.1999 9.84135 14.0099 9.99135 13.6699 9.99135C13.2999 10.0013 12.9199 10.0013 12.5399 9.99135C12.1799 9.98135 11.9999 9.83135 11.9899 9.53135C11.9799 9.22135 11.9799 8.92135 11.9899 8.61135C11.9999 8.29135 12.1799 8.14135 12.5599 8.13135C12.7399 8.13135 12.9199 8.13135 13.0999 8.13135ZM13.6699 9.56135C13.6699 9.21135 13.6699 8.89135 13.6699 8.57135C13.2699 8.57135 12.9099 8.57135 12.5399 8.57135C12.5399 8.91135 12.5399 9.23135 12.5399 9.56135C12.9299 9.56135 13.2899 9.56135 13.6699 9.56135Z" fill="#2F3990"/>
<path d="M2.61971 9.93147C2.44971 9.93147 2.27971 9.93147 2.10971 9.93147C1.70971 9.92147 1.52971 9.78146 1.51971 9.44146C1.50971 9.14146 1.50971 8.85147 1.51971 8.55147C1.52971 8.22147 1.70971 8.08146 2.08971 8.07146C2.45971 8.06146 2.83971 8.06146 3.21971 8.07146C3.55971 8.08146 3.74971 8.23146 3.75971 8.52146C3.76971 8.84146 3.76971 9.15147 3.75971 9.47147C3.74971 9.78147 3.55971 9.92147 3.20971 9.93147C3.00971 9.93147 2.80971 9.93147 2.61971 9.93147ZM3.20971 8.51147C2.81971 8.51147 2.43971 8.51147 2.06971 8.51147C2.06971 8.85147 2.06971 9.16146 2.06971 9.49146C2.45971 9.49146 2.82971 9.49146 3.20971 9.49146C3.20971 9.16146 3.20971 8.84147 3.20971 8.51147Z" fill="#2F3990"/>
</g>
<defs>
<clipPath id="clip0_10273_74761">
<rect width="16" height="15" fill="white"/>
</clipPath>
</defs>
</svg>
