<svg width="17" height="17" viewBox="0 0 17 17" fill="none" xmlns="http://www.w3.org/2000/svg">
<path d="M2.20422 16C1.70684 15.9995 1.22988 15.8017 0.878174 15.45C0.52647 15.0982 0.328654 14.6214 0.328125 14.124V3.12399C0.328655 2.6267 0.526564 2.14995 0.878296 1.7984C1.23003 1.44686 1.70693 1.24926 2.20422 1.24899H2.95422V0H4.20422V1.25H12.4552V0H13.7062V1.25H14.4562C14.9533 1.25053 15.4299 1.44826 15.7814 1.79977C16.1329 2.15129 16.3306 2.62788 16.3312 3.125V14.125C16.3306 14.6222 16.133 15.0989 15.7815 15.4506C15.43 15.8023 14.9534 16.0002 14.4562 16.001L2.20422 16ZM1.57922 14.124C1.57922 14.2898 1.64503 14.4489 1.76221 14.5663C1.87939 14.6837 2.03837 14.7497 2.20422 14.75H14.4562C14.6219 14.7495 14.7807 14.6833 14.8978 14.566C15.015 14.4487 15.0809 14.2898 15.0812 14.124V5.875H1.58118L1.57922 14.124ZM1.57922 3.12399V4.62399H15.0792V3.12399C15.079 2.95831 15.013 2.7995 14.8959 2.68234C14.7787 2.56519 14.6199 2.49926 14.4542 2.49899H13.7042V3.74899H12.4531V2.5H4.20215V3.75H2.95215V2.5H2.20215C2.03664 2.50053 1.87805 2.56659 1.76111 2.68372C1.64417 2.80084 1.57839 2.95949 1.57812 3.125L1.57922 3.12399ZM10.2042 13.439V12.189H11.4542V13.439H10.2042ZM7.70422 13.439V12.189H8.95312V13.439H7.70422ZM5.20422 13.439V12.189H6.45422V13.439H5.20422ZM2.70422 13.439V12.189H3.95422V13.439H2.70422ZM12.7042 10.939V9.69H13.9542V10.939H12.7042ZM10.2042 10.939V9.69H11.4542V10.939H10.2042ZM7.70422 10.939V9.69H8.95312V10.939H7.70422ZM5.20422 10.939V9.69H6.45422V10.939H5.20422ZM2.70422 10.939V9.69H3.95422V10.939H2.70422ZM12.7042 8.439V7.189H13.9542V8.439H12.7042ZM10.2042 8.439V7.189H11.4542V8.439H10.2042ZM7.70422 8.439V7.189H8.95312V8.439H7.70422ZM5.20422 8.439V7.189H6.45422V8.439H5.20422ZM2.70422 8.439V7.189H3.95422V8.439H2.70422Z" fill="black"/>
</svg>
