<svg width="13" height="10" viewBox="0 0 13 10" fill="none" xmlns="http://www.w3.org/2000/svg">
<path fill-rule="evenodd" clip-rule="evenodd" d="M0.987267 0H2.21024C2.37926 0 2.51604 0.139762 2.51604 0.312493V1.56252C2.51604 1.73526 2.37926 1.87501 2.21029 1.87501H0.987267C0.818241 1.87501 0.681519 1.73526 0.681519 1.56252V0.312493C0.681519 0.139762 0.818241 0 0.987267 0ZM0.987267 4.06251H2.21024C2.37926 4.06251 2.51604 4.20227 2.51604 4.37497V5.62499C2.51604 5.79773 2.37926 5.93749 2.21029 5.93749H0.987267C0.818241 5.93749 0.681519 5.79773 0.681519 5.62503V4.37501C0.681519 4.20227 0.818241 4.06251 0.987267 4.06251ZM2.21024 8.12503H0.987267C0.818241 8.12503 0.681519 8.26478 0.681519 8.43748V9.68751C0.681519 9.86024 0.818241 10 0.987267 10H2.21029C2.37926 10 2.51604 9.86024 2.51604 9.68751V8.43748C2.51604 8.26478 2.37926 8.12503 2.21024 8.12503ZM4.04476 0.624996H12.1412C12.3102 0.624996 12.447 0.764789 12.447 0.937529V1.56252C12.447 1.73526 12.3102 1.87501 12.1412 1.87501H4.04476C3.87579 1.87501 3.73901 1.73526 3.73901 1.56252V0.937529C3.73901 0.764789 3.87579 0.624996 4.04476 0.624996ZM12.1409 4.37486H4.04444C3.87547 4.37486 3.73869 4.51466 3.73869 4.68736V5.31234C3.73869 5.48508 3.87547 5.62488 4.04444 5.62488H12.1409C12.3098 5.62488 12.4466 5.48508 12.4466 5.31234V4.68736C12.4466 4.51466 12.3098 4.37486 12.1409 4.37486ZM4.04476 8.12503H12.1412C12.3102 8.12503 12.447 8.26478 12.447 8.43752V9.06251C12.447 9.23525 12.3102 9.375 12.1412 9.375H4.04476C3.87579 9.375 3.73901 9.23525 3.73901 9.06251V8.43752C3.73901 8.26478 3.87579 8.12503 4.04476 8.12503Z" fill="#818181"/>
</svg>
