<svg width="16" height="14" viewBox="0 0 16 14" fill="none" xmlns="http://www.w3.org/2000/svg">
<path fill-rule="evenodd" clip-rule="evenodd" d="M0.415792 0.200439H2.07893C2.30879 0.200439 2.4948 0.390505 2.4948 0.625404V2.32533C2.4948 2.56024 2.30879 2.75029 2.07901 2.75029H0.415792C0.18593 2.75029 0 2.56024 0 2.32533V0.625404C0 0.390505 0.18593 0.200439 0.415792 0.200439ZM0.415792 5.72511H2.07893C2.30879 5.72511 2.4948 5.91518 2.4948 6.15003V7.84995C2.4948 8.08486 2.30879 8.27492 2.07901 8.27492H0.415792C0.18593 8.27492 0 8.08486 0 7.85V6.15009C0 5.91518 0.18593 5.72511 0.415792 5.72511ZM2.07893 11.2498H0.415792C0.18593 11.2498 0 11.4398 0 11.6747V13.3746C0 13.6095 0.18593 13.7996 0.415792 13.7996H2.07901C2.30879 13.7996 2.4948 13.6095 2.4948 13.3746V11.6747C2.4948 11.4398 2.30879 11.2498 2.07893 11.2498ZM4.57373 1.05038H15.5842C15.814 1.05038 16 1.24049 16 1.4754V2.32533C16 2.56024 15.814 2.75029 15.5842 2.75029H4.57373C4.34394 2.75029 4.15793 2.56024 4.15793 2.32533V1.4754C4.15793 1.24049 4.34394 1.05038 4.57373 1.05038ZM15.5837 6.14972H4.57324C4.34346 6.14972 4.15745 6.33982 4.15745 6.57468V7.42461C4.15745 7.65952 4.34346 7.84963 4.57324 7.84963H15.5837C15.8135 7.84963 15.9995 7.65952 15.9995 7.42461V6.57468C15.9995 6.33982 15.8135 6.14972 15.5837 6.14972ZM4.57373 11.2498H15.5842C15.814 11.2498 16 11.4398 16 11.6748V12.5247C16 12.7596 15.814 12.9497 15.5842 12.9497H4.57373C4.34394 12.9497 4.15793 12.7596 4.15793 12.5247V11.6748C4.15793 11.4398 4.34394 11.2498 4.57373 11.2498Z" fill="#818181"/>
</svg>
