<svg width="37" height="37" viewBox="0 0 37 37" fill="none" xmlns="http://www.w3.org/2000/svg">
<path d="M18.5 36.5C28.4411 36.5 36.5 28.4411 36.5 18.5C36.5 8.55887 28.4411 0.5 18.5 0.5C8.55887 0.5 0.5 8.55887 0.5 18.5C0.5 28.4411 8.55887 36.5 18.5 36.5Z" fill="white" stroke="#DFE1E6"/>
<path d="M19 21.9769C20.0393 21.9769 20.9228 21.6133 21.6505 20.8861C22.3777 20.1583 22.7413 19.2748 22.7413 18.2356C22.7413 17.1963 22.3777 16.3128 21.6505 15.585C20.9228 14.8578 20.0393 14.4942 19 14.4942C17.9607 14.4942 17.0772 14.8578 16.3495 15.585C15.6223 16.3128 15.2587 17.1963 15.2587 18.2356C15.2587 19.2748 15.6223 20.1583 16.3495 20.8861C17.0772 21.6133 17.9607 21.9769 19 21.9769ZM19 20.4804C18.3764 20.4804 17.8466 20.262 17.4103 19.8252C16.9736 19.389 16.7552 18.8591 16.7552 18.2356C16.7552 17.612 16.9736 17.0818 17.4103 16.6451C17.8466 16.2089 18.3764 15.9908 19 15.9908C19.6236 15.9908 20.1537 16.2089 20.5905 16.6451C21.0267 17.0818 21.2448 17.612 21.2448 18.2356C21.2448 18.8591 21.0267 19.389 20.5905 19.8252C20.1537 20.262 19.6236 20.4804 19 20.4804ZM19 24.4711C17.0739 24.4711 15.3141 23.962 13.7206 22.9438C12.127 21.9251 10.9215 20.5497 10.1039 18.8176C10.0624 18.7483 10.0346 18.6615 10.0208 18.5573C10.0069 18.4537 10 18.3464 10 18.2356C10 18.1247 10.0069 18.0172 10.0208 17.913C10.0346 17.8093 10.0624 17.7229 10.1039 17.6536C10.9215 15.9215 12.127 14.5463 13.7206 13.5281C15.3141 12.5094 17.0739 12 19 12C20.9261 12 22.6859 12.5094 24.2794 13.5281C25.873 14.5463 27.0785 15.9215 27.8961 17.6536C27.9376 17.7229 27.9654 17.8093 27.9792 17.913C27.9931 18.0172 28 18.1247 28 18.2356C28 18.3464 27.9931 18.4537 27.9792 18.5573C27.9654 18.6615 27.9376 18.7483 27.8961 18.8176C27.0785 20.5497 25.873 21.9251 24.2794 22.9438C22.6859 23.962 20.9261 24.4711 19 24.4711ZM19 22.8083C20.5658 22.8083 22.0036 22.3959 23.3133 21.5712C24.6225 20.747 25.6236 19.6351 26.3164 18.2356C25.6236 16.836 24.6225 15.7239 23.3133 14.8991C22.0036 14.0749 20.5658 13.6628 19 13.6628C17.4342 13.6628 15.9964 14.0749 14.6867 14.8991C13.3775 15.7239 12.3764 16.836 11.6836 18.2356C12.3764 19.6351 13.3775 20.747 14.6867 21.5712C15.9964 22.3959 17.4342 22.8083 19 22.8083Z" fill="#818181"/>
</svg>
