<svg width="16" height="20" viewBox="0 0 16 20" fill="none" xmlns="http://www.w3.org/2000/svg">
<path d="M1.11111 17.7778C1.11111 19 2.11111 20 3.33333 20H12.2222C13.4444 20 14.4444 19 14.4444 17.7778V6.66667C14.4444 5.44444 13.4444 4.44444 12.2222 4.44444H3.33333C2.11111 4.44444 1.11111 5.44444 1.11111 6.66667V17.7778ZM14.4444 1.11111H11.6667L10.8778 0.322222C10.6778 0.122222 10.3889 0 10.1 0H5.45555C5.16667 0 4.87778 0.122222 4.67778 0.322222L3.88889 1.11111H1.11111C0.5 1.11111 0 1.61111 0 2.22222C0 2.83333 0.5 3.33333 1.11111 3.33333H14.4444C15.0556 3.33333 15.5556 2.83333 15.5556 2.22222C15.5556 1.61111 15.0556 1.11111 14.4444 1.11111Z" fill="#FF0000"/>
</svg>
