<svg width="12" height="12" viewBox="0 0 12 12" fill="none" xmlns="http://www.w3.org/2000/svg">
<path d="M6.85247 6L10.7829 2.06661C10.8418 2.00873 10.8886 1.93982 10.9205 1.86386C10.9524 1.7879 10.9688 1.70642 10.9688 1.62411C10.9688 1.5418 10.9524 1.4603 10.9205 1.38435C10.8886 1.30839 10.8418 1.23948 10.7829 1.1816C10.6656 1.06531 10.5067 1 10.341 1C10.1754 1 10.0165 1.06531 9.89915 1.1816L5.96883 5.11498L2.03835 1.1816C1.92103 1.06531 1.7621 1 1.59645 1C1.4308 1 1.27187 1.06531 1.15455 1.1816C1.0957 1.23948 1.04892 1.30839 1.01703 1.38435C0.985148 1.4603 0.96875 1.5418 0.96875 1.62411C0.96875 1.70642 0.985148 1.7879 1.01703 1.86386C1.04892 1.93982 1.0957 2.00873 1.15455 2.06661L5.08503 6L1.15455 9.93339C1.0957 9.99127 1.04892 10.0602 1.01703 10.1361C0.985148 10.2121 0.96875 10.2936 0.96875 10.3759C0.96875 10.4582 0.985148 10.5397 1.01703 10.6157C1.04892 10.6916 1.0957 10.7605 1.15455 10.8184C1.27187 10.9347 1.4308 11 1.59645 11C1.7621 11 1.92103 10.9347 2.03835 10.8184L5.96883 6.88501L9.89915 10.8184C10.0165 10.9347 10.1754 11 10.341 11C10.5067 11 10.6656 10.9347 10.7829 10.8184C10.8418 10.7605 10.8886 10.6916 10.9205 10.6157C10.9524 10.5397 10.9688 10.4582 10.9688 10.3759C10.9688 10.2936 10.9524 10.2121 10.9205 10.1361C10.8886 10.0602 10.8418 9.99127 10.7829 9.93339L6.85247 6Z" fill="#FF0000" stroke="#FF0000"/>
</svg>
