<svg width="12" height="12" viewBox="0 0 12 12" fill="none" xmlns="http://www.w3.org/2000/svg">
<path d="M6.88372 6L10.8142 2.06661C10.873 2.00873 10.9198 1.93982 10.9517 1.86386C10.9836 1.7879 11 1.70642 11 1.62411C11 1.5418 10.9836 1.4603 10.9517 1.38435C10.9198 1.30839 10.873 1.23948 10.8142 1.1816C10.6969 1.06531 10.5379 1 10.3723 1C10.2066 1 10.0477 1.06531 9.9304 1.1816L6.00008 5.11498L2.0696 1.1816C1.95228 1.06531 1.79335 1 1.6277 1C1.46205 1 1.30312 1.06531 1.1858 1.1816C1.12695 1.23948 1.08017 1.30839 1.04828 1.38435C1.0164 1.4603 1 1.5418 1 1.62411C1 1.70642 1.0164 1.7879 1.04828 1.86386C1.08017 1.93982 1.12695 2.00873 1.1858 2.06661L5.11628 6L1.1858 9.93339C1.12695 9.99127 1.08017 10.0602 1.04828 10.1361C1.0164 10.2121 1 10.2936 1 10.3759C1 10.4582 1.0164 10.5397 1.04828 10.6157C1.08017 10.6916 1.12695 10.7605 1.1858 10.8184C1.30312 10.9347 1.46205 11 1.6277 11C1.79335 11 1.95228 10.9347 2.0696 10.8184L6.00008 6.88501L9.9304 10.8184C10.0477 10.9347 10.2066 11 10.3723 11C10.5379 11 10.6969 10.9347 10.8142 10.8184C10.873 10.7605 10.9198 10.6916 10.9517 10.6157C10.9836 10.5397 11 10.4582 11 10.3759C11 10.2936 10.9836 10.2121 10.9517 10.1361C10.9198 10.0602 10.873 9.99127 10.8142 9.93339L6.88372 6Z" fill="black" stroke="black" stroke-width="0.5"/>
</svg>
