<svg width="8" height="10" viewBox="0 0 8 10" fill="none" xmlns="http://www.w3.org/2000/svg">
<path d="M0.555556 8.88889C0.555556 9.5 1.05556 10 1.66667 10H6.11111C6.72222 10 7.22222 9.5 7.22222 8.88889V3.33333C7.22222 2.72222 6.72222 2.22222 6.11111 2.22222H1.66667C1.05556 2.22222 0.555556 2.72222 0.555556 3.33333V8.88889ZM7.22222 0.555556H5.83333L5.43889 0.161111C5.33889 0.0611111 5.19444 0 5.05 0H2.72778C2.58333 0 2.43889 0.0611111 2.33889 0.161111L1.94444 0.555556H0.555556C0.25 0.555556 0 0.805556 0 1.11111C0 1.41667 0.25 1.66667 0.555556 1.66667H7.22222C7.52778 1.66667 7.77778 1.41667 7.77778 1.11111C7.77778 0.805556 7.52778 0.555556 7.22222 0.555556Z" fill="#FF0000"/>
</svg>
