<svg width="16" height="18" viewBox="0 0 16 18" fill="none" xmlns="http://www.w3.org/2000/svg">
<path id="Delete" d="M3.18201 17.8799C3.01455 17.8806 2.85289 17.8186 2.72888 17.7061C2.60487 17.5935 2.52746 17.4387 2.51196 17.2719L1.401 4.76289H0V3.43189H4.68396V1.9889C4.68581 1.69335 4.80472 1.41057 5.01465 1.20252C5.22458 0.99447 5.5084 0.878114 5.80396 0.878913H10.196C10.4917 0.87785 10.7756 0.994108 10.9856 1.20222C11.1956 1.41033 11.3145 1.69326 11.316 1.9889V3.43189H16V4.76289H14.576L13.465 17.2719C13.4497 17.4387 13.3725 17.5937 13.2484 17.7063C13.1244 17.8189 12.9626 17.8808 12.795 17.8799H3.18201ZM3.79797 16.5489H12.1801L13.228 4.76289H2.75L3.79797 16.5489ZM9.97205 3.43189V2.21186H6.02795V3.43189H9.97205ZM9.63599 14.5699L9.92798 6.69086L11.272 6.73988L10.98 14.6179L9.63599 14.5699ZM4.72803 6.73988L6.07202 6.69086L6.36401 14.5699L5.02002 14.6189L4.72803 6.73988ZM7.328 14.5999V6.71992H8.66797V14.5999H7.328Z" fill="#959595"/>
</svg>
