<svg width="16" height="18" viewBox="0 0 16 18" fill="none" xmlns="http://www.w3.org/2000/svg">
<path d="M3.18201 17.0786C3.01455 17.0793 2.85289 17.0173 2.72888 16.9048C2.60487 16.7923 2.52746 16.6374 2.51196 16.4706L1.401 3.96162H0V2.63062H4.68396V1.18763C4.68581 0.892077 4.80472 0.609304 5.01465 0.401252C5.22458 0.1932 5.5084 0.0768444 5.80396 0.077644H10.196C10.4917 0.0765801 10.7756 0.192838 10.9856 0.400947C11.1956 0.609056 11.3145 0.891994 11.316 1.18763V2.63062H16V3.96162H14.576L13.465 16.4706C13.4497 16.6375 13.3725 16.7925 13.2484 16.905C13.1244 17.0176 12.9626 17.0796 12.795 17.0786H3.18201ZM3.79797 15.7476H12.1801L13.228 3.96162H2.75L3.79797 15.7476ZM9.97205 2.63062V1.41059H6.02795V2.63062H9.97205ZM9.63599 13.7686L9.92798 5.88959L11.272 5.93861L10.98 13.8166L9.63599 13.7686ZM4.72803 5.93861L6.07202 5.88959L6.36401 13.7686L5.02002 13.8176L4.72803 5.93861ZM7.328 13.7986V5.91865H8.66797V13.7986H7.328Z" fill="#2C2C2C"/>
</svg>
