<svg width="16" height="18" viewBox="0 0 16 18" fill="none" xmlns="http://www.w3.org/2000/svg">
<path d="M3.18201 17.6533C3.01455 17.654 2.85289 17.592 2.72888 17.4795C2.60487 17.367 2.52746 17.2121 2.51196 17.0454L1.401 4.53632H0V3.20533H4.68396V1.76234C4.68581 1.46678 4.80472 1.18401 5.01465 0.975959C5.22458 0.767907 5.5084 0.651551 5.80396 0.652351H10.196C10.4917 0.651287 10.7756 0.767545 10.9856 0.975654C11.1956 1.18376 11.3145 1.4667 11.316 1.76234V3.20533H16V4.53632H14.576L13.465 17.0454C13.4497 17.2122 13.3725 17.3672 13.2484 17.4797C13.1244 17.5923 12.9626 17.6543 12.795 17.6533H3.18201ZM3.79797 16.3223H12.1801L13.228 4.53632H2.75L3.79797 16.3223ZM9.97205 3.20533V1.9853H6.02795V3.20533H9.97205ZM9.63599 14.3433L9.92798 6.4643L11.272 6.51331L10.98 14.3913L9.63599 14.3433ZM4.72803 6.51331L6.07202 6.4643L6.36401 14.3433L5.02002 14.3923L4.72803 6.51331ZM7.328 14.3733V6.49335H8.66797V14.3733H7.328Z" fill="#2C2C2C"/>
</svg>
