<svg width="18" height="18" viewBox="0 0 18 18" fill="none" xmlns="http://www.w3.org/2000/svg">
<path fill-rule="evenodd" clip-rule="evenodd" d="M8.99996 0C13.9706 0 18 4.02943 18 9C18 13.9706 13.9706 18 8.99996 18C4.02941 18 -3.6e-05 13.9706 -3.6e-05 9C-3.6e-05 4.02943 4.02941 0 8.99996 0Z" fill="#E2E2E2"/>
<path d="M9.70697 9L12.8514 5.85329C12.8984 5.80699 12.9359 5.75185 12.9614 5.69109C12.9869 5.63032 13 5.56513 13 5.49929C13 5.43344 12.9869 5.36824 12.9614 5.30748C12.9359 5.24671 12.8984 5.19159 12.8514 5.14528C12.7575 5.05225 12.6304 5 12.4978 5C12.3653 5 12.2382 5.05225 12.1443 5.14528L9.00006 8.29199L5.85568 5.14528C5.76183 5.05225 5.63468 5 5.50216 5C5.36964 5 5.2425 5.05225 5.14864 5.14528C5.10156 5.19159 5.06414 5.24671 5.03863 5.30748C5.01312 5.36824 5 5.43344 5 5.49929C5 5.56513 5.01312 5.63032 5.03863 5.69109C5.06414 5.75185 5.10156 5.80699 5.14864 5.85329L8.29302 9L5.14864 12.1467C5.10156 12.193 5.06414 12.2481 5.03863 12.3089C5.01312 12.3697 5 12.4349 5 12.5007C5 12.5666 5.01312 12.6318 5.03863 12.6925C5.06414 12.7533 5.10156 12.8084 5.14864 12.8547C5.2425 12.9478 5.36964 13 5.50216 13C5.63468 13 5.76183 12.9478 5.85568 12.8547L9.00006 9.70801L12.1443 12.8547C12.2382 12.9478 12.3653 13 12.4978 13C12.6304 13 12.7575 12.9478 12.8514 12.8547C12.8984 12.8084 12.9359 12.7533 12.9614 12.6925C12.9869 12.6318 13 12.5666 13 12.5007C13 12.4349 12.9869 12.3697 12.9614 12.3089C12.9359 12.2481 12.8984 12.193 12.8514 12.1467L9.70697 9Z" fill="#989898"/>
</svg>
