<svg width="18" height="18" viewBox="0 0 18 18" fill="none" xmlns="http://www.w3.org/2000/svg">
<path d="M10.414 8.99999L16.7027 2.70658C16.7969 2.61398 16.8717 2.50371 16.9227 2.38218C16.9738 2.26065 17 2.13027 17 1.99857C17 1.86688 16.9738 1.73649 16.9227 1.61496C16.8717 1.49343 16.7969 1.38317 16.7027 1.29057C16.515 1.10449 16.2607 1 15.9957 1C15.7306 1 15.4763 1.10449 15.2886 1.29057L9.00012 7.58398L2.71136 1.29057C2.52365 1.10449 2.26937 1 2.00432 1C1.73928 1 1.48499 1.10449 1.29729 1.29057C1.20313 1.38317 1.12827 1.49343 1.07726 1.61496C1.02624 1.73649 1 1.86688 1 1.99857C1 2.13027 1.02624 2.26065 1.07726 2.38218C1.12827 2.50371 1.20313 2.61398 1.29729 2.70658L7.58605 8.99999L1.29729 15.2934C1.20313 15.386 1.12827 15.4963 1.07726 15.6178C1.02624 15.7393 1 15.8697 1 16.0014C1 16.1331 1.02624 16.2635 1.07726 16.385C1.12827 16.5066 1.20313 16.6168 1.29729 16.7094C1.48499 16.8955 1.73928 17 2.00432 17C2.26937 17 2.52365 16.8955 2.71136 16.7094L9.00012 10.416L15.2886 16.7094C15.4763 16.8955 15.7306 17 15.9957 17C16.2607 17 16.515 16.8955 16.7027 16.7094C16.7969 16.6168 16.8717 16.5066 16.9227 16.385C16.9738 16.2635 17 16.1331 17 16.0014C17 15.8697 16.9738 15.7393 16.9227 15.6178C16.8717 15.4963 16.7969 15.386 16.7027 15.2934L10.414 8.99999Z" fill="#818181" stroke="#818181"/>
</svg>
