<svg xmlns="http://www.w3.org/2000/svg" width="20" height="15.385" viewBox="0 0 10 10" fill="none">
  <path d="M1.87166 9.99999C1.77316 10.0004 1.67807 9.96394 1.60513 9.89775C1.53219 9.83156 1.48665 9.74046 1.47754 9.64239L0.82407 2.28456H0V1.50167H2.75511V0.652899C2.7562 0.479054 2.82614 0.312727 2.94962 0.190351C3.0731 0.0679746 3.24004 -0.000466066 3.41389 4.25747e-06H5.99732C6.17122 -0.00062153 6.33822 0.0677617 6.46174 0.190172C6.58525 0.312581 6.65517 0.479006 6.65611 0.652899V1.50167H9.41121V2.28456H8.57365L7.92011 9.64239C7.91112 9.74051 7.8657 9.83167 7.79273 9.89789C7.71976 9.96411 7.62459 10.0006 7.52606 9.99999H1.87166ZM2.23397 9.2171H7.16432L7.78074 2.28456H1.61755L2.23397 9.2171ZM5.86557 1.50167V0.784045H3.54565V1.50167H5.86557ZM5.6679 8.05305L5.83965 3.4186L6.63018 3.44743L6.45843 8.08127L5.6679 8.05305ZM2.78103 3.44743L3.57157 3.4186L3.74332 8.05305L2.95278 8.08188L2.78103 3.44743ZM4.31034 8.07068V3.43569H5.09851V8.07068H4.31034Z" fill="#FF0000"/>
</svg>