<svg width="40" height="32" viewBox="0 0 40 32" fill="none" xmlns="http://www.w3.org/2000/svg">
<path d="M37.6635 5.43479C35.7115 5.43479 33.7899 5.4634 31.8702 5.42137C31.0287 5.4026 30.393 5.43568 29.8985 6.34059C29.3414 7.36173 28.2622 7.76322 27.0801 7.76322C22.3875 7.76322 17.6942 7.76322 13.0004 7.76322C10.959 7.76322 9.38437 6.26279 9.36648 4.30992C9.34681 2.30607 10.9036 0.743057 12.9709 0.722491C14.8031 0.704607 16.637 0.722491 18.4683 0.722491C21.27 0.722491 24.0718 0.722491 26.8735 0.722491C28.4687 0.722491 29.6571 1.38954 30.3429 2.85152C30.477 3.13676 30.6773 3.09473 30.8919 3.09473C33.7378 3.09473 36.5836 3.09473 39.4295 3.09473H40V17.1404H35.9565L35.8814 17.2772C36.3741 17.7163 36.865 18.1562 37.33 18.5711L35.6722 20.2137L31.4597 15.9968L35.7115 11.753L37.2889 13.3366L35.8627 14.7977H37.6635V5.43479ZM19.9839 5.43479H22.7988C24.2294 5.43479 25.6601 5.44373 27.0908 5.43032C27.7659 5.42406 28.3095 4.87951 28.3113 4.25358C28.3131 3.62766 27.7856 3.11262 27.089 3.09116C26.9549 3.09116 26.8208 3.09116 26.6866 3.09116H15.6481C14.7396 3.09116 13.8311 3.09116 12.9226 3.09116C12.3861 3.09116 12.007 3.34242 11.7977 3.82259C11.4544 4.60768 12.074 5.43211 13.0129 5.43211C15.3369 5.43926 17.6599 5.43479 19.9839 5.43479Z" fill="black"/>
<path d="M0.00447524 14.8236H4.59694C6.13224 14.8236 7.66753 14.8183 9.20194 14.829C9.46035 14.829 9.58465 14.7521 9.70268 14.5115C10.3447 13.2078 11.3945 12.488 12.8627 12.4845C17.6161 12.4719 22.3699 12.4719 27.1239 12.4845C29.117 12.4898 30.6487 14.043 30.6442 16.0003C30.6455 16.4597 30.5558 16.9147 30.3803 17.3391C30.2048 17.7636 29.947 18.149 29.6216 18.4733C29.2963 18.7975 28.91 19.0541 28.485 19.2282C28.0599 19.4023 27.6046 19.4905 27.1453 19.4876C22.3764 19.5019 17.6075 19.5019 12.8386 19.4876C11.3721 19.4876 10.3411 18.7392 9.67496 17.4489C9.60879 17.321 9.43531 17.1637 9.31102 17.1628C7.00227 17.1458 4.69262 17.1503 2.34631 17.1503V26.5123H4.17847L2.60472 25.2184C3.29413 24.546 3.83421 24.0193 4.35552 23.5123L8.58407 27.7462L4.32066 32.0025L2.71114 30.3116L4.15791 29.0651C4.12572 29.0133 4.09352 28.9605 4.06044 28.9086H0.00805543L0.00447524 14.8236ZM20.0045 14.8236C17.6519 14.8236 15.2993 14.8236 12.9467 14.8236C12.2457 14.8236 11.7172 15.3226 11.702 15.9646C11.7021 16.1215 11.7335 16.2767 11.7941 16.4214C11.8548 16.5661 11.9436 16.6972 12.0555 16.8072C12.1673 16.9172 12.2999 17.0039 12.4455 17.0622C12.5912 17.1204 12.747 17.1492 12.9038 17.1467C17.6388 17.1532 22.3734 17.1491 27.1078 17.1342C27.4002 17.1342 27.7453 16.9553 27.9716 16.7586C28.3292 16.4394 28.4133 15.9869 28.2013 15.5318C27.9796 15.0552 27.5915 14.8209 27.0613 14.8209C24.7084 14.8239 22.3564 14.8248 20.0054 14.8236H20.0045Z" fill="black"/>
<path d="M19.9991 24.2133C22.3686 24.2133 24.7382 24.2133 27.1078 24.2133C28.948 24.2133 30.3983 25.5188 30.6326 27.3608C30.8445 29.0285 29.6937 30.688 28.001 31.1271C27.6841 31.209 27.3582 31.2508 27.0309 31.2514C22.3514 31.2591 17.6719 31.2591 12.9923 31.2514C10.9 31.2451 9.33785 29.666 9.36557 27.6407C9.3915 25.7844 10.9402 24.225 12.801 24.2151C15.2009 24.2035 17.6 24.2133 19.9991 24.2133ZM20.0187 28.8836C22.3436 28.8836 24.6685 28.8988 26.9889 28.8666C27.3517 28.8468 27.6987 28.7118 27.9796 28.4812C28.3471 28.1745 28.416 27.706 28.1951 27.2562C27.9483 26.7519 27.5218 26.5409 26.962 26.5409C22.3445 26.545 17.7273 26.545 13.1104 26.5409C12.2895 26.5409 11.711 27.0246 11.702 27.7122C11.6931 28.3999 12.2529 28.8827 13.0934 28.8827C15.4021 28.8845 17.7106 28.8848 20.0187 28.8836Z" fill="black"/>
<path d="M4.31886 8.52148L2.67268 6.89587L4.16149 5.60558L4.04882 5.44194H0V3.08401H4.17847L2.64497 1.62471L4.3269 0L8.59302 4.267L4.31886 8.52148Z" fill="black"/>
</svg>
