<svg width="10" height="10" viewBox="0 0 10 10" fill="none" xmlns="http://www.w3.org/2000/svg">
<path d="M5 10C4.30556 10 3.65509 9.86806 3.04861 9.60417C2.44213 9.34028 1.91435 8.9838 1.46528 8.53472C1.0162 8.08565 0.659722 7.55787 0.395833 6.95139C0.131944 6.34491 0 5.69444 0 5C0 4.30556 0.131944 3.65509 0.395833 3.04861C0.659722 2.44213 1.0162 1.91435 1.46528 1.46528C1.91435 1.0162 2.44213 0.659722 3.04861 0.395833C3.65509 0.131944 4.30556 0 5 0C5.75926 0 6.47917 0.162037 7.15972 0.486111C7.84028 0.810185 8.41667 1.26852 8.88889 1.86111V0.555556H10V3.88889H6.66667V2.77778H8.19444C7.81482 2.25926 7.34722 1.85185 6.79167 1.55556C6.23611 1.25926 5.63889 1.11111 5 1.11111C3.91667 1.11111 2.99769 1.48843 2.24306 2.24306C1.48843 2.99769 1.11111 3.91667 1.11111 5C1.11111 6.08333 1.48843 7.00232 2.24306 7.75695C2.99769 8.51157 3.91667 8.88889 5 8.88889C5.97222 8.88889 6.82176 8.57407 7.54861 7.94445C8.27546 7.31482 8.7037 6.51852 8.83333 5.55556H9.97222C9.83333 6.82407 9.28935 7.88195 8.34028 8.72917C7.3912 9.57639 6.27778 10 5 10ZM6.55556 7.33333L4.44444 5.22222V2.22222H5.55556V4.77778L7.33333 6.55556L6.55556 7.33333Z" fill="#535358"/>
</svg>
