<svg width="32" height="30" viewBox="0 0 32 30" fill="none" xmlns="http://www.w3.org/2000/svg">
<path d="M28 0H4C1.79086 0 0 1.79086 0 4V26C0 28.2091 1.79086 30 4 30H28C30.2091 30 32 28.2091 32 26V4C32 1.79086 30.2091 0 28 0Z" fill="#2F3990"/>
<path d="M16.7999 14.0261C15.4599 13.4721 15.0729 13.1381 15.0729 12.5411C15.0729 12.0411 15.4249 11.5081 16.4139 11.5081C17.0447 11.5012 17.6652 11.6687 18.2068 11.9921C18.2434 12.0122 18.2836 12.0244 18.3251 12.028C18.3666 12.0316 18.4085 12.0265 18.4479 12.0131C18.4871 11.9991 18.5227 11.9767 18.5524 11.9475C18.5821 11.9183 18.6052 11.883 18.6199 11.8441L19.0038 10.8301C19.0281 10.7667 19.0291 10.6967 19.0065 10.6326C18.984 10.5685 18.9395 10.5144 18.8809 10.4801C18.3137 10.1535 17.6791 9.96163 17.0259 9.91913V8.70013C17.0259 8.62375 16.9956 8.55047 16.9416 8.49646C16.8876 8.44245 16.8142 8.41211 16.7379 8.41211H15.7848C15.7085 8.41211 15.6352 8.44245 15.5812 8.49646C15.5272 8.55047 15.4969 8.62375 15.4969 8.70013V10.0141C14.8519 10.1183 14.2647 10.4479 13.8399 10.9443C13.4151 11.4407 13.1802 12.0717 13.1769 12.7251C13.1769 14.3601 14.4829 15.0981 15.8919 15.6501C16.9969 16.0981 17.4479 16.5501 17.4479 17.2121C17.4479 17.9401 16.8289 18.4301 15.9079 18.4301C15.1789 18.4278 14.4661 18.2154 13.8549 17.8181C13.8185 17.7938 13.777 17.7782 13.7336 17.7723C13.6902 17.7665 13.646 17.7706 13.6044 17.7844C13.5629 17.7982 13.5251 17.8213 13.4938 17.8519C13.4625 17.8825 13.4386 17.9199 13.4239 17.9611L13.0549 18.9901C13.0332 19.0488 13.0313 19.113 13.0494 19.1729C13.0674 19.2328 13.1044 19.2852 13.1548 19.3221C13.8246 19.7477 14.5926 19.9943 15.3849 20.0381V21.3151C15.3849 21.3915 15.4153 21.4648 15.4693 21.5188C15.5233 21.5728 15.5965 21.6031 15.6729 21.6031H16.6409C16.7173 21.6031 16.7905 21.5728 16.8445 21.5188C16.8986 21.4648 16.9289 21.3915 16.9289 21.3151V19.9541C17.6021 19.8366 18.2131 19.4876 18.6563 18.9674C19.0995 18.4472 19.3469 17.7884 19.3559 17.1051C19.3609 15.6781 18.5999 14.7571 16.7999 14.0261Z" fill="white"/>
</svg>
