<svg width="14" height="15" viewBox="0 0 14 15" fill="none" xmlns="http://www.w3.org/2000/svg">
<path d="M10.8492 0.195312H3.15079C1.41066 0.195312 0 1.60597 0 3.3461V11.0445C0 12.7847 1.41066 14.1953 3.15079 14.1953H10.8492C12.5893 14.1953 14 12.7847 14 11.0445V3.3461C14 1.60597 12.5893 0.195312 10.8492 0.195312Z" fill="#1CB303"/>
<path d="M10.9938 4.82056C10.944 4.96901 10.8557 5.10155 10.7378 5.20456C8.60376 7.34156 8.62176 7.32355 6.49076 9.46155C6.40048 9.568 6.27672 9.64066 6.13976 9.66757C6.04786 9.68108 5.95405 9.67151 5.86677 9.63974C5.77948 9.60797 5.70147 9.55499 5.63976 9.48557C4.72876 8.56857 4.56976 8.41057 3.65676 7.49457C3.48876 7.32657 3.31876 7.15956 3.15676 6.98856C3.08604 6.91786 3.03655 6.82876 3.0139 6.73135C2.99125 6.63395 2.99636 6.53215 3.02864 6.4375C3.06091 6.34285 3.11907 6.25916 3.19651 6.19589C3.27396 6.13262 3.36758 6.09231 3.46676 6.07956C3.54974 6.06749 3.6344 6.07574 3.71348 6.10361C3.79256 6.13148 3.86369 6.17814 3.92076 6.23956C4.07976 6.39656 4.23776 6.55557 4.39576 6.71457L5.96576 8.28955C5.9913 8.32084 6.01405 8.35431 6.03376 8.38956L6.08576 8.40256C6.10552 8.36088 6.13001 8.32162 6.15876 8.28555L10.0348 4.39557C10.09 4.33066 10.1591 4.27897 10.237 4.24435C10.3149 4.20974 10.3996 4.19306 10.4848 4.19556C10.5924 4.19865 10.6964 4.23489 10.7827 4.29932C10.869 4.36375 10.9332 4.45325 10.9668 4.55557C10.9768 4.58157 10.9868 4.60855 10.9968 4.63455L10.9938 4.82056Z" fill="white"/>
</svg>
