<svg width="8" height="10" viewBox="0 0 8 10" fill="none" xmlns="http://www.w3.org/2000/svg">
<path d="M4.08157 0C4.28155 0.00316029 4.47213 0.0854383 4.61158 0.228821C4.75103 0.372203 4.82798 0.565019 4.82557 0.765015V6.41302L6.28956 4.87201C6.35482 4.80214 6.43322 4.74581 6.52026 4.70624C6.60729 4.66667 6.70127 4.64461 6.79682 4.64136C6.89237 4.63811 6.98763 4.65375 7.07716 4.68732C7.16668 4.72088 7.2487 4.77177 7.31857 4.83704L7.35157 4.87103C7.48631 5.01621 7.56118 5.20696 7.56118 5.40503C7.56118 5.6031 7.48631 5.79385 7.35157 5.93903L4.60957 8.82404C4.5413 8.89669 4.45887 8.95456 4.36738 8.99414C4.27588 9.03372 4.17726 9.05414 4.07757 9.05414C3.97788 9.05414 3.87924 9.03372 3.78774 8.99414C3.69625 8.95456 3.61383 8.89669 3.54557 8.82404L0.804565 5.94C0.669102 5.79499 0.59375 5.60396 0.59375 5.40552C0.59375 5.20707 0.669102 5.01605 0.804565 4.87103L0.810562 4.86499C0.87911 4.79322 0.961591 4.73622 1.05295 4.69745C1.14431 4.65868 1.24262 4.63896 1.34186 4.63953C1.4411 4.64009 1.53918 4.66094 1.6301 4.70074C1.72101 4.74055 1.80284 4.7985 1.87057 4.87103L3.33356 6.41101V0.763C3.3317 0.562666 3.40942 0.369809 3.54967 0.226746C3.68993 0.0836822 3.88123 0.00211134 4.08157 0Z" fill="#5463E8"/>
</svg>
