<svg width="15" height="8" viewBox="0 0 15 8" fill="none" xmlns="http://www.w3.org/2000/svg">
<path fill-rule="evenodd" clip-rule="evenodd" d="M14.6791 0.268736C14.5037 0.09532 14.2702 -0.000208 14.0219 -0.000208C13.7735 -0.000208 13.54 0.09532 13.3648 0.268736L7.77586 5.78512L2.1871 0.269768C2.0117 0.096216 1.77823 0.00056 1.52976 0.00056C1.28129 0.00056 1.04783 0.095448 0.871865 0.269768C0.509863 0.627296 0.509863 1.20974 0.872052 1.56804L7.11833 7.73356C7.29228 7.90466 7.52554 7.99891 7.77531 7.99891C7.77531 7.99891 7.77531 7.99891 7.77548 7.99891C8.0258 7.99891 8.25944 7.90428 8.43302 7.7324L14.6793 1.5674C15.0406 1.20974 15.0406 0.627296 14.6791 0.268736Z" fill="black"/>
</svg>
