<svg width="69" height="69" viewBox="0 0 69 69" fill="none" xmlns="http://www.w3.org/2000/svg">
<path d="M69 34.5025C69.0005 27.6788 66.9775 21.0082 63.1867 15.3344C59.396 9.66049 54.0079 5.23816 47.7037 2.62663C41.3996 0.0151044 34.4626 -0.668305 27.77 0.662807C21.0774 1.99392 14.9299 5.27978 10.1048 10.1048C5.27978 14.9299 1.99391 21.0774 0.662803 27.77C-0.668309 34.4626 0.0151154 41.3996 2.62664 47.7037C5.23817 54.0079 9.6605 59.396 15.3344 63.1867C21.0082 66.9775 27.6788 69.0005 34.5025 69C39.0327 69 43.5187 68.1077 47.7041 66.374C51.8895 64.6404 55.6925 62.0993 58.8959 58.8959C62.0993 55.6925 64.6404 51.8895 66.374 47.7041C68.1077 43.5187 69 39.0328 69 34.5025Z" fill="white"/>
<path d="M22.8333 49.6667C21.7792 49.6667 20.8767 49.2913 20.126 48.5406C19.3753 47.7899 19 46.8875 19 45.8333V40.0833H22.8333V45.8333H45.8333V40.0833H49.6667V45.8333C49.6667 46.8875 49.2913 47.7899 48.5406 48.5406C47.7899 49.2913 46.8875 49.6667 45.8333 49.6667H22.8333ZM34.3333 42L24.75 32.4167L27.4333 29.6375L32.4167 34.6208V19H36.25V34.6208L41.2333 29.6375L43.9167 32.4167L34.3333 42Z" fill="#27C26C"/>
</svg>
