<svg width="15" height="14" viewBox="0 0 15 14" fill="none" xmlns="http://www.w3.org/2000/svg">
<path d="M6.36974 8.6001V8.42593C6.36974 5.85641 6.36974 3.28688 6.36974 0.717354C6.36974 0.460878 6.43813 0.248142 6.66081 0.103005C6.75353 0.0422598 6.86063 0.00705811 6.97131 0.000955467C7.08198 -0.00514718 7.19231 0.0180654 7.29114 0.0682487C7.38998 0.118432 7.47382 0.193809 7.5342 0.286765C7.59458 0.379722 7.62935 0.486966 7.63502 0.597665C7.639 0.662082 7.6378 0.726897 7.6378 0.791711V8.64185C7.70023 8.58141 7.73761 8.54642 7.77379 8.51063C8.63136 7.6528 9.48893 6.79509 10.3465 5.93752C10.5282 5.75581 10.7441 5.69338 10.9883 5.76018C11.1004 5.78787 11.2022 5.84737 11.2814 5.93153C11.3605 6.01568 11.4137 6.12091 11.4344 6.23456C11.4599 6.33914 11.4572 6.44859 11.4267 6.5518C11.3961 6.65501 11.3389 6.74832 11.2607 6.82227C11.0869 7.00001 10.9096 7.17457 10.7338 7.34993L7.52805 10.5553C7.17654 10.9068 6.83179 10.9068 6.48148 10.5553C5.24748 9.32181 4.01374 8.08821 2.78028 6.85448C2.53295 6.60714 2.48722 6.29421 2.65502 6.02938C2.87451 5.68423 3.34571 5.63174 3.64911 5.92599C3.98352 6.25206 4.31117 6.58527 4.6432 6.91571C5.17338 7.44589 5.70357 7.97608 6.23375 8.50626C6.26834 8.54085 6.29816 8.58062 6.32998 8.61799L6.36974 8.6001ZM1.27602 12.5486C1.27602 11.7732 1.27602 10.9978 1.27602 10.2221C1.27602 10.0109 1.2116 9.82959 1.04738 9.69479C0.844979 9.52858 0.614748 9.49319 0.377359 9.60214C0.115317 9.72143 0 9.94212 0 10.2264C0 11.2505 0 12.2744 0 13.2982C0 13.7403 0.263236 14 0.709385 14C4.90524 14 9.1011 14 13.297 14C13.7423 14 14.0048 13.7395 14.0052 13.297C14.0073 12.2782 14.0073 11.2594 14.0052 10.2403C14.0057 10.1458 13.991 10.0519 13.9618 9.962C13.9144 9.82446 13.8202 9.70795 13.6956 9.6328C13.571 9.55765 13.424 9.52865 13.2803 9.55085C12.9582 9.60214 12.7347 9.85146 12.7331 10.1779C12.7295 10.9732 12.7331 11.7685 12.7331 12.5637V12.7228H1.27602V12.5486Z" fill="#818181"/>
</svg>
