<svg width="8" height="14" viewBox="0 0 8 14" fill="none" xmlns="http://www.w3.org/2000/svg">
<path d="M1.08333 3.07682C1.68164 3.07682 2.16667 2.5918 2.16667 1.99349C2.16667 1.39518 1.68164 0.910156 1.08333 0.910156C0.485025 0.910156 0 1.39518 0 1.99349C0 2.5918 0.485025 3.07682 1.08333 3.07682Z" fill="#959595"/>
<path d="M6.5 3.07682C7.09831 3.07682 7.58333 2.5918 7.58333 1.99349C7.58333 1.39518 7.09831 0.910156 6.5 0.910156C5.90169 0.910156 5.41667 1.39518 5.41667 1.99349C5.41667 2.5918 5.90169 3.07682 6.5 3.07682Z" fill="#959595"/>
<path d="M1.08333 8.49284C1.68164 8.49284 2.16667 8.00781 2.16667 7.40951C2.16667 6.8112 1.68164 6.32617 1.08333 6.32617C0.485025 6.32617 0 6.8112 0 7.40951C0 8.00781 0.485025 8.49284 1.08333 8.49284Z" fill="#959595"/>
<path d="M6.5 8.49284C7.09831 8.49284 7.58333 8.00781 7.58333 7.40951C7.58333 6.8112 7.09831 6.32617 6.5 6.32617C5.90169 6.32617 5.41667 6.8112 5.41667 7.40951C5.41667 8.00781 5.90169 8.49284 6.5 8.49284Z" fill="#959595"/>
<path d="M2.16667 12.8275C2.16667 13.4258 1.68164 13.9108 1.08333 13.9108C0.485025 13.9108 0 13.4258 0 12.8275C0 12.2292 0.485025 11.7441 1.08333 11.7441C1.68164 11.7441 2.16667 12.2292 2.16667 12.8275Z" fill="#959595"/>
<path d="M7.58333 12.8275C7.58333 13.4258 7.09831 13.9108 6.5 13.9108C5.90169 13.9108 5.41667 13.4258 5.41667 12.8275C5.41667 12.2292 5.90169 11.7441 6.5 11.7441C7.09831 11.7441 7.58333 12.2292 7.58333 12.8275Z" fill="#959595"/>
</svg>
