<svg width="9" height="21" viewBox="0 0 9 21" fill="none" xmlns="http://www.w3.org/2000/svg">
<path d="M9 18.5996C9 19.5937 8.19411 20.3996 7.2 20.3996C6.20589 20.3996 5.4 19.5937 5.4 18.5996C5.4 17.6054 6.20589 16.7996 7.2 16.7996C8.19411 16.7996 9 17.6054 9 18.5996Z" fill="#D9D9D9"/>
<path d="M3.6 18.5996C3.6 19.5937 2.79411 20.3996 1.8 20.3996C0.805887 20.3996 0 19.5937 0 18.5996C0 17.6055 0.805887 16.7996 1.8 16.7996C2.79411 16.7996 3.6 17.6055 3.6 18.5996Z" fill="#D9D9D9"/>
<path d="M9 13.1996C9 14.1937 8.19411 14.9996 7.2 14.9996C6.20589 14.9996 5.4 14.1937 5.4 13.1996C5.4 12.2055 6.20589 11.3996 7.2 11.3996C8.19411 11.3996 9 12.2055 9 13.1996Z" fill="#D9D9D9"/>
<path d="M3.6 13.1996C3.6 14.1937 2.79411 14.9996 1.8 14.9996C0.805887 14.9996 0 14.1937 0 13.1996C0 12.2055 0.805887 11.3996 1.8 11.3996C2.79411 11.3996 3.6 12.2055 3.6 13.1996Z" fill="#D9D9D9"/>
<path d="M9 7.79961C9 8.79372 8.19411 9.59961 7.2 9.59961C6.20589 9.59961 5.4 8.79372 5.4 7.79961C5.4 6.8055 6.20589 5.99961 7.2 5.99961C8.19411 5.99961 9 6.8055 9 7.79961Z" fill="#D9D9D9"/>
<path d="M3.6 7.79961C3.6 8.79372 2.79411 9.59961 1.8 9.59961C0.805887 9.59961 0 8.79372 0 7.79961C0 6.8055 0.805887 5.99961 1.8 5.99961C2.79411 5.99961 3.6 6.8055 3.6 7.79961Z" fill="#D9D9D9"/>
<path d="M9 2.39963C9 3.39375 8.19411 4.19963 7.2 4.19963C6.20589 4.19963 5.4 3.39375 5.4 2.39963C5.4 1.40552 6.20589 0.599634 7.2 0.599634C8.19411 0.599634 9 1.40552 9 2.39963Z" fill="#D9D9D9"/>
<path d="M3.6 2.39961C3.6 3.39372 2.79411 4.19961 1.8 4.19961C0.805887 4.19961 0 3.39372 0 2.39961C0 1.4055 0.805887 0.599609 1.8 0.599609C2.79411 0.599609 3.6 1.4055 3.6 2.39961Z" fill="#D9D9D9"/>
</svg>
