<svg width="20" height="21" viewBox="0 0 20 21" fill="none" xmlns="http://www.w3.org/2000/svg">
<path d="M6.95029 20.826C5.36775 20.826 3.78522 20.826 2.20268 20.826C0.811683 20.826 0.00470993 20.0147 0 18.6206C0 16.3609 0 14.1015 0 11.8423C0 10.4941 0.818734 9.6622 2.14929 9.66061C5.35361 9.66061 8.55793 9.66061 11.7623 9.66061C13.1077 9.66061 13.9139 10.4687 13.9178 11.828C13.9241 14.1015 13.9241 16.3749 13.9178 18.6483C13.9178 20.0314 13.1132 20.8261 11.7363 20.8276C10.1418 20.8276 8.54643 20.8271 6.95029 20.826ZM13.125 18.0075C13.1386 17.9414 13.1475 17.8743 13.1517 17.8069C13.1517 15.7862 13.1603 13.7623 13.1517 11.744C13.147 10.9113 12.6493 10.4457 11.8007 10.4449C8.59798 10.4449 5.39496 10.4449 2.19168 10.4449C1.2565 10.4449 0.788898 10.9144 0.788898 11.8534C0.788898 13.1477 0.788898 14.443 0.788898 15.7394V17.5896C0.963165 17.3731 1.06679 17.2462 1.16805 17.1138C2.04619 15.9971 2.92462 14.8808 3.80328 13.7647C4.37162 13.0438 4.45089 13.0462 5.00744 13.7552C5.88271 14.871 6.75955 15.986 7.594 17.0479C8.23455 16.4389 8.86645 15.848 9.48659 15.2453C9.89322 14.8488 9.99995 14.8393 10.3822 15.2382C10.9553 15.8354 11.5205 16.4412 12.1006 17.0321C12.4224 17.3683 12.7765 17.6792 13.1289 18.0075H13.125ZM4.41556 14.2706C4.31587 14.3848 4.23578 14.4681 4.16435 14.5577C3.12816 15.8679 2.09201 17.178 1.05582 18.4881C0.719065 18.9132 0.73474 19.2621 1.10918 19.6587C1.37922 19.9434 1.71518 20.0409 2.10218 20.0401C4.25933 20.0338 6.41965 20.0401 8.57523 20.0401C8.67178 20.0401 8.76834 20.029 8.92848 20.0187L4.41556 14.2706ZM8.13797 17.753C8.69766 18.4802 9.22127 19.1717 9.76134 19.8498C9.85154 19.9527 9.97746 20.0166 10.113 20.0282C10.741 20.0457 11.369 20.0425 11.997 20.033C12.4044 20.0266 12.7153 19.8268 12.95 19.4953C13.0873 19.3002 13.107 19.1471 12.9029 18.9576C12.5182 18.6023 12.1744 18.2018 11.7976 17.8354C11.1594 17.2153 10.5094 16.6078 9.92619 16.0542L8.13797 17.753Z" fill="black"/>
<path d="M19.1733 6.32819C18.2832 6.32819 17.4205 6.28457 16.5633 6.33771C15.2178 6.41701 14.2248 5.48358 14.2947 4.03784C14.3331 3.24955 14.3017 2.45808 14.3017 1.64203H4.69422V2.06156C4.69422 4.10923 4.69422 6.15742 4.69422 8.20615C4.69422 8.3378 4.73115 8.50196 4.66835 8.59316C4.57651 8.72719 4.41401 8.88104 4.27586 8.88897C4.16517 8.89452 4.02622 8.70656 3.93281 8.57968C3.88806 8.51861 3.9179 8.40045 3.9179 8.30766C3.9179 6.02208 3.9179 3.73596 3.9179 1.44932C3.9179 0.91242 3.9964 0.829143 4.53255 0.82835C7.85462 0.82835 11.1775 0.823592 14.5019 0.83866C14.7293 0.848147 14.9466 0.93635 15.1173 1.08847C16.6596 2.55668 18.189 4.03706 19.7056 5.52959C19.8727 5.70457 19.9717 5.93467 19.9842 6.17752C20.001 10.2744 20.0044 14.3719 19.9944 18.4699C19.9944 19.8918 19.0572 20.8142 17.6395 20.8197C16.7242 20.8197 15.8089 20.8197 14.892 20.8197C14.6086 20.8197 14.3425 20.7793 14.3425 20.4176C14.3425 20.056 14.6204 20.0306 14.9014 20.0314C15.8301 20.0314 16.7587 20.037 17.6874 20.0314C18.6003 20.0259 19.1961 19.4485 19.1985 18.5246C19.2068 14.5472 19.2068 10.5697 19.1985 6.59228C19.1985 6.52567 19.1875 6.46063 19.1733 6.32819ZM18.5807 5.52404L15.093 2.14482C15.093 3.00291 15.0608 3.76424 15.104 4.52399C15.1346 5.04899 15.5428 5.48914 16.0248 5.51373C16.8427 5.55417 17.6615 5.52404 18.583 5.52404H18.5807Z" fill="black"/>
<path d="M9.63417 4.8087C10.4576 4.8087 11.2826 4.8087 12.1053 4.8087C12.3934 4.8087 12.6548 4.8547 12.6462 5.21634C12.6391 5.551 12.3895 5.59938 12.1171 5.59938C10.4571 5.59938 8.79686 5.59938 7.13635 5.59938C6.84747 5.59938 6.58684 5.54227 6.59234 5.18936C6.59862 4.86183 6.8506 4.80712 7.12378 4.80791C7.96058 4.81108 8.79737 4.8087 9.63417 4.8087Z" fill="black"/>
<path d="M8.31144 7.50668C7.90796 7.50668 7.50371 7.50668 7.10023 7.50668C6.81999 7.50668 6.58761 7.43451 6.59075 7.11015C6.59075 6.81117 6.8129 6.72155 7.07665 6.72155C7.89775 6.72155 8.7186 6.72155 9.53917 6.72155C9.80371 6.72155 10.0243 6.80958 10.0298 7.10698C10.0353 7.43134 9.80527 7.51381 9.52346 7.50985C9.11997 7.50271 8.71571 7.50668 8.31144 7.50668Z" fill="black"/>
<path d="M10.2661 11.606C10.4327 11.602 10.5984 11.632 10.7533 11.6942C10.9082 11.7564 11.0491 11.8495 11.1676 11.968C11.2861 12.0864 11.3797 12.2278 11.4429 12.3836C11.5061 12.5394 11.5376 12.7065 11.5354 12.8749C11.5346 13.0418 11.5011 13.2069 11.4371 13.3608C11.373 13.5147 11.2796 13.6544 11.1621 13.7718C11.0447 13.8892 10.9055 13.9821 10.7525 14.0452C10.5995 14.1083 10.4357 14.1403 10.2704 14.1394C10.1052 14.1385 9.94171 14.1048 9.78937 14.04C9.63704 13.9753 9.49881 13.881 9.38258 13.7623C9.26635 13.6436 9.1744 13.503 9.11198 13.3484C9.04955 13.1938 9.01788 13.0283 9.01876 12.8614C9.02083 12.5283 9.15304 12.2094 9.38665 11.9743C9.62026 11.7392 9.93633 11.6068 10.2661 11.606ZM10.7551 12.8265C10.7371 12.5814 10.5864 12.4133 10.2967 12.3951C10.2319 12.3902 10.1669 12.3992 10.1058 12.4216C10.0447 12.4439 9.98901 12.479 9.94231 12.5246C9.89561 12.5702 9.85899 12.6253 9.83483 12.6862C9.81068 12.7471 9.79956 12.8125 9.80218 12.878C9.81238 13.1723 9.98114 13.3348 10.2622 13.3602C10.5432 13.3856 10.7559 13.1564 10.7551 12.8297V12.8265Z" fill="black"/>
</svg>
