<svg width="12" height="12" viewBox="0 0 12 12" fill="none" xmlns="http://www.w3.org/2000/svg">
<path d="M9.86644 0.365642C10.3535 -0.121881 11.1465 -0.121881 11.634 0.365642C11.8699 0.601556 12 0.915575 12 1.24959C12 1.5836 11.8699 1.89763 11.634 2.13312L10.942 2.82519L9.17449 1.0576L9.86644 0.365642Z" fill="#818181"/>
<path d="M4.68792 5.54428C4.65292 5.57925 4.62948 5.6238 4.61942 5.67174L4.26601 7.4399C4.24948 7.52183 4.27551 7.60633 4.33442 7.66581C4.38196 7.71334 4.44594 7.73878 4.51149 7.73878C4.52746 7.73878 4.54399 7.73734 4.56051 7.73384L6.32802 7.38036C6.37695 7.37027 6.42145 7.34684 6.45598 7.31176L10.412 3.35566L8.64447 1.58818L4.68792 5.54428Z" fill="#818181"/>
<path d="M9.49992 5.99978C9.22342 5.99978 9 6.22385 9 6.49977V10.4999C9 10.7755 8.77594 10.9999 8.49998 10.9999H1.49995C1.224 10.9999 1.00002 10.7755 1.00002 10.4999V3.49971C1.00002 3.22419 1.224 2.99972 1.49995 2.99972H5.49998C5.77649 2.99972 6 2.77566 6 2.49968C6 2.22366 5.77649 1.99965 5.49998 1.99965H1.49995C0.673024 1.99965 0 2.67266 0 3.49971V10.4999C0 11.327 0.673024 12 1.49995 12H8.49998C9.327 12 10 11.327 10 10.4999V6.49977C10 6.22327 9.77643 5.99978 9.49992 5.99978Z" fill="#818181"/>
</svg>
