<svg width="17" height="17" viewBox="0 0 17 17" fill="none" xmlns="http://www.w3.org/2000/svg">
<path d="M2.10197 16.9611C1.54218 16.9578 1.00659 16.7327 0.61256 16.335C0.218528 15.9374 -0.0017948 15.3998 1.10137e-05 14.84V4.94643C-0.0017948 4.38663 0.218528 3.84892 0.61256 3.45128C1.00659 3.05365 1.54218 2.8285 2.10197 2.82521H7.70905C7.89647 2.82521 8.07617 2.89965 8.2087 3.03218C8.34123 3.1647 8.41573 3.34447 8.41573 3.53189C8.41573 3.71931 8.34123 3.89908 8.2087 4.03161C8.07617 4.16413 7.89647 4.23857 7.70905 4.23857H2.10197C1.91554 4.23977 1.73725 4.31487 1.60606 4.44733C1.47486 4.5798 1.40145 4.75882 1.40206 4.94525V14.8388C1.40115 15.0254 1.47442 15.2048 1.60564 15.3375C1.73687 15.4703 1.91535 15.5455 2.10197 15.5467H11.913C12.0055 15.5462 12.097 15.5275 12.1823 15.4917C12.2676 15.4559 12.345 15.4036 12.4101 15.3379C12.4752 15.2722 12.5267 15.1943 12.5617 15.1086C12.5967 15.023 12.6144 14.9313 12.614 14.8388V9.18534C12.614 8.99942 12.6879 8.8211 12.8194 8.68963C12.9508 8.55816 13.1291 8.48432 13.315 8.48432C13.5009 8.48432 13.6792 8.55816 13.8107 8.68963C13.9421 8.8211 14.016 8.99942 14.016 9.18534V14.8388C14.0179 15.3988 13.7975 15.9366 13.4032 16.3343C13.0089 16.732 12.473 16.957 11.913 16.96L2.10197 16.9611ZM6.07526 10.835C6.0343 10.7936 6.0041 10.7428 5.98734 10.687C5.97059 10.6313 5.96769 10.5722 5.97906 10.5151L6.47429 8.01621C6.48867 7.9484 6.52209 7.88606 6.57049 7.83644L12.1109 2.24516L14.5893 4.74401L9.04899 10.3353C9.00078 10.3852 8.93834 10.4192 8.87024 10.4325L6.39299 10.9323C6.37031 10.937 6.34715 10.9393 6.32398 10.9391C6.2313 10.9384 6.14265 10.9009 6.07747 10.835H6.07526ZM12.8594 1.49556L13.8294 0.517451C13.9914 0.353528 14.1844 0.223399 14.397 0.134573C14.6096 0.0457469 14.8378 0 15.0682 0C15.2986 0 15.5268 0.0457469 15.7394 0.134573C15.952 0.223399 16.1449 0.353528 16.3068 0.517451C16.6356 0.849972 16.82 1.29877 16.82 1.76636C16.82 2.23395 16.6356 2.68268 16.3068 3.0152L15.3367 3.99434L12.8594 1.49556Z" fill="#818181"/>
</svg>
