<svg width="20" height="20" viewBox="0 0 20 20" fill="none" xmlns="http://www.w3.org/2000/svg">
<path d="M16.3066 0.609403C17.1117 -0.203135 18.4222 -0.203135 19.2278 0.609403C19.6178 1.00259 19.8328 1.52596 19.8328 2.08264C19.8328 2.63933 19.6178 3.16271 19.2278 3.5552L18.0842 4.70865L15.163 1.76267L16.3066 0.609403Z" fill="#3845B3"/>
<path d="M7.74789 9.24047C7.69005 9.29875 7.65131 9.37301 7.63467 9.4529L7.05059 12.3998C7.02327 12.5364 7.06629 12.6772 7.16365 12.7764C7.24222 12.8556 7.34796 12.898 7.4563 12.898C7.4827 12.898 7.51002 12.8956 7.53732 12.8897L10.4585 12.3006C10.5394 12.2838 10.613 12.2447 10.67 12.1863L17.2082 5.59277L14.287 2.64697L7.74789 9.24047Z" fill="#3845B3"/>
<path d="M15.7009 9.99963C15.2439 9.99963 14.8746 10.3731 14.8746 10.8329V17.4999C14.8746 17.9591 14.5043 18.3332 14.0482 18.3332H2.47901C2.02295 18.3332 1.65278 17.9591 1.65278 17.4999V5.83284C1.65278 5.37365 2.02295 4.99953 2.47901 4.99953H9.09001C9.547 4.99953 9.91641 4.62609 9.91641 4.16613C9.91641 3.7061 9.547 3.33275 9.09001 3.33275H2.47901C1.11233 3.33275 0 4.45444 0 5.83284V17.4999C0 18.8783 1.11233 20 2.47901 20H14.0482C15.4151 20 16.5274 18.8783 16.5274 17.4999V10.8329C16.5274 10.3721 16.1578 9.99963 15.7009 9.99963Z" fill="#3845B3"/>
</svg>
