<svg width="12" height="13" viewBox="0 0 12 13" fill="none" xmlns="http://www.w3.org/2000/svg">
<path d="M1.50153 0.379883C1.50153 0.179883 1.32653 0.00488281 1.12653 0.00488281H0.376526C0.176526 0.00488281 0.00152588 0.179883 0.00152588 0.379883V11.6299C0.00152588 11.8299 0.176526 12.0049 0.376526 12.0049H1.12653C1.32653 12.0049 1.50153 11.8299 1.50153 11.6299V0.379883Z" fill="#3845B3"/>
<path d="M11.1265 1.42983C7.12653 3.52983 7.57653 -0.770171 2.75153 0.904829C2.60153 0.954829 2.50153 1.10483 2.50153 1.25483V7.07983C2.50153 7.25483 2.67653 7.37983 2.82653 7.30483C7.62653 5.70483 7.12653 10.1048 11.3015 7.75483C11.4265 7.67983 11.5015 7.55483 11.5015 7.42983V1.62983C11.5015 1.45483 11.3015 1.32983 11.1265 1.42983Z" fill="#3845B3"/>
</svg>
