<svg width="17" height="16" viewBox="0 0 17 16" fill="none" xmlns="http://www.w3.org/2000/svg">
<path d="M13.8113 0.487523C14.4553 -0.162508 15.5038 -0.162508 16.1483 0.487523C16.4603 0.802074 16.6323 1.22077 16.6323 1.66611C16.6323 2.11146 16.4603 2.53017 16.1483 2.84416L15.2334 3.76692L12.8964 1.41014L13.8113 0.487523Z" fill="#3845B3"/>
<path d="M6.9643 7.39238C6.91803 7.439 6.88704 7.49841 6.87373 7.56232L6.40646 9.91986C6.38461 10.0291 6.41902 10.1418 6.49691 10.2211C6.55977 10.2845 6.64436 10.3184 6.73103 10.3184C6.75215 10.3184 6.774 10.3165 6.79584 10.3118L9.13282 9.84049C9.19752 9.82703 9.25635 9.79578 9.30202 9.74902L14.5326 4.47422L12.1956 2.11757L6.9643 7.39238Z" fill="#3845B3"/>
<path d="M13.3267 7.9997C12.9611 7.9997 12.6657 8.29846 12.6657 8.66636V13.9999C12.6657 14.3673 12.3694 14.6666 12.0046 14.6666H2.7492C2.38435 14.6666 2.08821 14.3673 2.08821 13.9999V4.66627C2.08821 4.29892 2.38435 3.99962 2.7492 3.99962H8.038C8.40359 3.99962 8.69912 3.70088 8.69912 3.3329C8.69912 2.96488 8.40359 2.6662 8.038 2.6662H2.7492C1.65586 2.6662 0.765991 3.56355 0.765991 4.66627V13.9999C0.765991 15.1026 1.65586 16 2.7492 16H12.0046C13.098 16 13.9879 15.1026 13.9879 13.9999V8.66636C13.9879 8.2977 13.6923 7.9997 13.3267 7.9997Z" fill="#3845B3"/>
</svg>
