<svg width="15" height="16" viewBox="0 0 15 16" fill="none" xmlns="http://www.w3.org/2000/svg">
<path d="M1.98402 15.653C1.48893 15.6501 1.01525 15.451 0.666758 15.0993C0.318269 14.7476 0.123413 14.2721 0.12501 13.777V5.02704C0.123413 4.53195 0.318269 4.05639 0.666758 3.70471C1.01525 3.35304 1.48893 3.15391 1.98402 3.151H6.943C7.10876 3.151 7.26769 3.21684 7.3849 3.33405C7.50211 3.45126 7.568 3.61024 7.568 3.776C7.568 3.94176 7.50211 4.10075 7.3849 4.21796C7.26769 4.33517 7.10876 4.401 6.943 4.401H1.98402C1.81914 4.40206 1.66145 4.46848 1.54542 4.58563C1.42939 4.70279 1.36447 4.86112 1.365 5.026V13.776C1.3642 13.9411 1.429 14.0997 1.54505 14.2171C1.66111 14.3345 1.81896 14.401 1.98402 14.402H10.661C10.7428 14.4016 10.8237 14.3851 10.8992 14.3535C10.9746 14.3218 11.0431 14.2755 11.1007 14.2174C11.1583 14.1593 11.2038 14.0904 11.2348 14.0146C11.2657 13.9389 11.2814 13.8578 11.281 13.776V8.776C11.281 8.61157 11.3464 8.45386 11.4627 8.33759C11.5789 8.22131 11.7366 8.15601 11.901 8.15601C12.0654 8.15601 12.2231 8.22131 12.3394 8.33759C12.4556 8.45386 12.521 8.61157 12.521 8.776V13.776C12.5226 14.2713 12.3277 14.7469 11.979 15.0986C11.6303 15.4503 11.1563 15.6494 10.661 15.652L1.98402 15.653ZM5.49806 10.235C5.46183 10.1984 5.43512 10.1535 5.4203 10.1041C5.40548 10.0548 5.40292 10.0026 5.41297 9.95203L5.85096 7.742C5.86368 7.68203 5.89324 7.6269 5.93604 7.58301L10.8361 2.638L13.028 4.84802L8.12806 9.79303C8.08543 9.83718 8.0302 9.8672 7.96998 9.87903L5.77906 10.321C5.759 10.3252 5.73852 10.3272 5.71803 10.327C5.63605 10.3264 5.55765 10.2933 5.50001 10.235H5.49806ZM11.4981 1.97504L12.356 1.10999C12.4992 0.965009 12.6699 0.849922 12.8579 0.771362C13.046 0.692803 13.2477 0.652344 13.4515 0.652344C13.6553 0.652344 13.8571 0.692803 14.0452 0.771362C14.2332 0.849922 14.4038 0.965009 14.547 1.10999C14.8378 1.40407 15.0009 1.80099 15.0009 2.21454C15.0009 2.62808 14.8378 3.02494 14.547 3.31903L13.689 4.185L11.4981 1.97504Z" fill="#2C2C2C"/>
</svg>
