<svg width="8" height="4" viewBox="0 0 8 4" fill="none" xmlns="http://www.w3.org/2000/svg">
<path fill-rule="evenodd" clip-rule="evenodd" d="M7.43709 0.134368C7.35182 0.04766 7.23833 -0.000104 7.11763 -0.000104C6.99685 -0.000104 6.88336 0.04766 6.79818 0.134368L4.08134 2.89256L1.36458 0.134884C1.27932 0.048108 1.16583 0.00028 1.04504 0.00028C0.924255 0.00028 0.810764 0.047724 0.725231 0.134884C0.549258 0.313648 0.549258 0.604872 0.725315 0.78402L3.7617 3.86678C3.84626 3.95233 3.95966 3.99946 4.08107 3.99946C4.08107 3.99946 4.08107 3.99946 4.08116 3.99946C4.20283 3.99946 4.31641 3.95214 4.40079 3.8662L7.43717 0.7837C7.61279 0.604872 7.61279 0.313648 7.43709 0.134368Z" fill="white"/>
</svg>
