<svg width="15" height="11" viewBox="0 0 15 11" fill="none" xmlns="http://www.w3.org/2000/svg">
<path d="M8.45421 0.419763C8.315 0.423247 8.18064 0.471416 8.07067 0.556852C7.9607 0.642289 7.88117 0.760743 7.84345 0.8948L5.23757 9.58119C5.17092 9.80432 5.22818 10.0459 5.38814 10.2153C5.54795 10.3845 5.78593 10.4557 6.0124 10.4019C6.23901 10.3481 6.41957 10.1776 6.48623 9.95446L9.09211 1.26806C9.15588 1.0672 9.11847 0.848014 8.99183 0.67956C8.8652 0.511106 8.66494 0.414322 8.45425 0.419774L8.45421 0.419763ZM4.09085 1.07811C3.9221 1.08826 3.76381 1.16369 3.64974 1.28851L0.175109 4.98019C0.0625618 5.10077 0 5.25967 0 5.42463C0 5.58959 0.0625618 5.74849 0.175109 5.86923L3.64974 9.56091C3.76471 9.698 3.93104 9.78191 4.10962 9.79267C4.28821 9.80358 4.46347 9.74041 4.59419 9.61817C4.72492 9.49577 4.79945 9.32521 4.80051 9.14615C4.80157 8.96726 4.72901 8.79563 4.5998 8.67189L1.54599 5.42799L4.5998 2.17742C4.72038 2.05048 4.7849 1.88036 4.77854 1.70525C4.77233 1.53029 4.69584 1.36518 4.56647 1.2472C4.43711 1.12919 4.26564 1.06815 4.09081 1.07799L4.09085 1.07811ZM10.1508 1.07811C9.98611 1.09098 9.83237 1.16581 9.72087 1.28775C9.60923 1.40954 9.54819 1.5692 9.54985 1.73432C9.55152 1.89959 9.61605 2.05789 9.72996 2.17741L12.7838 5.42798L9.72996 8.67173V8.67188C9.60075 8.79564 9.52819 8.96727 9.52925 9.14614C9.53031 9.32519 9.60484 9.49575 9.73556 9.61815C9.86629 9.7404 10.0415 9.80356 10.2201 9.79266C10.3987 9.7819 10.5651 9.69798 10.68 9.56089L14.1546 5.86922C14.2672 5.74849 14.3298 5.58959 14.3298 5.42462C14.3298 5.25966 14.2672 5.10076 14.1546 4.98018L10.68 1.28834C10.5452 1.1408 10.3501 1.06325 10.1508 1.07794L10.1508 1.07811Z" fill="#818181"/>
</svg>
