<svg width="49" height="50" viewBox="0 0 49 50" fill="none" xmlns="http://www.w3.org/2000/svg">
<path d="M2.45394 49.9993H17.1776C18.5272 49.9993 19.6315 48.8944 19.6315 47.5441V32.8127C19.6315 31.4623 18.5272 30.3574 17.1776 30.3574H2.45394C1.10427 30.3574 0 31.4623 0 32.8127V47.5441C0 48.8944 1.10427 49.9993 2.45394 49.9993Z" fill="#FBCC43"/>
<path d="M2.45394 25.0638H17.1776C18.5272 25.0638 19.6315 23.9589 19.6315 22.6085V7.87711C19.6315 6.52673 18.5272 5.42188 17.1776 5.42188H2.45394C1.10427 5.42188 0 6.52673 0 7.87711V22.6085C0 23.9589 1.10427 25.0638 2.45394 25.0638Z" fill="#57C644"/>
<path d="M27.1532 49.9993H41.8768C43.2264 49.9993 44.3307 48.8944 44.3307 47.5441V32.8127C44.3307 31.4623 43.2264 30.3574 41.8768 30.3574H27.1532C25.8035 30.3574 24.6992 31.4623 24.6992 32.8127V47.5441C24.6992 48.8944 25.8035 49.9993 27.1532 49.9993Z" fill="#E43A25"/>
<path d="M36.7081 26.0346L47.1193 15.6234C48.0736 14.669 48.0732 13.107 47.1183 12.1521L36.7017 1.73541C35.7468 0.780547 34.1847 0.780133 33.2304 1.73449L22.8192 12.1457C21.8648 13.1 21.8652 14.6621 22.8201 15.617L33.2368 26.0337C34.1916 26.9885 35.7537 26.9889 36.7081 26.0346Z" fill="#5595EF"/>
</svg>
