<svg width="49" height="50" viewBox="0 0 49 50" fill="none" xmlns="http://www.w3.org/2000/svg">
<path d="M2.45394 49.9998H17.1776C18.5272 49.9998 19.6315 48.8949 19.6315 47.5446V32.8131C19.6315 31.4628 18.5272 30.3579 17.1776 30.3579H2.45394C1.10427 30.3579 0 31.4628 0 32.8131V47.5446C0 48.8949 1.10427 49.9998 2.45394 49.9998Z" fill="#FBCC43"/>
<path d="M2.45394 25.0635H17.1776C18.5272 25.0635 19.6315 23.9587 19.6315 22.6083V7.87687C19.6315 6.52649 18.5272 5.42163 17.1776 5.42163H2.45394C1.10427 5.42163 0 6.52649 0 7.87687V22.6083C0 23.9587 1.10427 25.0635 2.45394 25.0635Z" fill="#57C644"/>
<path d="M27.1536 49.9998H41.8773C43.2269 49.9998 44.3312 48.8949 44.3312 47.5446V32.8131C44.3312 31.4628 43.2269 30.3579 41.8773 30.3579H27.1536C25.804 30.3579 24.6997 31.4628 24.6997 32.8131V47.5446C24.6997 48.8949 25.804 49.9998 27.1536 49.9998Z" fill="#E43A25"/>
<path d="M36.7086 26.0351L47.1198 15.6239C48.0741 14.6695 48.0737 13.1074 47.1188 12.1526L36.7022 1.7359C35.7473 0.781035 34.1852 0.780621 33.2308 1.73498L22.8197 12.1462C21.8653 13.1005 21.8657 14.6626 22.8206 15.6175L33.2373 26.0341C34.1921 26.989 35.7542 26.9894 36.7086 26.0351Z" fill="#5595EF"/>
</svg>
