<svg width="35" height="33" viewBox="0 0 35 33" fill="none" xmlns="http://www.w3.org/2000/svg">
<g id="Enter to open">
<path id="Rectangle 1292" d="M5.55093 0.5H27.4491C28.4568 0.5 29.7203 1.13882 30.7515 2.26996C31.7716 3.38877 32.5 4.9228 32.5 6.6V26.4C32.5 28.0772 31.7716 29.6112 30.7515 30.73C29.7203 31.8612 28.4568 32.5 27.4491 32.5H5.55093C4.54318 32.5 3.2797 31.8612 2.24845 30.73C1.22843 29.6112 0.5 28.0772 0.5 26.4V6.6C0.5 4.9228 1.22843 3.38877 2.24845 2.26996C3.2797 1.13882 4.54318 0.5 5.55093 0.5Z" stroke="#818181"/>
<path id="Vector" d="M11.9593 19.0541H13.3602C15.5216 19.0541 17.6829 19.0541 19.8442 19.0541C21.8658 19.0541 23.5788 17.7902 24.0784 15.8946C24.1769 15.5 24.2259 15.0955 24.2245 14.6896C24.2393 12.761 24.23 10.832 24.2305 8.90346C24.2305 8.23089 24.7866 7.84179 25.4345 8.06156C25.5978 8.11075 25.7398 8.21069 25.8388 8.34596C25.9377 8.48123 25.9879 8.64431 25.9818 8.81004C25.9867 10.9068 26.025 13.0036 25.973 15.1004C25.9041 17.9101 23.6198 20.3398 20.7543 20.6837C20.0166 20.7729 19.2625 20.7496 18.5155 20.7512C15.1049 20.7572 15.6936 20.7572 12.2816 20.7512H12.02L11.9839 20.8117C12.1525 20.9672 12.3248 21.1196 12.4896 21.2788C13.2612 22.0294 14.0341 22.7809 14.8083 23.5333C15.1099 23.8274 15.1723 24.1634 15.0064 24.5015C14.8406 24.8397 14.4969 25.0536 14.1221 24.9883C13.9269 24.9535 13.7462 24.8652 13.6011 24.734C12.1541 23.348 10.7197 21.9493 9.27768 20.5553C9.09858 20.3785 8.99878 20.1402 9.00001 19.8923C9.00124 19.6444 9.1034 19.4071 9.28424 19.2319C10.7214 17.8719 12.1295 16.488 13.5496 15.1079C13.953 14.7193 14.4679 14.7023 14.8341 15.0606C15.2002 15.4189 15.1794 15.9126 14.7733 16.3065C13.9108 17.1459 13.0474 17.985 12.1831 18.8237C12.1207 18.8832 12.06 18.9474 11.9593 19.0541Z" fill="#818181"/>
</g>
</svg>
