<svg width="14" height="13" viewBox="0 0 14 13" fill="none" xmlns="http://www.w3.org/2000/svg">
<path d="M7.06004 10.4593L6.80179 10.3031L6.54327 10.4588L3.24475 12.4459L3.24386 12.4464C3.02024 12.5818 2.74638 12.3839 2.80542 12.1292C2.80544 12.1292 2.80546 12.1291 2.80547 12.129L3.67973 8.37767L3.7482 8.08386L3.5202 7.88631L0.603196 5.35877L0.603021 5.35861C0.403757 5.18612 0.51411 4.86436 0.768468 4.84413L0.768468 4.84414L0.771111 4.84391L4.61011 4.51803L4.91027 4.49255L5.02803 4.21529L6.53025 0.678317L6.53026 0.678318L6.53107 0.676375C6.62978 0.441208 6.97277 0.441208 7.07148 0.676376L7.07215 0.677945L8.57437 4.22286L8.69201 4.50048L8.99244 4.52598L12.8314 4.85186L12.8314 4.85187L12.8341 4.85208C13.0884 4.87231 13.1988 5.19407 12.9995 5.36656L12.9994 5.36671L10.0824 7.89426L9.85436 8.09181L9.92283 8.38562L10.7971 12.137C10.8563 12.3918 10.5824 12.5898 10.3587 12.4544L10.3586 12.4543L7.06004 10.4593Z" stroke="#3845B3"/>
</svg>
