<svg width="14" height="12" viewBox="0 0 14 12" fill="none" xmlns="http://www.w3.org/2000/svg">
<path d="M11.5735 2.33598L5.57469 8.33475C5.34074 8.5687 4.96282 8.5687 4.72886 8.33475L3.03121 6.6371C2.79726 6.40315 2.79726 6.02522 3.03121 5.79127C3.26516 5.55732 3.64309 5.55732 3.87704 5.79127L5.14878 7.06301L10.7216 1.49015C10.9556 1.2562 11.3335 1.2562 11.5675 1.49015C11.8074 1.7241 11.8074 2.10203 11.5735 2.33598ZM6.0006 10.8002C3.17518 10.8002 0.913645 8.34675 1.23158 5.46134C1.46553 3.34977 3.1032 1.61613 5.19677 1.2682C6.28255 1.08823 7.31433 1.2802 8.19015 1.7361C8.42411 1.85608 8.70605 1.81409 8.89201 1.62812C9.17995 1.34018 9.10797 0.854282 8.74804 0.66832C7.86622 0.218413 6.87043 -0.027537 5.80864 0.00245683C2.72527 0.0984372 0.163798 2.60592 0.00782988 5.68329C-0.166135 9.14459 2.5813 12 6.0006 12C6.72046 12 7.40432 11.874 8.04618 11.6401C8.4541 11.4901 8.56808 10.9622 8.25614 10.6503C8.09417 10.4883 7.84823 10.4283 7.63227 10.5123C7.12237 10.6983 6.57049 10.8002 6.0006 10.8002ZM10.1997 7.80086H8.99999C8.67006 7.80086 8.40011 8.07081 8.40011 8.40074C8.40011 8.73067 8.67006 9.00062 8.99999 9.00062H10.1997V10.2004C10.1997 10.5303 10.4697 10.8002 10.7996 10.8002C11.1296 10.8002 11.3995 10.5303 11.3995 10.2004V9.00062H12.5993C12.9292 9.00062 13.1991 8.73067 13.1991 8.40074C13.1991 8.07081 12.9292 7.80086 12.5993 7.80086H11.3995V6.60111C11.3995 6.27117 11.1296 6.00123 10.7996 6.00123C10.4697 6.00123 10.1997 6.27117 10.1997 6.60111V7.80086Z" fill="#3845B3"/>
</svg>
