<svg width="19" height="14" viewBox="0 0 19 14" fill="none" xmlns="http://www.w3.org/2000/svg">
<path d="M15.798 4.38188C15.897 4.82737 15.9544 5.28525 15.9544 5.7555C15.9544 9.387 12.8719 12.4144 8.81288 13.0646C9.67126 13.4111 10.6331 13.6136 11.658 13.6136C12.6244 13.6136 13.5368 13.4359 14.3603 13.1265C15.4031 13.482 16.5416 13.5743 17.4833 13.5743C17.0581 13.0643 16.6979 12.5035 16.4111 11.9047C17.4551 10.9732 18.0986 9.73913 18.0986 8.38013C18.0986 6.77363 17.202 5.3415 15.798 4.38188ZM14.2669 5.7555C14.2669 2.57738 11.0955 0 7.18276 0C3.27001 0 0.0986328 2.57738 0.0986328 5.7555C0.0986328 7.41375 0.966008 8.90325 2.34751 9.954C2.00105 10.8414 1.51282 11.6666 0.901883 12.3975C2.31713 12.3975 4.13963 12.2119 5.54251 11.3501C6.07013 11.4525 6.61801 11.5121 7.18276 11.5121C11.0955 11.511 14.2669 8.93475 14.2669 5.7555Z" fill="#3845B3"/>
</svg>
