<svg width="13" height="12" viewBox="0 0 13 12" fill="none" xmlns="http://www.w3.org/2000/svg">
<path d="M9.98319 0.365642C10.4662 -0.121881 11.2525 -0.121881 11.7359 0.365642C11.9699 0.601556 12.0989 0.915575 12.0989 1.24959C12.0989 1.5836 11.9699 1.89763 11.7359 2.13312L11.0497 2.82519L9.29702 1.0576L9.98319 0.365642Z" fill="#959595"/>
<path d="M4.84795 5.54428C4.81325 5.57925 4.79001 5.6238 4.78002 5.67174L4.42957 7.4399C4.41318 7.52183 4.43899 7.60633 4.49741 7.66581C4.54455 7.71334 4.608 7.73878 4.673 7.73878C4.68884 7.73878 4.70523 7.73734 4.72161 7.73384L6.47434 7.38036C6.52287 7.37027 6.56699 7.34684 6.60124 7.31176L10.5242 3.35566L8.77143 1.58818L4.84795 5.54428Z" fill="#959595"/>
<path d="M9.61973 5.99978C9.34554 5.99978 9.12399 6.22385 9.12399 6.49977V10.4999C9.12399 10.7755 8.9018 10.9999 8.62815 10.9999H1.68663C1.41299 10.9999 1.19088 10.7755 1.19088 10.4999V3.49971C1.19088 3.22419 1.41299 2.99972 1.68663 2.99972H5.65323C5.92742 2.99972 6.14907 2.77566 6.14907 2.49968C6.14907 2.22366 5.92742 1.99965 5.65323 1.99965H1.68663C0.866617 1.99965 0.199219 2.67266 0.199219 3.49971V10.4999C0.199219 11.327 0.866617 12 1.68663 12H8.62815C9.44826 12 10.1157 11.327 10.1157 10.4999V6.49977C10.1157 6.22327 9.89392 5.99978 9.61973 5.99978Z" fill="#959595"/>
</svg>
