<svg width="12" height="12" viewBox="0 0 12 12" fill="none" xmlns="http://www.w3.org/2000/svg">
<path d="M1.60059 0.375C1.60059 0.175 1.42559 0 1.22559 0H0.475586C0.275586 0 0.100586 0.175 0.100586 0.375V11.625C0.100586 11.825 0.275586 12 0.475586 12H1.22559C1.42559 12 1.60059 11.825 1.60059 11.625V0.375Z" fill="#3845B3"/>
<path d="M11.2256 1.42495C7.22559 3.52495 7.67559 -0.775054 2.85059 0.899946C2.70059 0.949946 2.60059 1.09995 2.60059 1.24995V7.07495C2.60059 7.24995 2.77559 7.37495 2.92559 7.29995C7.72559 5.69995 7.22559 10.0999 11.4006 7.74995C11.5256 7.67495 11.6006 7.54995 11.6006 7.42495V1.62495C11.6006 1.44995 11.4006 1.32495 11.2256 1.42495Z" fill="#3845B3"/>
</svg>
