<svg width="13" height="10" viewBox="0 0 13 10" fill="none" xmlns="http://www.w3.org/2000/svg">
<path d="M8.27273 4.69444C9.57864 4.69444 10.6364 3.64406 10.6364 2.34722C10.6364 1.05038 9.57864 0 8.27273 0C6.96682 0 5.90909 1.05038 5.90909 2.34722C5.90909 3.64406 6.96682 4.69444 8.27273 4.69444ZM2.95455 3.52083V2.34722C2.95455 2.02448 2.68864 1.76042 2.36364 1.76042C2.03864 1.76042 1.77273 2.02448 1.77273 2.34722V3.52083H0.590909C0.265909 3.52083 0 3.7849 0 4.10764C0 4.43038 0.265909 4.69444 0.590909 4.69444H1.77273V5.86806C1.77273 6.1908 2.03864 6.45486 2.36364 6.45486C2.68864 6.45486 2.95455 6.1908 2.95455 5.86806V4.69444H4.13636C4.46136 4.69444 4.72727 4.43038 4.72727 4.10764C4.72727 3.7849 4.46136 3.52083 4.13636 3.52083H2.95455ZM8.27273 5.86806C6.695 5.86806 3.54545 6.65437 3.54545 8.21528V8.80208C3.54545 9.12483 3.81136 9.38889 4.13636 9.38889H12.4091C12.7341 9.38889 13 9.12483 13 8.80208V8.21528C13 6.65437 9.85045 5.86806 8.27273 5.86806Z" fill="#3845B3"/>
</svg>
