<svg width="13" height="12" viewBox="0 0 13 12" fill="none" xmlns="http://www.w3.org/2000/svg">
<path d="M1.50562 11.9992C1.1326 11.9988 0.774905 11.8505 0.511143 11.5867C0.247382 11.323 0.0990298 10.9653 0.0986328 10.5923V2.34285C0.0990301 1.9699 0.247452 1.61236 0.511235 1.34872C0.775018 1.08507 1.13267 0.936884 1.50562 0.936686H2.06808V0H3.00552V0.937441H9.19337V0H10.1315V0.937441H10.694C11.0668 0.937838 11.4242 1.08613 11.6878 1.34975C11.9515 1.61337 12.0998 1.97079 12.1002 2.3436V10.5931C12.0998 10.966 11.9515 11.3235 11.6879 11.5872C11.4243 11.851 11.0669 11.9994 10.694 12L1.50562 11.9992ZM1.0369 10.5923C1.0369 10.7167 1.08625 10.836 1.17413 10.924C1.26201 11.012 1.38124 11.0616 1.50562 11.0618H10.694C10.8183 11.0614 10.9374 11.0118 11.0252 10.9238C11.1131 10.8358 11.1625 10.7166 11.1627 10.5923V4.40597H1.03836L1.0369 10.5923ZM1.0369 2.34285V3.46778H11.1613V2.34285C11.1611 2.2186 11.1116 2.09949 11.0238 2.01163C10.9359 1.92377 10.8168 1.87433 10.6925 1.87413H10.1301V2.81157H9.19181V1.87488H3.00397V2.81232H2.06653V1.87488H1.50406C1.37994 1.87528 1.261 1.92482 1.1733 2.01266C1.08561 2.1005 1.03627 2.21948 1.03607 2.3436L1.0369 2.34285ZM7.50524 10.0786V9.14117H8.44268V10.0786H7.50524ZM5.63036 10.0786V9.14117H6.56698V10.0786H5.63036ZM3.75548 10.0786V9.14117H4.69292V10.0786H3.75548ZM1.88059 10.0786V9.14117H2.81804V10.0786H1.88059ZM9.38012 8.20373V7.26704H10.3176V8.20373H9.38012ZM7.50524 8.20373V7.26704H8.44268V8.20373H7.50524ZM5.63036 8.20373V7.26704H6.56698V8.20373H5.63036ZM3.75548 8.20373V7.26704H4.69292V8.20373H3.75548ZM1.88059 8.20373V7.26704H2.81804V8.20373H1.88059ZM9.38012 6.32885V5.39141H10.3176V6.32885H9.38012ZM7.50524 6.32885V5.39141H8.44268V6.32885H7.50524ZM5.63036 6.32885V5.39141H6.56698V6.32885H5.63036ZM3.75548 6.32885V5.39141H4.69292V6.32885H3.75548ZM1.88059 6.32885V5.39141H2.81804V6.32885H1.88059Z" fill="#3845B3"/>
</svg>
