<svg width="16" height="12" viewBox="0 0 16 12" fill="none" xmlns="http://www.w3.org/2000/svg">
<path d="M13.5868 0.495868C13.5868 0.347107 13.5372 0.247934 13.438 0.14876C13.3388 0.0495866 13.2397 0 13.0909 0C12.9421 0 12.843 0.0495866 12.7438 0.14876L11.405 1.4876C10.4132 0.991736 9.27273 0.694215 7.93388 0.545455C5.45455 0.793388 3.47107 1.68595 2.08264 3.27273C0.694215 4.8595 0 5.75207 0 6C0 6.24793 0.743801 7.1405 2.08264 8.72727C2.42975 9.12397 2.77686 9.47107 3.22314 9.7686L1.8843 11.157C1.78512 11.2562 1.73554 11.3554 1.73554 11.5041C1.73554 11.6529 1.78512 11.7521 1.8843 11.8512C1.98347 11.9504 2.08264 12 2.2314 12C2.38017 12 2.47934 11.9504 2.57851 11.8512L13.4876 0.842975C13.5372 0.743802 13.5868 0.644628 13.5868 0.495868ZM3.57025 8.67769C2.38016 7.58678 1.58678 6.69421 1.19008 6C1.63636 5.2562 2.42975 4.36364 3.57025 3.32231C4.71074 2.28099 6.19835 1.63636 7.93388 1.53719C8.92562 1.58678 9.86777 1.83471 10.6612 2.2314L9.81818 3.07438C9.27273 2.72727 8.67768 2.52893 7.93388 2.52893C6.94215 2.52893 6.14876 2.87603 5.45455 3.52066C4.76033 4.16529 4.46281 5.00826 4.46281 6C4.46281 6.7438 4.66116 7.38843 5.00826 7.93388L3.96694 9.02479C3.81818 8.92562 3.66942 8.77686 3.57025 8.67769ZM5.75207 7.19008C5.55372 6.84298 5.45455 6.44628 5.45455 6C5.45455 5.30579 5.70248 4.71074 6.19835 4.26446C6.69421 3.81818 7.23967 3.52066 7.93388 3.52066C8.38016 3.52066 8.77686 3.61983 9.07438 3.81818L5.75207 7.19008ZM13.7851 3.27273C13.5868 3.02479 13.3388 2.82645 13.1405 2.6281L12.3967 3.3719C13.5372 4.41322 14.3306 5.30579 14.7273 6C14.281 6.7438 13.4876 7.63636 12.3471 8.67769C11.2066 9.71901 9.6694 10.3636 7.93387 10.4628C7.14048 10.4132 6.39668 10.2645 5.75205 10.0165L5.00825 10.7603C5.90081 11.1074 6.84296 11.3554 7.93387 11.4545C10.4132 11.2066 12.3967 10.314 13.7851 8.72727C15.1735 7.1405 15.8678 6.24793 15.8678 6C15.8678 5.75207 15.124 4.8595 13.7851 3.27273Z" fill="black"/>
</svg>
