<svg width="8" height="13" viewBox="0 0 8 13" fill="none" xmlns="http://www.w3.org/2000/svg">
<path d="M4 6.54102C4 5.43647 4.89542 4.54102 6 4.54102C7.10455 4.54102 8 5.43647 8 6.54102C8 7.64559 7.10455 8.54102 6 8.54102C4.89542 8.54102 4 7.64559 4 6.54102Z" fill="#1ABCFE"/>
<path d="M0 10.541C0 9.43647 0.895429 8.54102 2 8.54102H4V10.541C4 11.6456 3.10458 12.541 2 12.541C0.895429 12.541 0 11.6456 0 10.541Z" fill="#0ACF83"/>
<path d="M4 0.541016V4.541H6C7.10458 4.541 8 3.64558 8 2.54101C8 1.43645 7.10458 0.541016 6 0.541016H4Z" fill="#FF7262"/>
<path d="M0 2.54102C0 3.64558 0.895429 4.541 2 4.541H4V0.541016H2C0.895429 0.541016 0 1.43645 0 2.54102Z" fill="#F24E1E"/>
<path d="M0 6.54102C0 7.64559 0.895429 8.54102 2 8.54102H4V4.54102H2C0.895429 4.54102 0 5.43647 0 6.54102Z" fill="#A259FF"/>
</svg>
