<svg width="16" height="18" viewBox="0 0 16 18" class="active" fill="none" xmlns="http://www.w3.org/2000/svg">
<path d="M14.1665 1.62901C13.8458 1.27793 13.4564 0.996541 13.0223 0.802354C12.5883 0.608166 12.1189 0.505321 11.6434 0.500201C11.1679 0.495081 10.6964 0.587797 10.2583 0.772593C9.82014 0.957389 9.4247 1.23032 9.0965 1.57441L8.10986 2.62257L2.20105 8.90856C1.31269 9.88098 0.820799 11.1509 0.822269 12.468C0.823739 13.7851 1.31846 15.0539 2.20899 16.0243C2.6334 16.4886 3.14977 16.8596 3.72524 17.1136C4.3007 17.3677 4.92268 17.4992 5.55172 17.5C6.18077 17.5007 6.80311 17.3707 7.37918 17.118C7.95525 16.8653 8.47246 16.4956 8.89797 16.0323L14.8068 9.74629C14.8765 9.67035 14.9263 9.57819 14.9514 9.47818C14.9765 9.37817 14.9763 9.27347 14.9507 9.17358C14.9273 9.07499 14.8782 8.98435 14.8085 8.9108C14.7388 8.83725 14.6509 8.78341 14.5537 8.75471C14.4586 8.72808 14.3581 8.72826 14.2631 8.75524C14.1682 8.78222 14.0825 8.83493 14.0157 8.90756L8.10689 15.1935C7.77943 15.5404 7.38395 15.8159 6.94517 16.0029C6.5064 16.19 6.03377 16.2845 5.55681 16.2806C5.07985 16.2766 4.60883 16.1744 4.17318 15.9802C3.73753 15.786 3.34663 15.504 3.02491 15.1519C2.3493 14.4159 1.97115 13.4552 1.96382 12.4562C1.95648 11.4572 2.3205 10.4911 2.98523 9.7453L3.38222 9.32642L8.897 3.45931L9.88164 2.41115C10.1067 2.16484 10.3806 1.96813 10.6859 1.83354C10.9912 1.69894 11.3212 1.62943 11.6549 1.62943C11.9885 1.62943 12.3185 1.69894 12.6238 1.83354C12.9291 1.96813 13.203 2.16484 13.4281 2.41115C13.9001 2.9258 14.1619 3.59872 14.1619 4.29704C14.1619 4.99536 13.9001 5.6683 13.4281 6.18294L12.2459 7.44054L6.92675 13.0982C6.80176 13.235 6.64961 13.3442 6.48008 13.4189C6.31056 13.4936 6.12737 13.5322 5.94211 13.5322C5.75686 13.5322 5.57361 13.4936 5.40409 13.4189C5.23456 13.3442 5.08247 13.235 4.95748 13.0982C4.69514 12.8124 4.54958 12.4385 4.54958 12.0506C4.54958 11.6626 4.69514 11.2887 4.95748 11.0029L10.2757 5.3452C10.3804 5.23083 10.4384 5.08139 10.4384 4.92634C10.4384 4.77128 10.3804 4.62185 10.2757 4.50747C10.2256 4.45277 10.1648 4.40908 10.0969 4.37919C10.0291 4.3493 9.95578 4.33386 9.88164 4.33386C9.80751 4.33386 9.73418 4.3493 9.66633 4.37919C9.59849 4.40908 9.53759 4.45277 9.48756 4.50747L4.17033 10.1652C3.70103 10.6802 3.44152 11.3522 3.4428 12.0489C3.44409 12.7457 3.7061 13.4167 4.1773 13.93C4.40182 14.1755 4.67487 14.3716 4.97916 14.506C5.28346 14.6405 5.61236 14.7102 5.94502 14.7109C6.27769 14.7115 6.60685 14.6431 6.91167 14.5098C7.21649 14.3766 7.49035 14.1815 7.71583 13.9369L13.034 8.27926L14.2162 7.02167C14.8755 6.27542 15.2352 5.31155 15.2261 4.31582C15.2169 3.3201 14.8394 2.36301 14.1665 1.62901Z" fill="#818181" stroke="#818181" stroke-width="0.3"/>
</svg>
