<svg width="16" height="18" viewBox="0 0 16 18" class="active" fill="none" xmlns="http://www.w3.org/2000/svg">
<path d="M14.1685 1.62901C13.8478 1.27793 13.4583 0.996541 13.0243 0.802354C12.5902 0.608166 12.1208 0.505321 11.6453 0.500201C11.1698 0.495081 10.6984 0.587797 10.2602 0.772593C9.82209 0.957389 9.42665 1.23032 9.09845 1.57441L8.11181 2.62257L2.20301 8.90856C1.31464 9.88098 0.822752 11.1509 0.824222 12.468C0.825692 13.7851 1.32041 15.0539 2.21094 16.0243C2.63535 16.4886 3.15172 16.8596 3.72719 17.1136C4.30266 17.3677 4.92463 17.4992 5.55368 17.5C6.18272 17.5007 6.80507 17.3707 7.38113 17.118C7.9572 16.8653 8.47442 16.4956 8.89992 16.0323L14.8087 9.74629C14.8785 9.67035 14.9282 9.57819 14.9533 9.47818C14.9785 9.37817 14.9783 9.27347 14.9527 9.17358C14.9292 9.07499 14.8801 8.98435 14.8104 8.9108C14.7407 8.83725 14.6528 8.78341 14.5556 8.75471C14.4606 8.72808 14.36 8.72826 14.2651 8.75524C14.1701 8.78222 14.0845 8.83493 14.0176 8.90756L8.10884 15.1935C7.78139 15.5404 7.3859 15.8159 6.94712 16.0029C6.50835 16.19 6.03573 16.2845 5.55877 16.2806C5.08181 16.2766 4.61078 16.1744 4.17513 15.9802C3.73949 15.786 3.34859 15.504 3.02686 15.1519C2.35126 14.4159 1.97311 13.4552 1.96577 12.4562C1.95843 11.4572 2.32246 10.4911 2.98718 9.7453L3.38418 9.32642L8.89895 3.45931L9.88359 2.41115C10.1087 2.16484 10.3826 1.96813 10.6879 1.83354C10.9932 1.69894 11.3232 1.62943 11.6568 1.62943C11.9905 1.62943 12.3205 1.69894 12.6258 1.83354C12.9311 1.96813 13.205 2.16484 13.4301 2.41115C13.9021 2.9258 14.1639 3.59872 14.1639 4.29704C14.1639 4.99536 13.9021 5.6683 13.4301 6.18294L12.2479 7.44054L6.92871 13.0982C6.80371 13.235 6.65156 13.3442 6.48204 13.4189C6.31251 13.4936 6.12933 13.5322 5.94407 13.5322C5.75881 13.5322 5.57556 13.4936 5.40604 13.4189C5.23651 13.3442 5.08442 13.235 4.95943 13.0982C4.69709 12.8124 4.55153 12.4385 4.55153 12.0506C4.55153 11.6626 4.69709 11.2887 4.95943 11.0029L10.2776 5.3452C10.3823 5.23083 10.4404 5.08139 10.4404 4.92634C10.4404 4.77128 10.3823 4.62185 10.2776 4.50747C10.2276 4.45277 10.1667 4.40908 10.0989 4.37919C10.0311 4.3493 9.95773 4.33386 9.88359 4.33386C9.80946 4.33386 9.73613 4.3493 9.66829 4.37919C9.60044 4.40908 9.53954 4.45277 9.48951 4.50747L4.17229 10.1652C3.70299 10.6802 3.44347 11.3522 3.44476 12.0489C3.44604 12.7457 3.70805 13.4167 4.17925 13.93C4.40377 14.1755 4.67682 14.3716 4.98112 14.506C5.28541 14.6405 5.61431 14.7102 5.94698 14.7109C6.27964 14.7115 6.6088 14.6431 6.91362 14.5098C7.21845 14.3766 7.49231 14.1815 7.71779 13.9369L13.036 8.27926L14.2182 7.02167C14.8775 6.27542 15.2372 5.31155 15.228 4.31582C15.2189 3.3201 14.8414 2.36301 14.1685 1.62901Z" fill="#2F3990" stroke="#2F3990" stroke-width="0.3"/>
</svg>
