<svg width="15" height="15" viewBox="0 0 15 15" fill="none" xmlns="http://www.w3.org/2000/svg">
<g clip-path="url(#clip0_10273_74773)">
<path d="M2.76755 3.5891C1.9837 3.85916 1.23279 4.11605 0.455536 4.38282C0.748654 5.19631 1.03519 5.99003 1.31842 6.78376C1.54238 7.40622 1.76633 8.02869 1.99029 8.65115C2.04628 8.80265 2.11215 8.96732 1.89807 9.03978C1.69058 9.11224 1.6313 8.95086 1.57531 8.79606C1.07141 7.39634 0.56422 5.99333 0.0603199 4.5936C-0.0714187 4.23132 0.00433096 4.07324 0.369905 3.94808C1.04836 3.71095 1.73011 3.47712 2.41185 3.24328C2.50078 3.21364 2.59299 3.17741 2.6918 3.14119C2.65557 2.94687 2.62593 2.76573 2.59299 2.58459C2.52054 2.17949 2.62922 2.01811 3.02773 1.95225C3.72924 1.83368 4.42745 1.70524 5.13225 1.60314C5.33974 1.5735 5.38914 1.48457 5.37926 1.30014C5.36938 1.04654 5.37597 0.792946 5.37597 0.539349C5.37926 0.137546 5.49454 0.0222751 5.90292 0.0222751C7.86583 0.0222751 9.82873 0.0617967 11.7916 0.00251436C12.6282 -0.0238334 13.277 0.15072 13.8105 0.819293C14.1004 1.18157 14.489 1.46481 14.815 1.80075C14.9105 1.89955 14.9929 2.06752 14.9929 2.20255C15.0028 5.32805 14.9995 8.45354 14.9995 11.579C14.9995 11.9281 14.8776 12.0467 14.5186 12.0533C13.8171 12.0632 13.1123 12.0401 12.4108 12.0796C11.3833 12.1389 10.4644 12.6066 9.50927 12.9392C7.76373 13.5518 6.02808 14.1875 4.28913 14.8132C3.9005 14.9515 3.76547 14.889 3.62714 14.5003C3.09031 13.0084 2.55347 11.5165 2.01334 10.0245C2.00017 9.9883 1.97053 9.94548 1.98041 9.91255C2.01664 9.80057 2.06275 9.68859 2.10556 9.57991C2.20107 9.64248 2.34928 9.6853 2.38221 9.77422C2.61605 10.3736 2.82354 10.9796 3.04091 11.5856C3.35049 12.4452 3.66008 13.3081 3.97296 14.1677C4.0026 14.25 4.03553 14.3291 4.07176 14.4279C5.64933 13.8614 7.21043 13.2982 8.77483 12.735C8.77153 12.7219 8.76824 12.7087 8.76165 12.6955C7.48708 12.9129 6.20922 13.1303 4.93465 13.3509C4.58883 13.4102 4.44063 13.3246 4.37805 12.9788C4.06517 11.1838 3.75559 9.38889 3.44929 7.59395C3.22863 6.27327 3.00138 4.95918 2.76755 3.5891ZM5.80083 11.5889C8.7386 11.5889 11.6401 11.5889 14.5417 11.5889C14.5417 8.50294 14.5417 5.44002 14.5417 2.34417C14.1366 2.34417 13.748 2.34417 13.3593 2.34417C12.6348 2.34417 12.4997 2.21243 12.4964 1.49775C12.4964 1.16181 12.4964 0.822587 12.4964 0.49324C10.2371 0.49324 8.02392 0.49324 5.80083 0.49324C5.80083 0.624979 5.80083 0.73037 5.80083 0.835761C5.80083 2.58459 5.80083 4.33342 5.80083 6.07896C5.80083 6.158 5.82388 6.25022 5.79095 6.3095C5.74813 6.39183 5.65921 6.49723 5.58675 6.49723C5.52088 6.50052 5.42537 6.39183 5.38585 6.31279C5.34962 6.24034 5.37268 6.14153 5.37268 6.05261C5.37268 4.81097 5.37268 3.57263 5.37268 2.33099C5.37268 2.2256 5.37268 2.12351 5.37268 1.99177C4.56907 2.13009 3.80828 2.26183 3.01126 2.40016C3.61397 5.92087 4.21338 9.40865 4.81279 12.9129C6.41341 12.6362 7.97451 12.3695 9.53562 12.0994C8.32362 12.0401 7.1248 12.0434 5.92269 12.0401C5.4616 12.0401 5.37597 11.9512 5.37268 11.4901C5.37268 10.1727 5.36938 8.85205 5.37268 7.53467C5.37268 7.36011 5.31669 7.10322 5.59005 7.1131C5.85682 7.11969 5.79424 7.37329 5.79424 7.54784C5.80083 8.89157 5.80083 10.2287 5.80083 11.5889ZM12.9575 1.8732C13.3956 1.8732 13.7974 1.8732 14.265 1.8732C13.8138 1.44176 13.4054 1.05313 12.9575 0.628272C12.9575 1.07618 12.9575 1.46152 12.9575 1.8732Z" fill="#2F3990"/>
<path d="M10.2273 5.22256C9.23263 5.22256 8.23801 5.22256 7.24338 5.22256C7.06883 5.22256 6.87451 5.22256 6.87451 4.99532C6.87451 4.77136 7.07212 4.76807 7.24338 4.76807C9.23263 4.76807 11.2219 4.76807 13.2111 4.76807C13.3824 4.76807 13.58 4.76807 13.5767 4.99532C13.5734 5.22256 13.3791 5.21927 13.2078 5.21927C12.2165 5.22256 11.2219 5.22256 10.2273 5.22256Z" fill="#2F3990"/>
<path d="M10.2208 9.90916C9.2558 9.90916 8.29082 9.90916 7.32254 9.90916C7.25337 9.90916 7.17104 9.93221 7.12164 9.90257C7.02613 9.84329 6.95038 9.75436 6.86475 9.67532C6.95367 9.60287 7.03601 9.52053 7.13152 9.45795C7.16445 9.4349 7.22703 9.45466 7.27643 9.45466C9.24592 9.45466 11.2187 9.45466 13.1882 9.45466C13.2376 9.45466 13.3002 9.4349 13.3331 9.46125C13.4253 9.52712 13.5044 9.61275 13.5867 9.6885C13.4978 9.76095 13.4154 9.89269 13.3232 9.89928C12.9642 9.92563 12.602 9.90916 12.2397 9.90916C11.5678 9.90916 10.8959 9.90916 10.2208 9.90916Z" fill="#2F3990"/>
<path d="M10.2371 6.33933C11.212 6.33933 12.1868 6.33933 13.1617 6.33933C13.2407 6.33933 13.333 6.31298 13.3922 6.34921C13.4713 6.39861 13.5635 6.48424 13.5767 6.56658C13.5866 6.62257 13.4812 6.72467 13.4054 6.7576C13.3231 6.79383 13.2144 6.77736 13.1156 6.77736C11.1955 6.77736 9.27541 6.77736 7.35532 6.77736C7.29604 6.77736 7.23675 6.77736 7.18076 6.77736C7.01938 6.77736 6.86459 6.73455 6.87447 6.54682C6.88435 6.36238 7.03585 6.33604 7.19723 6.33604C8.20833 6.34262 9.22271 6.33933 10.2371 6.33933Z" fill="#2F3990"/>
<path d="M10.2175 8.33509C9.22291 8.33509 8.22499 8.33509 7.23036 8.33509C7.06898 8.33509 6.88125 8.34168 6.87467 8.1309C6.86808 7.89706 7.06898 7.90365 7.23695 7.90365C9.22949 7.90365 11.2187 7.90365 13.2113 7.90365C13.2607 7.90365 13.3232 7.88718 13.3562 7.91023C13.4418 7.96952 13.511 8.04856 13.59 8.12102C13.511 8.19018 13.4352 8.30874 13.3496 8.31862C13.1092 8.34497 12.8621 8.3285 12.6184 8.3285C11.8181 8.33509 11.0178 8.33509 10.2175 8.33509Z" fill="#2F3990"/>
<path d="M10.2243 3.65158C9.24947 3.65158 8.27131 3.65158 7.29644 3.65158C7.2174 3.65158 7.12518 3.67463 7.0659 3.6417C6.98686 3.59559 6.89464 3.50666 6.88147 3.42762C6.87159 3.37493 6.98356 3.27941 7.05931 3.23989C7.12189 3.20696 7.21081 3.23001 7.28986 3.23001C9.25276 3.23001 11.2123 3.23001 13.1752 3.23001C13.2345 3.23001 13.307 3.21025 13.3498 3.2366C13.4387 3.29259 13.5112 3.37163 13.5902 3.44079C13.5112 3.51325 13.4453 3.61205 13.3531 3.64828C13.2609 3.68451 13.1423 3.65816 13.0336 3.65816C12.095 3.65158 11.1596 3.65158 10.2243 3.65158Z" fill="#2F3990"/>
</g>
<defs>
<clipPath id="clip0_10273_74773">
<rect width="15" height="15" fill="white"/>
</clipPath>
</defs>
</svg>
