<svg width="19" height="22" viewBox="0 0 19 22" fill="none" xmlns="http://www.w3.org/2000/svg">
<path d="M16.6992 2.32825C16.3218 1.91521 15.8637 1.58417 15.353 1.35571C14.8424 1.12725 14.2901 1.00626 13.7307 1.00024C13.1713 0.994213 12.6167 1.10329 12.1012 1.3207C11.5857 1.5381 11.1205 1.8592 10.7344 2.26401L9.57364 3.49714L2.6221 10.8924C1.57697 12.0364 0.998275 13.5304 1 15.08C1.00173 16.6295 1.58375 18.1222 2.63144 19.2639C3.13074 19.8102 3.73824 20.2466 4.41526 20.5455C5.09228 20.8443 5.82401 20.9991 6.56407 21C7.30412 21.0009 8.03629 20.8478 8.71402 20.5506C9.39174 20.2533 10.0002 19.8183 10.5008 19.2733L17.4524 11.878C17.5344 11.7886 17.5929 11.6802 17.6225 11.5626C17.6521 11.4449 17.6518 11.3217 17.6217 11.2042C17.5941 11.0882 17.5364 10.9816 17.4544 10.8951C17.3723 10.8085 17.2689 10.7452 17.1546 10.7114C17.0428 10.6801 16.9245 10.6803 16.8128 10.712C16.7011 10.7438 16.6003 10.8058 16.5217 10.8912L9.57015 18.2865C9.1849 18.6945 8.71962 19.0187 8.20342 19.2387C7.68721 19.4588 7.13118 19.57 6.57006 19.5654C6.00893 19.5608 5.45478 19.4405 4.94225 19.212C4.42973 18.9835 3.96984 18.6518 3.59135 18.2375C2.79651 17.3716 2.35163 16.2415 2.343 15.0661C2.33437 13.8908 2.76263 12.7542 3.54466 11.8768L4.01171 11.384L10.4997 4.48155L11.6581 3.24842C11.9229 2.95864 12.2451 2.72721 12.6043 2.56886C12.9635 2.41052 13.3517 2.32875 13.7442 2.32875C14.1368 2.32875 14.525 2.41052 14.8842 2.56886C15.2434 2.72721 15.5656 2.95864 15.8304 3.24842C16.3857 3.85388 16.6937 4.64556 16.6937 5.46711C16.6937 6.28866 16.3857 7.08035 15.8304 7.68582L14.4396 9.16534L8.18175 15.8214C8.0347 15.9823 7.8557 16.1108 7.65626 16.1987C7.45681 16.2866 7.2413 16.332 7.02335 16.332C6.8054 16.332 6.58982 16.2866 6.39038 16.1987C6.19094 16.1108 6.012 15.9823 5.86495 15.8214C5.55632 15.4851 5.38507 15.0453 5.38507 14.5889C5.38507 14.1324 5.55632 13.6926 5.86495 13.3563L12.1216 6.70024C12.2448 6.56568 12.3132 6.38988 12.3132 6.20746C12.3132 6.02504 12.2448 5.84923 12.1216 5.71467C12.0628 5.65031 11.9912 5.59892 11.9114 5.56375C11.8316 5.52859 11.7453 5.51042 11.6581 5.51042C11.5709 5.51042 11.4846 5.52859 11.4048 5.56375C11.325 5.59892 11.2533 5.65031 11.1945 5.71467L4.9389 12.3708C4.38678 12.9767 4.08147 13.7672 4.08299 14.587C4.0845 15.4067 4.39275 16.1961 4.9471 16.8C5.21124 17.0888 5.53247 17.3196 5.89047 17.4777C6.24847 17.6358 6.6354 17.7179 7.02677 17.7187C7.41814 17.7194 7.80539 17.6389 8.164 17.4822C8.52262 17.3254 8.84481 17.0959 9.11008 16.8082L15.3668 10.1521L16.7576 8.67256C17.5332 7.79461 17.9564 6.66064 17.9456 5.4892C17.9349 4.31776 17.4908 3.19177 16.6992 2.32825Z" fill="#818181" stroke="#818181" stroke-width="0.3"/>
</svg>
