<svg width="16" height="18" viewBox="0 0 16 18" fill="none" xmlns="http://www.w3.org/2000/svg">
<path d="M3.18201 17.5005C3.01455 17.5012 2.85289 17.4392 2.72888 17.3267C2.60487 17.2141 2.52746 17.0593 2.51196 16.8925L1.401 4.38349H0V3.0525H4.68396V1.6095C4.68581 1.31395 4.80472 1.03118 5.01465 0.823127C5.22458 0.615075 5.5084 0.498719 5.80396 0.499519H10.196C10.4917 0.498455 10.7756 0.614713 10.9856 0.822822C11.1956 1.03093 11.3145 1.31387 11.316 1.6095V3.0525H16V4.38349H14.576L13.465 16.8925C13.4497 17.0594 13.3725 17.2143 13.2484 17.3269C13.1244 17.4395 12.9626 17.5014 12.795 17.5005H3.18201ZM3.79797 16.1695H12.1801L13.228 4.38349H2.75L3.79797 16.1695ZM9.97205 3.0525V1.83247H6.02795V3.0525H9.97205ZM9.63599 14.1905L9.92798 6.31147L11.272 6.36048L10.98 14.2385L9.63599 14.1905ZM4.72803 6.36048L6.07202 6.31147L6.36401 14.1905L5.02002 14.2395L4.72803 6.36048ZM7.328 14.2205V6.34052H8.66797V14.2205H7.328Z" fill="#818181"/>
</svg>
