<svg width="15" height="13" viewBox="0 0 15 13" fill="none" xmlns="http://www.w3.org/2000/svg">
<path d="M10.1087 10.2497C8.76485 10.2497 7.42101 10.2497 6.07671 10.2469C5.94181 10.2469 5.8739 10.275 5.82987 10.4169C5.43126 11.6989 4.14598 12.5893 2.84804 12.4929C1.38945 12.3847 0.257334 11.3687 0.0376557 9.97521C-0.208722 8.41779 0.777725 6.93625 2.29955 6.57839C3.03561 6.40382 3.8105 6.5154 4.46741 6.89055C5.12431 7.2657 5.61416 7.8764 5.83783 8.59906C5.87952 8.73209 5.94462 8.74942 6.06172 8.74942C8.76157 8.74723 11.4613 8.74723 14.1608 8.74942C14.6423 8.74942 14.9721 9.07729 14.9571 9.53398C14.9426 9.94992 14.6161 10.2478 14.1608 10.2502C13.4947 10.2539 12.8287 10.2502 12.1621 10.2502L10.1087 10.2497ZM2.98388 8.00138C2.5879 8.00287 2.20859 8.16099 1.9288 8.44121C1.64902 8.72144 1.49149 9.10099 1.49063 9.49698C1.49234 9.89309 1.6501 10.2726 1.92971 10.5531C2.20932 10.8337 2.58825 10.9928 2.98435 10.9959C3.18198 10.9956 3.37762 10.9564 3.5601 10.8805C3.74257 10.8046 3.9083 10.6935 4.0478 10.5535C4.18731 10.4135 4.29786 10.2474 4.37313 10.0647C4.44841 9.88195 4.48693 9.68618 4.4865 9.48855C4.4839 9.09233 4.32423 8.71334 4.04253 8.43471C3.76082 8.15608 3.3801 8.00058 2.98388 8.00232V8.00138ZM4.84576 2.75017C6.19568 2.75017 7.54561 2.75017 8.89506 2.75392C9.03043 2.75392 9.0857 2.7127 9.12505 2.5853C9.52599 1.29767 10.8216 0.403031 12.1228 0.508421C13.5772 0.625521 14.7037 1.63773 14.9191 3.02184C15.1627 4.58629 14.187 6.05472 12.6605 6.42054C11.9247 6.59558 11.1498 6.48469 10.4927 6.11027C9.83548 5.73585 9.34498 5.12585 9.12036 4.40362C9.07961 4.27247 9.01731 4.24998 8.89834 4.25045C6.19849 4.25295 3.49865 4.25295 0.798803 4.25045C0.323379 4.25045 -0.00637376 3.93194 0.00252581 3.48556C0.00908338 3.05838 0.33462 2.75252 0.798803 2.7497C1.46486 2.74643 2.13093 2.7497 2.79746 2.7497L4.84576 2.75017ZM11.9692 4.99848C12.3655 4.99849 12.7457 4.84154 13.0265 4.56196C13.3074 4.28239 13.4662 3.90294 13.468 3.50664C13.4687 3.10924 13.3119 2.72776 13.0321 2.44558C12.7523 2.16339 12.3722 2.00346 11.9748 2.00074C11.7772 2.00055 11.5815 2.0393 11.3989 2.11478C11.2163 2.19025 11.0503 2.30096 10.9105 2.44059C10.7707 2.58022 10.6598 2.74603 10.5841 2.92855C10.5084 3.11106 10.4694 3.3067 10.4693 3.50429C10.4713 3.90044 10.6301 4.27969 10.9108 4.55915C11.1916 4.83861 11.5716 4.99555 11.9678 4.99567L11.9692 4.99848Z" fill="#3A3A3A"/>
</svg>
