<svg width="10" height="11" viewBox="0 0 10 11" fill="none" xmlns="http://www.w3.org/2000/svg">
<path d="M3.79804 4.72705C3.90343 4.84073 3.96201 4.99002 3.96204 5.14504V9.69204C3.96247 9.75337 3.98101 9.8132 4.01526 9.86407C4.04951 9.91494 4.09795 9.95459 4.1546 9.97807C4.21126 10.0015 4.27361 10.0078 4.3338 9.99606C4.39399 9.98431 4.44937 9.95509 4.49304 9.91204L5.77307 8.45803C5.94407 8.25803 6.03906 8.15804 6.03906 7.95204V5.14504C6.03939 4.99008 6.09792 4.84089 6.20307 4.72705L9.87604 0.77704C9.93729 0.710672 9.97779 0.627842 9.99256 0.538744C10.0073 0.449646 9.99573 0.358173 9.95917 0.275591C9.92261 0.193009 9.8627 0.122921 9.78681 0.0739612C9.71091 0.0250015 9.62236 -0.000693434 9.53205 3.99539e-05H0.46802C0.377514 -0.00115009 0.288709 0.0242679 0.212526 0.0731448C0.136344 0.122022 0.0761954 0.1922 0.0395529 0.274965C0.00291029 0.357731 -0.00861585 0.44944 0.00641076 0.538698C0.0214374 0.627956 0.0623036 0.710835 0.124026 0.77704L3.79804 4.72705Z" fill="black"/>
</svg>
