<svg width="6" height="11" viewBox="0 0 6 11" fill="none" xmlns="http://www.w3.org/2000/svg">
<path d="M5.79848 0.20808C5.9294 0.354204 6 0.530639 6 0.711787C6 0.892935 5.9294 1.06938 5.79848 1.2155L1.66152 5.49944L5.79704 9.78339C5.92826 9.92961 5.99903 10.1063 5.99903 10.2876C5.99903 10.469 5.92826 10.6457 5.79704 10.7919C5.74244 10.8561 5.66967 10.9086 5.5849 10.9448C5.50013 10.9811 5.40603 11 5.31037 11C5.21472 11 5.12045 10.9811 5.03568 10.9448C4.95091 10.9086 4.87814 10.8561 4.82355 10.7919L0.199111 6.00369C0.0662159 5.85873 -0.0037904 5.68167 0.00016744 5.50052C-0.0039096 5.31885 0.0665706 5.14131 0.200398 4.99627L4.82355 0.20808C4.87829 0.143845 4.95112 0.0913793 5.036 0.05515C5.12087 0.0189206 5.21527 0 5.31101 0C5.40676 0 5.50099 0.0189206 5.58587 0.05515C5.67074 0.0913793 5.74374 0.143845 5.79848 0.20808Z" fill="#2F3990"/>
</svg>
