<svg width="31" height="30" viewBox="0 0 31 30" fill="none" xmlns="http://www.w3.org/2000/svg">
<rect x="0.965332" width="30" height="30" rx="6" fill="#566D82"/>
<path d="M24.4764 9.88569H14.6073V8.42717H24.4764V9.88569ZM9.47837 8.42717H6.96533V9.88569H9.47837V8.42717ZM14.2353 10.7229V7.62425C14.2353 7.45869 14.1696 7.29991 14.0525 7.18284C13.9354 7.06577 13.7767 7 13.6111 7H10.5095C10.344 7 10.1852 7.06577 10.0681 7.18284C9.95106 7.29991 9.8853 7.45869 9.8853 7.62425V10.7258C9.8853 10.8914 9.95106 11.0501 10.0681 11.1672C10.1852 11.2843 10.344 11.35 10.5095 11.35H13.6111C13.7767 11.35 13.9354 11.2843 14.0525 11.1672C14.1696 11.0501 14.2353 10.8914 14.2353 10.7258V10.7229ZM24.4764 20.08H16.1015V21.5386H24.4764V20.08ZM10.899 20.08H6.96533V21.5386H10.899V20.08ZM15.6909 22.3758V19.2742C15.6909 19.1086 15.6252 18.9499 15.5081 18.8328C15.391 18.7157 15.2323 18.65 15.0667 18.65H11.9651C11.7996 18.65 11.6408 18.7157 11.5237 18.8328C11.4067 18.9499 11.3409 19.1086 11.3409 19.2742V22.3758C11.3409 22.5413 11.4067 22.7001 11.5237 22.8172C11.6408 22.9342 11.7996 23 11.9651 23H15.0667C15.2323 23 15.391 22.9342 15.5081 22.8172C15.6252 22.7001 15.6909 22.5413 15.6909 22.3758ZM6.96533 15.7285H16.8344V14.27H6.96533V15.7285ZM21.9641 15.7285H24.4764V14.27H21.9641V15.7285ZM17.2071 13.4314V16.5329C17.207 16.6149 17.223 16.696 17.2543 16.7717C17.2856 16.8475 17.3315 16.9163 17.3894 16.9743C17.4474 17.0322 17.5161 17.0782 17.5918 17.1096C17.6675 17.141 17.7487 17.1572 17.8306 17.1572H20.9329C21.0148 17.1572 21.096 17.141 21.1717 17.1096C21.2474 17.0782 21.3161 17.0322 21.374 16.9743C21.4319 16.9163 21.4779 16.8475 21.5091 16.7717C21.5404 16.696 21.5565 16.6149 21.5564 16.5329V13.4314C21.5564 13.266 21.4907 13.1074 21.3738 12.9905C21.2568 12.8735 21.0982 12.8078 20.9329 12.8078H17.8306C17.6652 12.8078 17.5066 12.8735 17.3897 12.9905C17.2728 13.1074 17.2071 13.266 17.2071 13.4314Z" fill="white"/>
</svg>
