<svg width="30" height="30" viewBox="0 0 30 30" fill="none" xmlns="http://www.w3.org/2000/svg">
<rect width="30" height="30" rx="6" fill="#566D82"/>
<path d="M23.511 9.88569H13.6419V8.42717H23.511V9.88569ZM8.51304 8.42717H6V9.88569H8.51304V8.42717ZM13.27 10.7229V7.62425C13.27 7.45869 13.2042 7.29991 13.0872 7.18284C12.9701 7.06577 12.8113 7 12.6458 7H9.54421C9.37865 7 9.21987 7.06577 9.1028 7.18284C8.98573 7.29991 8.91996 7.45869 8.91996 7.62425V10.7258C8.91996 10.8914 8.98573 11.0501 9.1028 11.1672C9.21987 11.2843 9.37865 11.35 9.54421 11.35H12.6458C12.8113 11.35 12.9701 11.2843 13.0872 11.1672C13.2042 11.0501 13.27 10.8914 13.27 10.7258V10.7229ZM23.511 20.08H15.1362V21.5386H23.511V20.08ZM9.93364 20.08H6V21.5386H9.93364V20.08ZM14.7256 22.3758V19.2742C14.7256 19.1086 14.6598 18.9499 14.5428 18.8328C14.4257 18.7157 14.2669 18.65 14.1014 18.65H10.9998C10.8343 18.65 10.6755 18.7157 10.5584 18.8328C10.4413 18.9499 10.3756 19.1086 10.3756 19.2742V22.3758C10.3756 22.5413 10.4413 22.7001 10.5584 22.8172C10.6755 22.9342 10.8343 23 10.9998 23H14.1014C14.2669 23 14.4257 22.9342 14.5428 22.8172C14.6598 22.7001 14.7256 22.5413 14.7256 22.3758ZM6 15.7285H15.8691V14.27H6V15.7285ZM20.9987 15.7285H23.511V14.27H20.9987V15.7285ZM16.2418 13.4314V16.5329C16.2417 16.6149 16.2577 16.696 16.289 16.7717C16.3203 16.8475 16.3662 16.9163 16.4241 16.9743C16.482 17.0322 16.5508 17.0782 16.6265 17.1096C16.7022 17.141 16.7833 17.1572 16.8653 17.1572H19.9675C20.0495 17.1572 20.1306 17.141 20.2063 17.1096C20.282 17.0782 20.3508 17.0322 20.4087 16.9743C20.4666 16.9163 20.5125 16.8475 20.5438 16.7717C20.5751 16.696 20.5912 16.6149 20.5911 16.5329V13.4314C20.5911 13.266 20.5254 13.1074 20.4084 12.9905C20.2915 12.8735 20.1329 12.8078 19.9675 12.8078H16.8653C16.6999 12.8078 16.5413 12.8735 16.4244 12.9905C16.3074 13.1074 16.2418 13.266 16.2418 13.4314Z" fill="white"/>
</svg>
