<svg width="16" height="16" viewBox="0 0 16 16" fill="none" xmlns="http://www.w3.org/2000/svg">
<path d="M2.47107 0.5C2.47107 0.233333 2.23774 0 1.97107 0H0.971069C0.704403 0 0.471069 0.233333 0.471069 0.5V15.5C0.471069 15.7667 0.704403 16 0.971069 16H1.97107C2.23774 16 2.47107 15.7667 2.47107 15.5V0.5Z" fill="#3845B3"/>
<path d="M15.3044 1.89993C9.97107 4.69993 10.5711 -1.03341 4.13774 1.19993C3.93774 1.26659 3.8044 1.46659 3.8044 1.66659V9.43326C3.8044 9.66659 4.03774 9.83326 4.23774 9.73326C10.6377 7.59993 9.97107 13.4666 15.5377 10.3333C15.7044 10.2333 15.8044 10.0666 15.8044 9.89993V2.16659C15.8044 1.93326 15.5377 1.76659 15.3044 1.89993Z" fill="#3845B3"/>
</svg>
