<svg width="12" height="13" viewBox="0 0 12 13" fill="none" xmlns="http://www.w3.org/2000/svg">
<path d="M1.5 1.29297C1.5 1.09297 1.325 0.917969 1.125 0.917969H0.375C0.175 0.917969 0 1.09297 0 1.29297V12.543C0 12.743 0.175 12.918 0.375 12.918H1.125C1.325 12.918 1.5 12.743 1.5 12.543V1.29297Z" fill="#818181"/>
<path d="M11.125 2.34291C7.125 4.44291 7.575 0.142915 2.75 1.81791C2.6 1.86791 2.5 2.01791 2.5 2.16791V7.99291C2.5 8.16791 2.675 8.29291 2.825 8.21791C7.625 6.61791 7.125 11.0179 11.3 8.66791C11.425 8.59291 11.5 8.46791 11.5 8.34291V2.54291C11.5 2.36791 11.3 2.24291 11.125 2.34291Z" fill="#818181"/>
</svg>
