<svg width="30" height="30" viewBox="0 0 30 30" fill="none" xmlns="http://www.w3.org/2000/svg">
<rect x="0.5" y="0.5" width="29" height="29" rx="4.5" stroke="#DFE1E6"/>
<path d="M14.9947 22.9999C17.071 22.9999 19.1479 22.9999 21.2254 22.9999C22.4357 22.9999 23.1885 22.2731 23.1936 21.1153C23.1936 20.3238 23.1936 19.5315 23.1936 18.7391C23.1936 18.1598 22.8189 17.7624 22.288 17.7608C21.7571 17.7591 21.3944 18.1401 21.3876 18.7375C21.3816 19.2422 21.3935 19.7478 21.3876 20.2525C21.3756 20.908 21.0154 21.262 20.3232 21.2628C16.7817 21.2677 13.2405 21.2677 9.6995 21.2628C8.98852 21.2628 8.6326 20.9088 8.62321 20.2214C8.61638 19.7027 8.62919 19.184 8.61895 18.6645C8.60785 18.1303 8.23999 17.7632 7.73129 17.7632C7.22259 17.7632 6.81973 18.1492 6.81546 18.6899C6.80778 19.5503 6.80522 20.4107 6.81546 21.2702C6.8159 21.4989 6.86349 21.7252 6.95547 21.9362C7.04746 22.1471 7.18203 22.3385 7.35142 22.4993C7.52082 22.6601 7.72169 22.7871 7.94246 22.873C8.16322 22.959 8.39952 23.0021 8.63773 22.9999C10.7562 22.9999 12.8754 22.9999 14.9947 22.9999Z" fill="black"/>
<path d="M14.9998 16.0187C17.9587 16.0187 20.9176 16.0187 23.8764 16.0187C24.5789 16.0187 24.986 15.7041 24.9996 15.1649C25.0107 14.7307 24.7632 14.4021 24.3168 14.2997C24.1225 14.262 23.9243 14.2461 23.7262 14.2521C17.9075 14.2521 12.0896 14.2521 6.27263 14.2521C6.17277 14.2521 6.07376 14.2521 5.9739 14.2521C5.37643 14.28 5.0043 14.6176 5.00004 15.1256C4.99577 15.6336 5.36619 15.986 5.95427 16.0179C6.06778 16.0245 6.18216 16.0179 6.29567 16.0179L14.9998 16.0187Z" fill="black"/>
<path d="M14.0985 7.29146L14.0985 8.9712L15.8909 8.9712L15.8909 7.29146L14.0985 7.29146Z" fill="black"/>
<path d="M21.4123 12.4946L23.1671 12.4946L23.1671 10.8009L21.4123 10.8009L21.4123 12.4946Z" fill="black"/>
<path d="M17.7567 8.9884L19.5141 8.9884L19.5141 7.29555L17.7567 7.29555L17.7567 8.9884Z" fill="black"/>
<path d="M10.4907 8.9884L12.2379 8.9884L12.2379 7.29719L10.4907 7.29719L10.4907 8.9884Z" fill="black"/>
<path d="M6.84192 12.4888L8.5942 12.4888L8.5942 10.8099L6.84192 10.8099L6.84192 12.4888Z" fill="black"/>
<path d="M23.1859 8.97365C23.0809 7.95843 22.4067 7.32504 21.414 7.28571L21.414 8.97365L23.1859 8.97365Z" fill="black"/>
<path d="M8.59334 8.9712L8.59334 7.29719C7.62631 7.28654 6.88631 7.98548 6.82229 8.9712L8.59334 8.9712Z" fill="black"/>
</svg>
