<svg width="30" height="30" viewBox="0 0 30 30" fill="none" xmlns="http://www.w3.org/2000/svg">
<rect x="0.5" y="0.5" width="29" height="29" rx="4.5" stroke="#DFE1E6"/>
<path d="M22.9999 15.0053C22.9999 12.929 22.9999 10.8521 22.9999 8.77461C22.9999 7.56432 22.2599 6.81152 21.0811 6.8064C20.2751 6.8064 19.4684 6.8064 18.6616 6.8064C18.0718 6.8064 17.6672 7.18109 17.6655 7.71198C17.6638 8.24287 18.0518 8.60561 18.66 8.61244C19.1739 8.61842 19.6886 8.60647 20.2026 8.61244C20.87 8.62439 21.2304 8.98457 21.2312 9.67678C21.2362 13.2183 21.2362 16.7595 21.2312 20.3005C21.2312 21.0115 20.8708 21.3674 20.1709 21.3768C19.6428 21.3836 19.1147 21.3708 18.5857 21.3811C18.0418 21.3922 17.668 21.76 17.668 22.2687C17.668 22.7774 18.061 23.1803 18.6116 23.1845C19.4876 23.1922 20.3636 23.1948 21.2387 23.1845C21.4716 23.1841 21.7021 23.1365 21.9168 23.0445C22.1316 22.9525 22.3265 22.818 22.4902 22.6486C22.6539 22.4792 22.7833 22.2783 22.8707 22.0575C22.9582 21.8368 23.0021 21.6005 22.9999 21.3623C22.9999 19.2438 22.9999 17.1246 22.9999 15.0053Z" fill="black"/>
<path d="M15.8918 15.0002C15.8918 12.0413 15.8918 9.08245 15.8918 6.12359C15.8918 5.42114 15.5714 5.01401 15.0225 5.00036C14.5803 4.98926 14.2458 5.23678 14.1415 5.68317C14.1032 5.87749 14.0869 6.07568 14.0931 6.27381C14.0931 12.0925 14.0931 17.9104 14.0931 23.7274C14.0931 23.8272 14.0931 23.9262 14.0931 24.0261C14.1215 24.6236 14.4652 24.9957 14.9824 25C15.4997 25.0042 15.8584 24.6338 15.891 24.0457C15.8977 23.9322 15.891 23.8178 15.891 23.7043L15.8918 15.0002Z" fill="black"/>
<path d="M7.00585 15.9015H8.71613V14.1091H7.00585V15.9015Z" fill="black"/>
<path d="M12.3036 8.58769V6.83286H10.5791V8.58769H12.3036Z" fill="black"/>
<path d="M8.73365 12.2433V10.4859H7.01001V12.2433H8.73365Z" fill="black"/>
<path d="M8.73365 19.5093V17.7621H7.01168V19.5093H8.73365Z" fill="black"/>
<path d="M12.2977 23.1581V21.4058H10.5883V23.1581H12.2977Z" fill="black"/>
<path d="M8.71862 6.81408C7.68495 6.91906 7.04004 7.59334 7 8.58598H8.71862V6.81408Z" fill="black"/>
<path d="M8.71613 21.4067H7.01168C7.00083 22.3737 7.71248 23.1137 8.71613 23.1777V21.4067Z" fill="black"/>
</svg>
