<svg width="30" height="30" viewBox="0 0 30 30" fill="none" xmlns="http://www.w3.org/2000/svg">
<rect width="30" height="30" rx="3" fill="#00CFDC"/>
<path d="M20.3387 9.31162V13.1731C19.6078 13.323 19.5852 13.3113 19.3951 12.654C19.3289 12.4271 19.2695 12.1977 19.1941 11.9741C18.9363 11.2022 18.3066 10.7408 17.5012 10.7291C17.152 10.7241 16.8037 10.7291 16.4554 10.7291C15.7421 10.7291 15.7203 10.7492 15.7203 11.4467C15.7203 13.0654 15.7203 14.6841 15.7203 16.3028C15.7203 16.9442 15.7111 17.5864 15.7203 18.2285C15.7379 19.1495 16.2511 19.6887 17.1747 19.7901C17.6293 19.8395 18.0806 19.9115 18.5562 19.9768V20.6809H11.4427V19.9759C11.9451 19.9098 12.4257 19.8428 12.9079 19.785C13.7025 19.6904 14.2584 19.1512 14.266 18.3508C14.2877 15.9662 14.2752 13.5784 14.2794 11.1972C14.2794 10.8622 14.1303 10.7174 13.7921 10.7291C13.3601 10.7442 12.9272 10.7291 12.4952 10.735C12.1233 10.7325 11.7603 10.8479 11.4582 11.0647C11.1562 11.2815 10.9306 11.5885 10.8139 11.9415C10.7369 12.1642 10.6825 12.3953 10.6172 12.6222C10.4288 13.2778 10.4279 13.2778 9.67188 13.2083V9.32502C10.0997 9.32502 10.5309 9.1877 10.8817 9.5762C10.947 9.64904 11.1137 9.65155 11.2334 9.65155C13.7452 9.65546 16.257 9.65546 18.7688 9.65155C18.8768 9.65155 19.0317 9.6616 19.0861 9.59797C19.4269 9.20278 19.8656 9.30492 20.3387 9.31162Z" fill="white"/>
<path d="M8.58203 6.77034V6.09131H21.4124V6.77034H8.58203Z" fill="white"/>
<path d="M6.09766 8.58813H6.75826V21.4218H6.09766V8.58813Z" fill="white"/>
<path d="M23.9195 21.4259H23.2422V8.59473H23.9195V21.4259Z" fill="white"/>
<path d="M21.4163 23.2495V23.9193H8.58594V23.2495H21.4163Z" fill="white"/>
<path d="M5.00893 6.40117C5.00893 6.06626 5.00893 5.73135 5.00893 5.39645C5.00893 5.14526 5.14457 5.00963 5.39742 5.00879C6.07896 5.00879 6.7605 5.00879 7.44204 5.00879C7.71415 5.00879 7.86067 5.15699 7.86067 5.41989C7.86904 6.08971 7.86821 6.75952 7.86067 7.42264C7.86067 7.70564 7.69908 7.86304 7.41608 7.86555C6.74626 7.87141 6.08147 7.87225 5.41333 7.86555C5.15042 7.86555 5.00391 7.71568 5.00391 7.44692C5.00391 7.09945 5.00391 6.75199 5.00391 6.40452L5.00893 6.40117Z" fill="white"/>
<path d="M22.1345 6.42129C22.1345 6.11569 22.1345 5.81008 22.1345 5.50029C22.1345 5.1905 22.2642 4.99793 22.6033 5.00379C23.2572 5.00379 23.9103 5.00379 24.5642 5.00379C24.8573 5.00379 24.9988 5.14613 24.9979 5.43834C24.9979 6.09141 24.9979 6.74531 24.9979 7.39922C24.9979 7.70901 24.848 7.86391 24.5416 7.86558C23.8885 7.86558 23.2346 7.86977 22.5807 7.86558C22.2977 7.86558 22.1428 7.70483 22.137 7.42183C22.1294 7.08943 22.1345 6.75536 22.1345 6.42129Z" fill="white"/>
<path d="M5.00398 23.5568C5.00398 23.2369 5.00398 22.9171 5.00398 22.5973C5.00398 22.3101 5.13794 22.146 5.42261 22.1435C6.09243 22.1368 6.76001 22.1368 7.42536 22.1435C7.71004 22.1435 7.85823 22.3109 7.85991 22.5956C7.86382 23.2492 7.86382 23.9031 7.85991 24.5573C7.85991 24.8671 7.69245 25.0052 7.38434 25.0036C6.74466 24.9994 6.10415 24.9977 5.46447 25.0036C5.12957 25.0036 4.98807 24.842 4.99644 24.5154C5.00482 24.1889 5.00314 23.8799 5.00398 23.5568Z" fill="white"/>
<path d="M23.5844 25.0028C23.2645 25.0028 22.9447 24.9977 22.6248 25.0028C22.305 25.0078 22.1359 24.8529 22.1367 24.5255C22.1367 23.8858 22.1367 23.2453 22.1367 22.6057C22.1367 22.3017 22.2992 22.1418 22.6031 22.1401C23.257 22.1401 23.9101 22.1401 24.564 22.1401C24.8486 22.1401 24.9977 22.2925 24.9968 22.5839C24.9968 23.2537 24.9968 23.9185 24.9968 24.5858C24.9968 24.8588 24.8578 24.9969 24.5849 24.9977H23.5844V25.0028Z" fill="white"/>
</svg>
