<svg width="30" height="30" viewBox="0 0 30 30" fill="none" xmlns="http://www.w3.org/2000/svg">
<g id="Group 40158">
<g id="Group 40133">
<g id="Group 40177">
<rect id="Rectangle 1866" width="30" height="30" rx="3" fill="#FF9128"/>
<g id="Group 40176">
<path id="Vector" d="M15.012 7.00554H20.9807C22.2074 7.00554 22.9967 7.7892 22.9973 9.0053C22.9973 13.0048 22.9973 17.0044 22.9973 21.0039C22.9973 22.2219 22.2074 23.0037 20.9807 23.0037C16.9916 23.0037 13.0025 23.0037 9.01336 23.0037C7.77288 23.0037 6.99672 22.2219 6.99609 20.972V9.03592C6.99609 7.77482 7.77288 7.00429 9.04398 7.00366L15.012 7.00554ZM21.7487 15.0227C21.7487 13.023 21.7487 11.0232 21.7487 9.02343C21.7487 8.48537 21.5231 8.25352 20.9988 8.25352C16.9993 8.25352 12.9998 8.25352 9.00024 8.25352C8.47342 8.25352 8.24595 8.48536 8.24595 9.0203C8.24595 13.0078 8.24595 16.9958 8.24595 20.9845C8.24595 21.5326 8.47217 21.7544 9.02836 21.7551H20.9645C21.5338 21.7551 21.7506 21.5345 21.7506 20.9564C21.7498 18.9775 21.7492 16.9996 21.7487 15.0227Z" fill="white"/>
<path id="Vector_2" d="M13.8215 19.1497L9.53516 15.0752L10.3944 14.1703L13.7503 17.3531L19.529 10.9038C19.8415 11.1844 20.1427 11.4506 20.462 11.7343L13.8215 19.1497Z" fill="white"/>
</g>
</g>
</g>
</g>
</svg>
