<svg width="30" height="30" viewBox="0 0 30 30" fill="none" xmlns="http://www.w3.org/2000/svg">
<rect width="30" height="30" rx="3" fill="#03A2FD"/>
<path d="M14.9592 21.9826C12.3775 21.9826 9.79585 21.9474 7.2151 21.9966C5.77666 22.0235 4.98732 20.9437 5.00015 19.7451C5.03591 16.5762 5.01115 13.4083 5.01298 10.2394C5.01298 8.82284 5.79318 8.00649 7.18119 8.00464C12.3904 7.99845 17.5992 7.99845 22.8078 8.00464C24.2041 8.00464 24.9861 8.81634 24.987 10.231C24.987 13.399 24.9641 16.5679 24.9998 19.7368C25.0136 20.8964 24.2765 22.0309 22.7491 21.9994C20.1537 21.9474 17.5555 21.9826 14.9592 21.9826ZM6.26165 21.0745C6.57978 21.1413 6.78056 21.2201 6.98225 21.2201C12.3277 21.2269 17.6732 21.2269 23.0187 21.2201C23.2378 21.2201 23.4569 21.1171 23.7392 21.0457L18.1468 14.5957C18.0552 14.6615 18.0047 14.6884 17.9635 14.7311C17.1026 15.4955 16.2372 16.2553 15.3855 17.0289C15.1187 17.2711 14.9033 17.2859 14.6356 17.0289C14.1671 16.5864 13.6784 16.1653 13.1962 15.7376C12.7653 15.3564 12.3326 14.9779 11.8907 14.5892L6.26165 21.0745ZM23.4349 8.81449H6.56603C9.4264 11.3702 12.1997 13.847 15.0005 16.348L23.4349 8.81449ZM6.00954 9.3312C5.7455 9.77648 5.63458 19.6422 5.87936 20.3704L11.3306 14.0855L6.00954 9.3312ZM18.6933 14.0734L24.1747 20.3899C24.2054 20.2226 24.2271 20.0539 24.2398 19.8843C24.2398 16.6263 24.2398 13.3684 24.2398 10.1104C24.2398 9.85625 24.138 9.60207 24.0674 9.27553L18.6933 14.0734Z" fill="white"/>
</svg>
