<svg width="16" height="18" viewBox="0 0 16 18" fill="none" xmlns="http://www.w3.org/2000/svg">
<path d="M3.18201 17.8794C3.01455 17.8801 2.85289 17.8181 2.72888 17.7056C2.60487 17.593 2.52746 17.4382 2.51196 17.2714L1.401 4.7624H0V3.4314H4.68396V1.98841C4.68581 1.69286 4.80472 1.41009 5.01465 1.20203C5.22458 0.993982 5.5084 0.877626 5.80396 0.878425H10.196C10.4917 0.877361 10.7756 0.99362 10.9856 1.20173C11.1956 1.40984 11.3145 1.69278 11.316 1.98841V3.4314H16V4.7624H14.576L13.465 17.2714C13.4497 17.4383 13.3725 17.5932 13.2484 17.7058C13.1244 17.8184 12.9626 17.8804 12.795 17.8794H3.18201ZM3.79797 16.5484H12.1801L13.228 4.7624H2.75L3.79797 16.5484ZM9.97205 3.4314V2.21137H6.02795V3.4314H9.97205ZM9.63599 14.5694L9.92798 6.69038L11.272 6.73939L10.98 14.6174L9.63599 14.5694ZM4.72803 6.73939L6.07202 6.69038L6.36401 14.5694L5.02002 14.6184L4.72803 6.73939ZM7.328 14.5994V6.71943H8.66797V14.5994H7.328Z" fill="#959595"/>
</svg>
