<svg width="30" height="30" viewBox="0 0 30 30" fill="none" xmlns="http://www.w3.org/2000/svg">
<rect width="30" height="30" rx="3" fill="#9A9D0F"/>
<path d="M9.55291 9.23C10.4846 9.23541 11.0359 9.68088 11.3735 10.4519C12.3473 12.6853 13.3246 14.9172 14.3056 17.1475C14.5567 17.7229 14.8186 18.2937 15.052 18.8762C15.3664 19.6599 15.0894 20.439 14.3938 20.7925C13.6616 21.164 12.8226 20.9115 12.4102 20.1541C12.1835 19.7164 11.9844 19.2646 11.8143 18.8014C11.7155 18.5471 11.5881 18.4326 11.2977 18.4407C10.1411 18.4587 8.98317 18.4587 7.8241 18.4407C7.53463 18.4407 7.40904 18.5435 7.31107 18.8014C7.141 19.2632 6.94503 19.7148 6.72411 20.1541C6.58322 20.4301 6.36071 20.6546 6.08766 20.7964C5.81461 20.9382 5.50465 20.9901 5.20105 20.9449C4.60785 20.8547 4.13223 20.4327 4.02357 19.8141C3.97315 19.5213 4.00398 19.22 4.11264 18.9439C5.34712 16.0744 6.59615 13.211 7.85972 10.3536C8.19551 9.59702 8.79761 9.22008 9.55291 9.23ZM9.61615 9.95592C9.00959 9.91534 8.66668 10.2688 8.43867 10.7901L7.12848 13.7903C6.35655 15.5565 5.58463 17.3234 4.81271 19.0909C4.58292 19.6193 4.76194 20.0828 5.22866 20.2145C5.58493 20.3155 5.96703 20.118 6.15853 19.6987C6.39367 19.1819 6.61188 18.6571 6.82119 18.1287C6.93609 17.8383 7.11779 17.7166 7.43042 17.7184C8.8555 17.728 10.2806 17.728 11.7057 17.7184C12.0192 17.7184 12.1956 17.8437 12.3096 18.1332C12.5126 18.6472 12.7264 19.1585 12.9615 19.6581C13.2038 20.1721 13.626 20.3561 14.0357 20.1622C14.4606 19.9611 14.5754 19.5526 14.3439 19.0214C13.6313 17.391 12.9188 15.7612 12.2062 14.132C11.7155 13.0093 11.2265 11.8848 10.7348 10.763C10.5193 10.2797 10.2084 9.92707 9.61615 9.95773V9.95592Z" fill="white"/>
<path d="M20.9989 20.3046C20.0058 20.9918 18.9387 21.1812 17.8031 20.9007C16.403 20.5544 15.5889 19.5246 15.5844 18.1368C15.5791 16.7039 16.4145 15.6344 17.8245 15.2872C18.6776 15.08 19.5651 15.0633 20.4253 15.2385C20.525 15.2574 20.6266 15.2665 20.7352 15.2809C20.6096 14.802 20.3104 14.5495 19.7501 14.5667C19.1458 14.5834 18.5437 14.65 17.9501 14.766C17.1859 14.9193 16.5116 14.6145 16.2961 13.939C16.0645 13.2113 16.4395 12.4962 17.2028 12.2329C18.4007 11.8214 19.6815 11.7212 20.9276 11.9416C22.6315 12.2383 23.6887 13.4449 23.7413 15.1943C23.7822 16.5903 23.7573 17.9898 23.7689 19.3839C23.7751 20.0711 23.4963 20.5887 22.8657 20.843C22.2111 21.1063 21.6188 20.9638 21.1253 20.4318C21.096 20.3948 21.0621 20.366 20.9989 20.3046ZM23.0528 17.3414H23.0341C23.0341 16.62 23.0599 15.8986 23.0278 15.1772C22.9682 13.8191 22.1799 12.902 20.859 12.6567C19.7329 12.4418 18.5709 12.5266 17.4869 12.9029C17.0416 13.0571 16.8634 13.3367 16.9783 13.7055C17.0736 14.0247 17.3889 14.1194 17.82 14.0509C18.4604 13.9508 19.1088 13.8462 19.7528 13.8471C20.7878 13.8471 21.4451 14.4945 21.5342 15.4703C21.5903 16.1322 21.4389 16.2584 20.81 16.0744C19.7599 15.7669 18.7054 15.7318 17.6659 16.0961C16.761 16.4135 16.2711 17.1782 16.3005 18.1413C16.3308 19.1495 16.8483 19.8853 17.7826 20.1468C18.9076 20.4616 19.9505 20.3164 20.8332 19.4597C21.1779 19.1251 21.4032 19.1837 21.5377 19.6184C21.6722 20.0531 21.992 20.2767 22.391 20.2262C22.79 20.1757 23.0421 19.8853 23.0483 19.4074C23.059 18.722 23.0528 18.0313 23.0528 17.3414Z" fill="white"/>
<path d="M25.5796 21.3065H26.7482V22H23.6433V21.3318H24.7967V8.71601H23.6433V8H26.75V8.67904H25.5796V21.3065Z" fill="white"/>
<path d="M9.56894 16.3603C9.1236 16.3603 8.67826 16.3666 8.23292 16.3603C7.78758 16.354 7.64864 16.1628 7.80896 15.7669C8.26321 14.6445 8.72963 13.5272 9.20822 12.4151C9.26255 12.2888 9.44336 12.1274 9.54935 12.1391C9.62983 12.1568 9.70544 12.1924 9.77074 12.2432C9.83604 12.294 9.8894 12.3589 9.927 12.4331C10.4008 13.5305 10.8569 14.637 11.304 15.7462C11.4679 16.1502 11.3307 16.3495 10.9041 16.3594C10.4596 16.3693 10.0143 16.3603 9.56894 16.3603ZM9.56004 13.3926L8.64353 15.6245H10.4846L9.56004 13.3926Z" fill="white"/>
<path d="M19.7724 16.4505C20.2971 16.5785 20.7807 16.6561 21.2305 16.8256C21.3953 16.887 21.5725 17.1566 21.5868 17.3441C21.6491 18.1242 21.3668 18.7744 20.6462 19.1224C19.8784 19.4922 19.075 19.5923 18.3304 19.0674C17.5858 18.5426 17.6615 17.2891 18.497 16.8419C18.8835 16.6309 19.352 16.5722 19.7724 16.4505ZM19.7039 17.2206C19.4892 17.2783 19.1597 17.3162 18.8773 17.4533C18.7854 17.5009 18.7067 17.5708 18.6481 17.6568C18.5895 17.7428 18.5529 17.8422 18.5416 17.9461C18.5303 18.05 18.5446 18.1551 18.5833 18.2519C18.622 18.3488 18.6839 18.4344 18.7633 18.5011C19.2977 18.9313 20.5447 18.6057 20.8047 17.9673C20.9784 17.5452 20.9214 17.4262 20.4698 17.3297C20.2552 17.2819 20.0343 17.2621 19.7039 17.2188V17.2206Z" fill="white"/>
</svg>
