<svg width="6" height="21" viewBox="0 0 6 21" fill="none" xmlns="http://www.w3.org/2000/svg">
<path d="M0.0177001 18.374C-0.0425347 17.8671 0.0527884 17.3538 0.291016 16.9024C0.529243 16.4509 0.899119 16.0825 1.35156 15.8461C1.80401 15.6098 2.31768 15.5165 2.82434 15.5788C3.331 15.6411 3.80665 15.856 4.18835 16.195C4.57006 16.5339 4.83966 16.9809 4.96143 17.4766C5.08319 17.9724 5.05136 18.4934 4.87012 18.9707C4.68888 19.4479 4.3668 19.8587 3.94666 20.1486C3.52651 20.4386 3.02817 20.5939 2.5177 20.594C1.89237 20.6288 1.27861 20.4149 0.810303 19.999C0.341995 19.5832 0.0571155 18.9991 0.0177001 18.374ZM0.0177001 10.594C-0.042742 10.0871 0.0524432 9.57374 0.290527 9.12215C0.528611 8.67055 0.898305 8.30205 1.35071 8.06551C1.80311 7.82896 2.31677 7.73558 2.82349 7.79774C3.3302 7.85991 3.80606 8.0747 4.18787 8.41359C4.56967 8.75248 4.83932 9.19945 4.96118 9.69521C5.08304 10.191 5.0513 10.7121 4.87012 11.1893C4.68893 11.6666 4.36693 12.0775 3.94678 12.3675C3.52663 12.6575 3.02821 12.8129 2.5177 12.813C1.89246 12.848 1.27876 12.6344 0.810425 12.2187C0.342086 11.803 0.0571118 11.219 0.0177001 10.594ZM0.0177001 2.81398C-0.0425347 2.30707 0.0527884 1.79384 0.291016 1.34236C0.529243 0.890884 0.899119 0.522536 1.35156 0.286148C1.80401 0.0497599 2.31768 -0.0434826 2.82434 0.0188141C3.331 0.0811108 3.80665 0.296013 4.18835 0.634964C4.57006 0.973915 4.83966 1.4209 4.96143 1.91664C5.08319 2.41238 5.05136 2.93344 4.87012 3.41066C4.68888 3.88788 4.3668 4.2987 3.94666 4.58864C3.52651 4.87857 3.02817 5.03389 2.5177 5.03401C1.8923 5.06904 1.27843 4.85526 0.810058 4.43935C0.341691 4.02344 0.0568589 3.43913 0.0177001 2.81398Z" fill="#CFCFCF"/>
</svg>
