<svg width="30" height="30" viewBox="0 0 30 30" fill="none" xmlns="http://www.w3.org/2000/svg">
<rect width="30" height="30" rx="3" fill="#0918EC"/>
<path d="M12.1725 18.3501C12.0077 19.2215 11.8431 20.0914 11.6789 20.96C11.5942 21.4099 11.5137 21.8597 11.4248 22.3079C11.3292 22.8077 11.0015 23.0726 10.5968 22.9826C10.1921 22.8927 10.0117 22.5328 10.1074 22.0288C10.3199 20.9134 10.5256 19.7963 10.7314 18.68C10.7492 18.585 10.75 18.4867 10.7644 18.3293H10.3546C9.16922 18.3293 7.98383 18.3293 6.79844 18.3293C6.30142 18.3293 6 18.0702 6 17.6628C6 17.2555 6.29804 17.0014 6.79929 16.9964C8.05467 16.9964 9.31034 16.9964 10.5663 16.9964H11.0354C11.2843 15.6502 11.5248 14.3465 11.7745 12.9978H10.1404C9.34957 12.9978 8.55959 12.9978 7.76961 12.9978C7.2709 12.9978 6.98641 12.7396 6.99488 12.3181C7.0025 11.9141 7.27938 11.6716 7.75692 11.67C9.01259 11.67 10.2683 11.67 11.5239 11.67H12.0133C12.1827 10.7778 12.3478 9.90893 12.5112 9.03923C12.5958 8.5769 12.6805 8.11289 12.7652 7.65055C12.8499 7.18822 13.1945 6.92998 13.5865 7.01661C13.9785 7.10325 14.1792 7.46479 14.0903 7.93296C13.8775 9.04867 13.6675 10.1644 13.4603 11.2801C13.4432 11.4053 13.4328 11.5312 13.429 11.6575H17.4297C17.5669 10.9452 17.7057 10.2296 17.8412 9.51323C17.9563 8.90094 18.0656 8.287 18.1799 7.67472C18.2696 7.20155 18.5888 6.94331 18.9826 7.01661C19.3974 7.09325 19.5956 7.45979 19.5016 7.95211C19.2894 9.06783 19.0802 10.1841 18.8742 11.3009C18.8539 11.4084 18.8547 11.52 18.842 11.6733H20.7894C21.4804 11.6733 22.1721 11.6683 22.863 11.6733C23.316 11.6783 23.6115 11.9624 23.5997 12.3556C23.5878 12.7338 23.3016 12.997 22.8656 12.9987C21.5955 13.0053 20.3254 12.9987 19.0554 12.9987H18.5643L17.8226 16.9972H18.2933C19.4643 16.9972 20.6362 16.9972 21.8072 16.9972C22.3152 16.9972 22.5997 17.2388 22.6039 17.6554C22.6082 18.0719 22.3245 18.3218 21.8199 18.3218C20.4237 18.3218 19.0257 18.3218 17.5863 18.3218C17.4466 19.0499 17.3078 19.7654 17.1732 20.4819C17.0572 21.0941 16.9488 21.7081 16.8345 22.3204C16.7447 22.7935 16.4238 23.0526 16.0309 22.9785C15.6178 22.901 15.4196 22.5345 15.5136 22.0421C15.7264 20.927 15.9356 19.8107 16.141 18.6933C16.1605 18.5859 16.1596 18.4742 16.1706 18.3426L12.1725 18.3501ZM12.4214 16.9739H16.4628C16.7066 15.6494 16.9479 14.3474 17.1926 13.0228H13.1487C12.9074 14.3474 12.6661 15.6494 12.4214 16.9739Z" fill="white"/>
</svg>
