<svg width="30" height="30" viewBox="0 0 30 30" fill="none" xmlns="http://www.w3.org/2000/svg">
<rect width="30" height="30" rx="3" fill="#40BC86"/>
<path d="M15.0018 24.9901C13.2975 24.9901 11.5933 25.0067 9.88912 24.9857C7.45166 24.9569 5.58402 23.4126 5.09024 21.0311C5.03045 20.7019 5.0038 20.3675 5.01071 20.033C5.00546 16.6674 4.99847 13.3036 5.01071 9.93711C5.02032 7.45858 6.58382 5.5586 8.99769 5.07443C9.31332 5.01975 9.63354 4.99604 9.95379 5.00364C13.3185 4.99927 16.6832 4.98966 20.0488 5.00364C22.5387 5.01413 24.4273 6.56627 24.9203 8.98013C24.973 9.2663 24.997 9.55703 24.9919 9.84797C24.9972 13.2712 25.0111 16.6945 24.9919 20.1178C24.9771 22.5457 23.4092 24.422 21.0277 24.9079C20.6547 24.9706 20.2766 24.9969 19.8985 24.9866C18.2651 24.9953 16.6334 24.991 15.0018 24.9901ZM23.5988 15.0323C23.5988 13.3866 23.5988 11.741 23.5945 10.0953C23.6042 9.76113 23.5764 9.42693 23.5114 9.09899C23.1321 7.46295 21.8238 6.41246 20.1074 6.40372C16.699 6.38711 13.2905 6.3976 9.88213 6.40372C9.62037 6.40029 9.35909 6.42697 9.10343 6.48325C7.46914 6.86866 6.41602 8.17784 6.40816 9.89167C6.3933 13.3001 6.40204 16.7085 6.40816 20.1169C6.40517 20.3787 6.43185 20.6399 6.48769 20.8956C6.8731 22.529 8.17704 23.5822 9.89611 23.5909C13.3045 23.6093 16.713 23.5979 20.1214 23.5909C20.3829 23.594 20.6439 23.567 20.8992 23.5105C22.5352 23.1233 23.577 21.8185 23.5953 20.1021C23.6102 18.4118 23.598 16.7216 23.5988 15.0323Z" fill="white"/>
<path d="M14.9626 15.7769C15.9458 14.7902 16.8504 13.8839 17.7549 12.9802C17.8327 12.8937 17.9168 12.813 18.0066 12.739C18.3195 12.5092 18.6341 12.5258 18.9216 12.7783C19.169 12.9951 19.1961 13.4137 18.9933 13.6925C18.9309 13.7735 18.8619 13.8492 18.787 13.9188C17.7383 14.9676 16.6875 16.0181 15.6347 17.0703C15.1654 17.5379 14.8394 17.5379 14.3727 17.0703C13.3199 16.0216 12.2711 14.9702 11.2265 13.9162C11.0971 13.786 10.9582 13.6296 10.911 13.4609C10.8236 13.1428 10.911 12.8491 11.2212 12.6743C11.5315 12.4995 11.8382 12.5642 12.0952 12.8203C12.9394 13.6645 13.7842 14.5093 14.6296 15.3548C14.7476 15.4898 14.8587 15.6307 14.9626 15.7769Z" fill="white"/>
</svg>
