<svg width="9" height="12" viewBox="0 0 9 12" fill="none" xmlns="http://www.w3.org/2000/svg">
<path d="M8.69116 3.28676V11.2269C8.69116 11.6539 8.3448 12 7.91813 12H0.773039C0.346031 12 1.19054e-09 11.6539 1.19054e-09 11.2269V0.773039C-2.34363e-05 0.346031 0.346008 0 0.773039 0H5.40441L8.69116 3.28676Z" fill="#518EF8"/>
<path d="M6.56545 6.0249H2.12109V6.51875H6.56545V6.0249Z" fill="white"/>
<path d="M6.56545 7.12744H2.12109V7.62129H6.56545V7.12744Z" fill="white"/>
<path d="M6.56545 8.23047H2.12109V8.72432H6.56545V8.23047Z" fill="white"/>
<path d="M5.28176 9.3335H2.12109V9.82735H5.28176V9.3335Z" fill="white"/>
<path d="M5.85156 3.21526L8.68989 4.38458V3.28667L7.08065 2.81152L5.85156 3.21526Z" fill="#3A5BBC"/>
<path d="M8.6891 3.28676H6.17538C5.74835 3.28676 5.40234 2.94073 5.40234 2.51372V0L8.6891 3.28676Z" fill="#ACD1FC"/>
</svg>
