<svg width="10" height="12" viewBox="0 0 10 12" fill="none" xmlns="http://www.w3.org/2000/svg">
<path d="M0.995459 4.78366e-10C0.864075 -4.07248e-06 0.73399 0.0260007 0.612706 0.0765151C0.491421 0.127029 0.381336 0.201054 0.288799 0.294319C0.196262 0.387585 0.123103 0.498247 0.0735418 0.619924C0.0239802 0.741601 -0.00100366 0.871886 3.08614e-05 1.00327V11.0046C3.08614e-05 11.2686 0.104906 11.5218 0.291585 11.7084C0.478264 11.8951 0.731455 12 0.995459 12H8.41022C8.67422 12 8.92741 11.8951 9.11409 11.7084C9.30077 11.5218 9.40565 11.2686 9.40565 11.0046V2.83736L6.56045 4.78366e-10H0.995459Z" fill="#3FC685"/>
<path d="M8.93537 11.0124C8.93537 11.1517 8.88004 11.2853 8.78156 11.3837C8.68307 11.4822 8.5495 11.5376 8.41022 11.5376H0.995459C0.856181 11.5376 0.722608 11.4822 0.624124 11.3837C0.52564 11.2853 0.470312 11.1517 0.470312 11.0124V0.995428C0.470312 0.85615 0.52564 0.722577 0.624124 0.624093C0.722608 0.525609 0.856181 0.470281 0.995459 0.470281H7.03857L6.56829 4.78366e-10H0.995459C0.864075 -4.07248e-06 0.73399 0.0260007 0.612706 0.0765151C0.491421 0.127029 0.381336 0.201054 0.288799 0.294319C0.196262 0.387585 0.123103 0.498247 0.0735418 0.619924C0.0239802 0.741601 -0.00100366 0.871886 3.08614e-05 1.00327V11.0046C3.08614e-05 11.2686 0.104906 11.5218 0.291585 11.7084C0.478264 11.8951 0.731455 12 0.995459 12H8.41022C8.67422 12 8.92741 11.8951 9.11409 11.7084C9.30077 11.5218 9.40565 11.2686 9.40565 11.0046V2.83736L8.93537 2.36708V11.0124Z" fill="#1CA362"/>
<path d="M7.38193 3.04115H9.40414V2.83736L6.55894 0H6.37866V2.04572C6.37866 2.1771 6.40466 2.30719 6.45518 2.42847C6.50569 2.54976 6.57972 2.65984 6.67298 2.75238C6.76625 2.84492 6.87691 2.91808 6.99859 2.96764C7.12026 3.0172 7.25055 3.04218 7.38193 3.04115Z" fill="#1CA362"/>
<path d="M4.34947 8.01848V8.74741C4.34947 8.77028 4.34039 8.79221 4.32422 8.80838C4.30805 8.82455 4.28612 8.83363 4.26325 8.83363H2.45267C2.42981 8.83363 2.40788 8.82455 2.39171 8.80838C2.37554 8.79221 2.36646 8.77028 2.36646 8.74741V8.01848C2.3731 8.00133 2.38505 7.98676 2.40056 7.97689C2.41607 7.96702 2.43433 7.96237 2.45267 7.96361H4.25542C4.27501 7.96054 4.29507 7.96432 4.3122 7.97432C4.32934 7.98431 4.3425 7.99991 4.34947 8.01848ZM5.13327 7.23468H6.93602C6.95888 7.23468 6.98081 7.22559 6.99698 7.20942C7.01315 7.19325 7.02224 7.17132 7.02224 7.14846V6.39601C7.02224 6.37314 7.01315 6.35121 6.99698 6.33504C6.98081 6.31887 6.95888 6.30979 6.93602 6.30979H5.09408C5.07122 6.30979 5.04929 6.31887 5.03312 6.33504C5.01695 6.35121 5.00787 6.37314 5.00787 6.39601V7.17981C5.01313 7.19841 5.02449 7.21471 5.04012 7.22608C5.05576 7.23746 5.07476 7.24324 5.09408 7.24251L5.13327 7.23468ZM4.27109 6.3333H2.45267C2.42981 6.3333 2.40788 6.34239 2.39171 6.35856C2.37554 6.37473 2.36646 6.39666 2.36646 6.41952V7.17981C2.36646 7.20268 2.37554 7.22461 2.39171 7.24077C2.40788 7.25694 2.42981 7.26603 2.45267 7.26603H4.25542C4.27828 7.26603 4.30021 7.25694 4.31638 7.24077C4.33255 7.22461 4.34163 7.20268 4.34163 7.17981V6.39601C4.33545 6.38015 4.3247 6.36647 4.31075 6.35671C4.2968 6.34694 4.28028 6.34153 4.26325 6.34114L4.27109 6.3333ZM4.27109 4.7657H2.45267C2.42981 4.7657 2.40788 4.77478 2.39171 4.79095C2.37554 4.80712 2.36646 4.82905 2.36646 4.85192V5.58085C2.36646 5.60372 2.37554 5.62565 2.39171 5.64182C2.40788 5.65799 2.42981 5.66707 2.45267 5.66707H4.25542C4.27828 5.66707 4.30021 5.65799 4.31638 5.64182C4.33255 5.62565 4.34163 5.60372 4.34163 5.58085V4.82841C4.33987 4.80821 4.33104 4.78928 4.31671 4.77495C4.30238 4.76062 4.28345 4.75179 4.26325 4.75002L4.27109 4.7657ZM7.03007 5.5495V4.82841C7.03007 4.80554 7.02099 4.78361 7.00482 4.76744C6.98865 4.75127 6.96672 4.74219 6.94385 4.74219H5.09408C5.07122 4.74219 5.04929 4.75127 5.03312 4.76744C5.01695 4.78361 5.00787 4.80554 5.00787 4.82841V5.55734C5.00787 5.58021 5.01695 5.60214 5.03312 5.61831C5.04929 5.63448 5.07122 5.64356 5.09408 5.64356H6.89683C6.91009 5.65033 6.92488 5.65355 6.93976 5.65291C6.95464 5.65226 6.9691 5.64778 6.98173 5.63988C6.99436 5.63199 7.00473 5.62096 7.01182 5.60787C7.01892 5.59478 7.02251 5.58007 7.02224 5.56518L7.03007 5.5495ZM5.09408 8.83363H6.89683C6.91969 8.83363 6.94162 8.82455 6.95779 8.80838C6.97396 8.79221 6.98305 8.77028 6.98305 8.74741V8.01848C6.98305 7.99561 6.97396 7.97368 6.95779 7.95751C6.94162 7.94134 6.91969 7.93226 6.89683 7.93226H5.09408C5.07122 7.93226 5.04929 7.94134 5.03312 7.95751C5.01695 7.97368 5.00787 7.99561 5.00787 8.01848V8.74741C5.00787 8.77028 5.01695 8.79221 5.03312 8.80838C5.04929 8.82455 5.07122 8.83363 5.09408 8.83363Z" fill="white"/>
</svg>
