<svg width="26" height="18" viewBox="0 0 26 18" fill="none" xmlns="http://www.w3.org/2000/svg">
<path d="M25.3088 0.60853C25.5105 0.794993 25.6714 1.02114 25.7815 1.2728C25.8916 1.52447 25.9484 1.79619 25.9484 2.07088C25.9484 2.34557 25.8916 2.61729 25.7815 2.86896C25.6714 3.12063 25.5105 3.34681 25.3088 3.53328L10.6849 17.394C10.2658 17.7835 9.71488 18 9.14275 18C8.57062 18 8.01969 17.7835 7.6006 17.394L0.639648 10.7947C0.437939 10.6082 0.27698 10.382 0.1669 10.1304C0.0568204 9.87871 0 9.60699 0 9.3323C0 9.05761 0.0568204 8.78589 0.1669 8.53422C0.27698 8.28255 0.437939 8.05637 0.639648 7.86991C1.05859 7.48119 1.60897 7.26519 2.18047 7.26519C2.75196 7.26519 3.30235 7.48119 3.72129 7.86991L9.14009 13.0069L22.2218 0.605853C22.6414 0.215976 23.1931 -0.000492485 23.7658 8.41357e-07C24.3386 0.000494168 24.8899 0.217931 25.3088 0.60853Z" fill="#CFCFCF"/>
</svg>
