<svg width="15" height="10" viewBox="0 0 15 10" fill="none" xmlns="http://www.w3.org/2000/svg">
<path d="M14.101 0.338091C14.207 0.441687 14.2916 0.567328 14.3495 0.707152C14.4073 0.846975 14.4371 0.997939 14.4371 1.15055C14.4371 1.30317 14.4073 1.45413 14.3495 1.59395C14.2916 1.73378 14.207 1.85944 14.101 1.96304L6.41586 9.66387C6.19547 9.87994 5.90606 10 5.6055 10C5.30493 10 5.01544 9.87994 4.79505 9.66387L1.13697 5.99738C1.03097 5.89378 0.946387 5.76812 0.888538 5.62829C0.830689 5.48847 0.800781 5.33751 0.800781 5.18489C0.800781 5.03228 0.830689 4.88131 0.888538 4.74149C0.946387 4.60167 1.03097 4.476 1.13697 4.37241C1.35713 4.15644 1.64632 4.03644 1.94665 4.03644C2.24699 4.03644 2.53626 4.15644 2.75642 4.37241L5.60405 7.22644L12.4788 0.336603C12.6993 0.119993 12.9892 -0.000273618 13.2902 4.67446e-07C13.5912 0.000274553 13.8808 0.121079 14.101 0.338091Z" fill="#CFCFCF"/>
</svg>
