<svg width="18" height="18" viewBox="0 0 18 18" fill="none" xmlns="http://www.w3.org/2000/svg">
<path fill-rule="evenodd" clip-rule="evenodd" d="M15.9458 13.62C15.7039 13.0839 15.5785 12.5199 15.5717 11.9449L15.5224 7.7921C15.4882 4.91153 13.3511 2.47296 10.4643 1.62683C10.2825 0.716284 9.40762 0.0116555 8.36026 0.000135541C7.31289 -0.0110785 6.45436 0.67483 6.29425 1.58165C3.42693 2.36539 1.34708 4.75826 1.38131 7.63876L1.43074 11.7913C1.43749 12.3666 1.32534 12.9279 1.09635 13.4589L0.114109 15.7435C0.029296 15.941 0.058944 16.1647 0.192156 16.3433C0.326167 16.5219 0.546351 16.6296 0.781172 16.6321L6.15601 16.6906C6.66642 17.4706 7.56672 17.9914 8.57392 18.0022C9.58134 18.0132 10.4694 17.5118 10.9615 16.7425L16.3364 16.8008C16.5712 16.8034 16.7888 16.7004 16.9185 16.5247C17.0476 16.3491 17.0718 16.1258 16.9826 15.9263L15.9458 13.62ZM1.80977 15.3577L2.41528 13.9504C2.70882 13.2681 2.85347 12.5465 2.84467 11.8067L2.79535 7.65395C2.76181 4.81722 5.27172 2.53803 8.39081 2.57196C11.5098 2.60569 14.0746 4.94006 14.1083 7.77671L14.1576 11.9295C14.1664 12.669 14.3284 13.3941 14.6381 14.083L15.2771 15.5037L1.80977 15.3577Z" fill="white"/>
</svg>
