<svg width="21" height="17" viewBox="0 0 21 17" fill="none" xmlns="http://www.w3.org/2000/svg">
<path d="M12.1556 0C7.46171 0 3.6556 3.80611 3.6556 8.5H0.822266L4.49615 12.1739L4.56227 12.3061L8.37782 8.5H5.54449C5.54449 4.845 8.5006 1.88889 12.1556 1.88889C15.8106 1.88889 18.7667 4.845 18.7667 8.5C18.7667 12.155 15.8106 15.1111 12.1556 15.1111C10.3328 15.1111 8.68004 14.365 7.49004 13.1656L6.14893 14.5067C7.68838 16.0461 9.80393 17 12.1556 17C16.8495 17 20.6556 13.1939 20.6556 8.5C20.6556 3.80611 16.8495 0 12.1556 0ZM11.2112 4.72222V9.44444L15.2534 11.8433L15.9334 10.7006L12.6278 8.73611V4.72222H11.2112Z" fill="#818181"/>
</svg>
