<svg width="15" height="4" viewBox="0 0 15 4" fill="none" xmlns="http://www.w3.org/2000/svg">
<path d="M13.3807 3.98711C13.0115 4.03098 12.6377 3.96156 12.3089 3.78807C11.9802 3.61459 11.7119 3.34523 11.5398 3.01574C11.3676 2.68626 11.2997 2.31218 11.3451 1.94321C11.3904 1.57424 11.5469 1.22785 11.7938 0.949882C12.0406 0.671912 12.3661 0.475574 12.7271 0.386903C13.0882 0.298231 13.4676 0.321412 13.8151 0.453397C14.1627 0.585382 14.4619 0.819931 14.673 1.1259C14.8841 1.43186 14.9972 1.79477 14.9973 2.16652C15.0226 2.62191 14.8669 3.06887 14.5641 3.40991C14.2612 3.75095 13.8359 3.95841 13.3807 3.98711ZM7.71496 3.98711C7.3458 4.03113 6.97196 3.96181 6.64309 3.78843C6.31422 3.61505 6.04587 3.34582 5.87361 3.01636C5.70134 2.68691 5.63334 2.31284 5.67861 1.94383C5.72388 1.57482 5.8803 1.22828 6.12709 0.950238C6.37389 0.672192 6.69939 0.475823 7.06041 0.38708C7.42144 0.298338 7.80093 0.321449 8.1485 0.453397C8.49608 0.585345 8.7953 0.819838 9.00649 1.12581C9.21767 1.43178 9.33081 1.79474 9.33091 2.16652C9.35643 2.62184 9.20085 3.06876 8.89812 3.40982C8.5954 3.75088 8.17009 3.95841 7.71496 3.98711ZM2.04925 3.98711C1.6801 4.03098 1.30634 3.96156 0.977558 3.78807C0.648775 3.61459 0.380531 3.34523 0.208384 3.01574C0.036237 2.68626 -0.0316657 2.31218 0.0137011 1.94321C0.0590679 1.57424 0.215568 1.22785 0.462405 0.949882C0.709242 0.671912 1.03475 0.475574 1.39577 0.386903C1.75679 0.298231 2.13624 0.321412 2.48377 0.453397C2.8313 0.585382 3.13048 0.819931 3.34162 1.1259C3.55276 1.43186 3.66587 1.79477 3.66596 2.16652C3.69146 2.62195 3.53578 3.069 3.2329 3.41008C2.93002 3.75117 2.50451 3.95859 2.04925 3.98711Z" fill="#CFCFCF"/>
</svg>
