<svg width="51" height="51" viewBox="0 0 51 51" fill="none" xmlns="http://www.w3.org/2000/svg">
<path d="M7.46667 18.2529H24.5333C28.519 18.2529 31.75 21.4839 31.75 25.4696V42.5363C31.75 46.5219 28.519 49.7529 24.5333 49.7529H7.46667C3.48101 49.7529 0.25 46.5219 0.25 42.5363V25.4696C0.25 21.4839 3.48101 18.2529 7.46667 18.2529Z" fill="white" stroke="#959595" stroke-width="0.5"/>
<path fill-rule="evenodd" clip-rule="evenodd" d="M10.0761 27.0693V22.7477H9.29159L7.91399 26.0301H7.86332L6.48839 22.7477H5.70386V27.0693H6.32679V23.9488H6.36866L7.63532 26.9434H8.14466L9.41132 23.9488H9.45319V27.0693H10.0761ZM12.2076 27.1322C11.2521 27.1322 10.6681 26.4944 10.6681 25.437C10.6681 24.3858 11.2551 23.745 12.2076 23.745C13.1569 23.745 13.7439 24.3861 13.7439 25.437C13.7439 26.4944 13.1599 27.1322 12.2076 27.1322ZM12.2076 26.5602C12.7647 26.5602 13.082 26.1469 13.082 25.437C13.082 24.7304 12.7647 24.317 12.2073 24.317C11.6473 24.317 11.3329 24.7304 11.3329 25.437C11.3329 26.1498 11.6476 26.5602 12.2076 26.5602ZM14.2609 27.0693H14.9049V25.1616C14.9049 24.6525 15.2073 24.3349 15.6836 24.3349C16.1596 24.3349 16.3873 24.5957 16.3873 25.1197V27.0693H17.0311V24.9581C17.0311 24.1821 16.6297 23.745 15.902 23.745C15.4111 23.745 15.0876 23.9637 14.9287 24.3261H14.8807V23.808H14.2612V27.0693H14.2609ZM18.8719 27.1232C18.0425 27.1232 17.5183 26.4704 17.5183 25.437C17.5183 24.4069 18.0484 23.7541 18.8719 23.7541C19.3183 23.7541 19.6956 23.9666 19.8721 24.3261H19.9201V22.5352H20.5639V27.0693H19.9471V26.5541H19.8964C19.7017 26.9106 19.3212 27.1232 18.8719 27.1232ZM19.0545 24.332C18.5127 24.332 18.1831 24.7514 18.1831 25.437C18.1831 26.129 18.5095 26.5453 19.0545 26.5453C19.5967 26.5453 19.9319 26.1229 19.9319 25.4402C19.9319 24.7602 19.5937 24.332 19.0545 24.332ZM22.3388 26.581C22.8241 26.581 23.1833 26.2728 23.1833 25.8685V25.596L22.3868 25.6466C21.9377 25.6768 21.734 25.8296 21.734 26.117C21.734 26.4104 21.9884 26.581 22.3388 26.581ZM22.1743 27.1232C21.5452 27.1232 21.0871 26.7429 21.0871 26.1469C21.0871 25.56 21.5244 25.2216 22.2999 25.1736L23.1833 25.1229V24.8413C23.1833 24.4968 22.9559 24.3021 22.5156 24.3021C22.1561 24.3021 21.9076 24.4338 21.8356 24.6645H21.2132C21.2791 24.1045 21.806 23.745 22.5457 23.745C23.3633 23.745 23.8247 24.1525 23.8247 24.841V27.0693H23.2047V26.6112H23.154C22.9593 26.9376 22.6028 27.1232 22.1745 27.1232H22.1743ZM24.7007 28.2522C25.3657 28.2522 25.674 27.9976 25.9527 27.2042L27.1687 23.808H26.4857L25.6711 26.3984H25.6204L24.8025 23.808H24.1017L25.2817 27.0813L25.2337 27.24C25.1231 27.5693 24.9495 27.6952 24.6439 27.6952C24.5841 27.6952 24.4852 27.6922 24.4343 27.6832V28.2373C24.4943 28.2464 24.6468 28.2522 24.7009 28.2522H24.7007Z" fill="#FF0000"/>
<path fill-rule="evenodd" clip-rule="evenodd" d="M15.8599 44.8825C18.7644 44.8825 20.8972 42.8206 20.8972 39.9971C20.8972 37.2043 18.8252 35.1225 16.0628 35.1225C14.4786 35.1225 13.0058 35.8534 12.2138 37.0113H12.1831L12.8738 30.7449H19.9527V30.0137H12.1831L11.3098 38.0067H12.1223C12.9143 36.6558 14.3463 35.8433 15.9714 35.8433C18.3175 35.8433 20.0948 37.6411 20.0948 40.0075C20.0948 42.3942 18.2975 44.1614 15.87 44.1614C13.798 44.1614 12.102 42.8513 11.8786 41.0841H11.0762C11.2996 43.2777 13.3308 44.8825 15.8599 44.8825Z" fill="black"/>
<path d="M36.0002 7.14355H49.5717C49.9671 7.14355 50.2859 7.46238 50.2859 7.85784V22.1436C50.2859 22.5391 49.9671 22.8579 49.5717 22.8579H36.0002C35.6047 22.8579 35.2859 22.5391 35.2859 22.1436V7.85784C35.2859 7.46238 35.6047 7.14355 36.0002 7.14355Z" fill="white"/>
<path d="M49.5713 7.85729V22.143H35.9999V7.85729H49.5713ZM49.5713 6.42871H35.9999C35.212 6.42871 34.5713 7.06942 34.5713 7.85729V22.143C34.5713 22.9309 35.212 23.5716 35.9999 23.5716H49.5713C50.3592 23.5716 50.9999 22.9309 50.9999 22.143V7.85729C50.9999 7.06942 50.3623 6.42871 49.5713 6.42871Z" fill="#0072C6"/>
<path fill-rule="evenodd" clip-rule="evenodd" d="M41.9503 16.6715L32.4285 7.72909V7.14355H33.857L42.3856 15.1509C42.4285 15.1939 42.499 15.1939 42.5419 15.1509L50.2857 7.85784V9.79225L42.9864 16.65C42.6983 16.9229 42.2507 16.9321 41.9503 16.6715Z" fill="#0072C6"/>
<path fill-rule="evenodd" clip-rule="evenodd" d="M38.8572 0L21 3.12999V26.8732L38.8572 30.0032V0Z" fill="#0072C6"/>
<path d="M29.3231 18.4305C29.1453 18.4244 28.9675 18.3998 28.7958 18.3508C28.6303 18.3048 28.4739 18.2404 28.3237 18.1577C28.1704 18.0718 28.0294 17.9707 27.9037 17.8511C27.7688 17.7223 27.6462 17.5813 27.5389 17.4311C27.4163 17.2564 27.3121 17.0694 27.2232 16.8732C27.1281 16.6647 27.0515 16.447 26.9932 16.2233C26.9319 15.9872 26.8859 15.7512 26.8584 15.509C26.8277 15.2331 26.8154 14.9572 26.8154 14.6813C26.8154 14.4207 26.8308 14.1601 26.8584 13.9026C26.8829 13.6635 26.9227 13.4244 26.981 13.1883C27.0331 12.9737 27.1036 12.7622 27.1894 12.5599C27.2692 12.3667 27.3642 12.1797 27.4745 12.0019C27.5818 11.8302 27.7106 11.6678 27.8516 11.5237C27.9834 11.3888 28.1337 11.2723 28.2931 11.1742C28.4555 11.0792 28.6272 11.0025 28.8081 10.9535C28.9982 10.9014 29.1913 10.8738 29.3875 10.8676C29.5714 10.8615 29.7554 10.8738 29.9362 10.9105C30.1079 10.9443 30.2735 11.0025 30.4298 11.0822C30.5892 11.1619 30.7333 11.2631 30.8651 11.3827C31.0061 11.5114 31.1349 11.6555 31.2422 11.8118C31.3648 11.9896 31.4721 12.1766 31.5579 12.3759C31.653 12.5936 31.7296 12.8174 31.7879 13.0473C31.8522 13.3048 31.8952 13.5684 31.9228 13.8321C31.9534 14.1294 31.9687 14.4268 31.9657 14.7242C31.9657 15.0154 31.9503 15.3066 31.9166 15.5948C31.889 15.8523 31.84 16.1068 31.7725 16.3581C31.7112 16.585 31.6315 16.8027 31.5304 17.0142C31.4384 17.2104 31.325 17.3943 31.1931 17.5629C31.0797 17.7101 30.951 17.845 30.8069 17.9615C30.5371 18.1853 30.2152 18.3324 29.8719 18.3968C29.6941 18.4274 29.5101 18.4397 29.3292 18.4336M29.4427 8.57149C29.0717 8.58988 28.7039 8.64813 28.3421 8.74316C28.008 8.83206 27.683 8.95775 27.3764 9.12023C27.076 9.27964 26.797 9.47584 26.5395 9.69963C26.2759 9.92955 26.0368 10.1901 25.8252 10.4722C25.6168 10.7603 25.4359 11.0669 25.2826 11.3857C25.1232 11.7137 24.9914 12.0571 24.8902 12.4066C24.7799 12.7867 24.6971 13.176 24.6481 13.5715C24.5959 13.9762 24.5683 14.3839 24.5683 14.7916C24.5653 15.1963 24.5929 15.5979 24.6481 15.9995C24.7002 16.3704 24.7799 16.7352 24.8902 17.0939C24.9914 17.428 25.1232 17.753 25.2826 18.0657C25.4451 18.3723 25.6352 18.6666 25.8528 18.9363C26.0674 19.1969 26.3065 19.436 26.5671 19.6506C27.0638 20.0706 27.6462 20.3741 28.2747 20.5366C28.6088 20.6224 28.9522 20.6745 29.2955 20.6929C29.6542 20.7144 30.0129 20.7021 30.3685 20.65C30.7057 20.601 31.0368 20.5121 31.3556 20.3864C31.6744 20.2576 31.9779 20.0921 32.2569 19.8928C32.5481 19.6843 32.8179 19.4452 33.057 19.1785C33.3115 18.8965 33.5322 18.5868 33.7223 18.2558C33.9123 17.9002 34.0656 17.5261 34.179 17.1429C34.3109 16.7413 34.4059 16.3275 34.4641 15.9075C34.5316 15.4599 34.5684 15.0093 34.5714 14.5586C34.5745 14.108 34.5408 13.6543 34.4795 13.2098C34.4212 12.802 34.3293 12.4004 34.2005 12.0111C34.0809 11.6463 33.9246 11.2938 33.7376 10.9596C33.5567 10.6408 33.3452 10.3403 33.103 10.0675C32.8731 9.8008 32.6156 9.56168 32.3305 9.35322C32.0607 9.16008 31.7664 8.99761 31.4598 8.87498C31.1533 8.75236 30.8314 8.66652 30.5034 8.61747C30.1508 8.56229 29.7952 8.55003 29.4427 8.57149Z" fill="white"/>
</svg>
