<svg width="9" height="6" viewBox="0 0 9 6" fill="none" xmlns="http://www.w3.org/2000/svg">
<path id="Shape copy 3" fill-rule="evenodd" clip-rule="evenodd" d="M0.201528 0.667961C0.311166 0.559576 0.457074 0.499871 0.612261 0.499871C0.767556 0.499871 0.913464 0.559576 1.02298 0.667961L4.51607 4.1157L8.00904 0.668605C8.11867 0.560135 8.26458 0.50035 8.41988 0.50035C8.57517 0.50035 8.72108 0.559655 8.83106 0.668605C9.05731 0.89206 9.05731 1.25609 8.83094 1.48003L4.92702 5.33348C4.8183 5.44042 4.67251 5.49932 4.51641 5.49932C4.51641 5.49932 4.51641 5.49932 4.5163 5.49932C4.35985 5.49932 4.21383 5.44018 4.10534 5.33275L0.20142 1.47963C-0.024372 1.25609 -0.0243721 0.892061 0.201528 0.667961Z" fill="black"/>
</svg>
