<svg width="20" height="20" viewBox="0 0 20 20" fill="none" xmlns="http://www.w3.org/2000/svg">
<path d="M8.03946 19.8561C6.29572 19.5227 4.6757 18.7207 3.35328 17.5362C1.5517 15.965 0.379679 13.7947 0.0537738 11.4265C0.0231935 11.2219 0.0421798 11.0132 0 10.8107V9.17199C0.0463978 8.86513 0.0442826 8.55404 0.0991163 8.24718C0.393609 6.57944 1.10415 5.013 2.16495 3.69285C3.22575 2.37271 4.60251 1.34156 6.16774 0.694908C6.93435 0.374536 7.73989 0.156818 8.56352 0.0474342C8.76704 0.0210719 8.97374 0.0358528 9.17621 0H10.6926C11.0237 0.0453433 11.36 0.0379556 11.6912 0.0991163C13.1386 0.360648 14.5111 0.936159 15.7122 1.78512C16.9134 2.63409 17.9139 3.73586 18.6435 5.01303C19.3459 6.2132 19.7744 7.55383 19.8983 8.93894C20.0792 10.6541 19.8185 12.387 19.1412 13.9731C18.6593 15.0693 17.9911 16.0736 17.1661 16.9415C16.2148 17.9409 15.0655 18.731 13.7917 19.2614C12.7981 19.6959 11.7319 19.9409 10.6483 19.9837C10.3667 19.9921 10.0852 19.9985 9.80466 19.9985C9.21299 20.0095 8.62172 19.9618 8.03946 19.8561ZM8.29146 9.13299C8.41221 9.14518 8.52473 9.19969 8.60909 9.28694C8.69344 9.37419 8.74418 9.4885 8.75229 9.60958C8.79171 9.86691 8.7806 10.1295 8.71959 10.3826C8.57407 11.1207 8.34315 11.8377 8.13857 12.5611C7.94373 13.1594 7.82159 13.779 7.77477 14.4065C7.75248 14.7294 7.83396 15.0511 8.00734 15.3244C8.18073 15.5978 8.43694 15.8085 8.73858 15.926C9.23646 16.118 9.77803 16.1673 10.3024 16.0684C10.8682 15.9353 11.4204 15.7496 11.9516 15.5137C11.9896 15.5 12.0233 15.4842 12.0339 15.4399C12.0824 15.229 12.133 15.0181 12.1868 14.7903C11.91 14.8958 11.622 14.9687 11.3284 15.0076C10.5713 15.0782 10.2497 14.7408 10.3583 13.9879C10.4651 13.3884 10.6059 12.7955 10.7801 12.2121C11.0547 11.4216 11.2394 10.6028 11.3305 9.77094C11.3547 9.46611 11.2983 9.16029 11.1671 8.8841C11.0226 8.62175 10.8108 8.40263 10.5536 8.24918C10.2964 8.09573 10.003 8.0135 9.70345 8.01098C9.03628 7.9918 8.37245 8.11249 7.75472 8.36529C7.28442 8.51292 6.92591 8.71331 6.99446 9.30277C7.06511 9.27957 7.14946 9.2532 7.23382 9.22367C7.45926 9.14263 7.69659 9.09948 7.93613 9.09604C8.05556 9.0956 8.17467 9.10801 8.29146 9.13299ZM10.043 4.05978C9.87349 4.14967 9.72473 4.27416 9.60636 4.42516C9.488 4.57616 9.40265 4.75031 9.35584 4.93638C9.30902 5.12244 9.30179 5.31629 9.3346 5.50533C9.36741 5.69437 9.43953 5.8744 9.54632 6.0338C9.71628 6.28598 9.95749 6.48182 10.2392 6.59638C10.5209 6.71094 10.8303 6.73901 11.1281 6.67703C11.498 6.62058 11.8313 6.42189 12.0568 6.12326C12.2824 5.82464 12.3824 5.44971 12.3355 5.07842C12.2773 4.73045 12.0964 4.41482 11.8256 4.18869C11.5548 3.96257 11.2119 3.84088 10.8592 3.84571H10.8138C10.5432 3.8497 10.2782 3.92306 10.0441 4.05875L10.043 4.05978Z" fill="#CFCFCF"/>
</svg>
