<svg width="12" height="13" viewBox="0 0 12 13" fill="none" xmlns="http://www.w3.org/2000/svg">
<path d="M11.9976 6.9573C11.9927 10.2488 9.29971 12.917 5.98652 12.9121C2.67731 12.9074 -0.0046798 10.2285 6.13104e-06 6.93237C0.00469206 3.63622 2.70309 0.968963 6.02143 0.97805C9.32501 0.98807 12.0023 3.66698 11.9976 6.9573ZM5.99472 12.3729C9.00215 12.3587 11.4421 9.97733 11.4513 6.95917C11.4554 6.24615 11.3176 5.53937 11.0459 4.87953C10.7742 4.21969 10.3739 3.61982 9.86809 3.11448C9.36229 2.60913 8.76095 2.2083 8.09872 1.93505C7.43649 1.66181 6.72645 1.52155 6.00948 1.52236C2.99736 1.5149 0.552478 3.91257 0.54662 6.93773C0.540997 9.93656 2.95636 12.3505 5.99472 12.3729Z" fill="black"/>
<path d="M7.29786 9.29788C7.26834 9.41019 7.24468 9.51038 7.21398 9.60801C7.20766 9.62759 7.17603 9.6446 7.1526 9.65252C6.90659 9.73687 6.66456 9.84195 6.41175 9.89601C6.05609 9.97197 5.69808 9.97221 5.37733 9.75201C5.13015 9.58355 5.02893 9.35124 5.05072 9.05438C5.08962 8.53011 5.30001 8.04965 5.4256 7.54775C5.47785 7.33804 5.52845 7.12553 5.55024 6.9114C5.58094 6.60849 5.41318 6.49804 5.11633 6.51365C4.96005 6.52181 4.80612 6.5712 4.64258 6.60359C4.66601 6.51039 4.68709 6.41369 4.71498 6.31885C4.71919 6.30452 4.72626 6.29118 4.73576 6.27961C4.74526 6.26804 4.75699 6.25849 4.77027 6.25152C5.1838 6.10355 5.59031 5.93346 6.04695 5.96468C6.42417 5.99031 6.78873 6.25128 6.83677 6.57633C6.8773 6.85081 6.83559 7.12344 6.75781 7.39186C6.63113 7.82619 6.50938 8.26207 6.39254 8.69951C6.36559 8.81639 6.3516 8.93587 6.35083 9.05578C6.34498 9.22495 6.43588 9.33539 6.60177 9.36918C6.81323 9.41139 7.03244 9.39214 7.2332 9.31372C7.24678 9.3093 7.26178 9.3065 7.29786 9.29788Z" fill="black"/>
<path d="M6.60106 3.96477C7.04622 3.96197 7.3808 4.29098 7.35971 4.7104C7.34565 4.99164 7.12213 5.23793 6.80396 5.32298C6.44502 5.41921 6.03476 5.24516 5.8902 4.93549C5.68636 4.50046 6.00735 4.00345 6.51976 3.96454C6.54623 3.96291 6.57388 3.96477 6.60106 3.96477Z" fill="black"/>
</svg>
