<svg width="11" height="11" viewBox="0 0 11 11" fill="none" xmlns="http://www.w3.org/2000/svg">
<path d="M0.540541 9.28753V3.38212C0.396396 3.31005 0.27027 3.1996 0.162162 3.05077C0.054054 2.9023 0 2.72897 0 2.53077V1.23347C0 0.963201 0.0945946 0.733471 0.283784 0.544282C0.472973 0.355093 0.702703 0.260498 0.972973 0.260498H9.2973C9.56757 0.260498 9.7973 0.355093 9.98649 0.544282C10.1757 0.733471 10.2703 0.963201 10.2703 1.23347V2.53077C10.2703 2.72897 10.2162 2.9023 10.1081 3.05077C10 3.1996 9.87387 3.31005 9.72973 3.38212V9.28753C9.72973 9.5578 9.63513 9.78753 9.44595 9.97671C9.25676 10.1659 9.02703 10.2605 8.75676 10.2605H1.51351C1.24324 10.2605 1.01351 10.1659 0.824324 9.97671C0.635135 9.78753 0.540541 9.5578 0.540541 9.28753ZM1.35135 3.50374V9.28753C1.35135 9.33257 1.36721 9.37095 1.39892 9.40266C1.43027 9.43401 1.46847 9.44969 1.51351 9.44969H8.75676C8.8018 9.44969 8.84018 9.43401 8.87189 9.40266C8.90324 9.37095 8.91892 9.33257 8.91892 9.28753V3.50374H1.35135ZM9.2973 2.69293C9.34234 2.69293 9.38072 2.67707 9.41243 2.64536C9.44378 2.61401 9.45946 2.57581 9.45946 2.53077V1.23347C9.45946 1.18843 9.44378 1.15005 9.41243 1.11834C9.38072 1.08698 9.34234 1.07131 9.2973 1.07131H0.972973C0.927928 1.07131 0.88973 1.08698 0.858378 1.11834C0.826667 1.15005 0.810811 1.18843 0.810811 1.23347V2.53077C0.810811 2.57581 0.826667 2.61401 0.858378 2.64536C0.88973 2.67707 0.927928 2.69293 0.972973 2.69293H9.2973ZM3.62162 6.04428H6.64865V5.23347H3.62162V6.04428Z" fill="#818181"/>
</svg>
