<svg width="16" height="16" viewBox="0 0 16 16" fill="none" xmlns="http://www.w3.org/2000/svg">
<path d="M12.5318 0H3.46821C1.55277 0 0 1.55277 0 3.46821V12.5318C0 14.4472 1.55277 16 3.46821 16H12.5318C14.4472 16 16 14.4472 16 12.5318V3.46821C16 1.55277 14.4472 0 12.5318 0Z" fill="#FF9600"/>
<path d="M7.50076 12.8418H8.50077C8.50077 12.9745 8.44809 13.1016 8.35432 13.1954C8.26055 13.2892 8.13337 13.3418 8.00077 13.3418C7.86816 13.3418 7.74098 13.2892 7.64721 13.1954C7.55344 13.1016 7.50076 12.9745 7.50076 12.8418ZM7.1262 12.3424C6.99353 12.3421 6.86639 12.2893 6.77257 12.1955C6.67876 12.1017 6.62592 11.9745 6.62562 11.8418V10.3389H9.37591V11.8418C9.37591 11.9744 9.32333 12.1016 9.2297 12.1954C9.13608 12.2892 9.00905 12.3421 8.87649 12.3424H7.1262ZM6.61059 9.59213C6.44643 8.26496 5.00134 7.74242 5.00134 5.69618C5.04876 4.93272 5.38546 4.21607 5.94286 3.69222C6.50026 3.16836 7.23642 2.87671 8.00134 2.87671C8.76627 2.87671 9.50242 3.16836 10.0598 3.69222C10.6172 4.21607 10.9539 4.93272 11.0013 5.69618C11.0013 7.74358 9.55741 8.2638 9.39209 9.59213H6.61059Z" fill="white"/>
</svg>
