<svg width="14" height="14" viewBox="0 0 14 14" fill="none" xmlns="http://www.w3.org/2000/svg">
<path d="M10.43 0.25H3C1.34315 0.25 0 1.59315 0 3.25V10.68C0 12.3369 1.34315 13.68 3 13.68H10.43C12.0869 13.68 13.43 12.3369 13.43 10.68V3.25C13.43 1.59315 12.0869 0.25 10.43 0.25Z" fill="#FF9600"/>
<path d="M6.49013 11.36H7.35513C7.35513 11.4748 7.30956 11.5848 7.22845 11.6659C7.14734 11.747 7.03733 11.7926 6.92263 11.7926C6.80792 11.7926 6.69791 11.747 6.6168 11.6659C6.53569 11.5848 6.49013 11.4748 6.49013 11.36ZM6.16513 10.9271C6.05046 10.9271 5.94048 10.8816 5.8593 10.8006C5.77813 10.7196 5.73239 10.6097 5.73212 10.4951V9.19507H8.11213V10.4951C8.11186 10.6097 8.06613 10.7196 7.98495 10.8006C7.90378 10.8816 7.79379 10.9271 7.67913 10.9271H6.16513ZM5.71913 8.54807C5.57713 7.40007 4.32812 6.94806 4.32812 5.17906C4.36914 4.51867 4.66039 3.89877 5.14254 3.44563C5.62469 2.9925 6.26146 2.74023 6.92313 2.74023C7.58479 2.74023 8.22156 2.9925 8.70371 3.44563C9.18586 3.89877 9.47711 4.51867 9.51813 5.17906C9.51813 6.94906 8.26813 7.39907 8.12613 8.54807H5.71913Z" fill="white"/>
</svg>
