<svg width="54" height="40" viewBox="0 0 54 40" fill="none" xmlns="http://www.w3.org/2000/svg">
<path d="M45.7204 13.576C46.8842 14.4421 48.1063 15.1957 49.1368 16.1534C51.8621 18.6872 53.2112 21.8809 53.2945 25.595C53.3319 27.2606 53.309 28.9261 53.3028 30.5917C53.2965 31.7451 53.0509 32.0074 51.8996 32.0137C49.1597 32.0282 46.4199 32.0178 43.526 32.0178C43.526 33.5585 43.526 35.0367 43.526 36.5148C43.526 37.3122 43.5239 38.1117 43.526 38.9091C43.526 39.6357 43.1637 39.9979 42.4392 40C42.231 40 42.0228 40 41.8146 40C31.7151 40 21.6177 40 11.5182 40C9.86307 40 9.77355 39.9084 9.77355 38.2095C9.77355 36.2025 9.77355 34.1935 9.77355 32.0761C9.34467 32.0532 8.98033 32.0199 8.61391 32.0199C6.25507 32.0158 3.89415 32.0241 1.53531 32.0137C0.23201 32.0095 -0.0323967 31.7763 0.00299627 30.5188C0.0696184 28.0268 -0.0844453 25.4889 0.338189 23.0551C1.03564 19.0473 3.4153 16.0764 6.97542 14.0798C7.15655 13.9778 7.33559 13.8716 7.51256 13.7655C7.54171 13.7488 7.56461 13.7197 7.6458 13.6489C5.99274 11.8646 5.19952 9.77229 5.37232 7.31768C5.76581 1.67978 12.1761 -1.78041 17.1145 0.992739C17.637 1.28629 18.1096 1.62357 17.7786 2.28771C17.4247 2.99765 16.8417 2.83109 16.2609 2.55211C13.8125 1.37165 11.4683 1.53613 9.34675 3.26414C7.11075 5.08375 6.48825 8.13172 7.727 10.7112C8.92828 13.2137 11.7077 14.6211 14.4746 14.1256C14.5766 14.1069 14.6744 14.0694 14.7765 14.0444C15.3781 13.8945 15.9361 13.9445 16.1047 14.644C16.2942 15.431 15.7133 15.6621 15.0992 15.8016C13.3836 16.193 11.7389 15.9786 10.1067 15.3311C9.65904 15.1541 9.00115 15.1166 8.58268 15.3144C4.52081 17.2381 2.20569 20.4464 1.85384 24.9496C1.72268 26.6381 1.83302 28.3453 1.83302 30.1295H9.85891C10.2399 27.2065 11.233 24.5041 12.9797 22.1015C14.7057 19.7261 16.9396 17.9564 19.5691 16.6718C15.8632 11.0444 16.138 5.92694 20.2915 2.37723C24.0265 -0.814387 29.4812 -0.760256 33.1496 2.50631C37.2073 6.12056 37.4301 11.2442 33.7305 16.6427C39.2892 19.4616 42.5537 23.9586 43.449 30.1691H51.4103C51.885 24.8226 51.5019 19.826 46.6427 16.3741C46.3033 16.1326 45.9452 15.9223 45.5892 15.7037C44.6711 15.1437 43.8008 14.898 42.7036 15.4539C41.342 16.143 39.8222 16.1493 38.3232 15.8266C37.6882 15.6892 37.0033 15.5143 37.1906 14.6669C37.3759 13.8321 38.038 13.9528 38.7 14.084C42.0353 14.7419 45.2831 12.6766 46.0097 9.46C46.7613 6.13514 44.8688 2.92686 41.596 2.03163C40.0283 1.60275 38.5189 1.82135 37.0428 2.51256C36.6702 2.68744 36.0622 2.7145 35.7229 2.52505C35.1483 2.20443 35.3544 1.48616 36.0706 1.05103C40.8028 -1.82829 47.4026 1.54445 47.9085 7.08658C48.1396 9.62031 47.3797 11.7959 45.7204 13.576ZM41.6897 38.1554C41.6897 35.7154 41.8459 33.319 41.6585 30.9498C41.1921 25.0641 38.1629 20.867 32.8789 18.2624C32.3251 17.9897 31.9025 17.998 31.3529 18.3082C28.6464 19.8301 25.7108 20.1882 22.9918 18.7434C21.245 17.8148 20.0875 18.3457 18.7613 19.1723C18.0867 19.5928 17.433 20.0592 16.8251 20.5692C11.2205 25.2703 11.2434 31.6264 11.6452 38.1554H41.6897ZM26.631 17.7586C31.076 17.7649 34.6236 14.2214 34.6174 9.78062C34.6111 5.33983 31.0447 1.7922 26.6102 1.81511C22.2111 1.83801 18.6988 5.34816 18.6759 9.7473C18.6509 14.1881 22.1882 17.7503 26.631 17.7565V17.7586Z" fill="#CFCFCF"/>
</svg>
