<svg width="21" height="18" viewBox="0 0 21 18" fill="none" xmlns="http://www.w3.org/2000/svg">
<path fill-rule="evenodd" clip-rule="evenodd" d="M1.34207 0.5H3.42123C3.70859 0.5 3.94113 0.737609 3.94113 1.03127V3.15642C3.94113 3.45009 3.70859 3.68769 3.42133 3.68769H1.34207C1.05471 3.68769 0.822266 3.45009 0.822266 3.15642V1.03127C0.822266 0.737609 1.05471 0.5 1.34207 0.5ZM1.34207 7.40664H3.42123C3.70859 7.40664 3.94113 7.64425 3.94113 7.93786V10.063C3.94113 10.3567 3.70859 10.5943 3.42133 10.5943H1.34207C1.05471 10.5943 0.822266 10.3567 0.822266 10.0631V7.93792C0.822266 7.64425 1.05471 7.40664 1.34207 7.40664ZM3.42123 14.3133H1.34207C1.05471 14.3133 0.822266 14.5509 0.822266 14.8445V16.9697C0.822266 17.2633 1.05471 17.5009 1.34207 17.5009H3.42133C3.70859 17.5009 3.94113 17.2633 3.94113 16.9697V14.8445C3.94113 14.5509 3.70859 14.3133 3.42123 14.3133ZM6.54009 1.56255H20.3048C20.592 1.56255 20.8246 1.80021 20.8246 2.09389V3.15642C20.8246 3.45009 20.592 3.68769 20.3048 3.68769H6.54009C6.25283 3.68769 6.02029 3.45009 6.02029 3.15642V2.09389C6.02029 1.80021 6.25283 1.56255 6.54009 1.56255ZM20.3048 7.93792H6.54009C6.25283 7.93792 6.02029 8.17559 6.02029 8.46919V9.53173C6.02029 9.8254 6.25283 10.0631 6.54009 10.0631H20.3048C20.592 10.0631 20.8246 9.8254 20.8246 9.53173V8.46919C20.8246 8.17559 20.592 7.93792 20.3048 7.93792ZM6.54009 14.3133H20.3048C20.592 14.3133 20.8246 14.5509 20.8246 14.8446V15.9071C20.8246 16.2008 20.592 16.4384 20.3048 16.4384H6.54009C6.25283 16.4384 6.02029 16.2008 6.02029 15.9071V14.8446C6.02029 14.5509 6.25283 14.3133 6.54009 14.3133Z" fill="#818181"/>
</svg>
