<svg width="8" height="10" viewBox="0 0 8 10" fill="none" xmlns="http://www.w3.org/2000/svg">
<path fill-rule="evenodd" clip-rule="evenodd" d="M6.81629 4.5724L2.12775 0.692798C1.8753 0.463001 1.42886 0.465053 1.17641 0.692798C0.922918 0.921425 0.922918 1.2949 1.18499 1.53077L5.39195 5.01203L1.17641 8.50182C0.922918 8.73045 0.922918 9.10372 1.17641 9.33245C1.30218 9.44676 1.47041 9.5094 1.65156 9.5094C1.65156 9.5094 1.65156 9.5094 1.6526 9.5094C1.83273 9.5094 2.0021 9.44676 2.12031 9.33988L6.82384 5.44638C6.95499 5.32924 7.02308 5.16609 7.01232 5.02584C7.02308 4.85916 6.95499 4.69582 6.81629 4.5724Z" fill="#959595"/>
</svg>
