<svg width="8" height="9" viewBox="0 0 8 9" fill="none" xmlns="http://www.w3.org/2000/svg">
<path fill-rule="evenodd" clip-rule="evenodd" d="M6.81629 4.0724L2.12775 0.192798C1.8753 -0.036999 1.42886 -0.034947 1.17641 0.192798C0.922918 0.421425 0.922918 0.794898 1.18499 1.03077L5.39195 4.51203L1.17641 8.00182C0.922918 8.23045 0.922918 8.60372 1.17641 8.83245C1.30218 8.94676 1.47041 9.0094 1.65156 9.0094C1.65156 9.0094 1.65156 9.0094 1.6526 9.0094C1.83273 9.0094 2.0021 8.94676 2.12031 8.83988L6.82384 4.94638C6.95499 4.82924 7.02308 4.66609 7.01232 4.52584C7.02308 4.35916 6.95499 4.19582 6.81629 4.0724Z" fill="#C3C3C3"/>
</svg>
