<svg width="19" height="19" viewBox="0 0 19 19" fill="none" xmlns="http://www.w3.org/2000/svg">
<path id="Icon" fill-rule="evenodd" clip-rule="evenodd" d="M17.5336 8.54075L14.8587 11.2161C15.066 10.0546 14.9367 8.84493 14.4692 7.74492L15.6034 6.61062C16.4903 5.7238 16.4903 4.28061 15.6034 3.39367C14.7167 2.50674 13.2734 2.50674 12.3864 3.39367L8.52601 7.2541C7.63908 8.14076 7.63908 9.58411 8.52601 10.471C8.83237 10.7775 9.20578 10.9761 9.59948 11.0702L7.5329 13.137C7.19928 12.9339 6.8839 12.6895 6.59576 12.4012C4.64433 10.4502 4.64433 7.27513 6.59576 5.32411L10.4562 1.46369C12.4075 -0.487896 15.5825 -0.487896 17.5336 1.46369C19.4851 3.41463 19.4851 6.58974 17.5336 8.54075ZM4.13831 7.78109L4.13866 7.78075L4.13836 7.78086C4.13834 7.78094 4.13833 7.78101 4.13831 7.78109ZM1.46369 10.456L4.13831 7.78109C3.93076 8.94258 4.06006 10.1524 4.52764 11.2524L3.39333 12.3865C2.5064 13.2733 2.5064 14.7165 3.39333 15.6035C4.28015 16.4904 5.72335 16.4904 6.61028 15.6035L10.4711 11.7431C11.358 10.8562 11.358 9.41304 10.4711 8.52611C10.1644 8.21955 9.79104 8.02137 9.39761 7.92699L11.4642 5.86011C11.798 6.06327 12.1133 6.30769 12.4012 6.59597C14.3523 8.54691 14.3526 11.7219 12.4012 13.673L8.54113 17.5335C6.58981 19.4849 3.41471 19.4849 1.46369 17.5335C-0.487896 15.5821 -0.487896 12.4072 1.46369 10.456Z" fill="#2F3990"/>
</svg>
