<svg width="40" height="40" viewBox="0 0 40 40" fill="none" xmlns="http://www.w3.org/2000/svg">
<rect width="40" height="40" rx="4" fill="#F4F5F7"/>
<path fill-rule="evenodd" clip-rule="evenodd" d="M28.5336 19.5408L25.8587 22.2161C26.066 21.0546 25.9367 19.8449 25.4692 18.7449L26.6034 17.6106C27.4903 16.7238 27.4903 15.2806 26.6034 14.3937C25.7167 13.5067 24.2734 13.5067 23.3864 14.3937L19.526 18.2541C18.6391 19.1408 18.6391 20.5841 19.526 21.471C19.8324 21.7775 20.2058 21.9761 20.5995 22.0702L18.5329 24.137C18.1993 23.9339 17.8839 23.6895 17.5958 23.4012C15.6443 21.4502 15.6443 18.2751 17.5958 16.3241L21.4562 12.4637C23.4075 10.5121 26.5825 10.5121 28.5336 12.4637C30.4851 14.4146 30.4851 17.5897 28.5336 19.5408ZM15.1383 18.7811L15.1387 18.7807L15.1384 18.7809C15.1383 18.7809 15.1383 18.781 15.1383 18.7811ZM12.4637 21.456L15.1383 18.7811C14.9308 19.9426 15.0601 21.1524 15.5276 22.2524L14.3933 23.3865C13.5064 24.2733 13.5064 25.7165 14.3933 26.6035C15.2802 27.4904 16.7233 27.4904 17.6103 26.6035L21.4711 22.7431C22.358 21.8562 22.358 20.413 21.4711 19.5261C21.1644 19.2195 20.791 19.0214 20.3976 18.927L22.4642 16.8601C22.798 17.0633 23.1133 17.3077 23.4012 17.596C25.3523 19.5469 25.3526 22.7219 23.4012 24.673L19.5411 28.5335C17.5898 30.4849 14.4147 30.4849 12.4637 28.5335C10.5121 26.5821 10.5121 23.4072 12.4637 21.456Z" fill="#2F3990"/>
</svg>
