<svg width="40" height="40" viewBox="0 0 40 40" fill="none" xmlns="http://www.w3.org/2000/svg">
<path d="M18.0507 9.31741C18.184 9.26741 18.3674 9.25074 18.484 9.31741C18.5174 9.33408 18.5507 9.36741 18.534 9.40074V9.43407H18.5507C18.5174 9.53407 18.3507 9.51741 18.2674 9.55074C18.184 9.58407 18.1174 9.66741 18.034 9.66741C17.9507 9.66741 17.8174 9.63407 17.8007 9.55074C17.784 9.43407 17.9507 9.31741 18.0507 9.31741ZM19.7507 9.55074C19.6674 9.51741 19.5007 9.53407 19.484 9.43407V9.40074C19.4674 9.36741 19.5007 9.33408 19.5174 9.31741C19.6617 9.25903 19.823 9.25903 19.9674 9.31741C20.0674 9.31741 20.234 9.43407 20.2174 9.55074C20.2007 9.63407 20.0674 9.65074 19.984 9.65074C19.9007 9.65074 19.834 9.58407 19.7507 9.55074ZM16.8174 11.9674C17.3174 12.3007 17.9674 12.7507 18.784 12.7507C19.6007 12.7507 20.5674 12.3007 21.1507 11.9674C21.4674 11.7507 21.9007 11.4174 22.234 11.1841C22.5007 10.9674 22.484 10.7507 22.7174 10.7507C22.934 10.7674 22.7674 10.9674 22.4674 11.3007C22.1507 11.5174 21.684 11.8507 21.3007 12.0841C20.5674 12.4174 19.7007 12.9674 18.784 12.9674C17.884 12.9674 17.1507 12.5174 16.634 12.1841C16.3674 11.9674 16.1674 11.7507 16.0007 11.6341C15.734 11.4174 15.7674 11.0841 15.884 11.0841C16.0674 11.1007 16.1007 11.3007 16.2174 11.4174C16.384 11.5174 16.584 11.7507 16.8174 11.9674Z" fill="#F9C105"/>
<path d="M20.2164 9.55056C20.1997 9.63389 20.0664 9.65056 19.9831 9.65056C19.8997 9.65056 19.8331 9.58389 19.7497 9.55056C19.6664 9.51722 19.4997 9.53389 19.4831 9.43389V9.40056C19.4664 9.36722 19.4997 9.33389 19.5164 9.31722C19.6607 9.25884 19.8221 9.25884 19.9664 9.31722C20.0664 9.31722 20.2331 9.43389 20.2164 9.55056Z" fill="black"/>
<path d="M27.716 18.3V19.8333H26.7994C27.6316 21.3507 28.2274 22.9862 28.566 24.6833C28.816 24.6667 29.116 24.7167 29.4327 24.7833C29.566 24.4333 29.6494 24.0833 29.6994 23.7333C30.016 21.4167 28.5494 19.15 27.716 18.3ZM27.716 18.3V19.8333H26.7994C27.6316 21.3507 28.2274 22.9862 28.566 24.6833C28.816 24.6667 29.116 24.7167 29.4327 24.7833C29.566 24.4333 29.6494 24.0833 29.6994 23.7333C30.016 21.4167 28.5494 19.15 27.716 18.3ZM35.466 31.5833V31.4333L35.4494 31.4167C35.166 31.0833 35.0327 30.5333 34.8827 29.8833C34.7494 29.2167 34.5827 28.5667 34.0494 28.1333C33.9494 28.05 33.8494 28.0333 33.7327 27.9167C33.6377 27.8536 33.5293 27.8136 33.416 27.8C33.8827 26.4333 33.9327 25.05 33.6994 23.7333C33.5827 23.0167 33.3827 22.3167 33.116 21.65C32.216 19.3 30.6494 17.25 29.4494 15.85C28.8327 15.0667 28.1994 14.2833 27.716 13.45C27.166 12.5 26.7994 11.4833 26.816 10.2333C26.8494 7.91667 26.9994 4.3 25.366 2.05C24.4994 0.833333 23.0827 0 20.8494 0C20.5827 0 20.316 0.0166667 20.0327 0.0333333C17.916 0.2 16.5994 0.966667 15.7827 2.05C13.866 4.58333 14.766 8.78333 14.6994 10.5333C14.566 12.35 14.1994 13.7833 12.9327 15.5667C12.416 16.1667 11.816 16.9 11.2327 17.7333C10.116 19.3 8.99937 21.1667 8.34937 23.1C7.9327 24.35 7.69937 25.6333 7.81604 26.8667L7.86603 27.25C7.79937 27.3 7.7327 27.3667 7.6827 27.4667C7.2327 27.9167 6.91604 28.4667 6.56604 28.8667C6.21604 29.2 5.74937 29.3167 5.21604 29.5333C4.6827 29.7667 4.09937 29.9833 3.76604 30.6667C3.59937 30.9833 3.5327 31.3333 3.5327 31.6667C3.5327 32 3.5827 32.35 3.6327 32.5667C3.7327 33.2333 3.8327 33.7833 3.69937 34.1833C3.2827 35.3167 3.2327 36.1 3.51603 36.6667C3.81603 37.2167 4.41604 37.4333 5.09937 37.6667C6.46604 38 8.31604 37.8833 9.7827 38.6667C11.3327 39.4333 12.9327 39.7833 14.1827 39.45C15.0827 39.25 15.8327 38.6667 16.2327 37.8667C16.316 37.8667 16.3827 37.8667 16.466 37.85C17.3994 37.8 18.4327 37.4167 20.0327 37.3167C20.4827 37.2833 20.966 37.3333 21.4994 37.4C22.3494 37.5333 23.316 37.7167 24.3827 37.65C24.416 37.8667 24.4827 37.9667 24.566 38.2H24.5827C25.2327 39.5 26.4494 40.0833 27.7494 39.9833C29.0494 39.8833 30.4327 39.1 31.566 37.8167C32.616 36.5333 34.3994 36 35.566 35.3C36.1494 34.9833 36.6327 34.5333 36.666 33.8833C36.6994 33.2167 36.3327 32.5333 35.466 31.5833ZM22.4994 7.73333C22.4327 7.51667 22.3327 7.4 22.1994 7.18333C22.0494 7.06667 21.916 6.95 21.7494 6.95H21.716C21.566 6.95 21.416 7 21.2827 7.18333C21.116 7.33333 20.9994 7.51667 20.9327 7.73333C20.8494 7.95 20.7994 8.16667 20.7827 8.4V8.43333C20.7827 8.58333 20.7994 8.73333 20.816 8.88333C20.4827 8.76667 20.0827 8.65 19.7994 8.53333C19.7827 8.43333 19.766 8.31667 19.766 8.21667V8.18333C19.7494 7.73333 19.8327 7.3 20.016 6.9C20.1494 6.53333 20.3994 6.21667 20.7327 6C21.0327 5.78333 21.3827 5.66667 21.7327 5.66667H21.766C22.116 5.66667 22.4327 5.78333 22.7494 6C23.066 6.23333 23.2994 6.55 23.4827 6.9C23.666 7.31667 23.7494 7.65 23.766 8.1C23.766 8.06667 23.7827 8.03333 23.7827 8V8.16667C23.766 8.16667 23.766 8.15 23.766 8.13333C23.766 8.51667 23.666 8.91667 23.516 9.28333C23.4327 9.48333 23.316 9.68333 23.1494 9.83333C23.0994 9.8 23.0494 9.78333 22.9994 9.76667C22.8327 9.68333 22.666 9.65 22.516 9.55C22.4 9.49376 22.2765 9.45447 22.1494 9.43333C22.2327 9.33333 22.3994 9.21667 22.466 9.1C22.5494 8.88333 22.5994 8.66667 22.616 8.43333V8.4C22.616 8.18333 22.5827 7.95 22.4994 7.73333ZM15.566 7C15.6494 6.66667 15.816 6.36667 16.0494 6.1C16.266 5.88333 16.4827 5.76667 16.7494 5.76667H16.7994C17.0461 5.77023 17.2853 5.85192 17.4827 6C17.7327 6.21667 17.9327 6.48333 18.066 6.76667C18.216 7.1 18.2994 7.43333 18.316 7.88333C18.3327 8 18.3327 8.08333 18.3327 8.16667C18.3327 8.23333 18.3327 8.28333 18.316 8.33333V8.46667C18.2733 8.48367 18.2284 8.49488 18.1827 8.5C17.916 8.6 17.716 8.73333 17.516 8.83333C17.5327 8.7 17.5327 8.55 17.516 8.4V8.36667C17.4994 8.15 17.4494 8.03333 17.3827 7.81667C17.3271 7.64546 17.2297 7.4908 17.0994 7.36667C17.0559 7.32968 17.0056 7.30177 16.9512 7.28459C16.8968 7.26742 16.8395 7.26132 16.7827 7.26667H16.7494C16.6327 7.26667 16.5327 7.33333 16.4494 7.48333C16.3327 7.61667 16.266 7.76667 16.2327 7.93333C16.1994 8.11667 16.1827 8.3 16.1994 8.48333V8.51667C16.216 8.73333 16.266 8.85 16.3327 9.06667C16.416 9.28333 16.4994 9.4 16.616 9.51667C16.6327 9.53333 16.6494 9.55 16.666 9.55C16.5494 9.65 16.4827 9.66667 16.3827 9.78333C16.3141 9.83842 16.2346 9.8782 16.1494 9.9C15.9827 9.68333 15.8327 9.46667 15.6994 9.21667C15.5327 8.86667 15.4494 8.5 15.4327 8.11667C15.3994 7.73333 15.4494 7.35 15.566 7ZM15.7494 10.5167C16.116 10.2833 16.3827 10.05 16.566 9.95C16.7327 9.83333 16.7994 9.78333 16.8494 9.73333H16.866C17.1494 9.38333 17.5994 8.95 18.266 8.71667C18.4994 8.66667 18.766 8.61667 19.066 8.61667C19.616 8.61667 20.2994 8.71667 21.0994 9.28333C21.5994 9.61667 21.9827 9.73333 22.8827 10.0667C23.316 10.2833 23.566 10.5 23.6994 10.7333V10.5C23.816 10.75 23.816 11.0333 23.716 11.2833C23.516 11.8167 22.8494 12.3667 21.9327 12.7C21.466 12.9167 21.0827 13.25 20.616 13.4667C20.1494 13.7 19.6327 13.9667 18.916 13.9167C18.6603 13.9378 18.4032 13.8979 18.166 13.8C17.966 13.7 17.7827 13.6 17.616 13.4833C17.2827 13.25 16.9994 12.9167 16.5827 12.7C15.8994 12.2833 15.5327 11.8333 15.416 11.5167C15.2994 11.0667 15.416 10.7333 15.7494 10.5167ZM16.016 36.6167C15.916 37.85 15.1994 38.5167 14.116 38.7667C13.016 38.9833 11.5494 38.7667 10.066 38C8.44937 37.1 6.49937 37.2167 5.26604 36.9833C4.6327 36.8833 4.2327 36.65 4.0327 36.3167C3.84937 35.9833 3.84937 35.3167 4.24937 34.2667C4.44937 33.7 4.29937 33 4.19937 32.4C4.11604 31.7333 4.06604 31.2167 4.2827 30.8333C4.54937 30.2667 4.94937 30.1667 5.4327 29.9333C5.9327 29.7167 6.51604 29.6 6.9827 29.1667V29.15C7.41604 28.7 7.7327 28.15 8.11603 27.75C8.4327 27.4167 8.74937 27.2 9.2327 27.2H9.24937C9.3327 27.2 9.41604 27.2 9.51604 27.2167C10.1494 27.3167 10.6994 27.7833 11.2327 28.4667L12.766 31.25H12.7827C13.1827 32.1333 14.0494 33.0333 14.7827 33.9833C15.516 34.9833 16.0827 35.8667 16.016 36.6V36.6167ZM21.4994 35.55C19.8494 35.9333 18.0994 35.8167 16.466 34.9167C16.266 34.8167 16.066 34.7 15.8827 34.5667C15.6994 34.25 15.466 33.95 15.1994 33.6833C15.0767 33.4745 14.9188 33.2884 14.7327 33.1333C15.0494 33.1333 15.316 33.0833 15.5327 33.0167C15.766 32.9 15.966 32.7 16.0494 32.4667C16.2327 32.0167 16.0494 31.3 15.466 30.5167C14.8827 29.75 13.8994 28.8667 12.466 27.9833C11.916 27.6333 11.4994 27.2667 11.1827 26.8667C10.866 26.4833 10.6494 26.0833 10.516 25.6667C10.2494 24.7667 10.2827 23.85 10.4994 22.9167C10.7494 21.8167 11.2494 20.75 11.7327 19.8333C12.066 19.25 12.3827 18.7333 12.6494 18.3167C12.816 18.2 12.6994 18.5167 11.9994 19.8333L11.9494 19.9333C11.2827 21.1833 10.0327 24.1 11.7494 26.3667C11.816 24.7167 12.1827 23.0833 12.8327 21.5667C13.0494 21.0667 13.3327 20.4833 13.6327 19.8333C14.616 17.75 15.816 15.05 15.9327 12.7833C16.016 12.85 16.2994 13.0167 16.416 13.1167C16.7827 13.35 17.066 13.6833 17.416 13.9C17.766 14.2333 18.216 14.45 18.8994 14.45C18.966 14.4667 19.016 14.4667 19.0827 14.4667C19.766 14.4667 20.316 14.25 20.766 14.0167C21.2494 13.8 21.6327 13.4667 21.9994 13.35H22.016C22.7994 13.1333 23.416 12.6833 23.7827 12.1833C24.3827 14.55 25.7994 17.9833 26.6994 19.65C27.5842 21.2184 28.2142 22.9173 28.566 24.6833C28.816 24.6667 29.116 24.7167 29.4327 24.7833C29.566 24.4333 29.6494 24.0833 29.6994 23.7333C30.016 21.4167 28.5494 19.15 27.716 18.3C27.666 18.2667 27.616 18.2167 27.5827 18.1833C27.216 17.85 27.1994 17.6167 27.3827 17.6167C27.4994 17.7167 27.5994 17.8167 27.716 17.9333C28.6494 18.9 29.7327 20.45 30.1494 22.2167C30.2827 22.7 30.3494 23.2167 30.3494 23.7333C30.3494 24.15 30.2994 24.5833 30.1994 25C30.2994 25.05 30.416 25.1 30.5327 25.1167C32.2827 26 32.916 26.6667 32.616 27.6667V27.6H32.2827C32.5327 26.8167 31.9827 26.2167 30.4827 25.5667C28.9494 24.9 27.716 25 27.4994 26.3333C27.4827 26.4 27.4827 26.45 27.466 26.5667C27.3494 26.6 27.2327 26.65 27.116 26.6667C26.3994 27.1167 25.9994 27.7833 25.7827 28.65C25.566 29.5333 25.4994 30.5667 25.4327 31.7667C25.3994 32.3167 25.1494 33.1667 24.8994 34.0167C23.8827 34.7333 22.7327 35.2833 21.4994 35.55ZM35.3327 34.7C34.2827 35.3667 32.3994 35.8833 31.1994 37.3167C30.1494 38.55 28.8827 39.2167 27.766 39.3C26.6494 39.3833 25.6827 38.9667 25.116 37.8H25.0994C24.7494 37.1333 24.8994 36.0833 25.1994 34.9833C25.4994 33.8667 25.916 32.7333 25.9827 31.8167C26.0327 30.6333 26.0994 29.6 26.2994 28.8C26.516 28.0167 26.8327 27.4667 27.3827 27.15L27.466 27.1167C27.516 28.1167 28.0327 29.1833 28.9494 29.4167C29.9327 29.6333 31.366 28.85 31.966 28.1333L32.316 28.1167C32.8494 28.1 33.2994 28.1333 33.7494 28.5667C34.0994 28.9 34.266 29.45 34.416 30.0333C34.566 30.7 34.6827 31.3333 35.0994 31.8C35.9327 32.6833 36.1994 33.3167 36.1827 33.7C36.1494 34.15 35.866 34.3667 35.3327 34.7ZM27.716 18.3V19.8333H26.7994C27.6316 21.3507 28.2274 22.9862 28.566 24.6833C28.816 24.6667 29.116 24.7167 29.4327 24.7833C29.566 24.4333 29.6494 24.0833 29.6994 23.7333C30.016 21.4167 28.5494 19.15 27.716 18.3Z" fill="black"/>
<path d="M23.7008 10.5005V10.7339C23.5675 10.5005 23.3175 10.2839 22.8842 10.0672C21.9842 9.73385 21.6008 9.61719 21.1008 9.28385C20.3008 8.71719 19.6175 8.61719 19.0675 8.61719C18.7675 8.61719 18.5008 8.66719 18.2675 8.71719C17.6008 8.95052 17.1508 9.38385 16.8675 9.73385H16.8508C16.8008 9.78385 16.7342 9.83385 16.5675 9.95052C16.3842 10.0505 16.1175 10.2839 15.7508 10.5172C15.4175 10.7339 15.3008 11.0672 15.4175 11.5172C15.5342 11.8339 15.9008 12.2839 16.5842 12.7005C17.0008 12.9172 17.2842 13.2505 17.6175 13.4839C17.7842 13.6005 17.9675 13.7005 18.1675 13.8005C18.4008 13.9005 18.6508 13.9339 18.9175 13.9172C19.6342 13.9672 20.1508 13.7005 20.6175 13.4672C21.0842 13.2505 21.4675 12.9172 21.9342 12.7005C22.8508 12.3672 23.5175 11.8172 23.7175 11.2839C23.8175 11.0339 23.8175 10.7505 23.7008 10.5005ZM19.4842 9.40052C19.4675 9.36719 19.5008 9.33385 19.5175 9.31719C19.6618 9.25881 19.8232 9.25881 19.9675 9.31719C20.0675 9.31719 20.2342 9.43385 20.2175 9.55052C20.2008 9.63385 20.0675 9.65052 19.9842 9.65052C19.9008 9.65052 19.8342 9.58385 19.7508 9.55052C19.6675 9.51719 19.5008 9.53385 19.4842 9.43385V9.40052ZM18.0508 9.31719C18.1842 9.26719 18.3675 9.25052 18.4842 9.31719C18.5175 9.33385 18.5508 9.36719 18.5342 9.40052V9.43385H18.5508C18.5175 9.53385 18.3508 9.51719 18.2675 9.55052C18.1842 9.58385 18.1175 9.66719 18.0342 9.66719C17.9508 9.66719 17.8175 9.63385 17.8008 9.55052C17.7842 9.43385 17.9508 9.31719 18.0508 9.31719ZM22.4675 11.3005C22.1508 11.5172 21.6842 11.8505 21.3008 12.0839C20.5675 12.4172 19.7008 12.9672 18.7842 12.9672C17.8842 12.9672 17.1508 12.5172 16.6342 12.1839C16.3675 11.9672 16.1675 11.7505 16.0008 11.6339C15.7342 11.4172 15.7675 11.0839 15.8842 11.0839C16.0675 11.1005 16.1008 11.3005 16.2175 11.4172C16.3842 11.5172 16.5842 11.7505 16.8175 11.9672C17.3175 12.3005 17.9675 12.7505 18.7842 12.7505C19.6008 12.7505 20.5675 12.3005 21.1508 11.9672C21.4675 11.7505 21.9008 11.4172 22.2342 11.1839C22.5008 10.9672 22.4842 10.7505 22.7175 10.7505C22.9342 10.7672 22.7675 10.9672 22.4675 11.3005ZM36.1842 33.7005C36.1508 34.1505 35.8675 34.3672 35.3342 34.7005C34.2842 35.3672 32.4008 35.8839 31.2008 37.3172C30.1508 38.5505 28.8842 39.2172 27.7675 39.3005C26.6508 39.3839 25.6842 38.9672 25.1175 37.8005H25.1008C24.7508 37.1339 24.9008 36.0839 25.2008 34.9839C25.5008 33.8672 25.9175 32.7339 25.9842 31.8172C26.0342 30.6339 26.1008 29.6005 26.3008 28.8005C26.5175 28.0172 26.8342 27.4672 27.3842 27.1505L27.4675 27.1172C27.5175 28.1172 28.0342 29.1839 28.9508 29.4172C29.9342 29.6339 31.3675 28.8505 31.9675 28.1339L32.3175 28.1172C32.8508 28.1005 33.3008 28.1339 33.7508 28.5672C34.1008 28.9005 34.2675 29.4505 34.4175 30.0339C34.5675 30.7005 34.6842 31.3339 35.1008 31.8005C35.9342 32.6839 36.2008 33.3172 36.1842 33.7005ZM16.0175 36.6005V36.6172C15.9175 37.8505 15.2008 38.5172 14.1175 38.7672C13.0175 38.9839 11.5508 38.7672 10.0675 38.0005C8.45083 37.1005 6.50083 37.2172 5.26749 36.9839C4.63416 36.8839 4.23416 36.6505 4.03416 36.3172C3.85083 35.9839 3.85083 35.3172 4.25083 34.2672C4.45083 33.7005 4.30083 33.0005 4.20083 32.4005C4.11749 31.7339 4.06749 31.2172 4.28416 30.8339C4.55083 30.2672 4.95083 30.1672 5.43416 29.9339C5.93416 29.7172 6.51749 29.6005 6.98416 29.1672V29.1505C7.41749 28.7005 7.73416 28.1505 8.11749 27.7505C8.43416 27.4172 8.75083 27.2005 9.23416 27.2005H9.25083C9.33416 27.2005 9.41749 27.2005 9.51749 27.2172C10.1508 27.3172 10.7008 27.7839 11.2342 28.4672L12.7675 31.2505H12.7842C13.1842 32.1339 14.0508 33.0339 14.7842 33.9839C15.5175 34.9839 16.0842 35.8672 16.0175 36.6005Z" fill="#F9C105"/>
<path d="M18.5507 9.43407C18.5174 9.53407 18.3507 9.51741 18.2674 9.55074C18.184 9.58407 18.1174 9.66741 18.034 9.66741C17.9507 9.66741 17.8174 9.63407 17.8007 9.55074C17.784 9.43407 17.9507 9.31741 18.0507 9.31741C18.184 9.26741 18.3674 9.25074 18.484 9.31741C18.5174 9.33408 18.5507 9.36741 18.534 9.40074V9.43407H18.5507ZM22.4674 11.3007C22.1507 11.5174 21.684 11.8507 21.3007 12.0841C20.5674 12.4174 19.7007 12.9674 18.784 12.9674C17.884 12.9674 17.1507 12.5174 16.634 12.1841C16.3674 11.9674 16.1674 11.7507 16.0007 11.6341C15.734 11.4174 15.7674 11.0841 15.884 11.0841C16.0674 11.1007 16.1007 11.3007 16.2174 11.4174C16.384 11.5174 16.584 11.7507 16.8174 11.9674C17.3174 12.3007 17.9674 12.7507 18.784 12.7507C19.6007 12.7507 20.5674 12.3007 21.1507 11.9674C21.4674 11.7507 21.9007 11.4174 22.234 11.1841C22.5007 10.9674 22.484 10.7507 22.7174 10.7507C22.934 10.7674 22.7674 10.9674 22.4674 11.3007Z" fill="black"/>
</svg>
