<svg width="20" height="20" viewBox="0 0 20 20" fill="none" xmlns="http://www.w3.org/2000/svg">
<rect x="0.35" y="0.35" width="19.3" height="19.3" rx="2.94932" stroke="#DFE1E6" stroke-width="0.7"/>
<path fill-rule="evenodd" clip-rule="evenodd" d="M6.22292 6H7.11459C7.23783 6 7.33756 6.1019 7.33756 6.22784V7.13924C7.33756 7.26518 7.23783 7.36708 7.11464 7.36708H6.22292C6.09968 7.36708 6 7.26518 6 7.13924V6.22784C6 6.1019 6.09968 6 6.22292 6ZM6.22292 8.96199H7.11459C7.23783 8.96199 7.33756 9.0639 7.33756 9.18981V10.1012C7.33756 10.2271 7.23783 10.3291 7.11464 10.3291H6.22292C6.09968 10.3291 6 10.2271 6 10.1012V9.18984C6 9.0639 6.09968 8.96199 6.22292 8.96199ZM7.11459 11.924H6.22292C6.09968 11.924 6 12.0259 6 12.1518V13.0632C6 13.1891 6.09968 13.291 6.22292 13.291H7.11464C7.23783 13.291 7.33756 13.1891 7.33756 13.0632V12.1518C7.33756 12.0259 7.23783 11.924 7.11459 11.924ZM8.45215 6.45569H14.3553C14.4785 6.45569 14.5782 6.55761 14.5782 6.68356V7.13924C14.5782 7.26518 14.4785 7.36708 14.3553 7.36708H8.45215C8.32896 7.36708 8.22923 7.26518 8.22923 7.13924V6.68356C8.22923 6.55761 8.32896 6.45569 8.45215 6.45569ZM14.3551 9.18986H8.45193C8.32874 9.18986 8.22901 9.29178 8.22901 9.4177V9.87338C8.22901 9.99933 8.32874 10.1012 8.45193 10.1012H14.3551C14.4783 10.1012 14.578 9.99933 14.578 9.87338V9.4177C14.578 9.29178 14.4783 9.18986 14.3551 9.18986ZM8.45215 11.924H14.3553C14.4785 11.924 14.5782 12.0259 14.5782 12.1518V12.6075C14.5782 12.7335 14.4785 12.8354 14.3553 12.8354H8.45215C8.32896 12.8354 8.22923 12.7335 8.22923 12.6075V12.1518C8.22923 12.0259 8.32896 11.924 8.45215 11.924Z" fill="#818181"/>
</svg>
