<svg width="25" height="25" viewBox="0 0 25 25" fill="none" xmlns="http://www.w3.org/2000/svg">
<rect x="0.35" y="0.35" width="24.3" height="24.3" rx="2.94932" stroke="#DFE1E6" stroke-width="0.7"/>
<path d="M18.3076 8.38485C18.3076 8.28273 18.2672 8.18486 18.1949 8.11275C18.1228 8.04063 18.0249 8.00019 17.9229 8.00019H13.3076C13.0953 8.00019 12.923 8.17237 12.923 8.38485C12.923 8.5972 13.0953 8.76937 13.3076 8.76937H17.9229C18.0249 8.7695 18.1228 8.72893 18.1949 8.65682C18.2672 8.5847 18.3076 8.48684 18.3076 8.38485ZM18.3076 10.6925C18.3076 10.5904 18.2672 10.4925 18.1949 10.4204C18.1228 10.3483 18.0249 10.3079 17.9229 10.3079H13.3076C13.0953 10.3079 12.923 10.48 12.923 10.6925C12.923 10.9049 13.0953 11.077 13.3076 11.077H17.9229C18.0249 11.0772 18.1228 11.0366 18.1949 10.9645C18.2672 10.8924 18.3076 10.7945 18.3076 10.6925ZM18.3076 13.0002C18.3076 12.898 18.2672 12.8002 18.1949 12.7281C18.1228 12.6559 18.0249 12.6155 17.9229 12.6155H13.3076C13.0953 12.6155 12.923 12.7877 12.923 13.0002C12.923 13.2125 13.0953 13.3847 13.3076 13.3847H17.9229C18.0249 13.3848 18.1228 13.3442 18.1949 13.2721C18.2672 13.2 18.3076 13.1022 18.3076 13.0002ZM18.3076 15.3078C18.3076 15.2057 18.2672 15.1078 18.1949 15.0357C18.1228 14.9636 18.0249 14.9232 17.9229 14.9232H6.38465C6.1723 14.9232 6 15.0953 6 15.3078C6 15.5202 6.1723 15.6923 6.38465 15.6923H17.9229C18.0249 15.6925 18.1228 15.6519 18.1949 15.5798C18.2672 15.5077 18.3076 15.4098 18.3076 15.3078ZM18.3076 17.6155C18.3076 17.5134 18.2672 17.4155 18.1949 17.3434C18.1228 17.2713 18.0249 17.2308 17.9229 17.2308H6.38465C6.1723 17.2308 6 17.403 6 17.6155C6 17.8278 6.1723 18 6.38465 18H17.9229C18.0249 18.0001 18.1228 17.9596 18.1949 17.8874C18.2672 17.8153 18.3076 17.7175 18.3076 17.6155ZM10.6152 13.3846H6.76931C6.5652 13.3846 6.36959 13.3036 6.22536 13.1593C6.08113 13.0151 6 12.8194 6 12.6154V8.76917C6 8.56519 6.08113 8.36958 6.22536 8.22536C6.36959 8.081 6.56521 8 6.76931 8H10.6155C10.8196 8 11.0151 8.081 11.1593 8.22536C11.3036 8.36958 11.3847 8.56521 11.3847 8.76917V12.6154C11.3847 12.8194 11.3036 13.0151 11.1593 13.1593C11.0151 13.3036 10.8193 13.3846 10.6152 13.3846Z" fill="#818181"/>
</svg>
