<svg width="25" height="25" viewBox="0 0 25 25" fill="none" xmlns="http://www.w3.org/2000/svg">
<rect x="0.35" y="0.35" width="24.3" height="24.3" rx="2.94932" stroke="#DFE1E6" stroke-width="0.7"/>
<path d="M7.30575 8H8.52872C8.69774 8 8.83452 8.13976 8.83452 8.31249V9.56252C8.83452 9.73526 8.69774 9.87501 8.52878 9.87501H7.30575C7.13672 9.87501 7 9.73526 7 9.56252V8.31249C7 8.13976 7.13672 8 7.30575 8Z" fill="#818181"/>
<path d="M7.30575 12.0625H8.52872C8.69774 12.0625 8.83452 12.2023 8.83452 12.375V13.625C8.83452 13.7977 8.69774 13.9375 8.52878 13.9375H7.30575C7.13672 13.9375 7 13.7977 7 13.625V12.375C7 12.2023 7.13672 12.0625 7.30575 12.0625Z" fill="#818181"/>
<path d="M8.52872 16.125H7.30575C7.13672 16.125 7 16.2648 7 16.4375V17.6875C7 17.8602 7.13672 18 7.30575 18H8.52878C8.69774 18 8.83452 17.8602 8.83452 17.6875V16.4375C8.83452 16.2648 8.69774 16.125 8.52872 16.125Z" fill="#818181"/>
<path d="M10.3632 8.625H18.4597C18.6287 8.625 18.7654 8.76479 18.7654 8.93753V9.56252C18.7654 9.73526 18.6287 9.87501 18.4597 9.87501H10.3632C10.1943 9.87501 10.0575 9.73526 10.0575 9.56252V8.93753C10.0575 8.76479 10.1943 8.625 10.3632 8.625Z" fill="#818181"/>
<path d="M18.4594 12.375H10.3629C10.194 12.375 10.0572 12.5148 10.0572 12.6875V13.3125C10.0572 13.4853 10.194 13.6251 10.3629 13.6251H18.4594C18.6284 13.6251 18.7651 13.4853 18.7651 13.3125V12.6875C18.7651 12.5148 18.6284 12.375 18.4594 12.375Z" fill="#818181"/>
<path d="M10.3632 16.125H18.4597C18.6287 16.125 18.7654 16.2648 18.7654 16.4375V17.0625C18.7654 17.2353 18.6287 17.375 18.4597 17.375H10.3632C10.1943 17.375 10.0575 17.2353 10.0575 17.0625V16.4375C10.0575 16.2648 10.1943 16.125 10.3632 16.125Z" fill="#818181"/>
</svg>
