<svg width="20" height="20" viewBox="0 0 20 20" fill="none" xmlns="http://www.w3.org/2000/svg">
<rect x="0.35" y="0.35" width="19.3" height="19.3" rx="2.94932" stroke="#DFE1E6" stroke-width="0.7"/>
<path d="M14.1213 7.25395C14.1213 7.18656 14.0947 7.12198 14.047 7.0744C13.9994 7.02681 13.9348 7.00013 13.8675 7.00013H10.822C10.6819 7.00013 10.5682 7.11374 10.5682 7.25395C10.5682 7.39407 10.6819 7.50768 10.822 7.50768H13.8675C13.9348 7.50776 13.9994 7.481 14.047 7.43341C14.0947 7.38583 14.1213 7.32125 14.1213 7.25395V7.25395ZM14.1213 8.77669C14.1213 8.7093 14.0947 8.64472 14.047 8.59714C13.9994 8.54955 13.9348 8.52287 13.8675 8.52287H10.822C10.6819 8.52287 10.5682 8.63648 10.5682 8.77669C10.5682 8.91681 10.6819 9.03042 10.822 9.03042H13.8675C13.9348 9.0305 13.9994 9.00374 14.047 8.95615C14.0947 8.90857 14.1213 8.84399 14.1213 8.77669V8.77669ZM14.1213 10.2994C14.1213 10.232 14.0947 10.1675 14.047 10.1199C13.9994 10.0723 13.9348 10.0456 13.8675 10.0456H10.822C10.6819 10.0456 10.5682 10.1592 10.5682 10.2994C10.5682 10.4395 10.6819 10.5532 10.822 10.5532H13.8675C13.9348 10.5532 13.9994 10.5265 14.047 10.4789C14.0947 10.4313 14.1213 10.3667 14.1213 10.2994V10.2994ZM14.1213 11.8222C14.1213 11.7548 14.0947 11.6902 14.047 11.6426C13.9994 11.595 13.9348 11.5683 13.8675 11.5683H6.25382C6.1137 11.5683 6 11.682 6 11.8222C6 11.9623 6.1137 12.0759 6.25382 12.0759H13.8675C13.9348 12.076 13.9994 12.0492 14.047 12.0016C14.0947 11.954 14.1213 11.8895 14.1213 11.8222V11.8222ZM14.1213 13.3449C14.1213 13.2775 14.0947 13.2129 14.047 13.1654C13.9994 13.1178 13.9348 13.0911 13.8675 13.0911H6.25382C6.1137 13.0911 6 13.2047 6 13.3449C6 13.485 6.1137 13.5986 6.25382 13.5986H13.8675C13.9348 13.5987 13.9994 13.572 14.047 13.5244C14.0947 13.4768 14.1213 13.4122 14.1213 13.3449V13.3449ZM9.04539 10.5531H6.50764C6.37295 10.5531 6.24388 10.4996 6.14871 10.4045C6.05354 10.3093 6 10.1801 6 10.0455V7.50755C6 7.37295 6.05354 7.24388 6.14871 7.1487C6.24388 7.05345 6.37296 7 6.50764 7H9.04561H9.04553C9.18021 7 9.30929 7.05345 9.40446 7.1487C9.49963 7.24388 9.55316 7.37296 9.55316 7.50755V10.0455C9.55316 10.1801 9.49963 10.3093 9.40446 10.4045C9.30929 10.4996 9.1802 10.5531 9.04553 10.5531H9.04539Z" fill="#818181"/>
</svg>
