<svg width="12" height="10" viewBox="0 0 12 10" fill="none" xmlns="http://www.w3.org/2000/svg">
<path fill-rule="evenodd" clip-rule="evenodd" d="M0.305748 0H1.52872C1.69774 0 1.83452 0.139762 1.83452 0.312493V1.56252C1.83452 1.73526 1.69774 1.87501 1.52878 1.87501H0.305748C0.136722 1.87501 0 1.73526 0 1.56252V0.312493C0 0.139762 0.136722 0 0.305748 0ZM0.305748 4.06251H1.52872C1.69774 4.06251 1.83452 4.20227 1.83452 4.37497V5.62499C1.83452 5.79773 1.69774 5.93749 1.52878 5.93749H0.305748C0.136722 5.93749 0 5.79773 0 5.62503V4.37501C0 4.20227 0.136722 4.06251 0.305748 4.06251ZM1.52872 8.12503H0.305748C0.136722 8.12503 0 8.26478 0 8.43748V9.68751C0 9.86024 0.136722 10 0.305748 10H1.52878C1.69774 10 1.83452 9.86024 1.83452 9.68751V8.43748C1.83452 8.26478 1.69774 8.12503 1.52872 8.12503ZM3.36324 0.624996H11.4597C11.6287 0.624996 11.7654 0.764789 11.7654 0.937529V1.56252C11.7654 1.73526 11.6287 1.87501 11.4597 1.87501H3.36324C3.19427 1.87501 3.05749 1.73526 3.05749 1.56252V0.937529C3.05749 0.764789 3.19427 0.624996 3.36324 0.624996ZM11.4594 4.37486H3.36292C3.19395 4.37486 3.05717 4.51466 3.05717 4.68736V5.31234C3.05717 5.48508 3.19395 5.62488 3.36292 5.62488H11.4594C11.6283 5.62488 11.7651 5.48508 11.7651 5.31234V4.68736C11.7651 4.51466 11.6283 4.37486 11.4594 4.37486ZM3.36324 8.12503H11.4597C11.6287 8.12503 11.7654 8.26478 11.7654 8.43752V9.06251C11.7654 9.23525 11.6287 9.375 11.4597 9.375H3.36324C3.19427 9.375 3.05749 9.23525 3.05749 9.06251V8.43752C3.05749 8.26478 3.19427 8.12503 3.36324 8.12503Z" fill="#818181"/>
</svg>
