<svg width="12" height="10" viewBox="0 0 12 10" fill="none" xmlns="http://www.w3.org/2000/svg">
<path fill-rule="evenodd" clip-rule="evenodd" d="M0.311844 0.148193H1.5592C1.73159 0.148193 1.8711 0.283814 1.8711 0.451425V1.6644C1.8711 1.83202 1.73159 1.96763 1.55926 1.96763H0.311844C0.139448 1.96763 0 1.83202 0 1.6644V0.451425C0 0.283814 0.139448 0.148193 0.311844 0.148193ZM0.311844 4.0903H1.5592C1.73159 4.0903 1.8711 4.22592 1.8711 4.3935V5.60646C1.8711 5.77409 1.73159 5.90971 1.55926 5.90971H0.311844C0.139448 5.90971 0 5.77409 0 5.6065V4.39354C0 4.22592 0.139448 4.0903 0.311844 4.0903ZM1.5592 8.03241H0.311844C0.139448 8.03241 0 8.16802 0 8.3356V9.54858C0 9.71619 0.139448 9.85181 0.311844 9.85181H1.55926C1.73159 9.85181 1.8711 9.71619 1.8711 9.54858V8.3356C1.8711 8.16802 1.73159 8.03241 1.5592 8.03241ZM3.43029 0.754666H11.6882C11.8605 0.754666 12 0.890315 12 1.05794V1.6644C12 1.83202 11.8605 1.96763 11.6882 1.96763H3.43029C3.25796 1.96763 3.11845 1.83202 3.11845 1.6644V1.05794C3.11845 0.890315 3.25796 0.754666 3.43029 0.754666ZM11.6878 4.39309H3.42997C3.25764 4.39309 3.11813 4.52874 3.11813 4.69632V5.30278C3.11813 5.4704 3.25764 5.60605 3.42997 5.60605H11.6878C11.8602 5.60605 11.9997 5.4704 11.9997 5.30278V4.69632C11.9997 4.52874 11.8602 4.39309 11.6878 4.39309ZM3.43029 8.03241H11.6882C11.8605 8.03241 12 8.16802 12 8.33564V8.94211C12 9.10973 11.8605 9.24534 11.6882 9.24534H3.43029C3.25796 9.24534 3.11845 9.10973 3.11845 8.94211V8.33564C3.11845 8.16802 3.25796 8.03241 3.43029 8.03241Z" fill="#818181"/>
</svg>
