<svg width="11" height="11" viewBox="0 0 11 11" fill="none" xmlns="http://www.w3.org/2000/svg">
<path d="M5.5 0C2.4585 0 0 2.4585 0 5.5C0 8.5415 2.4585 11 5.5 11C8.5415 11 11 8.5415 11 5.5C11 2.4585 8.5415 0 5.5 0ZM7.865 7.865C7.6505 8.0795 7.304 8.0795 7.0895 7.865L5.5 6.2755L3.9105 7.865C3.696 8.0795 3.3495 8.0795 3.135 7.865C2.9205 7.6505 2.9205 7.304 3.135 7.0895L4.7245 5.5L3.135 3.9105C2.9205 3.696 2.9205 3.3495 3.135 3.135C3.3495 2.9205 3.696 2.9205 3.9105 3.135L5.5 4.7245L7.0895 3.135C7.304 2.9205 7.6505 2.9205 7.865 3.135C8.0795 3.3495 8.0795 3.696 7.865 3.9105L6.2755 5.5L7.865 7.0895C8.074 7.2985 8.074 7.6505 7.865 7.865Z" fill="#818181"/>
</svg>
