<svg width="10" height="9" viewBox="0 0 10 9" fill="none" xmlns="http://www.w3.org/2000/svg">
<path d="M7.80139 8.67804L4.63843 6.18506L1.47437 8.68005C1.30259 8.80805 1.0941 8.8772 0.879883 8.8772C0.665662 8.8772 0.457179 8.80805 0.2854 8.68005C0.196929 8.61502 0.125016 8.53004 0.0754395 8.43207C0.025863 8.33409 0 8.22583 0 8.11603C0 8.00622 0.025863 7.89796 0.0754395 7.79999C0.125016 7.70201 0.196929 7.6171 0.2854 7.55206L4.04443 4.59003C4.21644 4.46302 4.42462 4.39453 4.63843 4.39453C4.85224 4.39453 5.06042 4.46302 5.23242 4.59003L8.99146 7.55304C9.07954 7.61812 9.15111 7.703 9.20044 7.80078C9.24977 7.89856 9.27539 8.00651 9.27539 8.11603C9.27539 8.22555 9.24977 8.33355 9.20044 8.43134C9.15111 8.52912 9.07954 8.614 8.99146 8.67908C8.81982 8.80831 8.61072 8.87817 8.39587 8.87817C8.18103 8.87817 7.97205 8.80831 7.80042 8.67908L7.80139 8.67804ZM7.80139 4.45007L4.63843 1.95605L1.47437 4.45105C1.30259 4.57904 1.0941 4.64819 0.879883 4.64819C0.665662 4.64819 0.457179 4.57904 0.2854 4.45105C0.196929 4.38601 0.125016 4.3011 0.0754395 4.20312C0.025863 4.10515 0 3.99683 0 3.88702C0 3.77722 0.025863 3.66896 0.0754395 3.57098C0.125016 3.47301 0.196929 3.3881 0.2854 3.32306L4.04443 0.362061C4.21644 0.235056 4.42462 0.166504 4.63843 0.166504C4.85224 0.166504 5.06042 0.235056 5.23242 0.362061L8.99146 3.32507C9.07954 3.39015 9.15111 3.47497 9.20044 3.57275C9.24977 3.67054 9.27539 3.77854 9.27539 3.88806C9.27539 3.99758 9.24977 4.10559 9.20044 4.20337C9.15111 4.30115 9.07954 4.38597 8.99146 4.45105C8.81969 4.57998 8.61064 4.64966 8.39587 4.64966C8.18111 4.64966 7.97218 4.57998 7.80042 4.45105L7.80139 4.45007Z" fill="#FF0000"/>
</svg>
