<svg width="33" height="40" viewBox="0 0 33 40" fill="none" xmlns="http://www.w3.org/2000/svg">
<path d="M22.1659 6.37958C22.922 5.50819 23.4985 4.49604 23.8622 3.40125C24.226 2.30645 24.37 1.15058 24.2858 0C21.9647 0.187361 19.8101 1.27903 18.2862 3.0398C17.5565 3.88369 17.0034 4.86544 16.6599 5.92689C16.3164 6.98835 16.1894 8.10795 16.2863 9.21939C17.4186 9.22882 18.5378 8.97759 19.5573 8.48515C20.5769 7.99271 21.4694 7.27227 22.1659 6.37958ZM27.2056 21.2586C27.219 19.7262 27.6227 18.2224 28.3785 16.8893C29.1343 15.5561 30.2173 14.4376 31.5253 13.6391C30.6998 12.4497 29.6085 11.4689 28.338 10.7746C27.0675 10.0804 25.6527 9.69166 24.2058 9.63936C21.086 9.31938 18.2062 11.4592 16.5463 11.4592C14.8864 11.4592 12.5466 9.67936 9.94676 9.71935C8.24713 9.77534 6.59102 10.2709 5.13997 11.1576C3.68892 12.0444 2.49247 13.2921 1.66731 14.779C-1.85246 20.8986 0.76737 29.998 4.28714 34.9377C5.88703 37.3575 7.8869 40.0973 10.5267 39.9973C13.1665 39.8973 14.0265 38.3575 17.0863 38.3575C20.1461 38.3575 21.086 39.9973 23.6858 39.9373C26.2857 39.8773 28.1255 37.4575 29.8054 35.0377C30.9954 33.2808 31.925 31.3611 32.5653 29.3381C30.9803 28.6621 29.6281 27.5367 28.6756 26.1009C27.7231 24.665 27.2121 22.9816 27.2056 21.2586Z" fill="black"/>
</svg>
