<svg width="16" height="16" viewBox="0 0 16 16" fill="none" xmlns="http://www.w3.org/2000/svg">
<path d="M8.01653 0C12.7647 0.0280823 16.4507 4.13123 15.9553 8.84344C15.7426 10.8888 14.7478 12.7732 13.1782 14.1039C11.6087 15.4345 9.58546 16.1086 7.53046 15.9857C6.39286 15.9277 5.28274 15.6157 4.28173 15.0727C4.19879 15.0235 4.10563 14.9939 4.00944 14.9864C3.91324 14.9788 3.81659 14.9934 3.72695 15.029C2.82043 15.333 1.90704 15.6169 0.998641 15.9146C0.70563 16.0107 0.428863 16.0519 0.186457 15.8066C-0.0559484 15.5614 -0.00784638 15.2855 0.0883661 14.9953C0.387 14.088 0.673141 13.1769 0.974274 12.2701C1.00785 12.1854 1.02202 12.0942 1.01575 12.0033C1.00948 11.9124 0.982926 11.824 0.938033 11.7447C-1.65158 6.85521 1.37849 0.901755 6.86447 0.100472C7.24682 0.0436836 7.63355 0.0318267 8.01653 0ZM1.60152 14.4044C2.31937 14.1728 2.96849 13.985 3.60075 13.7516C3.99934 13.6043 4.32422 13.6574 4.68907 13.8671C6.04417 14.6453 7.51235 14.9198 9.05237 14.6646C12.6853 14.0618 15.0894 10.8647 14.6977 7.19594C14.2997 3.47535 10.6642 0.724524 6.95944 1.34858C2.2319 2.13987 -0.19777 7.26584 2.1913 11.4214C2.36061 11.716 2.39372 11.983 2.27939 12.3069C2.04261 12.9765 1.83956 13.6599 1.60152 14.4044Z" fill="white"/>
<path d="M5.65245 8.00971C5.65244 8.16313 5.60677 8.31308 5.52126 8.44052C5.43574 8.56795 5.31423 8.66712 5.17216 8.72543C5.0301 8.78373 4.87388 8.79854 4.72337 8.76796C4.57286 8.73739 4.43484 8.66282 4.32686 8.55372C4.21887 8.44462 4.14578 8.30593 4.11689 8.15525C4.08799 8.00457 4.10459 7.84871 4.16457 7.70747C4.22455 7.56624 4.32519 7.446 4.45374 7.36203C4.58228 7.27806 4.73292 7.23415 4.8865 7.23588C4.98785 7.23579 5.08821 7.25581 5.18175 7.29478C5.27529 7.33374 5.36015 7.39088 5.43141 7.46287C5.50267 7.53486 5.5589 7.62027 5.59685 7.71414C5.63479 7.80801 5.65369 7.90848 5.65245 8.00971Z" fill="white"/>
<path d="M8.00841 8.78228C7.855 8.78302 7.70482 8.73821 7.57695 8.65354C7.44908 8.56886 7.34929 8.44814 7.29024 8.30671C7.23119 8.16527 7.21554 8.0095 7.24529 7.85917C7.27504 7.70883 7.34884 7.57072 7.45732 7.46236C7.5658 7.354 7.70407 7.28028 7.85457 7.25057C8.00507 7.22085 8.16103 7.23648 8.30262 7.29547C8.44422 7.35445 8.56507 7.45413 8.64985 7.58186C8.73462 7.70958 8.77947 7.85959 8.77873 8.01283C8.77931 8.11404 8.75979 8.21436 8.72128 8.30797C8.68278 8.40159 8.62606 8.48664 8.55441 8.55821C8.48276 8.62978 8.39761 8.68643 8.30389 8.72489C8.21017 8.76336 8.10973 8.78286 8.00841 8.78228Z" fill="white"/>
<path d="M11.1203 7.23588C11.2737 7.2344 11.4241 7.27848 11.5524 7.36254C11.6807 7.44659 11.781 7.56682 11.8408 7.70797C11.9005 7.84911 11.9169 8.00481 11.8879 8.15529C11.8589 8.30576 11.7858 8.44423 11.6778 8.55312C11.5699 8.662 11.432 8.73639 11.2816 8.76684C11.1312 8.79728 10.9752 8.78241 10.8333 8.72412C10.6915 8.66582 10.5701 8.56673 10.4847 8.43942C10.3993 8.31211 10.3537 8.16233 10.3537 8.00909C10.3527 7.90788 10.3717 7.80747 10.4098 7.71366C10.4478 7.61986 10.5041 7.53453 10.5754 7.46261C10.6467 7.3907 10.7316 7.33363 10.8251 7.29471C10.9187 7.25579 11.019 7.2358 11.1203 7.23588Z" fill="white"/>
</svg>
