<svg width="30" height="30" viewBox="0 0 30 30" fill="none" xmlns="http://www.w3.org/2000/svg">
<rect x="0.5" y="0.5" width="29" height="29" rx="4.5" stroke="#DFE1E6"/>
<path d="M11.1495 9.98669L12.9901 11.7958L10.8152 13.984L8.9967 12.1371C8.87006 12.392 8.7851 12.5469 8.7151 12.7082C8.56408 13.0574 8.32182 13.2635 7.92854 13.2187C7.53526 13.1738 7.36536 12.8891 7.2812 12.532C7.04523 11.5276 6.81713 10.5215 6.55835 9.52419C6.43093 9.03259 6.2508 8.55358 6.07854 8.07456C5.96213 7.75285 5.95192 7.4571 6.20912 7.20304C6.45217 6.96235 6.73296 6.98281 7.0468 7.07012C8.51505 7.48175 9.98749 7.88132 11.4641 8.26884C11.9502 8.39705 12.1854 8.57638 12.2185 8.94213C12.2578 9.36373 12.0155 9.59262 11.6623 9.746C11.5145 9.80736 11.3753 9.87893 11.1495 9.98669Z" fill="black"/>
<path d="M8.97625 18.8447L10.7814 17.0136L12.9673 19.1877L11.1236 20.9968C11.3871 21.1289 11.5404 21.2147 11.7017 21.2839C12.0501 21.4349 12.257 21.6772 12.2122 22.0704C12.1673 22.4637 11.8834 22.6375 11.5263 22.7186C10.6988 22.9065 9.86585 23.0741 9.04625 23.2912C8.37846 23.4689 7.72405 23.6986 7.06963 23.9204C6.74713 24.0298 6.45138 24.0471 6.19732 23.7899C5.94326 23.5327 5.98337 23.2393 6.07461 22.9144C6.48362 21.4585 6.88321 19.9986 7.26154 18.534C7.42593 17.8985 7.87506 17.5847 8.347 17.867C8.50431 17.9591 8.60971 18.1447 8.71511 18.3036C8.81328 18.4784 8.9005 18.6591 8.97625 18.8447Z" fill="black"/>
<path d="M18.2561 14.0626L16.0097 11.8193L17.855 9.99136C17.619 9.87888 17.4758 9.80259 17.3248 9.7373C16.9685 9.57999 16.7333 9.34401 16.7852 8.92478C16.8372 8.50554 17.1463 8.36002 17.5152 8.27429C18.5196 8.03832 19.5256 7.81179 20.523 7.55144C21.0146 7.42323 21.4912 7.23681 21.971 7.06613C22.2817 6.95601 22.5665 6.96938 22.804 7.214C23.0298 7.44525 23.0274 7.71505 22.944 8.0163C22.5303 9.51182 22.1244 11.0097 21.7264 12.5099C21.6328 12.8615 21.4952 13.1604 21.0972 13.2178C20.6834 13.2753 20.4317 13.0605 20.276 12.6948C20.2091 12.5375 20.1305 12.3896 20.0353 12.1922C19.432 12.8246 18.8476 13.4404 18.2561 14.0626Z" fill="black"/>
<path d="M15.8996 19.2247L18.0162 17.1183C18.061 17.0735 18.113 17.0341 18.1633 16.9909L20.0078 18.8495C20.1218 18.623 20.206 18.472 20.2744 18.3147C20.4317 17.9513 20.6827 17.7342 21.0956 17.7924C21.4968 17.849 21.6407 18.1456 21.7249 18.5003C21.9852 19.592 22.2448 20.6846 22.5248 21.7708C22.6294 22.1743 22.7836 22.5652 22.9283 22.957C23.0423 23.2653 23.0408 23.5508 22.8024 23.7954C22.5641 24.0401 22.2841 24.0314 21.9679 23.9441C20.486 23.5304 19.0007 23.1274 17.512 22.7352C17.1463 22.6384 16.8356 22.5047 16.7837 22.0815C16.7318 21.6583 16.9685 21.424 17.3256 21.2706C17.4695 21.2084 17.6096 21.1384 17.7598 21.0676L15.8996 19.2247Z" fill="black"/>
<path d="M14.4853 17.6964C13.2874 17.6877 12.283 16.6628 12.3042 15.4728C12.3254 14.2827 13.3307 13.3034 14.5066 13.3113C15.7045 13.3199 16.7137 14.348 16.6885 15.5349C16.6633 16.7218 15.662 17.7066 14.4853 17.6964Z" fill="black"/>
</svg>
