<svg width="30" height="30" viewBox="0 0 30 30" fill="none" xmlns="http://www.w3.org/2000/svg">
<rect x="0.5" y="0.5" width="29" height="29" rx="4.5" stroke="#DFE1E6"/>
<path d="M6.43002 6.4287C6.43002 7.52344 6.43002 8.56104 6.43002 9.59863C6.43002 9.73168 6.43716 9.86651 6.43002 9.99956C6.40502 10.4192 6.11659 10.7139 5.72727 10.7139C5.63401 10.7172 5.54107 10.7015 5.45405 10.6678C5.36702 10.6342 5.28773 10.5832 5.22096 10.518C5.15419 10.4528 5.10132 10.3748 5.06557 10.2886C5.02981 10.2024 5.0119 10.1098 5.01292 10.0165C5.00101 8.57533 5.00101 7.13442 5.01292 5.69382C5.01738 5.28039 5.30938 5.00982 5.73531 5.00714C7.14734 4.99762 8.55848 4.99762 9.96872 5.00714C10.4152 5.00714 10.7188 5.31253 10.7179 5.72149C10.717 6.13046 10.417 6.42603 9.96606 6.4296C8.80435 6.43317 7.64799 6.4287 6.43002 6.4287Z" fill="black"/>
<path d="M23.5744 6.4287H20.3724C20.2384 6.4287 20.1045 6.43674 19.9714 6.4287C19.7841 6.42034 19.6077 6.3387 19.48 6.20139C19.3524 6.06408 19.2839 5.8821 19.2892 5.69471C19.2902 5.51376 19.3626 5.34051 19.4907 5.21273C19.6188 5.08494 19.7923 5.01297 19.9732 5.0125C21.4144 4.99941 22.8553 4.99941 24.2959 5.0125C24.7111 5.0125 24.9924 5.3036 24.9951 5.72685C25.0058 7.15555 25.0058 8.58158 24.9951 10.0049C24.9977 10.098 24.9816 10.1907 24.9477 10.2774C24.9138 10.3642 24.8628 10.4432 24.7978 10.5099C24.7327 10.5765 24.6549 10.6294 24.569 10.6654C24.4831 10.7013 24.3909 10.7197 24.2977 10.7193C23.8914 10.7255 23.5834 10.4246 23.578 9.97902C23.5744 8.81374 23.5744 7.6556 23.5744 6.4287Z" fill="black"/>
<path d="M6.43003 23.5731H9.59906C9.73211 23.5731 9.86694 23.566 9.99999 23.5731C10.4206 23.599 10.7099 23.8847 10.7143 24.2749C10.7176 24.3681 10.702 24.461 10.6683 24.548C10.6347 24.6349 10.5838 24.7142 10.5187 24.781C10.4536 24.8477 10.3757 24.9006 10.2896 24.9364C10.2035 24.9722 10.1111 24.9902 10.0178 24.9893C8.57724 25.0018 7.13635 25.0018 5.69514 24.9893C5.60501 24.992 5.51526 24.9763 5.43136 24.9432C5.34747 24.9102 5.27118 24.8604 5.20712 24.7969C5.14307 24.7334 5.09257 24.6576 5.05873 24.574C5.02489 24.4904 5.00841 24.4008 5.01027 24.3107C4.99658 22.8707 4.99658 21.4298 5.01027 19.988C5.00868 19.8951 5.02586 19.8029 5.0608 19.7168C5.09575 19.6307 5.14774 19.5526 5.21362 19.4872C5.27951 19.4217 5.35793 19.3702 5.4442 19.3358C5.53048 19.3014 5.62283 19.2848 5.71568 19.287C6.12197 19.287 6.4211 19.587 6.42467 20.038C6.43449 21.1979 6.43003 22.3542 6.43003 23.5731Z" fill="black"/>
<path d="M23.5744 23.5731C23.5744 22.3864 23.5744 21.2729 23.5744 20.1585C23.5744 19.6004 23.8423 19.2798 24.2986 19.2879C24.7344 19.295 24.9978 19.6093 24.9987 20.1389C25.0022 21.4765 25.0022 22.8135 24.9987 24.1499C24.9987 24.7312 24.7361 24.9955 24.1602 24.9973C22.8083 25.0009 21.4564 25.0009 20.1045 24.9973C19.6098 24.9973 19.3008 24.7294 19.2892 24.3062C19.2758 23.8669 19.5919 23.5767 20.1071 23.574C21.2528 23.5731 22.3895 23.5731 23.5744 23.5731Z" fill="black"/>
</svg>
