<svg width="16" height="14" viewBox="0 0 16 14" fill="none" xmlns="http://www.w3.org/2000/svg">
<path d="M11.5322 0H1.28581C1.11464 0.00110092 0.945422 0.0363526 0.788057 0.103691C0.630692 0.171028 0.488349 0.269098 0.36937 0.392151C0.250391 0.515205 0.15717 0.660769 0.095167 0.820311C0.0331643 0.979854 0.0036284 1.15017 0.00828954 1.32127V12.8102L2.57208 10.2464H7.82216C7.85856 9.1322 8.32749 8.07597 9.12954 7.3017C9.93159 6.52742 11.0037 6.09597 12.1185 6.09884C12.347 6.09849 12.5752 6.11604 12.801 6.15134V1.32127C12.8068 1.15059 12.7784 0.980474 12.7174 0.820972C12.6563 0.661471 12.564 0.515826 12.4457 0.392645C12.3274 0.269465 12.1856 0.17125 12.0287 0.103809C11.8718 0.0363681 11.703 0.00106942 11.5322 0ZM5.95838 7.68262H3.21084C3.04143 7.68262 2.87896 7.61532 2.75917 7.49553C2.63937 7.37574 2.57208 7.21327 2.57208 7.04386C2.57208 6.87445 2.63937 6.71198 2.75917 6.59218C2.87896 6.47239 3.04143 6.4051 3.21084 6.4051H5.95838C6.12779 6.4051 6.29026 6.47239 6.41005 6.59218C6.52984 6.71198 6.59714 6.87445 6.59714 7.04386C6.59714 7.21327 6.52984 7.37574 6.41005 7.49553C6.29026 7.61532 6.12779 7.68262 5.95838 7.68262ZM9.61593 5.76634H3.21084C3.04143 5.76634 2.87896 5.69904 2.75917 5.57925C2.63937 5.45946 2.57208 5.29699 2.57208 5.12758C2.5709 5.04337 2.58662 4.95978 2.6183 4.88175C2.64998 4.80372 2.69699 4.73283 2.75654 4.67328C2.81609 4.61373 2.88698 4.56672 2.96501 4.53504C3.04304 4.50336 3.12663 4.48764 3.21084 4.48882H9.61593C9.78534 4.48882 9.94781 4.55612 10.0676 4.67591C10.1874 4.7957 10.2547 4.95817 10.2547 5.12758C10.2503 5.29559 10.1816 5.4555 10.0627 5.57435C9.94386 5.69319 9.78395 5.76191 9.61593 5.76634ZM9.61593 3.84131H3.21084C3.04143 3.84131 2.87896 3.77401 2.75917 3.65422C2.63937 3.53443 2.57208 3.37196 2.57208 3.20255C2.57208 3.03314 2.63937 2.87067 2.75917 2.75088C2.87896 2.63109 3.04143 2.56379 3.21084 2.56379H9.61593C9.78534 2.56379 9.94781 2.63109 10.0676 2.75088C10.1874 2.87067 10.2547 3.03314 10.2547 3.20255C10.2547 3.37196 10.1874 3.53443 10.0676 3.65422C9.94781 3.77401 9.78534 3.84131 9.61593 3.84131ZM12.1272 6.8076C11.5974 6.81336 11.0755 6.9361 10.5986 7.16706C10.1218 7.39801 9.7019 7.73146 9.36894 8.14358C9.03597 8.55569 8.79818 9.03629 8.67256 9.55099C8.54694 10.0657 8.53659 10.6018 8.64226 11.121C8.74793 11.6401 8.96701 12.1296 9.28383 12.5542C9.60065 12.9789 10.0074 13.3283 10.4749 13.5774C10.9425 13.8266 11.4594 13.9694 11.9885 13.9956C12.5177 14.0218 13.0461 13.9307 13.536 13.729C14.398 13.3658 15.0852 12.6818 15.4523 11.8214C15.6364 11.3837 15.7316 10.9138 15.7323 10.4389C15.7325 9.96678 15.6373 9.49949 15.4523 9.06514C15.2737 8.62872 15.0088 8.23287 14.6735 7.90137C14.3556 7.55333 13.968 7.27607 13.536 7.08761C13.0983 6.90348 12.6283 6.80829 12.1535 6.8076H12.1272ZM14.1485 10.7452L13.9822 10.9114L12.801 12.0839C12.759 12.1286 12.7084 12.1643 12.6522 12.1889C12.5942 12.198 12.5352 12.198 12.4772 12.1889C12.3969 12.1843 12.3188 12.1603 12.2497 12.1189C12.1928 12.0838 12.1448 12.0359 12.1097 11.9789C12.0765 11.9259 12.0556 11.8661 12.0485 11.8039C12.035 11.7375 12.035 11.6691 12.0485 11.6027C12.075 11.5424 12.1104 11.4863 12.1535 11.4364L12.4072 11.1827L12.5122 11.0777L12.7922 10.7977H10.4297C10.3528 10.804 10.2757 10.7894 10.2064 10.7555C10.1371 10.7216 10.0782 10.6697 10.0359 10.6052C9.99312 10.5393 9.96616 10.4644 9.95719 10.3864C9.95682 10.3103 9.97483 10.2353 10.0097 10.1677C10.0422 10.0991 10.0939 10.0413 10.1584 10.0014C10.2225 9.95635 10.2989 9.93193 10.3772 9.9314H12.8097L12.171 9.30139C12.1183 9.24377 12.0794 9.17496 12.0572 9.10014C12.0312 9.02353 12.0312 8.94049 12.0572 8.86388C12.0755 8.78541 12.1184 8.71487 12.1797 8.66263C12.2333 8.60624 12.3041 8.5693 12.381 8.55763H12.486C12.5382 8.54943 12.5913 8.54943 12.6435 8.55763C12.6965 8.57939 12.7442 8.6122 12.7835 8.65388C12.836 8.65388 12.8797 8.75013 12.9235 8.79388L14.1398 10.0714C14.188 10.1133 14.2266 10.165 14.2531 10.2232C14.2796 10.2813 14.2933 10.3444 14.2933 10.4083C14.2933 10.4722 14.2796 10.5353 14.2531 10.5934C14.2266 10.6515 14.188 10.7033 14.1398 10.7452H14.1485Z" fill="#818181"/>
</svg>
