<svg width="16" height="14" viewBox="0 0 16 14" fill="none" xmlns="http://www.w3.org/2000/svg">
<path d="M11.5244 0H1.278C1.10683 0.00110092 0.93761 0.0363526 0.780245 0.103691C0.62288 0.171028 0.480536 0.269098 0.361557 0.392151C0.242578 0.515205 0.149357 0.660769 0.0873545 0.820311C0.0253518 0.979854 -0.0041841 1.15017 0.000477045 1.32127V12.8102L2.56426 10.2464H7.81435C7.85074 9.1322 8.31968 8.07597 9.12173 7.3017C9.92377 6.52742 10.9959 6.09597 12.1107 6.09884C12.3392 6.09849 12.5674 6.11604 12.7932 6.15134V1.32127C12.799 1.15059 12.7706 0.980474 12.7096 0.820972C12.6485 0.661471 12.5562 0.515826 12.4379 0.392645C12.3196 0.269465 12.1778 0.17125 12.0209 0.103809C11.864 0.0363681 11.6952 0.00106942 11.5244 0ZM5.95057 7.68262H3.20303C3.03362 7.68262 2.87114 7.61532 2.75135 7.49553C2.63156 7.37574 2.56426 7.21327 2.56426 7.04386C2.56426 6.87445 2.63156 6.71198 2.75135 6.59218C2.87114 6.47239 3.03362 6.4051 3.20303 6.4051H5.95057C6.11998 6.4051 6.28245 6.47239 6.40224 6.59218C6.52203 6.71198 6.58932 6.87445 6.58932 7.04386C6.58932 7.21327 6.52203 7.37574 6.40224 7.49553C6.28245 7.61532 6.11998 7.68262 5.95057 7.68262ZM9.60812 5.76634H3.20303C3.03362 5.76634 2.87114 5.69904 2.75135 5.57925C2.63156 5.45946 2.56426 5.29699 2.56426 5.12758C2.56309 5.04337 2.5788 4.95978 2.61049 4.88175C2.64217 4.80372 2.68918 4.73283 2.74873 4.67328C2.80828 4.61373 2.87916 4.56672 2.95719 4.53504C3.03522 4.50336 3.11882 4.48764 3.20303 4.48882H9.60812C9.77753 4.48882 9.94 4.55612 10.0598 4.67591C10.1796 4.7957 10.2469 4.95817 10.2469 5.12758C10.2425 5.29559 10.1737 5.4555 10.0549 5.57435C9.93605 5.69319 9.77614 5.76191 9.60812 5.76634ZM9.60812 3.84131H3.20303C3.03362 3.84131 2.87114 3.77401 2.75135 3.65422C2.63156 3.53443 2.56426 3.37196 2.56426 3.20255C2.56426 3.03314 2.63156 2.87067 2.75135 2.75088C2.87114 2.63109 3.03362 2.56379 3.20303 2.56379H9.60812C9.77753 2.56379 9.94 2.63109 10.0598 2.75088C10.1796 2.87067 10.2469 3.03314 10.2469 3.20255C10.2469 3.37196 10.1796 3.53443 10.0598 3.65422C9.94 3.77401 9.77753 3.84131 9.60812 3.84131ZM12.1194 6.8076C11.5896 6.81336 11.0677 6.9361 10.5908 7.16706C10.114 7.39801 9.69409 7.73146 9.36113 8.14358C9.02816 8.55569 8.79037 9.03629 8.66474 9.55099C8.53912 10.0657 8.52878 10.6018 8.63445 11.121C8.74012 11.6401 8.9592 12.1296 9.27602 12.5542C9.59284 12.9789 9.99957 13.3283 10.4671 13.5774C10.9347 13.8266 11.4515 13.9694 11.9807 13.9956C12.5099 14.0218 13.0383 13.9307 13.5282 13.729C14.3902 13.3658 15.0774 12.6818 15.4445 11.8214C15.6286 11.3837 15.7238 10.9138 15.7245 10.4389C15.7247 9.96678 15.6295 9.49949 15.4445 9.06514C15.2659 8.62872 15.001 8.23287 14.6657 7.90137C14.3478 7.55333 13.9602 7.27607 13.5282 7.08761C13.0905 6.90348 12.6205 6.80829 12.1457 6.8076H12.1194ZM14.1407 10.7452L13.9744 10.9114L12.7932 12.0839C12.7512 12.1286 12.7006 12.1643 12.6444 12.1889C12.5864 12.198 12.5274 12.198 12.4694 12.1889C12.389 12.1843 12.311 12.1603 12.2419 12.1189C12.185 12.0838 12.137 12.0359 12.1019 11.9789C12.0687 11.9259 12.0478 11.8661 12.0407 11.8039C12.0272 11.7375 12.0272 11.6691 12.0407 11.6027C12.0672 11.5424 12.1026 11.4863 12.1457 11.4364L12.3994 11.1827L12.5044 11.0777L12.7844 10.7977H10.4219C10.345 10.804 10.2678 10.7894 10.1985 10.7555C10.1292 10.7216 10.0704 10.6697 10.0281 10.6052C9.9853 10.5393 9.95835 10.4644 9.94938 10.3864C9.94901 10.3103 9.96702 10.2353 10.0019 10.1677C10.0344 10.0991 10.0861 10.0413 10.1506 10.0014C10.2147 9.95635 10.291 9.93193 10.3694 9.9314H12.8019L12.1632 9.30139C12.1105 9.24377 12.0716 9.17496 12.0494 9.10014C12.0234 9.02353 12.0234 8.94049 12.0494 8.86388C12.0676 8.78541 12.1106 8.71487 12.1719 8.66263C12.2255 8.60624 12.2963 8.5693 12.3732 8.55763H12.4782C12.5303 8.54943 12.5835 8.54943 12.6357 8.55763C12.6887 8.57939 12.7364 8.6122 12.7757 8.65388C12.8282 8.65388 12.8719 8.75013 12.9157 8.79388L14.1319 10.0714C14.1802 10.1133 14.2188 10.165 14.2453 10.2232C14.2718 10.2813 14.2855 10.3444 14.2855 10.4083C14.2855 10.4722 14.2718 10.5353 14.2453 10.5934C14.2188 10.6515 14.1802 10.7033 14.1319 10.7452H14.1407Z" fill="#2F3990"/>
</svg>
