<svg width="15" height="20" viewBox="0 0 15 20" fill="none" xmlns="http://www.w3.org/2000/svg">
<path d="M4.70991 8.19773C4.70991 10.5406 4.70499 12.8491 4.71976 15.1526C4.71976 15.2461 4.86742 15.3741 4.9757 15.4282C5.46299 15.6743 6.01426 15.8319 6.45232 16.1518C7.28415 16.7621 7.28415 17.7564 6.51139 18.4455C5.81738 19.0607 4.96094 19.2576 4.07496 19.3413C3.17423 19.4299 2.27841 19.3364 1.4515 18.9672C1.05774 18.79 0.67874 18.5341 0.378494 18.2289C-0.143245 17.7022 -0.10879 16.9442 0.378494 16.3831C0.816558 15.8761 1.40228 15.6104 2.03231 15.4627C2.33255 15.3938 2.37193 15.2609 2.36701 15C2.36209 11.3971 2.36209 7.79412 2.36209 4.19117C2.36209 3.19691 2.35716 2.20265 2.36701 1.20348C2.37193 0.593139 2.80507 0.100933 3.37603 0.0123356C3.93222 -0.0713395 4.49826 0.278127 4.66069 0.83432C4.71483 1.01151 4.70991 1.20348 4.73944 1.44466C4.86742 1.4545 5.01016 1.46927 5.15782 1.46927C6.4917 1.46927 7.8305 1.46927 9.16438 1.46927C9.73042 1.46927 9.84855 1.59232 9.85347 2.15343C9.85347 2.48321 9.85347 2.80807 9.85839 3.13785C9.85839 3.16246 9.86823 3.18707 9.88792 3.2609C10.0159 3.26582 10.1636 3.28059 10.3063 3.28059C11.6402 3.28059 12.979 3.28059 14.3129 3.28059C14.5836 3.28059 14.8641 3.28551 14.9724 3.60052C15.0758 3.89584 14.8691 4.06319 14.6771 4.23054C13.9339 4.87534 13.1956 5.52013 12.4572 6.16984C12.2899 6.3175 12.1225 6.46516 11.9306 6.63743C12.7821 7.38067 13.6041 8.09929 14.4261 8.81791C14.5688 8.94096 14.7411 9.04925 14.8395 9.20183C14.9281 9.33473 15.0118 9.5513 14.9576 9.66943C14.8986 9.80724 14.6869 9.886 14.5393 9.97952C14.5048 10.0041 14.4408 9.98444 14.3916 9.98444C12.7919 9.98444 11.1923 9.98444 9.5926 9.98444C9.11516 9.98444 8.96257 9.82693 8.95765 9.35441C8.95273 8.97542 8.95765 8.60134 8.95765 8.19773C7.53025 8.19773 6.14223 8.19773 4.70991 8.19773ZM8.9232 7.24777C8.9232 5.62841 8.9232 4.02382 8.9232 2.42415C8.86905 2.40938 8.8346 2.38477 8.80015 2.38477C7.53025 2.37985 6.26036 2.38477 4.99047 2.37493C4.72468 2.37493 4.72468 2.52259 4.72468 2.71455C4.7296 4.13703 4.72468 5.5595 4.7296 6.97706C4.7296 7.06073 4.74929 7.14441 4.75913 7.24777C6.14715 7.24777 7.52533 7.24777 8.9232 7.24777ZM13.3088 9.06893C13.1956 8.96557 13.1463 8.91143 13.0922 8.86713C12.408 8.27156 11.7239 7.67599 11.0446 7.0755C10.6705 6.7408 10.6804 6.51438 11.0594 6.17968C11.1234 6.12062 11.1923 6.06648 11.2612 6.00741C11.9207 5.43153 12.5803 4.85073 13.3038 4.2207C12.1078 4.2207 11.0003 4.2207 9.87316 4.2207C9.87316 5.85483 9.87316 7.4545 9.87316 9.06893C11.0151 9.06893 12.1176 9.06893 13.3088 9.06893ZM3.80425 9.0837C3.80425 6.50454 3.80425 3.92045 3.80425 1.34129C3.80425 1.14441 3.80425 0.908151 3.5483 0.937683C3.44002 0.95245 3.35634 1.18871 3.27267 1.33145C3.25298 1.37083 3.26775 1.42989 3.26775 1.47911C3.26775 6.52915 3.26775 11.5792 3.26775 16.6243C3.26775 16.7375 3.24314 16.8704 3.28743 16.959C3.33666 17.0525 3.46463 17.1559 3.55323 17.1559C3.6369 17.1559 3.74519 17.0279 3.78948 16.9344C3.82886 16.836 3.80425 16.7129 3.80425 16.5997C3.80425 14.0993 3.80425 11.594 3.80425 9.0837ZM2.36209 16.2896C2.09137 16.388 1.86496 16.452 1.65823 16.5554C1.32353 16.7227 0.924843 16.8852 0.934687 17.3331C0.944531 17.7515 1.32353 17.9287 1.65331 18.0763C2.62788 18.5144 3.64675 18.5833 4.67053 18.3224C5.1086 18.2092 5.53682 17.9976 5.92074 17.7564C6.23575 17.5595 6.25544 17.2248 6.0241 16.9738C5.68448 16.6046 5.23657 16.4225 4.70991 16.3191C4.70991 16.5554 4.71483 16.7424 4.70991 16.9295C4.69022 17.5989 4.2177 18.0763 3.57291 18.0911C2.91828 18.1009 2.39654 17.6186 2.36209 16.9541C2.35224 16.7572 2.36209 16.5554 2.36209 16.2896Z" fill="#2F3990"/>
</svg>
