<svg width="20" height="20" viewBox="0 0 20 20" fill="none" xmlns="http://www.w3.org/2000/svg">
<path d="M10 20C8.63333 20 7.34167 19.7373 6.125 19.212C4.90833 18.6873 3.846 17.9707 2.938 17.062C2.02933 16.154 1.31267 15.0917 0.788 13.875C0.262667 12.6583 0 11.3667 0 10C0 8.61667 0.270667 7.31667 0.812 6.1C1.354 4.88333 2.08767 3.825 3.013 2.925C3.93767 2.025 5.01667 1.31233 6.25 0.787C7.48333 0.262333 8.8 0 10.2 0C11.5333 0 12.7917 0.229333 13.975 0.688C15.1583 1.146 16.1957 1.77933 17.087 2.588C17.979 3.396 18.6873 4.35433 19.212 5.463C19.7373 6.571 20 7.76667 20 9.05C20 10.9667 19.4167 12.4373 18.25 13.462C17.0833 14.4873 15.6667 15 14 15H12.15C12 15 11.896 15.0417 11.838 15.125C11.7793 15.2083 11.75 15.3 11.75 15.4C11.75 15.6 11.875 15.8873 12.125 16.262C12.375 16.6373 12.5 17.0667 12.5 17.55C12.5 18.3833 12.2707 19 11.812 19.4C11.354 19.8 10.75 20 10 20ZM4.5 11C4.93333 11 5.29167 10.8583 5.575 10.575C5.85833 10.2917 6 9.93333 6 9.5C6 9.06667 5.85833 8.70833 5.575 8.425C5.29167 8.14167 4.93333 8 4.5 8C4.06667 8 3.70833 8.14167 3.425 8.425C3.14167 8.70833 3 9.06667 3 9.5C3 9.93333 3.14167 10.2917 3.425 10.575C3.70833 10.8583 4.06667 11 4.5 11ZM7.5 7C7.93333 7 8.29167 6.85833 8.575 6.575C8.85833 6.29167 9 5.93333 9 5.5C9 5.06667 8.85833 4.70833 8.575 4.425C8.29167 4.14167 7.93333 4 7.5 4C7.06667 4 6.70833 4.14167 6.425 4.425C6.14167 4.70833 6 5.06667 6 5.5C6 5.93333 6.14167 6.29167 6.425 6.575C6.70833 6.85833 7.06667 7 7.5 7ZM12.5 7C12.9333 7 13.2917 6.85833 13.575 6.575C13.8583 6.29167 14 5.93333 14 5.5C14 5.06667 13.8583 4.70833 13.575 4.425C13.2917 4.14167 12.9333 4 12.5 4C12.0667 4 11.7083 4.14167 11.425 4.425C11.1417 4.70833 11 5.06667 11 5.5C11 5.93333 11.1417 6.29167 11.425 6.575C11.7083 6.85833 12.0667 7 12.5 7ZM15.5 11C15.9333 11 16.2917 10.8583 16.575 10.575C16.8583 10.2917 17 9.93333 17 9.5C17 9.06667 16.8583 8.70833 16.575 8.425C16.2917 8.14167 15.9333 8 15.5 8C15.0667 8 14.7083 8.14167 14.425 8.425C14.1417 8.70833 14 9.06667 14 9.5C14 9.93333 14.1417 10.2917 14.425 10.575C14.7083 10.8583 15.0667 11 15.5 11ZM10 18C10.15 18 10.271 17.9583 10.363 17.875C10.4543 17.7917 10.5 17.6833 10.5 17.55C10.5 17.3167 10.375 17.0417 10.125 16.725C9.875 16.4083 9.75 15.9333 9.75 15.3C9.75 14.6 9.99167 14.0417 10.475 13.625C10.9583 13.2083 11.55 13 12.25 13H14C15.1 13 16.0417 12.679 16.825 12.037C17.6083 11.3957 18 10.4 18 9.05C18 7.03333 17.2293 5.354 15.688 4.012C14.146 2.67067 12.3167 2 10.2 2C7.93333 2 6 2.775 4.4 4.325C2.8 5.875 2 7.76667 2 10C2 12.2167 2.77933 14.1043 4.338 15.663C5.896 17.221 7.78333 18 10 18Z" fill="#818181"/>
</svg>
