<svg width="20" height="5" viewBox="0 0 20 5" fill="none" xmlns="http://www.w3.org/2000/svg">
<path d="M17.8409 4.98242C17.3487 5.04225 16.8503 4.94757 16.4119 4.71095C15.9735 4.47434 15.6159 4.10697 15.3863 3.65759C15.1568 3.20821 15.0663 2.69801 15.1268 2.19478C15.1873 1.69155 15.3959 1.21912 15.725 0.840003C16.0542 0.460885 16.4882 0.193102 16.9695 0.0721655C17.4509 -0.0487714 17.9568 -0.0171556 18.4202 0.162856C18.8836 0.342868 19.2825 0.662764 19.564 1.08007C19.8455 1.49737 19.9963 1.99233 19.9964 2.49935C20.0302 3.12044 19.8225 3.73005 19.4187 4.19518C19.0149 4.66032 18.4478 4.94327 17.8409 4.98242ZM10.2866 4.98242C9.7944 5.04245 9.29595 4.94791 8.85746 4.71144C8.41896 4.47497 8.06116 4.10778 7.83147 3.65844C7.60179 3.2091 7.51112 2.69891 7.57148 2.19563C7.63184 1.69235 7.8404 1.21971 8.16946 0.840487C8.49852 0.461267 8.93252 0.193442 9.41389 0.0724082C9.89526 -0.0486259 10.4012 -0.0171051 10.8647 0.162856C11.3281 0.342817 11.7271 0.662638 12.0086 1.07994C12.2902 1.49725 12.4411 1.99229 12.4412 2.49935C12.4752 3.12035 12.2678 3.72989 11.8642 4.19506C11.4605 4.66023 10.8934 4.94327 10.2866 4.98242ZM2.73233 4.98242C2.24013 5.04225 1.74179 4.94757 1.30341 4.71095C0.865034 4.47434 0.507374 4.10697 0.277845 3.65759C0.048316 3.20821 -0.0422209 2.69801 0.0182682 2.19478C0.0787573 1.69155 0.287424 1.21912 0.61654 0.840003C0.945656 0.460885 1.37967 0.193102 1.86103 0.0721655C2.34238 -0.0487714 2.84832 -0.0171556 3.31169 0.162856C3.77507 0.342868 4.17397 0.662764 4.45549 1.08007C4.73701 1.49737 4.88783 1.99233 4.88794 2.49935C4.92195 3.12051 4.71437 3.73023 4.31053 4.19543C3.90669 4.66062 3.33934 4.94353 2.73233 4.98242Z" fill="#CFCFCF"/>
</svg>
