<svg width="34" height="34" viewBox="0 0 34 34" fill="none" xmlns="http://www.w3.org/2000/svg">
<path d="M17 33C25.8366 33 33 25.8366 33 17C33 8.16344 25.8366 1 17 1C8.16344 1 1 8.16344 1 17C1 25.8366 8.16344 33 17 33Z" fill="#DFE1E6" stroke="#959595" stroke-width="2"/>
<path d="M19.4545 16.5C21.2627 16.5 22.7273 15.0456 22.7273 13.25C22.7273 11.4544 21.2627 10 19.4545 10C17.6464 10 16.1818 11.4544 16.1818 13.25C16.1818 15.0456 17.6464 16.5 19.4545 16.5ZM12.0909 14.875V13.25C12.0909 12.8031 11.7227 12.4375 11.2727 12.4375C10.8227 12.4375 10.4545 12.8031 10.4545 13.25V14.875H8.81818C8.36818 14.875 8 15.2406 8 15.6875C8 16.1344 8.36818 16.5 8.81818 16.5H10.4545V18.125C10.4545 18.5719 10.8227 18.9375 11.2727 18.9375C11.7227 18.9375 12.0909 18.5719 12.0909 18.125V16.5H13.7273C14.1773 16.5 14.5455 16.1344 14.5455 15.6875C14.5455 15.2406 14.1773 14.875 13.7273 14.875H12.0909ZM19.4545 18.125C17.27 18.125 12.9091 19.2137 12.9091 21.375V22.1875C12.9091 22.6344 13.2773 23 13.7273 23H25.1818C25.6318 23 26 22.6344 26 22.1875V21.375C26 19.2137 21.6391 18.125 19.4545 18.125Z" fill="#535358"/>
</svg>
