<svg width="15" height="16" viewBox="0 0 15 16" fill="none" xmlns="http://www.w3.org/2000/svg">
<path d="M2.98313 16C2.82614 16.0007 2.67459 15.9423 2.55833 15.8364C2.44207 15.7305 2.36949 15.5847 2.35497 15.4278L1.31344 3.6553H0V2.40267H4.39121V1.04464C4.39295 0.766487 4.50443 0.500364 4.70123 0.304562C4.89804 0.108759 5.16412 -0.000745706 5.44121 6.81196e-06H9.55879C9.83595 -0.000994448 10.1021 0.108419 10.299 0.304274C10.4959 0.50013 10.6073 0.76641 10.6088 1.04464V2.40267H15V3.6553H13.665L12.6234 15.4278C12.6091 15.5848 12.5367 15.7307 12.4204 15.8366C12.3041 15.9426 12.1524 16.0009 11.9954 16H2.98313ZM3.5606 14.7474H11.4188L12.4013 3.6553H2.57812L3.5606 14.7474ZM9.34879 2.40267V1.25447H5.65121V2.40267H9.34879ZM9.03374 12.8849L9.30748 5.46976L10.5675 5.51588L10.2937 12.93L9.03374 12.8849ZM4.43253 5.51588L5.69252 5.46976L5.96626 12.8849L4.70627 12.931L4.43253 5.51588ZM6.87 12.9131V5.4971H8.12622V12.9131H6.87Z" fill="#FF0000"/>
</svg>
