<svg width="21" height="20" viewBox="0 0 21 20" fill="none" xmlns="http://www.w3.org/2000/svg">
<path d="M1.08108 18.0541V6.24324C0.792793 6.0991 0.54054 5.8782 0.324324 5.58054C0.108108 5.2836 0 4.93694 0 4.54054V1.94595C0 1.40541 0.189189 0.945946 0.567568 0.567568C0.945946 0.189189 1.40541 0 1.94595 0H18.5946C19.1351 0 19.5946 0.189189 19.973 0.567568C20.3514 0.945946 20.5405 1.40541 20.5405 1.94595V4.54054C20.5405 4.93694 20.4324 5.2836 20.2162 5.58054C20 5.8782 19.7477 6.0991 19.4595 6.24324V18.0541C19.4595 18.5946 19.2703 19.0541 18.8919 19.4324C18.5135 19.8108 18.0541 20 17.5135 20H3.02703C2.48649 20 2.02703 19.8108 1.64865 19.4324C1.27027 19.0541 1.08108 18.5946 1.08108 18.0541ZM2.7027 6.48649V18.0541C2.7027 18.1441 2.73441 18.2209 2.79784 18.2843C2.86054 18.347 2.93694 18.3784 3.02703 18.3784H17.5135C17.6036 18.3784 17.6804 18.347 17.7438 18.2843C17.8065 18.2209 17.8378 18.1441 17.8378 18.0541V6.48649H2.7027ZM18.5946 4.86486C18.6847 4.86486 18.7614 4.83315 18.8249 4.76973C18.8876 4.70703 18.9189 4.63063 18.9189 4.54054V1.94595C18.9189 1.85586 18.8876 1.7791 18.8249 1.71568C18.7614 1.65297 18.6847 1.62162 18.5946 1.62162H1.94595C1.85586 1.62162 1.77946 1.65297 1.71676 1.71568C1.65333 1.7791 1.62162 1.85586 1.62162 1.94595V4.54054C1.62162 4.63063 1.65333 4.70703 1.71676 4.76973C1.77946 4.83315 1.85586 4.86486 1.94595 4.86486H18.5946ZM7.24324 11.5676H13.2973V9.94595H7.24324V11.5676Z" fill="#818181"/>
</svg>
