<svg width="20" height="20" viewBox="0 0 20 20" fill="none" xmlns="http://www.w3.org/2000/svg">
<path d="M2.47858 20C1.81849 19.9961 1.18694 19.7306 0.722311 19.2618C0.257681 18.7929 -0.00211638 18.1589 1.2987e-05 17.4988V5.83267C-0.00211638 5.17257 0.257681 4.53852 0.722311 4.06964C1.18694 3.60076 1.81849 3.33527 2.47858 3.33139H9.09026C9.31127 3.33139 9.52316 3.41917 9.67943 3.57544C9.8357 3.73172 9.92356 3.94369 9.92356 4.16469C9.92356 4.38569 9.8357 4.59766 9.67943 4.75394C9.52316 4.91021 9.31127 4.99799 9.09026 4.99799H2.47858C2.25875 4.9994 2.04851 5.08795 1.89381 5.24415C1.73911 5.40035 1.65255 5.61144 1.65326 5.83128V17.4974C1.6522 17.7175 1.73858 17.929 1.89332 18.0855C2.04806 18.242 2.25851 18.3307 2.47858 18.3321H14.0474C14.1565 18.3316 14.2644 18.3096 14.3649 18.2673C14.4655 18.2251 14.5569 18.1634 14.6336 18.0859C14.7104 18.0084 14.7711 17.9166 14.8123 17.8156C14.8536 17.7146 14.8745 17.6065 14.874 17.4974V10.8311C14.874 10.6118 14.9612 10.4016 15.1162 10.2465C15.2712 10.0915 15.4814 10.0044 15.7006 10.0044C15.9199 10.0044 16.1301 10.0915 16.2851 10.2465C16.4401 10.4016 16.5273 10.6118 16.5273 10.8311V17.4974C16.5294 18.1578 16.2696 18.7919 15.8046 19.2609C15.3397 19.7298 14.7077 19.9952 14.0474 19.9987L2.47858 20ZM7.16375 12.7763C7.11545 12.7275 7.07984 12.6676 7.06008 12.6018C7.04032 12.536 7.03691 12.4664 7.05032 12.399L7.63427 9.45246C7.65123 9.3725 7.69064 9.29899 7.74771 9.24047L14.2808 2.64742L17.2032 5.59399L10.6703 12.187C10.6134 12.2459 10.5398 12.2859 10.4595 12.3017L7.53841 12.891C7.51167 12.8966 7.48435 12.8992 7.45704 12.899C7.34774 12.8982 7.24321 12.854 7.16636 12.7763H7.16375ZM15.1634 1.76351L16.3072 0.610161C16.4982 0.416868 16.7257 0.263425 16.9765 0.158684C17.2272 0.0539433 17.4962 0 17.7679 0C18.0397 0 18.3087 0.0539433 18.5594 0.158684C18.8101 0.263425 19.0375 0.416868 19.2285 0.610161C19.6161 1.00226 19.8336 1.53146 19.8336 2.08283C19.8336 2.6342 19.6161 3.16333 19.2285 3.55542L18.0845 4.70999L15.1634 1.76351Z" fill="#818181"/>
</svg>
