<svg width="22" height="15" viewBox="0 0 22 15" fill="none" xmlns="http://www.w3.org/2000/svg">
<path fill-rule="evenodd" clip-rule="evenodd" d="M4.501 3.14894C4.34366 3.01478 4.14014 2.81127 4.14014 2.61687C4.14014 2.61687 3.3677 2.56595 3.29359 1.98315C3.29359 1.98315 2.79858 1.9231 2.71079 1.36805C2.71079 1.36805 2.25284 1.308 2.0957 0.734322C2.0957 0.734322 1.78577 0.646536 1.65161 0.276367C1.65161 0.276367 4.60741 0.664965 5.54631 0.785052C6.48065 0.910093 8.752 1.22914 9.21451 1.40946C9.46895 1.51132 9.63085 1.61773 9.74182 1.72871C9.79275 1.94153 9.84824 2.1498 9.93146 2.34856C9.81413 2.29197 9.68968 2.25151 9.56149 2.22828C9.21907 2.16803 8.90003 2.24215 8.56691 2.30239C8.08597 2.39493 5.19021 3.00567 4.501 3.14894Z" fill="#3845B3"/>
<path fill-rule="evenodd" clip-rule="evenodd" d="M4.66278 14.4729C4.66278 14.4729 4.49157 14.9861 3.83941 15L4.1862 14.1443C4.1862 14.1443 4.46363 14.1582 4.55637 14.1398C4.55637 14.1398 4.5748 14.0286 4.52842 13.9781C4.48225 13.9224 4.43133 13.7977 4.69964 13.386C4.69964 13.386 4.56548 13.3535 4.3804 13.5062C4.20007 13.6588 3.8299 13.881 3.5709 13.7327L4.11208 12.9417C4.11208 12.9417 4.33423 13.1824 4.46363 13.0205C4.58847 12.863 4.44975 12.803 4.44975 12.803C4.44975 12.803 4.61621 12.5995 4.79654 12.4697C4.98163 12.345 5.07417 12.234 5.11578 11.9425C5.15284 11.6465 5.16195 11.5771 5.16671 11.4289C5.17602 11.2811 5.21764 11.221 5.37022 11.0914C5.52281 10.9571 5.52281 10.8277 5.54599 10.6703C5.56442 10.5084 5.53668 10.4345 5.83274 10.3929C6.12879 10.3513 6.47122 10.2865 6.3971 9.75462C6.32299 9.22255 6.30932 8.38531 6.31863 8.12631C6.32319 7.87187 6.24452 7.88118 6.05032 7.96917C5.85612 8.0524 5.09279 8.5381 4.85242 8.68612C4.61185 8.83415 4.1216 9.06085 3.58021 9.21799C3.04359 9.37078 2.87713 9.47699 2.83552 9.79623C2.79846 10.1107 3.01129 10.2635 3.01129 10.2635C3.01129 10.2635 3.10383 10.379 2.9235 10.3929C2.74317 10.4068 1.77633 10.4993 1.79476 9.59252C1.81339 8.68592 2.73386 8.2141 3.91788 8.04289C5.10211 7.86711 5.65716 7.73296 6.12443 7.5017C6.58694 7.275 6.85982 6.71539 7.25297 6.46095C7.64157 6.20651 7.90532 6.09078 8.60365 5.94295C8.60365 5.94295 9.00612 6.24832 9.65828 6.23425C10.3059 6.22038 10.9903 6.04005 11.0829 6.01231C11.18 5.98456 11.2404 5.96594 11.2172 5.89658C11.1986 5.83178 11.1526 5.82267 11.0369 5.85497C10.9212 5.89202 10.2365 6.06324 9.68622 6.06324C9.12641 6.06324 8.77031 5.89658 8.65458 5.79037C8.65458 5.79037 7.52128 6.04936 7.06333 6.13715C6.60537 6.22514 5.38429 6.41458 4.80605 6.01231C4.80605 6.01231 4.03361 6.24812 3.51542 5.74399C3.51542 5.74399 2.66886 5.95682 2.34506 5.4525C2.34506 5.4525 1.69291 5.55415 1.45709 5.05478C1.45709 5.05478 0.818612 5.17963 0.666027 4.71236C0.666027 4.71236 0.217385 4.7078 0 4.3192C0 4.3192 2.96036 3.66705 4.34354 3.36643C4.36021 3.37099 4.3778 3.37099 4.39447 3.36643C4.39447 3.36643 8.04879 2.59379 8.59929 2.49214C9.21003 2.38572 9.68166 2.31161 10.0841 2.67722L10.1026 2.69565C10.2181 2.80682 10.3293 2.95009 10.4357 3.14449C11.0046 4.16206 11.4485 5.05498 12.8778 4.67094C13.0029 4.63388 12.9521 4.4488 12.8271 4.4813C12.2675 4.63388 11.8789 4.56908 11.5735 4.37013L12.3089 4.21754C12.4339 4.1898 12.3967 4.00016 12.2675 4.0277L11.3793 4.21279C11.2909 4.1295 11.2104 4.03814 11.139 3.93992L11.8557 3.79645C11.9807 3.7687 11.9435 3.58382 11.8143 3.6068L11.0185 3.7687C10.9584 3.67616 10.9027 3.57906 10.8427 3.47721L11.5367 3.32918C11.6613 3.30143 11.6199 3.11179 11.4949 3.13954L10.7456 3.30143L10.6067 3.04699L10.5881 3.01925L11.2775 2.88965C11.4071 2.86666 11.37 2.67702 11.2454 2.70001L10.4775 2.84348C10.4117 2.7489 10.3374 2.66061 10.2553 2.57972L11 2.43645C11.1296 2.41327 11.0926 2.22362 10.9675 2.24661L10.1582 2.40395C10.1166 2.3021 10.075 2.19568 10.0427 2.08947L10.8891 1.93233C11.0187 1.90914 10.9816 1.7195 10.857 1.74248L9.98723 1.90438C9.96404 1.82115 9.94105 1.74248 9.92243 1.65926V1.59446L10.8245 1.41413C10.9495 1.39114 10.9123 1.2015 10.7827 1.22449L9.93174 1.39114C9.94561 1.15513 9.98723 0.872944 10.0798 0.595318C10.5377 0.822016 10.8891 0.826574 10.9031 0.826574C11.0327 0.831132 11.0375 0.636932 10.9077 0.636932C10.6441 0.618503 10.2185 0.461161 9.96404 0.294506C9.96404 0.294506 11.1665 -0.181879 11.4859 0.0771205C11.4859 0.0771205 12.078 0.0957486 12.2956 0.0400647C12.5128 -0.0108633 12.6931 -0.029293 12.7809 0.100306C12.7809 0.100306 14.1734 0.155791 14.4788 0.128048C14.7838 0.100306 14.8949 0.0771207 14.8674 0.317691C14.8674 0.317691 15.0939 0.502776 14.9966 0.632176C14.9041 0.761577 14.7192 0.664675 14.5295 0.683104C14.3399 0.701533 14.1409 0.752461 14.2196 0.891175C14.2983 1.02989 14.391 0.872746 14.5668 0.854119C14.7378 0.840247 14.8583 0.830934 14.8583 0.969648C14.8583 1.10836 14.7978 1.10836 14.6686 1.10836C14.539 1.10836 14.4511 1.21022 14.3401 1.16841C14.2289 1.12679 13.7573 1.12679 13.1884 1.57563C13.1884 1.57563 12.9987 1.69572 13.2022 1.86237C13.4105 2.02427 13.5076 2.11226 14.3819 2.76441C15.1543 3.3379 15.4133 4.17533 15.4551 4.60535L14.9784 4.55442C14.8026 3.44887 13.8683 2.48223 12.8554 2.07976C12.7352 2.03359 12.6658 2.21391 12.7857 2.26009C13.7157 2.63026 14.5989 3.52754 14.7796 4.53599L14.7239 4.53143C14.5943 4.51756 14.5761 4.7072 14.7007 4.72108L15.7094 4.82273C15.8158 4.88753 15.9222 5.00782 15.9591 5.24383C16.0469 5.75252 16.0237 5.98853 16.1951 6.27547C16.1951 6.27547 17.3052 5.80364 17.6338 5.60469C17.9619 5.40593 18.1563 5.43367 18.3971 5.65106C18.6374 5.86844 18.6654 5.95167 18.6143 6.13675C18.5635 6.31728 18.4851 6.48374 18.8132 6.38664C19.1418 6.28954 19.3082 6.49305 19.4008 6.75205C19.4979 7.01105 20.1732 8.22302 20.6405 8.58843C20.6405 8.58843 20.904 8.71783 20.9272 8.95384C20.9552 9.1851 21.0429 9.25465 21.1725 9.3793C21.3018 9.49958 21.3897 9.55051 21.51 10.1565C21.51 10.1565 20.8765 9.82814 20.5989 9.66148C20.5989 9.66148 20.6589 9.53188 20.6867 9.44866C20.7094 9.36067 20.7374 9.1849 20.5016 9.20353C20.2701 9.22196 20.3302 9.22196 20.219 9.03231C20.1037 8.83811 19.7844 8.28286 19.5948 7.9545C19.4006 7.62615 18.9101 6.8442 18.6234 6.98311C18.3366 7.12182 18.3878 7.35783 18.258 7.9222C18.1284 8.48657 18.1561 8.47726 17.9897 8.64847C17.8232 8.82424 17.675 9.14348 17.416 9.21284C17.157 9.2822 16.847 9.36087 16.8007 9.36087L17.1385 8.71783C17.1385 8.71783 17.1661 8.5375 17.3742 8.60666C17.5824 8.67622 17.6242 8.58823 17.5638 8.45863C17.5038 8.32903 17.6242 8.29217 17.7027 8.20875C17.7812 8.12096 17.9296 7.76466 17.9524 7.56571C17.9803 7.36695 17.9897 7.38994 17.8091 7.44562C17.624 7.49655 15.6305 8.05161 15.51 8.13008C15.51 8.13008 15.1446 7.80172 14.9132 7.65369C14.6776 7.50567 14.6867 7.60752 14.6682 7.65369C14.6496 7.69531 14.8347 7.68619 15.1028 8.00068C15.1028 8.00068 14.5384 8.63916 12.9706 8.88409C11.4023 9.12466 10.5698 8.77767 10.0653 8.7961C9.56573 8.81473 9.35291 8.9257 9.57505 8.69445C9.57505 8.69445 9.85723 8.54642 9.8388 8.52799C9.82493 8.50956 9.66303 8.4402 9.515 8.54662C9.36698 8.64827 9.13572 8.86566 8.76099 9.60124C8.39082 10.3414 8.31215 10.5126 7.65068 10.878C6.99397 11.2339 6.44803 11.4794 6.17041 11.5672C5.89298 11.6504 5.62466 11.8262 5.46732 12.372C5.30998 12.9181 5.14808 13.6442 5.11103 13.8477C5.07912 14.0472 5.10211 14.2182 4.66278 14.4729Z" fill="#3845B3"/>
<path fill-rule="evenodd" clip-rule="evenodd" d="M2.93729 5.17518L6.64255 4.4396C6.77195 4.41641 6.80901 4.60606 6.68416 4.62944L2.97911 5.36482C2.84951 5.38801 2.81245 5.19837 2.93729 5.17518ZM4.13539 5.48055L7.23922 4.8607C7.36882 4.83751 7.40567 5.0226 7.28083 5.05034L4.177 5.67019C4.0474 5.69338 4.01035 5.50829 4.13539 5.48055ZM5.52313 5.74411L7.80814 5.31865C7.93299 5.29547 7.97004 5.48511 7.84064 5.50829L5.55562 5.93375C5.43058 5.95694 5.39353 5.76729 5.52313 5.74411ZM6.84606 3.29719L6.30488 3.4034C6.12911 3.4359 6.05044 3.792 6.50383 3.70877L7.43362 3.533C7.55846 3.50982 7.59552 3.69946 7.46612 3.72265L6.78146 3.85224C6.76759 3.91249 6.76759 3.97253 6.80009 4.02801C6.88332 4.1483 7.22554 4.05576 7.3274 4.03277L8.03048 3.90793C8.15533 3.88474 8.18783 4.07439 8.06279 4.09757L7.36446 4.22241C7.34583 4.28265 7.35059 4.35201 7.38289 4.4075C7.46156 4.5371 7.80398 4.4398 7.90108 4.41661L8.60872 4.28721C8.73357 4.26403 8.77062 4.45367 8.64103 4.47686L7.95161 4.60626C7.9425 4.64787 7.93319 4.71742 7.97004 4.78203C8.0396 4.88388 8.30316 4.8284 8.44187 4.80046C8.45574 4.79134 8.46961 4.78658 8.48804 4.78658L9.20044 4.65699C9.32528 4.6338 9.36234 4.82344 9.23274 4.84663L8.56216 4.97147C8.54828 5.01308 8.54373 5.08264 8.58059 5.14268C8.66381 5.26297 9.00604 5.17043 9.1079 5.14724L9.80167 5.0224C9.92651 4.99921 9.96357 5.18885 9.83397 5.21204L9.14476 5.33688C8.92261 5.38306 8.57127 5.48035 8.41849 5.24434C8.37817 5.174 8.35737 5.09416 8.35825 5.01308C8.15949 5.05014 7.92348 5.06381 7.80775 4.88349C7.76613 4.81413 7.7477 4.7307 7.7477 4.64292C7.5535 4.67997 7.32681 4.68453 7.22039 4.50876C7.17422 4.4392 7.15559 4.35142 7.16015 4.26363C6.96595 4.29613 6.74857 4.30069 6.6374 4.12947C6.59584 4.05641 6.57655 3.97279 6.58191 3.8889L6.53554 3.89822C5.8279 4.02762 5.85109 3.29224 6.27198 3.21356L6.80405 3.10715C6.93385 3.08436 6.97091 3.274 6.84606 3.29719ZM15.8615 6.80349C15.8615 6.80349 17.1983 6.53518 17.513 6.49356C17.8045 6.45651 17.8138 6.37328 17.8138 6.2948C17.8138 6.16521 18.0034 6.16521 18.0034 6.2948C18.0034 6.50763 17.8832 6.63723 17.5364 6.6832C17.2217 6.72482 15.9035 6.99313 15.9035 6.99313C15.7735 6.99769 15.7369 6.83123 15.8615 6.80349ZM2.85862 0.822527L9.05241 1.74755C9.17725 1.76618 9.14951 1.95582 9.01991 1.9372L2.82612 1.01217C2.70148 0.993542 2.72922 0.8039 2.85862 0.822527ZM3.41843 1.39601L7.84976 2.07591C7.9746 2.09454 7.94706 2.28418 7.81746 2.26575L3.38594 1.58565C3.26109 1.56722 3.28883 1.37758 3.41843 1.39601ZM4.16769 2.00675L6.38335 2.37216C6.50819 2.39059 6.48045 2.58499 6.35085 2.56181L4.13519 2.19639C4.01035 2.17776 4.03829 1.98337 4.16769 2.00675ZM1.33673 4.49053L5.5368 3.64873C5.6664 3.62555 5.70345 3.81063 5.57841 3.83837L1.37854 4.68017C1.24894 4.70336 1.21664 4.51827 1.33673 4.49053ZM2.1926 4.81453L6.02269 4.0512C6.15209 4.02801 6.18915 4.21766 6.06431 4.24084L2.23421 5.00417C2.10461 5.02715 2.06775 4.83751 2.1926 4.81453ZM12.1424 0.424615C12.1424 0.424615 12.161 0.410744 12.1703 0.359816C12.221 0.124002 12.485 0.161059 12.5869 0.216346C12.6096 0.22566 12.6653 0.25796 12.6929 0.253402C12.8597 0.220903 12.8597 0.503088 12.619 0.438487C12.5775 0.424985 12.5372 0.407947 12.4987 0.387559C12.4154 0.341387 12.3647 0.383001 12.3602 0.40143C12.3415 0.489415 12.2724 0.619014 12.166 0.614258C12.0405 0.623571 12.0266 0.443045 12.1424 0.424615Z" fill="white"/>
</svg>
