<svg width="21" height="17" viewBox="0 0 21 17" fill="none" xmlns="http://www.w3.org/2000/svg">
<path d="M18.0084 5.9304C18.4668 6.27683 18.9482 6.5783 19.3541 6.96138C20.4275 7.97486 20.9589 9.25234 20.9917 10.738C21.0065 11.4042 20.9975 12.0705 20.995 12.7367C20.9926 13.198 20.8958 13.303 20.4423 13.3055C19.3631 13.3113 18.284 13.3071 17.1441 13.3071C17.1441 13.9234 17.1441 14.5147 17.1441 15.1059C17.1441 15.4249 17.1433 15.7447 17.1441 16.0636C17.1441 16.3543 17.0014 16.4992 16.716 16.5C16.634 16.5 16.552 16.5 16.47 16.5C12.492 16.5 8.51483 16.5 4.53682 16.5C3.88489 16.5 3.84963 16.4634 3.84963 15.7838C3.84963 14.981 3.84963 14.1774 3.84963 13.3305C3.6807 13.3213 3.53719 13.308 3.39286 13.308C2.46376 13.3063 1.53383 13.3096 0.604729 13.3055C0.0913845 13.3038 -0.0127605 13.2105 0.00118018 12.7075C0.0274214 11.7107 -0.0332615 10.6955 0.133207 9.72203C0.40792 8.11894 1.34522 6.93056 2.74749 6.13193C2.81884 6.09112 2.88936 6.04865 2.95906 6.00618C2.97054 5.99952 2.97956 5.98786 3.01155 5.95955C2.36043 5.24586 2.048 4.40892 2.11606 3.42707C2.27105 1.17191 4.79595 -0.212163 6.74109 0.897096C6.94692 1.01452 7.13307 1.14943 7.00268 1.41508C6.86327 1.69906 6.63366 1.63244 6.40487 1.52085C5.4405 1.04866 4.51714 1.11445 3.68152 1.80565C2.8008 2.5335 2.5556 3.75269 3.04353 4.7845C3.51669 5.78549 4.61144 6.34845 5.70128 6.15025C5.74146 6.14276 5.78 6.12777 5.82018 6.11777C6.05717 6.05781 6.27694 6.0778 6.34337 6.35761C6.41799 6.6724 6.1892 6.76484 5.94729 6.82064C5.27157 6.9772 4.62374 6.89142 3.98083 6.63243C3.80452 6.56164 3.54539 6.54665 3.38056 6.62577C1.78067 7.39525 0.868782 8.67856 0.730195 10.4799C0.678533 11.1552 0.721995 11.8381 0.721995 12.5518H3.88325C4.03332 11.3826 4.42447 10.3016 5.11249 9.34062C5.7923 8.39042 6.6722 7.68256 7.70791 7.16874C6.24824 4.91774 6.35649 2.87078 7.99247 1.45089C9.46362 0.174245 11.6121 0.195898 13.057 1.50252C14.6553 2.94822 14.743 4.99769 13.2858 7.15708C15.4753 8.28466 16.7612 10.0835 17.1138 12.5676H20.2496C20.4366 10.4291 20.2857 8.43039 18.3717 7.04965C18.238 6.95305 18.097 6.86894 17.9568 6.7815C17.5951 6.55748 17.2524 6.45921 16.8202 6.68156C16.2839 6.95721 15.6853 6.95971 15.0948 6.83063C14.8447 6.77567 14.5749 6.70571 14.6487 6.36677C14.7217 6.03283 14.9825 6.08113 15.2433 6.1336C16.557 6.39675 17.8362 5.57064 18.1224 4.284C18.4185 2.95405 17.673 1.67075 16.3839 1.31265C15.7664 1.1411 15.1719 1.22854 14.5905 1.50502C14.4437 1.57498 14.2043 1.5858 14.0706 1.51002C13.8443 1.38177 13.9255 1.09446 14.2075 0.920413C16.0715 -0.231317 18.671 1.11778 18.8703 3.33463C18.9613 4.34812 18.662 5.21837 18.0084 5.9304ZM16.4208 15.7622C16.4208 14.7861 16.4823 13.8276 16.4085 12.8799C16.2248 10.5257 15.0317 8.84678 12.9504 7.80498C12.7323 7.69588 12.5658 7.69922 12.3493 7.8233C11.2833 8.43206 10.127 8.5753 9.05606 7.99735C8.36804 7.62593 7.9121 7.83829 7.38974 8.1689C7.12404 8.33712 6.86655 8.52367 6.6271 8.7277C4.41955 10.6081 4.42857 13.1506 4.58684 15.7622H16.4208ZM10.4895 7.60345C12.2403 7.60594 13.6376 6.18856 13.6352 4.41225C13.6327 2.63593 12.228 1.21688 10.4813 1.22604C8.74854 1.2352 7.36514 2.63926 7.35612 4.39892C7.34628 6.17523 8.73952 7.60012 10.4895 7.60261V7.60345Z" fill="#3845B3"/>
</svg>
