<svg width="8" height="13" viewBox="0 0 8 13" fill="none" xmlns="http://www.w3.org/2000/svg">
<path d="M1.08333 2.16667C1.68164 2.16667 2.16667 1.68164 2.16667 1.08333C2.16667 0.485025 1.68164 0 1.08333 0C0.485025 0 0 0.485025 0 1.08333C0 1.68164 0.485025 2.16667 1.08333 2.16667Z" fill="#959595"/>
<path d="M6.5 2.16667C7.09831 2.16667 7.58333 1.68164 7.58333 1.08333C7.58333 0.485025 7.09831 0 6.5 0C5.90169 0 5.41667 0.485025 5.41667 1.08333C5.41667 1.68164 5.90169 2.16667 6.5 2.16667Z" fill="#959595"/>
<path d="M1.08333 7.58268C1.68164 7.58268 2.16667 7.09766 2.16667 6.49935C2.16667 5.90104 1.68164 5.41602 1.08333 5.41602C0.485025 5.41602 0 5.90104 0 6.49935C0 7.09766 0.485025 7.58268 1.08333 7.58268Z" fill="#959595"/>
<path d="M6.5 7.58268C7.09831 7.58268 7.58333 7.09766 7.58333 6.49935C7.58333 5.90104 7.09831 5.41602 6.5 5.41602C5.90169 5.41602 5.41667 5.90104 5.41667 6.49935C5.41667 7.09766 5.90169 7.58268 6.5 7.58268Z" fill="#959595"/>
<path d="M2.16667 11.9173C2.16667 12.5156 1.68164 13.0007 1.08333 13.0007C0.485025 13.0007 0 12.5156 0 11.9173C0 11.319 0.485025 10.834 1.08333 10.834C1.68164 10.834 2.16667 11.319 2.16667 11.9173Z" fill="#959595"/>
<path d="M7.58333 11.9173C7.58333 12.5156 7.09831 13.0007 6.5 13.0007C5.90169 13.0007 5.41667 12.5156 5.41667 11.9173C5.41667 11.319 5.90169 10.834 6.5 10.834C7.09831 10.834 7.58333 11.319 7.58333 11.9173Z" fill="#959595"/>
</svg>
