<svg width="21" height="22" viewBox="0 0 21 22" fill="none" xmlns="http://www.w3.org/2000/svg">
<path d="M5.73438 7C7.39123 7 8.73438 5.65685 8.73438 4C8.73438 2.34315 7.39123 1 5.73438 1C4.07752 1 2.73438 2.34315 2.73438 4C2.73438 5.65685 4.07752 7 5.73438 7Z" stroke="#959595" stroke-width="1.5"/>
<path d="M8.73444 11H4.63244C3.90136 11.0002 3.19551 11.2674 2.64752 11.7513C2.09952 12.2352 1.74709 12.9026 1.65644 13.628L1.01544 18.752C0.980267 19.0334 1.00536 19.3191 1.08904 19.5901C1.17272 19.8611 1.31309 20.1112 1.50081 20.3238C1.68854 20.5364 1.91933 20.7066 2.17788 20.8232C2.43643 20.9398 2.71682 21.0001 3.00044 21H7.73444M19.4534 18.752L18.8134 13.628C18.7227 12.9022 18.37 12.2346 17.8216 11.7506C17.2732 11.2667 16.5669 10.9997 15.8354 11H13.6314C12.9004 11.0002 12.1945 11.2674 11.6465 11.7513C11.0985 12.2352 10.7461 12.9026 10.6554 13.628L10.0144 18.752C9.97926 19.0335 10.0044 19.3193 10.0881 19.5903C10.1719 19.8614 10.3123 20.1116 10.5001 20.3242C10.688 20.5368 10.9189 20.707 11.1776 20.8235C11.4362 20.94 11.7167 21.0002 12.0004 21H17.4684C17.7521 21.0001 18.0324 20.9398 18.291 20.8232C18.5495 20.7066 18.7803 20.5364 18.9681 20.3238C19.1558 20.1112 19.2961 19.8611 19.3798 19.5901C19.4635 19.3191 19.4886 19.0334 19.4534 18.752Z" stroke="#959595" stroke-width="1.5" stroke-linecap="round" stroke-linejoin="round"/>
<path d="M14.7344 7C16.3912 7 17.7344 5.65685 17.7344 4C17.7344 2.34315 16.3912 1 14.7344 1C13.0775 1 11.7344 2.34315 11.7344 4C11.7344 5.65685 13.0775 7 14.7344 7Z" stroke="#959595" stroke-width="1.5"/>
</svg>
