<svg width="40" height="39" viewBox="0 0 40 39" fill="none" xmlns="http://www.w3.org/2000/svg">
<path d="M24.4989 -4.99902L46.072 14.3814L35.9997 38.5001L3.5001 3.99868L24.4989 -4.99902Z" fill="#1CB303"/>
<path d="M24.75 10.5164L19.9988 15.8051L19.2942 15.1721L20.2962 8.70107L16.6317 12.7802L15.9306 12.1504L20.6818 6.86172L21.3828 7.49151L20.3819 13.9832L24.0562 9.89318L24.75 10.5164ZM22.705 18.3675C22.4314 18.1217 22.2245 17.8527 22.0844 17.5606C21.9489 17.2681 21.8774 16.9654 21.8698 16.6523C21.8647 16.3414 21.9242 16.0316 22.0483 15.723C22.1724 15.4144 22.3584 15.1221 22.6064 14.846L22.7434 14.6935C23.0306 14.3738 23.3334 14.1317 23.6519 13.9671C23.9726 13.8001 24.2924 13.7023 24.6113 13.6737C24.9302 13.6452 25.2328 13.6785 25.5191 13.7738C25.8054 13.8691 26.0587 14.0158 26.2791 14.2137C26.56 14.4661 26.7587 14.7321 26.875 15.0117C26.9939 15.2934 27.0403 15.5802 27.0145 15.8721C26.9908 16.1615 26.9049 16.4519 26.7568 16.7433C26.611 17.0324 26.414 17.3149 26.166 17.591L25.8952 17.8925L22.9603 15.2558L23.453 14.7074L25.7159 16.7403L25.7616 16.6894C25.9086 16.5064 26.0245 16.3042 26.1095 16.083C26.1969 15.864 26.2218 15.6413 26.1844 15.4151C26.1469 15.1889 26.0132 14.9725 25.7831 14.7659C25.6306 14.6288 25.4607 14.5353 25.2737 14.4854C25.0888 14.4331 24.8937 14.4285 24.6886 14.4718C24.4834 14.515 24.2739 14.6046 24.0599 14.7406C23.8459 14.8765 23.6323 15.0631 23.4191 15.3004L23.282 15.453C23.1145 15.6394 22.9822 15.8378 22.8851 16.0482C22.7927 16.2583 22.7406 16.4697 22.7289 16.6824C22.7197 16.8973 22.7549 17.104 22.8347 17.3026C22.9169 17.5033 23.0501 17.6863 23.2341 17.8517C23.4714 18.0649 23.7159 18.197 23.9676 18.2481C24.2193 18.2991 24.4797 18.299 24.749 18.2477L24.8654 18.9365C24.6653 18.9887 24.4477 19.0141 24.2125 19.0129C23.9774 19.0117 23.7315 18.9614 23.4749 18.8622C23.2208 18.7652 22.9641 18.6003 22.705 18.3675ZM26.7059 20.5702L30.6199 18.2446L31.063 18.6427L30.3982 19.2073L26.4172 21.5711L25.9849 21.1828L26.7059 20.5702ZM28.9308 16.7272L26.8549 20.7697L26.3227 21.4862L25.8687 21.0783L28.2588 16.1235L28.9308 16.7272ZM29.1152 22.7543L32.8501 20.2481L33.5184 20.8486L28.8472 23.7541L28.3968 23.3495L29.1152 22.7543ZM31.1611 18.7308L29.2938 22.7966L28.7309 23.6497L28.3023 23.2646L30.205 19.0205L30.6889 18.3066L31.1611 18.7308Z" fill="white"/>
</svg>
