<svg width="266" height="51" viewBox="0 0 266 51" fill="none" xmlns="http://www.w3.org/2000/svg">
<path d="M44.6645 11.8849C47.286 15.9147 48.6858 20.6538 48.6855 25.5027C48.6855 28.7218 48.0681 31.9091 46.8689 34.8824C45.6697 37.8558 43.9124 40.5566 41.6978 42.8309C39.4833 45.1053 36.855 46.9086 33.9634 48.1388C31.0718 49.3689 27.973 50.0018 24.844 50.0018C20.1311 50.0021 15.5228 48.5672 11.6019 45.8769C7.68074 43.1864 4.62255 39.3607 2.81609 34.8821C1.00958 30.4034 0.536626 25.4744 1.45758 20.719C2.37852 15.9636 4.65156 11.5972 7.98724 8.17142C11.3228 4.74576 15.5709 2.41447 20.1936 1.4702C24.8163 0.525945 29.6079 1.01061 33.9631 2.86352C38.3184 4.71649 42.0431 7.85524 44.6645 11.8849Z" fill="white" stroke="#E8E8E8"/>
<path d="M20 22.5016L29.0211 33.8357C29.6836 34.668 30.5161 35.3386 31.4591 35.7992C32.402 36.2599 33.4319 36.4992 34.4748 36.5H43L33.449 24.4811C32.9556 23.8609 32.3353 23.3616 31.6327 23.019C30.93 22.6765 30.1626 22.4992 29.3857 22.5L20 22.5016Z" fill="#41D7FF"/>
<path d="M29.7694 6.5L6 36.5H14.5184C15.561 36.4973 16.5902 36.2562 17.5329 35.7939C18.4756 35.3315 19.3087 34.6592 19.973 33.8247L32.7159 17.7107C33.5467 16.6449 34 15.3152 34 13.9439C34 12.5726 33.5467 11.2429 32.7159 10.1771L29.7694 6.5Z" fill="#F241CD"/>
<path d="M24.4828 27.5L29 22.5H20L24.4828 27.5Z" fill="#3D36CC"/>
<path d="M225.682 33.4513V26.7119H218.095V24.3045H225.679V17.9028H228.298V33.4513H225.682ZM213.55 33.4513V17.9028H216.16V33.4513H213.55Z" fill="#F241CD"/>
<path d="M244.372 17.9028H246.935V26.5421C246.935 31.3282 244.647 33.5925 238.802 33.5925C233.01 33.5925 230.666 31.3282 230.666 26.5421V17.9028H233.369V26.5421C233.369 29.6571 234.721 30.9314 238.856 30.9314C242.99 30.9314 244.344 29.6571 244.344 26.5421V17.9028H244.372Z" fill="#F241CD"/>
<path d="M253.865 26.6543V24.3882H260.381C261.869 24.3882 262.586 23.8521 262.586 22.5188C262.586 20.8764 261.318 20.6226 259.36 20.6226H251.969V30.7041H259.609C261.483 30.7041 262.863 30.1679 262.863 28.6649C262.863 27.3907 262.062 26.6543 260.573 26.6543H253.865ZM249.314 33.367V17.9043H260.345C263.303 17.9043 265.217 19.2643 265.217 21.8986C265.217 23.852 264.253 24.8439 263.129 25.2121C264.507 25.6642 265.501 26.8831 265.501 28.6953C265.501 31.5262 263.597 33.367 260.648 33.367H249.314Z" fill="#F241CD"/>
<path fill-rule="evenodd" clip-rule="evenodd" d="M78.351 12.416H84.4921L99.1582 33.5941H92.4586L81.2554 16.8893L70.7587 32.2948H82.5205V33.5941H63.8728L78.351 12.416Z" fill="#253D98"/>
<path fill-rule="evenodd" clip-rule="evenodd" d="M103.698 12.416H108.574V29.5033H123.947V33.5941H103.698V12.416Z" fill="#253D98"/>
<path d="M133.885 12.416H129.009V33.5923H133.885V12.416Z" fill="#253D98"/>
<path fill-rule="evenodd" clip-rule="evenodd" d="M201.59 33.5941H198.872L181.861 19.2591V33.5941H177.508V12.416H180.819L197.234 26.7885V12.416H201.59V33.5941Z" fill="#253D98"/>
<path fill-rule="evenodd" clip-rule="evenodd" d="M152.569 12.416H158.71L173.376 33.5941H166.675L155.472 16.8893L144.977 32.2948H156.739V33.5941H138.091L152.569 12.416Z" fill="#253D98"/>
<path fill-rule="evenodd" clip-rule="evenodd" d="M206.017 5.06152H205.274C204.413 5.15909 203.621 5.59156 203.062 6.27005C202.502 6.94854 202.216 7.82149 202.264 8.70945C202.312 9.59742 202.689 10.4329 203.317 11.0442C203.946 11.6556 204.779 11.9962 205.645 11.9962C206.511 11.9962 207.344 11.6556 207.973 11.0442C208.602 10.4329 208.979 9.59742 209.027 8.70945C209.074 7.82149 208.789 6.94854 208.229 6.27005C207.669 5.59156 206.877 5.15909 206.017 5.06152ZM205.644 5.38144C205.041 5.38144 204.45 5.56521 203.948 5.90954C203.446 6.25387 203.055 6.7433 202.824 7.31601C202.592 7.88871 202.531 8.51898 202.649 9.12721C202.766 9.73544 203.056 10.2943 203.482 10.7333C203.909 11.1722 204.452 11.4715 205.044 11.5933C205.636 11.7151 206.25 11.654 206.808 11.4177C207.366 11.1814 207.844 10.7805 208.18 10.2657C208.517 9.75083 208.697 9.14512 208.698 8.52508C208.7 8.11252 208.621 7.70378 208.468 7.32231C208.315 6.94084 208.091 6.59416 207.807 6.3021C207.523 6.01004 207.186 5.77838 206.815 5.62039C206.444 5.4624 206.046 5.3812 205.644 5.38144Z" fill="#253D98"/>
<path fill-rule="evenodd" clip-rule="evenodd" d="M204.94 10.3822H204.39V6.65596H205.938C206.137 6.65143 206.335 6.6694 206.53 6.70956C206.664 6.7385 206.79 6.79439 206.903 6.87399C207.015 6.96982 207.104 7.09252 207.16 7.23142C207.223 7.37828 207.255 7.5373 207.254 7.69788C207.256 7.84806 207.23 7.99721 207.177 8.13752C207.131 8.26429 207.054 8.37684 206.953 8.46458C206.9 8.51289 206.842 8.55429 206.779 8.58789C206.703 8.62332 206.624 8.65318 206.544 8.67725C206.644 8.72669 206.738 8.78658 206.826 8.85597C206.902 8.91559 206.965 8.99036 207.012 9.07579C207.064 9.17366 207.1 9.27917 207.12 9.38854C207.146 9.53436 207.163 9.68185 207.17 9.82999C207.17 9.9408 207.183 10.0266 207.186 10.0855C207.188 10.1335 207.193 10.1813 207.202 10.2285C207.207 10.2578 207.214 10.2865 207.224 10.3143C207.235 10.3417 207.248 10.368 207.263 10.3929H206.697C206.689 10.3731 206.681 10.3528 206.675 10.3322C206.665 10.3015 206.658 10.2697 206.655 10.2375C206.655 10.1445 206.643 10.073 206.642 10.0248C206.64 9.97654 206.641 9.92112 206.626 9.85678C206.614 9.68931 206.582 9.52409 206.528 9.36531C206.488 9.24158 206.418 9.13072 206.323 9.04363C206.223 8.95538 206.104 8.89397 205.975 8.86491C205.809 8.82678 205.639 8.80937 205.469 8.81308H204.931L204.94 10.3822ZM205.902 8.33768C206.027 8.34075 206.153 8.33119 206.276 8.3091C206.352 8.29669 206.424 8.26404 206.485 8.21437C206.549 8.1526 206.599 8.07698 206.632 7.99294C206.664 7.9089 206.678 7.81851 206.673 7.72827C206.675 7.61857 206.655 7.50963 206.614 7.40835C206.581 7.32035 206.519 7.24658 206.44 7.19924C206.38 7.1685 206.316 7.14913 206.25 7.14206C206.134 7.12969 206.018 7.12432 205.902 7.12599H204.94V8.34662L205.902 8.33768Z" fill="#253D98"/>
</svg>
