<svg width="8" height="15" viewBox="0 0 8 15" fill="none" xmlns="http://www.w3.org/2000/svg">
<path d="M0.268963 0.282451C0.0943113 0.481714 0.000146514 0.72233 0.000146514 0.969372C0.000146514 1.21641 0.0943113 1.45703 0.268963 1.65629L5.79008 7.49886L0.268963 13.3414C0.0942111 13.5409 0 13.7816 0 14.0289C0 14.2761 0.0942111 14.5169 0.268963 14.7163C0.341809 14.8039 0.438925 14.8754 0.551991 14.9248C0.665058 14.9742 0.790739 15 0.918313 15C1.04589 15 1.17157 14.9742 1.28463 14.9248C1.3977 14.8754 1.49478 14.8039 1.56763 14.7163L7.73447 8.1863C7.91175 7.98853 8.0051 7.74698 7.99973 7.49987C8.00567 7.25223 7.91181 7.01011 7.73326 6.81246L1.56763 0.283454C1.4947 0.196031 1.39762 0.124617 1.28463 0.07527C1.17164 0.0259228 1.04608 9.8789e-05 0.918606 2.82886e-07C0.79113 -9.82233e-05 0.665529 0.0255309 0.552431 0.0747034C0.439332 0.123876 0.342077 0.195141 0.268963 0.282451Z" fill="black"/>
</svg>
