<svg width="8" height="15" viewBox="0 0 8 15" fill="none" xmlns="http://www.w3.org/2000/svg">
<path d="M7.73104 0.282451C7.90569 0.481714 7.99985 0.72233 7.99985 0.969372C7.99985 1.21641 7.90569 1.45703 7.73104 1.65629L2.20991 7.49886L7.73104 13.3414C7.90579 13.5409 8 13.7816 8 14.0289C8 14.2761 7.90579 14.5169 7.73104 14.7163C7.65819 14.8039 7.56109 14.8754 7.44803 14.9248C7.33496 14.9742 7.20928 15 7.0817 15C6.95413 15 6.82845 14.9742 6.71538 14.9248C6.60232 14.8754 6.50522 14.8039 6.43237 14.7163L0.265518 8.1863C0.0882405 7.98853 -0.0050991 7.74698 0.000265425 7.49987C-0.00567273 7.25223 0.0881763 7.01011 0.26672 6.81246L6.43237 0.283454C6.50529 0.196031 6.60237 0.124617 6.71536 0.07527C6.82835 0.0259228 6.95392 9.8789e-05 7.08139 2.82886e-07C7.20887 -9.82233e-05 7.33449 0.0255309 7.44759 0.0747034C7.56069 0.123876 7.65792 0.195141 7.73104 0.282451Z" fill="black"/>
</svg>
