<svg width="8" height="16" viewBox="0 0 8 16" fill="none" xmlns="http://www.w3.org/2000/svg">
<path d="M7.73104 15.2175C7.90569 15.0183 7.99985 14.7777 7.99985 14.5306C7.99985 14.2836 7.90569 14.043 7.73104 13.8437L2.20992 8.00114L7.73104 2.15855C7.90579 1.95913 8 1.71835 8 1.47113C8 1.22392 7.90579 0.983132 7.73104 0.783714C7.65819 0.696148 7.56108 0.624601 7.44801 0.575201C7.33494 0.525801 7.20926 0.5 7.08169 0.5C6.95411 0.5 6.82843 0.525801 6.71537 0.575201C6.6023 0.624601 6.50522 0.696148 6.43237 0.783714L0.265529 7.3137C0.0882521 7.51147 -0.00509834 7.75302 0.000266075 8.00013C-0.00567245 8.24777 0.0881948 8.48989 0.266738 8.68754L6.43237 15.2165C6.5053 15.304 6.60238 15.3754 6.71537 15.4247C6.82836 15.4741 6.95392 15.4999 7.08139 15.5C7.20887 15.5001 7.33447 15.4745 7.44757 15.4253C7.56067 15.3761 7.65792 15.3049 7.73104 15.2175Z" fill="black"/>
</svg>
