<svg width="335" height="286" viewBox="0 0 335 286" fill="none" xmlns="http://www.w3.org/2000/svg">
<path d="M325.074 102.151L320.652 101.185L319.645 96.7712C319.628 96.6956 319.586 96.6281 319.525 96.5797C319.465 96.5313 319.39 96.5049 319.312 96.5049C319.234 96.5055 319.159 96.532 319.098 96.5802C319.037 96.6284 318.994 96.6957 318.975 96.7712L317.968 101.206L313.546 102.255C313.47 102.273 313.402 102.317 313.354 102.379C313.305 102.441 313.279 102.517 313.28 102.596C313.28 102.673 313.307 102.748 313.356 102.808C313.406 102.868 313.474 102.909 313.55 102.924L317.973 103.89L318.975 108.304C318.994 108.379 319.037 108.447 319.098 108.495C319.159 108.543 319.234 108.57 319.312 108.57C319.39 108.57 319.465 108.544 319.525 108.495C319.586 108.447 319.628 108.379 319.645 108.304L320.656 103.869L325.078 102.82C325.156 102.805 325.226 102.764 325.277 102.703C325.327 102.642 325.355 102.565 325.355 102.486C325.355 102.406 325.327 102.33 325.277 102.268C325.226 102.207 325.156 102.166 325.078 102.151H325.074ZM45.9102 135.85L41.4877 134.885L40.4809 130.471C40.4639 130.395 40.4216 130.327 40.3612 130.279C40.3007 130.231 40.2255 130.204 40.148 130.204C40.0702 130.205 39.9949 130.231 39.9338 130.28C39.8728 130.328 39.8296 130.395 39.8111 130.471L38.8042 134.906L34.3817 135.954C34.3055 135.973 34.2377 136.017 34.1894 136.078C34.1411 136.14 34.115 136.217 34.1154 136.295C34.1158 136.373 34.1429 136.448 34.1922 136.508C34.2415 136.567 34.3099 136.609 34.3859 136.624L38.8084 137.589L39.8111 142.003C39.8296 142.079 39.8728 142.146 39.9338 142.194C39.9949 142.243 40.0702 142.269 40.148 142.27C40.2255 142.27 40.3007 142.243 40.3612 142.195C40.4216 142.146 40.4639 142.079 40.4809 142.003L41.4919 137.568L45.9144 136.52C45.9921 136.505 46.0622 136.463 46.1126 136.402C46.163 136.341 46.1906 136.264 46.1906 136.185C46.1906 136.106 46.163 136.029 46.1126 135.968C46.0622 135.907 45.9921 135.865 45.9144 135.85H45.9102ZM302.737 84.4397L300.449 83.9405L299.933 81.6564C299.924 81.6166 299.902 81.5809 299.87 81.5554C299.839 81.5298 299.799 81.5159 299.758 81.5159C299.717 81.5159 299.678 81.5298 299.646 81.5554C299.614 81.5809 299.592 81.6166 299.583 81.6564L299.063 83.953L296.775 84.4938C296.736 84.5032 296.701 84.5256 296.676 84.5573C296.651 84.589 296.638 84.6282 296.638 84.6685C296.638 84.7089 296.652 84.748 296.678 84.7791C296.704 84.8102 296.74 84.8314 296.779 84.8391L299.068 85.3384L299.583 87.6224C299.592 87.6623 299.614 87.6979 299.646 87.7235C299.678 87.7491 299.717 87.763 299.758 87.763C299.799 87.763 299.839 87.7491 299.87 87.7235C299.902 87.6979 299.924 87.6623 299.933 87.6224L300.453 85.3259L302.741 84.785C302.78 84.775 302.815 84.7525 302.839 84.7209C302.864 84.6893 302.878 84.6505 302.879 84.6103C302.878 84.5699 302.864 84.5308 302.838 84.4997C302.812 84.4686 302.777 84.4474 302.737 84.4397ZM0 284.972H57.7175C58.4497 277.325 52.4379 274.683 52.4379 274.683C53.8941 272.27 53.2118 270.723 53.2118 270.723C52.3006 269.449 51.3437 270.723 51.3437 270.723C51.3895 267.627 49.8418 267.078 49.8418 267.078C48.7518 266.808 48.3857 268.946 48.3857 268.946C45.1073 265.53 41.9204 267.398 41.9204 267.398C42.1965 266.641 42.2752 265.827 42.1492 265.031C41.5584 264.257 40.9219 265.26 40.9219 265.26C41.1008 261.099 39.5989 260.933 39.5989 260.933C38.097 260.887 38.3716 264.074 38.3716 264.074C36.1957 261.07 33.6994 260.933 33.6994 260.933C29.7844 260.887 27.8249 264.985 27.8249 264.985C28.0995 260.113 26.323 260.113 26.323 260.113C24.3176 260.529 25.5949 265.805 25.5949 265.805C22.77 263.575 20.3153 264.141 20.3153 264.141C15.5766 264.973 14.2578 271.629 14.2578 271.629C12.9389 269.761 12.0278 270.219 12.0278 270.219C10.7547 270.901 11.3912 272.857 11.3912 272.857C7.20169 273.905 10.4801 274.725 10.4801 274.725C9.90584 275.269 9.44242 275.919 9.11548 276.639C1.44783 276.505 0 284.972 0 284.972ZM252.159 284.972H334.053C335.088 274.122 326.564 270.377 326.564 270.377C328.644 266.953 327.662 264.756 327.662 264.756C326.368 262.947 325.012 264.756 325.012 264.756C325.079 260.363 322.882 259.589 322.882 259.589C321.33 259.202 320.802 262.239 320.802 262.239C316.15 257.393 311.649 260.043 311.649 260.043C312.294 257.963 311.969 256.681 311.969 256.681C311.137 255.587 310.226 257.006 310.226 257.006C310.484 251.127 308.354 250.869 308.354 250.869C306.223 250.807 306.61 255.325 306.61 255.325C303.507 251.065 299.966 250.857 299.966 250.857C294.412 250.794 291.645 256.606 291.645 256.606C292.032 249.696 289.515 249.696 289.515 249.696C286.674 250.278 288.483 257.767 288.483 257.767C284.477 254.605 280.995 255.379 280.995 255.379C274.276 256.54 272.403 265.971 272.403 265.971C270.531 263.321 269.237 263.97 269.237 263.97C267.432 264.94 268.335 267.715 268.335 267.715C262.393 269.2 267.045 270.365 267.045 270.365C266.229 271.134 265.57 272.056 265.106 273.077C254.227 272.961 252.159 284.972 252.159 284.972Z" fill="#4F3CC9"/>
<path d="M137.98 284.048H14.5614C13.0054 267.698 25.8528 262.048 25.8528 262.048C22.7366 256.889 24.1886 253.582 24.1886 253.582C26.1357 250.857 28.1826 253.582 28.1826 253.582C28.0828 246.962 31.3944 245.793 31.3944 245.793C33.7284 245.211 34.5106 249.783 34.5106 249.783C41.5168 242.482 48.3315 246.476 48.3315 246.476C47.3497 243.368 47.8447 241.413 47.8447 241.413C49.0929 239.748 50.4741 241.899 50.4741 241.899C50.0831 233.042 53.2949 232.651 53.2949 232.651C56.5067 232.555 55.9243 239.37 55.9243 239.37C60.5964 232.942 65.9509 232.651 65.9509 232.651C74.3217 232.555 78.507 241.317 78.507 241.317C77.9246 230.916 81.723 230.916 81.723 230.916C86.0041 231.794 83.279 243.085 83.279 243.085C89.3158 238.313 94.5704 239.482 94.5704 239.482C104.693 241.234 107.518 255.446 107.518 255.446C110.343 251.456 112.285 252.429 112.285 252.429C115.015 253.89 113.65 258.075 113.65 258.075C122.607 260.313 115.597 262.065 115.597 262.065C117.349 263.525 118.509 266.155 118.509 266.155C134.864 265.942 137.98 284.048 137.98 284.048Z" fill="#77E0B5"/>
<path d="M139.462 285.296H13.401L13.2928 284.169C11.9615 270.173 20.8274 263.525 24.1099 261.557C21.5471 256.54 22.9492 253.236 23.0157 253.078L23.0657 252.962L23.1405 252.854C24.1557 251.439 25.2665 251.131 26.0237 251.123C26.3698 251.11 26.7154 251.16 27.043 251.273C27.6879 245.864 30.829 244.67 30.9788 244.616L31.0911 244.583C31.4696 244.484 31.8645 244.466 32.2502 244.531C32.6359 244.595 33.0037 244.741 33.3294 244.957C34.1738 245.597 34.8071 246.475 35.1475 247.478C39.6699 243.696 44.03 243.888 46.6053 244.524C46.4076 243.393 46.4175 242.236 46.6344 241.109L46.6968 240.859L46.8549 240.655C47.0882 240.304 47.4066 240.017 47.7806 239.822C48.1545 239.627 48.5718 239.53 48.9934 239.54C49.0641 239.536 49.1349 239.536 49.2056 239.54C49.4427 232.247 52.484 231.477 53.1455 231.394H53.2578C53.7049 231.377 54.1504 231.457 54.5639 231.628C54.9774 231.799 55.3493 232.057 55.6542 232.384C56.5113 233.291 56.9024 234.718 57.0896 236.062C61.4247 231.694 65.6767 231.407 65.8847 231.398H66.0927C71.3889 231.398 75.0917 234.539 77.2718 237.185C77.4881 234.223 78.1995 232.089 79.4061 230.816C79.6943 230.476 80.048 230.197 80.4461 229.996C80.8442 229.795 81.2785 229.676 81.7234 229.647H81.8482L81.973 229.672C82.4575 229.773 82.9159 229.973 83.3196 230.259C83.7233 230.546 84.0637 230.912 84.3195 231.336C85.7174 233.537 85.4678 237.547 85.0601 240.343C90.1857 237.406 94.342 238.134 94.8079 238.23C103.083 239.678 106.777 248.46 108.121 252.791C110.688 250.332 112.606 251.164 112.856 251.289C115.202 252.537 115.464 255.179 115.148 257.16C118.198 258.046 119.463 259.007 119.463 260.371C119.463 261.382 118.676 262.081 117.798 262.547C118.365 263.282 118.868 264.064 119.3 264.885C135.838 265.26 139.191 283.641 139.225 283.832L139.462 285.296ZM15.7017 282.8H136.416C135.322 278.677 131.187 267.407 118.772 267.407H117.694L117.362 266.658C117.362 266.637 116.284 264.274 114.782 263.022L112.893 261.449L115.286 260.842C115.73 260.728 116.162 260.57 116.575 260.371C115.542 259.882 114.456 259.513 113.338 259.273L112.04 258.949L112.456 257.675C112.456 257.651 113.426 254.563 111.77 253.565C111.387 253.498 110.164 253.84 108.529 256.157L106.865 258.528L106.299 255.678C106.27 255.545 103.512 242.282 94.3628 240.701H94.3045C94.1173 240.664 89.5034 239.761 84.0574 244.063L81.2117 246.28L82.0438 242.773C82.7427 239.861 83.4001 234.573 82.1935 232.68C82.0702 232.458 81.8792 232.282 81.6485 232.176C80.8788 232.488 79.3561 234.527 79.7347 241.242L80.0884 247.557L77.3841 241.853C77.3466 241.774 73.4442 233.824 66.0012 233.899C65.6268 233.932 61.0669 234.419 56.9356 240.102L54.2979 243.726L54.6807 239.261C54.818 237.635 54.6474 234.96 53.8486 234.111C53.7537 233.998 53.6203 233.924 53.4742 233.903C52.8335 234.211 51.4772 236.087 51.7268 241.845L51.9348 246.505L49.4386 242.569C49.3218 242.399 49.1817 242.246 49.0225 242.115C48.9364 243.465 49.1131 244.819 49.5426 246.101L50.5078 249.184L47.7203 247.553C47.4832 247.416 41.6336 244.187 35.4304 250.649L33.6997 252.433L33.2837 249.995C33.1172 249.047 32.5847 247.453 31.969 247.05C31.9412 247.027 31.9092 247.011 31.8749 247.001C31.8407 246.991 31.8047 246.988 31.7693 246.992C31.4323 247.162 29.3562 248.431 29.4353 253.561L29.4894 257.401L27.1886 254.33C27.0181 254.11 26.498 253.619 26.0944 253.619C25.8074 253.619 25.5037 253.935 25.3081 254.185C25.1334 254.726 24.476 257.372 26.9265 261.403L27.6588 262.622L26.3607 263.192C25.8615 263.404 14.9112 268.451 15.7017 282.8ZM111.703 253.519H111.728H111.703Z" fill="#4F3CC9"/>
<path d="M323.177 284.048H199.742C198.186 267.698 211.037 262.048 211.037 262.048C207.921 256.889 209.373 253.582 209.373 253.582C211.32 250.857 213.363 253.582 213.363 253.582C213.267 246.962 216.575 245.793 216.575 245.793C218.913 245.211 219.691 249.783 219.691 249.783C226.701 242.482 233.516 246.476 233.516 246.476C232.542 243.36 233.029 241.413 233.029 241.413C234.277 239.748 235.654 241.899 235.654 241.899C235.267 233.042 238.479 232.651 238.479 232.651C241.691 232.555 241.109 239.37 241.109 239.37C245.781 232.942 251.135 232.651 251.135 232.651C259.506 232.555 263.691 241.317 263.691 241.317C263.109 230.916 266.903 230.916 266.903 230.916C271.188 231.794 268.459 243.085 268.459 243.085C274.496 238.313 279.755 239.482 279.755 239.482C289.877 241.234 292.702 255.446 292.702 255.446C295.523 251.456 297.47 252.429 297.47 252.429C300.195 253.89 298.834 258.075 298.834 258.075C307.788 260.313 300.781 262.065 300.781 262.065C302.533 263.525 303.694 266.155 303.694 266.155C320.061 265.942 323.177 284.048 323.177 284.048Z" fill="#77E0B5"/>
<path d="M324.658 285.296H198.598L198.489 284.169C197.158 270.173 206.02 263.525 209.306 261.557C206.748 256.54 208.15 253.236 208.212 253.078L208.266 252.962L208.341 252.854C209.352 251.439 210.467 251.131 211.22 251.123C211.557 251.114 211.892 251.165 212.21 251.273C212.851 245.864 215.992 244.67 216.142 244.616L216.259 244.583C216.636 244.484 217.031 244.467 217.416 244.532C217.801 244.596 218.168 244.741 218.493 244.957C219.337 245.598 219.972 246.475 220.315 247.478C224.837 243.696 229.197 243.888 231.769 244.524C231.568 243.394 231.58 242.235 231.802 241.109L231.864 240.859L232.018 240.655C232.251 240.304 232.57 240.017 232.944 239.822C233.318 239.627 233.735 239.53 234.157 239.54C234.229 239.536 234.301 239.536 234.373 239.54C234.606 232.247 237.651 231.477 238.313 231.394H238.425C238.872 231.378 239.317 231.458 239.731 231.629C240.144 231.8 240.516 232.058 240.822 232.384C241.675 233.291 242.07 234.718 242.253 236.062C246.588 231.694 250.84 231.407 251.048 231.398H251.289C256.581 231.398 260.284 234.539 262.464 237.185C262.68 234.223 263.396 232.089 264.598 230.816C264.887 230.476 265.24 230.197 265.638 229.996C266.037 229.795 266.471 229.676 266.916 229.647H267.041L267.165 229.672C267.65 229.773 268.109 229.973 268.514 230.259C268.918 230.546 269.259 230.912 269.516 231.336C270.914 233.537 270.664 237.547 270.257 240.343C275.378 237.406 279.534 238.138 280 238.23C288.28 239.678 291.974 248.46 293.314 252.791C295.881 250.332 297.799 251.164 298.044 251.289C300.395 252.537 300.657 255.179 300.341 257.16C303.386 258.046 304.655 259.007 304.655 260.371C304.655 261.382 303.869 262.081 302.991 262.547C303.558 263.282 304.06 264.064 304.493 264.885C321.026 265.26 324.384 283.641 324.417 283.832L324.658 285.296ZM200.902 282.8H321.6C320.506 278.677 316.371 267.407 303.956 267.407H302.878L302.541 266.658C302.541 266.637 301.464 264.274 299.962 263.022L298.077 261.449L300.461 260.85C300.905 260.734 301.337 260.577 301.751 260.38C300.717 259.891 299.631 259.523 298.514 259.281L297.216 258.957L297.632 257.684C297.632 257.659 298.606 254.572 296.95 253.573C296.559 253.507 295.344 253.852 293.705 256.165L292.041 258.537L291.475 255.687C291.45 255.554 288.691 242.29 279.538 240.709H279.484C279.293 240.672 274.679 239.769 269.233 244.071L266.404 246.309L267.236 242.802C267.931 239.89 268.588 234.602 267.382 232.709C267.26 232.488 267.07 232.311 266.841 232.205C266.071 232.517 264.549 234.556 264.923 241.271L265.277 247.586L262.552 241.878C262.514 241.799 258.632 233.924 251.256 233.924H251.169C250.794 233.957 246.238 234.444 242.103 240.127L239.47 243.751L239.852 239.286C239.99 237.66 239.819 234.985 239.02 234.136C238.923 234.023 238.789 233.949 238.642 233.928C238.005 234.236 236.645 236.112 236.898 241.87L237.102 246.53L234.606 242.594C234.491 242.423 234.35 242.27 234.19 242.14C234.102 243.49 234.278 244.844 234.71 246.126L235.671 249.209L232.888 247.578C232.646 247.441 226.797 244.212 220.594 250.673L218.88 252.458L218.464 250.02C218.301 249.072 217.769 247.478 217.149 247.075C217.122 247.052 217.091 247.035 217.057 247.025C217.023 247.015 216.988 247.012 216.953 247.016C216.616 247.187 214.54 248.456 214.615 253.586L214.673 257.426L212.369 254.355C212.198 254.135 211.682 253.644 211.279 253.644C210.991 253.644 210.692 253.96 210.496 254.21C210.322 254.751 209.664 257.397 212.111 261.428L212.847 262.647L211.545 263.217C211.062 263.404 200.116 268.451 200.902 282.8ZM296.904 253.519H296.929H296.904ZM78.6319 277.529C75.8569 279.364 74.5505 282.289 73.9847 284.048H54.0854C52.5044 279.056 53.037 276.397 53.037 276.397C54.3849 278.736 55.8702 279.372 55.8702 279.372C57.5011 276.397 56.8645 268.389 56.8645 268.389C59.8392 271.151 59.5563 277.317 59.5563 277.317C61.6657 269.795 66.4959 267.502 66.5708 267.469C63.4547 272.57 63.3132 280.083 63.3132 280.083C67.1408 273.988 74.4382 274.675 74.4382 274.675C69.1211 276.447 68.909 281.831 68.909 281.831C72.5327 277.816 78.6319 277.529 78.6319 277.529Z" fill="#4F3CC9"/>
<path d="M120.881 127.65L132.368 123.456L133.504 90.7845C119.458 80.1214 127.325 72.4787 127.325 72.4787L127.925 57.5261H183.99C194.425 118.447 167.873 112.623 167.873 112.623L168.543 125.316L182.172 130.204L182.089 156.111H118.93L120.881 127.65Z" fill="white"/>
<path d="M183.333 157.351H117.599L119.679 126.756L131.137 122.57L132.223 91.3671C126.947 87.2358 124.143 83.0088 123.902 78.7984C123.747 76.3278 124.53 73.8897 126.094 71.9712L126.722 56.2698H185.043L185.218 57.3099C189.84 84.2819 187.972 101.976 179.668 109.906C178.291 111.263 176.653 112.326 174.853 113.031C173.053 113.736 171.128 114.068 169.196 114.008L169.745 124.409L183.425 129.302L183.333 157.351ZM120.27 154.855H180.845L180.92 131.074L167.341 126.215L166.538 111.067L168.139 111.416C168.347 111.462 173.436 112.465 177.991 108.088C183.175 103.095 188.209 90.4767 182.934 58.7951H129.123L128.557 73.0321L128.199 73.3774C127.554 74.0985 127.062 74.9429 126.752 75.8597C126.442 76.7764 126.322 77.7464 126.398 78.7111C126.635 82.2308 129.356 86.0625 134.265 89.7903L134.781 90.1813L133.591 124.338L122.071 128.54L120.27 154.855Z" fill="#4F3CC9"/>
<path d="M152.072 60.8088C152.072 60.8088 164.071 68.5763 184.523 60.8088L185.518 67.9605C185.518 67.9605 194.541 61.5368 192.116 49.6547C192.116 49.6547 190.901 42.1326 178.283 40.6765C178.283 40.6765 172.941 29.7554 161.291 34.3651C161.291 34.3651 152.555 29.0273 144.059 37.0361C144.059 37.0361 136.537 36.7907 135.322 42.8607C135.322 42.8607 127.33 41.9205 122.425 47.4705C120.432 49.7801 119.357 52.7412 119.404 55.7913C119.404 60.5009 119.841 68.6345 127.38 73.1943C127.38 73.1943 136.217 67.2116 138.962 79.0189L143.331 80.2338L144.3 73.4398C144.3 73.4398 150.861 71.4886 152.072 60.8088Z" fill="#4F3CC9"/>
<path d="M181.078 86.3954C179.35 86.3954 177.661 85.883 176.224 84.923C174.787 83.9629 173.668 82.5984 173.006 81.002C172.345 79.4055 172.172 77.6488 172.509 75.954C172.846 74.2592 173.678 72.7025 174.9 71.4806C176.122 70.2587 177.679 69.4266 179.374 69.0895C181.069 68.7524 182.825 68.9254 184.422 69.5867C186.018 70.248 187.383 71.3678 188.343 72.8046C189.303 74.2413 189.815 75.9305 189.815 77.6585C189.815 79.9757 188.895 82.1979 187.256 83.8364C185.618 85.4749 183.395 86.3954 181.078 86.3954ZM181.078 70.6191C179.679 70.6191 178.312 71.0339 177.149 71.8111C175.986 72.5882 175.079 73.6928 174.544 74.9852C174.009 76.2776 173.868 77.6996 174.141 79.0716C174.414 80.4436 175.088 81.7038 176.077 82.693C177.066 83.6821 178.326 84.3557 179.698 84.6286C181.07 84.9015 182.492 84.7615 183.785 84.2261C185.077 83.6908 186.182 82.7843 186.959 81.6212C187.736 80.4581 188.151 79.0906 188.151 77.6918C188.151 75.816 187.406 74.017 186.079 72.6906C184.753 71.3642 182.954 70.6191 181.078 70.6191ZM162.144 86.3954C160.416 86.3954 158.727 85.883 157.29 84.923C155.853 83.9629 154.734 82.5984 154.072 81.002C153.411 79.4055 153.238 77.6488 153.575 75.954C153.912 74.2592 154.744 72.7025 155.966 71.4806C157.188 70.2587 158.745 69.4266 160.44 69.0895C162.134 68.7524 163.891 68.9254 165.488 69.5867C167.084 70.248 168.449 71.3678 169.409 72.8046C170.369 74.2413 170.881 75.9305 170.881 77.6585C170.881 79.9757 169.961 82.1979 168.322 83.8364C166.684 85.4749 164.461 86.3954 162.144 86.3954ZM162.144 70.6191C160.745 70.6191 159.378 71.0339 158.215 71.8111C157.052 72.5882 156.145 73.6928 155.61 74.9852C155.074 76.2776 154.934 77.6996 155.207 79.0716C155.48 80.4436 156.154 81.7038 157.143 82.693C158.132 83.6821 159.392 84.3557 160.764 84.6286C162.136 84.9015 163.558 84.7615 164.851 84.2261C166.143 83.6908 167.248 82.7843 168.025 81.6212C168.802 80.4581 169.217 79.0906 169.217 77.6918C169.217 75.816 168.472 74.017 167.145 72.6906C165.819 71.3642 164.02 70.6191 162.144 70.6191Z" fill="#4F3CC9"/>
<path d="M180.953 80.9536C182.16 80.9536 183.137 79.9757 183.137 78.7694C183.137 77.5631 182.16 76.5852 180.953 76.5852C179.747 76.5852 178.769 77.5631 178.769 78.7694C178.769 79.9757 179.747 80.9536 180.953 80.9536Z" fill="#4F3CC9"/>
<path d="M162.144 81.0743C163.35 81.0743 164.328 80.0963 164.328 78.89C164.328 77.6837 163.35 76.7058 162.144 76.7058C160.938 76.7058 159.96 77.6837 159.96 78.89C159.96 80.0963 160.938 81.0743 162.144 81.0743Z" fill="#4F3CC9"/>
<path d="M142.916 76.4229L143.078 74.7666L154.328 75.8677L154.166 77.524L142.916 76.4229Z" fill="#4F3CC9"/>
<path d="M177.047 91.5877L172.133 91.2049L172.262 89.5491L174.671 89.7363L170.344 76.7974L171.921 76.269L177.047 91.5877ZM173.835 69.7122L172.782 68.4225C172.957 68.281 177.159 64.9319 185.447 65.972L185.239 67.6361C177.65 66.6751 173.872 69.6831 173.835 69.7122ZM168.214 69.5208C167.977 69.267 162.277 63.4341 154.485 68.3351L153.599 66.9247C162.568 61.2873 169.358 68.306 169.408 68.3767L168.214 69.5208ZM175.195 100.549C175.394 100.35 175.547 100.11 175.642 99.8452C175.737 99.5806 175.773 99.2982 175.747 99.0182C175.721 98.7381 175.633 98.4673 175.49 98.2249C175.348 97.9826 175.153 97.7747 174.921 97.6161C174.205 97.1255 173.363 96.8511 172.495 96.8256C170.236 96.7591 167.245 98.2152 165.839 98.9682C165.746 99.0169 165.666 99.0875 165.607 99.1738C165.547 99.2601 165.51 99.3596 165.498 99.4637C165.485 99.5678 165.499 99.6733 165.536 99.7711C165.574 99.8689 165.635 99.9561 165.714 100.025C167.286 101.398 172.058 103.815 175.195 100.549Z" fill="#4F3CC9"/>
<path d="M210.871 101.518L217.111 112.777L226.297 158.708L203.17 144.766V193.971L265.992 205.229L232.509 103.299L218.068 62.1609C217.675 61.0387 217.029 60.0215 216.182 59.1871C215.335 58.3528 214.308 57.7234 213.18 57.3473L211.765 56.8688C210.279 56.3735 208.705 56.1993 207.146 56.3578C205.588 56.5163 204.08 57.0039 202.724 57.7883L190.131 65.069V87.5894C190.131 87.5894 196.371 92.0369 199.317 96.1848C199.317 96.1848 204.355 101.814 210.871 101.518Z" fill="white"/>
<path d="M267.827 206.827L201.922 195.015V142.569L224.504 156.178L215.926 113.213L210.143 102.775C203.486 102.654 198.597 97.2539 198.385 97.0168L198.302 96.9086C195.49 92.977 189.465 88.6502 189.403 88.5878L188.883 88.2133V64.3492L202.08 56.7106C203.589 55.8365 205.266 55.2929 207.001 55.1157C208.736 54.9385 210.489 55.1319 212.144 55.683L213.567 56.1573C214.876 56.5964 216.069 57.3276 217.054 58.2956C218.039 59.2636 218.792 60.4431 219.254 61.7448L233.695 102.883L267.827 206.827ZM204.418 192.927L264.149 203.632L231.319 103.686L216.887 62.5727C216.554 61.6313 216.011 60.778 215.3 60.0774C214.588 59.3767 213.727 58.8472 212.78 58.5287L211.349 58.0545C210.029 57.6173 208.63 57.4654 207.247 57.6089C205.864 57.7523 204.526 58.1878 203.324 58.8865L191.379 65.7887V86.9569C192.96 88.1385 197.703 91.8121 200.287 95.3942C200.748 95.8893 205.279 100.524 210.817 100.27L211.59 100.237L218.28 112.344L218.318 112.535L228.061 161.237L204.418 146.992V192.927Z" fill="#4F3CC9"/>
<path d="M173.377 129.373C170.706 136.645 159.952 155.654 126.002 126.743C125.589 126.391 125.088 126.155 124.552 126.063C124.016 125.97 123.466 126.022 122.957 126.215L84.9308 140.643C79.6863 142.633 75.3575 146.483 72.7699 151.46L50.1206 195.007L87.3064 204.044L86.4203 283.753L227.762 284.049L214.578 175.137V141.275L176.718 127.821C176.069 127.588 175.354 127.62 174.729 127.911C174.104 128.201 173.618 128.726 173.377 129.373Z" fill="#F582AE"/>
<path d="M229.172 285.301L85.1553 284.997L86.0498 205.021L48.2607 195.843L71.6465 150.911C74.3745 145.661 78.9407 141.6 84.473 139.503L122.499 125.075C123.216 124.803 123.993 124.729 124.749 124.861C125.504 124.993 126.21 125.325 126.793 125.824C140.868 137.81 152.317 142.752 160.813 140.522C167.681 138.717 170.889 132.509 172.187 128.969C172.542 128.015 173.257 127.239 174.178 126.807C175.099 126.375 176.153 126.322 177.113 126.66L215.805 140.389V175.075L229.172 285.301ZM87.6807 282.509L226.356 282.8L213.33 175.229V142.153L176.302 128.998C175.959 128.878 175.583 128.898 175.255 129.053C174.927 129.209 174.673 129.488 174.55 129.83C173.086 133.828 169.433 140.843 161.466 142.935C152.134 145.386 139.931 140.269 125.195 127.721C124.951 127.514 124.656 127.376 124.341 127.322C124.026 127.267 123.702 127.297 123.402 127.409L85.38 141.837C80.4192 143.715 76.3249 147.356 73.8806 152.063L51.9635 194.171L88.5752 203.066L87.6807 282.509Z" fill="#4F3CC9"/>
<path d="M215.959 131.727L177.538 154.115L178.524 266.583L216.949 245.382L215.959 131.727Z" fill="#4F3CC9"/>
<path d="M256.061 155.005L216.949 133.371V245.382L256.061 264.94V155.005Z" fill="white"/>
<path d="M257.31 266.957L215.706 246.155V131.257L257.31 154.268V266.957ZM218.202 244.608L254.814 262.914V155.741L218.202 135.488V244.608Z" fill="#4F3CC9"/>
<path d="M296.659 133.371L256.062 155.005L257.052 266.583L296.659 236.195V133.371Z" fill="#4F3CC9"/>
<path d="M177.538 154.114V264.94L138.126 243.9V133.371L177.538 154.114Z" fill="white"/>
<path d="M178.786 267.02L136.878 244.649V131.303L178.786 153.353V267.02ZM139.374 243.152L176.29 262.855V154.868L139.374 135.438V243.152ZM197.687 67.8857L187.93 69.966C186.332 70.3044 184.898 71.1817 183.868 72.451C182.839 73.7203 182.277 75.3047 182.276 76.9388C182.276 78.5737 182.838 80.159 183.867 81.4291C184.896 82.6993 186.331 83.5772 187.93 83.9158L197.687 85.996V67.8857Z" fill="#4F3CC9"/>
<path d="M214.133 90.7304H208.279C200.058 90.7304 193.389 84.4898 193.389 76.2563C193.389 68.0312 200.045 61.7822 208.279 61.7822H214.133V90.7304Z" fill="#77E0B5"/>
<path d="M215.381 91.9786H208.279C199.23 91.9786 192.141 85.0723 192.141 76.2564C192.141 67.4405 199.213 60.5342 208.279 60.5342H215.381V91.9786ZM208.279 63.0304C200.632 63.0304 194.637 68.855 194.637 76.2564C194.637 83.6578 200.632 89.4824 208.279 89.4824H212.884V63.0304H208.279Z" fill="#4F3CC9"/>
<path d="M214.282 91.1466C222.547 91.1466 229.247 84.4465 229.247 76.1816C229.247 67.9166 222.547 61.2166 214.282 61.2166C206.017 61.2166 199.317 67.9166 199.317 76.1816C199.317 84.4465 206.017 91.1466 214.282 91.1466Z" fill="white"/>
<path d="M214.261 91.9786C211.134 91.9786 208.078 91.0514 205.478 89.3142C202.878 87.577 200.852 85.1079 199.655 82.219C198.459 79.3302 198.145 76.1514 198.755 73.0847C199.365 70.0179 200.871 67.2009 203.082 64.9899C205.293 62.7789 208.11 61.2732 211.177 60.6632C214.244 60.0531 217.423 60.3662 220.311 61.5628C223.2 62.7594 225.669 64.7858 227.406 67.3856C229.144 69.9855 230.071 73.0421 230.071 76.169C230.071 80.3619 228.405 84.3832 225.44 87.348C222.475 90.3129 218.454 91.9786 214.261 91.9786ZM214.261 62.0527C211.464 62.0527 208.729 62.8823 206.402 64.4366C204.076 65.9909 202.263 68.2001 201.193 70.7849C200.122 73.3696 199.842 76.2138 200.388 78.9577C200.933 81.7017 202.281 84.2221 204.259 86.2004C206.237 88.1787 208.758 89.5259 211.502 90.0717C214.246 90.6175 217.09 90.3374 219.674 89.2668C222.259 88.1961 224.468 86.3831 226.023 84.0569C227.577 81.7307 228.407 78.9958 228.407 76.1981C228.407 72.4465 226.916 68.8486 224.264 66.1958C221.611 63.543 218.013 62.0527 214.261 62.0527Z" fill="#4F3CC9"/>
<path d="M214.262 88.7211C211.782 88.7211 209.357 87.9857 207.295 86.6078C205.233 85.2299 203.626 83.2716 202.677 80.9803C201.728 78.689 201.479 76.1677 201.963 73.7353C202.447 71.3028 203.641 69.0685 205.395 67.3148C207.149 65.5611 209.383 64.3669 211.815 63.883C214.248 63.3992 216.769 63.6475 219.06 64.5966C221.352 65.5457 223.31 67.1529 224.688 69.215C226.066 71.2771 226.801 73.7015 226.801 76.1816C226.798 79.5063 225.476 82.6938 223.125 85.0447C220.774 87.3956 217.586 88.7178 214.262 88.7211ZM214.262 65.3021C212.111 65.3021 210.008 65.94 208.219 67.1352C206.431 68.3304 205.037 70.0291 204.214 72.0166C203.391 74.004 203.176 76.1909 203.596 78.3006C204.016 80.4104 205.052 82.3482 206.573 83.8689C208.094 85.3897 210.033 86.4252 212.143 86.8443C214.252 87.2635 216.439 87.0475 218.426 86.2237C220.413 85.4 222.112 84.0054 223.306 82.2164C224.501 80.4274 225.138 78.3244 225.137 76.1733C225.134 73.2904 223.987 70.5265 221.948 68.4884C219.909 66.4502 217.145 65.3043 214.262 65.3021Z" fill="#4F3CC9"/>
<path d="M165.685 67.8857L155.928 69.966C154.33 70.3044 152.896 71.1817 151.866 72.451C150.837 73.7203 150.275 75.3047 150.274 76.9388C150.274 78.5737 150.836 80.159 151.865 81.4291C152.894 82.6993 154.329 83.5772 155.928 83.9158L165.685 85.996V67.8857Z" fill="#77E0B5"/>
<path d="M166.933 87.5022L155.671 85.1182C153.792 84.7212 152.106 83.6904 150.897 82.1986C149.687 80.7069 149.027 78.8447 149.027 76.9243C149.027 75.0038 149.687 73.1417 150.897 71.65C152.106 70.1582 153.792 69.1274 155.671 68.7303L166.933 66.3464V87.5022ZM164.437 69.4251L156.186 71.1725C154.867 71.4511 153.684 72.1746 152.835 73.2218C151.986 74.2689 151.523 75.5761 151.523 76.9243C151.523 78.2725 151.986 79.5796 152.835 80.6268C153.684 81.674 154.867 82.3975 156.186 82.6761L164.437 84.4234V69.4251Z" fill="#4F3CC9"/>
<path d="M182.131 90.7304H176.277C168.056 90.7304 161.387 84.4898 161.387 76.2563C161.387 68.0312 168.044 61.7822 176.277 61.7822H182.131V90.7304Z" fill="#77E0B5"/>
<path d="M183.379 91.9786H176.277C167.228 91.9786 160.139 85.0723 160.139 76.2564C160.139 67.4405 167.211 60.5342 176.277 60.5342H183.379V91.9786ZM176.277 63.0304C168.626 63.0304 162.635 68.855 162.635 76.2564C162.635 83.6578 168.626 89.4824 176.277 89.4824H180.883V63.0304H176.277Z" fill="#4F3CC9"/>
<path d="M182.277 91.1466C190.541 91.1466 197.242 84.4465 197.242 76.1816C197.242 67.9166 190.541 61.2166 182.277 61.2166C174.012 61.2166 167.312 67.9166 167.312 76.1816C167.312 84.4465 174.012 91.1466 182.277 91.1466Z" fill="white"/>
<path d="M182.276 91.9786C179.15 91.9786 176.093 91.0514 173.493 89.3142C170.893 87.577 168.867 85.1079 167.67 82.219C166.474 79.3302 166.161 76.1514 166.771 73.0847C167.381 70.0179 168.886 67.2009 171.097 64.9899C173.308 62.7789 176.125 61.2732 179.192 60.6632C182.259 60.0531 185.438 60.3662 188.326 61.5628C191.215 62.7594 193.684 64.7858 195.422 67.3856C197.159 69.9855 198.086 73.0421 198.086 76.169C198.086 80.3619 196.42 84.3832 193.455 87.348C190.491 90.3129 186.469 91.9786 182.276 91.9786ZM182.276 62.0527C179.479 62.0527 176.744 62.8823 174.418 64.4366C172.091 65.9909 170.278 68.2001 169.208 70.7849C168.137 73.3696 167.857 76.2138 168.403 78.9577C168.949 81.7017 170.296 84.2221 172.274 86.2004C174.252 88.1787 176.773 89.5259 179.517 90.0717C182.261 90.6175 185.105 90.3374 187.69 89.2668C190.274 88.1961 192.484 86.3831 194.038 84.0569C195.592 81.7307 196.422 78.9958 196.422 76.1981C196.422 72.4465 194.931 68.8486 192.279 66.1958C189.626 63.543 186.028 62.0527 182.276 62.0527Z" fill="#4F3CC9"/>
<path d="M182.276 88.7211C179.796 88.7211 177.372 87.9857 175.31 86.6078C173.248 85.2299 171.64 83.2716 170.691 80.9803C169.742 78.689 169.494 76.1677 169.978 73.7353C170.462 71.3028 171.656 69.0685 173.41 67.3148C175.163 65.5611 177.398 64.3669 179.83 63.883C182.262 63.3992 184.784 63.6475 187.075 64.5966C189.366 65.5457 191.325 67.1529 192.703 69.215C194.08 71.2771 194.816 73.7015 194.816 76.1816C194.813 79.5063 193.49 82.6938 191.139 85.0447C188.789 87.3956 185.601 88.7178 182.276 88.7211ZM182.276 65.3104C180.125 65.3104 178.022 65.9484 176.234 67.1435C174.445 68.3387 173.051 70.0375 172.228 72.0249C171.405 74.0124 171.19 76.1992 171.61 78.309C172.03 80.4187 173.066 82.3565 174.588 83.8773C176.109 85.398 178.047 86.4335 180.157 86.8526C182.267 87.2718 184.454 87.0558 186.441 86.2321C188.428 85.4083 190.126 84.0137 191.321 82.2247C192.515 80.4358 193.152 78.3327 193.152 76.1816C193.151 73.2972 192.005 70.5313 189.965 68.4913C187.926 66.4514 185.161 65.3043 182.276 65.3021V65.3104Z" fill="#4F3CC9"/>
<path d="M53.3784 195.598L87.161 203.919L78.2702 217.548L115.298 212.805L125.408 196.476C126.392 194.886 127.863 193.656 129.601 192.969C135.709 190.56 150.795 188.841 162.502 193.834C163.596 194.304 164.811 197.732 161.82 199.309C161.82 199.309 168.809 201.901 162.115 206.286C162.115 206.286 165.672 210.734 160.634 212.805C160.634 212.805 161.82 216.363 153.524 217.548L139.004 219.629C139.004 219.629 131.004 233.558 109.373 238.296L49.0099 249.575C39.2454 251.406 31.5362 241.375 35.8173 232.409L53.3784 195.598Z" fill="white"/>
<path d="M46.7467 251.036C44.4866 251.031 42.2644 250.455 40.287 249.361C38.3095 248.266 36.641 246.689 35.4368 244.777C34.2326 242.864 33.5319 240.678 33.3998 238.422C33.2678 236.166 33.7087 233.913 34.6815 231.873L52.6836 194.146L89.158 203.103L80.7831 215.947L114.553 211.624L124.351 195.814C125.477 193.988 127.162 192.573 129.156 191.779C135.813 189.154 151.186 187.618 163.005 192.657C164.071 193.114 164.894 194.579 164.957 196.143C165.015 197.191 164.693 198.226 164.05 199.055C165.036 199.729 166.092 200.774 166.255 202.226C166.417 203.678 165.606 205.188 163.813 206.598C164.324 207.563 164.853 209.04 164.457 210.576C164.137 211.824 163.288 212.822 161.936 213.559C161.882 214.142 161.691 214.705 161.379 215.202C160.268 216.999 157.688 218.197 153.711 218.767L139.79 220.752C138.051 223.435 129.452 235.151 109.673 239.474L49.2596 250.79C48.4316 250.951 47.5902 251.033 46.7467 251.036ZM54.0857 197.054L36.9406 232.967C36.0767 234.782 35.7317 236.801 35.9438 238.8C36.1559 240.798 36.9168 242.7 38.1424 244.293C39.368 245.886 41.0104 247.11 42.888 247.827C44.7656 248.545 46.8052 248.73 48.7812 248.36L109.153 237.052C129.897 232.509 137.86 219.125 137.935 218.988L138.238 218.464L138.838 218.376L153.357 216.296C157.451 215.709 158.766 214.582 159.207 213.962C159.385 213.734 159.473 213.448 159.452 213.159L158.949 212.015L160.172 211.636C161.237 211.195 161.865 210.63 162.04 209.951C162.327 208.845 161.474 207.455 161.154 207.039L160.297 205.966L161.445 205.213C163.005 204.189 163.854 203.199 163.775 202.492C163.675 201.585 162.111 200.711 161.4 200.449L158.778 199.476L161.25 198.173C161.582 198.03 161.869 197.8 162.081 197.507C162.294 197.214 162.423 196.869 162.456 196.509C162.509 195.945 162.34 195.383 161.986 194.941C150.412 190.023 135.497 191.966 130.072 194.109C128.58 194.693 127.32 195.748 126.481 197.112L116.076 213.95L75.7656 219.109L85.1516 204.676L54.0857 197.054Z" fill="#4F3CC9"/>
<path d="M150.391 198.215C150.391 198.215 157.297 198.256 162.311 199.434L150.391 198.215Z" fill="white"/>
<path d="M162.023 200.649C157.205 199.517 150.453 199.467 150.374 199.463V196.967C150.661 196.967 157.48 197.025 162.568 198.215L162.023 200.649Z" fill="#4F3CC9"/>
<path d="M150.719 204.676C154.541 204.666 158.341 205.254 161.981 206.419L150.719 204.676Z" fill="white"/>
<path d="M161.583 207.588C158.084 206.479 154.435 205.918 150.766 205.924L150.695 203.428C154.663 203.409 158.609 204.018 162.386 205.234L161.583 207.588Z" fill="#4F3CC9"/>
<path d="M150.291 211.154C150.291 211.154 156.648 210.563 160.796 212.935L150.291 211.154Z" fill="white"/>
<path d="M160.176 214.016C156.432 211.874 150.466 212.394 150.408 212.398L150.175 209.902C150.454 209.877 156.973 209.298 161.408 211.836L160.176 214.016Z" fill="#4F3CC9"/>
<path d="M100.05 183.895L87.3066 204.339L100.05 183.895Z" fill="white"/>
<path d="M86.2437 203.704L98.9896 183.258L101.108 184.579L88.362 205.024L86.2437 203.704Z" fill="#4F3CC9"/>
<path d="M223.984 25.6658C225.287 23.8698 226.795 22.232 228.478 20.7857C229.712 19.7358 230.839 18.5666 231.843 17.2951C232.573 16.3258 232.961 15.1422 232.946 13.9293C232.963 13.0971 232.777 12.2733 232.404 11.529C232.032 10.7846 231.484 10.142 230.807 9.65654C229.382 8.56651 227.474 8.0215 225.083 8.0215C221.596 8.0215 218.769 8.97839 216.6 10.8922C216.018 11.4088 215.284 11.7206 214.508 11.78C213.733 11.8394 212.959 11.643 212.306 11.2209C211.832 10.9121 211.439 10.4949 211.159 10.0037C210.878 9.51254 210.719 8.96163 210.694 8.39666C210.67 7.83168 210.78 7.26894 211.016 6.7551C211.252 6.24126 211.607 5.79112 212.052 5.44203C213.182 4.55799 214.411 3.80825 215.713 3.20789C218.565 1.89042 221.918 1.23169 225.773 1.23169C230.472 1.23169 234.216 2.24821 237.006 4.28127C239.797 6.31433 241.19 9.11291 241.188 12.677C241.226 14.2271 240.942 15.7683 240.356 17.2035C239.851 18.4056 239.161 19.5204 238.309 20.5069C237.32 21.6016 236.271 22.6405 235.168 23.6189C233.852 24.746 232.661 26.0111 231.615 27.3924C230.822 28.5349 230.414 29.9005 230.45 31.2907H222.462C222.448 29.0275 222.955 27.1525 223.984 25.6658ZM222.853 44.9161C222.39 44.4621 222.026 43.9181 221.782 43.3177C221.538 42.7174 221.419 42.0734 221.434 41.4255C221.418 40.7823 221.536 40.1429 221.78 39.5477C222.024 38.9525 222.389 38.4146 222.853 37.9682C223.331 37.506 223.898 37.1451 224.519 36.9071C225.14 36.669 225.803 36.5587 226.468 36.5828C227.123 36.5634 227.775 36.676 228.386 36.9141C228.996 37.1521 229.552 37.5106 230.021 37.9682C230.484 38.4148 230.849 38.9528 231.092 39.548C231.336 40.1432 231.453 40.7826 231.436 41.4255C231.451 42.0731 231.333 42.717 231.09 43.3174C230.847 43.9177 230.483 44.4618 230.021 44.9161C229.557 45.3819 229.002 45.7477 228.391 45.991C227.78 46.2343 227.126 46.3499 226.468 46.3306C225.801 46.3545 225.136 46.2413 224.514 45.998C223.892 45.7547 223.327 45.3865 222.853 44.9161Z" fill="#F582AE"/>
<path d="M226.468 47.5702C225.637 47.5951 224.809 47.4499 224.036 47.1438C223.263 46.8376 222.56 46.3768 221.971 45.7896C221.391 45.2207 220.934 44.5394 220.627 43.7875C220.32 43.0356 220.17 42.2289 220.186 41.417C220.168 40.6071 220.319 39.8024 220.627 39.0535C220.936 38.3045 221.396 37.6276 221.979 37.0652C222.575 36.4941 223.279 36.048 224.05 35.7529C224.821 35.4578 225.643 35.3198 226.468 35.3469C227.285 35.3217 228.098 35.4608 228.86 35.7559C229.622 36.0511 230.317 36.4963 230.903 37.0652C231.486 37.6276 231.946 38.3045 232.255 39.0535C232.564 39.8024 232.714 40.6071 232.696 41.417C232.711 42.2294 232.559 43.0363 232.251 43.7881C231.942 44.5399 231.484 45.221 230.903 45.7896C230.324 46.372 229.632 46.8303 228.869 47.1364C228.107 47.4426 227.29 47.5902 226.468 47.5702ZM226.468 37.8224C225.965 37.8001 225.462 37.8797 224.991 38.0563C224.519 38.2328 224.087 38.5028 223.722 38.85C223.38 39.1817 223.11 39.5814 222.931 40.0235C222.752 40.4656 222.667 40.9402 222.682 41.417C222.668 41.9008 222.755 42.3824 222.936 42.8313C223.117 43.2802 223.389 43.6868 223.735 44.0255C224.094 44.3794 224.522 44.6551 224.992 44.8356C225.462 45.016 225.965 45.0972 226.468 45.074C226.962 45.0925 227.454 45.0089 227.913 44.8285C228.373 44.6481 228.79 44.3748 229.139 44.0255C229.484 43.686 229.754 43.2791 229.935 42.8303C230.115 42.3816 230.201 41.9004 230.188 41.417C230.203 40.9402 230.118 40.4656 229.939 40.0235C229.76 39.5814 229.49 39.1817 229.148 38.85C228.792 38.5102 228.371 38.2459 227.911 38.0729C227.45 37.8999 226.96 37.8217 226.468 37.8432V37.8224ZM231.677 32.5386H221.193V31.2905C221.193 28.7943 221.788 26.6475 222.957 24.9542C224.319 23.0794 225.893 21.3691 227.65 19.8577C228.817 18.8604 229.887 17.7543 230.845 16.5543C231.406 15.7976 231.699 14.8752 231.677 13.9332C231.694 13.2909 231.551 12.6543 231.261 12.0812C230.97 11.508 230.541 11.0164 230.013 10.6507C228.819 9.73538 227.146 9.27357 225.05 9.27357C221.85 9.27357 219.346 10.1057 217.394 11.8322C216.607 12.5264 215.615 12.945 214.568 13.0246C213.522 13.1042 212.478 12.8404 211.595 12.2732C210.954 11.8565 210.422 11.2929 210.043 10.6292C209.664 9.96558 209.448 9.22105 209.414 8.45745C209.381 7.69386 209.529 6.93323 209.849 6.23871C210.168 5.54419 210.648 4.93583 211.249 4.46412C212.456 3.5224 213.767 2.72252 215.156 2.08021C218.16 0.69063 221.721 0 225.74 0C230.683 0 234.71 1.10667 237.701 3.29089C240.818 5.56248 242.398 8.72855 242.398 12.6934C242.43 14.4164 242.106 16.1273 241.446 17.7192C240.888 19.0402 240.127 20.2657 239.191 21.3513C238.169 22.4792 237.087 23.5514 235.95 24.5631C234.702 25.6298 233.571 26.8265 232.576 28.1328C231.933 29.0638 231.607 30.1765 231.644 31.3072L231.677 32.5386ZM223.751 30.0424H229.264C229.418 28.8274 229.868 27.6689 230.575 26.6683C231.674 25.2099 232.93 23.8762 234.319 22.6909C235.386 21.7425 236.402 20.737 237.36 19.6788C238.122 18.7896 238.741 17.7875 239.195 16.7082C239.717 15.4297 239.97 14.0574 239.94 12.6768C239.94 9.50656 238.737 7.09351 236.27 5.28789C233.712 3.42402 230.183 2.47961 225.778 2.47961C222.121 2.47961 218.913 3.10783 216.242 4.34348C215.028 4.90161 213.883 5.59975 212.83 6.42369C212.539 6.65081 212.306 6.94475 212.152 7.28073C211.997 7.61671 211.926 7.98486 211.944 8.35412C211.96 8.71869 212.063 9.07417 212.244 9.39059C212.426 9.70701 212.681 9.97509 212.988 10.1722C213.414 10.4442 213.917 10.5703 214.42 10.5312C214.924 10.4922 215.401 10.2902 215.78 9.95588C218.172 7.84239 221.305 6.77316 225.087 6.77316C227.745 6.77316 229.926 7.4097 231.569 8.66198C232.4 9.26264 233.073 10.0554 233.53 10.9726C233.988 11.8898 234.217 12.9041 234.198 13.9291C234.214 15.4103 233.74 16.8552 232.85 18.0396C231.797 19.3807 230.613 20.6128 229.314 21.7174C227.707 23.0982 226.263 24.6589 225.012 26.3687C224.29 27.4679 223.856 28.7314 223.751 30.0424Z" fill="#4F3CC9"/>
<path d="M82.7048 48.0572C84.0107 46.265 85.5199 44.6301 87.2022 43.1853C88.4343 42.1333 89.5615 40.9643 90.5679 39.6948C91.2947 38.7244 91.6808 37.5412 91.6663 36.329C91.684 35.496 91.4985 34.6713 91.1259 33.9261C90.7533 33.1809 90.2048 32.5377 89.5278 32.0521C88.0994 30.962 86.1926 30.417 83.8073 30.417C80.3208 30.417 77.4931 31.3739 75.3242 33.2877C74.7427 33.8053 74.0076 34.1181 73.2314 34.1782C72.4552 34.2383 71.6807 34.0424 71.0265 33.6205C70.5529 33.3115 70.1599 32.8939 69.88 32.4026C69.6 31.9112 69.4413 31.3602 69.4169 30.7953C69.3925 30.2303 69.5031 29.6677 69.7396 29.154C69.9761 28.6404 70.3317 28.1905 70.7768 27.8417C71.9031 26.9548 73.1307 26.2048 74.4338 25.6076C77.2879 24.2846 80.6426 23.6244 84.4979 23.6272C89.1909 23.6272 92.9352 24.6437 95.731 26.6768C98.5268 28.7099 99.9206 31.5084 99.9122 35.0725C99.9503 36.6226 99.667 38.1638 99.0802 39.5991C98.5758 40.8 97.8865 41.9146 97.0374 42.9024C96.045 43.9949 94.9951 45.0338 93.8921 46.0144C92.5762 47.1416 91.3851 48.4066 90.3391 49.7879C89.5488 50.9315 89.1423 52.2966 89.1784 53.6862H81.1904C81.1737 51.423 81.6785 49.5466 82.7048 48.0572ZM81.5731 67.3033C81.1115 66.8489 80.7478 66.3048 80.5045 65.7044C80.2612 65.1041 80.1435 64.4603 80.1586 63.8127C80.1413 63.1692 80.2581 62.5291 80.5016 61.9331C80.7452 61.3372 81.1101 60.7985 81.5731 60.3512C82.0525 59.8906 82.6196 59.531 83.2406 59.2937C83.8617 59.0564 84.5241 58.9463 85.1885 58.97C85.8431 58.95 86.4951 59.062 87.1055 59.2993C87.7159 59.5366 88.2723 59.8944 88.7415 60.3512C89.2046 60.7985 89.5695 61.3372 89.813 61.9331C90.0566 62.5291 90.1734 63.1692 90.1561 63.8127C90.1712 64.4603 90.0534 65.1041 89.8101 65.7044C89.5668 66.3048 89.2032 66.8489 88.7415 67.3033C88.2771 67.7689 87.7223 68.1346 87.1113 68.3779C86.5002 68.6211 85.8459 68.7368 85.1885 68.7178C84.5214 68.7405 83.8566 68.6267 83.2349 68.3835C82.6133 68.1402 82.0478 67.7727 81.5731 67.3033Z" fill="#77E0B5"/>
<path d="M85.1889 69.9657C84.3611 69.987 83.5376 69.8402 82.7682 69.5341C81.9987 69.228 81.2993 68.7691 80.7123 68.1851C80.134 67.6154 79.6779 66.9339 79.3717 66.1821C79.0656 65.4304 78.9158 64.6241 78.9317 63.8125C78.9148 63.0063 79.0642 62.2054 79.3706 61.4595C79.677 60.7136 80.1337 60.0389 80.7123 59.4773C81.3061 58.9018 82.0094 58.4513 82.7805 58.1526C83.5516 57.8538 84.3748 57.713 85.2014 57.7383C86.0161 57.7186 86.8264 57.8623 87.5845 58.161C88.3427 58.4597 89.0333 58.9073 89.6156 59.4773C90.1986 60.0395 90.6587 60.7165 90.9666 61.4656C91.2745 62.2146 91.4237 63.0195 91.4046 63.8291C91.4204 64.6407 91.2707 65.447 90.9645 66.1988C90.6584 66.9506 90.2022 67.6321 89.6239 68.2017C89.0433 68.7816 88.3505 69.237 87.588 69.5403C86.8255 69.8436 86.0092 69.9883 85.1889 69.9657ZM82.4555 66.4169C82.8145 66.7706 83.2424 67.0467 83.7126 67.2278C84.1829 67.4089 84.6855 67.4911 85.1889 67.4695C85.6826 67.4872 86.1746 67.4029 86.6342 67.2218C87.0938 67.0407 87.5111 66.7667 87.8599 66.4169C88.2052 66.0789 88.4767 65.6729 88.6572 65.2246C88.8376 64.7763 88.9232 64.2955 88.9083 63.8125C88.9251 63.3355 88.8412 62.8604 88.662 62.4181C88.4828 61.9758 88.2123 61.5762 87.8682 61.2455C87.5146 60.9016 87.0947 60.6332 86.6341 60.4566C86.1735 60.2799 85.6819 60.1987 85.1889 60.2179C84.6863 60.1962 84.1845 60.276 83.7135 60.4526C83.2424 60.6291 82.8117 60.8988 82.4472 61.2455C82.1038 61.5767 81.8337 61.9763 81.6546 62.4185C81.4754 62.8607 81.3911 63.3356 81.4071 63.8125C81.3923 64.2955 81.4778 64.7763 81.6583 65.2246C81.8387 65.6729 82.1102 66.0789 82.4555 66.4169ZM90.4019 54.9341H79.9177V53.686C79.9177 51.1898 80.5085 49.043 81.6775 47.3497C83.0383 45.4741 84.6133 43.7637 86.3705 42.2532C87.539 41.2571 88.609 40.1509 89.5657 38.9498C90.1334 38.1952 90.4335 37.2729 90.4186 36.3287C90.4359 35.6858 90.2928 35.0487 90.0023 34.4749C89.7117 33.9011 89.2829 33.4086 88.7544 33.042C87.5562 32.1309 85.8879 31.6649 83.791 31.6649C80.5875 31.6649 78.0829 32.497 76.1317 34.2236C75.3448 34.9184 74.3526 35.3374 73.3059 35.417C72.2591 35.4966 71.215 35.2324 70.3321 34.6646C69.6922 34.2477 69.1608 33.6843 68.7822 33.021C68.4035 32.3578 68.1884 31.6138 68.1546 30.8508C68.1208 30.0878 68.2694 29.3278 68.5881 28.6337C68.9067 27.9396 69.3862 27.3314 69.9868 26.8596C71.1912 25.9148 72.5023 25.1147 73.8934 24.4757C76.8972 23.082 80.4585 22.3955 84.4817 22.3955C89.4242 22.3955 93.4474 23.5022 96.4429 25.6822C99.559 27.958 101.136 31.1199 101.136 35.089C101.167 36.8119 100.843 38.5228 100.183 40.1147C99.627 41.4342 98.8675 42.6584 97.9323 43.7426C96.9099 44.8715 95.8265 45.9437 94.6872 46.9545C93.4398 48.0223 92.31 49.2204 91.3172 50.5283C90.6742 51.4591 90.3475 52.572 90.3853 53.7027L90.4019 54.9341ZM82.4763 52.4379H87.9847C88.1403 51.2226 88.5918 50.064 89.2994 49.0638C90.3994 47.6047 91.6549 46.2697 93.0438 45.0823C94.1121 44.1363 95.1274 43.1321 96.0851 42.0743C96.8481 41.1845 97.4672 40.1808 97.9198 39.0996C98.4417 37.8225 98.6952 36.4516 98.6645 35.0723C98.6645 31.9021 97.4663 29.4849 94.995 27.6834C92.4364 25.8195 88.9083 24.8751 84.5066 24.8751C80.8496 24.8751 77.6419 25.4992 74.9709 26.739C73.756 27.296 72.611 27.9943 71.5594 28.8192C71.2672 29.0458 71.034 29.3397 70.8797 29.6758C70.7254 30.0119 70.6546 30.3803 70.6732 30.7496C70.6878 31.115 70.7903 31.4714 70.9721 31.7887C71.1539 32.106 71.4096 32.3746 71.7175 32.5719C72.1427 32.8437 72.6451 32.9692 73.1482 32.9294C73.6514 32.8896 74.1277 32.6867 74.505 32.3514C76.8972 30.2421 80.03 29.1687 83.816 29.1687C86.4745 29.1687 88.6546 29.8052 90.2938 31.0617C91.125 31.6618 91.7984 32.4545 92.2563 33.3718C92.7142 34.2891 92.943 35.3037 92.9231 36.3287C92.938 37.8099 92.4642 39.2546 91.5752 40.4392C90.5223 41.7803 89.3376 43.0124 88.0388 44.1171C86.4321 45.4955 84.99 47.0549 83.7411 48.7642C83.0156 49.8621 82.5804 51.1261 82.4763 52.4379Z" fill="#4F3CC9"/>
</svg>
