<svg width="16" height="11" viewBox="0 0 16 11" fill="none" xmlns="http://www.w3.org/2000/svg">
<path d="M8.00288 11H4.26425C3.88923 11 3.74501 10.8394 3.75047 10.4309C3.77808 8.24642 5.28908 6.29977 7.24329 5.93213C9.57559 5.4932 11.7176 7.10071 12.1868 9.65059C12.2316 9.91776 12.258 10.1883 12.2659 10.4598C12.2822 10.8203 12.1162 10.9996 11.7906 10.9996L8.00288 11ZM7.9456 5.14544C9.25307 5.17133 10.3226 4.04401 10.34 2.6222C10.3573 1.20039 9.33592 0.0209212 8.05948 0.000288039C6.74553 -0.0207202 5.69479 1.10997 5.67297 2.56705C5.65524 3.93822 6.69678 5.12106 7.9456 5.14544ZM11.4766 6.46709C12.2427 7.24815 12.7224 8.21115 12.9634 9.32459C12.9917 9.45552 12.9815 9.63747 13.0565 9.70349C13.1315 9.76952 13.2917 9.72788 13.4145 9.72788C14.1245 9.72788 14.8349 9.72788 15.5456 9.72788C15.8402 9.72788 16.0117 9.5403 15.9994 9.21955C15.9944 9.00887 15.9731 8.79904 15.936 8.5923C15.6496 7.12472 14.59 6.06943 13.2368 5.916C12.5846 5.84097 11.9703 5.9974 11.3617 6.39131C11.402 6.41275 11.4404 6.43811 11.4766 6.46709ZM12.9354 5.37166C13.2795 5.37314 13.6161 5.2623 13.9029 5.05318C14.1896 4.84405 14.4135 4.54603 14.5463 4.19682C14.6791 3.84762 14.7147 3.46292 14.6487 3.09142C14.5827 2.71991 14.4181 2.3783 14.1756 2.10979C13.9331 1.84129 13.6237 1.65797 13.2865 1.58303C12.9493 1.50809 12.5995 1.5449 12.2813 1.68879C11.9631 1.83269 11.6909 2.07721 11.499 2.39141C11.3072 2.70561 11.2043 3.07537 11.2035 3.4539C11.2024 3.96081 11.3842 4.44747 11.7089 4.80704C12.0337 5.1666 12.4748 5.36967 12.9354 5.37166ZM4.63654 6.39206C4.02969 5.99815 3.41533 5.84284 2.76348 5.91674C1.40999 6.07018 0.350378 7.12547 0.0639978 8.59305C0.0268269 8.7998 0.00561422 9.00962 0.000585376 9.2203C-0.0113472 9.54105 0.159799 9.72787 0.454362 9.72862C1.16486 9.73037 1.87524 9.73037 2.58551 9.72862C2.70859 9.72862 2.86746 9.77177 2.94349 9.70424C3.01951 9.63672 3.00826 9.45627 3.03656 9.32534C3.2776 8.2119 3.75729 7.2489 4.52335 6.46784C4.55898 6.43895 4.59686 6.4136 4.63654 6.39206ZM4.79644 3.45465C4.79509 3.07697 4.69203 2.7082 4.50027 2.39496C4.30852 2.08171 4.03668 1.83804 3.71911 1.69474C3.40154 1.55144 3.05249 1.51495 2.71608 1.58987C2.37967 1.66478 2.07099 1.84775 1.82905 2.11565C1.58711 2.38355 1.42277 2.72436 1.3568 3.095C1.29082 3.46564 1.32618 3.84948 1.4584 4.19802C1.59062 4.54656 1.81377 4.84414 2.09964 5.05317C2.38552 5.2622 2.72129 5.37329 3.06452 5.3724C3.52531 5.37042 3.96654 5.16725 4.29128 4.80752C4.61602 4.4478 4.79771 3.96094 4.79644 3.4539V3.45465Z" fill="#959595"/>
</svg>
