<svg width="10" height="6" viewBox="0 0 10 6" fill="none" xmlns="http://www.w3.org/2000/svg">
<path fill-rule="evenodd" clip-rule="evenodd" d="M9.77613 0.201552C9.65431 0.07149 9.49219 -0.000156 9.31976 -0.000156C9.14721 -0.000156 8.98509 0.07149 8.8634 0.201552L4.9822 4.33884L1.10113 0.202326C0.97931 0.072162 0.81718 0.00042 0.64463 0.00042C0.47208 0.00042 0.30996 0.071586 0.18776 0.202326C-0.06363 0.470472 -0.06363 0.907308 0.18789 1.17603L4.52558 5.80017C4.64638 5.9285 4.80838 5.99918 4.98182 5.99918C4.98182 5.99918 4.98182 5.99918 4.98194 5.99918C5.15577 5.99918 5.31802 5.92821 5.43856 5.7993L9.77626 1.17555C10.0271 0.907308 10.0271 0.470472 9.77613 0.201552Z" fill="#818181"/>
</svg>
