<svg width="14" height="13" viewBox="0 0 14 13" fill="none" xmlns="http://www.w3.org/2000/svg">
<path d="M11.1445 8.57422C10.8337 8.92783 10.4114 9.05297 9.95157 9.156C9.95157 9.06112 9.95768 8.9741 9.95041 8.88825C9.92392 8.57684 9.90879 8.2631 9.8596 7.95489C9.78219 7.4709 9.58574 7.04191 9.18323 6.73574C9.0543 6.63766 8.91053 6.55878 8.77985 6.47526C8.90005 6.45023 9.03335 6.43539 9.15675 6.3926C9.25366 6.35913 9.33835 6.29045 9.42916 6.23864C9.45273 6.22526 9.48125 6.20343 9.50337 6.2075C9.8046 6.26571 10.1038 6.33178 10.3852 6.461C10.7609 6.63329 10.9789 6.92782 11.0523 7.32712C11.0913 7.539 11.1038 7.75582 11.1274 7.97061C11.1346 8.03696 11.139 8.10361 11.1445 8.16997V8.57422ZM7.38288 10.294C7.87735 10.2547 8.36425 10.1743 8.82671 9.98487C9.04732 9.89436 9.25308 9.77998 9.42887 9.61496C9.51938 9.52998 9.57031 9.43598 9.55489 9.30617C9.54237 9.20198 9.54761 9.09575 9.54354 8.9904C9.53015 8.63359 9.51705 8.27707 9.43876 7.92637C9.33428 7.45867 9.0869 7.10506 8.64569 6.8961C8.29324 6.72904 7.91809 6.64319 7.53829 6.57188C7.51559 6.56752 7.48212 6.57188 7.46699 6.58643C7.24813 6.79307 6.98008 6.87194 6.68875 6.87951C6.37589 6.88766 6.08573 6.81693 5.84155 6.60448C5.81593 6.58207 5.76675 6.5681 5.73444 6.57567C5.48124 6.63416 5.226 6.68859 4.97775 6.76397C4.66081 6.8603 4.37006 7.00844 4.15266 7.27183C3.97222 7.49039 3.88578 7.74942 3.83252 8.02183C3.74957 8.44645 3.75859 8.87806 3.73473 9.30734C3.72716 9.44151 3.77373 9.53842 3.86948 9.62137C3.89596 9.64436 3.92128 9.66881 3.94893 9.69063C4.23939 9.92114 4.57786 10.0469 4.93147 10.1382C5.49376 10.2835 6.06855 10.3204 6.7685 10.3236C6.89219 10.3181 7.13841 10.3135 7.38346 10.294H7.38288ZM5.10726 4.58963C5.10871 4.63649 5.11075 4.68334 5.11483 4.72991C5.16256 5.25378 5.34766 5.71652 5.75249 6.06519C6.18293 6.43626 6.67216 6.52881 7.19749 6.28812C7.64743 6.08178 7.91809 5.70896 8.06914 5.24941C8.24726 4.70692 8.21641 4.15657 8.077 3.6132C7.94807 3.11116 7.61134 2.81605 7.10232 2.71913C6.81768 2.665 6.5313 2.66296 6.24609 2.70837C5.7327 2.79015 5.37967 3.06634 5.22309 3.57333C5.13403 3.86175 5.11133 4.1586 5.10697 4.45808C5.10697 4.50203 5.1061 4.54597 5.10697 4.58963H5.10726ZM4.15062 3.07653C3.74753 3.14958 3.47309 3.3763 3.35405 3.77589C3.26441 4.07682 3.24928 4.38619 3.26558 4.69702C3.281 4.98893 3.36628 5.26134 3.52926 5.50465C3.78421 5.88533 4.12792 6.10855 4.60289 6.07595C4.77286 6.06431 4.93118 6.01018 5.06884 5.91559C4.5604 4.99213 4.60406 4.05703 4.95388 3.09719C4.69137 3.03491 4.42041 3.02763 4.15062 3.07653ZM8.22048 5.91821C8.47834 6.07363 8.75337 6.12543 9.0447 6.04627C9.46408 5.93247 9.73213 5.64435 9.8922 5.2561C10.1026 4.74621 10.0703 4.22409 9.91228 3.70924C9.81857 3.40423 9.59883 3.20487 9.29237 3.11436C8.97456 3.02036 8.65267 3.02792 8.33661 3.09661C8.68789 4.06023 8.73067 4.99766 8.22048 5.91821ZM4.43758 6.45692C4.21552 6.44237 4.01296 6.3798 3.84532 6.22467C3.8299 6.21041 3.79643 6.20488 3.77489 6.21012C3.56447 6.2596 3.35172 6.30267 3.14538 6.36612C2.67274 6.51164 2.3459 6.80209 2.23909 7.30646C2.15818 7.69005 2.16197 8.07974 2.14479 8.46857C2.14159 8.54278 2.16779 8.59692 2.21639 8.64814C2.34823 8.78638 2.50975 8.87981 2.68147 8.95664C2.88636 9.04832 3.10085 9.10827 3.32786 9.15076C3.33135 9.07742 3.33252 9.01339 3.33775 8.94936C3.36162 8.64901 3.3753 8.34721 3.4143 8.04889C3.46523 7.65774 3.59329 7.29249 3.84911 6.98253C4.03188 6.76135 4.26529 6.60797 4.54614 6.47002C4.49346 6.46362 4.46552 6.45896 4.43729 6.45721L4.43758 6.45692Z" fill="#959595"/>
<rect x="0.294531" y="0.15" width="12.7" height="12.7" rx="6.35" stroke="#959595" stroke-width="0.3"/>
</svg>
