<svg width="30" height="31" viewBox="0 0 30 31" fill="none" xmlns="http://www.w3.org/2000/svg">
<path d="M15 15.3339C12.9375 15.3339 11.1719 14.5995 9.70312 13.1307C8.23438 11.662 7.5 9.89636 7.5 7.83386C7.5 5.77136 8.23438 4.00574 9.70312 2.53699C11.1719 1.06824 12.9375 0.333862 15 0.333862C17.0625 0.333862 18.8281 1.06824 20.2969 2.53699C21.7656 4.00574 22.5 5.77136 22.5 7.83386C22.5 9.89636 21.7656 11.662 20.2969 13.1307C18.8281 14.5995 17.0625 15.3339 15 15.3339ZM0 30.3339V25.0839C0 24.0214 0.27375 23.0445 0.82125 22.1532C1.3675 21.2632 2.09375 20.5839 3 20.1151C4.9375 19.1464 6.90625 18.4195 8.90625 17.9345C10.9062 17.4507 12.9375 17.2089 15 17.2089C17.0625 17.2089 19.0938 17.4507 21.0938 17.9345C23.0938 18.4195 25.0625 19.1464 27 20.1151C27.9062 20.5839 28.6325 21.2632 29.1788 22.1532C29.7262 23.0445 30 24.0214 30 25.0839V30.3339H0ZM3.75 26.5839H26.25V25.0839C26.25 24.7401 26.1644 24.4276 25.9931 24.1464C25.8206 23.8651 25.5938 23.6464 25.3125 23.4901C23.625 22.6464 21.9219 22.0132 20.2031 21.5907C18.4844 21.1695 16.75 20.9589 15 20.9589C13.25 20.9589 11.5156 21.1695 9.79688 21.5907C8.07813 22.0132 6.375 22.6464 4.6875 23.4901C4.40625 23.6464 4.18 23.8651 4.00875 24.1464C3.83625 24.4276 3.75 24.7401 3.75 25.0839V26.5839ZM15 11.5839C16.0312 11.5839 16.9144 11.2164 17.6494 10.4814C18.3831 9.74761 18.75 8.86511 18.75 7.83386C18.75 6.80261 18.3831 5.92011 17.6494 5.18636C16.9144 4.45136 16.0312 4.08386 15 4.08386C13.9688 4.08386 13.0863 4.45136 12.3525 5.18636C11.6175 5.92011 11.25 6.80261 11.25 7.83386C11.25 8.86511 11.6175 9.74761 12.3525 10.4814C13.0863 11.2164 13.9688 11.5839 15 11.5839Z" fill="#F16C84"/>
</svg>
