<svg xmlns="http://www.w3.org/2000/svg" width="8" height="10" viewBox="0 0 8 10" fill="none">
  <path d="M3.50447 7.00042H3.34803C2.4269 7.00042 1.50515 6.99167 0.584025 7.0048C0.205124 7.01011 -0.0151456 6.75473 0.000811433 6.39526C0.0502469 5.28341 0.45324 4.32847 1.25234 3.55421C1.43851 3.37323 1.54551 3.19505 1.50265 2.93592C1.49574 2.8736 1.49574 2.8107 1.50265 2.74837C1.52267 2.42204 1.47918 2.12321 1.3071 1.82438C1.08088 1.43147 1.01205 0.980412 1.00548 0.525293C0.999846 0.220214 1.20729 0.00296953 1.51078 0.00140662C3.17031 -0.000468873 4.82963 -0.000468873 6.48874 0.00140662C6.79412 0.00140662 7.00594 0.217088 6.99812 0.52248C6.98404 1.0945 6.85357 1.63465 6.54225 2.12352C6.51722 2.16652 6.50405 2.21538 6.50408 2.26512C6.50063 2.57395 6.49813 2.88278 6.50564 3.1913C6.5092 3.2583 6.53661 3.32183 6.58292 3.37041C7.03535 3.80459 7.41738 4.28753 7.66518 4.8708C7.88186 5.37859 7.99565 5.92424 7.99997 6.47622C8.0031 6.78881 7.79002 6.99917 7.46807 6.9998C6.53109 7.00167 5.594 7.00167 4.65682 6.9998H4.50038V7.14577C4.50038 7.92316 4.50038 8.70087 4.50038 9.47857C4.50038 9.7949 4.28136 10.01 3.98036 9.99964C3.8582 9.99533 3.74204 9.9456 3.65465 9.8602C3.56726 9.77481 3.51493 9.65989 3.50791 9.53796C3.5051 9.49108 3.50572 9.44419 3.50572 9.3973V6.9998L3.50447 7.00042Z" fill="#818181"/>
</svg>