<svg width="21" height="30" viewBox="0 0 21 30" fill="none" xmlns="http://www.w3.org/2000/svg">
<path d="M7.26847 14.9852L8.38916 11.335L5.44335 8.96552H9.0936L10.2463 5.37931L11.399 8.96552H15.0493L12.0714 11.335L13.1921 14.9852L10.2463 12.7118L7.26847 14.9852ZM2.56158 30V17.0025C1.75041 16.1059 1.12069 15.0813 0.672414 13.9286C0.224138 12.7759 0 11.5484 0 10.2463C0 7.38588 0.992611 4.96305 2.97783 2.97783C4.96305 0.992611 7.38588 0 10.2463 0C13.1067 0 15.5296 0.992611 17.5148 2.97783C19.5 4.96305 20.4926 7.38588 20.4926 10.2463C20.4926 11.5484 20.2685 12.7759 19.8202 13.9286C19.3719 15.0813 18.7422 16.1059 17.931 17.0025V30L10.2463 27.4384L2.56158 30ZM10.2463 17.931C12.381 17.931 14.1954 17.1839 15.6897 15.6897C17.1839 14.1954 17.931 12.381 17.931 10.2463C17.931 8.11166 17.1839 6.29721 15.6897 4.80296C14.1954 3.3087 12.381 2.56158 10.2463 2.56158C8.11166 2.56158 6.29721 3.3087 4.80296 4.80296C3.3087 6.29721 2.56158 8.11166 2.56158 10.2463C2.56158 12.381 3.3087 14.1954 4.80296 15.6897C6.29721 17.1839 8.11166 17.931 10.2463 17.931ZM5.12315 26.1897L10.2463 24.8768L15.3695 26.1897V19.1158C14.6223 19.5427 13.8167 19.8787 12.9526 20.1237C12.0877 20.3697 11.1855 20.4926 10.2463 20.4926C9.30706 20.4926 8.40496 20.3697 7.54 20.1237C6.6759 19.8787 5.87028 19.5427 5.12315 19.1158V26.1897Z" fill="#F1BD6C"/>
</svg>
