<svg xmlns="http://www.w3.org/2000/svg" width="24" height="24" viewBox="0 0 24 24" fill="none">
<path d="M12 23.5C18.3513 23.5 23.5 18.3513 23.5 12C23.5 5.64873 18.3513 0.5 12 0.5C5.64873 0.5 0.5 5.64873 0.5 12C0.5 18.3513 5.64873 23.5 12 23.5Z" fill="white" stroke="#DFE1E6"/>
<path d="M12.1382 11.5187L12.1241 7.08265C12.1245 7.0168 12.1118 6.9515 12.0868 6.8906C12.0617 6.82969 12.0248 6.77437 11.9783 6.72781C11.9317 6.68125 11.8764 6.64437 11.8155 6.61934C11.7546 6.59431 11.6893 6.58165 11.6234 6.58201C11.4917 6.58222 11.3653 6.63468 11.2721 6.72786C11.179 6.82104 11.1265 6.94739 11.1263 7.07917L11.1404 11.5151L6.70441 11.5011C6.57263 11.5013 6.44628 11.5537 6.3531 11.6469C6.25991 11.7401 6.20746 11.8664 6.20725 11.9982C6.20689 12.0641 6.21955 12.1294 6.24458 12.1903C6.26961 12.2512 6.30649 12.3065 6.35305 12.353C6.39961 12.3996 6.45493 12.4365 6.51583 12.4615C6.57674 12.4865 6.64204 12.4992 6.70789 12.4988L11.1439 12.5129L11.158 16.949C11.1576 17.0148 11.1703 17.0801 11.1953 17.141C11.2204 17.2019 11.2572 17.2572 11.3038 17.3038C11.3504 17.3504 11.4057 17.3872 11.4666 17.4123C11.5275 17.4373 11.5928 17.45 11.6586 17.4496C11.7904 17.4494 11.9168 17.3969 12.01 17.3038C12.1031 17.2106 12.1556 17.0842 12.1558 16.9524L12.1417 12.5164L16.5777 12.5306C16.7095 12.5304 16.8358 12.4779 16.929 12.3847C17.0222 12.2915 17.0746 12.1652 17.0748 12.0334C17.0752 11.9676 17.0625 11.9023 17.0375 11.8414C17.0125 11.7805 16.9756 11.7251 16.929 11.6786C16.8825 11.632 16.8272 11.5951 16.7663 11.5701C16.7053 11.5451 16.6401 11.5324 16.5742 11.5328L12.1382 11.5187Z" fill="#818181" stroke="#818181" stroke-width="0.5"/>
</svg>