<svg width="14" height="14" viewBox="0 0 14 14" fill="none" xmlns="http://www.w3.org/2000/svg">
<path d="M7.69595 6.37511L7.69389 0.814527C7.69458 0.731986 7.67893 0.650174 7.64777 0.573917C7.6166 0.49766 7.57058 0.428445 7.51238 0.370244C7.45418 0.312043 7.38496 0.266012 7.3087 0.23485C7.23244 0.203688 7.15064 0.188043 7.0681 0.18873C6.90291 0.189451 6.74435 0.255652 6.62721 0.372785C6.51008 0.489918 6.44388 0.648478 6.44316 0.813668L6.44532 6.37415L0.884735 6.37209C0.719546 6.37281 0.560986 6.43901 0.443853 6.55615C0.326719 6.67328 0.260519 6.83184 0.259797 6.99703C0.25911 7.07957 0.274755 7.16138 0.305917 7.23763C0.33708 7.31389 0.38311 7.38311 0.441312 7.44131C0.499513 7.49951 0.568728 7.54554 0.644984 7.5767C0.721241 7.60786 0.803053 7.62351 0.885594 7.62283L6.44618 7.62488L6.44824 13.1855C6.44755 13.268 6.4632 13.3498 6.49436 13.4261C6.52552 13.5023 6.57155 13.5716 6.62976 13.6298C6.68796 13.688 6.75718 13.734 6.83344 13.7652C6.90969 13.7963 6.9915 13.812 7.07404 13.8113C7.23923 13.8105 7.39779 13.7443 7.51492 13.6272C7.63205 13.5101 7.69825 13.3515 7.69898 13.1863L7.69692 7.62575L13.2574 7.62791C13.4226 7.62719 13.5811 7.56099 13.6983 7.44385C13.8154 7.32672 13.8816 7.16816 13.8823 7.00297C13.883 6.92043 13.8674 6.83862 13.8362 6.76237C13.8051 6.68611 13.759 6.61689 13.7008 6.55869C13.6426 6.50049 13.5734 6.45446 13.4971 6.42329C13.4209 6.39213 13.3391 6.37649 13.2565 6.37717L7.69595 6.37511Z" fill="#535358"/>
</svg>
