<svg width="26" height="26" viewBox="0 0 26 26" fill="none" xmlns="http://www.w3.org/2000/svg">
<g id="Group 40702">
<rect id="Rectangle 2040" x="0.5" y="0.5" width="25" height="25" rx="5.5" stroke="#E0E0E0"/>
<path id="Shape 614" d="M13.1382 12.5187L13.1241 8.08265C13.1245 8.0168 13.1118 7.9515 13.0868 7.8906C13.0617 7.82969 13.0248 7.77437 12.9783 7.72781C12.9317 7.68125 12.8764 7.64437 12.8155 7.61934C12.7546 7.59431 12.6893 7.58165 12.6234 7.58201C12.4917 7.58222 12.3653 7.63468 12.2721 7.72786C12.179 7.82104 12.1265 7.94739 12.1263 8.07917L12.1404 12.5151L7.70441 12.5011C7.57263 12.5013 7.44628 12.5537 7.3531 12.6469C7.25991 12.7401 7.20746 12.8664 7.20725 12.9982C7.20689 13.0641 7.21955 13.1294 7.24458 13.1903C7.26961 13.2512 7.30649 13.3065 7.35305 13.353C7.39961 13.3996 7.45493 13.4365 7.51583 13.4615C7.57674 13.4865 7.64204 13.4992 7.70789 13.4988L12.1439 13.5129L12.158 17.949C12.1576 18.0148 12.1703 18.0801 12.1953 18.141C12.2204 18.2019 12.2572 18.2572 12.3038 18.3038C12.3504 18.3504 12.4057 18.3872 12.4666 18.4123C12.5275 18.4373 12.5928 18.45 12.6586 18.4496C12.7904 18.4494 12.9168 18.3969 13.01 18.3038C13.1031 18.2106 13.1556 18.0842 13.1558 17.9524L13.1417 13.5164L17.5777 13.5306C17.7095 13.5304 17.8358 13.4779 17.929 13.3847C18.0222 13.2915 18.0746 13.1652 18.0748 13.0334C18.0752 12.9676 18.0625 12.9023 18.0375 12.8414C18.0125 12.7805 17.9756 12.7251 17.929 12.6786C17.8825 12.632 17.8272 12.5951 17.7663 12.5701C17.7053 12.5451 17.6401 12.5324 17.5742 12.5328L13.1382 12.5187Z" fill="#818181" stroke="#818181" stroke-width="0.5"/>
</g>
</svg>
