<svg width="13" height="12" viewBox="0 0 13 12" fill="none" xmlns="http://www.w3.org/2000/svg">
<path d="M6.91404 5.51869L6.89997 1.08265C6.90033 1.0168 6.88766 0.9515 6.86263 0.890596C6.8376 0.829692 6.80073 0.774372 6.75417 0.72781C6.70761 0.681249 6.65228 0.644373 6.59138 0.619342C6.53047 0.594312 6.46518 0.581648 6.39933 0.582012C6.26755 0.582218 6.1412 0.634676 6.04802 0.727859C5.95484 0.821042 5.90238 0.947387 5.90217 1.07917L5.91633 5.51512L1.48029 5.50105C1.3485 5.50126 1.22216 5.55372 1.12898 5.6469C1.03579 5.74009 0.983335 5.86643 0.983129 5.99821C0.982766 6.06406 0.995429 6.12935 1.02046 6.19026C1.04549 6.25116 1.08237 6.30649 1.12893 6.35305C1.17549 6.39961 1.23081 6.43648 1.29171 6.46151C1.35262 6.48654 1.41792 6.49921 1.48377 6.49885L5.91981 6.51292L5.93388 10.949C5.93352 11.0148 5.94618 11.0801 5.97122 11.141C5.99625 11.2019 6.03312 11.2572 6.07968 11.3038C6.12624 11.3504 6.18157 11.3872 6.24247 11.4123C6.30338 11.4373 6.36868 11.45 6.43452 11.4496C6.5663 11.4494 6.69265 11.3969 6.78583 11.3038C6.87901 11.2106 6.93147 11.0842 6.93168 10.9524L6.91761 6.5164L11.3536 6.53056C11.4853 6.53035 11.6117 6.4779 11.7049 6.38471C11.7981 6.29153 11.8505 6.16518 11.8507 6.0334C11.8511 5.96756 11.8384 5.90226 11.8134 5.84136C11.7884 5.78045 11.7515 5.72513 11.7049 5.67857C11.6584 5.632 11.603 5.59513 11.5421 5.5701C11.4812 5.54507 11.4159 5.5324 11.3501 5.53277L6.91404 5.51869Z" fill="#535358" stroke="#535358" stroke-width="0.5"/>
</svg>
