<svg width="27" height="47" viewBox="0 0 27 47" fill="none" xmlns="http://www.w3.org/2000/svg">
<mask id="path-1-inside-1_9320_138179" fill="white">
<path fill-rule="evenodd" clip-rule="evenodd" d="M0.00482519 19V0.344826H2.34965V11.131V22.6207H22.8048L17.529 16.6414L18.9359 15L26.5041 23.5L18.9359 32L17.529 30.8276L22.8048 24.9655H3.52207C3.41582 24.9655 3.30611 24.9667 3.19406 24.9679C2.91974 24.9707 2.63142 24.9738 2.34569 24.9604L2.3457 47H0.000875171L0.000868185 22.6791C-0.000480267 22.581 -8.14502e-05 22.4809 0.000868099 22.3788L0.000867128 19C0.00218688 19 0.00350625 19 0.00482519 19Z"/>
</mask>
<path fill-rule="evenodd" clip-rule="evenodd" d="M0.00482519 19V0.344826H2.34965V11.131V22.6207H22.8048L17.529 16.6414L18.9359 15L26.5041 23.5L18.9359 32L17.529 30.8276L22.8048 24.9655H3.52207C3.41582 24.9655 3.30611 24.9667 3.19406 24.9679C2.91974 24.9707 2.63142 24.9738 2.34569 24.9604L2.3457 47H0.000875171L0.000868185 22.6791C-0.000480267 22.581 -8.14502e-05 22.4809 0.000868099 22.3788L0.000867128 19C0.00218688 19 0.00350625 19 0.00482519 19Z" fill="#d7d7d7"/>
<path d="M0.00482519 0.344826V-0.155174H-0.495175V0.344826H0.00482519ZM0.00482519 19L0.00337908 19.5L0.504825 19.5015V19H0.00482519ZM2.34965 0.344826H2.84965V-0.155174H2.34965V0.344826ZM2.34965 22.6207H1.84965V23.1207H2.34965V22.6207ZM22.8048 22.6207V23.1207H23.9128L23.1797 22.2899L22.8048 22.6207ZM17.529 16.6414L17.1493 16.316L16.8663 16.6461L17.154 16.9722L17.529 16.6414ZM18.9359 15L19.3093 14.6675L18.9287 14.2401L18.5562 14.6746L18.9359 15ZM26.5041 23.5L26.8775 23.8325L27.1736 23.5L26.8775 23.1675L26.5041 23.5ZM18.9359 32L18.6158 32.3841L18.9875 32.6939L19.3093 32.3325L18.9359 32ZM17.529 30.8276L17.1573 30.4931L16.8098 30.8792L17.2089 31.2117L17.529 30.8276ZM22.8048 24.9655L23.1765 25.3L23.9275 24.4655H22.8048V24.9655ZM3.19406 24.9679L3.19932 25.4678L3.19933 25.4678L3.19406 24.9679ZM2.34569 24.9604L2.36914 24.4609L1.84569 24.4363L1.84569 24.9604L2.34569 24.9604ZM2.3457 47V47.5H2.8457L2.8457 47L2.3457 47ZM0.000875171 47L-0.499125 47L-0.499125 47.5H0.000875171V47ZM0.000868185 22.6791L0.500915 22.6791L0.500821 22.6722L0.000868185 22.6791ZM0.000868099 22.3788L0.500868 22.3834L0.500868 22.3788L0.000868099 22.3788ZM0.000867128 19V18.5H-0.499133L-0.499133 19L0.000867128 19ZM-0.495175 0.344826V19H0.504825V0.344826H-0.495175ZM2.34965 -0.155174H0.00482519V0.844826H2.34965V-0.155174ZM2.84965 11.131V0.344826H1.84965V11.131H2.84965ZM2.84965 22.6207V11.131H1.84965V22.6207H2.84965ZM22.8048 22.1207H2.34965V23.1207H22.8048V22.1207ZM17.154 16.9722L22.4299 22.9515L23.1797 22.2899L17.9039 16.3106L17.154 16.9722ZM18.5562 14.6746L17.1493 16.316L17.9086 16.9668L19.3155 15.3254L18.5562 14.6746ZM26.8775 23.1675L19.3093 14.6675L18.5624 15.3325L26.1307 23.8325L26.8775 23.1675ZM19.3093 32.3325L26.8775 23.8325L26.1307 23.1675L18.5624 31.6675L19.3093 32.3325ZM17.2089 31.2117L18.6158 32.3841L19.2559 31.6159L17.8491 30.4435L17.2089 31.2117ZM22.4332 24.631L17.1573 30.4931L17.9006 31.1621L23.1765 25.3L22.4332 24.631ZM3.52207 25.4655H22.8048V24.4655H3.52207V25.4655ZM3.19933 25.4678C3.31189 25.4666 3.41892 25.4655 3.52207 25.4655V24.4655C3.41272 24.4655 3.30032 24.4667 3.18879 24.4679L3.19933 25.4678ZM2.32225 25.4598C2.62468 25.474 2.92731 25.4707 3.19932 25.4678L3.1888 24.4679C2.91216 24.4708 2.63815 24.4735 2.36914 24.4609L2.32225 25.4598ZM1.84569 24.9604L1.8457 47L2.8457 47L2.84569 24.9604L1.84569 24.9604ZM2.3457 46.5H0.000875171V47.5H2.3457V46.5ZM0.500875 47L0.500868 22.6791L-0.499132 22.6791L-0.499125 47L0.500875 47ZM-0.49911 22.3742C-0.500073 22.4777 -0.500511 22.5822 -0.499085 22.686L0.500821 22.6722C0.499551 22.5798 0.49991 22.4842 0.500846 22.3834L-0.49911 22.3742ZM0.500868 22.3788L0.500867 19L-0.499133 19L-0.499132 22.3788L0.500868 22.3788ZM0.000867128 19.5C0.00170514 19.5 0.00254247 19.5 0.00337908 19.5L0.0062713 18.5C0.00447002 18.5 0.00266861 18.5 0.000867128 18.5V19.5Z" fill="#d7d7d7" mask="url(#path-1-inside-1_9320_138179)"/>
</svg>
