<svg width="33" height="40" viewBox="0 0 33 40" fill="none" xmlns="http://www.w3.org/2000/svg">
<path d="M32.4674 16.0558C32.4626 15.0908 32.1656 14.7987 31.22 14.7841C30.413 14.7728 29.6045 14.7454 28.8025 14.7938C28.2522 14.8261 28.136 14.626 28.1408 14.1112C28.1521 12.9041 28.1908 11.6969 28.0472 10.4882C27.3823 4.86726 22.791 0.474455 17.0829 0.0338839C11.5298 -0.395391 6.29137 3.29702 4.77761 8.67586C4.2741 10.4656 4.29508 12.2876 4.33058 14.1128C4.34026 14.6308 4.21761 14.8293 3.66892 14.7938C2.94593 14.7454 2.2181 14.7809 1.49188 14.7825C0.233106 14.7858 0.00233107 15.0181 0.000717251 16.2995C-0.000896564 19.8209 0.000717251 23.3406 0.000717251 26.8619C0.000717251 30.4091 0.000717251 33.9563 0.00233107 37.5034C0.00233107 38.596 0.215355 38.8719 1.24981 38.9914C3.3042 39.2302 5.35697 39.49 7.41781 39.6514C15.3207 40.2711 23.2041 40.0645 31.0634 39.022C32.256 38.8639 32.469 38.6428 32.469 37.4211C32.469 32.6636 32.469 27.9077 32.469 23.1502C32.469 20.7859 32.4771 18.4201 32.4658 16.0558H32.4674ZM12.7111 2.59339C19.0744 0.183969 25.946 4.74945 26.2058 11.571C26.2397 12.457 26.1978 13.3446 26.2252 14.2306C26.2381 14.6437 26.1203 14.8342 25.6862 14.7858C25.4732 14.7632 25.2537 14.7567 25.0423 14.7858C24.5355 14.8568 24.408 14.6454 24.4129 14.1548C24.4274 12.8137 24.5226 11.4645 24.2112 10.1412C23.2703 6.13894 19.5376 3.36964 15.6144 3.75534C11.3313 4.17655 8.19728 7.49455 8.05526 11.7728C8.02944 12.5781 8.02622 13.3866 8.05526 14.1903C8.0714 14.6373 7.94714 14.7906 7.47429 14.7922C6.25425 14.7954 6.25425 14.8213 6.25425 13.627V12.7394C6.02993 7.27668 9.35277 3.86024 12.7095 2.58855L12.7111 2.59339ZM10.1936 10.38C10.9747 7.41386 13.823 5.38045 16.7602 5.68869C19.9991 6.0292 22.3617 8.54837 22.4828 11.8099C22.5102 12.5603 22.4553 13.3156 22.5005 14.0644C22.5344 14.6179 22.3746 14.8051 21.7953 14.7938C19.9426 14.7583 18.09 14.7809 16.2357 14.7809C14.3814 14.7809 12.5288 14.7583 10.6761 14.7938C10.0967 14.8051 9.94343 14.6179 9.97086 14.0644C10.0338 12.8347 9.87081 11.592 10.1903 10.3784L10.1936 10.38ZM30.5502 36.4351C30.5518 36.9789 30.3937 37.179 29.8579 37.242C22.8233 38.0683 15.7741 38.3023 8.70402 37.7987C6.72064 37.6583 4.74695 37.4421 2.77002 37.2565C2.15516 37.1984 1.91793 37.0225 1.92116 36.3447C1.9502 30.0847 1.95343 23.8247 1.91793 17.5647C1.91309 16.8143 2.14709 16.6965 2.82328 16.6997C7.30968 16.7288 11.7977 16.7143 16.2841 16.7143C20.7705 16.7143 25.2585 16.7256 29.7449 16.7014C30.3646 16.6981 30.5583 16.8418 30.5551 17.4937C30.5292 23.807 30.5325 30.1202 30.5518 36.4351H30.5502ZM20.033 33.0283C19.7167 31.6711 19.4084 30.3107 19.0679 28.9599C18.955 28.5145 18.9663 28.182 19.289 27.7899C19.9426 26.991 20.1992 26.0292 20.0475 24.9964C19.799 23.3148 18.6419 22.0915 17.0152 21.7445C15.4369 21.4072 13.8553 22.0818 12.9903 23.46C12.1043 24.8737 12.1818 26.4956 13.2566 27.8851C13.5067 28.2079 13.5309 28.4822 13.4422 28.8421C13.0952 30.2477 12.7595 31.655 12.4303 33.0654C12.2028 34.0369 12.5691 34.5114 13.5551 34.5227C14.4427 34.5324 15.3287 34.5243 16.2163 34.5243C17.1039 34.5243 17.9899 34.5308 18.8775 34.5243C19.9216 34.5163 20.2735 34.0579 20.0346 33.0315L20.033 33.0283ZM16.9651 28.4887C17.2637 29.599 17.4719 30.7319 17.7704 31.8422C17.9237 32.4102 17.8931 32.7023 17.1975 32.5958C16.8828 32.5474 16.5552 32.5877 16.2341 32.5877C15.1109 32.5877 14.6735 32.0525 14.922 30.982C15.1028 30.2009 15.2367 29.4053 15.4691 28.6387C15.6886 27.9141 15.6031 27.3816 14.9688 26.8765C14.2765 26.3261 14.1506 25.4466 14.5025 24.6881C14.8268 23.9877 15.6515 23.5068 16.4003 23.5827C17.2492 23.6682 17.9576 24.3008 18.1142 25.1529C18.2465 25.871 18.0173 26.5004 17.4477 26.9394C16.899 27.3638 16.7908 27.8383 16.9667 28.4887H16.9651Z" fill="#2F3990"/>
</svg>
