<svg width="6" height="10" viewBox="0 0 6 10" fill="none" xmlns="http://www.w3.org/2000/svg">
<path fill-rule="evenodd" clip-rule="evenodd" d="M5.79845 9.77613C5.92851 9.65431 6.00016 9.49219 6.00016 9.31976C6.00016 9.14721 5.92851 8.98509 5.79845 8.8634L1.66116 4.9822L5.79767 1.10113C5.92784 0.97931 5.99958 0.81718 5.99958 0.64463C5.99958 0.47208 5.92841 0.30996 5.79767 0.18776C5.52953 -0.06363 5.09269 -0.06363 4.82397 0.18789L0.19983 4.52558C0.071502 4.64638 0.000816135 4.80838 0.000816127 4.98182C0.000816127 4.98182 0.000816127 4.98182 0.000816127 4.98194C0.00081612 5.15577 0.0717905 5.31802 0.2007 5.43856L4.82445 9.77626C5.09269 10.0271 5.52953 10.0271 5.79845 9.77613Z" fill="#818181"/>
</svg>
