<svg width="20" height="20" viewBox="0 0 20 20" fill="none" xmlns="http://www.w3.org/2000/svg">
<path d="M2.5 0.625C2.5 0.291667 2.20833 0 1.875 0H0.625C0.291667 0 0 0.291667 0 0.625V19.375C0 19.7083 0.291667 20 0.625 20H1.875C2.20833 20 2.5 19.7083 2.5 19.375V0.625Z" fill="#959595"/>
<path d="M18.542 2.37483C11.8753 5.87483 12.6253 -1.29184 4.58366 1.49983C4.33366 1.58316 4.16699 1.83316 4.16699 2.08316V11.7915C4.16699 12.0832 4.45866 12.2915 4.70866 12.1665C12.7087 9.49983 11.8753 16.8332 18.8337 12.9165C19.042 12.7915 19.167 12.5832 19.167 12.3748V2.70816C19.167 2.4165 18.8337 2.20816 18.542 2.37483Z" fill="#959595"/>
</svg>
