<svg width="7" height="10" viewBox="0 0 7 10" fill="none" xmlns="http://www.w3.org/2000/svg">
<path d="M3.49953 0.015625C3.69952 0.0187853 3.8901 0.101063 4.02955 0.244446C4.169 0.387828 4.24594 0.580644 4.24354 0.78064V6.42865L5.70753 4.88763C5.77279 4.81777 5.85119 4.76143 5.93822 4.72186C6.02526 4.68229 6.11924 4.66023 6.21479 4.65698C6.31034 4.65373 6.4056 4.66938 6.49512 4.70294C6.58465 4.73651 6.66667 4.78739 6.73653 4.85266L6.76954 4.88666C6.90428 5.03184 6.97915 5.22258 6.97915 5.42065C6.97915 5.61872 6.90428 5.80947 6.76954 5.95465L4.02753 8.83966C3.95927 8.91231 3.87684 8.97019 3.78535 9.00977C3.69385 9.04934 3.59523 9.06976 3.49554 9.06976C3.39585 9.06976 3.29721 9.04934 3.20571 9.00977C3.11421 8.97019 3.0318 8.91231 2.96354 8.83966L0.222534 5.95563C0.0870705 5.81061 0.0117187 5.61959 0.0117188 5.42114C0.0117188 5.2227 0.0870705 5.03167 0.222534 4.88666L0.228531 4.88062C0.297078 4.80885 0.37956 4.75184 0.470917 4.71307C0.562274 4.6743 0.660585 4.65459 0.759827 4.65515C0.859068 4.65571 0.957153 4.67657 1.04807 4.71637C1.13898 4.75617 1.22081 4.81412 1.28854 4.88666L2.75153 6.42664V0.778625C2.74967 0.578291 2.82739 0.385434 2.96764 0.242371C3.10789 0.0993072 3.2992 0.0177363 3.49953 0.015625Z" fill="#5463E8"/>
</svg>
