<svg width="16" height="10" viewBox="0 0 16 10" fill="none" xmlns="http://www.w3.org/2000/svg">
<path d="M1.29858 9.85293C1.1298 9.85768 0.96177 9.82855 0.804443 9.76724C0.647117 9.70593 0.503632 9.6137 0.382568 9.496C0.261505 9.3783 0.165321 9.23754 0.0996094 9.082C0.0338973 8.92646 0 8.75933 0 8.59048C0 8.42163 0.0338973 8.25444 0.0996094 8.0989C0.165321 7.94337 0.261505 7.80261 0.382568 7.6849C0.503632 7.5672 0.647117 7.47497 0.804443 7.41366C0.96177 7.35235 1.1298 7.32322 1.29858 7.32797C1.82458 7.31597 13.5715 7.31597 14.0985 7.32797C14.2673 7.32322 14.4353 7.35235 14.5927 7.41366C14.75 7.47497 14.8935 7.5672 15.0145 7.6849C15.1356 7.80261 15.2318 7.94337 15.2975 8.0989C15.3632 8.25444 15.3971 8.42163 15.3971 8.59048C15.3971 8.75933 15.3632 8.92646 15.2975 9.082C15.2318 9.23754 15.1356 9.3783 15.0145 9.496C14.8935 9.6137 14.75 9.70593 14.5927 9.76724C14.4353 9.82855 14.2673 9.85768 14.0985 9.85293C13.5735 9.85893 10.6365 9.86197 7.69849 9.86197C4.76049 9.86197 1.82358 9.85893 1.29858 9.85293ZM1.29858 3.39096C1.1298 3.39571 0.96177 3.36657 0.804443 3.30526C0.647117 3.24395 0.503632 3.15173 0.382568 3.03402C0.261505 2.91632 0.165321 2.7755 0.0996094 2.61996C0.0338973 2.46442 0 2.2973 0 2.12845C0 1.9596 0.0338973 1.79247 0.0996094 1.63693C0.165321 1.48139 0.261505 1.34063 0.382568 1.22293C0.503632 1.10522 0.647117 1.013 0.804443 0.951688C0.96177 0.890378 1.1298 0.861183 1.29858 0.865934C1.82458 0.853934 13.5715 0.853934 14.0985 0.865934C14.2673 0.861183 14.4353 0.890378 14.5927 0.951688C14.75 1.013 14.8935 1.10522 15.0145 1.22293C15.1356 1.34063 15.2318 1.48139 15.2975 1.63693C15.3632 1.79247 15.3971 1.9596 15.3971 2.12845C15.3971 2.2973 15.3632 2.46442 15.2975 2.61996C15.2318 2.7755 15.1356 2.91632 15.0145 3.03402C14.8935 3.15173 14.75 3.24395 14.5927 3.30526C14.4353 3.36657 14.2673 3.39571 14.0985 3.39096C13.5735 3.39696 10.6365 3.39993 7.69849 3.39993C4.76049 3.39993 1.82358 3.39696 1.29858 3.39096Z" fill="#118C00"/>
</svg>
