<svg width="14" height="4" viewBox="0 0 14 4" fill="none" xmlns="http://www.w3.org/2000/svg">
<path d="M12.4886 3.69891C12.1441 3.73985 11.7952 3.67506 11.4883 3.51314C11.1815 3.35122 10.9311 3.09982 10.7704 2.7923C10.6098 2.48478 10.5464 2.13564 10.5887 1.79127C10.6311 1.4469 10.7771 1.1236 11.0075 0.864161C11.2379 0.604723 11.5417 0.421473 11.8787 0.338713C12.2156 0.255954 12.5698 0.277589 12.8941 0.400775C13.2185 0.523961 13.4977 0.742873 13.6948 1.02844C13.8919 1.31401 13.9974 1.65272 13.9975 1.99969C14.0211 2.42472 13.8758 2.84188 13.5931 3.16018C13.3105 3.47849 12.9135 3.67212 12.4886 3.69891ZM7.20063 3.69891C6.85608 3.73999 6.50716 3.67529 6.20022 3.51347C5.89327 3.35165 5.64281 3.10037 5.48203 2.79288C5.32125 2.48538 5.25778 2.13625 5.30004 1.79185C5.34229 1.44744 5.48828 1.124 5.71862 0.864493C5.94896 0.604984 6.25276 0.421705 6.58972 0.338879C6.92668 0.256053 7.28087 0.277624 7.60527 0.400775C7.92967 0.523926 8.20895 0.742787 8.40605 1.02836C8.60316 1.31393 8.70875 1.6527 8.70885 1.99969C8.73266 2.42465 8.58746 2.84178 8.30491 3.1601C8.02237 3.47843 7.62541 3.67212 7.20063 3.69891ZM1.91263 3.69891C1.56809 3.73985 1.21925 3.67506 0.912388 3.51314C0.605523 3.35122 0.355162 3.09982 0.194492 2.7923C0.0338212 2.48478 -0.0295546 2.13564 0.0127877 1.79127C0.0551301 1.4469 0.201196 1.1236 0.431578 0.864161C0.661959 0.604723 0.96577 0.421473 1.30272 0.338713C1.63967 0.255954 1.99383 0.277589 2.31819 0.400775C2.64255 0.523961 2.92178 0.742873 3.11884 1.02844C3.31591 1.31401 3.42148 1.65272 3.42156 1.99969C3.44537 2.42476 3.30006 2.84201 3.01737 3.16035C2.73468 3.47869 2.33754 3.67229 1.91263 3.69891Z" fill="#818181"/>
</svg>
