<svg width="13" height="13" viewBox="0 0 13 13" fill="none" xmlns="http://www.w3.org/2000/svg">
<path fill-rule="evenodd" clip-rule="evenodd" d="M0.33 0.33C0.54 0.12 0.83 0 1.13 0H11.86C12.16 0 12.45 0.12 12.66 0.33C12.87 0.54 12.99 0.83 12.99 1.13V11.86C12.99 12.16 12.87 12.45 12.66 12.66C12.45 12.87 12.16 12.99 11.86 12.99H1.14C0.51 12.99 0 12.48 0 11.85V1.14C0 0.84 0.12 0.55 0.33 0.33ZM3.07 2.74C3.16 2.65 3.29 2.6 3.41 2.6C3.53 2.6 3.66 2.65 3.75 2.74C3.84 2.83 3.89 2.96 3.89 3.08V7.96C3.89 8.09 3.84 8.21 3.75 8.3C3.66 8.39 3.53 8.44 3.41 8.44C3.29 8.44 3.16 8.39 3.07 8.3C2.98 8.21 2.93 8.08 2.93 7.96V3.09C2.93 2.96 2.98 2.84 3.07 2.75V2.74ZM6.16 2.74C6.25 2.65 6.38 2.6 6.5 2.6C6.62 2.6 6.75 2.65 6.84 2.74C6.93 2.83 6.98 2.96 6.98 3.08V6C6.98 6.13 6.93 6.25 6.84 6.34C6.75 6.43 6.62 6.48 6.5 6.48C6.38 6.48 6.25 6.43 6.16 6.34C6.07 6.25 6.02 6.12 6.02 6V3.09C6.02 2.96 6.07 2.84 6.16 2.75V2.74ZM9.25 2.74C9.16 2.83 9.11 2.96 9.11 3.08V9.25C9.11 9.38 9.16 9.5 9.25 9.59C9.34 9.68 9.47 9.73 9.59 9.73C9.71 9.73 9.84 9.68 9.93 9.59C10.02 9.5 10.07 9.37 10.07 9.25V3.09C10.07 2.96 10.02 2.84 9.93 2.75C9.84 2.66 9.71 2.61 9.59 2.61C9.47 2.61 9.34 2.66 9.25 2.75V2.74Z" fill="#2F3990"/>
</svg>
