<svg width="15" height="16" viewBox="0 0 15 16" fill="none" xmlns="http://www.w3.org/2000/svg">
<g clip-path="url(#clip0_10273_74697)">
<path d="M2.00585 6.74753C2.00585 6.57065 2.00585 6.43268 2.00585 6.26995C2.65678 6.26995 3.2971 6.26995 3.93741 6.26995C3.93741 5.77822 3.93741 5.31478 3.93741 4.82305C3.30417 4.82305 2.66385 4.82305 2.00939 4.82305C2.00939 4.65324 2.00939 4.51174 2.00939 4.33839C2.61079 4.33839 3.19804 4.33132 3.78883 4.34193C3.97633 4.34547 4.05769 4.30301 4.11429 4.09783C4.81475 1.54718 7.14253 -0.133207 9.78869 0.00829973C10.995 0.0719776 12.0669 0.514184 13.0009 1.28539C13.061 1.33492 13.1212 1.38799 13.2061 1.45874C13.6589 0.995306 14.1046 0.538948 14.5858 0.0507516C14.6954 0.192258 14.7803 0.301925 14.8546 0.397442C14.4195 0.825498 13.9667 1.27478 13.5103 1.7276C13.5952 1.84788 13.6306 1.90448 13.673 1.95755C15.2438 3.79713 15.4419 6.42914 14.1506 8.47745C13.9844 8.73923 13.8747 8.99041 14.0339 9.28757C14.2002 9.59181 14.4761 9.66964 14.8016 9.64841C14.8511 9.64487 14.9006 9.65195 14.9749 9.65549C14.9749 10.2817 14.9749 10.9078 14.9749 11.5658C14.5893 11.5587 14.1718 11.5446 14.002 12.001C13.8393 12.4325 14.0905 12.7262 14.3912 12.9667C13.9278 13.4302 13.482 13.8759 13.0256 14.3323C12.7745 14.0493 12.4915 13.7769 12.0563 13.9467C11.6177 14.12 11.6035 14.5127 11.6283 14.9231C10.9844 14.9231 10.3583 14.9231 9.70379 14.9231C9.72148 14.5198 9.7144 14.1094 9.26158 13.9396C8.8406 13.7839 8.55405 14.0316 8.3241 14.311C7.87482 13.8582 7.42908 13.416 6.96564 12.949C7.21682 12.7156 7.50691 12.4325 7.31941 11.9868C7.13545 11.5517 6.74631 11.5411 6.33948 11.5764C6.3324 11.4562 6.32533 11.3606 6.31472 11.2227C6.2192 11.3111 6.14491 11.3713 6.07769 11.4385C5.21097 12.3052 4.34778 13.1684 3.48105 14.0351C3.4103 14.1059 3.33601 14.1908 3.24757 14.2155C2.18273 14.4915 1.1179 14.7532 0 15.0327C0.0318389 14.8665 0.0495273 14.7356 0.0813662 14.6082C0.297163 13.7344 0.509422 12.8606 0.742908 11.9903C0.792435 11.8099 0.902102 11.6224 1.033 11.488C2.11552 10.3878 3.20865 9.29465 4.30886 8.20859C4.45391 8.06354 4.47867 7.95034 4.39377 7.76638C4.28056 7.52228 4.17443 7.26757 4.12137 7.00578C4.07538 6.77937 3.96925 6.74753 3.77114 6.75107C3.19097 6.75107 2.60725 6.74753 2.00585 6.74753ZM8.66372 5.88788C9.72148 4.83012 10.7474 3.80774 11.7698 2.78536C10.4007 1.51888 8.126 1.66038 6.77815 3.12851C5.42676 4.59664 5.55766 6.87489 7.07177 8.2475C8.54698 9.58473 10.8288 9.44323 12.1837 7.90789C13.4997 6.41853 13.245 4.28179 12.1518 3.18511C11.5858 3.75114 11.0198 4.31716 10.4538 4.88319C9.88775 5.44921 9.32172 6.01524 8.79815 6.53881C8.33118 6.0683 7.8819 5.61902 7.45384 5.19097C7.51044 5.11667 7.59181 5.00701 7.71563 4.84781C8.06939 5.23696 8.38424 5.58011 8.66372 5.88788ZM12.8346 1.80897C10.9738 0.0472137 7.80407 -0.0306146 5.80529 2.04953C3.81713 4.11552 3.95156 7.36309 6.11307 9.33356C8.1826 11.2191 11.4762 10.9856 13.3193 8.80999C15.1695 6.62372 14.6883 3.65209 13.2167 2.2158C12.9973 2.43159 12.7816 2.64739 12.5622 2.86319C14.1542 4.79121 13.6943 7.23573 12.2226 8.56235C10.5953 10.0269 8.26043 10.0057 6.65433 8.52698C5.13314 7.12606 4.93149 4.72046 6.20505 3.0613C6.83475 2.24056 7.66256 1.71699 8.67787 1.52595C9.9868 1.27478 11.1542 1.62501 12.1766 2.47758C12.3995 2.24764 12.6082 2.03538 12.8346 1.80897ZM6.80999 11.067C7.87128 11.304 8.08708 12.2592 7.63072 12.988C7.84652 13.2108 8.06586 13.4302 8.27812 13.653C9.18375 13.1507 9.83115 13.4196 10.2097 14.4455C10.5175 14.4455 10.8252 14.4455 11.1295 14.4455C11.3842 13.363 12.357 13.1931 13.054 13.6424C13.2733 13.4266 13.4962 13.2073 13.719 12.9844C13.4572 12.6094 13.3936 12.2097 13.5634 11.7852C13.7367 11.3606 14.0976 11.1625 14.5079 11.0635C14.5079 10.7345 14.5079 10.4338 14.5079 10.126C14.0374 10.0411 13.7013 9.78638 13.5174 9.32649C13.4006 9.43615 13.3157 9.53874 13.2096 9.60596C12.9938 9.74393 12.9867 9.91727 13.0115 10.1578C13.0469 10.5187 13.061 10.9043 12.969 11.251C12.6931 12.3264 11.7203 13.0198 10.5988 13.0056C9.54813 12.9915 8.60358 12.2309 8.32057 11.1838C8.29227 11.0812 8.20382 10.9538 8.10831 10.9149C7.79699 10.784 7.46799 10.6956 7.15314 10.5682C6.93027 10.4798 6.85951 10.6071 6.81706 10.7698C6.78876 10.8618 6.80999 10.9573 6.80999 11.067ZM2.08722 12.475C3.16266 11.3996 4.24165 10.3206 5.32063 9.23804C5.14021 9.00102 4.93503 8.73216 4.75461 8.4916C3.64025 9.60596 2.52942 10.7168 1.4186 11.8276C1.63793 12.0399 1.87142 12.2663 2.08722 12.475ZM5.75577 9.67671C4.66971 10.7663 3.59072 11.8453 2.55419 12.8818C2.75583 13.1082 2.97871 13.3594 3.20865 13.6212C4.30179 12.5281 5.38785 11.4455 6.47037 10.363C6.49514 10.3383 6.51636 10.3029 6.54113 10.271C6.26165 10.0588 5.99279 9.8536 5.75577 9.67671ZM12.5127 10.1861C12.1448 10.3736 12.1448 10.3736 12.1023 10.7592C12.0351 11.3677 11.5858 11.8594 10.9667 12.0116C10.4042 12.146 9.74978 11.9054 9.46677 11.3783C9.30403 11.0741 9.09531 11.0458 8.81938 11.067C9.02456 12.0965 10.1283 12.7439 11.179 12.4608C12.1589 12.1991 12.824 11.0812 12.5127 10.1861ZM1.15328 12.3229C1.11082 12.4891 1.06483 12.6413 1.02946 12.7969C0.852575 13.5292 0.849038 13.5292 1.42214 14.028C1.4752 14.074 1.56364 14.1235 1.62378 14.1094C1.97755 14.0351 2.32778 13.9396 2.68508 13.8511C2.16505 13.3311 1.66977 12.8394 1.15328 12.3229ZM9.8736 11.1165C10.1354 11.488 10.5104 11.6401 10.8924 11.5375C11.317 11.4208 11.5681 11.1165 11.5894 10.7062C11.0269 10.8406 10.4573 10.975 9.8736 11.1165Z" fill="#2F3990"/>
<path d="M0.0883789 0.00830078C0.562425 0.00830078 1.01171 0.00830078 1.48222 0.00830078C1.48222 0.478809 1.48222 0.942242 1.48222 1.4269C1.02232 1.4269 0.558887 1.4269 0.0883789 1.4269C0.0883789 0.949317 0.0883789 0.478809 0.0883789 0.00830078ZM0.551812 0.938704C0.703931 0.938704 0.85605 0.938704 1.00817 0.938704C1.00817 0.783047 1.00817 0.638004 1.00817 0.503573C0.8419 0.503573 0.700393 0.503573 0.551812 0.503573C0.551812 0.655692 0.551812 0.786585 0.551812 0.938704Z" fill="#2F3990"/>
<path d="M0.0883789 1.93652C0.562425 1.93652 1.01171 1.93652 1.48222 1.93652C1.48222 2.40703 1.48222 2.87046 1.48222 3.35512C1.02232 3.35512 0.558887 3.35512 0.0883789 3.35512C0.0883789 2.87754 0.0883789 2.40703 0.0883789 1.93652ZM0.555349 2.87046C0.732232 2.87046 0.873738 2.87046 1.01171 2.87046C1.01171 2.71127 1.01171 2.5733 1.01171 2.42826C0.852512 2.42826 0.707469 2.42826 0.555349 2.42826C0.555349 2.58038 0.555349 2.71835 0.555349 2.87046Z" fill="#2F3990"/>
<path d="M0.0849609 3.86816C0.562544 3.86816 1.0189 3.86816 1.48941 3.86816C1.48941 4.33867 1.48941 4.79503 1.48941 5.27615C1.03305 5.27615 0.56962 5.27615 0.0849609 5.27615C0.0849609 4.82333 0.0849609 4.3599 0.0849609 3.86816ZM1.02244 4.35636C0.852632 4.35636 0.707588 4.35636 0.566082 4.35636C0.566082 4.51909 0.566082 4.66414 0.566082 4.79857C0.732352 4.79857 0.877396 4.79857 1.02244 4.79857C1.02244 4.64291 1.02244 4.51202 1.02244 4.35636Z" fill="#2F3990"/>
<path d="M1.48905 7.21463C1.00792 7.21463 0.551563 7.21463 0.0810547 7.21463C0.0810547 6.74412 0.0810547 6.28776 0.0810547 5.80664C0.54095 5.80664 1.00439 5.80664 1.48905 5.80664C1.48905 6.26654 1.48905 6.72997 1.48905 7.21463ZM0.562176 6.27007C0.562176 6.43988 0.562176 6.58493 0.562176 6.72643C0.724908 6.72643 0.869952 6.72643 1.00439 6.72643C1.00439 6.56016 1.00439 6.41512 1.00439 6.27007C0.852264 6.27007 0.72137 6.27007 0.562176 6.27007Z" fill="#2F3990"/>
<path d="M2.00244 0.938669C2.00244 0.793626 2.00244 0.655657 2.00244 0.5C2.79487 0.5 3.57669 0.5 4.37974 0.5C4.37974 0.641506 4.37974 0.775937 4.37974 0.938669C3.605 0.938669 2.82317 0.938669 2.00244 0.938669Z" fill="#2F3990"/>
<path d="M4.39402 2.42822C4.39402 2.59095 4.39402 2.71831 4.39402 2.87043C3.60512 2.87043 2.81976 2.87043 2.01318 2.87043C2.01318 2.73246 2.01318 2.58742 2.01318 2.42822C2.79854 2.42822 3.5839 2.42822 4.39402 2.42822Z" fill="#2F3990"/>
<path d="M8.26416 7.68476C8.26416 7.53618 8.26416 7.39821 8.26416 7.24609C8.41628 7.24609 8.56132 7.24609 8.71698 7.24609C8.71698 7.3876 8.71698 7.52557 8.71698 7.68476C8.58255 7.68476 8.44104 7.68476 8.26416 7.68476Z" fill="#2F3990"/>
<path d="M9.68293 7.69538C9.53434 7.69538 9.39638 7.69538 9.24072 7.69538C9.24072 7.55387 9.24072 7.40883 9.24072 7.24609C9.38222 7.24609 9.52373 7.24609 9.68293 7.24609C9.68293 7.39114 9.68293 7.52557 9.68293 7.69538Z" fill="#2F3990"/>
<path d="M10.6448 7.69538C10.4963 7.69538 10.3583 7.69538 10.2026 7.69538C10.2026 7.55387 10.2026 7.40883 10.2026 7.24609C10.3441 7.24609 10.4856 7.24609 10.6448 7.24609C10.6448 7.39114 10.6448 7.52557 10.6448 7.69538Z" fill="#2F3990"/>
</g>
<defs>
<clipPath id="clip0_10273_74697">
<rect width="15" height="16" fill="white"/>
</clipPath>
</defs>
</svg>
