<svg width="11" height="12" viewBox="0 0 11 12" fill="none" xmlns="http://www.w3.org/2000/svg">
<path d="M9.38496 11H1.12561C1.1091 11 1.09275 10.9968 1.07749 10.9905C1.06224 10.9842 1.04838 10.975 1.0367 10.9633C1.02503 10.9516 1.01578 10.9378 1.00948 10.9225C1.00318 10.9072 0.999962 10.8909 1 10.8744V2.61504C1 2.54565 1.05622 2.48943 1.12561 2.48943H6.12198C6.13847 2.48943 6.15481 2.49268 6.17005 2.49899C6.18528 2.5053 6.19913 2.51456 6.21079 2.52622C6.22246 2.53788 6.23171 2.55173 6.23802 2.56697C6.24434 2.58221 6.24758 2.59854 6.24758 2.61504C6.24758 2.63153 6.24434 2.64787 6.23802 2.66311C6.23171 2.67835 6.22246 2.69219 6.21079 2.70386C6.19913 2.71552 6.18528 2.72477 6.17005 2.73108C6.15481 2.7374 6.13847 2.74065 6.12198 2.74065H1.25122V10.7494H9.25935V5.87714C9.25935 5.84383 9.27259 5.81188 9.29614 5.78833C9.3197 5.76477 9.35165 5.75154 9.38496 5.75154C9.41827 5.75154 9.45022 5.76477 9.47378 5.78833C9.49734 5.81188 9.51057 5.84383 9.51057 5.87714V10.8744C9.51057 10.9077 9.49734 10.9397 9.47378 10.9632C9.45022 10.9868 9.41827 11 9.38496 11ZM10.7177 5.16906C10.7012 5.1691 10.6849 5.16587 10.6696 5.15958C10.6544 5.15328 10.6405 5.14403 10.6288 5.13235C10.6172 5.12068 10.6079 5.10682 10.6016 5.09156C10.5953 5.07631 10.5921 5.05996 10.5921 5.04345V1.25122H6.80928C6.77596 1.25122 6.74401 1.23798 6.72046 1.21443C6.6969 1.19087 6.68367 1.15892 6.68367 1.12561C6.68367 1.09229 6.6969 1.06035 6.72046 1.03679C6.74401 1.01323 6.77596 1 6.80928 1H10.718C10.7874 1 10.8434 1.05592 10.8434 1.12561V5.04374C10.8434 5.06024 10.8402 5.07657 10.8339 5.09181C10.8276 5.10705 10.8183 5.1209 10.8066 5.13254C10.795 5.14419 10.7811 5.15342 10.7658 5.15968C10.7506 5.16595 10.7342 5.16914 10.7177 5.16906Z" fill="#3845B3" stroke="#3845B3" stroke-width="0.3"/>
<path d="M4.88789 7.09304C4.8632 7.0928 4.83912 7.08531 4.81866 7.0715C4.79819 7.05769 4.78223 7.03816 4.77278 7.01535C4.76332 6.99254 4.76079 6.96745 4.76548 6.94321C4.77017 6.91897 4.78189 6.89664 4.79918 6.879L10.5745 1.09198C10.5985 1.07117 10.6296 1.06023 10.6614 1.06136C10.6931 1.06249 10.7233 1.07561 10.7458 1.09808C10.7683 1.12055 10.7815 1.15071 10.7827 1.18249C10.7839 1.21428 10.773 1.24533 10.7522 1.26941L4.9769 7.05614C4.96523 7.06785 4.95135 7.07713 4.93608 7.08346C4.9208 7.08979 4.90443 7.09305 4.88789 7.09304Z" fill="#3845B3" stroke="#3845B3" stroke-width="0.3"/>
</svg>
