<svg width="13" height="14" viewBox="0 0 13 14" fill="none" xmlns="http://www.w3.org/2000/svg">
<path fill-rule="evenodd" clip-rule="evenodd" d="M12.165 10.4341C11.9797 10.0234 11.8836 9.59134 11.8784 9.1508L11.8407 5.96943C11.8144 3.76266 10.1773 1.8945 7.96565 1.24629C7.82643 0.548735 7.15618 0.00892916 6.35382 0.000103836C5.55144 -0.00848706 4.89373 0.516978 4.77107 1.21168C2.57446 1.81209 0.981111 3.64524 1.00733 5.85195L1.0452 9.03319C1.05037 9.47392 0.964454 9.90389 0.789028 10.3107L0.0365444 12.0609C-0.0284297 12.2122 -0.00571675 12.3836 0.0963352 12.5204C0.198999 12.6572 0.367679 12.7397 0.547573 12.7416L4.66517 12.7864C5.05618 13.384 5.74589 13.783 6.5175 13.7913C7.28927 13.7997 7.9696 13.4155 8.34659 12.8262L12.4643 12.8709C12.6441 12.8728 12.8108 12.794 12.9102 12.6593C13.0091 12.5248 13.0276 12.3538 12.9593 12.201L12.165 10.4341ZM1.33557 11.7653L1.79944 10.6872C2.02432 10.1645 2.13513 9.6117 2.12839 9.04497L2.09061 5.86359C2.06491 3.69041 3.98772 1.94435 6.37722 1.97034C8.76662 1.99618 10.7315 3.78451 10.7573 5.95764L10.7951 9.13907C10.8018 9.70556 10.9259 10.261 11.1632 10.7888L11.6527 11.8772L1.33557 11.7653Z" fill="#535358"/>
</svg>
