<svg width="15" height="15" viewBox="0 0 15 15" fill="none" xmlns="http://www.w3.org/2000/svg">
<path d="M9.67763 2.66691C9.67763 1.90971 9.68501 1.1562 9.67393 0.398998C9.67024 0.118279 9.76258 -0.0036123 10.0544 8.13725e-05C11.5762 0.00746872 13.098 0.00746872 14.6161 8.13725e-05C14.9079 8.13725e-05 15.0002 0.118279 15.0002 0.398998C14.9928 1.90971 14.9965 3.42042 14.9965 4.93113C14.9965 5.28203 14.9485 5.32636 14.5865 5.32636C13.0869 5.32636 11.5836 5.32636 10.0839 5.32636C9.71456 5.32636 9.67393 5.28573 9.67393 4.90158C9.67763 4.15916 9.67763 3.41303 9.67763 2.66691ZM10.1837 0.502421C10.1837 1.96142 10.1837 3.39457 10.1837 4.82032C11.639 4.82032 13.0758 4.82032 14.5016 4.82032C14.5016 3.36871 14.5016 1.93926 14.5016 0.506115C14.0583 0.506115 13.6299 0.506115 13.1866 0.506115C13.1866 0.967823 13.1829 1.41106 13.1866 1.85061C13.1903 2.07962 13.0906 2.18304 12.8616 2.17935C12.5291 2.17565 12.1967 2.16827 11.8643 2.17935C11.5873 2.19043 11.4838 2.07223 11.4912 1.80259C11.5023 1.37413 11.4949 0.941968 11.4949 0.498727C11.0443 0.502421 10.6232 0.502421 10.1837 0.502421ZM11.9936 0.502421C11.9936 0.905031 11.9936 1.28917 11.9936 1.67701C12.2373 1.67701 12.459 1.67701 12.6806 1.67701C12.6806 1.2707 12.6806 0.882869 12.6806 0.502421C12.4405 0.502421 12.2226 0.502421 11.9936 0.502421Z" fill="black"/>
<path d="M2.16449 14.0436C2.16449 13.8737 2.16449 13.737 2.16449 13.556C1.64738 13.556 1.12657 13.556 0.605762 13.556C0.121891 13.556 0 13.4341 0 12.9503C0 12.0416 0 11.1367 0 10.228C0 9.82911 0.144053 9.68506 0.546663 9.68506C1.79512 9.68506 3.04728 9.68506 4.29574 9.68506C4.69466 9.68506 4.83502 9.82911 4.83502 10.2317C4.83502 11.1588 4.83502 12.0859 4.83502 13.0131C4.83502 13.4083 4.68727 13.5523 4.28466 13.5523C3.75277 13.5523 3.22088 13.5523 2.67422 13.5523C2.67422 13.7149 2.67422 13.8552 2.67422 14.0251C2.85151 14.0251 3.03989 14.0251 3.24304 14.0251C3.24304 14.2024 3.24304 14.3465 3.24304 14.5053C2.69638 14.5053 2.1571 14.5053 1.59197 14.5053C1.59197 14.3612 1.59197 14.2172 1.59197 14.0399C1.78035 14.0436 1.96503 14.0436 2.16449 14.0436ZM4.34006 10.1874C3.04359 10.1874 1.76927 10.1874 0.506033 10.1874C0.506033 11.1588 0.506033 12.1118 0.506033 13.0537C1.79512 13.0537 3.06205 13.0537 4.34006 13.0537C4.34006 12.097 4.34006 11.1551 4.34006 10.1874Z" fill="black"/>
<path d="M1.12332 8.754C0.303329 5.49618 2.73007 1.07116 7.58355 0.964044C7.40995 0.834766 7.28437 0.735037 7.12554 0.613146C7.21419 0.487561 7.30653 0.36567 7.40256 0.229004C7.80148 0.506029 8.18562 0.764586 8.55868 1.03792C8.77292 1.19305 8.76922 1.34449 8.55868 1.49963C8.18562 1.77296 7.80148 2.03152 7.39887 2.30854C7.31022 2.18296 7.22527 2.06106 7.12185 1.91701C7.31761 1.77665 7.4986 1.64737 7.70175 1.50332C4.72465 1.20044 0.820443 4.03349 1.5444 8.66166C1.40774 8.6912 1.26368 8.72445 1.12332 8.754Z" fill="black"/>
<path d="M5.80626 14.9927C5.63635 14.9927 5.49968 14.9927 5.33716 14.9927C5.33716 14.3278 5.30392 13.663 5.34824 13.0055C5.37779 12.5438 5.67698 12.3074 6.32337 12.0747C5.94292 11.4985 5.96139 11.0146 6.38247 10.6416C6.74076 10.3239 7.29111 10.3239 7.6494 10.6416C8.07048 11.0146 8.08895 11.4911 7.7085 12.0747C8.53588 12.3591 8.70949 12.6066 8.70949 13.4857C8.70949 13.9585 8.70948 14.4313 8.70579 14.9041C8.70579 14.9225 8.69471 14.941 8.68363 14.9816C8.54696 14.9816 8.40291 14.9816 8.22561 14.9816C8.22561 14.4239 8.22561 13.8735 8.22561 13.3232C8.22561 12.8061 8.00769 12.5844 7.49796 12.5807C7.17661 12.5807 6.85526 12.5807 6.53022 12.5807C6.02049 12.5844 5.80626 12.8024 5.80257 13.3232C5.80257 13.8809 5.80626 14.4313 5.80626 14.9927ZM7.49796 11.3655C7.49057 11.107 7.26895 10.8927 7.0104 10.8927C6.75184 10.8927 6.53391 11.1144 6.53022 11.3729C6.52653 11.6425 6.76292 11.8716 7.03256 11.8605C7.29481 11.8531 7.50535 11.6241 7.49796 11.3655Z" fill="black"/>
<path d="M10.2939 11.9413C10.4453 12.0078 10.5709 12.0632 10.7224 12.126C10.6485 12.3181 10.582 12.4991 10.4786 12.765C11.6642 12.0706 12.4805 11.1657 13.0087 9.99846C13.5332 8.83865 13.6736 7.62712 13.4409 6.34911C13.5923 6.31957 13.729 6.29371 13.862 6.26416C14.3643 7.83766 13.91 11.2654 10.7815 13.1713C11.0031 13.2009 11.1915 13.2267 11.3983 13.2563C11.3872 13.4151 11.3761 13.5518 11.3651 13.7217C10.8627 13.6847 10.3715 13.6589 9.88759 13.6109C9.7066 13.5924 9.63272 13.4484 9.7066 13.2747C9.89497 12.8315 10.0944 12.3957 10.2939 11.9413Z" fill="black"/>
<path d="M7.24677 4.61719C7.43515 4.61719 7.57181 4.61719 7.74172 4.61719C7.74172 5.20079 7.74172 5.76961 7.74172 6.34213C7.74172 6.78537 7.73803 7.22861 7.74172 7.67185C7.74172 7.86023 7.67524 7.98951 7.46839 7.98951C6.92542 7.9932 6.38615 7.98951 5.82471 7.98951C5.82471 7.82329 5.82471 7.67924 5.82471 7.51303C6.2938 7.51303 6.75551 7.51303 7.24677 7.51303C7.24677 6.54159 7.24677 5.59232 7.24677 4.61719Z" fill="black"/>
<path d="M1.31494 11.916C1.35927 11.9677 1.37404 11.9936 1.3962 12.0158C2.05737 12.6732 1.9244 12.6806 2.58187 12.0268C2.89953 11.7129 3.21349 11.3952 3.4979 11.1108C3.38709 10.9594 3.30583 10.8486 3.18394 10.686C2.77025 11.1256 2.39349 11.5245 2.01305 11.9308C1.86899 11.8052 1.76188 11.7055 1.65845 11.6168C1.53656 11.7203 1.43314 11.8126 1.31494 11.916Z" fill="white"/>
<path d="M1.31494 11.9163C1.43314 11.8129 1.53656 11.7205 1.65476 11.6134C1.75818 11.7058 1.86899 11.8018 2.00935 11.9274C2.3898 11.5248 2.76655 11.1222 3.18025 10.6826C3.29844 10.8451 3.3834 10.9559 3.49421 11.1074C3.20979 11.3918 2.89583 11.7058 2.57818 12.0234C1.9207 12.6772 2.05368 12.6698 1.39251 12.0123C1.37404 11.9939 1.35557 11.968 1.31494 11.9163Z" fill="black"/>
</svg>
