<svg width="32" height="40" viewBox="0 0 32 40" fill="none" xmlns="http://www.w3.org/2000/svg">
<path d="M0.000781943 21.0556V5.90069C0.000781943 3.70167 1.50299 2.19321 3.69186 2.19165C4.99409 2.19165 6.29632 2.20024 7.59776 2.18071C7.79457 2.17029 7.98135 2.09059 8.12506 1.95573C9.39838 0.67303 10.9287 0.0105893 12.734 0.00277753C14.7909 -0.00347191 16.8477 0.00277753 18.9053 0.00277753C20.7583 0.00277753 22.3246 0.661312 23.619 1.98854C23.7454 2.10675 23.9101 2.17576 24.083 2.18305C25.4243 2.19868 26.7648 2.1893 28.1061 2.19243C30.1708 2.19789 31.712 3.73213 31.7128 5.79054C31.7128 15.998 31.7128 26.2054 31.7128 36.4128C31.7128 38.4525 30.17 39.9992 28.1366 40C19.9472 40 11.7583 40 3.56999 40C1.53892 40 0.00156236 38.4494 0 36.4066C0.000520787 31.2888 0.000781943 26.1718 0.000781943 21.0556ZM6.5627 4.53753H3.79263C2.7771 4.53753 2.34041 4.97108 2.34041 5.97881V36.2105C2.34041 37.226 2.77397 37.6565 3.78638 37.6565H27.9249C28.9404 37.6565 29.3724 37.2229 29.3724 36.2113V6.72093C29.3724 6.40846 29.3724 6.09598 29.3724 5.78351C29.3615 5.03592 28.8701 4.54378 28.117 4.53831C27.2187 4.53206 26.3203 4.53831 25.422 4.53831C25.3243 4.53831 25.2267 4.55393 25.1524 4.56018C25.2157 5.11326 25.2978 5.63977 25.3313 6.16863C25.3845 7.00528 24.9087 7.50758 24.0815 7.50758C18.6007 7.5107 13.1199 7.5107 7.63917 7.50758C6.81424 7.50758 6.33381 7.00059 6.38928 6.16863C6.41818 5.64056 6.5002 5.11404 6.5627 4.53753ZM8.9242 5.13669H22.787C22.3683 3.59386 20.8341 2.38147 19.1936 2.35882C16.9688 2.32861 14.7435 2.32861 12.5176 2.35882C10.8803 2.38147 9.33745 3.60168 8.92733 5.13669H8.9242Z" fill="black"/>
<path d="M19.8021 22.0086C21.3645 22.0086 22.9269 21.9977 24.4892 22.0133C25.4516 22.0235 26.0086 22.9617 25.543 23.7577C25.279 24.2077 24.8572 24.3623 24.3549 24.3615C22.5722 24.3584 20.7898 24.3584 19.0077 24.3615C17.7328 24.3615 16.4571 24.3725 15.1799 24.3615C14.223 24.3506 13.6339 23.4905 14.0214 22.6836C14.2558 22.1977 14.6675 22.0078 15.1979 22.011C16.7321 22.0133 18.2671 22.0086 19.8021 22.0086Z" fill="black"/>
<path d="M19.8225 31.0086C21.3575 31.0086 22.8933 31.0086 24.4314 31.0086C25.1946 31.0086 25.7094 31.489 25.7032 32.1804C25.6977 32.8428 25.1689 33.3521 24.4533 33.3521C21.3567 33.3568 18.2601 33.3568 15.1635 33.3521C14.5143 33.3521 14.0097 32.9311 13.9136 32.3366C13.8751 32.0636 13.9349 31.7859 14.0823 31.5529C14.2297 31.32 14.4551 31.147 14.7182 31.0649C14.8806 31.0213 15.0486 31.0023 15.2166 31.0086C16.7516 31.0063 18.2866 31.0086 19.8225 31.0086Z" fill="black"/>
<path d="M8.3391 22.8132C8.95701 22.193 9.51087 21.6243 10.078 21.0736C10.4334 20.7298 10.8662 20.6228 11.3365 20.808C11.7739 20.9798 12.0685 21.3228 12.0536 21.7821C12.0427 22.1055 11.9263 22.4984 11.7146 22.7289C10.9053 23.6093 10.0491 24.4475 9.18902 25.2802C8.68672 25.7669 8.01725 25.7489 7.51027 25.2646C7.09364 24.8698 6.68924 24.4647 6.29709 24.0491C5.81667 23.5405 5.81979 22.8265 6.28459 22.3672C6.74939 21.9079 7.45636 21.9188 7.96726 22.3984C8.08912 22.5125 8.19224 22.6476 8.3391 22.8132Z" fill="black"/>
<path d="M19.8021 13.5719C21.3645 13.5719 22.9269 13.5609 24.4892 13.5766C25.4516 13.5867 26.0086 14.5249 25.543 15.3209C25.279 15.7709 24.8572 15.9256 24.3549 15.9248C22.5722 15.9217 20.7898 15.9217 19.0077 15.9248C17.7328 15.9248 16.4571 15.9357 15.1799 15.9248C14.223 15.9139 13.6339 15.0538 14.0214 14.2468C14.2558 13.7609 14.6675 13.5711 15.1979 13.5742C16.7321 13.5766 18.2671 13.5719 19.8021 13.5719Z" fill="black"/>
<path d="M8.3391 14.3765C8.95701 13.7562 9.51087 13.1875 10.078 12.6368C10.4334 12.2931 10.8662 12.1861 11.3365 12.3712C11.7739 12.5431 12.0685 12.886 12.0536 13.3453C12.0427 13.6687 11.9263 14.0617 11.7146 14.2921C10.9053 15.1725 10.0491 16.0107 9.18902 16.8435C8.68672 17.3301 8.01725 17.3122 7.51027 16.8278C7.09364 16.4331 6.68924 16.0279 6.29709 15.6123C5.81667 15.1038 5.81979 14.3898 6.28459 13.9304C6.74939 13.4711 7.45636 13.482 7.96726 13.9617C8.08912 14.0757 8.19224 14.2109 8.3391 14.3765Z" fill="black"/>
<path d="M8.30707 31.8453C8.94998 31.1984 9.49681 30.6446 10.0491 30.0954C10.4038 29.7423 10.8303 29.6337 11.3037 29.7931C11.7771 29.9525 12.0661 30.3048 12.0536 30.7813C12.045 31.1031 11.9255 31.4961 11.7138 31.7265C10.9045 32.6061 10.0452 33.4451 9.18825 34.2763C8.6961 34.7559 8.00788 34.7387 7.50871 34.2583C7.09625 33.8615 6.69003 33.4576 6.29553 33.0428C5.81589 32.5405 5.82058 31.8242 6.28772 31.3633C6.75487 30.9024 7.42981 30.9055 7.93523 31.3711C8.06725 31.4922 8.16099 31.6554 8.30707 31.8453Z" fill="black"/>
</svg>
