<svg width="30" height="30" viewBox="0 0 30 30" fill="none" xmlns="http://www.w3.org/2000/svg">
<rect x="0.5" y="0.5" width="29" height="29" rx="3.5" fill="#2F3990"/>
<path d="M8.87405 23C8.37666 22.9995 7.8998 22.8017 7.5481 22.45C7.1964 22.0982 6.99858 21.6214 6.99805 21.124V10.124C6.99858 9.62671 7.19643 9.14995 7.54816 8.79841C7.89989 8.44686 8.37675 8.24927 8.87405 8.249H9.62405V7H10.874V8.25H19.125V7H20.375V8.25H21.126C21.6233 8.25026 22.1002 8.44786 22.4519 8.79941C22.8037 9.15095 23.0015 9.62771 23.002 10.125V21.125C23.0013 21.6222 22.8033 22.0988 22.4516 22.4503C22.1 22.8018 21.6233 22.9995 21.126 23H8.87405ZM8.24905 21.124C8.24931 21.2897 8.31524 21.4485 8.4324 21.5656C8.54955 21.6828 8.70837 21.7487 8.87405 21.749H21.126C21.2917 21.7487 21.4505 21.6828 21.5677 21.5656C21.6848 21.4485 21.7508 21.2897 21.751 21.124V12.875H8.25105L8.24905 21.124ZM8.24905 10.124V11.624H21.749V10.124C21.749 9.95824 21.6832 9.79927 21.566 9.68206C21.4488 9.56485 21.2898 9.499 21.124 9.499H20.373V10.749H19.123V9.5H10.874V10.75H9.62405V9.5H8.87405C8.70819 9.5 8.54912 9.56582 8.43175 9.683C8.31438 9.80018 8.24831 9.95915 8.24805 10.125L8.24905 10.124ZM16.874 20.44V19.19H18.124V20.44H16.874ZM14.374 20.44V19.19H15.624V20.44H14.374ZM11.874 20.44V19.19H13.124V20.44H11.874ZM9.37405 20.44V19.19H10.624V20.44H9.37405ZM19.374 17.94V16.69H20.624V17.94H19.374ZM16.874 17.94V16.69H18.124V17.94H16.874ZM14.374 17.94V16.69H15.624V17.94H14.374ZM11.874 17.94V16.69H13.124V17.94H11.874ZM9.37405 17.94V16.69H10.624V17.94H9.37405ZM19.374 15.44V14.19H20.624V15.439L19.374 15.44ZM16.874 15.44V14.19H18.124V15.439L16.874 15.44ZM14.374 15.44V14.19H15.624V15.439L14.374 15.44ZM11.874 15.44V14.19H13.124V15.439L11.874 15.44ZM9.37405 15.44V14.19H10.624V15.439L9.37405 15.44Z" fill="white"/>
<rect x="0.5" y="0.5" width="29" height="29" rx="3.5" stroke="#2F3990"/>
</svg>
