<svg width="16" height="16" viewBox="0 0 16 16" fill="none" xmlns="http://www.w3.org/2000/svg">
<rect width="16" height="16" rx="4" fill="#D3D3D3"/>
<path d="M11.5754 6.79489C11.7937 6.95733 12.023 7.09869 12.2162 7.27832C12.7274 7.75355 12.9804 8.35257 12.9961 9.04922C13.0031 9.36161 12.9988 9.67401 12.9976 9.9864C12.9965 10.2027 12.9504 10.2519 12.7344 10.2531C12.2205 10.2558 11.7066 10.2539 11.1639 10.2539C11.1639 10.5429 11.1639 10.8201 11.1639 11.0974C11.1639 11.2469 11.1635 11.3969 11.1639 11.5464C11.1639 11.6827 11.0959 11.7507 10.96 11.7511C10.921 11.7511 10.8819 11.7511 10.8429 11.7511C8.94858 11.7511 7.05468 11.7511 5.16039 11.7511C4.84995 11.7511 4.83316 11.7339 4.83316 11.4152C4.83316 11.0388 4.83316 10.662 4.83316 10.2648C4.75271 10.2605 4.68438 10.2543 4.61565 10.2543C4.17322 10.2535 3.7304 10.2551 3.28797 10.2531C3.04352 10.2523 2.99392 10.2086 3.00056 9.97274C3.01306 9.50531 2.98416 9.0293 3.06343 8.57281C3.19425 7.82111 3.64058 7.26387 4.30833 6.88939C4.3423 6.87025 4.37589 6.85034 4.40908 6.83042C4.41454 6.8273 4.41884 6.82183 4.43407 6.80856C4.12402 6.4739 3.97524 6.08145 4.00765 5.62106C4.08145 4.5636 5.28379 3.9146 6.21004 4.43474C6.30806 4.4898 6.3967 4.55306 6.33461 4.67762C6.26823 4.81078 6.15889 4.77954 6.04994 4.72722C5.59072 4.50581 5.15102 4.53666 4.7531 4.86077C4.33371 5.20206 4.21695 5.77374 4.4493 6.25757C4.67461 6.72694 5.19593 6.99092 5.71489 6.89798C5.73403 6.89446 5.75238 6.88744 5.77152 6.88275C5.88437 6.85463 5.98902 6.86401 6.02065 6.99521C6.05619 7.14282 5.94724 7.18616 5.83204 7.21233C5.51027 7.28574 5.20178 7.24552 4.89563 7.12408C4.81168 7.09088 4.68828 7.08385 4.60979 7.12095C3.84794 7.48177 3.41371 8.08352 3.34771 8.92816C3.32311 9.24485 3.34381 9.56506 3.34381 9.89971H4.84917C4.92063 9.35146 5.10689 8.8446 5.43452 8.39397C5.75824 7.94841 6.17724 7.61649 6.67044 7.37555C5.97535 6.32005 6.0269 5.36021 6.80594 4.69442C7.50648 4.09579 8.52958 4.10594 9.21763 4.71863C9.97871 5.39653 10.0205 6.35753 9.32658 7.37009C10.3692 7.89882 10.9815 8.74229 11.1494 9.90713H12.6427C12.7317 8.90434 12.6598 7.96715 11.7484 7.31971C11.6848 7.27442 11.6176 7.23498 11.5508 7.19397C11.3786 7.08893 11.2154 7.04285 11.0096 7.14711C10.7542 7.27637 10.4692 7.27754 10.188 7.21701C10.0689 7.19124 9.94044 7.15844 9.97559 6.99951C10.0103 6.84292 10.1345 6.86557 10.2587 6.89017C10.8843 7.01357 11.4934 6.62619 11.6297 6.02288C11.7707 5.39926 11.4157 4.79751 10.8019 4.62959C10.5078 4.54915 10.2247 4.59015 9.94786 4.7198C9.87796 4.7526 9.76394 4.75768 9.70029 4.72214C9.59251 4.662 9.63117 4.52728 9.7655 4.44567C10.6531 3.90562 11.891 4.53822 11.9859 5.57772C12.0292 6.05295 11.8867 6.46101 11.5754 6.79489ZM10.8194 11.4051C10.8194 10.9474 10.8487 10.498 10.8136 10.0536C10.7261 8.94964 10.1579 8.1624 9.16687 7.67389C9.063 7.62274 8.98373 7.6243 8.88064 7.68248C8.37299 7.96794 7.8224 8.0351 7.31241 7.7641C6.98478 7.58994 6.76767 7.68951 6.51892 7.84454C6.3924 7.92342 6.26979 8.01089 6.15576 8.10656C5.10455 8.9883 5.10884 10.1805 5.18421 11.4051H10.8194ZM7.99499 7.57939C8.8287 7.58056 9.4941 6.91594 9.49293 6.08302C9.49176 5.25009 8.82284 4.58469 7.99109 4.58898C7.16597 4.59328 6.50721 5.25165 6.50291 6.07677C6.49823 6.90969 7.16168 7.57783 7.99499 7.579V7.57939Z" fill="#3A3A3A"/>
</svg>
