<svg xmlns="http://www.w3.org/2000/svg" width="20" height="15.385" viewBox="0 0 10 10" fill="none">
<path d="M1.23929 10C0.909247 9.99806 0.593471 9.86532 0.361156 9.63088C0.12884 9.39644 -0.00105819 9.07945 6.49351e-06 8.7494V2.91633C-0.00105819 2.58629 0.12884 2.26926 0.361156 2.03482C0.593471 1.80038 0.909247 1.66764 1.23929 1.6657H4.54513C4.65563 1.6657 4.76158 1.70958 4.83972 1.78772C4.91785 1.86586 4.96178 1.97184 4.96178 2.08235C4.96178 2.19285 4.91785 2.29883 4.83972 2.37697C4.76158 2.45511 4.65563 2.49899 4.54513 2.49899H1.23929C1.12937 2.4997 1.02425 2.54398 0.946904 2.62208C0.869555 2.70017 0.826275 2.80572 0.82663 2.91564V8.74871C0.826098 8.85875 0.869292 8.96452 0.94666 9.04277C1.02403 9.12101 1.12926 9.16535 1.23929 9.16605H7.0237C7.07824 9.16579 7.13218 9.15478 7.18246 9.13367C7.23275 9.11255 7.27844 9.08172 7.31682 9.04297C7.3552 9.00422 7.38554 8.95829 7.40617 8.9078C7.4268 8.85732 7.43727 8.80325 7.43701 8.74871V5.41553C7.43701 5.30591 7.48059 5.20078 7.5581 5.12327C7.63561 5.04575 7.7407 5.00222 7.85032 5.00222C7.95994 5.00222 8.06503 5.04575 8.14255 5.12327C8.22006 5.20078 8.26363 5.30591 8.26363 5.41553V8.74871C8.2647 9.07888 8.13478 9.39597 7.90232 9.63043C7.66986 9.86489 7.35386 9.99759 7.0237 9.99935L1.23929 10ZM3.58188 6.38814C3.55773 6.36373 3.53992 6.3338 3.53004 6.30091C3.52016 6.26801 3.51846 6.23319 3.52516 6.19951L3.81714 4.72623C3.82562 4.68625 3.84532 4.6495 3.87386 4.62024L7.14039 1.32371L8.60159 2.79699L5.33514 6.09352C5.30672 6.12295 5.2699 6.14296 5.22975 6.15085L3.76921 6.44551C3.75583 6.44829 3.74218 6.44962 3.72852 6.4495C3.67387 6.44908 3.62161 6.427 3.58318 6.38814H3.58188ZM7.5817 0.881756L8.15361 0.305081C8.2491 0.208434 8.36287 0.131713 8.48823 0.0793421C8.6136 0.0269717 8.74811 0 8.88397 0C9.01983 0 9.15434 0.0269717 9.2797 0.0793421C9.40506 0.131713 9.51875 0.208434 9.61424 0.305081C9.80806 0.50113 9.9168 0.765732 9.9168 1.04142C9.9168 1.3171 9.80806 1.58166 9.61424 1.77771L9.04224 2.355L7.5817 0.881756Z" fill="#818181"/>
</svg>