<svg width="14" height="10" viewBox="0 0 14 10" fill="none" xmlns="http://www.w3.org/2000/svg">
<path d="M13.0732 0.384848C13.0732 0.282728 13.0328 0.18486 12.9605 0.112746C12.8884 0.0406317 12.7906 0.000194672 12.6886 0.000194672H8.07325C7.8609 0.000194672 7.6886 0.172369 7.6886 0.384848C7.6886 0.597199 7.8609 0.76937 8.07325 0.76937H12.6886C12.7906 0.769499 12.8884 0.728933 12.9605 0.656819C13.0328 0.584705 13.0732 0.486837 13.0732 0.384845V0.384848ZM13.0732 2.69251C13.0732 2.59039 13.0328 2.49252 12.9605 2.4204C12.8884 2.34829 12.7906 2.30785 12.6886 2.30785H8.07325C7.8609 2.30785 7.6886 2.48003 7.6886 2.69251C7.6886 2.90486 7.8609 3.07703 8.07325 3.07703H12.6886C12.7906 3.07716 12.8884 3.03659 12.9605 2.96448C13.0328 2.89236 13.0732 2.79449 13.0732 2.6925V2.69251ZM13.0732 5.00016C13.0732 4.89804 13.0328 4.80018 12.9605 4.72806C12.8884 4.65595 12.7906 4.61551 12.6886 4.61551H8.07325C7.8609 4.61551 7.6886 4.78768 7.6886 5.00016C7.6886 5.21251 7.8609 5.38469 8.07325 5.38469H12.6886C12.7906 5.38481 12.8884 5.34425 12.9605 5.27213C13.0328 5.20002 13.0732 5.10215 13.0732 5.00016V5.00016ZM13.0732 7.30782C13.0732 7.2057 13.0328 7.10783 12.9605 7.03572C12.8884 6.9636 12.7906 6.92317 12.6886 6.92317H1.15028C0.937928 6.92317 0.765625 7.09534 0.765625 7.30782C0.765625 7.52017 0.937928 7.69234 1.15028 7.69234H12.6886C12.7906 7.69247 12.8884 7.65191 12.9605 7.57979C13.0328 7.50768 13.0732 7.40981 13.0732 7.30782V7.30782ZM13.0732 9.61548C13.0732 9.51336 13.0328 9.41549 12.9605 9.34338C12.8884 9.27126 12.7906 9.23083 12.6886 9.23083H1.15028C0.937928 9.23083 0.765625 9.403 0.765625 9.61548C0.765625 9.82783 0.937928 10 1.15028 10H12.6886C12.7906 10.0001 12.8884 9.95956 12.9605 9.88745C13.0328 9.81533 13.0732 9.71747 13.0732 9.61547V9.61548ZM5.38081 5.38455H1.53493C1.33082 5.38455 1.13521 5.30355 0.990984 5.15933C0.846756 5.0151 0.765629 4.81937 0.765629 4.61538V0.769172C0.765629 0.565192 0.846756 0.369585 0.990984 0.225356C1.13521 0.080999 1.33084 0 1.53493 0H5.38114H5.38101C5.58512 0 5.78073 0.080999 5.92496 0.225356C6.06919 0.369585 6.15031 0.565208 6.15031 0.769172V4.61538C6.15031 4.81936 6.06919 5.0151 5.92496 5.15933C5.78073 5.30355 5.5851 5.38455 5.38101 5.38455H5.38081Z" fill="#818181"/>
</svg>
