<svg width="8" height="10" viewBox="0 0 8 10" fill="none" xmlns="http://www.w3.org/2000/svg">
<path fill-rule="evenodd" clip-rule="evenodd" d="M1.1835 5.05522L5.87203 1.16212C6.12461 0.931429 6.57104 0.933589 6.82349 1.16212C7.07698 1.39152 7.07698 1.76627 6.81491 2.00292L2.60795 5.49632L6.82349 8.99834C7.07698 9.22775 7.07698 9.6025 6.82349 9.83181C6.69773 9.94651 6.5295 10.0094 6.34833 10.0094C6.34833 10.0094 6.34833 10.0094 6.34731 10.0094C6.16718 10.0094 5.9978 9.94651 5.87958 9.83934L1.17606 5.93224C1.04492 5.81469 0.976822 5.65086 0.98758 5.51031C0.976822 5.34276 1.04492 5.17912 1.1835 5.05522Z" fill="#C3C3C3"/>
</svg>
