<svg width="18" height="12" viewBox="0 0 18 12" fill="none" xmlns="http://www.w3.org/2000/svg">
<path d="M16.761 0.405709C16.8882 0.530024 16.9898 0.680794 17.0592 0.848582C17.1286 1.01637 17.1644 1.19753 17.1644 1.38066C17.1644 1.5638 17.1286 1.74496 17.0592 1.91274C16.9898 2.08053 16.8882 2.23133 16.761 2.35565L7.53888 11.5966C7.27441 11.8559 6.92712 12 6.56644 12C6.20576 12 5.85837 11.8559 5.5939 11.5966L1.20421 7.19685C1.07701 7.07254 0.975508 6.92174 0.90609 6.75395C0.836671 6.58616 0.800781 6.40501 0.800781 6.22187C0.800781 6.03873 0.836671 5.85758 0.90609 5.68979C0.975508 5.522 1.07701 5.3712 1.20421 5.24689C1.4684 4.98773 1.81543 4.84372 2.17583 4.84372C2.53623 4.84372 2.88336 4.98773 3.14755 5.24689L6.5647 8.67173L14.8144 0.403924C15.079 0.143992 15.4269 -0.000328341 15.788 5.60935e-07C16.1492 0.000329463 16.4968 0.145295 16.761 0.405709Z" fill="#1CB303"/>
</svg>
