<svg width="8" height="10" viewBox="0 0 8 10" fill="none" xmlns="http://www.w3.org/2000/svg">
<path fill-rule="evenodd" clip-rule="evenodd" d="M1.18371 4.5724L5.87225 0.692798C6.1247 0.463001 6.57114 0.465053 6.82359 0.692798C7.07708 0.921425 7.07708 1.2949 6.81501 1.53077L2.60805 5.01203L6.82359 8.50182C7.07708 8.73045 7.07708 9.10372 6.82359 9.33245C6.69782 9.44676 6.52959 9.5094 6.34844 9.5094C6.34844 9.5094 6.34844 9.5094 6.3474 9.5094C6.16727 9.5094 5.9979 9.44676 5.87969 9.33988L1.17616 5.44638C1.04501 5.32924 0.976924 5.16609 0.987676 5.02584C0.976924 4.85916 1.04501 4.69582 1.18371 4.5724Z" fill="#959595"/>
</svg>
