<svg width="30" height="30" viewBox="0 0 30 30" fill="none" xmlns="http://www.w3.org/2000/svg">
<rect x="0.5" y="0.5" width="29" height="29" rx="4.5" stroke="#DFE1E6"/>
<path d="M13.504 8.08561V5L18.1402 9.64891L13.507 14.4467V10.3896C11.0214 10.5465 8.63813 12.9194 8.212 15.6622C7.76282 18.5449 9.41517 22.0863 13.4719 22.9669V25C10.5151 24.8071 6.70302 22.2262 6.08138 17.7553C5.45373 13.2353 8.50678 8.83527 13.504 8.08561Z" fill="black"/>
<path d="M15.6215 24.995C15.6215 24.3243 15.6165 23.6826 15.6296 23.0409C15.6401 22.9969 15.6607 22.956 15.6898 22.9213C15.7188 22.8867 15.7555 22.8592 15.797 22.841C16.6262 22.5181 17.4594 22.2073 18.3036 21.8884L19.7404 23.3288C18.553 24.261 17.1249 24.8388 15.6215 24.995Z" fill="black"/>
<path d="M21.2885 11.4251C22.2297 12.5951 22.8227 14.005 23 15.4943H20.9456L19.8738 12.8255C20.3029 12.3997 20.7832 11.9249 21.2885 11.4251Z" fill="black"/>
<path d="M21.2825 21.6985L19.8667 20.2671C20.2257 19.4135 20.5896 18.5509 20.9767 17.6323H22.991C22.7854 19.1126 22.1966 20.5141 21.2825 21.6985Z" fill="black"/>
</svg>
