<svg width="30" height="30" viewBox="0 0 30 30" fill="none" xmlns="http://www.w3.org/2000/svg">
<rect x="0.5" y="0.5" width="29" height="29" rx="4.5" stroke="#DFE1E6"/>
<path d="M15.9375 7.93133V5L11.5739 9.41646L15.9346 13.9744V10.1201C18.274 10.2692 20.5171 12.5235 20.9181 15.1291C21.3409 17.8677 19.7857 21.232 15.9676 22.0686V24C18.7505 23.8167 22.3383 21.3649 22.9234 17.1175C23.5141 12.8235 20.6407 8.64351 15.9375 7.93133Z" fill="black"/>
<path d="M13.9444 23.9953C13.9444 23.3581 13.9491 22.7485 13.9369 22.1388C13.9269 22.0971 13.9076 22.0582 13.8802 22.0253C13.8529 21.9923 13.8183 21.9662 13.7793 21.9489C12.9989 21.6422 12.2147 21.3469 11.4201 21.044L10.0679 22.4123C11.1854 23.298 12.5295 23.8468 13.9444 23.9953Z" fill="black"/>
<path d="M8.61083 11.1039C7.72501 12.2154 7.16691 13.5547 7 14.9696H8.93357L9.94235 12.4342C9.53846 12.0297 9.08644 11.5786 8.61083 11.1039Z" fill="black"/>
<path d="M8.6165 20.8636L9.94895 19.5038C9.61112 18.6928 9.26857 17.8734 8.90431 17.0007H7.00849C7.20194 18.407 7.75614 19.7384 8.6165 20.8636Z" fill="black"/>
</svg>
