<svg width="13" height="13" viewBox="0 0 13 13" fill="none" xmlns="http://www.w3.org/2000/svg">
<path d="M4.14122 10.5H8.85909C8.86535 10.4958 8.87099 10.4896 8.87787 10.4879C9.28367 10.3896 9.49981 10.1157 9.49981 9.69808C9.49981 8.56091 9.50023 7.42354 9.49981 6.28638C9.49981 5.82367 9.17726 5.50302 8.71347 5.50219C8.6442 5.50219 8.57472 5.50219 8.50024 5.50219C8.50024 5.178 8.50316 4.86361 8.49878 4.54923C8.4969 4.41697 8.48835 4.28366 8.46769 4.15328C8.30099 3.10769 7.25406 2.35397 6.20838 2.52399C5.20464 2.68713 4.50258 3.50991 4.5007 4.52587C4.50007 4.82252 4.5007 5.11917 4.5007 5.41582C4.5007 5.44315 4.5007 5.47069 4.5007 5.5024C4.40389 5.5024 4.31814 5.50052 4.2326 5.50261C3.83432 5.5122 3.50426 5.83368 3.5028 6.23151C3.49862 7.4104 3.49967 8.58929 3.50238 9.76817C3.503 10.0765 3.70455 10.3479 3.99476 10.4531C4.04295 10.4706 4.0924 10.4841 4.14122 10.4996V10.5ZM5.16833 5.49781C5.16833 5.23787 5.16604 4.98336 5.16917 4.72885C5.17104 4.57572 5.1675 4.42051 5.19024 4.26989C5.29497 3.57437 5.9987 3.06889 6.69158 3.18384C7.36965 3.29628 7.82802 3.83305 7.83157 4.51982C7.83303 4.78267 7.83177 5.04532 7.83177 5.30818C7.83177 5.36993 7.83177 5.43188 7.83177 5.4976H5.16812L5.16833 5.49781ZM6.8322 8.48769C6.8322 8.53192 6.8322 8.57614 6.8322 8.62037C6.83178 8.7011 6.8347 8.78184 6.82991 8.86216C6.81989 9.03197 6.6751 9.16548 6.50318 9.16757C6.3296 9.16986 6.17604 9.03385 6.17124 8.86028C6.16478 8.63164 6.16686 8.40258 6.16937 8.17351C6.1702 8.10884 6.15476 8.06712 6.09843 8.0254C5.85391 7.84474 5.76962 7.52952 5.88249 7.25164C5.9962 6.97105 6.28161 6.80395 6.58267 6.8415C6.85265 6.87509 7.07213 7.06576 7.14244 7.32758C7.21421 7.5944 7.12054 7.86789 6.89437 8.03166C6.84555 8.06691 6.82886 8.10238 6.83095 8.15996C6.83512 8.26906 6.8322 8.37838 6.8322 8.48769Z" fill="#959595"/>
<rect x="0.15" y="0.15" width="12.7" height="12.7" rx="6.35" stroke="#959595" stroke-width="0.3"/>
</svg>
