<svg width="12" height="12" viewBox="0 0 12 12" fill="none" xmlns="http://www.w3.org/2000/svg">
<path d="M7.3592 11.6546C7.12891 11.8849 6.84355 12 6.50313 12C6.1627 12 5.87735 11.8849 5.64706 11.6546L0.36045 6.36796C0.250313 6.25782 0.162804 6.12766 0.0979225 5.97747C0.0326409 5.82728 0 5.66708 0 5.49687V1.2015C0 0.871089 0.117747 0.588135 0.353242 0.352641C0.588335 0.117547 0.871089 0 1.2015 0H5.49687C5.66708 0 5.82728 0.0324405 5.97747 0.0973216C6.12766 0.162603 6.25782 0.250313 6.36796 0.36045L11.6546 5.66208C11.8849 5.89237 12 6.17512 12 6.51034C12 6.84596 11.8849 7.12891 11.6546 7.3592L7.3592 11.6546ZM6.50313 10.8135L10.7985 6.51815L5.49687 1.2015H1.2015V5.49687L6.50313 10.8135ZM2.70338 3.60451C2.95369 3.60451 3.16636 3.5168 3.34138 3.34138C3.5168 3.16636 3.60451 2.95369 3.60451 2.70338C3.60451 2.45307 3.5168 2.2404 3.34138 2.06538C3.16636 1.88996 2.95369 1.80225 2.70338 1.80225C2.45307 1.80225 2.2404 1.88996 2.06538 2.06538C1.88996 2.2404 1.80225 2.45307 1.80225 2.70338C1.80225 2.95369 1.88996 3.16636 2.06538 3.34138C2.2404 3.5168 2.45307 3.60451 2.70338 3.60451Z" fill="#818181"/>
</svg>
