<svg width="18" height="17" viewBox="0 0 18 17" fill="none" xmlns="http://www.w3.org/2000/svg">
<path d="M12.7762 10.374C13.7463 9.04766 14.1801 7.40411 13.9909 5.77183C13.8017 4.13955 13.0033 2.63882 11.7555 1.56965C10.5077 0.500477 8.90239 -0.0583708 7.2604 0.00483082C5.61841 0.0680325 4.06075 0.748622 2.89883 1.91055C1.7369 3.07247 1.05631 4.63012 0.993112 6.27212C0.92991 7.91411 1.48876 9.51946 2.55793 10.7673C3.6271 12.0151 5.12782 12.8134 6.7601 13.0026C8.39237 13.1918 10.0359 12.7581 11.3622 11.788L15.6202 16.047L17.0342 14.633L12.7762 10.375V10.374ZM7.53423 11.047C6.64422 11.047 5.77419 10.783 5.03417 10.2886C4.29415 9.7941 3.71737 9.0913 3.37678 8.26904C3.03618 7.44677 2.94707 6.54198 3.12071 5.66906C3.29434 4.79615 3.72292 3.99432 4.35226 3.36498C4.98159 2.73565 5.78342 2.30707 6.65634 2.13343C7.52925 1.9598 8.43404 2.04891 9.25631 2.3895C10.0786 2.7301 10.7814 3.30688 11.2758 4.0469C11.7703 4.78692 12.0342 5.65694 12.0342 6.54696C12.0342 7.74043 11.5601 8.88502 10.7162 9.72894C9.8723 10.5729 8.72771 11.047 7.53423 11.047Z" fill="#636C78"/>
</svg>
