<svg width="19" height="18" viewBox="0 0 19 18" fill="none" xmlns="http://www.w3.org/2000/svg">
<path d="M13.6592 11.6365C14.7473 10.1488 15.2339 8.30524 15.0216 6.47431C14.8094 4.64337 13.9139 2.95999 12.5142 1.76069C11.1146 0.561389 9.31385 -0.065475 7.47201 0.00541877C5.63017 0.0763126 3.88294 0.839735 2.5796 2.14307C1.27626 3.44642 0.512836 5.19365 0.441942 7.03548C0.371048 8.87732 0.997913 10.6781 2.19721 12.0777C3.39651 13.4774 5.07987 14.3729 6.91081 14.5851C8.74175 14.7974 10.5854 14.3108 12.0731 13.2226L16.8493 18L18.4354 16.4139L13.6592 11.6377V11.6365ZM7.77917 12.3915C6.78083 12.3915 5.80492 12.0954 4.97483 11.5408C4.14474 10.9861 3.49777 10.1978 3.11572 9.27544C2.73367 8.3531 2.63371 7.33818 2.82848 6.35903C3.02325 5.37987 3.50399 4.48046 4.20992 3.77453C4.91585 3.0686 5.81527 2.58785 6.79442 2.39309C7.77358 2.19832 8.78849 2.29828 9.71084 2.68033C10.6332 3.06237 11.4215 3.70935 11.9762 4.53944C12.5308 5.36953 12.8269 6.34544 12.8269 7.34378C12.8269 8.6825 12.295 9.9664 11.3484 10.913C10.4018 11.8596 9.1179 12.3915 7.77917 12.3915Z" fill="#3A3A3A"/>
</svg>
