<svg width="19" height="20" viewBox="0 0 19 20" fill="none" xmlns="http://www.w3.org/2000/svg">
<path d="M17.9176 8.08223L16.6373 7.86469C16.5039 7.43341 16.3324 7.01741 16.1229 6.62049L16.8773 5.5633C17.1974 5.11294 17.1479 4.49848 16.7554 4.10919L15.6199 2.97185C15.4065 2.75813 15.1245 2.63981 14.8235 2.63981C14.5873 2.63981 14.3625 2.71233 14.1719 2.84972L13.1126 3.6054C12.7011 3.38786 12.2705 3.20848 11.8247 3.0749L11.6114 1.8078C11.5199 1.26203 11.0512 0.865112 10.4987 0.865112H8.89453C8.34202 0.865112 7.87334 1.26203 7.7819 1.8078L7.56089 3.10543C7.13413 3.23901 6.71879 3.41458 6.32251 3.6283L5.27465 2.87262C5.08413 2.73523 4.85551 2.66271 4.61926 2.66271C4.31824 2.66271 4.03246 2.78103 3.82289 2.99475L2.68358 4.13209C2.29492 4.52138 2.24157 5.13584 2.56164 5.5862L3.32372 6.65865C3.11415 7.05939 2.94649 7.4754 2.81694 7.90667L1.55189 8.12039C1.007 8.21199 0.610718 8.68143 0.610718 9.23483V10.8416C0.610718 11.395 1.007 11.8644 1.55189 11.956L2.84742 12.1774C2.98079 12.6049 3.15607 13.0209 3.36945 13.4178L2.6188 14.4635C2.29873 14.9139 2.34826 15.5283 2.74073 15.9176L3.87623 17.055C4.08962 17.2687 4.37158 17.387 4.67261 17.387C4.90885 17.387 5.13367 17.3145 5.32419 17.1771L6.39491 16.4138C6.77976 16.6161 7.18366 16.7802 7.599 16.9099L7.81238 18.1923C7.90383 18.7381 8.37251 19.135 8.92502 19.135H10.533C11.0855 19.135 11.5542 18.7381 11.6456 18.1923L11.8628 16.9099C12.2934 16.7764 12.7087 16.6046 13.105 16.3947L14.1605 17.1504C14.351 17.2878 14.5797 17.3603 14.8159 17.3603C15.1169 17.3603 15.3989 17.242 15.6123 17.0282L16.7478 15.8909C17.1364 15.5016 17.1898 14.8872 16.8697 14.4368L16.1152 13.3758C16.3248 12.9751 16.5001 12.5591 16.6296 12.1316L17.9099 11.9179C18.4548 11.8263 18.8511 11.3568 18.8511 10.8034V9.19666C18.8587 8.64326 18.4625 8.17383 17.9176 8.08223ZM17.8299 10.8034C17.8299 10.8531 17.7956 10.895 17.7461 10.9027L16.1457 11.1698C15.9438 11.2042 15.7837 11.353 15.7342 11.5477C15.5894 12.1087 15.3684 12.6468 15.0712 13.1468C14.9683 13.3224 14.9759 13.5399 15.0941 13.7078L16.0352 15.036C16.0619 15.0742 16.0581 15.1314 16.0238 15.1658L14.8883 16.3031C14.8616 16.3298 14.8349 16.3336 14.8159 16.3336C14.793 16.3336 14.774 16.326 14.7587 16.3146L13.4365 15.3719C13.2727 15.2535 13.0517 15.2459 12.8764 15.349C12.3772 15.6467 11.84 15.868 11.2798 16.013C11.0817 16.0627 10.9331 16.2268 10.9026 16.4252L10.6321 18.0282C10.6245 18.0778 10.5825 18.1122 10.533 18.1122H8.92883C8.87929 18.1122 8.83738 18.0778 8.82976 18.0282L8.56303 16.4252C8.52873 16.223 8.38013 16.0627 8.1858 16.013C7.64091 15.8718 7.11507 15.6543 6.62353 15.3719C6.54351 15.3261 6.45206 15.3032 6.36443 15.3032C6.26154 15.3032 6.15485 15.3337 6.06721 15.3986L4.73357 16.3489C4.71452 16.3603 4.69547 16.368 4.67642 16.368C4.66118 16.368 4.63069 16.3642 4.60402 16.3375L3.46852 15.2001C3.43423 15.1658 3.43042 15.1123 3.45709 15.0704L4.39445 13.7536C4.51257 13.5857 4.52019 13.3643 4.41731 13.1888C4.1201 12.6926 3.89147 12.1545 3.74668 11.5935C3.69333 11.3988 3.5333 11.25 3.33516 11.2156L1.72336 10.9408C1.67382 10.9332 1.63953 10.8912 1.63953 10.8416V9.23483C1.63953 9.18521 1.67382 9.14323 1.72336 9.1356L3.31229 8.86844C3.51424 8.83409 3.67809 8.68525 3.72763 8.48678C3.86861 7.92575 4.0858 7.3838 4.37921 6.88383C4.48209 6.70827 4.47066 6.49072 4.35253 6.32661L3.40374 4.99081C3.37707 4.95265 3.38088 4.8954 3.41517 4.86105L4.55067 3.72372C4.57735 3.697 4.60402 3.69318 4.62307 3.69318C4.64593 3.69318 4.66499 3.70082 4.68023 3.71227L5.99482 4.65114C6.16247 4.76945 6.38348 4.77709 6.55876 4.67404C7.05411 4.37635 7.59137 4.14735 8.1515 4.00233C8.34583 3.94889 8.49444 3.7886 8.52873 3.59014L8.80308 1.97573C8.8107 1.92612 8.85262 1.89177 8.90215 1.89177H10.5063C10.5559 1.89177 10.5978 1.92612 10.6054 1.97573L10.8721 3.56724C10.9064 3.76952 11.055 3.93363 11.2532 3.98324C11.8285 4.12827 12.3772 4.35345 12.8878 4.65496C13.0631 4.758 13.2803 4.75037 13.448 4.63206L14.7626 3.68555C14.7816 3.6741 14.8007 3.66647 14.8197 3.66647C14.8349 3.66647 14.8654 3.67028 14.8921 3.697L16.0276 4.83434C16.0619 4.86868 16.0657 4.92212 16.039 4.9641L15.0979 6.28844C14.9797 6.45256 14.9721 6.67392 15.075 6.84948C15.3722 7.34945 15.5932 7.88758 15.738 8.44862C15.7875 8.64708 15.9514 8.79593 16.1495 8.82646L17.7499 9.09743C17.7994 9.10507 17.8337 9.14705 17.8337 9.19666V10.8034H17.8299Z" fill="#818181"/>
<path d="M9.95458 6.05554C7.78265 6.05554 6.01843 7.82261 6.01843 9.99805C6.01843 12.1735 7.78265 13.9406 9.95458 13.9406C12.1265 13.9406 13.8907 12.1735 13.8907 9.99805C13.8907 7.82261 12.1265 6.05554 9.95458 6.05554ZM9.95458 12.9101C8.3504 12.9101 7.04724 11.6048 7.04724 9.99805C7.04724 8.39128 8.3504 7.08601 9.95458 7.08601C11.5588 7.08601 12.8619 8.39128 12.8619 9.99805C12.8619 11.6048 11.5588 12.9101 9.95458 12.9101Z" fill="#818181"/>
</svg>
