<svg width="12" height="12" viewBox="0 0 12 12" fill="none" xmlns="http://www.w3.org/2000/svg">
<path d="M11.3858 4.74034L10.5436 4.59745C10.4558 4.31418 10.343 4.04094 10.2051 3.78024L10.7015 3.08586C10.9121 2.79006 10.8795 2.38646 10.6213 2.13077L9.87425 1.38375C9.73387 1.24337 9.54837 1.16566 9.35033 1.16566C9.19491 1.16566 9.04701 1.21329 8.92167 1.30353L8.22478 1.79987C7.95405 1.65699 7.67078 1.53917 7.37748 1.45143L7.2371 0.619177C7.17694 0.260706 6.86861 0 6.50512 0H5.44976C5.08628 0 4.77794 0.260706 4.71778 0.619177L4.57239 1.47149C4.29163 1.55922 4.01839 1.67454 3.75768 1.81492L3.06831 1.31857C2.94297 1.22833 2.79256 1.1807 2.63714 1.1807C2.43911 1.1807 2.2511 1.25841 2.11322 1.39879L1.36369 2.14581C1.108 2.4015 1.07291 2.8051 1.28348 3.1009L1.78483 3.80531C1.64696 4.06852 1.53666 4.34176 1.45143 4.62503L0.619177 4.76541C0.260706 4.82557 0 5.1339 0 5.49739V6.55275C0 6.91623 0.260706 7.22457 0.619177 7.28473L1.47149 7.43012C1.55922 7.71088 1.67454 7.98412 1.81492 8.24483L1.32108 8.93169C1.11051 9.22749 1.1431 9.63108 1.4013 9.88678L2.14832 10.6338C2.2887 10.7742 2.4742 10.8519 2.67224 10.8519C2.82766 10.8519 2.97556 10.8043 3.1009 10.714L3.80531 10.2127C4.05849 10.3455 4.32421 10.4533 4.59745 10.5385L4.73783 11.3808C4.798 11.7393 5.10633 12 5.46982 12H6.52768C6.89117 12 7.1995 11.7393 7.25967 11.3808L7.40255 10.5385C7.68582 10.4508 7.95906 10.338 8.21977 10.2001L8.91415 10.6965C9.03949 10.7867 9.18989 10.8343 9.34531 10.8343C9.54335 10.8343 9.72886 10.7566 9.86924 10.6163L10.6163 9.86923C10.872 9.61354 10.907 9.20994 10.6965 8.91414L10.2001 8.21726C10.338 7.95404 10.4533 7.6808 10.5385 7.40004L11.3808 7.25966C11.7393 7.1995 12 6.89116 12 6.52768V5.47232C12.005 5.10884 11.7443 4.8005 11.3858 4.74034ZM11.3282 6.52768C11.3282 6.56027 11.3056 6.58784 11.273 6.59286L10.2202 6.76833C10.0873 6.79089 9.98204 6.88866 9.94945 7.0165C9.85419 7.385 9.7088 7.73846 9.51327 8.06685C9.44559 8.18216 9.4506 8.32505 9.52831 8.43535L10.1475 9.30771C10.165 9.33278 10.1625 9.37038 10.14 9.39294L9.39295 10.14C9.3754 10.1575 9.35785 10.16 9.34531 10.16C9.33027 10.16 9.31774 10.155 9.30771 10.1475L8.43786 9.52831C8.33007 9.4506 8.18467 9.44558 8.06936 9.51327C7.74097 9.70879 7.38751 9.85419 7.01901 9.94945C6.88866 9.98203 6.7909 10.0898 6.77084 10.2202L6.59286 11.273C6.58785 11.3056 6.56027 11.3282 6.52768 11.3282H5.47232C5.43974 11.3282 5.41216 11.3056 5.40715 11.273L5.23167 10.2202C5.20911 10.0873 5.11135 9.98203 4.9835 9.94945C4.62503 9.8567 4.27909 9.71381 3.95572 9.52831C3.90307 9.49822 3.84291 9.48318 3.78525 9.48318C3.71757 9.48318 3.64738 9.50324 3.58972 9.54585L2.71235 10.17C2.69981 10.1776 2.68728 10.1826 2.67475 10.1826C2.66472 10.1826 2.64466 10.1801 2.62712 10.1625L1.88009 9.4155C1.85753 9.39294 1.85503 9.35784 1.87257 9.33027L2.48924 8.46543C2.56695 8.35513 2.57197 8.20973 2.50428 8.09442C2.30875 7.76854 2.15835 7.41508 2.06309 7.04659C2.02799 6.91874 1.92271 6.82097 1.79236 6.79841L0.731983 6.61792C0.699395 6.61291 0.676834 6.58534 0.676834 6.55275V5.49739C0.676834 5.4648 0.699395 5.43723 0.731983 5.43221L1.77731 5.25674C1.91017 5.23418 2.01797 5.13641 2.05055 5.00606C2.14331 4.63756 2.28619 4.2816 2.47922 3.95321C2.5469 3.83789 2.53938 3.69501 2.46167 3.58722L1.83748 2.70984C1.81993 2.68477 1.82244 2.64717 1.845 2.62461L2.59202 1.87759C2.60957 1.86004 2.62712 1.85753 2.63965 1.85753C2.65469 1.85753 2.66723 1.86254 2.67725 1.87006L3.5421 2.48673C3.65239 2.56445 3.79779 2.56946 3.9131 2.50178C4.23898 2.30625 4.59244 2.15584 4.96094 2.06058C5.08879 2.02549 5.18655 1.9202 5.20911 1.78985L5.3896 0.729476C5.39461 0.696887 5.42219 0.674326 5.45478 0.674326H6.51014C6.54272 0.674326 6.5703 0.696887 6.57531 0.729476L6.75079 1.77481C6.77335 1.90767 6.87111 2.01546 7.00147 2.04805C7.37999 2.1433 7.74097 2.29121 8.07688 2.48924C8.19219 2.55693 8.33508 2.55191 8.44538 2.4742L9.31022 1.85252C9.32275 1.845 9.33529 1.83998 9.34782 1.83998C9.35785 1.83998 9.3779 1.84249 9.39545 1.86004L10.1425 2.60706C10.165 2.62962 10.1675 2.66472 10.15 2.69229L9.53082 3.56215C9.45311 3.66994 9.44809 3.81533 9.51578 3.93065C9.71131 4.25903 9.8567 4.61249 9.95196 4.98099C9.98455 5.11134 10.0923 5.20911 10.2227 5.22916L11.2755 5.40714C11.3081 5.41216 11.3307 5.43973 11.3307 5.47232V6.52768H11.3282Z" fill="#4B4B4B"/>
<path d="M6.00125 3.40917C4.57238 3.40917 3.41174 4.56982 3.41174 5.99869C3.41174 7.42756 4.57238 8.5882 6.00125 8.5882C7.43012 8.5882 8.59077 7.42756 8.59077 5.99869C8.59077 4.56982 7.43012 3.40917 6.00125 3.40917ZM6.00125 7.91137C4.94589 7.91137 4.08857 7.05405 4.08857 5.99869C4.08857 4.94333 4.94589 4.08601 6.00125 4.08601C7.05661 4.08601 7.91393 4.94333 7.91393 5.99869C7.91393 7.05405 7.05661 7.91137 6.00125 7.91137Z" fill="#4B4B4B"/>
</svg>
