<svg width="52" height="52" viewBox="0 0 52 52" fill="none" xmlns="http://www.w3.org/2000/svg">
<path fill-rule="evenodd" clip-rule="evenodd" d="M25.9995 1C39.8068 1 51 12.1932 50.9993 26.0014C50.9993 39.8078 39.8068 51 25.9995 51C12.1925 51 1 39.8078 1 26.0014C1 12.1932 12.1925 1 25.9995 1Z" fill="#102A83" stroke="#102A83" stroke-width="0.288012"/>
<path fill-rule="evenodd" clip-rule="evenodd" d="M25.9999 1.55542C39.5009 1.55542 50.4443 12.4995 50.4443 26.0008C50.4443 39.4992 39.5009 50.4443 25.9999 50.4443C12.5 50.4443 1.55542 39.4992 1.55542 26.0008C1.55542 12.4995 12.5 1.55542 25.9999 1.55542Z" fill="white"/>
<path fill-rule="evenodd" clip-rule="evenodd" d="M13.4644 17.884C13.143 17.6094 12.7262 17.1934 12.7262 16.7949C12.7262 16.7949 11.1454 16.691 10.9937 15.4989C10.9937 15.4989 9.98153 15.3757 9.80166 14.2396C9.80166 14.2396 8.86468 14.1173 8.54232 12.9428C8.54232 12.9428 7.90866 12.7627 7.63403 12.0059C7.63403 12.0059 13.6822 12.8006 15.6036 13.0465C17.5157 13.3028 22.1632 13.9558 23.11 14.3251C23.6308 14.5328 23.9614 14.7502 24.1892 14.9781C24.2932 15.4135 24.407 15.8396 24.577 16.2466C24.3368 16.1308 24.0822 16.048 23.8199 16.0004C23.1192 15.8772 22.4662 16.0286 21.7848 16.1518C20.8001 16.3421 14.8752 17.5901 13.4644 17.884Z" fill="#E30016"/>
<path fill-rule="evenodd" clip-rule="evenodd" d="M13.7961 41.056C13.7961 41.056 13.4462 42.1056 12.1116 42.134L12.8208 40.3835C12.8208 40.3835 13.3893 40.4129 13.5783 40.3734C13.5783 40.3734 13.616 40.1474 13.5214 40.0428C13.4269 39.9288 13.323 39.6736 13.8713 38.8312C13.8713 38.8312 13.5976 38.7642 13.2184 39.0774C12.8492 39.3896 12.0921 39.8443 11.5624 39.5413L12.6698 37.922C12.6698 37.922 13.1236 38.4143 13.3893 38.0828C13.6444 37.7611 13.3606 37.6384 13.3606 37.6384C13.3606 37.6384 13.7015 37.2222 14.0707 36.9565C14.4492 36.7014 14.6383 36.4745 14.7236 35.8773C14.7989 35.2723 14.8184 35.1298 14.8276 34.8277C14.8468 34.5244 14.9322 34.4007 15.2444 34.1362C15.5567 33.8616 15.5567 33.5961 15.6037 33.2745C15.6423 32.9429 15.5851 32.7915 16.1906 32.7069C16.7967 32.6215 17.4974 32.4894 17.346 31.401C17.1943 30.3116 17.1659 28.5987 17.1842 28.0688C17.1943 27.5489 17.0338 27.568 16.6359 27.7464C16.2383 27.9171 14.6759 28.911 14.1845 29.215C13.6924 29.5181 12.6884 29.9811 11.5807 30.3025C10.4831 30.6157 10.1424 30.8324 10.0571 31.4854C9.98185 32.1292 10.4168 32.4414 10.4168 32.4414C10.4168 32.4414 10.6063 32.6784 10.237 32.7071C9.86782 32.7353 7.88947 32.9246 7.92709 31.0694C7.96565 29.215 9.84854 28.2486 12.2722 27.8978C14.6952 27.5388 15.8313 27.2651 16.7876 26.7911C17.7335 26.3265 18.2919 25.1819 19.0965 24.6613C19.8919 24.1405 20.4311 23.9042 21.8611 23.6014C21.8611 23.6014 22.6841 24.2259 24.0186 24.1984C25.3438 24.169 26.7445 23.7998 26.9337 23.7427C27.1331 23.6858 27.2561 23.6482 27.2084 23.5059C27.1707 23.3735 27.076 23.3561 26.8392 23.4213C26.6031 23.4965 25.2025 23.8466 24.0755 23.8466C22.9302 23.8466 22.2018 23.5057 21.9648 23.2882C21.9648 23.2882 19.6458 23.8182 18.709 23.9983C17.772 24.1791 15.2729 24.5666 14.089 23.7427C14.089 23.7427 12.5083 24.2259 11.4486 23.1934C11.4486 23.1934 9.71616 23.6298 9.05405 22.5974C9.05405 22.5974 7.71947 22.8067 7.23652 21.7839C7.23652 21.7839 5.9304 22.039 5.61815 21.0829C5.61815 21.0829 4.69951 21.0735 4.25513 20.2793C4.25513 20.2793 10.3124 18.9438 13.1429 18.3284C13.1805 18.3379 13.2092 18.3379 13.2468 18.3284C13.2468 18.3284 20.725 16.7477 21.851 16.5391C23.1009 16.3216 24.0664 16.17 24.8902 16.9177L24.9279 16.9563C25.1649 17.1841 25.3915 17.4761 25.6093 17.8737C26.7731 19.9569 27.6824 21.7839 30.6066 20.9976C30.8629 20.9224 30.7583 20.5447 30.5029 20.6099C29.3576 20.9221 28.5622 20.79 27.9377 20.382L29.443 20.0698C29.6983 20.0148 29.6222 19.6254 29.3576 19.6823L27.5401 20.0609C27.3587 19.8906 27.1938 19.7035 27.0475 19.5022L28.5154 19.2083C28.7705 19.1533 28.6943 18.7731 28.4298 18.8208L26.8016 19.1533C26.6784 18.9631 26.5655 18.7639 26.4423 18.5553L27.8625 18.2532C28.1176 18.1963 28.0322 17.8076 27.7769 17.8645L26.2432 18.1961L25.9591 17.6755L25.9215 17.6186L27.3313 17.3529C27.597 17.3061 27.5215 16.9179 27.2655 16.9654L25.6939 17.2584C25.5598 17.0649 25.4078 16.8844 25.2401 16.7192L26.7637 16.4263C27.0294 16.3785 26.953 15.9911 26.6979 16.0378L25.0407 16.3593C24.9561 16.1507 24.871 15.9339 24.8047 15.7164L26.5371 15.3941C26.8014 15.3471 26.7261 14.9596 26.4708 15.0064L24.6909 15.3369C24.6438 15.1672 24.5963 15.0064 24.5585 14.8357V14.7033L26.4047 14.3341C26.66 14.2864 26.5839 13.8987 26.3193 13.9455L24.5778 14.2864C24.6055 13.8042 24.6906 13.2264 24.8801 12.6589C25.8178 13.1225 26.5368 13.1317 26.5655 13.1317C26.83 13.1411 26.8392 12.7442 26.5747 12.7442C26.0355 12.7066 25.1639 12.3842 24.6441 12.0435C24.6441 12.0435 27.1047 11.068 27.7576 11.5998C27.7576 11.598 28.969 11.6365 29.4145 11.5227C29.8589 11.4188 30.2281 11.3812 30.4082 11.6457C30.4082 11.6457 33.2574 11.7597 33.8819 11.7026C34.5064 11.6457 34.7343 11.5998 34.6774 12.0903C34.6774 12.0903 35.141 12.4696 34.9419 12.7341C34.7526 13.0005 34.3743 12.8002 33.9856 12.8387C33.5981 12.8763 33.1911 12.9812 33.352 13.265C33.5126 13.5495 33.7018 13.2264 34.062 13.1888C34.4119 13.1604 34.6581 13.1411 34.6581 13.4256C34.6581 13.7096 34.5349 13.7096 34.2704 13.7096C34.0049 13.7096 33.825 13.917 33.5979 13.8335C33.3712 13.7473 32.4051 13.7473 31.2412 14.6666C31.2412 14.6666 30.8528 14.9118 31.2697 15.2535C31.695 15.5831 31.8944 15.7632 33.6835 17.0978C35.2642 18.2715 35.7942 19.9863 35.8796 20.8652L34.904 20.7615C34.5443 18.4994 32.6327 16.521 30.5598 15.6969C30.3137 15.6024 30.1714 15.9718 30.4174 16.0672C32.3205 16.8232 34.1281 18.66 34.4973 20.7227L34.3835 20.7138C34.1189 20.6853 34.0801 21.0735 34.3364 21.1032L36.4004 21.3098C36.6179 21.4429 36.8356 21.69 36.9111 22.1713C37.0909 23.213 37.0432 23.695 37.394 24.2818C37.394 24.2818 39.6653 23.3166 40.3378 22.9096C41.0091 22.5038 41.4069 22.5598 41.899 23.0044C42.3914 23.4497 42.4483 23.6204 42.3436 23.998C42.24 24.3672 42.0791 24.7081 42.7514 24.5097C43.4238 24.3103 43.7636 24.7274 43.9538 25.2574C44.152 25.7873 45.5343 28.267 46.4906 29.0147C46.4906 29.0147 47.0297 29.2804 47.0774 29.7633C47.1334 30.2364 47.3135 30.3777 47.579 30.6349C47.8435 30.8802 48.0233 30.9839 48.2695 32.2239C48.2695 32.2239 46.9728 31.5515 46.405 31.2108C46.405 31.2108 46.5282 30.9462 46.5851 30.7755C46.6321 30.5964 46.689 30.2364 46.2058 30.274C45.7327 30.3116 45.856 30.3116 45.6291 29.9239C45.3921 29.5266 44.7391 28.3909 44.3504 27.718C43.9538 27.0464 42.9498 25.4466 42.3629 25.7304C41.7761 26.0142 41.8809 26.4972 41.6152 27.6517C41.3507 28.8071 41.4069 28.7878 41.066 29.1377C40.7253 29.4988 40.4222 30.151 39.8922 30.2933C39.3623 30.4346 38.7286 30.5964 38.6341 30.5964L39.3246 29.2801C39.3246 29.2801 39.3815 28.911 39.8078 29.0532C40.2332 29.1948 40.3185 29.0147 40.1953 28.7502C40.0723 28.4847 40.3185 28.4095 40.4791 28.2388C40.6409 28.0596 40.943 27.3302 40.9907 26.9235C41.0476 26.5167 41.066 26.5635 40.6968 26.6773C40.3183 26.781 36.2388 27.9171 35.9924 28.0779C35.9924 28.0779 35.2447 27.4055 34.7719 27.1033C34.2887 26.8003 34.308 27.0098 34.2704 27.1033C34.2318 27.188 34.6113 27.1697 35.1594 27.8134C35.1594 27.8134 34.0049 29.1196 30.7959 29.6208C27.5876 30.1132 25.8841 29.4033 24.8517 29.441C23.8294 29.4795 23.3939 29.7064 23.8486 29.2324C23.8486 29.2324 24.4254 28.9303 24.3878 28.8915C24.3593 28.8539 24.0287 28.7128 23.7254 28.9303C23.4224 29.1379 22.9495 29.5832 22.1825 31.0878C21.4257 32.6022 21.2641 32.953 19.9112 33.7017C18.5665 34.4292 17.4497 34.9314 16.8821 35.1106C16.3136 35.2815 15.7652 35.6415 15.4429 36.7583C15.1215 37.8752 14.7899 39.3612 14.7145 39.7773C14.6484 40.1841 14.6952 40.5349 13.7961 41.0557V41.056Z" fill="#E30016"/>
<path fill-rule="evenodd" clip-rule="evenodd" d="M10.2651 22.0301L17.847 20.525C18.1115 20.4773 18.1879 20.866 17.9325 20.9135L10.3507 22.4178C10.085 22.4655 10.0097 22.0769 10.2651 22.0301ZM12.7165 22.6548L19.0677 21.3873C19.3332 21.3386 19.4087 21.7178 19.1531 21.7738L12.8019 23.0432C12.5366 23.0903 12.4612 22.7117 12.7165 22.6546V22.6548ZM15.5564 23.1937L20.2323 22.3231C20.4877 22.2763 20.5638 22.664 20.2984 22.7117L15.6227 23.5824C15.3673 23.6301 15.2911 23.2415 15.5564 23.1937ZM18.2631 18.1865L17.1564 18.404C16.7964 18.4712 16.6356 19.1994 17.5632 19.0294L19.4653 18.6697C19.7207 18.6217 19.7969 19.0101 19.5316 19.0581L18.131 19.3226C18.1023 19.4456 18.1023 19.5686 18.1686 19.6824C18.3393 19.9288 19.0393 19.7395 19.2478 19.6927L20.6868 19.4374C20.9424 19.3887 21.0085 19.7771 20.7531 19.8239L19.324 20.0802C19.2855 20.2034 19.2956 20.3447 19.3616 20.4587C19.5222 20.7233 20.2231 20.5246 20.4216 20.478L21.87 20.2123C22.1253 20.1648 22.2015 20.5542 21.936 20.6003L20.5253 20.8655C20.5069 20.9509 20.4877 21.0933 20.5638 21.2255C20.7054 21.4331 21.2455 21.3202 21.5293 21.2631C21.5569 21.2439 21.5901 21.234 21.6238 21.2349L23.0816 20.9692C23.3367 20.9224 23.4131 21.3101 23.1474 21.3579L21.7754 21.6132C21.7468 21.6986 21.7378 21.841 21.8131 21.9631C21.9838 22.21 22.6837 22.02 22.8923 21.9732L24.3122 21.7169C24.5673 21.6711 24.6437 22.0585 24.378 22.1056L22.9673 22.3607C22.5137 22.4554 21.7947 22.6546 21.4813 22.1716C21.3969 22.0301 21.3583 21.8594 21.3583 21.6986C20.9516 21.7738 20.4693 21.8025 20.2323 21.4331C20.147 21.2918 20.1093 21.1209 20.1093 20.9408C19.7115 21.0172 19.2476 21.0263 19.0301 20.6671C18.9354 20.5248 18.8977 20.3449 18.9069 20.1648C18.5093 20.2307 18.0647 20.241 17.8378 19.8902C17.7524 19.7487 17.7148 19.5686 17.724 19.3988L17.6295 19.4181C16.1811 19.6826 16.2288 18.1773 17.0903 18.0174L18.1787 17.7988C18.4432 17.7517 18.5194 18.1397 18.2631 18.1865ZM36.7123 25.3616C36.7123 25.3616 39.4475 24.813 40.091 24.7277C40.6873 24.6515 40.7066 24.4825 40.7066 24.3209C40.7066 24.0552 41.0943 24.0552 41.0943 24.3209C41.0943 24.7571 40.8481 25.0216 40.1381 25.1152C39.4952 25.2008 36.7969 25.75 36.7969 25.75C36.5322 25.7592 36.456 25.4185 36.7123 25.3614V25.3616ZM10.1043 13.1228L22.7785 15.016C23.0348 15.0537 22.9779 15.4423 22.7124 15.4047L10.0384 13.5105C9.78213 13.4729 9.83903 13.0852 10.1043 13.1228ZM11.2498 14.2966L20.3177 15.6873C20.573 15.7259 20.5161 16.1134 20.2516 16.0767L11.1837 14.6843C10.9274 14.6467 10.9843 14.2589 11.2496 14.2968L11.2498 14.2966ZM12.7826 15.5458L17.3172 16.2935C17.5723 16.332 17.5154 16.7287 17.2509 16.6819L12.7165 15.9335C12.4612 15.8959 12.5181 15.499 12.7826 15.5458ZM6.99001 20.6285L15.5848 18.9064C15.8493 18.8594 15.9257 19.237 15.6704 19.2942L7.07536 21.0172C6.80991 21.064 6.74384 20.6856 6.99001 20.6285ZM8.74147 21.2916L16.5787 19.7294C16.8432 19.6824 16.9196 20.0703 16.664 20.1178L8.82588 21.6795C8.56136 21.7272 8.48518 21.3386 8.74123 21.292L8.74147 21.2916ZM29.102 12.3083C29.102 12.3083 29.1396 12.2806 29.1579 12.176C29.2625 11.694 29.8017 11.7692 30.0103 11.8839C30.0573 11.9013 30.1711 11.9686 30.228 11.9582C30.5687 11.8924 30.5687 12.4699 30.0763 12.3368C30.0103 12.3184 29.9249 12.2806 29.8301 12.2329C29.6604 12.1393 29.5555 12.2237 29.5463 12.2613C29.5087 12.4424 29.3665 12.7069 29.1487 12.6977C28.8934 12.717 28.865 12.3469 29.1017 12.3083H29.102Z" fill="white"/>
</svg>
