<svg width="19" height="19" viewBox="0 0 19 19" fill="none" xmlns="http://www.w3.org/2000/svg">
<path d="M18.0664 7.21712L16.7861 6.99957C16.6527 6.5683 16.4812 6.1523 16.2717 5.75537L17.0261 4.69819C17.3462 4.24783 17.2967 3.63337 16.9042 3.24408L15.7687 2.10674C15.5553 1.89301 15.2733 1.7747 14.9723 1.7747C14.7361 1.7747 14.5113 1.84722 14.3207 1.98461L13.2615 2.74029C12.8499 2.52275 12.4194 2.34337 11.9735 2.20979L11.7602 0.942691C11.6687 0.396922 11.2 0 10.6475 0H9.04334C8.49083 0 8.02215 0.396922 7.9307 0.942691L7.7097 2.24032C7.28293 2.3739 6.8676 2.54946 6.47131 2.76319L5.42345 2.00751C5.23293 1.87012 5.00431 1.7976 4.76806 1.7976C4.46704 1.7976 4.18126 1.91591 3.97169 2.12964L2.83238 3.26698C2.44372 3.65627 2.39037 4.27073 2.71045 4.72109L3.47253 5.79354C3.26296 6.19428 3.0953 6.61028 2.96574 7.04155L1.70069 7.25528C1.1558 7.34688 0.759521 7.81632 0.759521 8.36972V9.97649C0.759521 10.5299 1.1558 10.9993 1.70069 11.0909L2.99623 11.3123C3.12959 11.7397 3.30487 12.1557 3.51825 12.5527L2.7676 13.5984C2.44753 14.0488 2.49707 14.6632 2.88954 15.0525L4.02504 16.1899C4.23842 16.4036 4.52039 16.5219 4.82141 16.5219C5.05766 16.5219 5.28247 16.4494 5.47299 16.312L6.54371 15.5487C6.92856 15.7509 7.33247 15.9151 7.7478 16.0448L7.96118 17.3272C8.05263 17.873 8.52131 18.2699 9.07382 18.2699H10.6818C11.2343 18.2699 11.703 17.873 11.7944 17.3272L12.0116 16.0448C12.4422 15.9112 12.8575 15.7395 13.2538 15.5296L14.3093 16.2853C14.4998 16.4227 14.7285 16.4952 14.9647 16.4952C15.2657 16.4952 15.5477 16.3769 15.7611 16.1631L16.8966 15.0258C17.2852 14.6365 17.3386 14.022 17.0185 13.5717L16.264 12.5107C16.4736 12.1099 16.6489 11.6939 16.7785 11.2665L18.0587 11.0528C18.6036 10.9612 18.9999 10.4917 18.9999 9.93832V8.33155C19.0075 7.77815 18.6113 7.30871 18.0664 7.21712ZM17.9787 9.93832C17.9787 9.98794 17.9444 10.0299 17.8949 10.0376L16.2945 10.3047C16.0926 10.3391 15.9325 10.4879 15.883 10.6826C15.7382 11.2436 15.5172 11.7817 15.22 12.2817C15.1171 12.4573 15.1247 12.6748 15.2429 12.8427L16.184 14.1709C16.2107 14.2091 16.2069 14.2663 16.1726 14.3007L15.0371 15.438C15.0104 15.4647 14.9838 15.4685 14.9647 15.4685C14.9418 15.4685 14.9228 15.4609 14.9075 15.4494L13.5853 14.5067C13.4215 14.3884 13.2005 14.3808 13.0252 14.4838C12.526 14.7815 11.9888 15.0029 11.4286 15.1479C11.2305 15.1975 11.0819 15.3617 11.0514 15.5601L10.7809 17.1631C10.7733 17.2127 10.7313 17.247 10.6818 17.247H9.07763C9.02809 17.247 8.98618 17.2127 8.97856 17.1631L8.71183 15.5601C8.67754 15.3578 8.52893 15.1975 8.3346 15.1479C7.78971 15.0067 7.26388 14.7892 6.77234 14.5067C6.69232 14.4609 6.60087 14.4381 6.51323 14.4381C6.41035 14.4381 6.30366 14.4686 6.21602 14.5335L4.88238 15.4838C4.86332 15.4952 4.84427 15.5029 4.82522 15.5029C4.80998 15.5029 4.7795 15.4991 4.75282 15.4723L3.61732 14.335C3.58303 14.3007 3.57922 14.2472 3.60589 14.2052L4.54325 12.8885C4.66137 12.7206 4.66899 12.4992 4.56611 12.3237C4.2689 11.8275 4.04028 11.2894 3.89548 10.7284C3.84214 10.5337 3.6821 10.3849 3.48396 10.3505L1.87216 10.0757C1.82262 10.0681 1.78833 10.0261 1.78833 9.97649V8.36972C1.78833 8.3201 1.82262 8.27812 1.87216 8.27049L3.4611 8.00333C3.66305 7.96898 3.8269 7.82013 3.87643 7.62167C4.01742 7.06064 4.23461 6.51869 4.52801 6.01872C4.63089 5.84315 4.61946 5.62561 4.50134 5.4615L3.55255 4.1257C3.52587 4.08754 3.52968 4.03029 3.56398 3.99594L4.69948 2.8586C4.72615 2.83189 4.75282 2.82807 4.77188 2.82807C4.79474 2.82807 4.81379 2.8357 4.82903 2.84715L6.14362 3.78603C6.31128 3.90434 6.53228 3.91198 6.70756 3.80893C7.20291 3.51124 7.74018 3.28224 8.30031 3.13721C8.49464 3.08378 8.64324 2.92349 8.67754 2.72502L8.95189 1.11062C8.95951 1.061 9.00142 1.02665 9.05096 1.02665H10.6551C10.7047 1.02665 10.7466 1.061 10.7542 1.11062L11.0209 2.70213C11.0552 2.9044 11.2038 3.06852 11.402 3.11813C11.9773 3.26316 12.526 3.48834 13.0366 3.78985C13.2119 3.89289 13.4291 3.88526 13.5968 3.76695L14.9114 2.82044C14.9304 2.80899 14.9495 2.80136 14.9685 2.80136C14.9838 2.80136 15.0142 2.80517 15.0409 2.83189L16.1764 3.96922C16.2107 4.00357 16.2145 4.057 16.1878 4.09899L15.2467 5.42333C15.1285 5.58744 15.1209 5.80881 15.2238 5.98437C15.521 6.48434 15.742 7.02247 15.8868 7.58351C15.9364 7.78197 16.1002 7.93081 16.2983 7.96135L17.8987 8.23232C17.9482 8.23995 17.9825 8.28194 17.9825 8.33155V9.93832H17.9787Z" fill="#818181"/>
<path d="M9.88158 5.19043C7.70965 5.19043 5.94543 6.9575 5.94543 9.13294C5.94543 11.3084 7.70965 13.0754 9.88158 13.0754C12.0535 13.0754 13.8177 11.3084 13.8177 9.13294C13.8177 6.9575 12.0535 5.19043 9.88158 5.19043ZM9.88158 12.045C8.2774 12.045 6.97424 10.7397 6.97424 9.13294C6.97424 7.52617 8.2774 6.2209 9.88158 6.2209C11.4858 6.2209 12.7889 7.52617 12.7889 9.13294C12.7889 10.7397 11.4858 12.045 9.88158 12.045Z" fill="#818181"/>
</svg>
