<svg width="16" height="16" viewBox="0 0 16 16" fill="none" xmlns="http://www.w3.org/2000/svg">
<path d="M12.3991 0H3.60089C1.61217 0 0 1.61217 0 3.60089V12.3991C0 14.3878 1.61217 16 3.60089 16H12.3991C14.3878 16 16 14.3878 16 12.3991V3.60089C16 1.61217 14.3878 0 12.3991 0Z" fill="#1CB303"/>
<path d="M10.2193 12.0802C9.94257 12.0801 9.67296 11.9924 9.44902 11.8299C9.22507 11.6673 9.05827 11.4381 8.97245 11.175H6.56103C5.94065 11.1747 5.34573 10.9283 4.90673 10.49C4.46774 10.0517 4.22053 9.45709 4.21932 8.83672V5.94073C4.0022 5.84705 3.81449 5.69634 3.67612 5.50459C3.53774 5.31283 3.45387 5.0872 3.43339 4.85162C3.41291 4.61604 3.45659 4.37928 3.5598 4.16653C3.66301 3.95377 3.8219 3.77294 4.01959 3.6432C4.21729 3.51346 4.44643 3.43966 4.68269 3.42964C4.91894 3.41962 5.15351 3.47377 5.36148 3.58631C5.56945 3.69885 5.74308 3.86558 5.86393 4.06884C5.98478 4.27209 6.04835 4.50428 6.04788 4.74074C6.0494 5.02347 5.95891 5.29902 5.79006 5.52579C5.62122 5.75257 5.38318 5.91828 5.11189 5.99789V7.20475H8.97245C9.06893 6.91076 9.26595 6.66016 9.52889 6.49705C9.79182 6.33395 10.1038 6.26877 10.4101 6.31294C10.7163 6.35711 10.9972 6.50782 11.2033 6.73858C11.4095 6.96934 11.5276 7.26538 11.5371 7.57465C11.5466 7.88392 11.4467 8.18663 11.2551 8.42956C11.0635 8.6725 10.7923 8.84009 10.4894 8.90291C10.1864 8.96573 9.87098 8.91975 9.59856 8.77303C9.32614 8.62632 9.11416 8.38828 8.99988 8.10074H5.11417V8.83787C5.11508 9.2209 5.26795 9.58792 5.53923 9.85834C5.8105 10.1288 6.178 10.2804 6.56103 10.2801H9.00559C9.0946 10.0594 9.24202 9.86711 9.43204 9.72382C9.62205 9.58053 9.84749 9.49167 10.0842 9.46677C10.3208 9.44188 10.5598 9.48188 10.7755 9.5825C10.9912 9.68311 11.1754 9.84056 11.3084 10.0379C11.4414 10.2353 11.5181 10.4651 11.5304 10.7028C11.5427 10.9405 11.4901 11.177 11.3781 11.387C11.2662 11.597 11.0992 11.7726 10.895 11.8949C10.6909 12.0172 10.4573 12.0817 10.2193 12.0813V12.0802ZM10.2193 10.3533C10.1371 10.3537 10.0568 10.3786 9.9887 10.4246C9.92056 10.4706 9.8676 10.5358 9.8365 10.6119C9.8054 10.688 9.79755 10.7717 9.81395 10.8523C9.83036 10.9328 9.87027 11.0068 9.92865 11.0647C9.98703 11.1226 10.0613 11.1619 10.142 11.1776C10.2227 11.1933 10.3062 11.1848 10.3821 11.1531C10.458 11.1214 10.5227 11.0679 10.5682 10.9993C10.6137 10.9308 10.6378 10.8504 10.6376 10.7681C10.6374 10.7134 10.6265 10.6592 10.6054 10.6086C10.5843 10.5581 10.5534 10.5122 10.5146 10.4735C10.4758 10.4349 10.4297 10.4043 10.379 10.3835C10.3284 10.3627 10.2741 10.352 10.2193 10.3522V10.3533ZM10.2193 7.20244C10.1371 7.2029 10.0569 7.22768 9.98882 7.27366C9.92071 7.31965 9.86774 7.38476 9.83661 7.46081C9.80547 7.53687 9.79756 7.62043 9.81387 7.70098C9.83018 7.78152 9.86997 7.85546 9.92824 7.91341C9.98651 7.97136 10.0606 8.01076 10.1413 8.02663C10.2219 8.04249 10.3054 8.03411 10.3813 8.00256C10.4572 7.97101 10.522 7.91767 10.5676 7.84931C10.6132 7.78095 10.6376 7.70064 10.6376 7.61846C10.6367 7.50822 10.5922 7.4028 10.5138 7.32528C10.4354 7.24776 10.3295 7.20444 10.2193 7.20475V7.20244ZM4.7336 4.32703C4.65138 4.32748 4.57113 4.35229 4.503 4.39832C4.43486 4.44436 4.3819 4.50956 4.3508 4.58568C4.3197 4.6618 4.31185 4.74541 4.32825 4.82598C4.34465 4.90656 4.38456 4.98048 4.44295 5.03839C4.50133 5.09629 4.57556 5.13558 4.65627 5.15132C4.73698 5.16706 4.82054 5.15853 4.8964 5.1268C4.97226 5.09507 5.03702 5.04157 5.08249 4.97306C5.12796 4.90455 5.15211 4.82412 5.15189 4.7419C5.15159 4.63146 5.1075 4.52565 5.02931 4.44767C4.95111 4.36969 4.84518 4.32588 4.73475 4.32588L4.7336 4.32703Z" fill="white"/>
</svg>
