<svg width="16" height="16" viewBox="0 0 16 16" fill="none" xmlns="http://www.w3.org/2000/svg">
<path d="M13.3094 16C12.7995 15.999 12.3031 15.8366 11.8912 15.536C11.4793 15.2354 11.1733 14.8121 11.0168 14.3268H6.58334C5.43938 14.3229 4.34366 13.8655 3.53651 13.0548C2.72936 12.2442 2.27661 11.1465 2.27767 10.0026V4.64587C1.87502 4.47482 1.52633 4.1978 1.26862 3.84428C1.01092 3.49076 0.853884 3.07398 0.814267 2.6383C0.77465 2.20261 0.85385 1.76436 1.04356 1.37015C1.23327 0.975947 1.52642 0.640549 1.89162 0.399684C2.25682 0.158819 2.68054 0.0214981 3.1176 0.00232495C3.55466 -0.0168482 3.98862 0.0828512 4.37351 0.290811C4.7584 0.498771 5.0797 0.807184 5.3032 1.18326C5.5267 1.55934 5.64406 1.98901 5.64275 2.42649C5.64475 2.94677 5.47819 3.45371 5.1679 3.87135C4.85761 4.28899 4.4203 4.59487 3.92159 4.74315V6.97851H11.0194C11.1979 6.43452 11.5624 5.97088 12.049 5.66907C12.5355 5.36725 13.1129 5.24657 13.6795 5.3283C14.2462 5.41003 14.7658 5.6889 15.1472 6.1159C15.5286 6.5429 15.7473 7.09068 15.7648 7.66294C15.7823 8.2352 15.5974 8.79533 15.2428 9.24481C14.8882 9.69429 14.3865 10.0043 13.8259 10.1205C13.2653 10.2367 12.6816 10.1515 12.1776 9.87996C11.6736 9.6084 11.2813 9.16785 11.07 8.63576H3.92159V9.99989C3.92159 10.7065 4.20234 11.3842 4.702 11.8839C5.20166 12.3835 5.87931 12.6642 6.58594 12.6642H11.0807C11.2469 12.2595 11.5198 11.9075 11.8706 11.6459C12.2213 11.3843 12.6365 11.2229 13.0718 11.179C13.5072 11.1352 13.9462 11.2105 14.342 11.3968C14.7379 11.5832 15.0757 11.8737 15.3192 12.2372C15.5628 12.6007 15.703 13.0235 15.7248 13.4605C15.7466 13.8975 15.6491 14.3322 15.443 14.7181C15.2368 15.104 14.9298 15.4267 14.5544 15.6515C14.1791 15.8764 13.7496 15.995 13.312 15.9947L13.3094 16ZM13.3094 12.8028C13.1574 12.8031 13.0089 12.8483 12.8827 12.933C12.7565 13.0176 12.6582 13.1377 12.6002 13.2782C12.5423 13.4187 12.5272 13.5732 12.557 13.7222C12.5868 13.8713 12.6602 14.0081 12.7677 14.1155C12.8753 14.2228 13.0122 14.2959 13.1613 14.3254C13.3103 14.355 13.4648 14.3397 13.6052 14.2815C13.7456 14.2233 13.8656 14.1247 13.95 13.9984C14.0344 13.872 14.0794 13.7234 14.0794 13.5714C14.0784 13.3679 13.9969 13.1731 13.8526 13.0296C13.7083 12.886 13.5129 12.8054 13.3094 12.8054V12.8028ZM13.3094 6.97587C13.1574 6.97613 13.0089 7.02143 12.8827 7.10605C12.7565 7.19067 12.6582 7.31081 12.6002 7.45129C12.5423 7.59177 12.5272 7.74626 12.557 7.89528C12.5868 8.0443 12.6602 8.18116 12.7677 8.28853C12.8753 8.3959 13.0122 8.46896 13.1613 8.49851C13.3103 8.52806 13.4648 8.51278 13.6052 8.45456C13.7456 8.39635 13.8656 8.29782 13.95 8.17144C14.0344 8.04507 14.0794 7.8965 14.0794 7.74453C14.0784 7.54101 13.9969 7.34618 13.8526 7.20264C13.7083 7.0591 13.5129 6.97851 13.3094 6.97851V6.97587ZM3.2342 1.65917C3.08223 1.65943 2.93372 1.70472 2.80749 1.78934C2.68126 1.87397 2.58299 1.99411 2.52502 2.13458C2.46704 2.27506 2.45195 2.42956 2.48176 2.57857C2.51157 2.72759 2.58496 2.86446 2.69252 2.97183C2.80007 3.07919 2.93698 3.15226 3.08605 3.18181C3.23512 3.21136 3.38963 3.19604 3.53 3.13782C3.67038 3.0796 3.79035 2.98112 3.87475 2.85474C3.95916 2.72836 4.0042 2.5798 4.0042 2.42783C4.00385 2.22384 3.92252 2.02831 3.77816 1.88419C3.6338 1.74008 3.43818 1.65917 3.2342 1.65917Z" fill="#3845B3"/>
</svg>
