<svg width="27" height="23" viewBox="0 0 27 23" fill="none" xmlns="http://www.w3.org/2000/svg">
<rect x="0.699219" y="1.49805" width="25" height="21" rx="3.5" stroke="#DFE1E6"/>
<path d="M14.5584 17.6526C14.3281 17.8829 14.0428 17.998 13.7023 17.998C13.3619 17.998 13.0766 17.8829 12.8463 17.6526L7.55967 12.366C7.44953 12.2559 7.36202 12.1257 7.29714 11.9755C7.23186 11.8253 7.19922 11.6651 7.19922 11.4949V7.19955C7.19922 6.86914 7.31697 6.58618 7.55246 6.35069C7.78755 6.11559 8.07031 5.99805 8.40072 5.99805H12.6961C12.8663 5.99805 13.0265 6.03049 13.1767 6.09537C13.3269 6.16065 13.457 6.24836 13.5672 6.3585L18.8538 11.6601C19.0841 11.8904 19.1992 12.1732 19.1992 12.5084C19.1992 12.844 19.0841 13.127 18.8538 13.3572L14.5584 17.6526ZM13.7023 16.8116L17.9977 12.5162L12.6961 7.19955H8.40072V11.4949L13.7023 16.8116ZM9.9026 9.60255C10.1529 9.60255 10.3656 9.51484 10.5406 9.33942C10.716 9.1644 10.8037 8.95174 10.8037 8.70143C10.8037 8.45111 10.716 8.23845 10.5406 8.06343C10.3656 7.88801 10.1529 7.8003 9.9026 7.8003C9.65229 7.8003 9.43962 7.88801 9.2646 8.06343C9.08918 8.23845 9.00147 8.45111 9.00147 8.70143C9.00147 8.95174 9.08918 9.1644 9.2646 9.33942C9.43962 9.51484 9.65229 9.60255 9.9026 9.60255Z" fill="#818181"/>
</svg>
