<svg width="18" height="19" viewBox="0 0 18 19" fill="none" xmlns="http://www.w3.org/2000/svg">
<path d="M14.1181 17H1.23444C1.2175 16.9874 1.19959 16.9761 1.18088 16.9664C0.904183 16.8384 0.77624 16.6002 0.837334 16.3235C0.892229 16.0739 1.11624 15.907 1.40179 15.9043C1.5014 15.9043 1.60056 15.9043 1.70017 15.9043H2.46473V15.7002C2.46473 14.7214 2.46694 13.7426 2.46473 12.7637C2.46473 12.1209 2.70733 11.5981 3.19608 11.1802C3.97392 10.5161 4.74556 9.84318 5.51765 9.17292C5.97275 8.77802 5.97275 8.22286 5.51765 7.82753C4.74114 7.15328 3.96551 6.47771 3.18502 5.80833C2.70114 5.39307 2.46252 4.87289 2.46429 4.23672C2.46694 3.25258 2.46429 2.26799 2.46429 1.28385V1.0957C2.08533 1.0957 1.72673 1.10013 1.36858 1.0957C1.27945 1.0961 1.19159 1.07466 1.11265 1.03326C1.03372 0.991868 0.966122 0.931774 0.915769 0.858231C0.865415 0.784688 0.833836 0.699933 0.823791 0.611371C0.813745 0.52281 0.825539 0.433135 0.858141 0.350182C0.926761 0.17 1.07463 0.0805729 1.23311 0H14.1159C14.1329 0.012608 14.1508 0.0238583 14.1695 0.0336458C14.4462 0.161589 14.5741 0.401094 14.5126 0.677344C14.4568 0.926589 14.2328 1.09305 13.9473 1.09526C13.8034 1.09526 13.6595 1.09526 13.5156 1.09526H12.8874C12.8874 2.05461 12.8812 2.98917 12.8874 3.92372C12.8932 4.59266 12.6448 5.13188 12.1379 5.56839C11.2702 6.31523 10.4113 7.07359 9.55072 7.8262C9.09163 8.22862 9.09163 8.76695 9.55072 9.16937C10.4113 9.92463 11.2706 10.6817 12.1379 11.4294C12.6439 11.8655 12.8936 12.4034 12.8874 13.0741C12.8794 13.9537 12.8874 14.8334 12.8874 15.713V15.9021C13.2659 15.9021 13.6245 15.8977 13.9831 15.9021C14.4117 15.9092 14.6773 16.3621 14.4502 16.7162C14.3754 16.8362 14.2306 16.9079 14.1181 17ZM3.56132 1.10411V1.28651C3.56132 2.26047 3.56486 3.23443 3.56132 4.20838C3.55549 4.35772 3.58445 4.50636 3.64591 4.64258C3.70737 4.7788 3.79966 4.89887 3.91548 4.99331C4.69229 5.65973 5.46585 6.33014 6.23616 7.00453C7.19728 7.84568 7.19595 9.16539 6.23616 10.0017C5.46024 10.6772 4.68226 11.3507 3.9022 12.0222C3.79183 12.1111 3.70343 12.2242 3.64385 12.3528C3.58427 12.4814 3.55512 12.622 3.55866 12.7637C3.5622 13.7541 3.55866 14.7444 3.55866 15.7352C3.55866 15.7883 3.56353 15.8414 3.56575 15.8941H11.793V15.7051C11.793 14.8754 11.7767 14.0449 11.7997 13.2153C11.8121 12.7726 11.6607 12.4521 11.322 12.1665C10.472 11.4502 9.64236 10.7091 8.80697 9.97466C8.26819 9.50052 8.03843 8.90552 8.14291 8.19232C8.2195 7.67435 8.50106 7.27857 8.89285 6.94167C9.74817 6.20544 10.5924 5.45594 11.4451 4.71661C11.5583 4.62347 11.6486 4.50549 11.709 4.37183C11.7693 4.23818 11.7981 4.09242 11.793 3.94586C11.7877 3.05469 11.793 2.16396 11.793 1.27323V1.10411H3.56132ZM10.9103 15.3536C11.1639 15.3536 11.2357 15.2801 11.2361 15.0264C11.2361 14.3681 11.2312 13.7098 11.2392 13.0515C11.2433 12.9414 11.2213 12.832 11.1752 12.732C11.129 12.632 11.06 12.5443 10.9736 12.476C10.1187 11.7318 9.2696 10.9814 8.41384 10.2354C8.12653 9.98484 7.88658 9.70018 7.73916 9.34469C7.36197 8.43492 7.61741 7.45167 8.40322 6.76857C9.26739 6.01596 10.1267 5.25982 10.9917 4.51076C11.1631 4.36201 11.2547 4.18935 11.2401 3.96091C11.2348 3.87812 11.2401 3.7949 11.2401 3.71211C11.2401 3.38185 11.1467 3.29021 10.8142 3.29021H5.5172C5.16304 3.29021 4.80887 3.28755 4.4547 3.29021C4.23335 3.29286 4.11913 3.4062 4.1147 3.62932C4.11116 3.82323 4.12134 4.01714 4.1116 4.21016C4.09965 4.45099 4.18996 4.63117 4.3728 4.78833C5.15374 5.45815 5.93512 6.12797 6.7041 6.81151C7.77369 7.762 7.7666 9.25393 6.69614 10.1965C5.92877 10.8723 5.15551 11.5427 4.37634 12.2077C4.28977 12.2758 4.22057 12.3635 4.1744 12.4635C4.12823 12.5636 4.10641 12.6731 4.11072 12.7832C4.11825 13.5137 4.11338 14.2441 4.11338 14.9742C4.11338 15.2978 4.16827 15.354 4.48702 15.354H7.67452C8.75414 15.3543 9.83331 15.3542 10.912 15.3536H10.9103Z" fill="#818181"/>
<path d="M16.752 13.499L16.752 13.4989L16.749 13.497L12.142 10.571C12.1417 10.5707 12.1413 10.5705 12.1409 10.5703C11.4278 10.1137 10.5 10.6265 10.5 11.4674V17.3334C10.5 18.1744 11.4279 18.6871 12.1411 18.2304C12.1414 18.2302 12.1417 18.23 12.142 18.2298L16.7472 15.2992C16.7476 15.299 16.7481 15.2987 16.7485 15.2984C17.4138 14.8786 17.404 13.9196 16.752 13.499Z" fill="#818181" stroke="white"/>
</svg>
