<svg width="15" height="16" viewBox="0 0 15 16" fill="none" xmlns="http://www.w3.org/2000/svg">
<g clip-path="url(#clip0_10273_74717)">
<path d="M7.51836 0C9.2954 0 11.0724 0 12.8453 0C13.3145 0 13.4266 0.112103 13.4266 0.572971C13.4266 3.43367 13.4266 6.29437 13.4266 9.15923C13.4266 9.62425 13.3145 9.73635 12.8453 9.73635C9.28293 9.73635 5.72056 9.73635 2.15402 9.73635C1.70561 9.73635 1.58936 9.6201 1.58936 9.17999C1.58936 6.30683 1.58936 3.43367 1.58936 0.564667C1.58936 0.124559 1.70976 0.00830392 2.15402 0.00830392C3.94352 -8.3819e-09 5.73301 0 7.51836 0ZM1.85093 1.86008C1.85093 1.97218 1.85093 2.06768 1.85093 2.16317C1.85093 4.47581 1.85923 6.78846 1.84263 9.10525C1.84263 9.4208 1.94642 9.48723 2.24121 9.48723C5.74962 9.47893 9.25803 9.47893 12.7664 9.48723C13.0778 9.48723 13.1775 9.40835 13.1733 9.08449C13.1609 6.78015 13.165 4.47997 13.165 2.17563C13.165 2.07183 13.1567 1.96388 13.1526 1.86008C9.37428 1.86008 5.62921 1.86008 1.85093 1.86008ZM1.85093 1.55699C5.64582 1.55699 9.3992 1.55699 13.1692 1.55699C13.1692 1.24974 13.1484 0.963255 13.1733 0.680922C13.2065 0.348765 13.0944 0.25327 12.754 0.25327C9.25802 0.269878 5.76208 0.261574 2.26197 0.261574C2.2163 0.261574 2.17478 0.265726 2.12911 0.261574C1.91321 0.236662 1.83847 0.336309 1.84678 0.548059C1.85923 0.876064 1.85093 1.20407 1.85093 1.55699Z" fill="#2F3990"/>
<path d="M1.22379 2.20878C1.15736 2.26276 1.09508 2.34579 1.02034 2.3624C0.90409 2.38731 0.779531 2.3624 0.659124 2.37486C0.430766 2.39562 0.302055 2.52433 0.272992 2.74853C0.264688 2.82327 0.26884 2.90216 0.26884 2.97689C0.26884 5.81683 0.26884 8.65262 0.26884 11.4926C0.26884 11.9991 0.372639 12.1071 0.88333 12.1071C5.30102 12.1071 9.7187 12.1071 14.1322 12.1071C14.6388 12.1071 14.7426 11.9991 14.7426 11.4884C14.7426 8.67338 14.7426 5.8542 14.7426 3.03917C14.7426 2.45375 14.6678 2.37901 14.0866 2.36655C13.9329 2.3624 13.7544 2.39147 13.8541 2.10498C13.962 2.10498 14.0824 2.10498 14.1987 2.10498C14.7633 2.10498 15 2.34164 15 2.89801C15 5.2231 15 7.54405 15 9.86915C15 10.4504 15 11.0317 15 11.613C14.9958 12.1071 14.7467 12.3645 14.2568 12.3645C9.75192 12.3645 5.24704 12.3645 0.742163 12.3645C0.26884 12.3645 0.00311397 12.1071 0.00311397 11.642C-0.00103799 8.7066 -0.00103799 5.76701 0.00311397 2.83157C0.00311397 2.37486 0.264688 2.11744 0.708948 2.10913C0.850114 2.10498 0.991281 2.10913 1.13245 2.10913C1.16982 2.14235 1.19888 2.17556 1.22379 2.20878Z" fill="#2F3990"/>
<path d="M13.7543 2.66539C14.3438 2.60726 14.4809 2.72767 14.4809 3.19684C14.4809 5.5427 14.4809 7.88856 14.4809 10.2344C14.4809 10.6621 14.3563 10.7866 13.9411 10.7866C9.65213 10.7866 5.36731 10.7866 1.07833 10.7866C0.658981 10.7866 0.538574 10.6621 0.538574 10.2344C0.538574 7.88856 0.538574 5.5427 0.538574 3.19684C0.538574 2.72767 0.675589 2.60726 1.26517 2.66539C1.16137 2.76919 1.10324 2.88129 1.04096 2.88544C0.820908 2.8896 0.795996 3.01 0.795996 3.18438C0.800148 5.53024 0.800148 7.8761 0.795996 10.222C0.795996 10.4462 0.862427 10.5292 1.09494 10.5292C5.37146 10.5251 9.64798 10.5251 13.9245 10.5292C14.157 10.5292 14.2276 10.4503 14.2234 10.222C14.2193 7.8761 14.2193 5.53024 14.2234 3.18438C14.2234 3.01 14.2027 2.8896 13.9785 2.88544C13.9162 2.88544 13.8581 2.77334 13.7543 2.66539Z" fill="#2F3990"/>
<path d="M5.78271 13.6848C5.8699 13.3651 5.94878 13.0703 6.04013 12.7756C6.04428 12.7631 6.13562 12.7756 6.21866 12.7756C6.17714 13.087 6.13977 13.3651 6.10241 13.6682C7.0366 13.6682 7.96249 13.6682 8.91329 13.6682C8.87592 13.3776 8.8427 13.0953 8.80949 12.8046C9.04615 12.7963 9.042 12.7963 9.10428 13.1326C9.13749 13.3153 9.17486 13.4938 9.21223 13.689C9.52778 13.689 9.82257 13.6807 10.1174 13.689C10.6571 13.7056 11.0142 14.3284 10.736 14.7851C10.6696 14.8931 10.491 14.9927 10.3665 14.9927C8.46072 15.0052 6.55497 15.0052 4.64922 15.001C4.21742 15.001 4.13853 14.619 4.25894 14.1499C4.33782 13.8426 4.57864 13.6931 4.90249 13.689C5.19728 13.6848 5.49207 13.6848 5.78271 13.6848ZM7.47671 14.7394C8.39429 14.7394 9.31603 14.7353 10.2336 14.7436C10.4537 14.7477 10.5533 14.6855 10.545 14.4488C10.5326 14.0917 10.3997 13.9506 10.0094 13.9506C8.34447 13.9506 6.68368 13.9506 5.01874 13.9506C4.94401 13.9506 4.86097 13.9423 4.79039 13.963C4.49975 14.0502 4.47069 14.2827 4.48314 14.5401C4.49975 14.81 4.69904 14.7353 4.84851 14.7353C5.72458 14.7394 6.60064 14.7394 7.47671 14.7394Z" fill="#2F3990"/>
<path d="M13.5593 11.0568C13.7337 11.0568 13.9122 11.0485 14.0866 11.0568C14.3315 11.0693 14.4769 11.2063 14.4769 11.4512C14.4769 11.6796 14.3357 11.8249 14.1073 11.8332C13.7461 11.8498 13.3849 11.8457 13.0237 11.8332C12.7953 11.8249 12.6541 11.6838 12.65 11.4554C12.6458 11.2104 12.7912 11.0693 13.0361 11.0527C13.2064 11.0444 13.3849 11.0568 13.5593 11.0568ZM13.5593 11.58C13.7212 11.58 13.8873 11.5924 14.0492 11.5758C14.1073 11.5717 14.1572 11.4969 14.207 11.4512C14.153 11.4056 14.1032 11.3267 14.0492 11.3267C13.7253 11.3142 13.3973 11.3142 13.0693 11.3267C13.0154 11.3267 12.9614 11.4056 12.9116 11.4512C12.9655 11.4969 13.0112 11.5717 13.0693 11.5758C13.2354 11.5883 13.3973 11.58 13.5593 11.58Z" fill="#2F3990"/>
<path d="M12.38 11.4428C12.351 11.6837 12.2264 11.8414 11.9814 11.8373C11.7365 11.8331 11.5911 11.6837 11.5953 11.4387C11.5995 11.2103 11.7406 11.0692 11.969 11.0609C12.2181 11.0526 12.3427 11.2062 12.38 11.4428Z" fill="#2F3990"/>
<path d="M12.1143 7.93858C12.1184 8.39945 11.8817 8.74406 11.5247 8.88523C11.1635 9.0264 10.769 8.94751 10.5157 8.62781C10.3829 8.45758 10.2459 8.41606 10.0466 8.42021C9.56495 8.43267 9.08332 8.41191 8.60169 8.43267C8.47298 8.43682 8.31521 8.51155 8.22802 8.60705C7.80867 9.06376 7.21078 9.06376 6.79144 8.6112C6.70424 8.5157 6.54647 8.44097 6.42191 8.43267C5.91952 8.41191 5.41299 8.41191 4.9106 8.43267C4.78189 8.43682 4.62826 8.51986 4.54107 8.61535C4.15909 9.0264 3.59027 9.07207 3.19999 8.69839C2.80555 8.32471 2.8097 7.73098 3.20829 7.35731C3.60273 6.99193 4.16324 7.04176 4.54938 7.46111C4.63657 7.5566 4.79434 7.62303 4.92305 7.63134C5.28427 7.65625 5.64549 7.63964 6.00672 7.63964C6.35548 7.63964 6.67518 7.67286 6.96582 7.32824C7.27722 6.95457 7.85849 7.06667 8.21971 7.4445C8.31521 7.54415 8.48128 7.62303 8.6183 7.63549C9.00028 7.6604 9.38641 7.63549 9.76839 7.64794C10.0964 7.65625 10.3787 7.64379 10.6279 7.34485C10.8604 7.06667 11.2299 7.04591 11.5662 7.19953C11.915 7.349 12.0935 7.63549 12.1143 7.93858ZM3.16262 8.02162C3.18338 8.34132 3.34116 8.56553 3.64425 8.65687C3.93904 8.74821 4.20476 8.64857 4.35008 8.38284C4.46219 8.18355 4.5992 8.15033 4.80265 8.15448C5.39638 8.16279 5.98596 8.14618 6.57969 8.16694C6.70424 8.17109 6.86202 8.25828 6.93675 8.35793C7.26061 8.79389 7.763 8.79389 8.08685 8.34963C8.15328 8.25828 8.30275 8.17109 8.41485 8.16694C9.03765 8.15033 9.66459 8.15033 10.2874 8.16694C10.3995 8.17109 10.5448 8.25413 10.6154 8.34547C10.8271 8.6195 11.1012 8.75237 11.3794 8.65272C11.6783 8.54892 11.8527 8.33302 11.8485 8.01332C11.8444 7.70607 11.6741 7.50263 11.3877 7.39883C11.1095 7.29918 10.8313 7.42374 10.6195 7.69777C10.549 7.78911 10.4078 7.88045 10.2957 7.88461C9.6729 7.90121 9.04595 7.90537 8.42316 7.88461C8.30275 7.88045 8.14913 7.78496 8.07439 7.68116C7.75884 7.26181 7.26061 7.26596 6.94506 7.68946C6.87032 7.78911 6.71255 7.88045 6.59214 7.88461C6.01087 7.90537 5.42959 7.88876 4.84832 7.89706C4.62826 7.90121 4.47049 7.8763 4.34178 7.64794C4.19646 7.39052 3.92243 7.30333 3.62764 7.40298C3.33285 7.50263 3.19169 7.72268 3.16262 8.02162Z" fill="#2F3990"/>
<path d="M4.22966 5.75041C4.22966 6.04935 4.16323 6.31507 3.81447 6.30677C3.49061 6.29847 3.41588 6.0535 3.42834 5.77947C2.34467 5.25217 1.93778 4.56295 2.17444 3.65782C2.38204 2.85649 3.10448 2.33334 3.93487 2.37486C4.73205 2.41638 5.41713 3.05994 5.52508 3.86957C5.64133 4.69581 5.1514 5.4141 4.22966 5.75041ZM3.84768 2.63228C3.13355 2.62398 2.52321 3.13467 2.39035 3.85296C2.26579 4.53803 2.69759 5.24387 3.39512 5.45562C3.60272 5.5179 3.71897 5.59263 3.69821 5.82929C3.69406 5.89573 3.7854 5.97046 3.83108 6.0452C3.8726 5.97877 3.95148 5.90403 3.94733 5.8459C3.91412 5.58848 4.04698 5.5179 4.26703 5.45147C4.93135 5.25217 5.35485 4.57125 5.25935 3.89863C5.16801 3.18865 4.55767 2.64059 3.84768 2.63228Z" fill="#2F3990"/>
<path d="M7.11118 5.75032C6.16868 5.40156 5.6746 4.65836 5.81161 3.83212C5.95278 2.98927 6.66276 2.37478 7.50146 2.37063C8.34431 2.36647 9.05014 2.96851 9.20376 3.81551C9.35324 4.6459 8.86746 5.3808 7.92081 5.75448C7.90835 6.0202 7.87099 6.30669 7.51807 6.30669C7.1693 6.31084 7.10287 6.04511 7.11118 5.75032ZM7.53052 2.6322C6.81639 2.6239 6.20605 3.13874 6.07734 3.85288C5.95693 4.52549 6.38043 5.23548 7.05305 5.44723C7.2648 5.51366 7.41842 5.56764 7.38521 5.83336C7.3769 5.89564 7.4724 5.97453 7.52222 6.04511C7.56374 5.97868 7.64263 5.90395 7.63432 5.84167C7.60111 5.58009 7.73812 5.51781 7.95818 5.45138C8.61834 5.25209 9.04184 4.56701 8.94634 3.89855C8.85085 3.18441 8.23636 2.6405 7.53052 2.6322Z" fill="#2F3990"/>
<path d="M11.5955 5.7505C11.5955 6.04114 11.5374 6.28195 11.2052 6.31102C10.952 6.33178 10.8232 6.15739 10.7776 5.76711C9.76865 5.31039 9.32023 4.5921 9.51538 3.7451C9.71052 2.89395 10.4205 2.34174 11.2717 2.37496C12.0688 2.40402 12.7539 3.03097 12.8868 3.84475C13.0238 4.67099 12.5339 5.40589 11.5955 5.7505ZM9.74789 4.0565C9.73958 4.6876 10.1382 5.26472 10.7444 5.44741C10.9644 5.51384 11.1014 5.58027 11.0682 5.83769C11.0599 5.89997 11.1388 5.97471 11.1803 6.04114C11.2301 5.98301 11.3256 5.91658 11.3173 5.8626C11.2758 5.56781 11.446 5.50969 11.6785 5.4308C12.3595 5.20659 12.7664 4.46339 12.6086 3.78662C12.4342 3.04342 11.7699 2.55349 11.0391 2.63238C10.325 2.71542 9.75619 3.33821 9.74789 4.0565Z" fill="#2F3990"/>
<path d="M2.30325 0.797363C3.66925 0.797363 5.0394 0.797363 6.41785 0.797363C6.49258 0.967594 6.46767 1.05478 6.25592 1.05478C4.98542 1.05063 3.71492 1.05478 2.44442 1.04648C2.36969 1.04648 2.29495 0.946834 2.22021 0.89701C2.24928 0.863795 2.27419 0.830579 2.30325 0.797363Z" fill="#2F3990"/>
<path d="M10.8024 0.884213C10.7775 1.14579 10.6571 1.30771 10.4121 1.30771C10.1671 1.31186 10.0177 1.16239 10.0177 0.921581C10.0135 0.693223 10.1547 0.552056 10.383 0.535448C10.6322 0.514688 10.7484 0.680767 10.8024 0.884213Z" fill="#2F3990"/>
<path d="M11.4706 1.32015C11.2173 1.28278 11.0596 1.15407 11.072 0.909105C11.0803 0.664139 11.2381 0.522973 11.4789 0.535429C11.7073 0.543733 11.8443 0.693203 11.8443 0.921561C11.8484 1.16653 11.6865 1.28278 11.4706 1.32015Z" fill="#2F3990"/>
<path d="M12.5337 0.527344C12.7662 0.573015 12.9157 0.71003 12.8949 0.954996C12.8783 1.1792 12.7288 1.32037 12.5005 1.31206C12.2555 1.30376 12.1102 1.15429 12.1185 0.909324C12.131 0.660206 12.2929 0.543952 12.5337 0.527344Z" fill="#2F3990"/>
<path d="M3.82689 7.63135C4.0677 7.66456 4.21717 7.79327 4.21302 8.03824C4.20887 8.2666 4.0677 8.40777 3.83934 8.41607C3.59438 8.42022 3.44491 8.27905 3.4366 8.03409C3.43245 7.78497 3.59023 7.66041 3.82689 7.63135Z" fill="#2F3990"/>
<path d="M7.5139 8.42446C7.27724 8.39539 7.11946 8.27083 7.12362 8.02587C7.12777 7.7809 7.27724 7.63558 7.5222 7.63974C7.75056 7.64389 7.89173 7.78921 7.90003 8.01341C7.90418 8.26253 7.75471 8.38709 7.5139 8.42446Z" fill="#2F3990"/>
<path d="M11.2095 7.63135C11.4461 7.67287 11.5956 7.80158 11.5831 8.0507C11.5707 8.27905 11.4295 8.42022 11.197 8.41607C10.952 8.41607 10.8026 8.2666 10.8067 8.02163C10.8067 7.77667 10.9687 7.65626 11.2095 7.63135Z" fill="#2F3990"/>
<path d="M3.52804 4.75001C3.34535 4.55487 3.17097 4.36388 2.97998 4.16044C3.01735 4.12307 3.06302 4.06909 3.1253 3.99851C3.27062 4.13552 3.40348 4.26008 3.53634 4.38879C3.83528 4.06909 4.13423 3.75354 4.44562 3.42139C4.57018 3.53349 4.62831 3.58331 4.65322 3.60407C4.27954 3.99021 3.92248 4.35558 3.52804 4.75001Z" fill="#2F3990"/>
<path d="M7.20701 4.74147C7.02847 4.55463 6.84578 4.3678 6.62988 4.14359C6.68386 4.09377 6.73783 4.04394 6.79596 3.98582C6.95789 4.13944 7.09075 4.264 7.29004 4.45084C7.55162 4.16435 7.80074 3.88202 8.06646 3.61214C8.12044 3.55816 8.24084 3.56647 8.32804 3.61214C7.96681 3.98166 7.60144 4.34704 7.20701 4.74147Z" fill="#2F3990"/>
<path d="M10.7815 4.09415C10.5946 4.2104 10.4867 4.33081 10.387 4.32251C10.304 4.31836 10.1462 4.13982 10.1628 4.08169C10.1919 3.97789 10.3206 3.85749 10.4286 3.83673C10.5074 3.82427 10.6112 3.96129 10.7815 4.09415Z" fill="#2F3990"/>
<path d="M11.1924 3.70361C11.3128 3.8863 11.4415 3.9901 11.4374 4.08975C11.4374 4.17694 11.2879 4.25582 11.2007 4.33886C11.1135 4.24752 10.9724 4.17278 10.9516 4.06899C10.935 3.9901 11.0679 3.878 11.1924 3.70361Z" fill="#2F3990"/>
<path d="M12.3635 4.06892C12.185 4.19348 12.0812 4.32219 11.9815 4.32219C11.8944 4.32219 11.8113 4.17272 11.7241 4.09384C11.8113 4.00249 11.886 3.86133 11.9898 3.83641C12.0687 3.81981 12.1808 3.94852 12.3635 4.06892Z" fill="#2F3990"/>
</g>
<defs>
<clipPath id="clip0_10273_74717">
<rect width="15" height="16" fill="white"/>
</clipPath>
</defs>
</svg>
