<svg width="11" height="11" viewBox="0 0 11 11" fill="none" xmlns="http://www.w3.org/2000/svg">
<path d="M1.17249 10.2806C0.861643 10.2803 0.56356 10.1567 0.343759 9.93686C0.123958 9.71706 0.000330863 9.41903 0 9.10819V2.23362C0.00033111 1.92283 0.124016 1.62488 0.343835 1.40518C0.563654 1.18548 0.8617 1.06199 1.17249 1.06182H1.64121V0.28125H2.42241V1.06245H7.57895V0.28125H8.36076V1.06245H8.82948C9.14016 1.06278 9.43799 1.18635 9.65767 1.40604C9.87736 1.62572 10.0009 1.92357 10.0013 2.23425V9.10882C10.0009 9.41956 9.87741 9.71748 9.65775 9.93726C9.43808 10.157 9.14021 10.2808 8.82948 10.2812L1.17249 10.2806ZM0.781887 9.10819C0.781887 9.21184 0.823011 9.31125 0.896245 9.3846C0.969479 9.45796 1.06884 9.49925 1.17249 9.49942H8.82948C8.93308 9.49909 9.03229 9.45775 9.10549 9.38443C9.17869 9.31112 9.21991 9.21179 9.22008 9.10819V3.95289H0.783108L0.781887 9.10819ZM0.781887 2.23362V3.17106H9.21886V2.23362C9.21869 2.13008 9.17749 2.03082 9.10427 1.95761C9.03105 1.88439 8.9318 1.84319 8.82826 1.84302H8.35954V2.62422H7.57765V1.84365H2.42111V2.62485H1.63991V1.84365H1.17119C1.06776 1.84398 0.968639 1.88527 0.895558 1.95847C0.822477 2.03166 0.781366 2.13082 0.781201 2.23425L0.781887 2.23362ZM6.17217 8.68009V7.89889H6.95337V8.68009H6.17217ZM4.60977 8.68009V7.89889H5.39029V8.68009H4.60977ZM3.04737 8.68009V7.89889H3.82857V8.68009H3.04737ZM1.48497 8.68009V7.89889H2.26617V8.68009H1.48497ZM7.73457 7.11769V6.33712H8.51578V7.11769H7.73457ZM6.17217 7.11769V6.33712H6.95337V7.11769H6.17217ZM4.60977 7.11769V6.33712H5.39029V7.11769H4.60977ZM3.04737 7.11769V6.33712H3.82857V7.11769H3.04737ZM1.48497 7.11769V6.33712H2.26617V7.11769H1.48497ZM7.73457 5.55529V4.77409H8.51578V5.55529H7.73457ZM6.17217 5.55529V4.77409H6.95337V5.55529H6.17217ZM4.60977 5.55529V4.77409H5.39029V5.55529H4.60977ZM3.04737 5.55529V4.77409H3.82857V5.55529H3.04737ZM1.48497 5.55529V4.77409H2.26617V5.55529H1.48497Z" fill="#535358"/>
</svg>
