<svg width="8" height="8" viewBox="0 0 8 8" fill="none" xmlns="http://www.w3.org/2000/svg">
<path d="M5.942 7.57024C5.69986 7.57016 5.46394 7.4935 5.26799 7.35125C5.07204 7.209 4.92609 7.00845 4.851 6.77825H2.741C2.19817 6.77799 1.67761 6.56241 1.29349 6.17885C0.909368 5.7953 0.693056 5.27506 0.691997 4.73223V2.19823C0.502016 2.11626 0.337771 1.9844 0.216693 1.81661C0.0956159 1.64882 0.0222252 1.45139 0.00430621 1.24526C-0.0136128 1.03913 0.0246083 0.831966 0.114917 0.645804C0.205226 0.459642 0.344251 0.301411 0.517238 0.187888C0.690225 0.0743653 0.890721 0.00979532 1.09745 0.00102895C1.30417 -0.00773743 1.50941 0.0396438 1.69139 0.138114C1.87337 0.236584 2.02529 0.382477 2.13103 0.560325C2.23678 0.738173 2.2924 0.941336 2.292 1.14825C2.29332 1.39563 2.21414 1.63673 2.0664 1.83517C1.91866 2.0336 1.71038 2.1786 1.473 2.24825V3.30425H4.851C4.93542 3.04701 5.10781 2.82774 5.33788 2.68502C5.56795 2.5423 5.84096 2.48527 6.10893 2.52392C6.37689 2.56257 6.62266 2.69444 6.80302 2.89635C6.98338 3.09827 7.08679 3.35731 7.09508 3.62792C7.10336 3.89853 7.01598 4.1634 6.84831 4.37597C6.68064 4.58854 6.4434 4.73518 6.1783 4.79015C5.9132 4.84512 5.63721 4.80488 5.39884 4.67651C5.16047 4.54813 4.97499 4.33984 4.875 4.08825H1.475V4.73324C1.47579 5.06839 1.60956 5.38954 1.84692 5.62615C2.08428 5.86276 2.40584 5.9955 2.741 5.99523H4.88C4.95788 5.80211 5.08687 5.63383 5.25314 5.50844C5.4194 5.38306 5.61665 5.30532 5.82375 5.28353C6.03084 5.26174 6.23996 5.29675 6.42868 5.38479C6.61739 5.47283 6.77857 5.6106 6.89494 5.78329C7.01131 5.95598 7.07847 6.15708 7.08922 6.36504C7.09997 6.573 7.0539 6.77997 6.95596 6.96374C6.85802 7.1475 6.71189 7.30114 6.53326 7.40816C6.35463 7.51519 6.15024 7.57157 5.942 7.57125V7.57024ZM5.942 6.05923C5.87005 6.05962 5.79983 6.08135 5.74021 6.12163C5.6806 6.16192 5.63425 6.21894 5.60704 6.28554C5.57983 6.35215 5.57296 6.42534 5.58731 6.49584C5.60167 6.56634 5.63659 6.63103 5.68767 6.68169C5.73876 6.73236 5.80371 6.76674 5.87433 6.78051C5.94495 6.79428 6.01807 6.78682 6.08445 6.75906C6.15082 6.73129 6.20749 6.68448 6.24728 6.62453C6.28706 6.56459 6.30819 6.49418 6.308 6.42223C6.30787 6.3743 6.29829 6.32688 6.27983 6.28265C6.26137 6.23841 6.23437 6.19825 6.20039 6.16445C6.1664 6.13065 6.12609 6.10388 6.08175 6.08565C6.03742 6.06743 5.98993 6.05812 5.942 6.05825V6.05923ZM5.942 3.30224C5.87009 3.30263 5.79991 3.32432 5.74032 3.36455C5.68072 3.40479 5.63438 3.46177 5.60714 3.52831C5.57989 3.59486 5.57297 3.66798 5.58724 3.73846C5.60151 3.80893 5.63633 3.87363 5.68732 3.92434C5.7383 3.97504 5.80316 4.00951 5.87372 4.0234C5.94427 4.03728 6.01736 4.02995 6.08375 4.00234C6.15015 3.97473 6.20688 3.92806 6.24679 3.86825C6.2867 3.80843 6.308 3.73816 6.308 3.66625C6.30721 3.56979 6.26826 3.47755 6.19968 3.40972C6.1311 3.34189 6.03846 3.30398 5.942 3.30425V3.30224ZM1.142 0.786246C1.07005 0.786642 0.999833 0.808343 0.940215 0.848624C0.880598 0.888905 0.834255 0.94596 0.807041 1.01256C0.779827 1.07917 0.772963 1.15233 0.787315 1.22283C0.801666 1.29333 0.836587 1.35802 0.887672 1.40868C0.938757 1.45935 1.00371 1.49373 1.07433 1.5075C1.14495 1.52127 1.21807 1.51381 1.28445 1.48604C1.35082 1.45828 1.40748 1.41147 1.44727 1.35152C1.48706 1.29158 1.5082 1.2212 1.508 1.14925C1.50773 1.05262 1.46916 0.960041 1.40074 0.891807C1.33232 0.823572 1.23963 0.785239 1.143 0.785239L1.142 0.786246Z" fill="#818181"/>
</svg>
