<svg width="16" height="16" viewBox="0 0 16 16" fill="none" xmlns="http://www.w3.org/2000/svg">
<path d="M12.3991 0H3.60089C1.61217 0 0 1.61217 0 3.60089V12.3991C0 14.3878 1.61217 16 3.60089 16H12.3991C14.3878 16 16 14.3878 16 12.3991V3.60089C16 1.61217 14.3878 0 12.3991 0Z" fill="#1CB303"/>
<path d="M10.2195 12.0802C9.94282 12.0801 9.67321 11.9924 9.44926 11.8299C9.22532 11.6673 9.05851 11.4381 8.9727 11.175H6.56127C5.9409 11.1747 5.34597 10.9283 4.90698 10.49C4.46799 10.0517 4.22077 9.45709 4.21956 8.83672V5.94073C4.00244 5.84705 3.81473 5.69634 3.67636 5.50459C3.53799 5.31283 3.45411 5.0872 3.43363 4.85162C3.41315 4.61604 3.45683 4.37928 3.56004 4.16653C3.66325 3.95377 3.82214 3.77294 4.01984 3.6432C4.21754 3.51346 4.44668 3.43966 4.68293 3.42964C4.91919 3.41962 5.15375 3.47377 5.36172 3.58631C5.5697 3.69885 5.74332 3.86558 5.86417 4.06884C5.98502 4.27209 6.04859 4.50428 6.04813 4.74074C6.04965 5.02347 5.95915 5.29902 5.79031 5.52579C5.62146 5.75257 5.38343 5.91828 5.11213 5.99789V7.20475H8.9727C9.06917 6.91076 9.2662 6.66016 9.52913 6.49705C9.79206 6.33395 10.1041 6.26877 10.4103 6.31294C10.7166 6.35711 10.9974 6.50782 11.2036 6.73858C11.4097 6.96934 11.5279 7.26538 11.5374 7.57465C11.5468 7.88392 11.447 8.18663 11.2553 8.42956C11.0637 8.6725 10.7926 8.84009 10.4896 8.90291C10.1866 8.96573 9.87122 8.91975 9.5988 8.77303C9.32638 8.62632 9.1144 8.38828 9.00012 8.10074H5.11442V8.83787C5.11533 9.2209 5.2682 9.58792 5.53947 9.85834C5.81074 10.1288 6.17824 10.2804 6.56127 10.2801H9.00584C9.09485 10.0594 9.24227 9.86711 9.43228 9.72382C9.62229 9.58053 9.84773 9.49167 10.0844 9.46677C10.3211 9.44188 10.5601 9.48188 10.7758 9.5825C10.9914 9.68311 11.1756 9.84056 11.3086 10.0379C11.4416 10.2353 11.5184 10.4651 11.5307 10.7028C11.5429 10.9405 11.4903 11.177 11.3784 11.387C11.2664 11.597 11.0994 11.7726 10.8953 11.8949C10.6911 12.0172 10.4575 12.0817 10.2195 12.0813V12.0802ZM10.2195 10.3533C10.1373 10.3537 10.0571 10.3786 9.98894 10.4246C9.92081 10.4706 9.86784 10.5358 9.83674 10.6119C9.80564 10.688 9.7978 10.7717 9.8142 10.8523C9.8306 10.9328 9.87051 11.0068 9.9289 11.0647C9.98728 11.1226 10.0615 11.1619 10.1422 11.1776C10.2229 11.1933 10.3065 11.1848 10.3823 11.1531C10.4582 11.1214 10.523 11.0679 10.5684 10.9993C10.6139 10.9308 10.6381 10.8504 10.6378 10.7681C10.6377 10.7134 10.6267 10.6592 10.6056 10.6086C10.5845 10.5581 10.5537 10.5122 10.5149 10.4735C10.476 10.4349 10.4299 10.4043 10.3793 10.3835C10.3286 10.3627 10.2743 10.352 10.2195 10.3522V10.3533ZM10.2195 7.20244C10.1374 7.2029 10.0572 7.22768 9.98906 7.27366C9.92095 7.31965 9.86799 7.38476 9.83685 7.46081C9.80572 7.53687 9.7978 7.62043 9.81411 7.70098C9.83042 7.78152 9.87022 7.85546 9.92849 7.91341C9.98675 7.97136 10.0609 8.01076 10.1415 8.02663C10.2221 8.04249 10.3057 8.03411 10.3816 8.00256C10.4574 7.97101 10.5223 7.91767 10.5679 7.84931C10.6135 7.78095 10.6378 7.70064 10.6378 7.61846C10.6369 7.50822 10.5924 7.4028 10.514 7.32528C10.4357 7.24776 10.3298 7.20444 10.2195 7.20475V7.20244ZM4.73385 4.32703C4.65162 4.32748 4.57137 4.35229 4.50324 4.39832C4.43511 4.44436 4.38214 4.50956 4.35104 4.58568C4.31994 4.6618 4.3121 4.74541 4.3285 4.82598C4.3449 4.90656 4.38481 4.98048 4.44319 5.03839C4.50157 5.09629 4.57581 5.13558 4.65652 5.15132C4.73722 5.16706 4.82079 5.15853 4.89665 5.1268C4.97251 5.09507 5.03726 5.04157 5.08273 4.97306C5.12821 4.90455 5.15236 4.82412 5.15213 4.7419C5.15183 4.63146 5.10775 4.52565 5.02955 4.44767C4.95135 4.36969 4.84543 4.32588 4.73499 4.32588L4.73385 4.32703Z" fill="white"/>
</svg>
