<svg width="10" height="11" viewBox="0 0 10 11" fill="none" xmlns="http://www.w3.org/2000/svg">
<path id="Shape 701" d="M7.85066 10.5C7.53062 10.5 7.21872 10.3988 6.95963 10.211C6.70054 10.0231 6.5075 9.75808 6.40808 9.45388H3.61971C2.90238 9.45388 2.21428 9.16932 1.7065 8.66264C1.19873 8.15596 0.912692 7.46854 0.911148 6.75121V3.40311C0.660543 3.29431 0.444109 3.11971 0.284664 2.89786C0.12522 2.67601 0.0287143 2.41514 0.00548166 2.14292C-0.0177509 1.87071 0.0331541 1.59729 0.152698 1.35163C0.272242 1.10597 0.455985 0.897212 0.684528 0.747517C0.91307 0.597823 1.17784 0.512756 1.45081 0.501326C1.72377 0.489896 1.99472 0.552538 2.23498 0.682602C2.47523 0.812665 2.67584 1.0053 2.81551 1.2401C2.95517 1.47491 3.02869 1.74314 3.0283 2.01634C3.02899 2.34245 2.92383 2.65996 2.72858 2.92115C2.53333 3.18233 2.25859 3.37309 1.94563 3.46472V4.86226H6.40981C6.52139 4.52215 6.74931 4.23226 7.05347 4.04357C7.35764 3.85488 7.71853 3.77948 8.0728 3.83057C8.42708 3.88167 8.75202 4.056 8.99047 4.32296C9.22891 4.58991 9.36567 4.93241 9.3766 5.29018C9.38753 5.64796 9.27195 5.99815 9.05025 6.27917C8.82854 6.56018 8.5148 6.75403 8.1643 6.82665C7.81381 6.89928 7.44901 6.84601 7.13389 6.67623C6.81878 6.50646 6.57356 6.23103 6.44142 5.89837H1.9439V6.75208C1.94566 7.19462 2.12276 7.6184 2.43638 7.93062C2.75001 8.24284 3.17462 8.41804 3.61717 8.41782H6.44397C6.54679 8.16255 6.71709 7.94005 6.93675 7.77426C7.15641 7.60846 7.41715 7.50562 7.69083 7.47672C7.96452 7.44782 8.24091 7.49396 8.49036 7.61021C8.7398 7.72647 8.9528 7.90844 9.10667 8.1366C9.26055 8.36477 9.34949 8.63054 9.36379 8.90537C9.3781 9.18021 9.31726 9.45375 9.18791 9.69666C9.05855 9.93957 8.86547 10.1427 8.62944 10.2842C8.39341 10.4257 8.12332 10.5003 7.84811 10.5H7.85066ZM7.85066 8.50109C7.75575 8.50175 7.66318 8.53049 7.58459 8.58369C7.506 8.6369 7.44487 8.71218 7.40901 8.80005C7.37314 8.88791 7.36416 8.98445 7.38308 9.07745C7.402 9.17045 7.44801 9.25575 7.51535 9.32262C7.58269 9.3895 7.66836 9.43494 7.76149 9.45322C7.85462 9.47149 7.95102 9.46178 8.03864 9.42531C8.12626 9.38884 8.20111 9.32726 8.25377 9.2483C8.30643 9.16935 8.3346 9.07658 8.3346 8.98168C8.33394 8.85385 8.28256 8.73147 8.19186 8.64139C8.10116 8.55131 7.97849 8.50086 7.85066 8.50109ZM7.85066 4.85895C7.75575 4.85961 7.66318 4.88836 7.58459 4.94156C7.506 4.99476 7.44487 5.07004 7.40901 5.15791C7.37314 5.24578 7.36416 5.34226 7.38308 5.43526C7.402 5.52826 7.44801 5.61361 7.51535 5.68049C7.58269 5.74736 7.66836 5.79281 7.76149 5.81108C7.85462 5.82936 7.95102 5.81964 8.03864 5.78317C8.12626 5.74671 8.20111 5.68512 8.25377 5.60617C8.30643 5.52721 8.3346 5.4344 8.3346 5.33949C8.3335 5.21195 8.282 5.09004 8.19135 5.00032C8.10069 4.91061 7.9782 4.86041 7.85066 4.86063V4.85895ZM1.50998 1.53413C1.41507 1.53479 1.3225 1.56353 1.24391 1.61673C1.16532 1.66994 1.10429 1.74522 1.06843 1.83309C1.03257 1.92095 1.02348 2.01749 1.0424 2.11049C1.06132 2.20349 1.10733 2.28879 1.17467 2.35566C1.24201 2.42254 1.32768 2.46798 1.42081 2.48626C1.51394 2.50453 1.61034 2.49482 1.69796 2.45835C1.78558 2.42188 1.86043 2.3603 1.91309 2.28134C1.96575 2.20239 1.99392 2.10957 1.99392 2.01467C1.99304 1.88698 1.94165 1.76489 1.85097 1.67499C1.7603 1.58509 1.63766 1.53472 1.50998 1.53494V1.53413Z" fill="#818181"/>
</svg>
