<svg width="14" height="15" viewBox="0 0 14 15" fill="none" xmlns="http://www.w3.org/2000/svg">
<path d="M10.8492 0.195312H3.15079C1.41066 0.195312 0 1.60597 0 3.3461V11.0445C0 12.7847 1.41066 14.1953 3.15079 14.1953H10.8492C12.5893 14.1953 14 12.7847 14 11.0445V3.3461C14 1.60597 12.5893 0.195312 10.8492 0.195312Z" fill="#2DADFF"/>
<path d="M9.27848 11.1942C9.02263 11.1942 8.77336 11.1132 8.56631 10.9629C8.35926 10.8125 8.20504 10.6006 8.1257 10.3574H5.89622C5.32265 10.3571 4.77261 10.1293 4.36674 9.72407C3.96086 9.31879 3.7323 8.76909 3.73118 8.19552V5.51803C3.53044 5.43142 3.3569 5.29208 3.22896 5.1148C3.10103 4.93751 3.02348 4.7289 3.00455 4.51109C2.98562 4.29328 3.026 4.07439 3.12142 3.87769C3.21685 3.68098 3.36375 3.51379 3.54653 3.39384C3.72931 3.27389 3.94116 3.20566 4.15959 3.1964C4.37802 3.18714 4.59489 3.2372 4.78717 3.34125C4.97945 3.44529 5.13998 3.59945 5.25171 3.78737C5.36344 3.97529 5.42221 4.18995 5.42179 4.40858C5.42319 4.66998 5.33953 4.92473 5.18342 5.1344C5.02731 5.34407 4.80724 5.49728 4.55641 5.57088V6.68668H8.1257C8.2149 6.41487 8.39706 6.18318 8.64015 6.03238C8.88325 5.88158 9.17173 5.82132 9.45487 5.86216C9.73801 5.90299 9.99769 6.04233 10.1883 6.25568C10.3788 6.46903 10.4881 6.74274 10.4969 7.02868C10.5056 7.31461 10.4133 7.59448 10.2361 7.81908C10.059 8.04369 9.80828 8.19864 9.52817 8.25672C9.24806 8.3148 8.95643 8.27229 8.70457 8.13664C8.4527 8.00099 8.25672 7.78092 8.15106 7.51507H4.55852V8.19659C4.55936 8.55072 4.7007 8.89005 4.95151 9.14006C5.20231 9.39008 5.54208 9.53032 5.89622 9.53004H8.15634C8.23864 9.32598 8.37494 9.14817 8.55061 9.01569C8.72629 8.88321 8.93472 8.80106 9.15354 8.77804C9.37236 8.75502 9.59332 8.79201 9.79272 8.88503C9.99212 8.97806 10.1624 9.12363 10.2854 9.3061C10.4084 9.48857 10.4793 9.70106 10.4907 9.9208C10.502 10.1405 10.4534 10.3592 10.3499 10.5534C10.2464 10.7476 10.092 10.9099 9.90323 11.023C9.71448 11.1361 9.49851 11.1956 9.27848 11.1953V11.1942ZM9.27848 9.59766C9.20246 9.59808 9.12827 9.62104 9.06527 9.66361C9.00228 9.70617 8.95331 9.76642 8.92456 9.8368C8.8958 9.90717 8.88855 9.98451 8.90372 10.059C8.91888 10.1335 8.95578 10.2018 9.00976 10.2554C9.06374 10.3089 9.13237 10.3452 9.20699 10.3598C9.2816 10.3743 9.35886 10.3665 9.429 10.3371C9.49914 10.3078 9.55901 10.2583 9.60105 10.195C9.64309 10.1316 9.66542 10.0573 9.66521 9.98123C9.66507 9.93058 9.65496 9.88047 9.63545 9.83373C9.61594 9.787 9.58741 9.74456 9.5515 9.70885C9.51559 9.67313 9.473 9.64484 9.42615 9.62559C9.37931 9.60633 9.32913 9.59649 9.27848 9.59663V9.59766ZM9.27848 6.68455C9.20251 6.68497 9.12835 6.70788 9.06538 6.7504C9.00241 6.79291 8.95345 6.85311 8.92466 6.92343C8.89587 6.99374 8.88856 7.071 8.90363 7.14547C8.91871 7.21994 8.95551 7.2883 9.00938 7.34188C9.06325 7.39546 9.13179 7.43188 9.20634 7.44655C9.28089 7.46122 9.35811 7.45347 9.42826 7.4243C9.49842 7.39513 9.55836 7.34582 9.60053 7.28261C9.6427 7.21941 9.66521 7.14516 9.66521 7.06918C9.66437 6.96726 9.62322 6.86979 9.55076 6.79812C9.47829 6.72645 9.3804 6.6864 9.27848 6.68668V6.68455ZM4.20667 4.02608C4.13064 4.0265 4.05645 4.04943 3.99346 4.09199C3.93047 4.13455 3.8815 4.19484 3.85274 4.26522C3.82399 4.33559 3.81674 4.41289 3.8319 4.48739C3.84706 4.56189 3.88396 4.63023 3.93794 4.68377C3.99192 4.7373 4.06055 4.77363 4.13517 4.78818C4.20979 4.80273 4.28705 4.79484 4.35718 4.76551C4.42732 4.73618 4.48719 4.68671 4.52923 4.62337C4.57127 4.56003 4.5936 4.48567 4.59339 4.40965C4.59311 4.30754 4.55236 4.20972 4.48006 4.13762C4.40776 4.06552 4.30983 4.02502 4.20772 4.02502L4.20667 4.02608Z" fill="white"/>
</svg>
