<svg width="12" height="13" viewBox="0 0 12 13" fill="none" xmlns="http://www.w3.org/2000/svg">
<path d="M9.88857 12.0104C9.50582 12.0097 9.13317 11.8878 8.82399 11.6621C8.51482 11.4365 8.28507 11.1187 8.16762 10.7545H4.83962C3.98091 10.7515 3.1584 10.4082 2.55251 9.79966C1.94662 9.19114 1.60676 8.36717 1.60756 7.50846V3.48743C1.30531 3.35904 1.04356 3.15109 0.850117 2.88572C0.656673 2.62034 0.538792 2.30749 0.509053 1.98044C0.479314 1.6534 0.538766 1.32442 0.681172 1.02851C0.823578 0.732597 1.04363 0.48083 1.31777 0.300024C1.59191 0.119218 1.90998 0.0161376 2.23806 0.00174523C2.56614 -0.0126471 2.89189 0.0621924 3.18081 0.218298C3.46972 0.374403 3.71091 0.605915 3.87868 0.88822C4.04645 1.17052 4.13455 1.49305 4.13356 1.82145C4.13506 2.212 4.01004 2.59254 3.77712 2.90604C3.5442 3.21955 3.21593 3.44915 2.84157 3.56046V5.23844H8.16958C8.30355 4.83009 8.5772 4.48206 8.9424 4.2555C9.3076 4.02894 9.74104 3.93835 10.1664 3.9997C10.5918 4.06105 10.9818 4.27039 11.2681 4.59092C11.5544 4.91144 11.7186 5.32263 11.7317 5.7522C11.7448 6.18177 11.6061 6.60224 11.3399 6.93964C11.0737 7.27704 10.6971 7.50979 10.2763 7.59699C9.85544 7.68419 9.41731 7.62027 9.03896 7.41642C8.66061 7.21257 8.36619 6.88187 8.20754 6.48246H2.84157V7.50644C2.84157 8.03688 3.05231 8.54559 3.42739 8.92066C3.80246 9.29573 4.31114 9.50644 4.84157 9.50644H8.2156C8.3403 9.2026 8.54523 8.93838 8.80849 8.74201C9.07176 8.54564 9.38344 8.4245 9.71023 8.39158C10.037 8.35865 10.3666 8.41516 10.6637 8.55506C10.9609 8.69496 11.2144 8.913 11.3972 9.18586C11.58 9.45871 11.6853 9.77613 11.7017 10.1042C11.718 10.4322 11.6449 10.7585 11.4901 11.0482C11.3354 11.3379 11.1049 11.5801 10.8231 11.7489C10.5414 11.9177 10.219 12.0067 9.89052 12.0064L9.88857 12.0104ZM9.88857 9.61045C9.77449 9.61065 9.66301 9.64464 9.56826 9.70817C9.4735 9.77169 9.39974 9.86187 9.35622 9.96732C9.3127 10.0728 9.30137 10.1888 9.32375 10.3006C9.34613 10.4125 9.40122 10.5152 9.48195 10.5958C9.56269 10.6764 9.66546 10.7312 9.77736 10.7534C9.88926 10.7756 10.0052 10.7641 10.1106 10.7204C10.216 10.6767 10.306 10.6028 10.3694 10.5079C10.4328 10.413 10.4666 10.3015 10.4666 10.1874C10.4658 10.0347 10.4046 9.88842 10.2963 9.78068C10.188 9.67293 10.0413 9.61243 9.88857 9.61243V9.61045ZM9.88857 5.23646C9.77449 5.23665 9.66301 5.27065 9.56826 5.33417C9.4735 5.3977 9.39974 5.48788 9.35622 5.59333C9.3127 5.69878 9.30137 5.81475 9.32375 5.92661C9.34613 6.03847 9.40122 6.14121 9.48195 6.22181C9.56269 6.3024 9.66546 6.35725 9.77736 6.37943C9.88926 6.40161 10.0052 6.39014 10.1106 6.34644C10.216 6.30274 10.306 6.22878 10.3694 6.13392C10.4328 6.03905 10.4666 5.92753 10.4666 5.81345C10.4658 5.66068 10.4046 5.51443 10.2963 5.40668C10.188 5.29893 10.0413 5.23844 9.88857 5.23844V5.23646ZM2.32558 1.24546C2.2115 1.24566 2.10002 1.27965 2.00527 1.34318C1.91051 1.4067 1.83675 1.49688 1.79323 1.60233C1.74971 1.70778 1.73839 1.82375 1.76076 1.93561C1.78314 2.04747 1.83823 2.15022 1.91896 2.23081C1.9997 2.3114 2.10248 2.36625 2.21438 2.38843C2.32627 2.41062 2.44225 2.39911 2.54763 2.35541C2.653 2.31171 2.74306 2.23778 2.80642 2.14292C2.86977 2.04805 2.90358 1.93653 2.90358 1.82245C2.90332 1.66933 2.84227 1.52255 2.73391 1.41437C2.62554 1.30619 2.4787 1.24546 2.32558 1.24546Z" fill="#3845B3"/>
</svg>
