<svg width="12" height="13" viewBox="0 0 12 13" fill="none" xmlns="http://www.w3.org/2000/svg">
<path d="M9.56276 12.3073C9.18001 12.3066 8.80736 12.1846 8.49819 11.959C8.18902 11.7334 7.95926 11.4156 7.84182 11.0513H4.51381C3.6551 11.0484 2.83259 10.705 2.2267 10.0965C1.62081 9.48802 1.28096 8.66405 1.28176 7.80533V3.78431C0.979503 3.65591 0.717756 3.44796 0.524312 3.18259C0.330867 2.91722 0.212986 2.60436 0.183247 2.27732C0.153509 1.95027 0.21296 1.6213 0.355366 1.32538C0.497772 1.02947 0.717824 0.777705 0.991963 0.596899C1.2661 0.416093 1.58417 0.313013 1.91225 0.29862C2.24033 0.284228 2.56608 0.359067 2.855 0.515173C3.14392 0.671278 3.3851 0.90279 3.55288 1.18509C3.72065 1.4674 3.80874 1.78993 3.80776 2.11832C3.80926 2.50888 3.68423 2.88941 3.45131 3.20292C3.21839 3.51642 2.89013 3.74603 2.51577 3.85734V5.53531H7.84377C7.97775 5.12696 8.2514 4.77893 8.6166 4.55237C8.9818 4.32581 9.41523 4.23522 9.8406 4.29658C10.266 4.35793 10.656 4.56727 10.9423 4.88779C11.2286 5.20832 11.3928 5.61951 11.4059 6.04908C11.419 6.47865 11.2803 6.89911 11.0141 7.23652C10.7479 7.57392 10.3713 7.80667 9.95046 7.89387C9.52963 7.98107 9.0915 7.91714 8.71315 7.71329C8.33481 7.50945 8.04038 7.17875 7.88173 6.77933H2.51577V7.80332C2.51577 8.33375 2.72651 8.84246 3.10158 9.21754C3.47665 9.59261 3.98533 9.80332 4.51577 9.80332H7.88979C8.01449 9.49948 8.21942 9.23526 8.48269 9.03889C8.74595 8.84251 9.05764 8.72138 9.38442 8.68845C9.7112 8.65553 10.0408 8.71203 10.3379 8.85193C10.6351 8.99184 10.8886 9.20988 11.0714 9.48273C11.2542 9.75559 11.3595 10.073 11.3759 10.401C11.3922 10.7291 11.3191 11.0554 11.1643 11.3451C11.0096 11.6348 10.7791 11.877 10.4973 12.0458C10.2156 12.2145 9.89315 12.3036 9.56472 12.3033L9.56276 12.3073ZM9.56276 9.90732C9.44869 9.90752 9.33721 9.94152 9.24245 10.005C9.1477 10.0686 9.07393 10.1587 9.03042 10.2642C8.9869 10.3696 8.97557 10.4856 8.99794 10.5975C9.02032 10.7094 9.07541 10.8121 9.15615 10.8927C9.23688 10.9733 9.33966 11.0281 9.45156 11.0503C9.56346 11.0725 9.67944 11.061 9.78481 11.0173C9.89018 10.9736 9.98024 10.8997 10.0436 10.8048C10.107 10.7099 10.1408 10.5984 10.1408 10.4843C10.14 10.3315 10.0788 10.1853 9.97048 10.0776C9.86217 9.9698 9.71554 9.90931 9.56276 9.90931V9.90732ZM9.56276 5.53333C9.44869 5.53353 9.33721 5.56753 9.24245 5.63105C9.1477 5.69457 9.07393 5.78475 9.03042 5.8902C8.9869 5.99565 8.97557 6.11162 8.99794 6.22349C9.02032 6.33535 9.07541 6.43809 9.15615 6.51868C9.23688 6.59928 9.33966 6.65412 9.45156 6.67631C9.56346 6.69849 9.67944 6.68702 9.78481 6.64332C9.89018 6.59962 9.98024 6.52566 10.0436 6.43079C10.107 6.33593 10.1408 6.2244 10.1408 6.11033C10.14 5.95755 10.0788 5.81131 9.97048 5.70356C9.86217 5.59581 9.71554 5.53531 9.56276 5.53531V5.53333ZM1.99978 1.54233C1.8857 1.54253 1.77422 1.57653 1.67946 1.64005C1.58471 1.70357 1.51095 1.79376 1.46743 1.89921C1.42391 2.00466 1.41258 2.12063 1.43496 2.23249C1.45733 2.34435 1.51242 2.44709 1.59316 2.52769C1.67389 2.60828 1.77667 2.66313 1.88857 2.68531C2.00047 2.70749 2.11645 2.69599 2.22182 2.65229C2.3272 2.60859 2.41725 2.53466 2.48061 2.43979C2.54397 2.34493 2.57778 2.23341 2.57778 2.11933C2.57751 1.96621 2.51647 1.81943 2.4081 1.71125C2.29973 1.60307 2.1529 1.54233 1.99978 1.54233Z" fill="#505050"/>
</svg>
