<svg width="12" height="14" viewBox="0 0 12 14" fill="none" xmlns="http://www.w3.org/2000/svg">
<path d="M9.38698 13.0052C9.00423 13.0045 8.63158 12.8825 8.32241 12.6569C8.01324 12.4313 7.78348 12.1135 7.66604 11.7492H4.33803C3.47932 11.7463 2.65681 11.403 2.05092 10.7944C1.44503 10.1859 1.10518 9.36195 1.10598 8.50324V4.48221C0.803721 4.35382 0.541975 4.14587 0.34853 3.8805C0.155086 3.61513 0.0372046 3.30227 0.00746594 2.97523C-0.0222727 2.64818 0.0371792 2.3192 0.179585 2.02329C0.321991 1.72738 0.542042 1.47561 0.816182 1.29481C1.09032 1.114 1.40839 1.01092 1.73647 0.996527C2.06455 0.982134 2.3903 1.05697 2.67922 1.21308C2.96814 1.36918 3.20932 1.6007 3.37709 1.883C3.54487 2.16531 3.63296 2.48784 3.63198 2.81623C3.63348 3.20678 3.50845 3.58732 3.27553 3.90082C3.04261 4.21433 2.71435 4.44394 2.33999 4.55524V6.23322H7.66799C7.80197 5.82487 8.07561 5.47684 8.44082 5.25028C8.80602 5.02372 9.23945 4.93313 9.66481 4.99448C10.0902 5.05583 10.4802 5.26517 10.7665 5.5857C11.0528 5.90623 11.217 6.31742 11.2301 6.74698C11.2432 7.17655 11.1045 7.59702 10.8383 7.93442C10.5721 8.27183 10.1955 8.50457 9.77468 8.59177C9.35385 8.67897 8.91572 8.61505 8.53737 8.4112C8.15903 8.20735 7.8646 7.87665 7.70595 7.47724H2.33999V8.50123C2.33999 9.03166 2.55073 9.54037 2.9258 9.91544C3.30087 10.2905 3.80955 10.5012 4.33999 10.5012H7.71401C7.83871 10.1974 8.04364 9.93316 8.3069 9.73679C8.57017 9.54042 8.88186 9.41928 9.20864 9.38636C9.53542 9.35343 9.86498 9.40994 10.1621 9.54984C10.4593 9.68974 10.7128 9.90778 10.8956 10.1806C11.0785 10.4535 11.1837 10.7709 11.2001 11.0989C11.2165 11.427 11.1433 11.7533 10.9885 12.043C10.8338 12.3327 10.6033 12.5749 10.3216 12.7437C10.0398 12.9124 9.71737 13.0015 9.38894 13.0012L9.38698 13.0052ZM9.38698 10.6052C9.27291 10.6054 9.16143 10.6394 9.06667 10.7029C8.97192 10.7665 8.89815 10.8567 8.85463 10.9621C8.81112 11.0676 8.79979 11.1836 8.82216 11.2954C8.84454 11.4073 8.89963 11.51 8.98037 11.5906C9.0611 11.6712 9.16388 11.726 9.27578 11.7482C9.38768 11.7704 9.50365 11.7589 9.60903 11.7152C9.7144 11.6715 9.80446 11.5976 9.86782 11.5027C9.93118 11.4078 9.96499 11.2963 9.96499 11.1822C9.96419 11.0295 9.90301 10.8832 9.7947 10.7755C9.68639 10.6677 9.53976 10.6072 9.38698 10.6072V10.6052ZM9.38698 6.23124C9.27291 6.23144 9.16143 6.26543 9.06667 6.32895C8.97192 6.39248 8.89815 6.48266 8.85463 6.58811C8.81112 6.69356 8.79979 6.80953 8.82216 6.92139C8.84454 7.03325 8.89963 7.13599 8.98037 7.21659C9.0611 7.29718 9.16388 7.35203 9.27578 7.37421C9.38768 7.3964 9.50365 7.38492 9.60903 7.34122C9.7144 7.29752 9.80446 7.22356 9.86782 7.1287C9.93118 7.03383 9.96499 6.92231 9.96499 6.80823C9.96419 6.65546 9.90301 6.50921 9.7947 6.40146C9.68639 6.29372 9.53976 6.23322 9.38698 6.23322V6.23124ZM1.82399 2.24024C1.70992 2.24044 1.59844 2.27444 1.50368 2.33796C1.40893 2.40148 1.33516 2.49166 1.29165 2.59711C1.24813 2.70256 1.2368 2.81853 1.25917 2.9304C1.28155 3.04226 1.33664 3.145 1.41738 3.22559C1.49811 3.30619 1.60089 3.36103 1.71279 3.38321C1.82469 3.4054 1.94067 3.3939 2.04604 3.35019C2.15141 3.30649 2.24147 3.23257 2.30483 3.1377C2.36819 3.04284 2.402 2.93131 2.402 2.81724C2.40173 2.66411 2.34069 2.51733 2.23232 2.40915C2.12395 2.30098 1.97712 2.24024 1.82399 2.24024Z" fill="#818181"/>
</svg>
