<svg width="31" height="30" viewBox="0 0 31 30" fill="none" xmlns="http://www.w3.org/2000/svg">
<rect x="0.822266" width="30" height="30" rx="6" fill="white"/>
<path d="M13.916 20.9656L13.9165 20.9656L19.1884 20.9656C19.3408 20.4948 19.6342 20.0806 20.0304 19.779C20.4573 19.4541 20.9799 19.278 21.5174 19.2779C21.5175 19.2779 21.5176 19.2779 21.5176 19.2779L21.5177 19.4279C21.9558 19.4271 22.385 19.5506 22.7549 19.784C23.1248 20.0174 23.4199 20.3509 23.6055 20.7453C23.7912 21.1397 23.8597 21.5786 23.8028 22.0104C23.746 22.4421 23.5663 22.8488 23.2849 23.1825C23.0034 23.5162 22.632 23.7631 22.2142 23.8941C21.7963 24.0251 21.3495 24.0348 20.9264 23.922C20.5032 23.8092 20.1212 23.5787 19.8254 23.2575C19.5296 22.9363 19.3322 22.5379 19.2564 22.109L13.916 20.9656ZM13.916 20.9656C13.0496 20.9685 12.2176 20.6298 11.6024 20.0239C10.9874 19.4182 10.6394 18.5951 10.6343 17.735V15.9489H19.1821C19.3498 16.4741 19.6943 16.9273 20.1592 17.2312C20.6566 17.5563 21.257 17.6877 21.8456 17.6004C22.4342 17.5131 22.97 17.2133 23.3504 16.7578C23.7308 16.3024 23.9291 15.7234 23.907 15.1316C23.885 14.5398 23.6442 13.977 23.2309 13.5508C22.8177 13.1247 22.2611 12.865 21.6676 12.8212C21.0741 12.7775 20.4851 12.9527 20.0133 13.3135C19.5747 13.6489 19.2658 14.1229 19.1364 14.6554H10.6343L13.916 20.9656ZM13.917 22.259H19.134L9.47593 17.7354C9.48263 18.9002 9.95391 20.0147 10.7864 20.8347C11.6189 21.6546 12.7445 22.1129 13.9165 22.109V22.259H13.917ZM21.5172 14.1111L21.6036 14.1114C21.7966 14.1279 21.9825 14.1934 22.1433 14.3021C22.3283 14.427 22.4718 14.6035 22.5559 14.8092C22.64 15.0148 22.6609 15.2406 22.6161 15.458C22.5713 15.6754 22.4627 15.8749 22.3039 16.0313C22.1451 16.1877 21.9432 16.294 21.7235 16.3367C21.5038 16.3793 21.2763 16.3564 21.0698 16.2708C20.8632 16.1852 20.6869 16.0409 20.5629 15.8561C20.4391 15.6715 20.3731 15.4548 20.3729 15.2331C20.3758 14.9344 20.4974 14.6487 20.7116 14.4384C20.9259 14.228 21.2155 14.1102 21.5172 14.1111ZM8.98098 9.33088H8.98099L8.98098 9.32952C8.97893 9.10447 9.04422 8.8838 9.16865 8.69553C9.29308 8.50724 9.47104 8.35981 9.68012 8.27209C9.88923 8.18435 10.1199 8.16032 10.3428 8.20309C10.5658 8.24585 10.7708 8.35346 10.9318 8.5121C11.0929 8.67074 11.2028 8.87325 11.2478 9.09387C11.2927 9.31447 11.2707 9.54338 11.1845 9.7516C11.0982 9.95983 10.9517 10.138 10.7632 10.2635C10.5747 10.389 10.3528 10.4561 10.1257 10.4561L10.1253 10.4561C9.8236 10.457 9.53402 10.3392 9.31967 10.1288C9.10552 9.9185 8.98388 9.63279 8.98098 9.33405V9.33088ZM21.9557 22.7417C21.844 22.7873 21.7259 22.8148 21.6058 22.8235L21.5191 22.8227C21.2953 22.8205 21.0773 22.7525 20.8924 22.6274C20.7075 22.5024 20.5642 22.3258 20.4802 22.1202C20.3963 21.9145 20.3755 21.6888 20.4204 21.4714C20.4653 21.2541 20.5739 21.0547 20.7328 20.8983C20.8916 20.742 21.0936 20.6358 21.3132 20.5932C21.5329 20.5506 21.7603 20.5736 21.9668 20.6592C22.1733 20.7448 22.3496 20.8891 22.4735 21.0739C22.5973 21.2585 22.6633 21.4753 22.6634 21.6971C22.663 21.8458 22.6331 21.993 22.5753 22.1302C22.5176 22.2675 22.4332 22.3922 22.3269 22.4971C22.2206 22.6021 22.0944 22.6852 21.9557 22.7417Z" fill="#818181" stroke="#818181" stroke-width="0.3"/>
</svg>
