<svg width="23" height="19" viewBox="0 0 23 19" fill="none" xmlns="http://www.w3.org/2000/svg">
<path d="M15.1891 14.6646C13.1734 14.6646 11.1576 14.6646 9.14119 14.6604C8.93884 14.6604 8.83697 14.7025 8.77092 14.9154C8.17301 16.8384 6.24509 18.1741 4.29819 18.0293C2.1103 17.867 0.412125 16.3431 0.0826065 14.2529C-0.28696 11.9167 1.19271 9.69441 3.47545 9.15763C4.57954 8.89577 5.74188 9.06314 6.72723 9.62587C7.71259 10.1886 8.44737 11.1046 8.78286 12.1886C8.8454 12.3882 8.94306 12.4142 9.11871 12.4142C13.1685 12.4109 17.218 12.4109 21.2673 12.4142C21.9896 12.4142 22.4842 12.906 22.4617 13.591C22.4399 14.2149 21.9502 14.6618 21.2673 14.6653C20.2682 14.6709 19.2691 14.6653 18.2693 14.6653L15.1891 14.6646ZM4.50194 11.2921C3.90797 11.2943 3.33901 11.5315 2.91933 11.9519C2.49965 12.3722 2.26336 12.9415 2.26206 13.5355C2.26463 14.1297 2.50128 14.6989 2.92069 15.1197C3.34011 15.5406 3.9085 15.7792 4.50265 15.7838C4.79909 15.7834 5.09256 15.7247 5.36627 15.6108C5.63998 15.497 5.88857 15.3303 6.09783 15.1203C6.30709 14.9103 6.47291 14.6612 6.58582 14.3871C6.69873 14.113 6.75652 13.8193 6.75587 13.5229C6.75197 12.9285 6.51247 12.36 6.08991 11.9421C5.66736 11.5242 5.09627 11.2909 4.50194 11.2935V11.2921ZM7.29476 3.4153C9.31965 3.4153 11.3445 3.4153 13.3687 3.42092C13.5718 3.42092 13.6547 3.35909 13.7137 3.16799C14.3151 1.23655 16.2585 -0.105414 18.2103 0.0526705C20.3919 0.22832 22.0816 1.74663 22.4048 3.8228C22.7702 6.16948 21.3067 8.37212 19.0169 8.92085C17.9132 9.18341 16.7509 9.01707 15.7651 8.45544C14.7793 7.89382 14.0436 6.97882 13.7067 5.89547C13.6455 5.69874 13.5521 5.66501 13.3736 5.66572C9.32386 5.66946 5.2741 5.66946 1.22433 5.66572C0.511191 5.66572 0.0165624 5.18795 0.0299118 4.51838C0.0397481 3.87761 0.528053 3.41881 1.22433 3.4146C2.22342 3.40968 3.22251 3.4146 4.22231 3.4146L7.29476 3.4153ZM17.9799 6.78776C18.5743 6.78777 19.1446 6.55234 19.5659 6.13298C19.9873 5.71362 20.2254 5.14445 20.2282 4.54999C20.2291 3.9539 19.994 3.38168 19.5743 2.9584C19.1546 2.53513 18.5844 2.29523 17.9883 2.29114C17.6919 2.29087 17.3984 2.34899 17.1245 2.4622C16.8505 2.57541 16.6016 2.74148 16.3919 2.95093C16.1822 3.16037 16.0158 3.40909 15.9023 3.68286C15.7887 3.95663 15.7302 4.25009 15.7301 4.54648C15.7331 5.1407 15.9712 5.70958 16.3924 6.12877C16.8135 6.54796 17.3835 6.78337 17.9778 6.78355L17.9799 6.78776Z" fill="#3A3A3A"/>
</svg>
