<svg width="26" height="26" viewBox="0 0 26 26" fill="none" xmlns="http://www.w3.org/2000/svg">
<rect x="0.5" y="0.5" width="25" height="25" rx="12.5" fill="white" stroke="#DFE1E6"/>
<path d="M14.3592 18.6546C14.1289 18.8849 13.8436 19 13.5031 19C13.1627 19 12.8773 18.8849 12.6471 18.6546L7.36045 13.368C7.25031 13.2578 7.1628 13.1277 7.09792 12.9775C7.03264 12.8273 7 12.6671 7 12.4969V8.2015C7 7.87109 7.11775 7.58814 7.35324 7.35264C7.58834 7.11755 7.87109 7 8.2015 7H12.4969C12.6671 7 12.8273 7.03244 12.9775 7.09732C13.1277 7.1626 13.2578 7.25031 13.368 7.36045L18.6546 12.6621C18.8849 12.8924 19 13.1751 19 13.5103C19 13.846 18.8849 14.1289 18.6546 14.3592L14.3592 18.6546ZM13.5031 17.8135L17.7985 13.5181L12.4969 8.2015H8.2015V12.4969L13.5031 17.8135ZM9.70338 10.6045C9.95369 10.6045 10.1664 10.5168 10.3414 10.3414C10.5168 10.1664 10.6045 9.95369 10.6045 9.70338C10.6045 9.45307 10.5168 9.2404 10.3414 9.06538C10.1664 8.88996 9.95369 8.80225 9.70338 8.80225C9.45307 8.80225 9.2404 8.88996 9.06538 9.06538C8.88996 9.2404 8.80225 9.45307 8.80225 9.70338C8.80225 9.95369 8.88996 10.1664 9.06538 10.3414C9.2404 10.5168 9.45307 10.6045 9.70338 10.6045Z" fill="#818181"/>
</svg>
