<svg width="12" height="3" viewBox="0 0 12 3" fill="none" xmlns="http://www.w3.org/2000/svg">
<path d="M10.7045 2.98969C10.4092 3.02478 10.1102 2.96925 9.84715 2.83046C9.58412 2.69167 9.36953 2.47618 9.23181 2.21259C9.09409 1.949 9.03977 1.64974 9.07606 1.35457C9.11236 1.05939 9.23756 0.782282 9.43503 0.559906C9.63249 0.33753 9.8929 0.180459 10.1817 0.109522C10.4705 0.0385854 10.7741 0.0571296 11.0521 0.162718C11.3301 0.268306 11.5695 0.455945 11.7384 0.700718C11.9073 0.945491 11.9978 1.23582 11.9979 1.53321C12.0181 1.89753 11.8935 2.25509 11.6512 2.52793C11.409 2.80076 11.0687 2.96673 10.7045 2.98969ZM6.17197 2.98969C5.87664 3.0249 5.57757 2.96945 5.31447 2.83074C5.05138 2.69204 4.83669 2.47666 4.69888 2.21309C4.56107 1.94953 4.50667 1.65027 4.54289 1.35506C4.57911 1.05986 4.70424 0.782627 4.90167 0.56019C5.09911 0.337754 5.35951 0.180658 5.64833 0.109664C5.93715 0.0386705 6.24075 0.0571594 6.5188 0.162718C6.79686 0.268276 7.03624 0.455871 7.20519 0.700646C7.37414 0.945422 7.46465 1.23579 7.46473 1.53321C7.48514 1.89747 7.36068 2.255 7.1185 2.52785C6.87632 2.8007 6.53607 2.96673 6.17197 2.98969ZM1.6394 2.98969C1.34408 3.02478 1.04507 2.96925 0.782047 2.83046C0.51902 2.69167 0.304424 2.47618 0.166707 2.21259C0.0289896 1.949 -0.0253325 1.64974 0.0109609 1.35457C0.0472544 1.05939 0.172454 0.782282 0.369924 0.559906C0.567393 0.33753 0.827803 0.180459 1.11662 0.109522C1.40543 0.0385854 1.70899 0.0571296 1.98702 0.162718C2.26504 0.268306 2.50438 0.455945 2.6733 0.700718C2.84221 0.945491 2.9327 1.23582 2.93277 1.53321C2.95317 1.89756 2.82862 2.2552 2.58632 2.52807C2.34401 2.80093 2.0036 2.96687 1.6394 2.98969Z" fill="#818181"/>
</svg>
