<svg width="18" height="20" viewBox="0 0 18 20" fill="none" xmlns="http://www.w3.org/2000/svg">
<path d="M13.5501 5.22838C13.343 5.43373 13.0632 5.54895 12.7715 5.54895C12.4799 5.54895 12.2001 5.43373 11.993 5.22838C11.891 5.12731 11.8101 5.00705 11.7549 4.87452C11.6996 4.742 11.6712 4.59985 11.6712 4.45628C11.6712 4.3127 11.6996 4.17055 11.7549 4.03803C11.8101 3.90551 11.891 3.78524 11.993 3.68417C12.2001 3.47882 12.4799 3.36361 12.7715 3.36361C13.0632 3.36361 13.343 3.47882 13.5501 3.68417C13.9786 4.11129 13.9786 4.80269 13.5501 5.22838ZM0.949268 11.6566C0.682264 11.3921 0.470322 11.0772 0.325682 10.7303C0.181043 10.3833 0.106573 10.0112 0.106573 9.63531C0.106573 9.25942 0.181043 8.88727 0.325682 8.54033C0.470322 8.19339 0.682264 7.87854 0.949268 7.61398L7.74893 0.85717C8.28671 0.323627 9.01272 0.0229581 9.77026 0.020069L14.4329 6.99201e-05C14.812 -0.00257794 15.1879 0.0700042 15.5388 0.213615C15.8897 0.357225 16.2087 0.569011 16.4772 0.836713C16.7457 1.10442 16.9584 1.42272 17.1031 1.77319C17.2477 2.12366 17.3214 2.49935 17.3199 2.8785L17.2856 7.69683C17.2794 8.44853 16.9765 9.16735 16.4428 9.69673L9.74312 16.3535C9.20224 16.8893 8.47169 17.1899 7.71036 17.1899C6.94903 17.1899 6.21848 16.8893 5.67761 16.3535L0.949268 11.6566ZM1.96636 8.62393C1.83286 8.75621 1.72689 8.91363 1.65457 9.0871C1.58225 9.26057 1.54501 9.44665 1.54501 9.63459C1.54501 9.82253 1.58225 10.0086 1.65457 10.1821C1.72689 10.3555 1.83286 10.513 1.96636 10.6453L6.6947 15.345C7.2561 15.9021 8.16605 15.9021 8.72745 15.345L15.4271 8.68678C15.6935 8.4219 15.8445 8.06249 15.8471 7.68683L15.8828 2.8685C15.8838 2.67878 15.847 2.49076 15.7747 2.31535C15.7024 2.13994 15.596 1.98063 15.4617 1.84667C15.3273 1.71272 15.1677 1.60678 14.9921 1.53501C14.8164 1.46323 14.6283 1.42705 14.4386 1.42857L9.77597 1.44857C9.39696 1.44983 9.03366 1.60018 8.7646 1.86712L1.96493 8.62393H1.96636ZM0.180735 12.4994C-0.0111646 13.013 -0.0512484 13.5709 0.0652674 14.1067C0.181783 14.6424 0.449977 15.1333 0.837845 15.5207L3.64342 18.3263C4.17402 18.8569 4.80394 19.2778 5.49721 19.565C6.19049 19.8522 6.93354 20 7.68393 20C8.43433 20 9.17738 19.8522 9.87066 19.565C10.5639 19.2778 11.1939 18.8569 11.7244 18.3263L16.6985 13.3523C17.1004 12.9508 17.3265 12.4062 17.327 11.8381V10.7238L11.7244 16.3264C11.6259 16.425 11.5245 16.5193 11.4216 16.6078L10.7145 17.3164C10.3165 17.7144 9.84408 18.0301 9.32409 18.2455C8.8041 18.4609 8.24678 18.5718 7.68393 18.5718C7.12109 18.5718 6.56376 18.4609 6.04378 18.2455C5.52379 18.0301 5.05133 17.7144 4.65337 17.3164L3.94055 16.6035C3.83832 16.5146 3.73921 16.4222 3.64342 16.3264L0.837845 13.5208C0.547895 13.2316 0.323759 12.8832 0.180735 12.4994Z" fill="#3845B3"/>
</svg>
