<svg width="13" height="11" viewBox="0 0 13 11" fill="none" xmlns="http://www.w3.org/2000/svg">
<path d="M12.8115 1.04696C12.8115 0.944837 12.7711 0.84697 12.6988 0.774855C12.6267 0.702741 12.5288 0.662304 12.4268 0.662304H7.81153C7.59918 0.662304 7.42688 0.834478 7.42688 1.04696C7.42688 1.25931 7.59918 1.43148 7.81153 1.43148H12.4268C12.5288 1.43161 12.6267 1.39104 12.6988 1.31893C12.7711 1.24681 12.8115 1.14895 12.8115 1.04695V1.04696ZM12.8115 3.35461C12.8115 3.25249 12.7711 3.15463 12.6988 3.08251C12.6267 3.0104 12.5288 2.96996 12.4268 2.96996H7.81153C7.59918 2.96996 7.42688 3.14214 7.42688 3.35461C7.42688 3.56697 7.59918 3.73914 7.81153 3.73914H12.4268C12.5288 3.73927 12.6267 3.6987 12.6988 3.62659C12.7711 3.55447 12.8115 3.4566 12.8115 3.35461V3.35461ZM12.8115 5.66227C12.8115 5.56015 12.7711 5.46228 12.6988 5.39017C12.6267 5.31806 12.5288 5.27762 12.4268 5.27762H7.81153C7.59918 5.27762 7.42688 5.44979 7.42688 5.66227C7.42688 5.87462 7.59918 6.04679 7.81153 6.04679H12.4268C12.5288 6.04692 12.6267 6.00636 12.6988 5.93424C12.7711 5.86213 12.8115 5.76426 12.8115 5.66227V5.66227ZM12.8115 7.96993C12.8115 7.86781 12.7711 7.76994 12.6988 7.69783C12.6267 7.62571 12.5288 7.58528 12.4268 7.58528H0.88856C0.676209 7.58528 0.503906 7.75745 0.503906 7.96993C0.503906 8.18228 0.676209 8.35445 0.88856 8.35445H12.4268C12.5288 8.35458 12.6267 8.31401 12.6988 8.2419C12.7711 8.16979 12.8115 8.07192 12.8115 7.96993V7.96993ZM12.8115 10.2776C12.8115 10.1755 12.7711 10.0776 12.6988 10.0055C12.6267 9.93337 12.5288 9.89293 12.4268 9.89293H0.88856C0.676209 9.89293 0.503906 10.0651 0.503906 10.2776C0.503906 10.4899 0.676209 10.6621 0.88856 10.6621H12.4268C12.5288 10.6622 12.6267 10.6217 12.6988 10.5496C12.7711 10.4774 12.8115 10.3796 12.8115 10.2776V10.2776ZM5.11909 6.04666H1.27321C1.0691 6.04666 0.873494 5.96566 0.729265 5.82143C0.585037 5.67721 0.50391 5.48148 0.50391 5.27749V1.43128C0.50391 1.2273 0.585037 1.03169 0.729265 0.887466C0.873494 0.743108 1.06912 0.662109 1.27321 0.662109H5.11942H5.11929C5.3234 0.662109 5.51901 0.743108 5.66324 0.887466C5.80747 1.03169 5.88859 1.22732 5.88859 1.43128V5.27749C5.88859 5.48147 5.80747 5.67721 5.66324 5.82143C5.51901 5.96566 5.32339 6.04666 5.11929 6.04666H5.11909Z" fill="#818181"/>
</svg>
