<svg width="16" height="13" viewBox="0 0 16 13" fill="none" xmlns="http://www.w3.org/2000/svg">
<path id="Vector" d="M15.9999 0.500303C15.9999 0.367546 15.9473 0.240318 15.8534 0.14657C15.7596 0.0528212 15.6324 0.000253074 15.4998 0.000253074H9.49991C9.22386 0.000253074 8.99986 0.22408 8.99986 0.500303C8.99986 0.776358 9.22386 1.00018 9.49991 1.00018H15.4998C15.6324 1.00035 15.7596 0.947613 15.8534 0.853865C15.9473 0.760116 15.9999 0.632888 15.9999 0.500299V0.500303ZM15.9999 3.50026C15.9999 3.3675 15.9473 3.24027 15.8534 3.14652C15.7596 3.05278 15.6324 3.00021 15.4998 3.00021H9.49991C9.22386 3.00021 8.99986 3.22403 8.99986 3.50026C8.99986 3.77631 9.22386 4.00014 9.49991 4.00014H15.4998C15.6324 4.0003 15.7596 3.94757 15.8534 3.85382C15.9473 3.76007 15.9999 3.63284 15.9999 3.50025V3.50026ZM15.9999 6.50021C15.9999 6.36746 15.9473 6.24023 15.8534 6.14648C15.7596 6.05273 15.6324 6.00016 15.4998 6.00016H9.49991C9.22386 6.00016 8.99986 6.22399 8.99986 6.50021C8.99986 6.77627 9.22386 7.00009 9.49991 7.00009H15.4998C15.6324 7.00026 15.7596 6.94752 15.8534 6.85377C15.9473 6.76003 15.9999 6.6328 15.9999 6.50021V6.50021ZM15.9999 9.50017C15.9999 9.36741 15.9473 9.24018 15.8534 9.14643C15.7596 9.05269 15.6324 9.00012 15.4998 9.00012H0.50005C0.223994 9.00012 0 9.22394 0 9.50017C0 9.77622 0.223994 10 0.50005 10H15.4998C15.6324 10.0002 15.7596 9.94748 15.8534 9.85373C15.9473 9.75998 15.9999 9.63275 15.9999 9.50016V9.50017ZM15.9999 12.5001C15.9999 12.3674 15.9473 12.2401 15.8534 12.1464C15.7596 12.0526 15.6324 12.0001 15.4998 12.0001H0.50005C0.223994 12.0001 0 12.2239 0 12.5001C0 12.7762 0.223994 13 0.50005 13H15.4998C15.6324 13.0002 15.7596 12.9474 15.8534 12.8537C15.9473 12.7599 15.9999 12.6327 15.9999 12.5001V12.5001ZM5.99974 6.99992H1.0001C0.734757 6.99992 0.480464 6.89462 0.292967 6.70712C0.10547 6.51963 4.57757e-06 6.26519 4.57757e-06 5.99999V0.999924C4.57757e-06 0.734749 0.10547 0.48046 0.292967 0.292963C0.480464 0.105299 0.734775 0 1.0001 0H6.00017H6C6.26534 0 6.51963 0.105299 6.70713 0.292963C6.89463 0.48046 7.00009 0.734771 7.00009 0.999924V5.99999C7.00009 6.26516 6.89463 6.51963 6.70713 6.70712C6.51963 6.89462 6.26532 6.99992 6 6.99992H5.99974Z" fill="#2F3990"/>
</svg>
