<svg width="15" height="14" viewBox="0 0 15 14" fill="none" xmlns="http://www.w3.org/2000/svg">
<path d="M11.6892 -0.000488281H3.99075C2.25062 -0.000488281 0.839966 1.41017 0.839966 3.1503V10.8487C0.839966 12.5889 2.25062 13.9995 3.99075 13.9995H11.6892C13.4293 13.9995 14.84 12.5889 14.84 10.8487V3.1503C14.84 1.41017 13.4293 -0.000488281 11.6892 -0.000488281Z" fill="#1CB303"/>
<path d="M11.8336 4.62476C11.7839 4.77321 11.6955 4.90575 11.5776 5.00876C9.44361 7.14576 9.46161 7.12775 7.33061 9.26575C7.24033 9.3722 7.11657 9.44485 6.97961 9.47177C6.88771 9.48528 6.79389 9.47571 6.70661 9.44394C6.61933 9.41217 6.54132 9.35919 6.47961 9.28976C5.56861 8.37276 5.40961 8.21477 4.49661 7.29877C4.32861 7.13077 4.15861 6.96376 3.99661 6.79276C3.92588 6.72206 3.87639 6.63296 3.85374 6.53555C3.8311 6.43815 3.8362 6.33635 3.86848 6.2417C3.90076 6.14705 3.95892 6.06336 4.03636 6.00009C4.1138 5.93682 4.20742 5.89651 4.30661 5.88376C4.38958 5.87169 4.47424 5.87994 4.55332 5.90781C4.6324 5.93568 4.70353 5.98234 4.76061 6.04376C4.91961 6.20076 5.07761 6.35977 5.23561 6.51877L6.80561 8.09375C6.83114 8.12504 6.8539 8.1585 6.87361 8.19376L6.92561 8.20676C6.94536 8.16508 6.96986 8.12582 6.99861 8.08975L10.8746 4.19977C10.9298 4.13486 10.999 4.08317 11.0769 4.04855C11.1547 4.01394 11.2394 3.99726 11.3246 3.99976C11.4322 4.00285 11.5363 4.03908 11.6226 4.10352C11.7088 4.16795 11.7731 4.25745 11.8066 4.35977C11.8166 4.38577 11.8266 4.41275 11.8366 4.43875L11.8336 4.62476Z" fill="white"/>
</svg>
