<svg width="37" height="37" viewBox="0 0 37 37" fill="none" xmlns="http://www.w3.org/2000/svg">
<path d="M18.5 36.5C28.4411 36.5 36.5 28.4411 36.5 18.5C36.5 8.55887 28.4411 0.5 18.5 0.5C8.55887 0.5 0.5 8.55887 0.5 18.5C0.5 28.4411 8.55887 36.5 18.5 36.5Z" fill="white" stroke="#DFE1E6"/>
<path d="M14.2632 12.8421C13.8684 12.8421 13.5331 12.9804 13.2571 13.2571C12.9804 13.5331 12.8421 13.8684 12.8421 14.2632C12.8421 14.6579 12.9804 14.9933 13.2571 15.2693C13.5331 15.5459 13.8684 15.6842 14.2632 15.6842C14.6579 15.6842 14.9933 15.5459 15.2693 15.2693C15.5459 14.9933 15.6842 14.6579 15.6842 14.2632C15.6842 13.8684 15.5459 13.5331 15.2693 13.2571C14.9933 12.9804 14.6579 12.8421 14.2632 12.8421ZM14.2632 22.3158C13.8684 22.3158 13.5331 22.4541 13.2571 22.7307C12.9804 23.0067 12.8421 23.3421 12.8421 23.7368C12.8421 24.1316 12.9804 24.4669 13.2571 24.7429C13.5331 25.0196 13.8684 25.1579 14.2632 25.1579C14.6579 25.1579 14.9933 25.0196 15.2693 24.7429C15.5459 24.4669 15.6842 24.1316 15.6842 23.7368C15.6842 23.3421 15.5459 23.0067 15.2693 22.7307C14.9933 22.4541 14.6579 22.3158 14.2632 22.3158ZM10.9474 10H26.1053C26.3737 10 26.5985 10.0906 26.7798 10.2719C26.9617 10.4538 27.0526 10.6789 27.0526 10.9474V17.5789C27.0526 17.8474 26.9617 18.0722 26.7798 18.2535C26.5985 18.4354 26.3737 18.5263 26.1053 18.5263H10.9474C10.6789 18.5263 10.4541 18.4354 10.2728 18.2535C10.0909 18.0722 10 17.8474 10 17.5789V10.9474C10 10.6789 10.0909 10.4538 10.2728 10.2719C10.4541 10.0906 10.6789 10 10.9474 10ZM11.8947 11.8947V16.6316H25.1579V11.8947H11.8947ZM10.9474 19.4737H26.1053C26.3737 19.4737 26.5985 19.5643 26.7798 19.7456C26.9617 19.9275 27.0526 20.1526 27.0526 20.4211V27.0526C27.0526 27.3211 26.9617 27.5459 26.7798 27.7272C26.5985 27.9091 26.3737 28 26.1053 28H10.9474C10.6789 28 10.4541 27.9091 10.2728 27.7272C10.0909 27.5459 10 27.3211 10 27.0526V20.4211C10 20.1526 10.0909 19.9275 10.2728 19.7456C10.4541 19.5643 10.6789 19.4737 10.9474 19.4737ZM11.8947 21.3684V26.1053H25.1579V21.3684H11.8947Z" fill="#818181"/>
</svg>
