<svg width="33" height="33" viewBox="0 0 33 33" fill="none" xmlns="http://www.w3.org/2000/svg">
<g id="Open in New">
<path id="Rectangle 1292" d="M5.55093 0.5H27.4491C28.4568 0.5 29.7203 1.13882 30.7515 2.26996C31.7716 3.38877 32.5 4.9228 32.5 6.6V26.4C32.5 28.0772 31.7716 29.6112 30.7515 30.73C29.7203 31.8612 28.4568 32.5 27.4491 32.5H5.55093C4.54318 32.5 3.2797 31.8612 2.24845 30.73C1.22843 29.6112 0.5 28.0772 0.5 26.4V6.6C0.5 4.9228 1.22843 3.38877 2.24845 2.26996C3.2797 1.13882 4.54318 0.5 5.55093 0.5Z" stroke="#818181"/>
<g id="Group 40098">
<path id="Vector" d="M16.0292 8.9L16.1298 8.89942V9V10.3367V10.4367H16.0298H9.41195V12.4462C9.41195 13.29 9.41233 14.1339 9.41272 14.9778C9.41398 17.7505 9.41524 20.5233 9.40287 23.2955C9.40289 23.5042 9.43396 23.6001 9.48444 23.6504C9.53495 23.7008 9.63086 23.7315 9.8392 23.731C13.9757 23.7155 18.1122 23.7155 22.2487 23.731L22.2483 23.831M16.0292 8.9L9.50564 8.90303L9.50554 8.90303C8.99602 8.90355 8.58726 9.04363 8.30619 9.32649C8.0252 9.60928 7.88633 10.0202 7.88633 10.5324V10.5581V10.5837V10.6093V10.635V10.6606V10.6863V10.7119V10.7375V10.7632V10.7888V10.8145V10.8401V10.8657V10.8914V10.917V10.9426V10.9683V10.9939V11.0196V11.0452V11.0708V11.0965V11.1221V11.1477V11.1734V11.199V11.2247V11.2503V11.2759V11.3016V11.3272V11.3528V11.3785V11.4041V11.4298V11.4554V11.481V11.5067V11.5323V11.5579V11.5836V11.6092V11.6349V11.6605V11.6861V11.7118V11.7374V11.763V11.7887V11.8143V11.8399V11.8656V11.8912V11.9169V11.9425V11.9681V11.9938V12.0194V12.045V12.0707V12.0963V12.1219V12.1476V12.1732V12.1989V12.2245V12.2501V12.2758V12.3014V12.327V12.3527V12.3783V12.4039V12.4296V12.4552V12.4808V12.5065V12.5321V12.5577V12.5834V12.609V12.6347V12.6603V12.6859V12.7116V12.7372V12.7628V12.7885V12.8141V12.8397V12.8654V12.891V12.9166V12.9423V12.9679V12.9935V13.0192V13.0448V13.0704V13.0961V13.1217V13.1473V13.173V13.1986V13.2242V13.2499V13.2755V13.3011V13.3268V13.3524V13.378V13.4037V13.4293V13.4549V13.4806V13.5062V13.5318V13.5575V13.5831V13.6087V13.6344V13.66V13.6856V13.7113V13.7369V13.7625V13.7882V13.8138V13.8394V13.8651V13.8907V13.9163V13.942V13.9676V13.9932V14.0189V14.0445V14.0701V14.0958V14.1214V14.147V14.1727V14.1983V14.2239V14.2496V14.2752V14.3008V14.3265V14.3521V14.3777V14.4034V14.429V14.4546V14.4803V14.5059V14.5315V14.5571V14.5828V14.6084V14.634V14.6597V14.6853V14.7109V14.7366V14.7622V14.7878V14.8135V14.8391V14.8647V14.8904V14.916V14.9416V14.9672V14.9929V15.0185V15.0441V15.0698V15.0954V15.121V15.1467V15.1723V15.1979V15.2236V15.2492V15.2748V15.3004V15.3261V15.3517V15.3773V15.403V15.4286V15.4542V15.4799V15.5055V15.5311V15.5567V15.5824V15.608V15.6336V15.6593V15.6849V15.7105V15.7361V15.7618V15.7874V15.813V15.8387V15.8643V15.8899V15.9156V15.9412V15.9668V15.9924V16.0181V16.0437V16.0693V16.095V16.1206V16.1462V16.1718V16.1975V16.2231V16.2487V16.2744V16.3V16.3256V16.3512V16.3769V16.4025V16.4281V16.4538V16.4794V16.505V16.5306V16.5563V16.5819V16.6075V16.6331V16.6588V16.6844V16.71V16.7357V16.7613V16.7869V16.8125V16.8382V16.8638V16.8894V16.9151V16.9407V16.9663V16.9919V17.0176V17.0432V17.0688V17.0944V17.1201V17.1457V17.1713V17.1969V17.2226V17.2482V17.2738V17.2995V17.3251V17.3507V17.3763V17.402V17.4276V17.4532V17.4788V17.5045V17.5301V17.5557V17.5813V17.607V17.6326V17.6582V17.6838V17.7095V17.7351V17.7607V17.7864V17.812V17.8376V17.8632V17.8889V17.9145V17.9401V17.9657V17.9914V18.017V18.0426V18.0682V18.0939V18.1195V18.1451V18.1707V18.1964V18.222V18.2476V18.2732V18.2989V18.3245V18.3501V18.3757V18.4014V18.427V18.4526V18.4782V18.5039V18.5295V18.5551V18.5807V18.6063V18.632V18.6576V18.6832V18.7088V18.7345V18.7601V18.7857V18.8113V18.837V18.8626V18.8882V18.9138V18.9395V18.9651V18.9907V19.0163V19.042V19.0676V19.0932V19.1188V19.1444V19.1701V19.1957V19.2213V19.2469V19.2726V19.2982V19.3238V19.3494V19.3751V19.4007V19.4263V19.4519V19.4775V19.5032V19.5288V19.5544V19.58V19.6057V19.6313V19.6569V19.6825V19.7081V19.7338V19.7594V19.785V19.8106V19.8363V19.8619V19.8875V19.9131V19.9387V19.9644V19.99V20.0156V20.0412V20.0669V20.0925V20.1181V20.1437V20.1693V20.195V20.2206V20.2462V20.2718V20.2974V20.3231V20.3487V20.3743V20.3999V20.4256V20.4512V20.4768V20.5024V20.528V20.5537V20.5793V20.6049V20.6305V20.6561V20.6818V20.7074V20.733V20.7586V20.7842V20.8099V20.8355V20.8611V20.8867V20.9123V20.938V20.9636V20.9892V21.0148V21.0404V21.0661V21.0917V21.1173V21.1429V21.1685V21.1942V21.2198V21.2454V21.271V21.2966V21.3223V21.3479V21.3735V21.3991V21.4247V21.4504V21.476V21.5016V21.5272V21.5528V21.5784V21.6041V21.6297V21.6553V21.6809V21.7065V21.7322V21.7578V21.7834V21.809V21.8346V21.8603V21.8859V21.9115V21.9371V21.9627V21.9883V22.014V22.0396V22.0652V22.0908V22.1164V22.142V22.1677V22.1933V22.2189V22.2445V22.2701V22.2958V22.3214V22.347V22.3726V22.3982V22.4238V22.4495V22.4751V22.5007V22.5263V22.5519V22.5775V22.6032V22.6288V22.6544V22.68V22.7056V22.7312V22.7569V22.7825V22.8081V22.8337V22.8593V22.8849V22.9106V22.9362V22.9618V22.9874V23.013V23.0386V23.0643V23.0899V23.1155V23.1411V23.1667V23.1923V23.218V23.2436V23.2692V23.2948V23.3204V23.346V23.3717V23.3973V23.4229V23.4485V23.4741V23.4997V23.5253V23.551V23.5766V23.6022V23.6278V23.6534C7.88633 24.1488 8.02767 24.5514 8.30628 24.8302C8.58489 25.1089 8.98753 25.2505 9.48345 25.2505H9.50917H9.53489H9.5606H9.58632H9.61204H9.63776H9.66347H9.68919H9.71491H9.74063H9.76634H9.79206H9.81778H9.8435H9.86921H9.89493H9.92065H9.94637H9.97208H9.9978H10.0235H10.0492H10.075H10.1007H10.1264H10.1521H10.1778H10.2035H10.2293H10.255H10.2807H10.3064H10.3321H10.3578H10.3836H10.4093H10.435H10.4607H10.4864H10.5121H10.5379H10.5636H10.5893H10.615H10.6407H10.6665H10.6922H10.7179H10.7436H10.7693H10.795H10.8208H10.8465H10.8722H10.8979H10.9236H10.9493H10.9751H11.0008H11.0265H11.0522H11.0779H11.1036H11.1294H11.1551H11.1808H11.2065H11.2322H11.2579H11.2837H11.3094H11.3351H11.3608H11.3865H11.4122H11.438H11.4637H11.4894H11.5151H11.5408H11.5666H11.5923H11.618H11.6437H11.6694H11.6951H11.7209H11.7466H11.7723H11.798H11.8237H11.8494H11.8752H11.9009H11.9266H11.9523H11.978H12.0037H12.0295H12.0552H12.0809H12.1066H12.1323H12.158H12.1838H12.2095H12.2352H12.2609H12.2866H12.3123H12.3381H12.3638H12.3895H12.4152H12.4409H12.4666H12.4924H12.5181H12.5438H12.5695H12.5952H12.6209H12.6467H12.6724H12.6981H12.7238H12.7495H12.7752H12.801H12.8267H12.8524H12.8781H12.9038H12.9295H12.9553H12.981H13.0067H13.0324H13.0581H13.0838H13.1096H13.1353H13.161H13.1867H13.2124H13.2381H13.2639H13.2896H13.3153H13.341H13.3667H13.3924H13.4182H13.4439H13.4696H13.4953H13.521H13.5467H13.5724H13.5982H13.6239H13.6496H13.6753H13.701H13.7267H13.7525H13.7782H13.8039H13.8296H13.8553H13.881H13.9068H13.9325H13.9582H13.9839H14.0096H14.0353H14.0611H14.0868H14.1125H14.1382H14.1639H14.1896H14.2154H14.2411H14.2668H14.2925H14.3182H14.3439H14.3697H14.3954H14.4211H14.4468H14.4725H14.4982H14.5239H14.5497H14.5754H14.6011H14.6268H14.6525H14.6782H14.704H14.7297H14.7554H14.7811H14.8068H14.8325H14.8583H14.884H14.9097H14.9354H14.9611H14.9868H15.0126H15.0383H15.064H15.0897H15.1154H15.1411H15.1668H15.1926H15.2183H15.244H15.2697H15.2954H15.3211H15.3469H15.3726H15.3983H15.424H15.4497H15.4754H15.5012H15.5269H15.5526H15.5783H15.604H15.6297H15.6554H15.6812H15.7069H15.7326H15.7583H15.784H15.8097H15.8355H15.8612H15.8869H15.9126H15.9383H15.964H15.9898H16.0155H16.0412H16.0669H16.0926H16.1183H16.144H16.1698H16.1955H16.2212H16.2469H16.2726H16.2983H16.3241H16.3498H16.3755H16.4012H16.4269H16.4526H16.4783H16.5041H16.5298H16.5555H16.5812H16.6069H16.6326H16.6584H16.6841H16.7098H16.7355H16.7612H16.7869H16.8126H16.8384H16.8641H16.8898H16.9155H16.9412H16.9669H16.9927H17.0184H17.0441H17.0698H17.0955H17.1212H17.1469H17.1727H17.1984H17.2241H17.2498H17.2755H17.3012H17.327H17.3527H17.3784H17.4041H17.4298H17.4555H17.4812H17.507H17.5327H17.5584H17.5841H17.6098H17.6355H17.6613H17.687H17.7127H17.7384H17.7641H17.7898H17.8155H17.8413H17.867H17.8927H17.9184H17.9441H17.9698H17.9955H18.0213H18.047H18.0727H18.0984H18.1241H18.1498H18.1756H18.2013H18.227H18.2527H18.2784H18.3041H18.3298H18.3556H18.3813H18.407H18.4327H18.4584H18.4841H18.5098H18.5356H18.5613H18.587H18.6127H18.6384H18.6641H18.6898H18.7156H18.7413H18.767H18.7927H18.8184H18.8441H18.8699H18.8956H18.9213H18.947H18.9727H18.9984H19.0241H19.0499H19.0756H19.1013H19.127H19.1527H19.1784H19.2041H19.2299H19.2556H19.2813H19.307H19.3327H19.3584H19.3841H19.4099H19.4356H19.4613H19.487H19.5127H19.5384H19.5641H19.5899H19.6156H19.6413H19.667H19.6927H19.7184H19.7442H19.7699H19.7956H19.8213H19.847H19.8727H19.8984H19.9242H19.9499H19.9756H20.0013H20.027H20.0527H20.0784H20.1042H20.1299H20.1556H20.1813H20.207H20.2327H20.2584H20.2842H20.3099H20.3356H20.3613H20.387H20.4127H20.4384H20.4642H20.4899H20.5156H20.5413H20.567H20.5927H20.6184H20.6442H20.6699H20.6956H20.7213H20.747H20.7727H20.7984H20.8242H20.8499H20.8756H20.9013H20.927H20.9527H20.9784H21.0042H21.0299H21.0556H21.0813H21.107H21.1327H21.1584H21.1842H21.2099H21.2356H21.2613H21.287H21.3127H21.3384H21.3641H21.3899H21.4156H21.4413H21.467H21.4927H21.5184H21.5441H21.5699H21.5956H21.6213H21.647H21.6727H21.6984H21.7241H21.7499H21.7756H21.8013H21.827H21.8527H21.8784H21.9041H21.9299H21.9556H21.9813H22.007H22.0327H22.0584H22.0841H22.1099H22.1356H22.1613H22.187H22.2127H22.2384H22.2641H22.2898H22.3156H22.3413H22.367H22.3927H22.4184H22.4441H22.4698H22.4956H22.5213H22.547H22.5727H22.5984H22.6241H22.6498C23.1316 25.2505 23.5288 25.1074 23.8057 24.8329C24.0828 24.5583 24.2278 24.1639 24.2278 23.6847V23.6728V23.6608V23.6489V23.637V23.6251V23.6131V23.6012V23.5893V23.5774V23.5654V23.5535V23.5416V23.5297V23.5177V23.5058V23.4939V23.482V23.47V23.4581V23.4462V23.4343V23.4223V23.4104V23.3985V23.3866V23.3746V23.3627V23.3508V23.3389V23.3269V23.315V23.3031V23.2912V23.2792V23.2673V23.2554V23.2435V23.2315V23.2196V23.2077V23.1958V23.1838V23.1719V23.16V23.1481V23.1361V23.1242V23.1123V23.1004V23.0884V23.0765V23.0646V23.0527V23.0407V23.0288V23.0169V23.005V22.993V22.9811V22.9692V22.9573V22.9453V22.9334V22.9215V22.9096V22.8976V22.8857V22.8738V22.8619V22.8499V22.838V22.8261V22.8142V22.8022V22.7903V22.7784V22.7665V22.7545V22.7426V22.7307V22.7188V22.7068V22.6949V22.683V22.6711V22.6591V22.6472V22.6353V22.6234V22.6114V22.5995V22.5876V22.5757V22.5637V22.5518V22.5399V22.528V22.516V22.5041V22.4922V22.4803V22.4683V22.4564V22.4445V22.4325V22.4206V22.4087V22.3968V22.3848V22.3729V22.361V22.3491V22.3371V22.3252V22.3133V22.3014V22.2894V22.2775V22.2656V22.2537V22.2417V22.2298V22.2179V22.206V22.194V22.1821V22.1702V22.1583V22.1463V22.1344V22.1225V22.1106V22.0986V22.0867V22.0748V22.0628V22.0509V22.039V22.0271V22.0151V22.0032V21.9913V21.9794V21.9674V21.9555V21.9436V21.9317V21.9197V21.9078V21.8959V21.884V21.872V21.8601V21.8482V21.8363V21.8243V21.8124V21.8005V21.7886V21.7766V21.7647V21.7528V21.7408V21.7289V21.717V21.7051V21.6931V21.6812V21.6693V21.6574V21.6454V21.6335V21.6216V21.6097V21.5977V21.5858V21.5739V21.562V21.55V21.5381V21.5262V21.5143V21.5023V21.4904V21.4785V21.4665V21.4546V21.4427V21.4308V21.4188V21.4069V21.395V21.3831V21.3711V21.3592V21.3473V21.3354V21.3234V21.3115V21.2996V21.2877V21.2757V21.2638V21.2519V21.2399V21.228V21.2161V21.2042V21.1922V21.1803V21.1684V21.1565V21.1445V21.1326V21.1207V21.1088V21.0968V21.0849V21.073V21.061V21.0491V21.0372V21.0253V21.0133V21.0014V20.9895V20.9776V20.9656V20.9537V20.9418V20.9299V20.9179V20.906V20.8941V20.8822V20.8702V20.8583V20.8464V20.8344V20.8225V20.8106V20.7987V20.7867V20.7748V20.7629V20.751V20.739V20.7271V20.7152V20.7033V20.6913V20.6794V20.6675V20.6555V20.6436V20.6317V20.6198V20.6078V20.5959V20.584V20.5721V20.5601V20.5482V20.5363V20.5243V20.5124V20.5005V20.4886V20.4766V20.4647V20.4528V20.4409V20.4289V20.417V20.4051V20.3932V20.3812V20.3693V20.3574V20.3454V20.3335V20.3216V20.3097V20.2977V20.2858V20.2739V20.262V20.25V20.2381V20.2262V20.2142V20.2023V20.1904V20.1785V20.1665V20.1546V20.1427V20.1308V20.1188V20.1069V20.095V20.083V20.0711V20.0592V20.0473V20.0353V20.0234V20.0115V19.9996V19.9876V19.9757V19.9638V19.9519V19.9399V19.928V19.9161V19.9041V19.8922V19.8803V19.8684V19.8564V19.8445V19.8326V19.8207V19.8087V19.7968V19.7849V19.7729V19.761V19.7491V19.7372V19.7252V19.7133V19.7014V19.6894V19.6775V19.6656V19.6537V19.6417V19.6298V19.6179V19.606V19.594V19.5821V19.5702V19.5582V19.5463V19.5344V19.5225V19.5105V19.4986V19.4867V19.4748V19.4628V19.4509V19.439V19.427V19.4151V19.4032V19.3913V19.3793V19.3674V19.3555V19.3436V19.3316V19.3197V19.3078V19.2958V19.2839V19.272V19.2601V19.2481V19.2362V19.2243V19.2123V19.2004V19.1885V19.1766V19.1646V19.1527V19.1408V19.1289V19.1169V19.105V19.0931V19.0811V19.0692V19.0573V19.0454V19.0334V19.0215V19.0096V18.9976V18.9857V18.9738V18.9619V18.9499V18.938V18.9261V18.9142V18.9022V18.8903V18.8784V18.8664V18.8545V18.8426V18.8307V18.8187V18.8068V18.7949V18.7829V18.771V18.7591V18.7472V18.7352V18.7233V18.7114V18.6994V18.6875V18.6756V18.6637V18.6517V18.6398V18.6279V18.616V18.604V18.5921V18.5802V18.5682V18.5563V18.5444V18.5325V18.5205V18.5086V18.4967V18.4847V18.4728V18.4609V18.449V18.437V18.4251V18.4132V18.4012V18.3893V18.3774V18.3655V18.3535V18.3416V18.3297V18.3177V18.3058V18.2939V18.282V18.27V18.2581V18.2462V18.2343V18.2223V18.2104V18.1985V18.1865V18.1746V18.1627V18.1508V18.1388V18.1269V18.115V18.103V18.0911V18.0792V18.0673V18.0553V18.0434V18.0315V18.0195V18.0076V17.9957V17.9838V17.9718V17.9599V17.948V17.936V17.9241V17.9122V17.9003V17.8883V17.8764V17.8645V17.8525V17.8406V17.8287V17.8168V17.8048V17.7929V17.781V17.769V17.7571V17.7452V17.7333V17.7213V17.7094V17.6975V17.6855V17.6736V17.6617V17.6498V17.6378V17.6259V17.614V17.602V17.5901V17.5782V17.1181V17.0181H24.1278H22.7961H22.6961V17.1181C22.6961 17.6704 22.6952 18.22 22.6943 18.7675C22.6917 20.2766 22.6892 21.7705 22.7062 23.2641C22.7087 23.4837 22.6798 23.5871 22.6268 23.6424C22.5747 23.6968 22.4735 23.731 22.2483 23.731V23.831M16.0292 8.9L16.0298 9M16.0292 8.9L16.0298 9M22.2483 23.831C22.7013 23.831 22.8113 23.7018 22.8062 23.263C22.7892 21.7702 22.7917 20.2774 22.7943 18.7686V18.7685V18.7683C22.7952 18.2206 22.7961 17.6708 22.7961 17.1181L9.83957 23.831C13.9758 23.8155 18.1121 23.8155 22.2483 23.831ZM16.0298 9H15.9298V9.00058M16.0298 9L15.9298 9.00058M15.9298 9.00058L15.5083 9.00303L15.9298 9.00058ZM17.0891 17.1313L17.0162 17.1997L17.0869 17.275L17.1599 17.2019L17.0891 17.1313ZM17.0891 17.1313L22.7971 11.4131M17.0891 17.1313L22.7971 11.4131M22.7971 11.4131V14.3418M22.7971 11.4131L20.1298 9H23.358C23.7929 9 24.1117 9.1937 24.1187 9.6275C24.1377 10.7549 24.1345 11.8823 24.1313 13.0231V13.0233V13.0235V13.0237C24.13 13.4609 24.1288 13.9 24.1288 14.3418M22.7971 14.3418H22.6971V14.4418H22.7971V14.3418ZM22.7971 14.3418H24.1288M24.1288 14.3418V14.4418H24.2288V14.3418H24.1288ZM15.4965 8.90303H15.508H15.5083H15.4965ZM15.4965 8.90303H15.4848M15.4965 8.90303H15.4848M15.4848 8.90303H15.4731M15.4848 8.90303H15.4731M15.4731 8.90303H15.4614M15.4731 8.90303H15.4614M15.4614 8.90303H15.4496M15.4614 8.90303H15.4496M15.4496 8.90303H15.4379M15.4496 8.90303H15.4379M15.4379 8.90303H15.4262M15.4379 8.90303H15.4262M15.4262 8.90303H15.4145M15.4262 8.90303H15.4145M15.4145 8.90303H15.4027M15.4145 8.90303H15.4027M15.4027 8.90303H15.391M15.4027 8.90303H15.391M15.391 8.90303H15.3793M15.391 8.90303H15.3793M15.3793 8.90303H15.3676M15.3793 8.90303H15.3676M15.3676 8.90303H15.3558M15.3676 8.90303H15.3558M15.3558 8.90303H15.3441M15.3558 8.90303H15.3441M15.3441 8.90303H15.3324M15.3441 8.90303H15.3324M15.3324 8.90303H15.3207M15.3324 8.90303H15.3207M15.3207 8.90303H15.3089M15.3207 8.90303H15.3089M15.3089 8.90303H15.2972M15.3089 8.90303H15.2972M15.2972 8.90303H15.2855M15.2972 8.90303H15.2855M15.2855 8.90303H15.2738M15.2855 8.90303H15.2738M15.2738 8.90303H15.262M15.2738 8.90303H15.262M15.262 8.90303H15.2503M15.262 8.90303H15.2503M15.2503 8.90303H15.2386M15.2503 8.90303H15.2386M15.2386 8.90303H15.2269M15.2386 8.90303H15.2269M15.2269 8.90303H15.2152M15.2269 8.90303H15.2152M15.2152 8.90303H15.2034M15.2152 8.90303H15.2034M15.2034 8.90303H15.1917M15.2034 8.90303H15.1917M15.1917 8.90303H15.18M15.1917 8.90303H15.18M15.18 8.90303H15.1683M15.18 8.90303H15.1683M15.1683 8.90303H15.1565M15.1683 8.90303H15.1565M15.1565 8.90303H15.1448M15.1565 8.90303H15.1448M15.1448 8.90303H15.1331M15.1448 8.90303H15.1331M15.1331 8.90303H15.1214M15.1331 8.90303H15.1214M15.1214 8.90303H15.1096M15.1214 8.90303H15.1096M15.1096 8.90303H15.0979M15.1096 8.90303H15.0979M15.0979 8.90303H15.0862M15.0979 8.90303H15.0862M15.0862 8.90303H15.0745M15.0862 8.90303H15.0745M15.0745 8.90303H15.0627M15.0745 8.90303H15.0627M15.0627 8.90303H15.051M15.0627 8.90303H15.051M15.051 8.90303H15.0393M15.051 8.90303H15.0393M15.0393 8.90303H15.0276M15.0393 8.90303H15.0276M15.0276 8.90303H15.0158M15.0276 8.90303H15.0158M15.0158 8.90303H15.0041M15.0158 8.90303H15.0041M15.0041 8.90303H14.9924M15.0041 8.90303H14.9924M14.9924 8.90303H14.9807M14.9924 8.90303H14.9807M14.9807 8.90303H14.969M14.9807 8.90303H14.969M14.969 8.90303H14.9572M14.969 8.90303H14.9572M14.9572 8.90303H14.9455M14.9572 8.90303H14.9455M14.9455 8.90303H14.9338M14.9455 8.90303H14.9338M14.9338 8.90303H14.9221M14.9338 8.90303H14.9221M14.9221 8.90303H14.9103M14.9221 8.90303H14.9103M14.9103 8.90303H14.8986M14.9103 8.90303H14.8986M14.8986 8.90303H14.8869M14.8986 8.90303H14.8869M14.8869 8.90303H14.8752M14.8869 8.90303H14.8752M14.8752 8.90303H14.8634M14.8752 8.90303H14.8634M14.8634 8.90303H14.8517M14.8634 8.90303H14.8517M14.8517 8.90303H14.84M14.8517 8.90303H14.84M14.84 8.90303H14.8283M14.84 8.90303H14.8283M14.8283 8.90303H14.8165M14.8283 8.90303H14.8165M14.8165 8.90303H14.8048M14.8165 8.90303H14.8048M14.8048 8.90303H14.7931M14.8048 8.90303H14.7931M14.7931 8.90303H14.7814M14.7931 8.90303H14.7814M14.7814 8.90303H14.7696M14.7814 8.90303H14.7696M14.7696 8.90303H14.7579M14.7696 8.90303H14.7579M14.7579 8.90303H14.7462M14.7579 8.90303H14.7462M14.7462 8.90303H14.7345M14.7462 8.90303H14.7345M14.7345 8.90303H14.7228M14.7345 8.90303H14.7228M14.7228 8.90303H14.711M14.7228 8.90303H14.711M14.711 8.90303H14.6993M14.711 8.90303H14.6993M14.6993 8.90303H14.6876M14.6993 8.90303H14.6876M14.6876 8.90303H14.6759M14.6876 8.90303H14.6759M14.6759 8.90303H14.6641M14.6759 8.90303H14.6641M14.6641 8.90303H14.6524M14.6641 8.90303H14.6524M14.6524 8.90303H14.6407M14.6524 8.90303H14.6407M14.6407 8.90303H14.629M14.6407 8.90303H14.629M14.629 8.90303H14.6172M14.629 8.90303H14.6172M14.6172 8.90303H14.6055M14.6172 8.90303H14.6055M14.6055 8.90303H14.5938M14.6055 8.90303H14.5938M14.5938 8.90303H14.5821M14.5938 8.90303H14.5821M14.5821 8.90303H14.5703M14.5821 8.90303H14.5703M14.5703 8.90303H14.5586M14.5703 8.90303H14.5586M14.5586 8.90303H14.5469M14.5586 8.90303H14.5469M14.5469 8.90303H14.5352M14.5469 8.90303H14.5352M14.5352 8.90303H14.5234M14.5352 8.90303H14.5234M14.5234 8.90303H14.5117M14.5234 8.90303H14.5117M14.5117 8.90303H14.5M14.5117 8.90303H14.5M14.5 8.90303H14.4883M14.5 8.90303H14.4883M14.4883 8.90303H14.4766M14.4883 8.90303H14.4766M14.4766 8.90303H14.4648M14.4766 8.90303H14.4648M14.4648 8.90303H14.4531M14.4648 8.90303H14.4531M14.4531 8.90303H14.4414M14.4531 8.90303H14.4414M14.4414 8.90303H14.4297M14.4414 8.90303H14.4297M14.4297 8.90303H14.4179M14.4297 8.90303H14.4179M14.4179 8.90303H14.4062M14.4179 8.90303H14.4062M14.4062 8.90303H14.3945M14.4062 8.90303H14.3945M14.3945 8.90303H14.3828M14.3945 8.90303H14.3828M14.3828 8.90303H14.371M14.3828 8.90303H14.371M14.371 8.90303H14.3593M14.371 8.90303H14.3593M14.3593 8.90303H14.3476M14.3593 8.90303H14.3476M14.3476 8.90303H14.3359M14.3476 8.90303H14.3359M14.3359 8.90303H14.3241M14.3359 8.90303H14.3241M14.3241 8.90303H14.3124M14.3241 8.90303H14.3124M14.3124 8.90303H14.3007M14.3124 8.90303H14.3007M14.3007 8.90303H14.289M14.3007 8.90303H14.289M14.289 8.90303H14.2772M14.289 8.90303H14.2772M14.2772 8.90303H14.2655M14.2772 8.90303H14.2655M14.2655 8.90303H14.2538M14.2655 8.90303H14.2538M14.2538 8.90303H14.2421M14.2538 8.90303H14.2421M14.2421 8.90303H14.2304M14.2421 8.90303H14.2304M14.2304 8.90303H14.2186M14.2304 8.90303H14.2186M14.2186 8.90303H14.2069M14.2186 8.90303H14.2069M14.2069 8.90303H14.1952M14.2069 8.90303H14.1952M14.1952 8.90303H14.1835M14.1952 8.90303H14.1835M14.1835 8.90303H14.1717M14.1835 8.90303H14.1717M14.1717 8.90303H14.16M14.1717 8.90303H14.16M14.16 8.90303H14.1483M14.16 8.90303H14.1483M14.1483 8.90303H14.1366M14.1483 8.90303H14.1366M14.1366 8.90303H14.1248M14.1366 8.90303H14.1248M14.1248 8.90303H14.1131M14.1248 8.90303H14.1131M14.1131 8.90303H14.1014M14.1131 8.90303H14.1014M14.1014 8.90303H14.0897M14.1014 8.90303H14.0897M14.0897 8.90303H14.0779M14.0897 8.90303H14.0779M14.0779 8.90303H14.0662M14.0779 8.90303H14.0662M14.0662 8.90303H14.0545M14.0662 8.90303H14.0545M14.0545 8.90303H14.0428M14.0545 8.90303H14.0428M14.0428 8.90303H14.031M14.0428 8.90303H14.031M14.031 8.90303H14.0193M14.031 8.90303H14.0193M14.0193 8.90303H14.0076M14.0193 8.90303H14.0076M14.0076 8.90303H13.9959M14.0076 8.90303H13.9959M13.9959 8.90303H13.9842M13.9959 8.90303H13.9842M13.9842 8.90303H13.9724M13.9842 8.90303H13.9724M13.9724 8.90303H13.9607M13.9724 8.90303H13.9607M13.9607 8.90303H13.949M13.9607 8.90303H13.949M13.949 8.90303H13.9373M13.949 8.90303H13.9373M13.9373 8.90303H13.9255M13.9373 8.90303H13.9255M13.9255 8.90303H13.9138M13.9255 8.90303H13.9138M13.9138 8.90303H13.9021M13.9138 8.90303H13.9021M13.9021 8.90303H13.8904M13.9021 8.90303H13.8904M13.8904 8.90303H13.8786M13.8904 8.90303H13.8786M13.8786 8.90303H13.8669M13.8786 8.90303H13.8669M13.8669 8.90303H13.8552M13.8669 8.90303H13.8552M13.8552 8.90303H13.8435M13.8552 8.90303H13.8435M13.8435 8.90303H13.8317M13.8435 8.90303H13.8317M13.8317 8.90303H13.82M13.8317 8.90303H13.82M13.82 8.90303H13.8083M13.82 8.90303H13.8083M13.8083 8.90303H13.7966M13.8083 8.90303H13.7966M13.7966 8.90303H13.7848M13.7966 8.90303H13.7848M13.7848 8.90303H13.7731M13.7848 8.90303H13.7731M13.7731 8.90303H13.7614M13.7731 8.90303H13.7614M13.7614 8.90303H13.7497M13.7614 8.90303H13.7497M13.7497 8.90303H13.738M13.7497 8.90303H13.738M13.738 8.90303H13.7262M13.738 8.90303H13.7262M13.7262 8.90303H13.7145M13.7262 8.90303H13.7145M13.7145 8.90303H13.7028M13.7145 8.90303H13.7028M13.7028 8.90303H13.6911M13.7028 8.90303H13.6911M13.6911 8.90303H13.6793M13.6911 8.90303H13.6793M13.6793 8.90303H13.6676M13.6793 8.90303H13.6676M13.6676 8.90303H13.6559M13.6676 8.90303H13.6559M13.6559 8.90303H13.6442M13.6559 8.90303H13.6442M13.6442 8.90303H13.6324M13.6442 8.90303H13.6324M13.6324 8.90303H13.6207M13.6324 8.90303H13.6207M13.6207 8.90303H13.609M13.6207 8.90303H13.609M13.609 8.90303H13.5973M13.609 8.90303H13.5973M13.5973 8.90303H13.5855M13.5973 8.90303H13.5855M13.5855 8.90303H13.5738M13.5855 8.90303H13.5738M13.5738 8.90303H13.5621M13.5738 8.90303H13.5621M13.5621 8.90303H13.5504M13.5621 8.90303H13.5504M13.5504 8.90303H13.5386M13.5504 8.90303H13.5386M13.5386 8.90303H13.5269M13.5386 8.90303H13.5269M13.5269 8.90303H13.5152M13.5269 8.90303H13.5152M13.5152 8.90303H13.5035M13.5152 8.90303H13.5035M13.5035 8.90303H13.4917M13.5035 8.90303H13.4917M13.4917 8.90303H13.48M13.4917 8.90303H13.48M13.48 8.90303H13.4683M13.48 8.90303H13.4683M13.4683 8.90303H13.4566M13.4683 8.90303H13.4566M13.4566 8.90303H13.4449M13.4566 8.90303H13.4449M13.4449 8.90303H13.4331M13.4449 8.90303H13.4331M13.4331 8.90303H13.4214M13.4331 8.90303H13.4214M13.4214 8.90303H13.4097M13.4214 8.90303H13.4097M13.4097 8.90303H13.398M13.4097 8.90303H13.398M13.398 8.90303H13.3862M13.398 8.90303H13.3862M13.3862 8.90303H13.3745M13.3862 8.90303H13.3745M13.3745 8.90303H13.3628M13.3745 8.90303H13.3628M13.3628 8.90303H13.3511M13.3628 8.90303H13.3511M13.3511 8.90303H13.3393M13.3511 8.90303H13.3393M13.3393 8.90303H13.3276M13.3393 8.90303H13.3276M13.3276 8.90303H13.3159M13.3276 8.90303H13.3159M13.3159 8.90303H13.3042M13.3159 8.90303H13.3042M13.3042 8.90303H13.2924M13.3042 8.90303H13.2924M13.2924 8.90303H13.2807M13.2924 8.90303H13.2807M13.2807 8.90303H13.269M13.2807 8.90303H13.269M13.269 8.90303H13.2573M13.269 8.90303H13.2573M13.2573 8.90303H13.2455M13.2573 8.90303H13.2455M13.2455 8.90303H13.2338M13.2455 8.90303H13.2338M13.2338 8.90303H13.2221M13.2338 8.90303H13.2221M13.2221 8.90303H13.2104M13.2221 8.90303H13.2104M13.2104 8.90303H13.1987M13.2104 8.90303H13.1987M13.1987 8.90303H13.1869M13.1987 8.90303H13.1869M13.1869 8.90303H13.1752M13.1869 8.90303H13.1752M13.1752 8.90303H13.1635M13.1752 8.90303H13.1635M13.1635 8.90303H13.1518M13.1635 8.90303H13.1518M13.1518 8.90303H13.14M13.1518 8.90303H13.14M13.14 8.90303H13.1283M13.14 8.90303H13.1283M13.1283 8.90303H13.1166M13.1283 8.90303H13.1166M13.1166 8.90303H13.1049M13.1166 8.90303H13.1049M13.1049 8.90303H13.0931M13.1049 8.90303H13.0931M13.0931 8.90303H13.0814M13.0931 8.90303H13.0814M13.0814 8.90303H13.0697M13.0814 8.90303H13.0697M13.0697 8.90303H13.058M13.0697 8.90303H13.058M13.058 8.90303H13.0462M13.058 8.90303H13.0462M13.0462 8.90303H13.0345M13.0462 8.90303H13.0345M13.0345 8.90303H13.0228M13.0345 8.90303H13.0228M13.0228 8.90303H13.0111M13.0228 8.90303H13.0111M13.0111 8.90303H12.9993M13.0111 8.90303H12.9993M12.9993 8.90303H12.9876M12.9993 8.90303H12.9876M12.9876 8.90303H12.9759M12.9876 8.90303H12.9759M12.9759 8.90303H12.9642M12.9759 8.90303H12.9642M12.9642 8.90303H12.9525M12.9642 8.90303H12.9525M12.9525 8.90303H12.9407M12.9525 8.90303H12.9407M12.9407 8.90303H12.929M12.9407 8.90303H12.929M12.929 8.90303H12.9173M12.929 8.90303H12.9173M12.9173 8.90303H12.9056M12.9173 8.90303H12.9056M12.9056 8.90303H12.8938M12.9056 8.90303H12.8938M12.8938 8.90303H12.8821M12.8938 8.90303H12.8821M12.8821 8.90303H12.8704M12.8821 8.90303H12.8704M12.8704 8.90303H12.8587M12.8704 8.90303H12.8587M12.8587 8.90303H12.8469M12.8587 8.90303H12.8469M12.8469 8.90303H12.8352M12.8469 8.90303H12.8352M12.8352 8.90303H12.8235M12.8352 8.90303H12.8235M12.8235 8.90303H12.8118M12.8235 8.90303H12.8118M12.8118 8.90303H12.8M12.8118 8.90303H12.8M12.8 8.90303H12.7883M12.8 8.90303H12.7883M12.7883 8.90303H12.7766M12.7883 8.90303H12.7766M12.7766 8.90303H12.7649M12.7766 8.90303H12.7649M12.7649 8.90303H12.7531M12.7649 8.90303H12.7531M12.7531 8.90303H12.7414M12.7531 8.90303H12.7414M12.7414 8.90303H12.7297M12.7414 8.90303H12.7297M12.7297 8.90303H12.718M12.7297 8.90303H12.718M12.718 8.90303H12.7063M12.718 8.90303H12.7063M12.7063 8.90303H12.6945M12.7063 8.90303H12.6945M12.6945 8.90303H12.6828M12.6945 8.90303H12.6828M12.6828 8.90303H12.6711M12.6828 8.90303H12.6711M12.6711 8.90303H12.6594M12.6711 8.90303H12.6594M12.6594 8.90303H12.6476M12.6594 8.90303H12.6476M12.6476 8.90303H12.6359M12.6476 8.90303H12.6359M12.6359 8.90303H12.6242M12.6359 8.90303H12.6242M12.6242 8.90303H12.6125M12.6242 8.90303H12.6125M12.6125 8.90303H12.6007M12.6125 8.90303H12.6007M12.6007 8.90303H12.589M12.6007 8.90303H12.589M12.589 8.90303H12.5773M12.589 8.90303H12.5773M12.5773 8.90303H12.5656M12.5773 8.90303H12.5656M12.5656 8.90303H12.5538M12.5656 8.90303H12.5538M12.5538 8.90303H12.5421M12.5538 8.90303H12.5421M12.5421 8.90303H12.5304M12.5421 8.90303H12.5304M12.5304 8.90303H12.5187M12.5304 8.90303H12.5187M12.5187 8.90303H12.5069M12.5187 8.90303H12.5069M12.5069 8.90303H12.4952M12.5069 8.90303H12.4952M12.4952 8.90303H12.4835M12.4952 8.90303H12.4835M12.4835 8.90303H12.4718M12.4835 8.90303H12.4718M12.4718 8.90303H12.4601M12.4718 8.90303H12.4601M12.4601 8.90303H12.4483M12.4601 8.90303H12.4483M12.4483 8.90303H12.4366M12.4483 8.90303H12.4366M12.4366 8.90303H12.4249M12.4366 8.90303H12.4249M12.4249 8.90303H12.4132M12.4249 8.90303H12.4132M12.4132 8.90303H12.4014M12.4132 8.90303H12.4014M12.4014 8.90303H12.3897M12.4014 8.90303H12.3897M12.3897 8.90303H12.378M12.3897 8.90303H12.378M12.378 8.90303H12.3663M12.378 8.90303H12.3663M12.3663 8.90303H12.3545M12.3663 8.90303H12.3545M12.3545 8.90303H12.3428M12.3545 8.90303H12.3428M12.3428 8.90303H12.3311M12.3428 8.90303H12.3311M12.3311 8.90303H12.3194M12.3311 8.90303H12.3194M12.3194 8.90303H12.3076M12.3194 8.90303H12.3076M12.3076 8.90303H12.2959M12.3076 8.90303H12.2959M12.2959 8.90303H12.2842M12.2959 8.90303H12.2842M12.2842 8.90303H12.2725M12.2842 8.90303H12.2725M12.2725 8.90303H12.2607M12.2725 8.90303H12.2607M12.2607 8.90303H12.249M12.2607 8.90303H12.249M12.249 8.90303H12.2373M12.249 8.90303H12.2373M12.2373 8.90303H12.2256M12.2373 8.90303H12.2256M12.2256 8.90303H12.2139M12.2256 8.90303H12.2139M12.2139 8.90303H12.2021M12.2139 8.90303H12.2021M12.2021 8.90303H12.1904M12.2021 8.90303H12.1904M12.1904 8.90303H12.1787M12.1904 8.90303H12.1787M12.1787 8.90303H12.167M12.1787 8.90303H12.167M12.167 8.90303H12.1552M12.167 8.90303H12.1552M12.1552 8.90303H12.1435M12.1552 8.90303H12.1435M12.1435 8.90303H12.1318M12.1435 8.90303H12.1318M12.1318 8.90303H12.1201M12.1318 8.90303H12.1201M12.1201 8.90303H12.1083M12.1201 8.90303H12.1083M12.1083 8.90303H12.0966M12.1083 8.90303H12.0966M12.0966 8.90303H12.0849M12.0966 8.90303H12.0849M12.0849 8.90303H12.0732M12.0849 8.90303H12.0732M12.0732 8.90303H12.0614M12.0732 8.90303H12.0614M12.0614 8.90303H12.0497M12.0614 8.90303H12.0497M12.0497 8.90303H12.038M12.0497 8.90303H12.038M12.038 8.90303H12.0263M12.038 8.90303H12.0263M12.0263 8.90303H12.0145M12.0263 8.90303H12.0145M12.0145 8.90303H12.0028M12.0145 8.90303H12.0028M12.0028 8.90303H11.9911M12.0028 8.90303H11.9911M11.9911 8.90303H11.9794M11.9911 8.90303H11.9794M11.9794 8.90303H11.9676M11.9794 8.90303H11.9676M11.9676 8.90303H11.9559M11.9676 8.90303H11.9559M11.9559 8.90303H11.9442M11.9559 8.90303H11.9442M11.9442 8.90303H11.9325M11.9442 8.90303H11.9325M11.9325 8.90303H11.9208M11.9325 8.90303H11.9208M11.9208 8.90303H11.909M11.9208 8.90303H11.909M11.909 8.90303H11.8973M11.909 8.90303H11.8973M11.8973 8.90303H11.8856M11.8973 8.90303H11.8856M11.8856 8.90303H11.8739M11.8856 8.90303H11.8739M11.8739 8.90303H11.8621M11.8739 8.90303H11.8621M11.8621 8.90303H11.8504M11.8621 8.90303H11.8504M11.8504 8.90303H11.8387M11.8504 8.90303H11.8387M11.8387 8.90303H11.827M11.8387 8.90303H11.827M11.827 8.90303H11.8152M11.827 8.90303H11.8152M11.8152 8.90303H11.8035M11.8152 8.90303H11.8035M11.8035 8.90303H11.7918M11.8035 8.90303H11.7918M11.7918 8.90303H11.7801M11.7918 8.90303H11.7801M11.7801 8.90303H11.7683M11.7801 8.90303H11.7683M11.7683 8.90303H11.7566M11.7683 8.90303H11.7566M11.7566 8.90303H11.7449M11.7566 8.90303H11.7449M11.7449 8.90303H11.7332M11.7449 8.90303H11.7332M11.7332 8.90303H11.7214M11.7332 8.90303H11.7214M11.7214 8.90303H11.7097M11.7214 8.90303H11.7097M11.7097 8.90303H11.698M11.7097 8.90303H11.698M11.698 8.90303H11.6863M11.698 8.90303H11.6863M11.6863 8.90303H11.6746M11.6863 8.90303H11.6746M11.6746 8.90303H11.6628M11.6746 8.90303H11.6628M11.6628 8.90303H11.6511M11.6628 8.90303H11.6511M11.6511 8.90303H11.6394M11.6511 8.90303H11.6394M11.6394 8.90303H11.6277M11.6394 8.90303H11.6277M11.6277 8.90303H11.6159M11.6277 8.90303H11.6159M11.6159 8.90303H11.6042M11.6159 8.90303H11.6042M11.6042 8.90303H11.5925M11.6042 8.90303H11.5925M11.5925 8.90303H11.5808M11.5925 8.90303H11.5808M11.5808 8.90303H11.569M11.5808 8.90303H11.569M11.569 8.90303H11.5573M11.569 8.90303H11.5573M11.5573 8.90303H11.5456M11.5573 8.90303H11.5456M11.5456 8.90303H11.5339M11.5456 8.90303H11.5339M11.5339 8.90303H11.5221M11.5339 8.90303H11.5221M11.5221 8.90303H11.5104M11.5221 8.90303H11.5104M11.5104 8.90303H11.4987M11.5104 8.90303H11.4987M11.4987 8.90303H11.487M11.4987 8.90303H11.487M11.487 8.90303H11.4752M11.487 8.90303H11.4752M11.4752 8.90303H11.4635M11.4752 8.90303H11.4635M11.4635 8.90303H11.4518M11.4635 8.90303H11.4518M11.4518 8.90303H11.4401M11.4518 8.90303H11.4401M11.4401 8.90303H11.4284M11.4401 8.90303H11.4284M11.4284 8.90303H11.4166M11.4284 8.90303H11.4166M11.4166 8.90303H11.4049M11.4166 8.90303H11.4049M11.4049 8.90303H11.3932M11.4049 8.90303H11.3932M11.3932 8.90303H11.3815M11.3932 8.90303H11.3815M11.3815 8.90303H11.3697M11.3815 8.90303H11.3697M11.3697 8.90303H11.358M11.3697 8.90303H11.358M11.358 8.90303H11.3463M11.358 8.90303H11.3463M11.3463 8.90303H11.3346M11.3463 8.90303H11.3346M11.3346 8.90303H11.3228M11.3346 8.90303H11.3228M11.3228 8.90303H11.3111M11.3228 8.90303H11.3111M11.3111 8.90303H11.2994M11.3111 8.90303H11.2994M11.2994 8.90303H11.2877M11.2994 8.90303H11.2877M11.2877 8.90303H11.2759M11.2877 8.90303H11.2759M11.2759 8.90303H11.2642M11.2759 8.90303H11.2642M11.2642 8.90303H11.2525M11.2642 8.90303H11.2525M11.2525 8.90303H11.2408M11.2525 8.90303H11.2408M11.2408 8.90303H11.229M11.2408 8.90303H11.229M11.229 8.90303H11.2173M11.229 8.90303H11.2173M11.2173 8.90303H11.2056H11.2173Z" fill="#818181" stroke="#818181" stroke-width="0.2"/>
</g>
</g>
</svg>
