<svg width="15" height="14" viewBox="0 0 15 14" fill="none" xmlns="http://www.w3.org/2000/svg">
<path d="M11.6892 -0.000488281H3.99075C2.25062 -0.000488281 0.839966 1.41017 0.839966 3.1503V10.8487C0.839966 12.5889 2.25062 13.9995 3.99075 13.9995H11.6892C13.4293 13.9995 14.84 12.5889 14.84 10.8487V3.1503C14.84 1.41017 13.4293 -0.000488281 11.6892 -0.000488281Z" fill="#1CB303"/>
<path d="M9.78184 10.5698C9.5397 10.5697 9.30379 10.493 9.10784 10.3508C8.91189 10.2085 8.76593 10.008 8.69084 9.77776H6.58084C6.03801 9.7775 5.51745 9.56192 5.13333 9.17837C4.74921 8.79481 4.5329 8.27457 4.53184 7.73174V5.19775C4.34186 5.11578 4.17761 4.98391 4.05654 4.81612C3.93546 4.64834 3.86207 4.45091 3.84415 4.24477C3.82623 4.03864 3.86445 3.83148 3.95476 3.64532C4.04507 3.45915 4.18409 3.30092 4.35708 3.1874C4.53007 3.07388 4.73056 3.00931 4.93729 3.00054C5.14401 2.99177 5.34926 3.03916 5.53123 3.13763C5.71321 3.2361 5.86513 3.38199 5.97088 3.55984C6.07662 3.73768 6.13224 3.94085 6.13184 4.14776C6.13317 4.39515 6.05399 4.63625 5.90625 4.83468C5.7585 5.03311 5.55023 5.17811 5.31284 5.24776V6.30376H8.69084C8.77526 6.04652 8.94765 5.82725 9.17772 5.68453C9.40779 5.54181 9.68081 5.48478 9.94877 5.52343C10.2167 5.56208 10.4625 5.69395 10.6429 5.89587C10.8232 6.09778 10.9266 6.35682 10.9349 6.62743C10.9432 6.89804 10.8558 7.16291 10.6882 7.37548C10.5205 7.58805 10.2832 7.7347 10.0181 7.78966C9.75305 7.84463 9.47705 7.80439 9.23869 7.67602C9.00032 7.54764 8.81483 7.33936 8.71484 7.08776H5.31484V7.73275C5.31564 8.0679 5.4494 8.38905 5.68676 8.62566C5.92413 8.86228 6.24569 8.99501 6.58084 8.99474H8.71984C8.79773 8.80162 8.92672 8.63334 9.09298 8.50796C9.25924 8.38258 9.4565 8.30483 9.66359 8.28304C9.87069 8.26126 10.0798 8.29626 10.2685 8.3843C10.4572 8.47234 10.6184 8.61011 10.7348 8.7828C10.8512 8.95549 10.9183 9.15659 10.9291 9.36455C10.9398 9.57252 10.8937 9.77948 10.7958 9.96325C10.6979 10.147 10.5517 10.3006 10.3731 10.4077C10.1945 10.5147 9.99008 10.5711 9.78184 10.5708V10.5698ZM9.78184 9.05874C9.70989 9.05913 9.63968 9.08087 9.58006 9.12115C9.52044 9.16143 9.4741 9.21845 9.44688 9.28506C9.41967 9.35166 9.41281 9.42485 9.42716 9.49535C9.44151 9.56586 9.47643 9.63054 9.52752 9.6812C9.5786 9.73187 9.64356 9.76625 9.71418 9.78002C9.7848 9.79379 9.85791 9.78633 9.92429 9.75857C9.99067 9.73081 10.0473 9.68399 10.0871 9.62405C10.1269 9.5641 10.148 9.49369 10.1478 9.42174C10.1477 9.37381 10.1381 9.32639 10.1197 9.28216C10.1012 9.23792 10.0742 9.19776 10.0402 9.16396C10.0062 9.13016 9.96593 9.10339 9.9216 9.08517C9.87726 9.06694 9.82977 9.05763 9.78184 9.05776V9.05874ZM9.78184 6.30175C9.70993 6.30214 9.63976 6.32383 9.58016 6.36407C9.52057 6.4043 9.47422 6.46128 9.44698 6.52782C9.41973 6.59437 9.41281 6.66749 9.42708 6.73797C9.44135 6.80844 9.47618 6.87314 9.52716 6.92385C9.57815 6.97456 9.64301 7.00903 9.71356 7.02291C9.78412 7.03679 9.8572 7.02946 9.92359 7.00185C9.98999 6.97424 10.0467 6.92757 10.0866 6.86776C10.1265 6.80794 10.1478 6.73767 10.1478 6.66576C10.147 6.56931 10.1081 6.47706 10.0395 6.40923C9.97094 6.3414 9.8783 6.3035 9.78184 6.30376V6.30175ZM4.98184 3.78576C4.90989 3.78615 4.83968 3.80786 4.78006 3.84814C4.72044 3.88842 4.6741 3.94547 4.64688 4.01208C4.61967 4.07868 4.61281 4.15184 4.62716 4.22234C4.64151 4.29285 4.67643 4.35753 4.72752 4.40819C4.7786 4.45886 4.84356 4.49324 4.91418 4.50701C4.9848 4.52078 5.05791 4.51332 5.12429 4.48556C5.19067 4.4578 5.24733 4.41098 5.28712 4.35103C5.32691 4.29109 5.34804 4.22071 5.34784 4.14876C5.34758 4.05213 5.309 3.95955 5.24058 3.89132C5.17216 3.82308 5.07947 3.78475 4.98284 3.78475L4.98184 3.78576Z" fill="white"/>
</svg>
