<svg width="13" height="12" viewBox="0 0 13 12" fill="none" xmlns="http://www.w3.org/2000/svg">
<path d="M13 2.16427H5.67329V1.07037H13V2.16427ZM1.86565 1.07037H0V2.16427H1.86565V1.07037ZM5.39718 2.79216V0.468186C5.39718 0.344015 5.34835 0.224931 5.26144 0.137129C5.17453 0.0493269 5.05665 0 4.93374 0H2.63118C2.50827 0 2.3904 0.0493269 2.30349 0.137129C2.21658 0.224931 2.16775 0.344015 2.16775 0.468186V2.79435C2.16775 2.91852 2.21658 3.0376 2.30349 3.1254C2.3904 3.21321 2.50827 3.26253 2.63118 3.26253H4.93374C5.05665 3.26253 5.17453 3.21321 5.26144 3.1254C5.34835 3.0376 5.39718 2.91852 5.39718 2.79435V2.79216ZM13 9.81003H6.78261V10.9039H13V9.81003ZM2.92029 9.81003H0V10.9039H2.92029V9.81003ZM6.4778 11.5318V9.20565C6.4778 9.08148 6.42898 8.9624 6.34207 8.87459C6.25515 8.78679 6.13728 8.73746 6.01437 8.73746H3.71181C3.5889 8.73746 3.47102 8.78679 3.38411 8.87459C3.2972 8.9624 3.24838 9.08148 3.24838 9.20565V11.5318C3.24838 11.656 3.2972 11.7751 3.38411 11.8629C3.47102 11.9507 3.5889 12 3.71181 12H6.01437C6.13728 12 6.25515 11.9507 6.34207 11.8629C6.42898 11.7751 6.4778 11.656 6.4778 11.5318ZM0 6.5464H7.32671V5.45251H0V6.5464ZM11.1349 6.5464H13V5.45251H11.1349V6.5464ZM7.60336 4.82352V7.14968C7.60329 7.21114 7.61521 7.27201 7.63844 7.32881C7.66168 7.38561 7.69576 7.43722 7.73875 7.4807C7.78174 7.52419 7.8328 7.55868 7.88899 7.58222C7.94519 7.60575 8.00542 7.61787 8.06626 7.61787H10.3694C10.4302 7.61787 10.4904 7.60575 10.5466 7.58222C10.6028 7.55868 10.6539 7.52419 10.6969 7.4807C10.7399 7.43722 10.7739 7.38561 10.7972 7.32881C10.8204 7.27201 10.8323 7.21114 10.8322 7.14968V4.82352C10.8322 4.69949 10.7835 4.58055 10.6967 4.49285C10.6099 4.40515 10.4921 4.35588 10.3694 4.35588H8.06626C7.94349 4.35588 7.82575 4.40515 7.73894 4.49285C7.65213 4.58055 7.60336 4.69949 7.60336 4.82352Z" fill="#959595"/>
</svg>
