<svg width="14" height="14" viewBox="0 0 14 14" fill="none" xmlns="http://www.w3.org/2000/svg">
<path d="M10.84 0.0795898H3C1.34315 0.0795898 0 1.42274 0 3.07959V10.9196C0 12.5764 1.34315 13.9196 3 13.9196H10.84C12.4969 13.9196 13.84 12.5764 13.84 10.9196V3.07959C13.84 1.42274 12.4969 0.0795898 10.84 0.0795898Z" fill="#FF9600"/>
<path d="M6.48817 11.1877H7.35317C7.35317 11.3024 7.30761 11.4124 7.2265 11.4935C7.14539 11.5746 7.03538 11.6202 6.92067 11.6202C6.80597 11.6202 6.69596 11.5746 6.61485 11.4935C6.53374 11.4124 6.48817 11.3024 6.48817 11.1877ZM6.16417 10.7557C6.04942 10.7554 5.93943 10.7097 5.85829 10.6286C5.77714 10.5475 5.73143 10.4375 5.73117 10.3227V9.02271H8.11017V10.3227C8.11017 10.4374 8.06469 10.5474 7.9837 10.6285C7.90272 10.7097 7.79284 10.7554 7.67817 10.7557H6.16417ZM5.71817 8.37671C5.57617 7.22871 4.32617 6.77671 4.32617 5.00671C4.36719 4.34632 4.65844 3.72642 5.14059 3.27328C5.62274 2.82015 6.25951 2.56787 6.92117 2.56787C7.58284 2.56787 8.21961 2.82015 8.70176 3.27328C9.18391 3.72642 9.47516 4.34632 9.51617 5.00671C9.51617 6.77771 8.26717 7.22771 8.12417 8.37671H5.71817Z" fill="white"/>
</svg>
