<svg width="15" height="18" viewBox="0 0 15 18" fill="none" xmlns="http://www.w3.org/2000/svg">
<path d="M3.44208 2.04186C3.66526 1.40237 4.12878 1.16203 4.77256 1.2264C5.02579 1.25215 5.13737 1.16203 5.176 0.900221C5.25325 0.355153 5.66098 0.0160945 6.21034 0.00321891C6.40348 -0.00107297 6.59661 -0.00107297 6.78975 0.00321891C7.34769 0.0118027 7.75971 0.316526 7.85413 0.865886C7.90563 1.1749 8.04297 1.26074 8.32624 1.2307C8.88418 1.1749 9.29191 1.38949 9.54513 1.90881C9.58376 1.98606 9.73826 2.03757 9.84127 2.04186C10.5923 2.05473 11.3434 2.04615 12.0945 2.05044C12.7211 2.05473 13.0258 2.36375 13.0258 2.99895C13.0258 3.6041 13.0387 4.20496 13.0173 4.81012C13.013 4.94317 12.8842 5.16205 12.7855 5.17922C12.5409 5.21785 12.5194 4.99896 12.5151 4.80583C12.5151 4.26076 12.5151 3.7114 12.5151 3.16633C12.5151 2.57405 12.4507 2.51826 11.8198 2.56547C11.8155 2.68135 11.8069 2.79723 11.8069 2.9174C11.8069 4.05475 11.8112 5.1921 11.7984 6.33373C11.7984 6.4582 11.7168 6.65563 11.631 6.68567C11.3606 6.7758 11.3091 6.57837 11.3091 6.35519C11.3091 5.58266 11.3091 4.80583 11.3091 4.03329C11.3091 3.55689 11.3091 3.08049 11.3091 2.57405C10.7426 2.57405 10.2018 2.57405 9.66101 2.57405C9.47646 3.29938 9.3992 3.36376 8.61379 3.36376C7.19318 3.36376 5.76828 3.36376 4.34767 3.36376C3.64809 3.36376 3.52792 3.26504 3.38629 2.56547C2.86268 2.56547 2.33049 2.56547 1.77684 2.56547C1.77684 6.89168 1.77684 11.2093 1.77684 15.5613C1.85409 15.5698 1.93993 15.5913 2.02576 15.5913C3.10732 15.5956 4.18887 15.5956 5.27042 15.587C5.38201 15.587 5.55369 15.5098 5.58802 15.4282C6.2318 13.8102 7.43353 12.5741 8.48504 11.2436C10.0001 9.32517 11.5409 7.42387 13.0731 5.51828C13.4937 4.99038 14.116 4.89166 14.601 5.27364C15.0859 5.65133 15.1374 6.27794 14.7083 6.81442C12.4979 9.57839 10.2876 12.3381 8.06872 15.0935C7.93568 15.2608 7.75113 15.3853 7.56228 15.557C7.661 15.5741 7.72967 15.5913 7.80263 15.5913C8.86272 15.5913 9.91852 15.587 10.9786 15.5999C11.2318 15.6042 11.3134 15.5226 11.3134 15.2694C11.3048 14.1664 11.3091 13.0634 11.3091 11.9561C11.3091 11.8531 11.2833 11.7372 11.3263 11.6514C11.3735 11.5569 11.4851 11.4325 11.5623 11.4368C11.6481 11.4411 11.7769 11.5698 11.7941 11.66C11.8284 11.8574 11.8069 12.0677 11.8069 12.2737C11.8069 13.2522 11.8069 14.2308 11.8069 15.2093C11.8069 15.9389 11.631 16.1192 10.9099 16.1192C9.68247 16.1192 8.4507 16.1235 7.22322 16.1149C6.95713 16.1106 6.75112 16.175 6.54511 16.3553C6.06442 16.7759 5.78974 16.7287 5.39918 16.2265C5.34768 16.1578 5.21034 16.1278 5.11162 16.1278C4.09445 16.1063 3.08157 16.1106 2.06868 16.1106C1.4249 16.1106 1.21889 15.9003 1.21889 15.2437C1.21889 11.1578 1.21889 7.07194 1.21889 2.98607C1.21889 2.85302 1.21889 2.71568 1.21889 2.58693C0.656657 2.46246 0.523609 2.56118 0.523609 3.08478C0.523609 7.53546 0.523609 11.9861 0.523609 16.4368C0.523609 16.9132 0.579403 16.9733 1.04722 16.9733C4.68673 16.9733 8.33053 16.9733 11.97 16.9733C12.4593 16.9733 12.5151 16.9175 12.5151 16.4196C12.5151 14.4497 12.5151 12.4797 12.5151 10.514C12.5151 10.411 12.4851 10.2951 12.5237 10.2093C12.5752 10.0934 12.6825 10.0033 12.764 9.90028C12.8499 10.0076 13.013 10.1106 13.0173 10.2222C13.043 10.8145 13.0301 11.4067 13.0301 11.999C13.0301 13.514 13.0301 15.0248 13.0301 16.5398C13.0301 17.1664 12.7125 17.484 12.0902 17.484C8.38203 17.484 4.66956 17.484 0.96138 17.484C0.32189 17.484 0 17.1621 0 16.5141C0 12.0076 0 7.50112 0 2.99036C0 2.34658 0.317599 2.04186 0.974256 2.03757C1.78971 2.03757 2.60517 2.04186 3.44208 2.04186ZM7.78546 14.6128C9.62238 12.3209 11.4378 10.0548 13.2662 7.77151C12.9786 7.53975 12.7125 7.32945 12.4336 7.10627C10.6052 9.38955 8.78547 11.6557 6.95713 13.9432C7.24468 14.175 7.50649 14.3896 7.78546 14.6128ZM6.51936 2.85732C7.27044 2.85732 8.01722 2.86161 8.7683 2.85302C8.86701 2.85302 9.01723 2.81869 9.06015 2.75002C9.30908 2.31654 8.98289 1.7543 8.48504 1.72426C8.37345 1.71568 8.25757 1.72426 8.14598 1.71997C7.65241 1.71138 7.43353 1.52683 7.37773 1.04614C7.33481 0.707086 7.15026 0.539703 6.82408 0.518244C6.64382 0.505368 6.45927 0.505368 6.27901 0.513952C5.87128 0.53112 5.70819 0.689919 5.6524 1.08906C5.5966 1.50538 5.37772 1.7028 4.94853 1.71568C4.81119 1.71997 4.67385 1.69851 4.5408 1.72426C4.39917 1.75001 4.25325 1.79293 4.13737 1.87448C3.95711 1.99894 3.81977 2.54401 3.96569 2.71568C4.06011 2.82727 4.30046 2.84444 4.47213 2.84873C5.15883 2.8659 5.83695 2.85732 6.51936 2.85732ZM13.5881 7.37237C13.867 7.02473 14.1417 6.71142 14.3821 6.37236C14.5495 6.13202 14.5151 5.8745 14.2919 5.66849C14.0859 5.47965 13.7855 5.47965 13.5881 5.69424C13.3005 6.01184 13.043 6.35519 12.7597 6.70284C13.043 6.9346 13.3048 7.1449 13.5881 7.37237ZM6.7082 14.4067C6.26184 15.072 5.90562 15.9003 5.98287 16.1407C6.45927 15.7544 6.92709 15.3767 7.41636 14.9776C7.16314 14.7716 6.94425 14.5956 6.7082 14.4067Z" fill="black"/>
<path d="M8.12011 9.00778C7.56216 9.00778 7.00422 9.00778 6.44628 9.00778C6.25314 9.00778 6.03855 8.97344 6.08147 8.72881C6.10293 8.6258 6.31752 8.49275 6.44198 8.48846C7.55787 8.47129 8.67376 8.47129 9.78535 8.48846C9.91411 8.49275 10.1287 8.6258 10.1459 8.72881C10.1931 8.97344 9.97849 9.00778 9.78535 9.00778C9.2317 9.00778 8.67376 9.00778 8.12011 9.00778Z" fill="black"/>
<path d="M8.1159 6.48415C7.55796 6.48415 7.00002 6.50132 6.44637 6.47127C6.31761 6.46698 6.10302 6.33393 6.08585 6.23093C6.03864 5.98629 6.25752 5.95625 6.45066 5.95625C7.56654 5.95625 8.67814 5.94766 9.79403 5.96483C9.92278 5.96912 10.1331 6.10217 10.1545 6.20518C10.2018 6.44981 9.98716 6.47986 9.78974 6.47986C9.23179 6.47986 8.67385 6.48415 8.1159 6.48415Z" fill="black"/>
<path d="M8.12895 5.3297C7.56243 5.3297 6.99161 5.3297 6.42508 5.3297C6.24053 5.3297 6.0431 5.29965 6.08602 5.07218C6.10319 4.97776 6.29632 4.84471 6.4122 4.84471C7.54955 4.82755 8.6826 4.83613 9.81995 4.83613C10.0002 4.83613 10.1805 4.84901 10.1719 5.09364C10.1633 5.33828 9.97875 5.33399 9.80278 5.33399C9.24055 5.3297 8.6826 5.3297 8.12895 5.3297Z" fill="black"/>
<path d="M3.80267 9.69837C4.06019 9.33785 4.30912 8.99021 4.54946 8.63828C4.65676 8.47948 4.7898 8.36789 4.96577 8.49665C5.15032 8.6297 5.06878 8.78849 4.96148 8.93871C4.72113 9.28206 4.48508 9.6297 4.24044 9.96876C4.0001 10.2992 3.75546 10.3293 3.44216 10.0675C3.26619 9.92155 3.08593 9.77992 2.9443 9.60824C2.88421 9.53528 2.87134 9.32927 2.91855 9.29064C3.00009 9.22627 3.15889 9.22197 3.26619 9.25202C3.3649 9.27777 3.44216 9.38936 3.52799 9.46232C3.61383 9.53099 3.69538 9.60395 3.80267 9.69837Z" fill="black"/>
<path d="M3.80269 5.95622C4.05162 5.59999 4.29625 5.25664 4.5323 4.91758C4.64389 4.75878 4.77694 4.60857 4.97437 4.75878C5.15892 4.89612 5.05591 5.06351 4.9572 5.20943C4.71685 5.55278 4.4808 5.90042 4.23187 6.23948C3.99582 6.55708 3.75118 6.58712 3.45075 6.33819C3.29195 6.20944 3.12028 6.08497 3.0044 5.92188C2.93144 5.81888 2.9486 5.65579 2.92285 5.51845C3.06448 5.53561 3.22328 5.51415 3.33916 5.57424C3.50655 5.66008 3.6353 5.81029 3.80269 5.95622Z" fill="black"/>
<path d="M3.80262 13.3936C4.06443 13.0202 4.30906 12.6812 4.54512 12.3335C4.65241 12.1747 4.78546 12.0589 4.96572 12.1833C5.15456 12.3121 5.06872 12.4752 4.96143 12.6297C4.71679 12.973 4.48503 13.325 4.2361 13.664C3.99576 13.9945 3.75112 14.016 3.42923 13.7499C3.26185 13.6125 3.08588 13.4795 2.95283 13.3121C2.88845 13.2305 2.92279 13.076 2.90991 12.9559C3.03008 12.9516 3.16313 12.9172 3.27472 12.9516C3.37343 12.9816 3.45069 13.0889 3.53653 13.1662C3.61807 13.2305 3.69533 13.2992 3.80262 13.3936Z" fill="black"/>
<path d="M7.18463 10.1236C6.90137 10.1236 6.61381 10.1451 6.33484 10.1151C6.23613 10.1022 6.15458 9.96484 6.06445 9.88329C6.15029 9.79745 6.23613 9.64294 6.32626 9.63865C6.91424 9.61719 7.50652 9.61719 8.0988 9.63865C8.19322 9.64294 8.28335 9.78887 8.37777 9.87041C8.28764 9.95625 8.2061 10.0979 8.10739 10.1108C7.80266 10.1451 7.49365 10.1236 7.18463 10.1236Z" fill="black"/>
</svg>
