<svg width="14" height="14" viewBox="0 0 14 14" fill="none" xmlns="http://www.w3.org/2000/svg">
<path d="M10.84 0H3C1.34315 0 0 1.34315 0 3V10.84C0 12.4969 1.34315 13.84 3 13.84H10.84C12.4969 13.84 13.84 12.4969 13.84 10.84V3C13.84 1.34315 12.4969 0 10.84 0Z" fill="#FF9600"/>
<path d="M6.49011 11.1101H7.3551C7.3551 11.2248 7.30956 11.3348 7.22845 11.4159C7.14735 11.497 7.03731 11.5426 6.92261 11.5426C6.8079 11.5426 6.69793 11.497 6.61682 11.4159C6.53571 11.3348 6.49011 11.2248 6.49011 11.1101ZM6.1651 10.6771C6.05053 10.6771 5.9407 10.6316 5.85968 10.5505C5.77866 10.4695 5.73309 10.3596 5.73309 10.2451V8.94508H8.11212V10.2451C8.11186 10.3597 8.0661 10.4696 7.98492 10.5506C7.90375 10.6316 7.7938 10.6771 7.67914 10.6771H6.1651ZM5.72009 8.29807C5.57709 7.15007 4.32812 6.69807 4.32812 4.92907C4.36914 4.26868 4.66037 3.64877 5.14252 3.19563C5.62467 2.7425 6.26143 2.49023 6.9231 2.49023C7.58476 2.49023 8.22159 2.7425 8.70374 3.19563C9.18588 3.64877 9.47711 4.26868 9.51813 4.92907C9.51813 6.69907 8.2681 7.15007 8.1261 8.29807H5.72009Z" fill="white"/>
</svg>
