<svg width="34" height="40" viewBox="0 0 34 40" fill="none" xmlns="http://www.w3.org/2000/svg">
<path d="M33.073 4.57645C33.0751 4.19611 33.0382 3.81656 32.9629 3.44376C32.5641 1.53638 30.8247 -0.0089313 28.5308 3.88555e-05C20.5392 0.0302112 12.5525 0.0106386 4.56336 0.0139004C4.25126 0.00365761 3.9389 0.0230457 3.63046 0.0718005C1.40424 0.50563 0.00570828 2.23605 0.00326187 4.55688C-0.00108729 9.6927 -0.00108729 14.8285 0.00326187 19.9643C0.00326187 25.086 0.00326187 30.208 0.00326187 35.3302C-0.00693138 35.7512 0.0327553 36.1719 0.121501 36.5836C0.627907 38.6989 2.28902 39.9947 4.52503 39.9963C12.528 40.0012 20.5308 40.0012 28.5333 39.9963C28.8332 40.006 29.1335 39.9883 29.4303 39.9433C31.6638 39.5234 33.0779 37.775 33.0787 35.4321C33.077 25.1469 33.0751 14.8617 33.073 4.57645ZM28.4174 38.2822C20.443 38.2455 12.4685 38.2659 4.49405 38.2643C3.14201 38.2643 2.11696 37.483 1.82339 36.2183C1.77801 35.9783 1.75995 35.734 1.76956 35.4901C1.76956 25.1654 1.78017 14.8416 1.75407 4.51692C1.75407 2.89169 3.00745 1.72802 4.53564 1.73291C12.537 1.75574 20.5387 1.75574 28.5406 1.73291C30.0851 1.72883 31.3319 2.90311 31.3213 4.51774C31.2855 9.67965 31.3075 14.8424 31.3075 20.0043C31.3075 25.1254 31.2732 30.2474 31.3262 35.3685C31.345 37.1919 29.9978 38.2896 28.4174 38.2822Z" fill="black"/>
<path d="M20.0018 8.69293C17.7332 8.69293 15.4648 8.69293 13.1967 8.69293C12.5354 8.69293 12.1815 8.35941 12.2035 7.78613C12.2109 7.58139 12.2916 7.3861 12.4307 7.23573C12.5699 7.08536 12.7583 6.98986 12.9619 6.96658C13.0295 6.9625 13.0973 6.9625 13.1649 6.96658C17.7315 6.96658 22.296 6.96658 26.8583 6.96658C27.5816 6.96658 28.0187 7.51865 27.7838 8.13433C27.6297 8.53717 27.3141 8.70516 26.8868 8.69945C25.8267 8.69375 24.7666 8.69945 23.7065 8.69945L20.0018 8.69293Z" fill="black"/>
<path d="M20.0067 19.1277C17.7381 19.1277 15.4694 19.1277 13.2008 19.1277C12.6226 19.1277 12.2793 18.8757 12.2125 18.428C12.1309 17.8572 12.4979 17.407 13.0793 17.3997C13.9347 17.3891 14.7918 17.3997 15.6464 17.3997C19.3823 17.3997 23.118 17.3997 26.8534 17.3997C27.5783 17.3997 28.017 17.9469 27.7846 18.5634C27.633 18.9662 27.3198 19.1342 26.8941 19.1342C25.9156 19.1285 24.937 19.1342 23.9585 19.1342L20.0067 19.1277Z" fill="black"/>
<path d="M20.0108 27.8328C22.3061 27.8328 24.6019 27.8328 26.8982 27.8328C27.3998 27.8328 27.7137 28.0774 27.8165 28.5227C27.8552 28.7023 27.8357 28.8896 27.761 29.0574C27.6862 29.2253 27.56 29.365 27.4006 29.4564C27.1755 29.5877 26.9292 29.5624 26.687 29.5624C23.3708 29.5624 20.0562 29.5624 16.7432 29.5624C15.507 29.5624 14.2707 29.5681 13.0345 29.5542C12.5696 29.5485 12.2524 29.2419 12.2084 28.8203C12.1611 28.3612 12.4123 27.9682 12.8412 27.8613C12.988 27.8345 13.1374 27.8252 13.2864 27.8336L20.0108 27.8328Z" fill="black"/>
<path d="M17.4029 10.4478C18.8431 10.4478 20.2832 10.4389 21.7249 10.4478C22.3863 10.4535 22.7915 11.0252 22.5689 11.6082C22.5129 11.7782 22.403 11.9252 22.2558 12.0269C22.1086 12.1286 21.9322 12.1795 21.7534 12.1717C18.8602 12.1755 15.9669 12.1755 13.0736 12.1717C12.958 12.1761 12.8428 12.1565 12.7351 12.1143C12.6275 12.0721 12.5296 12.0081 12.4478 11.9263C12.366 11.8446 12.3019 11.7469 12.2596 11.6392C12.2173 11.5316 12.1976 11.4164 12.2019 11.3008C12.2019 10.7952 12.5386 10.4519 13.0842 10.4478C14.5235 10.4405 15.9661 10.4478 17.4029 10.4478Z" fill="black"/>
<path d="M17.4339 22.6138C16.0204 22.6138 14.607 22.6138 13.1935 22.6138C12.5762 22.6138 12.1962 22.277 12.1978 21.7412C12.1994 21.2055 12.5468 20.8858 13.16 20.885C15.987 20.8801 18.8123 20.8801 21.636 20.885C22.2248 20.885 22.6146 21.2308 22.6276 21.7315C22.639 22.2501 22.2321 22.6138 21.6279 22.6146C20.2323 22.6141 18.8343 22.6138 17.4339 22.6138Z" fill="black"/>
<path d="M17.3956 31.3173C18.8357 31.3173 20.275 31.3091 21.7176 31.3173C22.3814 31.323 22.7866 31.8881 22.5697 32.472C22.5163 32.6423 22.4085 32.7904 22.2628 32.8935C22.1171 32.9966 21.9416 33.0491 21.7632 33.0428C18.8564 33.0477 15.9495 33.0477 13.0426 33.0428C12.5533 33.0428 12.2051 32.6596 12.2035 32.1809C12.2035 31.6916 12.5297 31.3295 13.0385 31.3246C14.4917 31.3116 15.9449 31.3246 17.398 31.3246L17.3956 31.3173Z" fill="black"/>
<path d="M26.1162 10.4552C26.4277 10.4552 26.7408 10.4389 27.0515 10.4552C27.2628 10.4696 27.4613 10.5619 27.6084 10.7142C27.7556 10.8665 27.8411 11.0679 27.8482 11.2796C27.8662 11.7126 27.5139 12.1456 27.067 12.1644C26.431 12.1921 25.7924 12.1905 25.1556 12.1644C24.7013 12.1473 24.3597 11.7403 24.3646 11.2918C24.3649 11.0733 24.4501 10.8634 24.6023 10.7065C24.7544 10.5497 24.9616 10.4581 25.18 10.4511C25.4907 10.434 25.8039 10.4511 26.1154 10.4511L26.1162 10.4552Z" fill="black"/>
<path d="M26.1146 20.8899C26.4261 20.8899 26.7392 20.8736 27.0491 20.8899C27.2604 20.9037 27.4591 20.9954 27.6067 21.1472C27.7544 21.299 27.8404 21.5002 27.8482 21.7119C27.867 22.1449 27.5155 22.5795 27.0687 22.5991C26.4326 22.6268 25.7941 22.6252 25.158 22.5991C24.703 22.582 24.3605 22.1767 24.3646 21.7274C24.3645 21.5086 24.4495 21.2983 24.6017 21.141C24.7539 20.9838 24.9613 20.892 25.18 20.885C25.4907 20.8679 25.803 20.885 26.1154 20.885L26.1146 20.8899Z" fill="black"/>
<path d="M26.1415 31.3238C26.4399 31.3238 26.7392 31.3091 27.0385 31.3238C27.2545 31.3394 27.4566 31.436 27.6043 31.5943C27.7521 31.7526 27.8346 31.9609 27.8353 32.1774C27.836 32.394 27.7549 32.6028 27.6082 32.762C27.4615 32.9213 27.2601 33.0193 27.0442 33.0363C26.4212 33.0591 25.7965 33.0583 25.1735 33.0363C24.9546 33.024 24.7488 32.928 24.5987 32.7681C24.4486 32.6083 24.3656 32.3969 24.367 32.1776C24.3623 31.9588 24.4435 31.7468 24.5932 31.5871C24.7428 31.4273 24.9491 31.3325 25.1678 31.323C25.4899 31.3083 25.8161 31.3238 26.1415 31.3238Z" fill="black"/>
<path d="M7.84725 6.96088C7.15563 6.9634 6.49274 7.23775 6.00163 7.72474C5.51053 8.21172 5.2306 8.87228 5.22226 9.56385C5.21737 10.9852 6.40877 12.1734 7.83666 12.1782C8.52874 12.1797 9.19304 11.9061 9.6834 11.4177C10.1738 10.9293 10.45 10.2661 10.4515 9.57405C10.4529 8.88196 10.1793 8.21767 9.69089 7.7273C9.20251 7.23693 8.53933 6.96066 7.84725 6.95925V6.96088ZM7.81953 10.4388C7.59347 10.431 7.37932 10.3355 7.22251 10.1725C7.06569 10.0095 6.97852 9.79179 6.97948 9.56559C6.98043 9.3394 7.06944 9.12247 7.22762 8.96078C7.38581 8.7991 7.60074 8.70536 7.82686 8.69946C7.9433 8.69642 8.05918 8.71679 8.1676 8.75936C8.27603 8.80194 8.37481 8.86585 8.45807 8.94731C8.54134 9.02877 8.60738 9.12613 8.65232 9.23359C8.69726 9.34106 8.72017 9.45646 8.71968 9.57294C8.71918 9.68942 8.6953 9.80462 8.64946 9.9117C8.60361 10.0188 8.53674 10.1156 8.4528 10.1963C8.36885 10.2771 8.26953 10.3402 8.16075 10.3818C8.05197 10.4235 7.93595 10.4429 7.81953 10.4388Z" fill="black"/>
<path d="M7.82849 17.3948C6.40223 17.3948 5.21002 18.5968 5.21899 20.0157C5.22947 20.7072 5.51132 21.3669 6.00376 21.8524C6.49619 22.338 7.15975 22.6106 7.85132 22.6114C8.54341 22.6079 9.20577 22.3296 9.6927 21.8378C10.1796 21.346 10.4512 20.6809 10.4478 19.9888C10.4443 19.2967 10.1661 18.6344 9.67424 18.1474C9.18242 17.6605 8.51731 17.3889 7.82522 17.3924L7.82849 17.3948ZM7.84398 20.8744C7.61278 20.8744 7.39106 20.7826 7.22758 20.6191C7.0641 20.4556 6.97225 20.2339 6.97225 20.0027C6.97225 19.7715 7.0641 19.5497 7.22758 19.3863C7.39106 19.2228 7.61278 19.1309 7.84398 19.1309C8.07518 19.1309 8.29692 19.2228 8.4604 19.3863C8.62388 19.5497 8.71573 19.7715 8.71573 20.0027C8.71573 20.2339 8.62388 20.4556 8.4604 20.6191C8.29692 20.7826 8.07518 20.8744 7.84398 20.8744Z" fill="black"/>
<path d="M7.8595 27.8328C7.16785 27.8321 6.50364 28.1033 6.01024 28.588C5.51684 29.0727 5.23383 29.732 5.22227 30.4235C5.20514 31.8392 6.40061 33.0453 7.82442 33.0502C8.5165 33.0548 9.18209 32.7843 9.67475 32.2983C10.1674 31.8122 10.4468 31.1503 10.4515 30.4582C10.4561 29.7661 10.1856 29.1005 9.69956 28.6079C9.21347 28.1152 8.55158 27.8358 7.8595 27.8312V27.8328ZM7.84562 31.3132C7.73114 31.3135 7.61774 31.2912 7.51187 31.2476C7.406 31.2041 7.30976 31.1401 7.22863 31.0593C7.14749 30.9786 7.08305 30.8826 7.03899 30.777C6.99494 30.6713 6.97213 30.558 6.97186 30.4435C6.97159 30.329 6.99388 30.2156 7.03744 30.1098C7.081 30.0039 7.14498 29.9077 7.22574 29.8265C7.3065 29.7454 7.40244 29.6809 7.50811 29.6369C7.61377 29.5928 7.72708 29.57 7.84156 29.5697C8.07276 29.5692 8.29469 29.6605 8.45856 29.8236C8.62242 29.9867 8.71478 30.2082 8.71532 30.4394C8.71586 30.6706 8.62454 30.8926 8.46144 31.0564C8.29834 31.2203 8.07682 31.3127 7.84562 31.3132Z" fill="black"/>
</svg>
