<svg width="33" height="33" viewBox="0 0 33 33" fill="none" xmlns="http://www.w3.org/2000/svg">
<g id="Copy Link">
<path id="Rectangle 1292" d="M5.55093 0.5H27.4491C28.4568 0.5 29.7203 1.13882 30.7515 2.26996C31.7716 3.38877 32.5 4.9228 32.5 6.6V26.4C32.5 28.0772 31.7716 29.6112 30.7515 30.73C29.7203 31.8612 28.4568 32.5 27.4491 32.5H5.55093C4.54318 32.5 3.2797 31.8612 2.24845 30.73C1.22843 29.6112 0.5 28.0772 0.5 26.4V6.6C0.5 4.9228 1.22843 3.38877 2.24845 2.26996C3.2797 1.13882 4.54318 0.5 5.55093 0.5Z" stroke="#818181"/>
<g id="Icon">
<path d="M20.6317 17.5351L22.9058 15.2607C24.5647 13.6021 24.5647 10.9029 22.9058 9.24432C21.247 7.58523 18.5479 7.58523 16.8891 9.24432L13.6072 12.5262C11.9483 14.1848 11.9483 16.884 13.6072 18.5426C13.8522 18.7876 14.1203 18.9954 14.4039 19.1681L16.1608 17.411C15.8261 17.331 15.5086 17.1622 15.2482 16.9017C14.4942 16.1477 14.4942 14.9207 15.2482 14.1669L18.53 10.885C19.284 10.131 20.511 10.131 21.2648 10.885C22.0188 11.6391 22.0188 12.8659 21.2648 13.6199L20.3006 14.5842C20.698 15.5193 20.808 16.5477 20.6317 17.5351Z" fill="#818181"/>
<path d="M11.5184 14.6146L9.24432 16.8889C7.58523 18.5477 7.58523 21.2468 9.24432 22.9056C10.9029 24.5646 13.6022 24.5646 15.261 22.9056L18.5426 19.6238C20.2015 17.9651 20.2013 15.2659 18.5426 13.6074C18.2979 13.3623 18.0297 13.1545 17.746 12.9818L15.9891 14.7389C16.3236 14.8192 16.641 14.9876 16.9017 15.2483C17.6557 16.0023 17.6557 17.2292 16.9017 17.9831L13.6196 21.2649C12.8656 22.0189 11.6387 22.0189 10.8848 21.2649C10.1308 20.5109 10.1308 19.284 10.8848 18.5301L11.8491 17.5659C11.4515 16.6308 11.3419 15.6021 11.5184 14.6146Z" fill="#818181"/>
</g>
</g>
</svg>
