<svg width="13" height="13" viewBox="0 0 13 13" fill="none" xmlns="http://www.w3.org/2000/svg">
<path d="M7.43889 13C6.26414 13 5.14035 13 4.42216 12.9992C4.42047 12.9992 4.41409 12.9992 4.41282 12.9992H4.40687H4.40093C4.38224 12.9996 4.36738 13 4.35209 13H2.44003H1.48443C0.59721 12.9987 0.000915127 12.4037 0.000490415 11.5182C-0.000359009 9.07397 6.57031e-05 6.62932 0.000490415 4.18468V4.06407C0.000490415 4.03391 0.00133984 4.00418 0.0034634 3.97318V3.96851V3.96383C-0.00248257 2.88507 0.00813523 1.27329 0.0506064 1.06815C0.179294 0.443824 0.736516 0.00594596 1.40544 0.00254827C1.77748 0.000849423 2.17756 0 2.66428 0C2.97984 0 3.29583 0 3.61139 0.000849423C3.92737 0.000849423 4.24294 0.00169885 4.5585 0.00169885H9.17851C9.94851 0.00169885 10.7185 0.00169885 11.4885 0.00169885C12.4216 0.00169885 13.0009 0.582704 13.0009 1.51749C13.0009 4.84129 13.0009 8.16466 13.0009 11.4885C13.0009 12.4207 12.4195 13 11.4834 13H7.43889ZM0.764971 9.42902C0.764971 10.1366 0.764971 10.8437 0.765396 11.5513C0.765821 11.965 1.03339 12.233 1.44706 12.2347C1.6488 12.2351 1.85053 12.2355 2.05227 12.2355H2.83289H4.0688V4.34565H0.764971V9.42902ZM4.8439 12.2351H4.97132C5.29749 12.2351 5.71031 12.2347 6.13205 12.2347H8.13712C9.2626 12.2347 10.3885 12.2347 11.5144 12.2347C11.9863 12.2347 12.2356 11.9841 12.2356 11.5101C12.2356 9.98115 12.2356 8.45219 12.2356 6.9228V4.34098H4.8439V12.2351ZM1.45555 0.76618C1.02617 0.76618 0.767944 1.0244 0.765396 1.45634C0.765396 1.50475 0.765396 1.76425 0.765821 2.12356C0.766246 2.51005 0.767095 3.00399 0.767095 3.44186V3.56928H12.2173L12.2262 3.45121C12.2275 3.43677 12.2284 3.42275 12.2296 3.40959C12.2326 3.37391 12.236 3.33696 12.236 3.29916C12.2369 2.68843 12.2373 2.07811 12.2364 1.46738C12.236 1.02823 11.9757 0.76618 11.5399 0.76618C9.85932 0.76618 8.17831 0.76618 6.49773 0.76618C4.81715 0.76618 3.13656 0.76618 1.45598 0.76618H1.45555Z" fill="#535358"/>
</svg>
