<svg width="38" height="38" viewBox="0 0 38 38" fill="none" xmlns="http://www.w3.org/2000/svg">
<path d="M2.12122 36.9987C1.96674 36.9987 1.81142 37.0029 1.65779 36.9911C1.26105 36.9624 1.04241 36.7471 1.01033 36.3563C0.998512 36.217 1.0019 36.0752 1.0019 35.9342V2.0475C0.996928 1.89287 1.00171 1.73809 1.01624 1.58407C1.05845 1.24642 1.25598 1.05396 1.59195 1.01513C1.74604 1.00175 1.90077 0.997238 2.05537 1.00162H35.9421C36.0967 0.99766 36.2514 1.00217 36.4055 1.01513C36.7432 1.05143 36.9398 1.24642 36.9837 1.58069C36.9982 1.73471 37.003 1.88949 36.9981 2.04412C36.9981 13.3554 36.9981 24.6651 36.9981 35.973C37.0035 36.1277 36.9978 36.2826 36.9812 36.4365C36.9705 36.5787 36.9087 36.7122 36.8072 36.8124C36.7057 36.9127 36.5715 36.9728 36.4291 36.9818C36.247 36.9981 36.0641 37.0035 35.8813 36.9978L2.12122 36.9987ZM35.5403 8.50341H11.3307V35.5265H35.5403V8.50341ZM9.84162 35.5408C9.84837 35.372 9.85934 35.2471 9.85934 35.1188C9.85934 26.3826 9.86188 17.6467 9.86695 8.91111C9.86695 8.55826 9.76395 8.46118 9.41617 8.46371C7.23579 8.47806 5.0554 8.47047 2.87417 8.47047H2.47406V35.5375L9.84162 35.5408ZM2.46307 7.00001H35.5318V2.48054H2.46645L2.46307 7.00001Z" fill="black"/>
<path d="M15.2651 25.0686C15.2651 22.6775 15.2651 20.2858 15.2651 17.8935C15.2651 17.0924 15.4584 16.9 16.2595 16.9H30.6097C31.3652 16.9 31.599 17.1287 31.599 17.8732C31.599 22.6836 31.599 27.4952 31.599 32.3078C31.599 33.0785 31.4049 33.2642 30.6182 33.2642H16.268C15.4424 33.2642 15.266 33.0861 15.266 32.2445C15.2654 29.8528 15.2651 27.4609 15.2651 25.0686ZM30.1378 18.3738H16.7415V31.7955H30.1378V18.3738Z" fill="black"/>
<path d="M23.389 13.0904C20.9579 13.0904 18.5263 13.0904 16.0941 13.0904C15.5361 13.0904 15.2677 12.8481 15.271 12.3653C15.271 11.9432 15.5142 11.69 15.9413 11.6588C16.0113 11.6537 16.0823 11.6588 16.1523 11.6588H30.7C31.2546 11.6588 31.5442 11.8664 31.5881 12.2859C31.6412 12.7924 31.3593 13.0904 30.8106 13.0921C29.3072 13.0921 27.803 13.0921 26.2987 13.0921L23.389 13.0904Z" fill="black"/>
<path d="M2.12122 36.9987C1.96674 36.9987 1.81142 37.0029 1.65779 36.9911C1.26105 36.9624 1.04241 36.7471 1.01033 36.3563C0.998512 36.217 1.0019 36.0752 1.0019 35.9342V2.0475C0.996928 1.89287 1.00171 1.73809 1.01624 1.58407C1.05845 1.24642 1.25598 1.05396 1.59195 1.01513C1.74604 1.00175 1.90077 0.997238 2.05537 1.00162H35.9421C36.0967 0.99766 36.2514 1.00217 36.4055 1.01513C36.7432 1.05143 36.9398 1.24642 36.9837 1.58069C36.9982 1.73471 37.003 1.88949 36.9981 2.04412C36.9981 13.3554 36.9981 24.6651 36.9981 35.973C37.0035 36.1277 36.9978 36.2826 36.9812 36.4365C36.9705 36.5787 36.9087 36.7122 36.8072 36.8124C36.7057 36.9127 36.5715 36.9728 36.4291 36.9818C36.247 36.9981 36.0641 37.0035 35.8813 36.9978L2.12122 36.9987ZM35.5403 8.50341H11.3307V35.5265H35.5403V8.50341ZM9.84162 35.5408C9.84837 35.372 9.85934 35.2471 9.85934 35.1188C9.85934 26.3826 9.86188 17.6467 9.86695 8.91111C9.86695 8.55826 9.76395 8.46118 9.41617 8.46371C7.23579 8.47806 5.0554 8.47047 2.87417 8.47047H2.47406V35.5375L9.84162 35.5408ZM2.46307 7.00001H35.5318V2.48054H2.46645L2.46307 7.00001Z" stroke="black" stroke-width="0.2" stroke-miterlimit="10"/>
<path d="M15.2651 25.0686C15.2651 22.6775 15.2651 20.2858 15.2651 17.8935C15.2651 17.0924 15.4584 16.9 16.2595 16.9H30.6097C31.3652 16.9 31.599 17.1287 31.599 17.8732C31.599 22.6836 31.599 27.4952 31.599 32.3078C31.599 33.0785 31.4049 33.2642 30.6182 33.2642H16.268C15.4424 33.2642 15.266 33.0861 15.266 32.2445C15.2654 29.8528 15.2651 27.4609 15.2651 25.0686ZM30.1378 18.3738H16.7415V31.7955H30.1378V18.3738Z" stroke="black" stroke-width="0.2" stroke-miterlimit="10"/>
<path d="M23.389 13.0904C20.9579 13.0904 18.5263 13.0904 16.0941 13.0904C15.5361 13.0904 15.2677 12.8481 15.271 12.3653C15.271 11.9432 15.5142 11.69 15.9413 11.6588C16.0113 11.6537 16.0823 11.6588 16.1523 11.6588H30.7C31.2546 11.6588 31.5442 11.8664 31.5881 12.2859C31.6412 12.7924 31.3593 13.0904 30.8106 13.0921C29.3072 13.0921 27.803 13.0921 26.2987 13.0921L23.389 13.0904Z" stroke="black" stroke-width="0.2" stroke-miterlimit="10"/>
</svg>
