<svg width="24" height="6" viewBox="0 0 24 6" fill="none" xmlns="http://www.w3.org/2000/svg">
<path d="M20.9526 5.9789C20.3865 6.0507 19.8134 5.93708 19.3092 5.65315C18.8051 5.36921 18.3938 4.92836 18.1298 4.38911C17.8659 3.84985 17.7618 3.23761 17.8313 2.63374C17.9009 2.02986 18.1409 1.46294 18.5193 1.008C18.8978 0.553063 19.3969 0.231723 19.9505 0.086599C20.5041 -0.058525 21.0859 -0.0205867 21.6188 0.195427C22.1516 0.411442 22.6104 0.795317 22.9341 1.29608C23.2579 1.79684 23.4313 2.39079 23.4315 2.99922C23.4703 3.74453 23.2315 4.47606 22.7671 5.03422C22.3027 5.59238 21.6505 5.93193 20.9526 5.9789V5.9789ZM12.2651 5.9789C11.6991 6.05094 11.1259 5.93749 10.6216 5.65373C10.1174 5.36996 9.70588 4.92933 9.44174 4.39012C9.17761 3.85092 9.07334 3.2387 9.14275 2.63476C9.21217 2.03082 9.45201 1.46365 9.83042 1.00859C10.2088 0.55352 10.7079 0.232131 11.2615 0.08689C11.8151 -0.0583509 12.397 -0.0205256 12.9299 0.195427C13.4629 0.41138 13.9217 0.795166 14.2455 1.29593C14.5693 1.7967 14.7428 2.39075 14.7429 2.99922C14.7821 3.74442 14.5435 4.47587 14.0793 5.03407C13.6152 5.59228 12.963 5.93193 12.2651 5.9789V5.9789ZM3.57772 5.9789C3.0117 6.0507 2.4386 5.93708 1.93447 5.65315C1.43034 5.36921 1.01903 4.92836 0.755069 4.38911C0.49111 3.84985 0.386993 3.23761 0.456555 2.63374C0.526118 2.02986 0.766084 1.46294 1.14457 1.008C1.52305 0.553063 2.02217 0.231723 2.57573 0.086599C3.12929 -0.058525 3.71112 -0.0205867 4.244 0.195427C4.77687 0.411442 5.23561 0.795317 5.55936 1.29608C5.88311 1.79684 6.05655 2.39079 6.05668 2.99922C6.09579 3.74461 5.85708 4.47628 5.39266 5.03451C4.92824 5.59275 4.27579 5.93223 3.57772 5.9789V5.9789Z" fill="#3A3A3A"/>
</svg>
