<svg width="15" height="5" viewBox="0 0 15 5" fill="none" xmlns="http://www.w3.org/2000/svg">
<path d="M13.3807 4.32012C13.0115 4.36398 12.6377 4.29457 12.3089 4.12108C11.9802 3.94759 11.7119 3.67824 11.5398 3.34875C11.3676 3.01926 11.2997 2.64518 11.3451 2.27622C11.3904 1.90725 11.5469 1.56086 11.7938 1.28289C12.0406 1.00492 12.3661 0.808581 12.7271 0.71991C13.0882 0.631239 13.4676 0.65442 13.8151 0.786405C14.1627 0.91839 14.4619 1.15294 14.673 1.4589C14.8841 1.76487 14.9972 2.12778 14.9973 2.49952C15.0226 2.95491 14.8669 3.40188 14.5641 3.74291C14.2612 4.08395 13.8359 4.29141 13.3807 4.32012ZM7.71496 4.32012C7.3458 4.36413 6.97196 4.29482 6.64309 4.12143C6.31422 3.94805 6.04587 3.67883 5.87361 3.34937C5.70134 3.01991 5.63334 2.64585 5.67861 2.27684C5.72388 1.90783 5.8803 1.56129 6.12709 1.28325C6.37389 1.0052 6.69939 0.80883 7.06041 0.720088C7.42144 0.631346 7.80093 0.654457 8.1485 0.786405C8.49608 0.918352 8.7953 1.15285 9.00649 1.45882C9.21767 1.76479 9.33081 2.12775 9.33091 2.49952C9.35643 2.95484 9.20085 3.40176 8.89812 3.74283C8.5954 4.08389 8.17009 4.29142 7.71496 4.32012ZM2.04925 4.32012C1.6801 4.36398 1.30634 4.29457 0.977558 4.12108C0.648775 3.94759 0.380531 3.67824 0.208384 3.34875C0.036237 3.01926 -0.0316657 2.64518 0.0137011 2.27622C0.0590679 1.90725 0.215568 1.56086 0.462405 1.28289C0.709242 1.00492 1.03475 0.808581 1.39577 0.71991C1.75679 0.631239 2.13624 0.65442 2.48377 0.786405C2.8313 0.91839 3.13048 1.15294 3.34162 1.4589C3.55276 1.76487 3.66587 2.12778 3.66596 2.49952C3.69146 2.95496 3.53578 3.40201 3.2329 3.74309C2.93002 4.08418 2.50451 4.2916 2.04925 4.32012Z" fill="#CFCFCF"/>
</svg>
