<svg width="42" height="42" viewBox="0 0 42 42" fill="none" xmlns="http://www.w3.org/2000/svg">
<path d="M20.9795 41C9.9375 41 0.992861 32.0018 1 20.9107C1.00715 9.9384 10.0241 0.99197 21.0688 1.00001C32.0741 1.00715 41.0143 10.0179 41.0036 21.0893C40.992 32.05 31.9839 41.0045 20.9795 41ZM3.68036 21C3.68036 30.5589 11.4187 38.3125 20.9803 38.3295C30.5419 38.3464 38.3304 30.5839 38.3321 21.008C38.3321 11.4473 30.5955 3.69554 21.0321 3.67947C11.4687 3.6634 3.68036 11.4188 3.68036 21Z" fill="black"/>
<path d="M22.3411 15.217C22.3411 16.7786 22.3509 18.342 22.3339 19.9027C22.3224 20.0471 22.3489 20.192 22.4106 20.3231C22.4723 20.4541 22.5671 20.5668 22.6857 20.65C24.5905 22.1518 26.4824 23.6667 28.3616 25.1946C28.6223 25.4094 28.8203 25.6903 28.9348 26.008C29.018 26.2736 29.0106 26.5594 28.9136 26.8203C28.8166 27.0811 28.6356 27.3024 28.3991 27.4491C27.9062 27.7661 27.283 27.7295 26.7786 27.3304C25.858 26.6009 24.9455 25.8616 24.0286 25.1268C22.7866 24.1321 21.5482 23.133 20.3 22.1464C20.0912 21.9919 19.9234 21.7885 19.8113 21.5541C19.6992 21.3197 19.6463 21.0614 19.6571 20.8018C19.6678 17.3357 19.6571 13.8705 19.6643 10.4045C19.6643 9.65625 20.158 9.0875 20.8429 9.01339C21.1711 8.97331 21.5026 9.05678 21.7727 9.24755C22.0429 9.43832 22.2324 9.72276 22.3044 10.0455C22.3349 10.2058 22.3466 10.3691 22.3393 10.5321C22.3405 12.094 22.3411 13.6557 22.3411 15.217Z" fill="black"/>
<path d="M20.9795 41C9.9375 41 0.992861 32.0018 1 20.9107C1.00715 9.9384 10.0241 0.99197 21.0688 1.00001C32.0741 1.00715 41.0143 10.0179 41.0036 21.0893C40.992 32.05 31.9839 41.0045 20.9795 41ZM3.68036 21C3.68036 30.5589 11.4187 38.3125 20.9803 38.3295C30.5419 38.3464 38.3304 30.5839 38.3321 21.008C38.3321 11.4473 30.5955 3.69554 21.0321 3.67947C11.4687 3.6634 3.68036 11.4188 3.68036 21Z" stroke="black" stroke-width="0.2" stroke-miterlimit="10"/>
<path d="M22.3411 15.217C22.3411 16.7786 22.3509 18.342 22.3339 19.9027C22.3224 20.0471 22.3489 20.192 22.4106 20.3231C22.4723 20.4541 22.5671 20.5668 22.6857 20.65C24.5905 22.1518 26.4824 23.6667 28.3616 25.1946C28.6223 25.4094 28.8203 25.6903 28.9348 26.008C29.018 26.2736 29.0106 26.5594 28.9136 26.8203C28.8166 27.0811 28.6356 27.3024 28.3991 27.4491C27.9062 27.7661 27.283 27.7295 26.7786 27.3304C25.858 26.6009 24.9455 25.8616 24.0286 25.1268C22.7866 24.1321 21.5482 23.133 20.3 22.1464C20.0912 21.9919 19.9234 21.7885 19.8113 21.5541C19.6992 21.3197 19.6463 21.0614 19.6571 20.8018C19.6678 17.3357 19.6571 13.8705 19.6643 10.4045C19.6643 9.65625 20.158 9.0875 20.8429 9.01339C21.1711 8.97331 21.5026 9.05678 21.7727 9.24755C22.0429 9.43832 22.2324 9.72276 22.3044 10.0455C22.3349 10.2058 22.3466 10.3691 22.3393 10.5321C22.3405 12.094 22.3411 13.6557 22.3411 15.217Z" stroke="black" stroke-width="0.2" stroke-miterlimit="10"/>
</svg>
