<svg width="18" height="20" viewBox="0 0 18 20" fill="none" xmlns="http://www.w3.org/2000/svg">
<path d="M8.57143 18.5714C10.4658 18.5714 12.2826 17.8189 13.6222 16.4793C14.9617 15.1398 15.7143 13.3229 15.7143 11.4285C15.7143 9.53414 14.9617 7.71733 13.6222 6.37778C12.2826 5.03824 10.4658 4.28569 8.57143 4.28569C6.67702 4.28569 4.86021 5.03824 3.52067 6.37778C2.18112 7.71733 1.42857 9.53414 1.42857 11.4285C1.42857 13.3229 2.18112 15.1398 3.52067 16.4793C4.86021 17.8189 6.67702 18.5714 8.57143 18.5714ZM8.57143 20C6.29814 20 4.11797 19.0969 2.51051 17.4895C0.903059 15.882 0 13.7018 0 11.4285C0 9.15526 0.903059 6.97508 2.51051 5.36763C4.11797 3.76018 6.29814 2.85712 8.57143 2.85712C10.8447 2.85712 13.0249 3.76018 14.6323 5.36763C16.2398 6.97508 17.1429 9.15526 17.1429 11.4285C17.1429 13.7018 16.2398 15.882 14.6323 17.4895C13.0249 19.0969 10.8447 20 8.57143 20Z" fill="#959595"/>
<path d="M8.57142 5.71429C8.76086 5.71429 8.94254 5.78955 9.07649 5.9235C9.21045 6.05746 9.2857 6.23914 9.2857 6.42858L9.27427 11.4286C9.27427 11.618 9.19902 11.7997 9.06506 11.9337C8.93111 12.0676 8.74943 12.1429 8.55999 12.1429C8.37055 12.1429 8.18887 12.0676 8.05491 11.9337C7.92096 11.7997 7.8457 11.618 7.8457 11.4286L7.85713 6.42858C7.85713 6.23914 7.93239 6.05746 8.06634 5.9235C8.2003 5.78955 8.38198 5.71429 8.57142 5.71429Z" fill="#959595"/>
<path d="M7.14286 11.4286C7.14286 11.8075 7.29337 12.1708 7.56128 12.4387C7.82919 12.7066 8.19255 12.8571 8.57143 12.8571C8.95031 12.8571 9.31367 12.7066 9.58158 12.4387C9.84949 12.1708 10 11.8075 10 11.4286C10 11.0497 9.84949 10.6863 9.58158 10.4184C9.31367 10.1505 8.95031 10 8.57143 10C8.19255 10 7.82919 10.1505 7.56128 10.4184C7.29337 10.6863 7.14286 11.0497 7.14286 11.4286ZM9.28571 1.42857V4.28571H7.85714V1.42857H5.71429C5.52485 1.42857 5.34316 1.35332 5.20921 1.21936C5.07526 1.08541 5 0.903726 5 0.714286C5 0.524845 5.07526 0.343164 5.20921 0.209209C5.34316 0.0752549 5.52485 0 5.71429 0H11.4286C11.618 0 11.7997 0.0752549 11.9336 0.209209C12.0676 0.343164 12.1429 0.524845 12.1429 0.714286C12.1429 0.903726 12.0676 1.08541 11.9336 1.21936C11.7997 1.35332 11.618 1.42857 11.4286 1.42857H9.28571Z" fill="#959595"/>
</svg>
