<svg width="32" height="41" viewBox="0 0 32 41" fill="none" xmlns="http://www.w3.org/2000/svg">
<path d="M0.000781943 22.0199V6.86505C0.000781943 4.66602 1.50299 3.15756 3.69186 3.156C4.99409 3.156 6.29631 3.16459 7.59776 3.14506C7.79457 3.13464 7.98135 3.05495 8.12506 2.92008C9.39838 1.63739 10.9287 0.974945 12.734 0.967133C14.7909 0.960884 16.8477 0.967133 18.9053 0.967133C20.7583 0.967133 22.3246 1.62567 23.619 2.95289C23.7454 3.07111 23.9101 3.14011 24.083 3.14741C25.4243 3.16303 26.7648 3.15366 28.1061 3.15678C30.1708 3.16225 31.712 4.69649 31.7128 6.7549C31.7128 16.9623 31.7128 27.1697 31.7128 37.3772C31.7128 39.4168 30.17 40.9636 28.1366 40.9644C19.9472 40.9644 11.7583 40.9644 3.56999 40.9644C1.53892 40.9644 0.00156236 39.4137 0 37.3709C0.000520787 32.2531 0.000781943 27.1362 0.000781943 22.0199ZM6.5627 5.50189H3.79263C2.7771 5.50189 2.34041 5.93544 2.34041 6.94316V37.1748C2.34041 38.1904 2.77397 38.6208 3.78638 38.6208H27.9249C28.9404 38.6208 29.3724 38.1873 29.3724 37.1756V7.68528C29.3724 7.37281 29.3724 7.06034 29.3724 6.74787C29.3614 6.00028 28.8701 5.50813 28.117 5.50267C27.2187 5.49642 26.3203 5.50267 25.422 5.50267C25.3243 5.50267 25.2267 5.51829 25.1524 5.52454C25.2157 6.07762 25.2977 6.60413 25.3313 7.13299C25.3845 7.96963 24.9087 8.47193 24.0814 8.47193C18.6007 8.47506 13.1199 8.47506 7.63917 8.47193C6.81424 8.47193 6.33381 7.96495 6.38928 7.13299C6.41818 6.60491 6.5002 6.0784 6.5627 5.50189ZM8.9242 6.10105H22.787C22.3683 4.55822 20.8341 3.34583 19.1936 3.32317C16.9688 3.29297 14.7435 3.29297 12.5176 3.32317C10.8803 3.34583 9.33745 4.56603 8.92733 6.10105H8.9242Z" fill="black"/>
<path d="M19.9279 14.5183C19.7977 14.4992 19.6688 14.4718 19.542 14.4362C19.2872 14.3457 19.0715 14.1699 18.9315 13.9385C18.7915 13.7071 18.7359 13.4344 18.7741 13.1667C18.8123 12.8989 18.9419 12.6526 19.1409 12.4696C19.34 12.2865 19.5962 12.1779 19.8662 12.1622C20.8935 12.1325 21.923 12.1263 22.9495 12.1669C23.6268 12.1943 24.0541 12.7083 24.0588 13.3887C24.0643 14.2995 24.0588 15.2104 24.0588 16.1228C24.0588 16.9243 23.6424 17.4336 22.9651 17.4696C22.2707 17.5063 21.8012 17.061 21.6949 16.2087C21.5731 16.3251 21.4754 16.4134 21.3825 16.5072C20.3341 17.556 19.2858 18.6054 18.2374 19.6553C17.5805 20.3123 16.9579 20.3154 16.3087 19.667C15.2671 18.6255 14.2276 17.5839 13.1902 16.5423C13.1004 16.4525 13.0051 16.3665 12.8942 16.2619C12.7809 16.3689 12.6762 16.4618 12.577 16.5603C11.5747 17.5633 10.5748 18.5703 9.56867 19.5702C9.05466 20.0818 8.33441 20.1107 7.86258 19.6483C7.36497 19.1647 7.38059 18.4531 7.91258 17.918C9.26089 16.5608 10.6118 15.2067 11.9653 13.8558C12.577 13.2442 13.2113 13.2496 13.8355 13.8691C14.9705 14.9971 16.1009 16.1283 17.2156 17.2399L19.9279 14.5183Z" fill="black"/>
<path d="M19.8021 25.2384C21.3645 25.2384 22.9269 25.2275 24.4892 25.2431C25.4516 25.2533 26.0086 26.1914 25.543 26.9875C25.279 27.4374 24.8572 27.5921 24.3549 27.5913C22.5722 27.5882 20.7898 27.5882 19.0077 27.5913C17.7328 27.5913 16.4571 27.6023 15.1799 27.5913C14.223 27.5804 13.6339 26.7203 14.0214 25.9133C14.2558 25.4275 14.6675 25.2376 15.1979 25.2408C16.7321 25.2431 18.2671 25.2384 19.8021 25.2384Z" fill="black"/>
<path d="M19.8224 31.973C21.3575 31.973 22.8933 31.973 24.4314 31.973C25.1946 31.973 25.7094 32.4534 25.7032 33.1447C25.6977 33.8072 25.1688 34.3165 24.4533 34.3165C21.3567 34.3212 18.2601 34.3212 15.1635 34.3165C14.5143 34.3165 14.0097 33.8954 13.9136 33.301C13.8751 33.028 13.9349 32.7503 14.0823 32.5173C14.2297 32.2844 14.4551 32.1114 14.7182 32.0292C14.8806 31.9857 15.0486 31.9667 15.2166 31.973C16.7516 31.9706 18.2866 31.973 19.8224 31.973Z" fill="black"/>
<path d="M8.3391 26.043C8.95701 25.4228 9.51087 24.8541 10.078 24.3033C10.4334 23.9596 10.8662 23.8526 11.3365 24.0377C11.7739 24.2096 12.0685 24.5525 12.0536 25.0119C12.0427 25.3353 11.9263 25.7282 11.7146 25.9587C10.9053 26.839 10.0491 27.6773 9.18902 28.51C8.68672 28.9967 8.01725 28.9787 7.51027 28.4944C7.09364 28.0996 6.68924 27.6944 6.29709 27.2789C5.81666 26.7703 5.81979 26.0563 6.28459 25.597C6.74939 25.1376 7.45636 25.1486 7.96725 25.6282C8.08912 25.7423 8.19223 25.8774 8.3391 26.043Z" fill="black"/>
<path d="M8.30707 32.8096C8.94998 32.1628 9.49681 31.6089 10.0491 31.0598C10.4038 30.7067 10.8303 30.5981 11.3037 30.7574C11.7771 30.9168 12.0661 31.2691 12.0536 31.7456C12.045 32.0675 11.9255 32.4604 11.7138 32.6909C10.9045 33.5705 10.0452 34.4095 9.18825 35.2406C8.6961 35.7203 8.00788 35.7031 7.50871 35.2227C7.09624 34.8258 6.69003 34.422 6.29553 34.0072C5.81589 33.5049 5.82058 32.7885 6.28772 32.3276C6.75487 31.8667 7.42981 31.8698 7.93523 32.3354C8.06725 32.4565 8.16099 32.6198 8.30707 32.8096Z" fill="black"/>
</svg>
