<svg width="17" height="20" viewBox="0 0 17 20" fill="none" xmlns="http://www.w3.org/2000/svg">
<path d="M13.85 5.15V1.8H16C16.11 1.8 16.2 1.71 16.2 1.6V0.2C16.2 0.09 16.11 0 16 0H0.2C0.09 0 0 0.09 0 0.2V1.6C0 1.71 0.09 1.8 0.2 1.8H2.35V5.15C2.35 7.1875 3.41 8.98 5.01 10C3.41 11.02 2.35 12.8125 2.35 14.85V18.2H0.2C0.09 18.2 0 18.29 0 18.4V19.8C0 19.91 0.09 20 0.2 20H16C16.11 20 16.2 19.91 16.2 19.8V18.4C16.2 18.29 16.11 18.2 16 18.2H13.85V14.85C13.85 12.8125 12.79 11.02 11.19 10C12.79 8.98 13.85 7.1875 13.85 5.15ZM12.05 14.85V18.2H4.15V14.85C4.15 13.795 4.56 12.8025 5.3075 12.0575C6.0525 11.31 7.045 10.9 8.1 10.9C9.155 10.9 10.1475 11.31 10.8925 12.0575C11.64 12.8025 12.05 13.795 12.05 14.85ZM12.05 5.15C12.05 6.205 11.64 7.1975 10.8925 7.9425C10.1475 8.69 9.155 9.1 8.1 9.1C7.045 9.1 6.0525 8.69 5.3075 7.9425C4.93915 7.57696 4.64713 7.14184 4.44842 6.66245C4.24971 6.18305 4.14827 5.66894 4.15 5.15V1.8H12.05V5.15Z" fill="#959595"/>
</svg>
