<svg width="14" height="15" viewBox="0 0 14 15" fill="none" xmlns="http://www.w3.org/2000/svg">
<path d="M10.8727 0.195312H3.12733C1.40015 0.195312 0 1.59546 0 3.32264V11.068C0 12.7952 1.40015 14.1953 3.12733 14.1953H10.8727C12.5998 14.1953 14 12.7952 14 11.068V3.32264C14 1.59546 12.5998 0.195312 10.8727 0.195312Z" fill="#FF9600"/>
<path d="M6.91067 10.8131H7.67511C7.67511 10.9144 7.63484 11.0117 7.56316 11.0834C7.49148 11.155 7.39426 11.1953 7.29289 11.1953C7.19152 11.1953 7.0943 11.155 7.02262 11.0834C6.95094 11.0117 6.91067 10.9144 6.91067 10.8131ZM6.62345 10.4304C6.52211 10.4304 6.42492 10.3902 6.35318 10.3187C6.28144 10.2471 6.24102 10.15 6.24078 10.0486V8.89977H8.34411V10.0486C8.34387 10.15 8.30346 10.2471 8.23172 10.3187C8.15998 10.3902 8.06278 10.4304 7.96145 10.4304H6.62345ZM6.2293 8.32798C6.10381 7.31344 5 6.91398 5 5.35063C5.03625 4.76701 5.29364 4.21916 5.71974 3.81871C6.14584 3.41825 6.70859 3.19531 7.29333 3.19531C7.87808 3.19531 8.44082 3.41825 8.86692 3.81871C9.29302 4.21916 9.55042 4.76701 9.58666 5.35063C9.58666 6.91486 8.48197 7.31255 8.35648 8.32798H6.2293Z" fill="white"/>
</svg>
