<svg width="8" height="8" viewBox="0 0 8 8" fill="none" xmlns="http://www.w3.org/2000/svg">
<path d="M3.21578 7.94246C2.51829 7.8091 1.87028 7.4883 1.34131 7.0145C0.620678 6.38598 0.151872 5.51789 0.0215095 4.5706C0.00927739 4.48877 0.0168719 4.40526 0 4.32428V3.6688C0.0185591 3.54605 0.017713 3.42162 0.0396465 3.29887C0.157444 2.63178 0.441661 2.0052 0.86598 1.47714C1.2903 0.949083 1.841 0.536622 2.46709 0.277963C2.77374 0.149814 3.09596 0.0627273 3.42541 0.0189737C3.50681 0.00842875 3.5895 0.0143411 3.67048 0H4.27702C4.40947 0.0181373 4.54402 0.0151822 4.67646 0.0396465C5.25543 0.144259 5.80445 0.374464 6.2849 0.714049C6.76535 1.05363 7.16556 1.49434 7.45738 2.00521C7.73837 2.48528 7.90977 3.02153 7.95932 3.57558C8.03166 4.26164 7.9274 4.9548 7.65646 5.58923C7.46374 6.02771 7.19644 6.42945 6.86644 6.77659C6.4859 7.17636 6.0262 7.4924 5.51668 7.70455C5.11922 7.87837 4.69278 7.97636 4.25931 7.99348C4.14669 7.99686 4.03406 7.99938 3.92186 7.99938C3.6852 8.00378 3.44869 7.98473 3.21578 7.94246ZM3.31659 3.6532C3.36488 3.65807 3.40989 3.67988 3.44363 3.71478C3.47738 3.74968 3.49767 3.7954 3.50092 3.84383C3.51669 3.94676 3.51224 4.05179 3.48784 4.15302C3.42963 4.44828 3.33726 4.7351 3.25543 5.02445C3.17749 5.26377 3.12864 5.5116 3.10991 5.7626C3.10099 5.89177 3.13358 6.02042 3.20294 6.12976C3.27229 6.23911 3.37478 6.32341 3.49543 6.3704C3.69458 6.4472 3.91121 6.46692 4.12096 6.42734C4.3473 6.37413 4.56816 6.29985 4.78065 6.20548C4.79583 6.2 4.80933 6.19367 4.81355 6.17595C4.83295 6.09159 4.85319 6.00724 4.87471 5.91614C4.76401 5.9583 4.64879 5.98746 4.53137 6.00302C4.22851 6.03128 4.09987 5.89632 4.14332 5.59515C4.18605 5.35538 4.24237 5.11822 4.31204 4.88484C4.42189 4.56866 4.49575 4.2411 4.53221 3.90837C4.54187 3.78644 4.51933 3.66412 4.46684 3.55364C4.40903 3.4487 4.32433 3.36105 4.22144 3.29967C4.11855 3.23829 4.00118 3.2054 3.88138 3.20439C3.61451 3.19672 3.34898 3.24499 3.10189 3.34611C2.91377 3.40517 2.77037 3.48532 2.79778 3.72111C2.82604 3.71183 2.85978 3.70128 2.89353 3.68947C2.9837 3.65705 3.07863 3.63979 3.17445 3.63842C3.22222 3.63824 3.26987 3.6432 3.31659 3.6532ZM4.0172 1.62391C3.94939 1.65987 3.88989 1.70966 3.84255 1.77006C3.7952 1.83046 3.76106 1.90012 3.74234 1.97455C3.72361 2.04898 3.72071 2.12652 3.73384 2.20213C3.74696 2.27775 3.77581 2.34976 3.81853 2.41352C3.88651 2.51439 3.983 2.59273 4.09568 2.63855C4.20836 2.68438 4.33213 2.6956 4.45122 2.67081C4.5992 2.64823 4.73251 2.56876 4.82273 2.44931C4.91295 2.32985 4.95295 2.17988 4.93419 2.03137C4.91092 1.89218 4.83857 1.76593 4.73024 1.67548C4.62192 1.58503 4.48477 1.53635 4.34366 1.53829H4.32553C4.21729 1.53988 4.11128 1.56923 4.01762 1.6235L4.0172 1.62391Z" fill="#CFCFCF"/>
</svg>
