<svg width="20" height="18" viewBox="0 0 20 18" fill="none" xmlns="http://www.w3.org/2000/svg">
<path d="M14.1265 17.9953C13.5953 17.9953 13.0636 17.9943 12.5324 17.9939C12.0868 17.9934 11.6408 17.9924 11.1952 17.9924H10.9393H5.66314C5.64942 17.9924 5.59029 17.9934 5.57421 17.9934C5.5359 17.9934 5.48481 17.9924 5.42994 17.9849C5.12957 17.9437 4.90346 17.6916 4.89211 17.3855C4.88076 17.0748 5.09125 16.808 5.39257 16.7507C5.49332 16.7318 5.58698 16.7299 5.6901 16.7299H7.66924C8.81632 16.729 9.96341 16.7285 11.1105 16.7285C13.0225 16.7285 14.5858 16.7295 16.0314 16.7318C16.5654 16.7318 16.9339 16.5611 17.195 16.194C17.493 15.7754 17.5294 15.3326 17.3038 14.8776C17.0711 14.4079 16.6936 14.1685 16.1823 14.1661C15.3048 14.1619 14.4406 14.1614 13.7854 14.1614C13.4198 14.1614 11.9558 14.1624 11.5901 14.1624C11.1502 14.1624 10.7103 14.1624 10.2699 14.1614C9.05473 14.159 8.0434 13.3757 7.75296 12.2121C7.56517 11.459 7.73404 10.67 8.217 10.047C8.69617 9.42832 9.41233 9.07024 10.181 9.06409C10.5982 9.06078 11.0452 9.05937 11.5878 9.05937C11.9501 9.05937 12.312 9.05984 12.6738 9.06078C13.0357 9.06126 13.3971 9.0622 13.759 9.0622C14.4614 9.0622 14.5205 9.53901 14.5219 9.68518C14.5238 9.85641 14.4661 10.0064 14.3554 10.118C14.2197 10.2552 14.0153 10.3252 13.7481 10.3252C13.7481 10.3252 12.1686 10.3257 11.7108 10.3257C11.2529 10.3257 10.7789 10.3257 10.313 10.3252C9.69757 10.3252 9.28556 10.5816 9.05094 11.1085C8.87782 11.4973 8.91329 11.9443 9.14649 12.3048C9.38159 12.6685 9.77987 12.8871 10.2113 12.8894C10.8404 12.8923 11.504 12.8937 12.3635 12.8937C12.7779 12.8937 13.1918 12.8937 13.6062 12.8932C14.0205 12.8932 14.4349 12.8928 14.8493 12.8928C15.2636 12.8928 15.6993 12.8928 16.1241 12.8942C17.3459 12.897 18.3572 13.6907 18.6406 14.8695C18.8203 15.6174 18.6458 16.4012 18.1614 17.0199C17.6827 17.6315 16.9736 17.9849 16.2163 17.9901C15.5971 17.9943 14.933 17.9962 14.1255 17.9962L14.1265 17.9953ZM16.5432 10.0144C17.4854 8.7273 18.2035 7.49082 18.7375 6.23494C19.0426 5.51783 19.3955 4.54151 19.4201 3.34665V3.32725L19.4182 3.30786C19.4149 3.2809 19.4121 3.24684 19.4088 3.20758C19.3984 3.08696 19.3846 2.92187 19.3501 2.75489C19.1845 1.94933 18.7711 1.25919 18.1543 0.758258C17.5517 0.269151 16.7811 0 15.9836 0C15.8194 0 15.6525 0.0113526 15.4874 0.0335847C14.0361 0.228471 12.7997 1.47016 12.6109 2.92187C12.5206 3.61675 12.5996 4.34189 12.8588 5.20374C13.3318 6.77655 14.162 8.31435 15.4713 10.0428C15.6108 10.2268 15.7958 10.3285 15.9926 10.3285C16.1993 10.3285 16.3946 10.2169 16.5432 10.0144ZM16.476 1.31075C17.4741 1.53591 18.1779 2.44885 18.1491 3.48193C18.1269 4.27661 17.862 5.02447 17.634 5.58689C17.2508 6.53105 16.7234 7.49696 15.9864 8.6029C15.4756 7.8664 15.0536 7.15402 14.7026 6.4355C14.266 5.54101 14.0186 4.8258 13.9018 4.11579C13.794 3.46396 13.8294 2.98242 14.0168 2.55528C14.3621 1.76675 15.1411 1.2573 16.0016 1.2573C16.1605 1.2573 16.3204 1.27527 16.476 1.31028V1.31075ZM16.0016 4.83384C16.7764 4.83384 17.4102 4.19998 17.415 3.42091C17.4173 3.04533 17.2707 2.68962 17.002 2.41905C16.7324 2.14706 16.3762 1.99711 15.9983 1.99616H15.9945C15.6189 1.99616 15.2636 2.14469 14.994 2.41479C14.7244 2.68489 14.5759 3.0406 14.5763 3.41618C14.5773 4.18863 15.2092 4.82485 15.985 4.83384H16.0011H16.0016ZM15.9973 2.68489L15.9987 2.88356C16.1406 2.88356 16.2736 2.93937 16.3734 3.04013C16.4736 3.14088 16.5285 3.27522 16.528 3.4176C16.5271 3.70993 16.2882 3.94786 15.9935 3.94786C15.7002 3.94692 15.4623 3.70662 15.4633 3.4124C15.4642 3.12054 15.704 2.88308 15.9973 2.88308V2.68441V2.68489ZM3.99526 17.6471C4.64614 16.7602 5.21471 15.8425 5.68537 14.9197C6.13711 14.0342 6.67494 12.844 6.82584 11.4879C6.93416 10.5158 6.62007 9.53806 5.96398 8.80535C5.31499 8.0802 4.39071 7.66442 3.42857 7.66442H3.41013C2.49104 7.66915 1.63108 8.03054 0.98824 8.68142C0.343981 9.33325 -0.00653019 10.1998 9.21494e-05 11.1208C0.00482239 11.784 0.132066 12.4703 0.388445 13.2187C0.888905 14.6808 1.67034 16.0904 2.8477 17.6547C3.02035 17.8841 3.2124 18 3.41959 18C3.62677 18 3.82308 17.8813 3.99526 17.6467V17.6471ZM3.6192 8.93874C4.75872 9.08491 5.56239 9.95906 5.57232 11.0645C5.57942 11.7986 5.35378 12.4883 5.157 13.0068C4.76534 14.0384 4.2067 15.0838 3.40871 16.2758C3.39262 16.2512 3.37654 16.2271 3.36046 16.2025C3.1599 15.8993 2.97069 15.6126 2.78952 15.3142C2.0568 14.1061 1.6273 13.1278 1.39646 12.1411C1.28388 11.6601 1.18928 11.092 1.33875 10.5286C1.58141 9.61375 2.46029 8.92408 3.38316 8.92408C3.46216 8.92408 3.54163 8.92928 3.61967 8.93922L3.6192 8.93874ZM3.41959 12.5016C3.7999 12.5016 4.15703 12.3535 4.42571 12.0839C4.69297 11.8162 4.83961 11.4609 4.83913 11.0839C4.83724 10.3077 4.20481 9.67382 3.42857 9.67051H3.42242C2.64288 9.67051 2.00524 10.3029 2.00099 11.0806C1.99909 11.4567 2.14526 11.8119 2.41252 12.081C2.68167 12.3516 3.0388 12.5011 3.41817 12.5011H3.41959V12.5016ZM3.42999 10.556C3.728 10.5626 3.95741 10.8006 3.95268 11.0981C3.94795 11.3814 3.70718 11.6203 3.42621 11.6203C3.42148 11.6203 3.41627 11.6203 3.41154 11.6203C3.1107 11.6113 2.88128 11.3673 2.88885 11.065C2.89595 10.7845 3.13341 10.556 3.41864 10.556H3.43046H3.42999Z" fill="white"/>
</svg>
