<svg width="20" height="20" viewBox="0 0 20 20" fill="none" xmlns="http://www.w3.org/2000/svg">
<path d="M10.0219 4.18607e-05C4.55108 -0.0158808 0.00656573 4.51271 9.3372e-06 9.98824C-0.00748368 15.4413 4.49582 19.9699 9.95449 19.9999C15.4132 20.0298 19.982 15.504 20.0008 10.0341C20.0195 4.56423 15.4993 0.0159645 10.0219 4.18607e-05ZM14.2367 7.6626C13.6645 8.44094 13.066 9.20054 12.4778 9.96764C11.6242 11.081 10.7703 12.1943 9.91608 13.3077C9.2183 14.2134 8.58888 14.2152 7.90233 13.3245C7.19705 12.4113 6.48147 11.5065 5.78368 10.5877C5.23107 9.86086 5.51019 9.10781 6.38032 8.92329C6.78213 8.83806 7.07155 8.99635 7.30851 9.31106C7.82366 9.9948 8.34536 10.672 8.90078 11.4035C10.1446 9.76532 11.3529 8.17774 12.5536 6.58641C12.741 6.34476 12.9339 6.12653 13.2486 6.07221C13.6954 5.99447 14.1019 6.0722 14.3585 6.48338C14.6151 6.89455 14.4934 7.30855 14.2349 7.65885L14.2367 7.6626Z" fill="#2AB67C"/>
</svg>
