<svg width="20" height="20" viewBox="0 0 20 20" fill="none" xmlns="http://www.w3.org/2000/svg">
<path d="M10.0234 4.18607e-05C4.55255 -0.0158808 0.00803057 4.51271 0.00147418 9.98824C-0.00601884 15.4413 4.49729 19.9699 9.95595 19.9999C15.4146 20.0298 19.9835 15.504 20.0022 10.0341C20.0209 4.56423 15.5008 0.0159645 10.0234 4.18607e-05ZM14.2382 7.6626C13.6659 8.44094 13.0674 9.20054 12.4792 9.96764C11.6256 11.081 10.7718 12.1943 9.91755 13.3077C9.21976 14.2134 8.59035 14.2152 7.9038 13.3245C7.19852 12.4113 6.48294 11.5065 5.78515 10.5877C5.23254 9.86086 5.51165 9.10781 6.38178 8.92329C6.78359 8.83806 7.07301 8.99635 7.30998 9.31106C7.82512 9.9948 8.34682 10.672 8.90224 11.4035C10.1461 9.76532 11.3543 8.17774 12.5551 6.58641C12.7424 6.34476 12.9354 6.12653 13.2501 6.07221C13.6968 5.99447 14.1033 6.0722 14.36 6.48338C14.6166 6.89455 14.4948 7.30855 14.2363 7.65885L14.2382 7.6626Z" fill="#BCBCBC"/>
</svg>
