<svg width="13" height="13" viewBox="0 0 13 13" fill="none" xmlns="http://www.w3.org/2000/svg">
<g clip-path="url(#clip0_10273_74749)">
<path d="M0.399443 2.24562C0.399443 2.33274 0.399443 2.41985 0.399443 2.49729C0.399443 5.00426 0.399443 7.52091 0.399443 10.0279C0.399443 10.386 0.417599 10.4054 0.771648 10.4054C2.3785 10.4054 3.98535 10.4054 5.5922 10.4054C5.65575 10.4054 5.73746 10.386 5.79193 10.415C5.86455 10.4635 5.96441 10.5409 5.97349 10.6086C5.98256 10.6667 5.88271 10.7538 5.81915 10.7926C5.76468 10.8216 5.68299 10.8022 5.61943 10.8022C3.98535 10.8022 2.35126 10.8022 0.717178 10.8022C0.2088 10.8022 0 10.5893 0 10.0763C0 6.9595 0 3.83305 0 0.716274C0 0.232306 0.217878 0 0.708106 0C4.56636 0 8.42462 0 12.2829 0C12.7731 0 13 0.222627 13 0.706601C13 3.83305 13 6.9595 13 10.0859C13 10.4538 12.8184 10.7248 12.5008 10.7732C12.4099 10.7829 12.301 10.6861 12.1921 10.6377C12.2556 10.5506 12.3192 10.4731 12.3827 10.386C12.4553 10.2989 12.5915 10.2118 12.5915 10.1247C12.6006 7.50155 12.6006 4.88811 12.5915 2.26498C12.5915 2.25531 12.5825 2.25531 12.5734 2.22626C8.52447 2.24562 4.47557 2.24562 0.399443 2.24562ZM12.5825 1.81005C12.5825 1.47127 12.5825 1.15185 12.5825 0.832427C12.5825 0.425894 12.5734 0.416215 12.174 0.416215C8.38831 0.416215 4.5936 0.416215 0.798888 0.416215C0.744419 0.425894 0.671793 0.396856 0.626396 0.425894C0.544697 0.474291 0.408521 0.561406 0.408521 0.629166C0.390365 1.01634 0.399443 1.40352 0.399443 1.80037C4.4665 1.81005 8.5154 1.81005 12.5825 1.81005Z" fill="#2F3990"/>
<path d="M8.3698 10.2602C8.3698 9.37933 8.3698 8.5469 8.3698 7.72415C8.3698 7.24986 8.36072 6.77557 8.3698 6.30128C8.37887 5.87539 8.69662 5.55596 9.08698 5.56564C9.46826 5.57532 9.78601 5.89474 9.78601 6.32064C9.79508 6.98851 9.78601 7.6564 9.78601 8.3146C10.2127 8.44042 10.6303 8.5469 11.0388 8.68242C11.5564 8.84696 11.8014 9.2051 11.8105 9.74715C11.8105 10.5409 11.8105 11.3346 11.8105 12.1283C11.8105 12.7187 11.52 12.9994 10.939 12.9994C10.3671 12.9994 9.78601 12.9897 9.21407 12.9994C8.79647 13.0091 8.4515 12.8349 8.18823 12.5251C7.69801 11.9443 7.22594 11.3539 6.74479 10.7635C6.66309 10.6667 6.59954 10.5602 6.54507 10.4441C6.41797 10.1343 6.48152 9.83426 6.70847 9.631C6.92635 9.43741 7.2441 9.39869 7.5346 9.5826C7.76155 9.72779 7.9522 9.92138 8.17008 10.0859C8.22455 10.1343 8.27902 10.173 8.3698 10.2602ZM8.76924 8.50819C8.76924 9.19542 8.77831 9.87298 8.76016 10.5602C8.76016 10.6667 8.67846 10.7828 8.64215 10.8893C8.53321 10.8409 8.41518 10.8119 8.31533 10.7538C8.17008 10.657 8.05206 10.5215 7.91589 10.4054C7.72524 10.2505 7.5346 10.0763 7.3258 9.94074C7.2441 9.89234 7.06253 9.89234 6.98991 9.9601C6.92635 10.0278 6.92635 10.1827 6.93544 10.2989C6.94451 10.3763 7.00806 10.4537 7.06253 10.5118C7.5346 11.0926 8.00667 11.683 8.48781 12.2637C8.66938 12.4864 8.90541 12.6122 9.21407 12.6122C9.78601 12.6025 10.3489 12.6122 10.9118 12.6122C11.293 12.6122 11.3929 12.5155 11.3929 12.1379C11.3929 11.3539 11.3929 10.5699 11.3929 9.77618C11.3929 9.38901 11.2567 9.18575 10.8936 9.07927C10.5123 8.96311 10.131 8.86632 9.74969 8.75985C9.45919 8.68242 9.37748 8.58562 9.37748 8.27588C9.37748 7.70479 9.37748 7.12402 9.37748 6.55294C9.37748 6.48518 9.37748 6.41743 9.37748 6.34967C9.35932 6.15608 9.27762 5.99154 9.05975 5.99154C8.85094 5.99154 8.7874 6.16577 8.76924 6.34C8.76016 6.40775 8.76924 6.47551 8.76924 6.54326C8.76924 7.19179 8.76924 7.84999 8.76924 8.50819Z" fill="#2F3990"/>
<path d="M3.59508 7.87894C2.97776 7.87894 2.36044 7.87894 1.74312 7.87894C1.34367 7.87894 1.16211 7.70471 1.16211 7.31753C1.16211 6.12696 1.16211 4.9364 1.16211 3.74582C1.16211 3.37801 1.34367 3.17474 1.72496 3.17474C2.97776 3.16506 4.22147 3.16506 5.47427 3.17474C5.85556 3.17474 6.03712 3.36833 6.03712 3.73615C6.03712 4.9364 6.03712 6.13665 6.03712 7.33689C6.03712 7.70471 5.86464 7.87894 5.49243 7.87894C4.85695 7.88861 4.23056 7.87894 3.59508 7.87894ZM3.61324 4.90735C3.48614 5.00415 3.39536 5.11063 3.27734 5.17838C3.17748 5.22678 3.02314 5.28486 2.94145 5.23645C2.85066 5.18806 2.76895 5.04287 2.74172 4.92671C2.71448 4.77184 2.74172 4.6073 2.74172 4.44274C2.74172 4.16205 2.74172 3.88134 2.74172 3.58128C2.41491 3.58128 2.1244 3.59095 1.84297 3.58128C1.63418 3.57159 1.57062 3.63936 1.57062 3.8523C1.57971 4.97512 1.57971 6.09793 1.57062 7.22074C1.57062 7.44336 1.64325 7.49176 1.84297 7.48208C3.01407 7.47241 4.19424 7.48208 5.36533 7.48208C5.44704 7.48208 5.52874 7.47241 5.61952 7.46272C5.61952 6.16568 5.61952 4.89768 5.61952 3.60064C5.22916 3.60064 4.85695 3.60064 4.45751 3.60064C4.45751 4.02653 4.45751 4.43307 4.45751 4.8396C4.45751 5.01383 4.43935 5.15902 4.25779 5.24614C4.07622 5.33325 3.95821 5.2171 3.84019 5.11063C3.77665 5.04287 3.70402 4.98479 3.61324 4.90735ZM3.15932 4.78153C3.4589 4.39435 3.74033 4.35563 4.03991 4.76217C4.03991 4.32659 4.03991 3.96846 4.03991 3.60064C3.74033 3.60064 3.44983 3.60064 3.15932 3.60064C3.15932 3.97813 3.15932 4.33627 3.15932 4.78153Z" fill="#2F3990"/>
<path d="M9.3687 4.73331C9.94063 4.73331 10.5034 4.73331 11.0663 4.73331C11.4839 4.73331 11.72 4.96561 11.729 5.38182C11.729 5.72061 11.7381 6.05938 11.729 6.39817C11.72 6.69822 11.5565 6.93053 11.266 6.97893C11.0209 7.01765 10.7576 7.01765 10.5125 6.99829C10.449 6.98861 10.34 6.87245 10.34 6.79502C10.34 6.73694 10.449 6.63047 10.5307 6.61112C10.694 6.58207 10.8666 6.60143 11.0391 6.60143C11.2387 6.61112 11.3386 6.52399 11.3386 6.32073C11.3296 6.02066 11.3296 5.71092 11.3386 5.41087C11.3386 5.21728 11.266 5.13016 11.0663 5.13984C9.93155 5.13984 8.79678 5.13984 7.67107 5.13984C7.48042 5.13984 7.38964 5.22695 7.38964 5.41087C7.38964 5.71092 7.38964 6.02066 7.38964 6.32073C7.38964 6.51432 7.48042 6.62079 7.68923 6.61112C7.84355 6.60143 7.97065 6.64015 7.96158 6.82406C7.95249 6.99829 7.80724 7.01765 7.66199 7.01765C7.27163 7.01765 7.00836 6.77566 6.9902 6.37881C6.98113 6.04002 6.98113 5.70125 6.9902 5.36246C7.00836 4.95593 7.25347 4.73331 7.66199 4.73331C8.21577 4.72362 8.78769 4.73331 9.3687 4.73331Z" fill="#2F3990"/>
<path d="M2.68686 8.89527C2.27834 8.89527 1.86074 8.89527 1.44314 8.89527C1.28881 8.89527 1.14356 8.85655 1.17079 8.68232C1.17987 8.60489 1.34328 8.49841 1.43406 8.49841C2.26018 8.47905 3.08631 8.47905 3.9215 8.49841C4.01229 8.49841 4.16661 8.61456 4.1757 8.69199C4.21201 8.83719 4.08491 8.89527 3.93058 8.89527C3.52206 8.88558 3.10446 8.89527 2.68686 8.89527Z" fill="#2F3990"/>
<path d="M1.86113 9.74682C1.69772 9.74682 1.53431 9.76618 1.37999 9.73714C1.29828 9.71779 1.23474 9.61131 1.16211 9.54356C1.23474 9.4758 1.30736 9.35964 1.37999 9.34997C1.68865 9.33061 2.00638 9.33061 2.31504 9.34997C2.38767 9.35964 2.46029 9.4758 2.52385 9.54356C2.45122 9.61131 2.38767 9.71779 2.30597 9.73714C2.16979 9.77586 2.01546 9.74682 1.86113 9.74682Z" fill="#2F3990"/>
<path d="M8.08879 0.919441C9.18727 0.919441 10.2857 0.919441 11.3842 0.919441C11.5295 0.919441 11.702 0.900082 11.711 1.10336C11.7201 1.3163 11.5476 1.32598 11.3842 1.32598C9.16911 1.32598 6.95402 1.32598 4.73893 1.32598C4.69353 1.32598 4.63906 1.34534 4.61183 1.3163C4.5392 1.25823 4.47565 1.18079 4.41211 1.11303C4.48474 1.05495 4.55736 0.9388 4.64814 0.9388C4.92049 0.919441 5.211 0.929126 5.48334 0.929126C6.34577 0.919441 7.22637 0.919441 8.08879 0.919441Z" fill="#2F3990"/>
<path d="M1.47931 1.10376C1.35221 1.20055 1.27959 1.30703 1.20696 1.29735C1.14341 1.29735 1.02539 1.19088 1.02539 1.12312C1.02539 1.05537 1.12525 0.948889 1.19788 0.939216C1.26143 0.929531 1.34313 1.01665 1.47931 1.10376Z" fill="#2F3990"/>
<path d="M2.3331 1.13283C2.19693 1.21994 2.11522 1.31673 2.05168 1.30706C1.97906 1.2877 1.87919 1.17154 1.88827 1.11347C1.88827 1.04571 2.00629 0.948912 2.07891 0.948912C2.13338 0.939238 2.20601 1.03603 2.3331 1.13283Z" fill="#2F3990"/>
<path d="M3.19542 1.09374C3.06833 1.20022 2.9957 1.30669 2.93215 1.29702C2.85952 1.29702 2.75058 1.19054 2.75058 1.12279C2.74151 1.05503 2.84136 0.948558 2.91399 0.929199C2.96846 0.929199 3.05017 1.01631 3.19542 1.09374Z" fill="#2F3990"/>
<path d="M4.47526 6.8723C4.35724 6.8723 4.23014 6.90134 4.1212 6.86262C4.03949 6.84326 3.97595 6.74646 3.90332 6.67871C3.96688 6.61095 4.02134 6.4948 4.08489 6.48513C4.34815 6.46577 4.61143 6.45608 4.86562 6.48513C4.93824 6.4948 4.99271 6.61095 5.06534 6.66903C4.99271 6.73679 4.92916 6.83359 4.84746 6.86262C4.72944 6.90134 4.60236 6.8723 4.47526 6.8723Z" fill="#2F3990"/>
</g>
<defs>
<clipPath id="clip0_10273_74749">
<rect width="13" height="13" fill="white"/>
</clipPath>
</defs>
</svg>
