<svg width="13" height="13" viewBox="0 0 13 13" fill="none" xmlns="http://www.w3.org/2000/svg">
<path d="M0.399443 2.24562C0.399443 2.33274 0.399443 2.41985 0.399443 2.49729C0.399443 5.00426 0.399443 7.52091 0.399443 10.0279C0.399443 10.386 0.417599 10.4054 0.771648 10.4054C2.3785 10.4054 3.98535 10.4054 5.5922 10.4054C5.65575 10.4054 5.73746 10.386 5.79193 10.415C5.86455 10.4635 5.96441 10.5409 5.97349 10.6086C5.98256 10.6667 5.88271 10.7538 5.81915 10.7926C5.76468 10.8216 5.68299 10.8022 5.61943 10.8022C3.98535 10.8022 2.35126 10.8022 0.717178 10.8022C0.2088 10.8022 0 10.5893 0 10.0763C0 6.9595 0 3.83305 0 0.716274C0 0.232306 0.217878 0 0.708106 0C4.56636 0 8.42462 0 12.2829 0C12.7731 0 13 0.222627 13 0.706601C13 3.83305 13 6.9595 13 10.0859C13 10.4538 12.8184 10.7248 12.5008 10.7732C12.4099 10.7829 12.301 10.6861 12.1921 10.6377C12.2556 10.5506 12.3192 10.4731 12.3827 10.386C12.4553 10.2989 12.5915 10.2118 12.5915 10.1247C12.6006 7.50155 12.6006 4.88811 12.5915 2.26498C12.5915 2.25531 12.5825 2.25531 12.5734 2.22626C8.52447 2.24562 4.47557 2.24562 0.399443 2.24562ZM12.5825 1.81005C12.5825 1.47127 12.5825 1.15185 12.5825 0.832427C12.5825 0.425894 12.5734 0.416215 12.174 0.416215C8.38831 0.416215 4.5936 0.416215 0.798888 0.416215C0.744419 0.425894 0.671793 0.396856 0.626396 0.425894C0.544697 0.474291 0.408521 0.561406 0.408521 0.629166C0.390365 1.01634 0.399443 1.40352 0.399443 1.80037C4.4665 1.81005 8.5154 1.81005 12.5825 1.81005Z" fill="#010101"/>
<path d="M8.37004 10.2602C8.37004 9.37933 8.37004 8.5469 8.37004 7.72415C8.37004 7.24986 8.36096 6.77557 8.37004 6.30128C8.37911 5.87539 8.69686 5.55596 9.08722 5.56564C9.4685 5.57532 9.78625 5.89474 9.78625 6.32064C9.79532 6.98851 9.78625 7.6564 9.78625 8.3146C10.2129 8.44042 10.6305 8.5469 11.039 8.68242C11.5566 8.84696 11.8016 9.2051 11.8107 9.74715C11.8107 10.5409 11.8107 11.3346 11.8107 12.1283C11.8107 12.7187 11.5202 12.9994 10.9392 12.9994C10.3673 12.9994 9.78625 12.9897 9.21431 12.9994C8.79671 13.0091 8.45174 12.8349 8.18847 12.5251C7.69825 11.9443 7.22618 11.3539 6.74503 10.7635C6.66333 10.6667 6.59978 10.5602 6.54531 10.4441C6.41821 10.1343 6.48176 9.83426 6.70871 9.631C6.92659 9.43741 7.24434 9.39869 7.53484 9.5826C7.76179 9.72779 7.95244 9.92138 8.17032 10.0859C8.22479 10.1343 8.27926 10.173 8.37004 10.2602ZM8.76948 8.50819C8.76948 9.19542 8.77855 9.87298 8.7604 10.5602C8.7604 10.6667 8.6787 10.7828 8.64239 10.8893C8.53345 10.8409 8.41542 10.8119 8.31557 10.7538C8.17032 10.657 8.0523 10.5215 7.91613 10.4054C7.72548 10.2505 7.53484 10.0763 7.32604 9.94074C7.24434 9.89234 7.06277 9.89234 6.99015 9.9601C6.92659 10.0278 6.92659 10.1827 6.93568 10.2989C6.94475 10.3763 7.0083 10.4537 7.06277 10.5118C7.53484 11.0926 8.00691 11.683 8.48805 12.2637C8.66962 12.4864 8.90565 12.6122 9.21431 12.6122C9.78625 12.6025 10.3491 12.6122 10.912 12.6122C11.2932 12.6122 11.3931 12.5155 11.3931 12.1379C11.3931 11.3539 11.3931 10.5699 11.3931 9.77618C11.3931 9.38901 11.2569 9.18575 10.8938 9.07927C10.5125 8.96311 10.1312 8.86632 9.74993 8.75985C9.45943 8.68242 9.37772 8.58562 9.37772 8.27588C9.37772 7.70479 9.37772 7.12402 9.37772 6.55294C9.37772 6.48518 9.37772 6.41743 9.37772 6.34967C9.35956 6.15608 9.27786 5.99154 9.05999 5.99154C8.85118 5.99154 8.78764 6.16577 8.76948 6.34C8.7604 6.40775 8.76948 6.47551 8.76948 6.54326C8.76948 7.19179 8.76948 7.84999 8.76948 8.50819Z" fill="#010101"/>
<path d="M3.59508 7.87894C2.97776 7.87894 2.36044 7.87894 1.74312 7.87894C1.34367 7.87894 1.16211 7.70471 1.16211 7.31753C1.16211 6.12696 1.16211 4.9364 1.16211 3.74582C1.16211 3.37801 1.34367 3.17474 1.72496 3.17474C2.97776 3.16506 4.22147 3.16506 5.47427 3.17474C5.85556 3.17474 6.03712 3.36833 6.03712 3.73615C6.03712 4.9364 6.03712 6.13665 6.03712 7.33689C6.03712 7.70471 5.86464 7.87894 5.49243 7.87894C4.85695 7.88861 4.23056 7.87894 3.59508 7.87894ZM3.61324 4.90735C3.48614 5.00415 3.39536 5.11063 3.27734 5.17838C3.17748 5.22678 3.02314 5.28486 2.94145 5.23645C2.85066 5.18806 2.76895 5.04287 2.74172 4.92671C2.71448 4.77184 2.74172 4.6073 2.74172 4.44274C2.74172 4.16205 2.74172 3.88134 2.74172 3.58128C2.41491 3.58128 2.1244 3.59095 1.84297 3.58128C1.63418 3.57159 1.57062 3.63936 1.57062 3.8523C1.57971 4.97512 1.57971 6.09793 1.57062 7.22074C1.57062 7.44336 1.64325 7.49176 1.84297 7.48208C3.01407 7.47241 4.19424 7.48208 5.36533 7.48208C5.44704 7.48208 5.52874 7.47241 5.61952 7.46272C5.61952 6.16568 5.61952 4.89768 5.61952 3.60064C5.22916 3.60064 4.85695 3.60064 4.45751 3.60064C4.45751 4.02653 4.45751 4.43307 4.45751 4.8396C4.45751 5.01383 4.43935 5.15902 4.25779 5.24614C4.07622 5.33325 3.95821 5.2171 3.84019 5.11063C3.77665 5.04287 3.70402 4.98479 3.61324 4.90735ZM3.15932 4.78153C3.4589 4.39435 3.74033 4.35563 4.03991 4.76217C4.03991 4.32659 4.03991 3.96846 4.03991 3.60064C3.74033 3.60064 3.44983 3.60064 3.15932 3.60064C3.15932 3.97813 3.15932 4.33627 3.15932 4.78153Z" fill="#010101"/>
<path d="M9.36846 4.73331C9.94039 4.73331 10.5032 4.73331 11.0661 4.73331C11.4837 4.73331 11.7198 4.96561 11.7288 5.38182C11.7288 5.72061 11.7379 6.05938 11.7288 6.39817C11.7198 6.69822 11.5563 6.93053 11.2658 6.97893C11.0207 7.01765 10.7574 7.01765 10.5123 6.99829C10.4488 6.98861 10.3398 6.87245 10.3398 6.79502C10.3398 6.73694 10.4488 6.63047 10.5305 6.61112C10.6938 6.58207 10.8664 6.60143 11.0389 6.60143C11.2385 6.61112 11.3384 6.52399 11.3384 6.32073C11.3294 6.02066 11.3294 5.71092 11.3384 5.41087C11.3384 5.21728 11.2658 5.13016 11.0661 5.13984C9.93131 5.13984 8.79654 5.13984 7.67083 5.13984C7.48018 5.13984 7.3894 5.22695 7.3894 5.41087C7.3894 5.71092 7.3894 6.02066 7.3894 6.32073C7.3894 6.51432 7.48018 6.62079 7.68899 6.61112C7.84331 6.60143 7.97041 6.64015 7.96134 6.82406C7.95225 6.99829 7.807 7.01765 7.66175 7.01765C7.27139 7.01765 7.00812 6.77566 6.98996 6.37881C6.98089 6.04002 6.98089 5.70125 6.98996 5.36246C7.00812 4.95593 7.25323 4.73331 7.66175 4.73331C8.21553 4.72362 8.78745 4.73331 9.36846 4.73331Z" fill="#010101"/>
<path d="M2.68686 8.89527C2.27834 8.89527 1.86074 8.89527 1.44314 8.89527C1.28881 8.89527 1.14356 8.85655 1.17079 8.68232C1.17987 8.60489 1.34328 8.49841 1.43406 8.49841C2.26018 8.47905 3.08631 8.47905 3.9215 8.49841C4.01229 8.49841 4.16661 8.61456 4.1757 8.69199C4.21201 8.83719 4.08491 8.89527 3.93058 8.89527C3.52206 8.88558 3.10446 8.89527 2.68686 8.89527Z" fill="#010101"/>
<path d="M1.86113 9.74682C1.69772 9.74682 1.53431 9.76618 1.37999 9.73714C1.29828 9.71779 1.23474 9.61131 1.16211 9.54356C1.23474 9.4758 1.30736 9.35964 1.37999 9.34997C1.68865 9.33061 2.00638 9.33061 2.31504 9.34997C2.38767 9.35964 2.46029 9.4758 2.52385 9.54356C2.45122 9.61131 2.38767 9.71779 2.30597 9.73714C2.16979 9.77586 2.01546 9.74682 1.86113 9.74682Z" fill="#010101"/>
<path d="M8.08879 0.919441C9.18727 0.919441 10.2857 0.919441 11.3842 0.919441C11.5295 0.919441 11.702 0.900082 11.711 1.10336C11.7201 1.3163 11.5476 1.32598 11.3842 1.32598C9.16911 1.32598 6.95402 1.32598 4.73893 1.32598C4.69353 1.32598 4.63906 1.34534 4.61183 1.3163C4.5392 1.25823 4.47565 1.18079 4.41211 1.11303C4.48474 1.05495 4.55736 0.9388 4.64814 0.9388C4.92049 0.919441 5.211 0.929126 5.48334 0.929126C6.34577 0.919441 7.22637 0.919441 8.08879 0.919441Z" fill="#010101"/>
<path d="M1.47955 1.10376C1.35245 1.20055 1.27983 1.30703 1.2072 1.29735C1.14365 1.29735 1.02563 1.19088 1.02563 1.12312C1.02563 1.05537 1.12549 0.948889 1.19812 0.939216C1.26167 0.929531 1.34337 1.01665 1.47955 1.10376Z" fill="#010101"/>
<path d="M2.3331 1.13283C2.19693 1.21994 2.11522 1.31673 2.05168 1.30706C1.97906 1.2877 1.87919 1.17154 1.88827 1.11347C1.88827 1.04571 2.00629 0.948912 2.07891 0.948912C2.13338 0.939238 2.20601 1.03603 2.3331 1.13283Z" fill="#010101"/>
<path d="M3.19566 1.09374C3.06857 1.20022 2.99594 1.30669 2.93239 1.29702C2.85976 1.29702 2.75082 1.19054 2.75082 1.12279C2.74175 1.05503 2.8416 0.948558 2.91423 0.929199C2.9687 0.929199 3.05041 1.01631 3.19566 1.09374Z" fill="#010101"/>
<path d="M4.4755 6.8723C4.35748 6.8723 4.23038 6.90134 4.12144 6.86262C4.03973 6.84326 3.97619 6.74646 3.90356 6.67871C3.96712 6.61095 4.02158 6.4948 4.08513 6.48513C4.34839 6.46577 4.61167 6.45608 4.86586 6.48513C4.93848 6.4948 4.99295 6.61095 5.06558 6.66903C4.99295 6.73679 4.9294 6.83359 4.8477 6.86262C4.72968 6.90134 4.6026 6.8723 4.4755 6.8723Z" fill="#010101"/>
</svg>
