<svg width="13" height="12" viewBox="0 0 13 12" fill="none" xmlns="http://www.w3.org/2000/svg">
<path d="M6.078 11.578V6.74101L4.90799 7.908C4.86893 7.94791 4.82226 7.97955 4.77072 8.00102C4.71918 8.0225 4.66384 8.03337 4.608 8.033C4.49546 8.0324 4.38769 7.98749 4.30801 7.908C4.26835 7.86876 4.23686 7.82205 4.21536 7.77055C4.19387 7.71906 4.1828 7.66382 4.1828 7.60802C4.1828 7.55222 4.19387 7.49697 4.21536 7.44548C4.23686 7.39399 4.26835 7.34727 4.30801 7.30803L6.20001 5.42101C6.2391 5.38115 6.28578 5.34955 6.33731 5.32808C6.38884 5.30661 6.44417 5.2957 6.5 5.29601C6.55577 5.29609 6.61097 5.30718 6.66245 5.32863C6.71392 5.35008 6.76066 5.38146 6.79999 5.42101L8.69199 7.30803C8.75116 7.36725 8.79144 7.44268 8.80771 7.5248C8.82398 7.60691 8.81554 7.69203 8.78342 7.76933C8.75129 7.84664 8.69693 7.91268 8.62726 7.95909C8.55758 8.0055 8.47571 8.03017 8.392 8.03001C8.33622 8.03062 8.28089 8.01995 8.22934 7.99864C8.17779 7.97733 8.13108 7.94584 8.09201 7.90602L6.922 6.73903V11.576C6.922 11.6883 6.8774 11.7961 6.79797 11.8755C6.71855 11.9549 6.61082 11.9995 6.4985 11.9995C6.38619 11.9995 6.27846 11.9549 6.19904 11.8755C6.11961 11.7961 6.07501 11.6883 6.07501 11.576L6.078 11.578ZM2.73801 9.66103C2.36413 9.63586 1.99902 9.53641 1.66403 9.36848C1.32904 9.20056 1.03086 8.96754 0.786987 8.68303C0.283129 8.11952 0.00316891 7.39094 0 6.63503C0.00158902 6.18591 0.107474 5.7433 0.309296 5.34209C0.511117 4.94087 0.803353 4.59201 1.16299 4.32301C1.13937 4.193 1.12734 4.06114 1.12701 3.929C1.12887 3.3714 1.35164 2.83728 1.74658 2.44365C2.14152 2.05002 2.67641 1.82902 3.23401 1.82903C3.35363 1.8293 3.47302 1.83934 3.591 1.85902C3.87938 1.37493 4.27181 0.960999 4.73987 0.647263C5.20793 0.333526 5.7399 0.127825 6.29727 0.0450287C6.85464 -0.0377675 7.42344 0.00443268 7.96249 0.168564C8.50154 0.332695 8.99735 0.614637 9.414 0.994003C10.0299 1.55114 10.4429 2.29732 10.588 3.11501C11.1344 3.27437 11.6312 3.57039 12.0314 3.97508C12.4317 4.37977 12.7222 4.87979 12.8755 5.42793C13.0288 5.97608 13.0399 6.55424 12.9077 7.10786C12.7756 7.66148 12.5044 8.17229 12.12 8.59203C11.5628 9.21399 10.7867 9.59632 9.95401 9.65901H7.95999C7.90278 9.6618 7.84562 9.65293 7.79193 9.63295C7.73825 9.61297 7.68918 9.58231 7.64771 9.5428C7.60623 9.50329 7.57319 9.45577 7.55063 9.40312C7.52807 9.35047 7.51645 9.29381 7.51645 9.23653C7.51645 9.17925 7.52807 9.12255 7.55063 9.0699C7.57319 9.01725 7.60623 8.96973 7.64771 8.93022C7.68918 8.89071 7.73825 8.86005 7.79193 8.84007C7.84562 8.8201 7.90278 8.81123 7.95999 8.81401H9.90701C10.5053 8.75638 11.0628 8.48513 11.4774 8.04991C11.892 7.6147 12.1359 7.04466 12.1645 6.44426C12.193 5.84385 12.0043 5.25327 11.6328 4.78069C11.2614 4.3081 10.7321 3.98515 10.142 3.87102C10.0504 3.85532 9.96656 3.81005 9.90317 3.74214C9.83978 3.67424 9.80036 3.58743 9.79099 3.49501C9.7276 2.8531 9.45545 2.24972 9.01624 1.77733C8.57702 1.30494 7.99501 0.989644 7.35941 0.879776C6.7238 0.769908 6.06971 0.871512 5.49741 1.16905C4.9251 1.46659 4.46619 1.94364 4.19101 2.52702C4.14561 2.62272 4.06604 2.69796 3.96796 2.73793C3.86987 2.77791 3.76037 2.77973 3.66101 2.74303C3.52355 2.69293 3.3783 2.66753 3.23199 2.66801C2.89843 2.66775 2.5784 2.79987 2.34216 3.03535C2.10592 3.27084 1.97278 3.59047 1.97198 3.92403C1.97115 4.0711 1.99692 4.21711 2.048 4.35503C2.08209 4.44882 2.08226 4.55157 2.04846 4.64546C2.01467 4.73936 1.94905 4.81845 1.86301 4.869C1.55452 5.04897 1.29838 5.30642 1.12 5.61583C0.941613 5.92524 0.847178 6.27587 0.846008 6.63301C0.842992 7.17021 1.03788 7.68971 1.39349 8.09236C1.74911 8.49501 2.24053 8.75263 2.77399 8.81602H5.03799C5.09521 8.81324 5.1524 8.82211 5.20609 8.84209C5.25977 8.86206 5.30884 8.89273 5.35031 8.93224C5.39179 8.97174 5.4248 9.01927 5.44736 9.07191C5.46992 9.12456 5.48157 9.18123 5.48157 9.23851C5.48157 9.29579 5.46992 9.35249 5.44736 9.40514C5.4248 9.45779 5.39179 9.50531 5.35031 9.54482C5.30884 9.58432 5.25977 9.61499 5.20609 9.63496C5.1524 9.65494 5.09521 9.66381 5.03799 9.66103H2.73801Z" fill="#2F3990"/>
</svg>
