<svg width="13" height="14" viewBox="0 0 13 14" fill="none" xmlns="http://www.w3.org/2000/svg">
<path d="M6.45455 6.09091C6.78882 6.09091 7.11982 6.02507 7.42865 5.89715C7.73748 5.76923 8.01809 5.58173 8.25445 5.34536C8.49082 5.109 8.67832 4.82839 8.80624 4.51956C8.93416 4.21073 9 3.87973 9 3.54545C9 3.21118 8.93416 2.88018 8.80624 2.57135C8.67832 2.26252 8.49082 1.98191 8.25445 1.74555C8.01809 1.50918 7.73748 1.32168 7.42865 1.19376C7.11982 1.06584 6.78882 1 6.45455 1C5.77945 1 5.132 1.26818 4.65464 1.74555C4.17727 2.22291 3.90909 2.87036 3.90909 3.54545C3.90909 4.22055 4.17727 4.868 4.65464 5.34536C5.132 5.82273 5.77945 6.09091 6.45455 6.09091ZM1 12.5636V13H11.9091V12.5636C11.9091 10.9345 11.9091 10.12 11.592 9.49745C11.3131 8.9501 10.8681 8.50508 10.3207 8.22618C9.69818 7.90909 8.88364 7.90909 7.25455 7.90909H5.65455C4.02545 7.90909 3.21091 7.90909 2.58836 8.22618C2.04101 8.50508 1.59599 8.9501 1.31709 9.49745C1 10.12 1 10.9345 1 12.5636Z" stroke="#535358" stroke-width="0.8" stroke-linecap="round" stroke-linejoin="round"/>
</svg>
