<svg width="13" height="17" viewBox="0 0 13 17" fill="none" xmlns="http://www.w3.org/2000/svg">
<path d="M12.9937 6.92242C12.9918 6.53639 12.873 6.41954 12.4947 6.41373C12.1718 6.40922 11.8484 6.39824 11.5275 6.41761C11.3073 6.43052 11.2609 6.35047 11.2628 6.14455C11.2673 5.66169 11.2828 5.17883 11.2253 4.69532C10.9593 2.44693 9.12249 0.689785 6.83887 0.513554C4.61722 0.341842 2.52148 1.81882 1.91587 3.97039C1.71443 4.68629 1.72282 5.41509 1.73702 6.14519C1.7409 6.35241 1.69183 6.43181 1.47231 6.41761C1.18307 6.39824 0.891882 6.41244 0.601344 6.41309C0.0977451 6.41438 0.00541867 6.50734 0.00477303 7.01989C0.0041274 8.42845 0.00477303 9.83636 0.00477303 11.2449C0.00477303 12.6638 0.00477303 14.0827 0.00541867 15.5016C0.00541867 15.9386 0.0906431 16.049 0.504498 16.0967C1.3264 16.1923 2.14765 16.2962 2.97213 16.3608C6.13383 16.6087 9.28778 16.526 12.432 16.109C12.9092 16.0457 12.9944 15.9573 12.9944 15.4686C12.9944 13.5656 12.9944 11.6632 12.9944 9.76018C12.9944 8.81448 12.9976 7.86812 12.9931 6.92242H12.9937ZM5.08983 1.53737C7.63559 0.573588 10.3847 2.3998 10.4887 5.12848C10.5022 5.48287 10.4854 5.83792 10.4964 6.19232C10.5016 6.35757 10.4544 6.43375 10.2808 6.41438C10.1955 6.40534 10.1077 6.40276 10.0232 6.41438C9.82043 6.44278 9.76943 6.35822 9.77136 6.16198C9.77717 5.62554 9.81527 5.08587 9.69066 4.55653C9.31425 2.95561 7.82089 1.84787 6.25134 2.00216C4.53781 2.17064 3.28398 3.49786 3.22716 5.20917C3.21683 5.53129 3.21554 5.8547 3.22716 6.17618C3.23362 6.35499 3.1839 6.41632 2.99473 6.41696C2.50663 6.41825 2.50663 6.42858 2.50663 5.95089V5.59584C2.41688 3.41071 3.74625 2.04411 5.08918 1.53543L5.08983 1.53737ZM4.08263 4.65207C4.39512 3.46558 5.53468 2.65221 6.70974 2.77551C8.00554 2.91171 8.95075 3.91939 8.99918 5.22402C9.01015 5.52419 8.9882 5.8263 9.00628 6.12583C9.01984 6.34724 8.95592 6.42213 8.72413 6.41761C7.98294 6.40341 7.24175 6.41244 6.49991 6.41244C5.75807 6.41244 5.01687 6.40341 4.27568 6.41761C4.04389 6.42213 3.98256 6.34724 3.99353 6.12583C4.01871 5.63393 3.9535 5.13687 4.08134 4.65143L4.08263 4.65207ZM12.2267 15.0742C12.2274 15.2918 12.1641 15.3718 11.9497 15.397C9.13541 15.7275 6.31525 15.8211 3.48671 15.6197C2.69322 15.5635 1.9036 15.477 1.11269 15.4028C0.866702 15.3796 0.771793 15.3092 0.773084 15.0381C0.784706 12.534 0.785997 10.03 0.771793 7.52599C0.769856 7.22582 0.863474 7.17869 1.134 7.17998C2.92887 7.1916 4.7244 7.18579 6.51928 7.18579C8.31415 7.18579 10.1097 7.19031 11.9046 7.18063C12.1525 7.17934 12.23 7.23679 12.2287 7.49759C12.2183 10.0229 12.2196 12.5482 12.2274 15.0742H12.2267ZM8.0191 13.7115C7.89255 13.1686 7.76923 12.6244 7.633 12.0841C7.58781 11.9059 7.59233 11.773 7.72146 11.6161C7.98294 11.2966 8.0856 10.9118 8.02491 10.4987C7.92548 9.82603 7.46256 9.33671 6.81175 9.19792C6.18032 9.06301 5.54759 9.33284 5.20153 9.88412C4.84707 10.4496 4.87806 11.0984 5.30806 11.6542C5.40813 11.7833 5.41782 11.893 5.38231 12.037C5.24349 12.5992 5.1092 13.1621 4.97749 13.7263C4.88645 14.115 5.03301 14.3047 5.4275 14.3093C5.7826 14.3131 6.13706 14.3099 6.49216 14.3099C6.84726 14.3099 7.20172 14.3125 7.55682 14.3099C7.97455 14.3067 8.1153 14.1233 8.01974 13.7128L8.0191 13.7115ZM6.79174 11.8956C6.91118 12.3397 6.99447 12.7929 7.11391 13.237C7.17525 13.4643 7.16298 13.5811 6.88471 13.5385C6.75881 13.5191 6.62774 13.5353 6.49926 13.5353C6.0499 13.5353 5.87493 13.3212 5.97436 12.893C6.04667 12.5805 6.10026 12.2623 6.19323 11.9556C6.28103 11.6658 6.24682 11.4528 5.99308 11.2507C5.7161 11.0306 5.66574 10.6788 5.80649 10.3754C5.93626 10.0952 6.26619 9.90285 6.56576 9.93319C6.90537 9.9674 7.1888 10.2204 7.25143 10.5613C7.30437 10.8486 7.21269 11.1003 6.98478 11.2759C6.76526 11.4457 6.72201 11.6355 6.79238 11.8956H6.79174Z" fill="#3845B3"/>
</svg>
