<svg width="4" height="15" viewBox="0 0 4 15" fill="none" xmlns="http://www.w3.org/2000/svg">
<path d="M0.0128899 1.61933C-0.0309754 1.98848 0.0384425 2.36228 0.211928 2.69106C0.385414 3.01985 0.654773 3.28809 0.984259 3.46024C1.31374 3.63239 1.68782 3.70029 2.05679 3.65492C2.42576 3.60955 2.77215 3.45305 3.05012 3.20622C3.32809 2.95938 3.52443 2.63387 3.6131 2.27285C3.70177 1.91183 3.67859 1.53238 3.5466 1.18485C3.41462 0.837323 3.18007 0.538143 2.8741 0.327003C2.56814 0.115862 2.20523 0.00275135 1.83348 0.00266457C1.37809 -0.0226488 0.931132 0.133102 0.590093 0.435946C0.249054 0.738788 0.0415936 1.16414 0.0128899 1.61933ZM0.0128899 7.28504C-0.0311263 7.6542 0.0381911 8.02804 0.211573 8.35691C0.384955 8.68578 0.65418 8.95413 0.983636 9.12639C1.31309 9.29866 1.68716 9.36666 2.05617 9.32139C2.42518 9.27612 2.77172 9.1197 3.04976 8.87291C3.32781 8.62611 3.52418 8.30061 3.61292 7.93959C3.70166 7.57856 3.67855 7.19907 3.5466 6.8515C3.41466 6.50392 3.18016 6.2047 2.87419 5.99351C2.56822 5.78233 2.20526 5.66919 1.83348 5.66909C1.37816 5.64357 0.931244 5.79915 0.590182 6.10188C0.24912 6.4046 0.041591 6.82991 0.0128899 7.28504ZM0.0128899 12.9508C-0.0309754 13.3199 0.0384425 13.6937 0.211928 14.0224C0.385414 14.3512 0.654773 14.6195 0.984259 14.7916C1.31374 14.9638 1.68782 15.0317 2.05679 14.9863C2.42576 14.9409 2.77215 14.7844 3.05012 14.5376C3.32809 14.2908 3.52443 13.9652 3.6131 13.6042C3.70177 13.2432 3.67859 12.8638 3.5466 12.5162C3.41462 12.1687 3.18007 11.8695 2.8741 11.6584C2.56814 11.4472 2.20523 11.3341 1.83348 11.334C1.37805 11.3085 0.930998 11.4642 0.589915 11.7671C0.248832 12.07 0.0414068 12.4955 0.0128899 12.9508Z" fill="#CFCFCF"/>
</svg>
