<svg width="30" height="30" viewBox="0 0 30 30" fill="none" xmlns="http://www.w3.org/2000/svg">
<rect width="30" height="30" rx="6" fill="white"/>
<path d="M15.051 6C15.4077 6.13091 15.7911 6.21473 16.1157 6.40075C17.2087 7.03059 17.7597 8.00674 17.7694 9.26275C17.7848 11.197 17.7794 13.1316 17.7718 15.0659C17.7651 16.6512 16.7726 17.9015 15.2337 18.2876C13.6137 18.6943 11.812 17.6344 11.3989 16.0167C11.3158 15.6952 11.272 15.3649 11.2683 15.0328C11.2563 13.1206 11.2503 11.2084 11.2666 9.29648C11.2786 7.89386 11.9275 6.86495 13.1999 6.25748C13.446 6.13959 13.7229 6.08616 13.9857 6.00301L15.051 6ZM12.2845 12.1585C12.2845 13.1116 12.2795 14.065 12.2879 15.0181C12.2866 15.2503 12.313 15.4818 12.3663 15.7078C12.6335 16.7601 13.6935 17.4711 14.7778 17.3401C15.8622 17.2092 16.7372 16.2912 16.7448 15.2128C16.7595 13.1794 16.7632 11.1453 16.7448 9.1118C16.7325 7.80737 15.4531 6.78446 14.1694 7.01189C13.0503 7.20992 12.2942 8.10292 12.2872 9.24939C12.2795 10.2189 12.2845 11.1887 12.2845 12.1585ZM13.7873 21.9831C13.2383 21.9831 12.6896 21.9771 12.1409 21.9868C11.825 21.9925 11.6189 22.2062 11.6206 22.4948C11.6223 22.7833 11.8377 22.991 12.1459 22.9994C12.1736 22.9994 12.2014 22.9994 12.2291 22.9994H16.8019C16.8576 23.001 16.9134 22.9995 16.9689 22.9947C17.0798 22.9816 17.1833 22.9323 17.2634 22.8545C17.3435 22.7767 17.3958 22.6747 17.4121 22.5642C17.4425 22.3281 17.3119 22.0967 17.0915 22.0229C16.996 21.9952 16.8967 21.9825 16.7973 21.9851C16.2706 21.9815 15.7443 21.9851 15.2177 21.9828C15.1585 21.9828 15.0994 21.9778 15.0347 21.9748V20.639C15.405 20.5578 15.7694 20.5054 16.1157 20.3975C17.5737 19.9407 18.6718 19.035 19.3985 17.6898C19.8303 16.8883 20.0306 16.0274 20.0376 15.1207C20.0385 15.0526 20.0255 14.9851 19.9993 14.9223C19.9731 14.8595 19.9344 14.8027 19.8854 14.7554C19.8364 14.7081 19.7783 14.6714 19.7146 14.6474C19.6509 14.6234 19.583 14.6128 19.515 14.6161C19.3974 14.6172 19.2842 14.6609 19.1964 14.7391C19.1085 14.8174 19.0521 14.9248 19.0374 15.0415C19.0074 15.2773 19.0081 15.5174 18.9727 15.7522C18.7723 17.0793 18.1221 18.1413 16.9993 18.8677C15.5319 19.8174 13.9794 19.8922 12.4241 19.0978C11.2853 18.5157 10.5326 17.5759 10.194 16.3369C10.0884 15.9516 10.0664 15.5421 10.0163 15.1424C9.97321 14.8001 9.77685 14.602 9.47462 14.6167C9.1794 14.6308 8.96767 14.8662 9.00407 15.2018C9.05784 15.6954 9.08623 16.2037 9.2335 16.6712C9.86301 18.6696 11.2068 19.944 13.241 20.4783C13.4904 20.5451 13.7479 20.5785 14.0071 20.6269V21.9831C13.9192 21.9831 13.8541 21.9828 13.7883 21.9831H13.7873Z" fill="#818181" stroke="#818181" stroke-width="0.3"/>
</svg>
