<svg width="31" height="29" viewBox="0 0 31 29" fill="none" xmlns="http://www.w3.org/2000/svg">
<path id="Vector" d="M18.9333 2.62859C18.5655 1.98218 18.0331 1.44471 17.3902 1.07083C16.7473 0.696954 16.0168 0.5 15.2731 0.5C14.5293 0.5 13.7989 0.696954 13.156 1.07083C12.5131 1.44471 11.9806 1.98218 11.6128 2.62859L0.527666 22.3782C0.175662 22.998 -0.00631407 23.6998 0.000167272 24.4125C0.00664861 25.1252 0.201357 25.8236 0.564574 26.4368C0.933125 27.0695 1.46236 27.5936 2.09867 27.9559C2.73497 28.3182 3.45573 28.5058 4.18793 28.4999H26.3582C27.0904 28.5058 27.8112 28.3182 28.4475 27.9559C29.0838 27.5936 29.613 27.0695 29.9816 26.4368C30.3448 25.8236 30.5395 25.1252 30.546 24.4125C30.5525 23.6998 30.3705 22.998 30.0185 22.3782L18.9333 2.62859ZM15.2731 23.4091C15.0214 23.4091 14.7753 23.3345 14.566 23.1946C14.3567 23.0548 14.1936 22.856 14.0973 22.6234C14.0009 22.3909 13.9757 22.135 14.0248 21.8881C14.0739 21.6412 14.1952 21.4145 14.3731 21.2365C14.5511 21.0585 14.7779 20.9373 15.0248 20.8882C15.2717 20.8391 15.5276 20.8643 15.7601 20.9606C15.9927 21.0569 16.1914 21.22 16.3313 21.4293C16.4711 21.6386 16.5458 21.8847 16.5458 22.1364C16.5458 22.4739 16.4117 22.7977 16.173 23.0363C15.9343 23.275 15.6106 23.4091 15.2731 23.4091ZM16.5458 17.0456C16.5458 17.3832 16.4117 17.7069 16.173 17.9456C15.9343 18.1842 15.6106 18.3183 15.2731 18.3183C14.9355 18.3183 14.6118 18.1842 14.3731 17.9456C14.1345 17.7069 14.0004 17.3832 14.0004 17.0456V9.40949C14.0004 9.07195 14.1345 8.74824 14.3731 8.50956C14.6118 8.27088 14.9355 8.1368 15.2731 8.1368C15.6106 8.1368 15.9343 8.27088 16.173 8.50956C16.4117 8.74824 16.5458 9.07195 16.5458 9.40949V17.0456Z" fill="#FF9128"/>
</svg>
