<svg width="228" height="26" viewBox="0 0 228 26" fill="none" xmlns="http://www.w3.org/2000/svg">
<rect y="11.4883" width="2.83232" height="3.62791" rx="1.41616" fill="#D9D9D9"/>
<rect x="4.25" y="10.8848" width="2.83232" height="4.23256" rx="1.41616" fill="#D9D9D9"/>
<rect x="8.5" y="8.46484" width="2.83232" height="9.67442" rx="1.41616" fill="#D9D9D9"/>
<rect x="12.7461" y="9.67383" width="2.83232" height="7.25581" rx="1.41616" fill="#D9D9D9"/>
<rect x="16.9922" y="7.25586" width="2.83232" height="11.4884" rx="1.41616" fill="#D9D9D9"/>
<rect x="21.2422" y="9.07031" width="2.83232" height="8.46512" rx="1.41616" fill="#D9D9D9"/>
<rect x="25.4922" y="12.0938" width="2.83232" height="2.4186" rx="1.2093" fill="#D9D9D9"/>
<rect x="29.7383" y="12.0938" width="2.83232" height="2.4186" rx="1.2093" fill="#D9D9D9"/>
<rect x="33.9883" y="11.4883" width="2.83232" height="3.62791" rx="1.41616" fill="#D9D9D9"/>
<rect x="38.2383" y="10.2793" width="2.83232" height="5.44186" rx="1.41616" fill="#D9D9D9"/>
<rect x="42.4844" y="8.46484" width="2.83232" height="9.06977" rx="1.41616" fill="#D9D9D9"/>
<rect x="46.7305" y="7.25586" width="2.83232" height="11.4884" rx="1.41616" fill="#D9D9D9"/>
<rect x="50.9805" y="7.25586" width="2.83232" height="12.093" rx="1.41616" fill="#D9D9D9"/>
<rect x="55.2305" y="6.04688" width="2.83232" height="14.5116" rx="1.41616" fill="#D9D9D9"/>
<rect x="59.4805" y="6.65234" width="2.83232" height="12.6977" rx="1.41616" fill="#D9D9D9"/>
<rect x="63.7266" y="3.02344" width="2.83232" height="19.9535" rx="1.41616" fill="#D9D9D9"/>
<rect x="67.9766" y="4.83594" width="2.83232" height="16.3256" rx="1.41616" fill="#D9D9D9"/>
<rect x="72.2227" y="7.25586" width="2.83232" height="12.093" rx="1.41616" fill="#D9D9D9"/>
<rect x="76.4727" y="9.07031" width="2.83232" height="8.46512" rx="1.41616" fill="#D9D9D9"/>
<rect x="80.7227" y="7.86133" width="2.83232" height="10.8837" rx="1.41616" fill="#D9D9D9"/>
<rect x="84.9688" y="8.46484" width="2.83232" height="9.67442" rx="1.41616" fill="#D9D9D9"/>
<rect x="89.2188" y="7.86133" width="2.83232" height="10.8837" rx="1.41616" fill="#D9D9D9"/>
<rect x="93.4688" y="7.25586" width="2.83232" height="12.093" rx="1.41616" fill="#D9D9D9"/>
<rect x="97.7148" y="3.62891" width="2.83232" height="19.3488" rx="1.41616" fill="#D9D9D9"/>
<rect x="101.961" y="6.04688" width="2.83232" height="13.907" rx="1.41616" fill="#D9D9D9"/>
<rect x="106.211" y="10.2793" width="2.83232" height="6.04651" rx="1.41616" fill="#D9D9D9"/>
<rect x="110.461" width="2.83232" height="26" rx="1.41616" fill="#D9D9D9"/>
<rect x="114.711" y="1.20898" width="2.83232" height="24.186" rx="1.41616" fill="#D9D9D9"/>
<rect x="118.957" y="5.44141" width="2.83232" height="15.7209" rx="1.41616" fill="#D9D9D9"/>
<rect x="123.207" y="7.86133" width="2.83232" height="10.8837" rx="1.41616" fill="#D9D9D9"/>
<rect x="127.453" y="6.65234" width="2.83232" height="13.3023" rx="1.41616" fill="#D9D9D9"/>
<rect x="131.703" y="9.07031" width="2.83232" height="8.46512" rx="1.41616" fill="#D9D9D9"/>
<rect x="135.949" y="11.4883" width="2.83232" height="3.02326" rx="1.41616" fill="#D9D9D9"/>
<rect x="140.199" y="11" width="2.83232" height="4" rx="1.41616" fill="#D9D9D9"/>
<rect x="144.449" y="9" width="2.83232" height="8.46512" rx="1.41616" fill="#D9D9D9"/>
<rect x="148.699" y="6.65234" width="2.83232" height="13.3023" rx="1.41616" fill="#D9D9D9"/>
<rect x="152.945" y="8.46484" width="2.83232" height="9.67442" rx="1.41616" fill="#D9D9D9"/>
<rect x="157.191" y="11.4883" width="2.83232" height="3.62791" rx="1.41616" fill="#D9D9D9"/>
<rect x="161.441" y="3.62891" width="2.83232" height="19.3488" rx="1.41616" fill="#D9D9D9"/>
<rect x="165.691" y="7.25586" width="2.83232" height="11.4884" rx="1.41616" fill="#D9D9D9"/>
<rect x="169.941" y="8.46484" width="2.83232" height="9.67442" rx="1.41616" fill="#D9D9D9"/>
<rect x="174.188" y="7.25586" width="2.83232" height="12.093" rx="1.41616" fill="#D9D9D9"/>
<rect x="178.438" y="8.46484" width="2.83232" height="9.06977" rx="1.41616" fill="#D9D9D9"/>
<rect x="182.684" y="11.4883" width="2.83232" height="3.62791" rx="1.41616" fill="#D9D9D9"/>
<rect x="186.934" y="9.67383" width="2.83232" height="7.25581" rx="1.41616" fill="#D9D9D9"/>
<rect x="191.18" y="7.25586" width="2.83232" height="12.093" rx="1.41616" fill="#D9D9D9"/>
<rect x="195.43" y="8.46484" width="2.83232" height="9.06977" rx="1.41616" fill="#D9D9D9"/>
<rect x="199.68" y="11.4883" width="2.83232" height="3.62791" rx="1.41616" fill="#D9D9D9"/>
<rect x="203.93" y="11.4883" width="2.83232" height="3.62791" rx="1.41616" fill="#D9D9D9"/>
<rect x="208.176" y="8.46484" width="2.83232" height="9.67442" rx="1.41616" fill="#D9D9D9"/>
<rect x="212.422" y="8.46484" width="2.83232" height="9.06977" rx="1.41616" fill="#D9D9D9"/>
<rect x="216.672" y="6.65234" width="2.83232" height="13.3023" rx="1.41616" fill="#D9D9D9"/>
<rect x="220.922" y="4.83594" width="2.83232" height="16.9302" rx="1.41616" fill="#D9D9D9"/>
<rect x="225.168" y="11.4883" width="2.83232" height="3.02326" rx="1.41616" fill="#D9D9D9"/>
</svg>
