<svg xmlns="http://www.w3.org/2000/svg" width="8" height="4" viewBox="0 0 8 4" fill="none">
<path fill-rule="evenodd" clip-rule="evenodd" d="M7.19295 0.134368C7.10768 0.04766 6.99419 -0.000104 6.87349 -0.000104C6.75271 -0.000104 6.63921 0.04766 6.55404 0.134368L3.8372 2.89256L1.12044 0.134884C1.03518 0.048108 0.921684 0.00028 0.800899 0.00028C0.680114 0.00028 0.566623 0.047724 0.48109 0.134884C0.305117 0.313648 0.305117 0.604872 0.481174 0.78402L3.51756 3.86678C3.60212 3.95233 3.71552 3.99946 3.83693 3.99946C3.83693 3.99946 3.83693 3.99946 3.83702 3.99946C3.95869 3.99946 4.07227 3.95214 4.15665 3.8662L7.19303 0.7837C7.36865 0.604872 7.36865 0.313648 7.19295 0.134368Z" fill="white"/>
</svg>