<svg width="17" height="17" viewBox="0 0 17 17" fill="none" xmlns="http://www.w3.org/2000/svg">
<path d="M1.87891 16.0498C1.38161 16.0493 0.904828 15.8514 0.553284 15.4997C0.201739 15.148 0.00417091 14.6711 0.00390625 14.1738V3.17383C0.00417121 2.67663 0.201771 2.19984 0.553345 1.84827C0.904918 1.49669 1.38171 1.29909 1.87891 1.29883H2.62988V0.0488281H3.87988V1.29883H12.1309V0.0488281H13.3809V1.29883H14.1319C14.6291 1.29909 15.1059 1.49669 15.4575 1.84827C15.809 2.19984 16.0066 2.67663 16.0069 3.17383V14.1738C16.0066 14.6711 15.8091 15.148 15.4575 15.4997C15.106 15.8514 14.6292 16.0493 14.1319 16.0498H1.87891ZM1.25391 14.1738C1.25417 14.3395 1.3201 14.4983 1.43726 14.6155C1.55441 14.7326 1.71323 14.7986 1.87891 14.7988H14.1309C14.2966 14.7986 14.4554 14.7326 14.5726 14.6155C14.6897 14.4983 14.7557 14.3395 14.7559 14.1738V5.92285H1.25592L1.25391 14.1738ZM1.25391 3.17383V4.67383H14.7539V3.17383C14.7539 3.00807 14.6881 2.84908 14.5709 2.73187C14.4537 2.61466 14.2947 2.54883 14.1289 2.54883H13.3779V3.79785H12.1309V2.54883H3.87988V3.79785H2.63092V2.54883H1.87988C1.79772 2.5487 1.71639 2.56478 1.64044 2.59613C1.5645 2.62748 1.49546 2.67346 1.43732 2.73151C1.37917 2.78956 1.33305 2.85855 1.30157 2.93445C1.2701 3.01034 1.25391 3.09167 1.25391 3.17383ZM9.87988 13.4828V12.2328H11.1299V13.4828H9.87988ZM7.37988 13.4828V12.2328H8.62988V13.4828H7.37988ZM4.87988 13.4828V12.2328H6.13092V13.4828H4.87988ZM2.37988 13.4828V12.2328H3.62988V13.4828H2.37988ZM12.3799 10.9828V9.73285H13.6299V10.9818L12.3799 10.9828ZM9.87988 10.9828V9.73285H11.1299V10.9818L9.87988 10.9828ZM7.37988 10.9828V9.73285H8.62988V10.9818L7.37988 10.9828ZM4.87988 10.9828V9.73285H6.13092V10.9818L4.87988 10.9828ZM2.37988 10.9828V9.73285H3.62988V10.9818L2.37988 10.9828ZM12.3799 8.48285V7.23285H13.6299V8.48285H12.3799ZM9.87988 8.48285V7.23285H11.1299V8.48285H9.87988ZM7.37988 8.48285V7.23285H8.62988V8.48285H7.37988ZM4.87988 8.48285V7.23285H6.13092V8.48285H4.87988ZM2.37988 8.48285V7.23285H3.62988V8.48285H2.37988Z" fill="white"/>
</svg>
