<svg width="32" height="31" viewBox="0 0 32 31" fill="none" xmlns="http://www.w3.org/2000/svg">
<path d="M28 0.579102H4C1.79086 0.579102 0 2.36996 0 4.5791V26.5791C0 28.7882 1.79086 30.5791 4 30.5791H28C30.2091 30.5791 32 28.7882 32 26.5791V4.5791C32 2.36996 30.2091 0.579102 28 0.579102Z" fill="#2F3990"/>
<path d="M9.87891 23.9766C9.38161 23.976 8.90483 23.7782 8.55328 23.4265C8.20174 23.0747 8.00417 22.5979 8.00391 22.1006V11.1006C8.00417 10.6034 8.20177 10.1266 8.55334 9.77502C8.90492 9.42345 9.38171 9.22585 9.87891 9.22559H10.6299V7.97559H11.8799V9.22559H20.1309V7.97559H21.3809V9.22559H22.1319C22.6291 9.22585 23.1059 9.42345 23.4575 9.77502C23.809 10.1266 24.0066 10.6034 24.0069 11.1006V22.1006C24.0066 22.5979 23.8091 23.0747 23.4575 23.4265C23.106 23.7782 22.6292 23.976 22.1319 23.9766H9.87891ZM9.25391 22.1006C9.25417 22.2663 9.3201 22.4251 9.43726 22.5422C9.55441 22.6594 9.71323 22.7253 9.87891 22.7256H22.1309C22.2966 22.7253 22.4554 22.6594 22.5726 22.5422C22.6897 22.4251 22.7557 22.2663 22.7559 22.1006V13.8496H9.25592L9.25391 22.1006ZM9.25391 11.1006V12.6006H22.7539V11.1006C22.7539 10.9348 22.6881 10.7758 22.5709 10.6586C22.4537 10.5414 22.2947 10.4756 22.1289 10.4756H21.3779V11.7246H20.1309V10.4756H11.8799V11.7246H10.6309V10.4756H9.87988C9.79772 10.4755 9.71639 10.4915 9.64044 10.5229C9.5645 10.5542 9.49546 10.6002 9.43732 10.6583C9.37917 10.7163 9.33305 10.7853 9.30157 10.8612C9.2701 10.9371 9.25391 11.0184 9.25391 11.1006V11.1006ZM17.8799 21.4096V20.1596H19.1299V21.4096H17.8799ZM15.3799 21.4096V20.1596H16.6299V21.4096H15.3799ZM12.8799 21.4096V20.1596H14.1309V21.4096H12.8799ZM10.3799 21.4096V20.1596H11.6299V21.4096H10.3799ZM20.3799 18.9096V17.6596H21.6299V18.9086L20.3799 18.9096ZM17.8799 18.9096V17.6596H19.1299V18.9086L17.8799 18.9096ZM15.3799 18.9096V17.6596H16.6299V18.9086L15.3799 18.9096ZM12.8799 18.9096V17.6596H14.1309V18.9086L12.8799 18.9096ZM10.3799 18.9096V17.6596H11.6299V18.9086L10.3799 18.9096ZM20.3799 16.4096V15.1596H21.6299V16.4096H20.3799ZM17.8799 16.4096V15.1596H19.1299V16.4096H17.8799ZM15.3799 16.4096V15.1596H16.6299V16.4096H15.3799ZM12.8799 16.4096V15.1596H14.1309V16.4096H12.8799ZM10.3799 16.4096V15.1596H11.6299V16.4096H10.3799Z" fill="white"/>
</svg>
