<svg width="16" height="15" viewBox="0 0 16 15" fill="none" xmlns="http://www.w3.org/2000/svg">
<path d="M11.3305 1.36111C11.7044 1.5858 12.0137 1.90345 12.2283 2.28314C12.443 2.66282 12.5557 3.09162 12.5554 3.52778C12.5557 3.96394 12.443 4.39273 12.2283 4.77242C12.0137 5.15211 11.7044 5.46975 11.3305 5.69444M15.4443 14V13.5667C15.4443 11.9489 15.4443 11.14 15.1294 10.5218C14.8525 9.97822 14.4105 9.5363 13.867 9.25933M6.41654 6.05556C6.7485 6.05556 7.0772 5.99017 7.38388 5.86314C7.69057 5.73611 7.96923 5.54991 8.20395 5.31519C8.43868 5.08046 8.62487 4.8018 8.75191 4.49512C8.87894 4.18843 8.94432 3.85973 8.94432 3.52778C8.94432 3.19583 8.87894 2.86712 8.75191 2.56044C8.62487 2.25375 8.43868 1.97509 8.20395 1.74037C7.96923 1.50564 7.69057 1.31945 7.38388 1.19242C7.0772 1.06538 6.7485 1 6.41654 1C5.74614 1 5.10319 1.26632 4.62914 1.74037C4.15509 2.21442 3.88877 2.85737 3.88877 3.52778C3.88877 4.19819 4.15509 4.84114 4.62914 5.31519C5.10319 5.78924 5.74614 6.05556 6.41654 6.05556V6.05556ZM0.999878 13.5667V14H11.8332V13.5667C11.8332 11.9489 11.8332 11.14 11.5183 10.5218C11.2414 9.97822 10.7994 9.5363 10.2559 9.25933C9.63766 8.94444 8.82877 8.94444 7.21099 8.94444H5.6221C4.00432 8.94444 3.19543 8.94444 2.57721 9.25933C2.03366 9.5363 1.59173 9.97822 1.31477 10.5218C0.999878 11.14 0.999878 11.9489 0.999878 13.5667Z" stroke="#2F3990" stroke-linecap="round" stroke-linejoin="round"/>
</svg>
