<svg width="13" height="13" viewBox="0 0 13 13" fill="none" xmlns="http://www.w3.org/2000/svg">
<path d="M7.62149 0C7.71978 3.09754e-06 7.81554 0.0312036 7.89497 0.0891081C7.9744 0.147013 8.03341 0.228633 8.06349 0.322214L8.5742 1.90914C8.7887 2.01407 8.99392 2.132 9.18984 2.26479L10.8204 1.91379C10.9166 1.89326 11.0167 1.90378 11.1065 1.94383C11.1963 1.98388 11.271 2.05139 11.32 2.13664L12.607 4.36429C12.6561 4.44949 12.6769 4.5481 12.6664 4.64589C12.6559 4.74369 12.6146 4.83562 12.5485 4.90843L11.4296 6.14343C11.4459 6.38024 11.4459 6.6179 11.4296 6.85471L12.5485 8.09157C12.6146 8.16438 12.6559 8.25631 12.6664 8.35411C12.6769 8.4519 12.6561 8.55051 12.607 8.63571L11.32 10.8643C11.2709 10.9494 11.1961 11.0167 11.1063 11.0566C11.0166 11.0964 10.9165 11.1068 10.8204 11.0862L9.18984 10.7352C8.99484 10.8671 8.7887 10.9859 8.57513 11.0909L8.06349 12.6778C8.03341 12.7714 7.9744 12.853 7.89497 12.9109C7.81554 12.9688 7.71978 13 7.62149 13H5.04749C4.94919 13 4.85343 12.9688 4.774 12.9109C4.69457 12.853 4.63556 12.7714 4.60549 12.6778L4.0957 11.0918C3.88178 10.9872 3.67544 10.8677 3.4782 10.7343L1.84856 11.0862C1.75242 11.1067 1.65224 11.0962 1.56247 11.0562C1.47269 11.0161 1.39794 10.9486 1.34899 10.8634L0.061986 8.63571C0.0128409 8.55051 -0.00797542 8.4519 0.00253851 8.35411C0.0130525 8.25631 0.0543533 8.16438 0.120486 8.09157L1.23941 6.85471C1.22321 6.61852 1.22321 6.38148 1.23941 6.14529L0.120486 4.90843C0.0543533 4.83562 0.0130525 4.74369 0.00253851 4.64589C-0.00797542 4.5481 0.0128409 4.44949 0.061986 4.36429L1.34899 2.13571C1.39807 2.05063 1.47288 1.98331 1.56265 1.94343C1.65242 1.90356 1.75252 1.89318 1.84856 1.91379L3.4782 2.26571C3.67506 2.13293 3.8812 2.01314 4.0957 1.90821L4.60641 0.322214C4.6364 0.228934 4.69512 0.14753 4.77418 0.0896536C4.85324 0.031777 4.94858 0.000395263 5.04656 0H7.62056H7.62149ZM7.28163 0.928571H5.38734L4.85991 2.56936L4.50427 2.743C4.32944 2.82856 4.16066 2.92597 3.99913 3.03457L3.67041 3.25743L1.98413 2.89343L1.03699 4.53514L2.19306 5.81471L2.1652 6.20843C2.15186 6.40258 2.15186 6.59742 2.1652 6.79157L2.19306 7.18529L1.03513 8.46486L1.9832 10.1066L3.66949 9.7435L3.9982 9.96543C4.15973 10.074 4.32851 10.1714 4.50334 10.257L4.85899 10.4306L5.38734 12.0714H7.28349L7.81277 10.4297L8.16749 10.257C8.34213 10.1716 8.51061 10.0742 8.6717 9.96543L8.99949 9.7435L10.6867 10.1066L11.6338 8.46486L10.4768 7.18529L10.5047 6.79157C10.5181 6.59711 10.5181 6.40196 10.5047 6.2075L10.4768 5.81379L11.6348 4.53514L10.6867 2.89343L8.99949 3.25557L8.6717 3.03457C8.51063 2.92576 8.34214 2.82833 8.16749 2.743L7.81277 2.57029L7.28256 0.928571H7.28163ZM6.33449 3.71429C7.0733 3.71429 7.78186 4.00778 8.30428 4.5302C8.82671 5.05263 9.1202 5.76118 9.1202 6.5C9.1202 7.23882 8.82671 7.94737 8.30428 8.4698C7.78186 8.99222 7.0733 9.28571 6.33449 9.28571C5.59567 9.28571 4.88711 8.99222 4.36469 8.4698C3.84227 7.94737 3.54877 7.23882 3.54877 6.5C3.54877 5.76118 3.84227 5.05263 4.36469 4.5302C4.88711 4.00778 5.59567 3.71429 6.33449 3.71429ZM6.33449 4.64286C5.84194 4.64286 5.36957 4.83852 5.02129 5.1868C4.67301 5.53508 4.47734 6.00745 4.47734 6.5C4.47734 6.99254 4.67301 7.46492 5.02129 7.8132C5.36957 8.16148 5.84194 8.35714 6.33449 8.35714C6.82703 8.35714 7.2994 8.16148 7.64768 7.8132C7.99597 7.46492 8.19163 6.99254 8.19163 6.5C8.19163 6.00745 7.99597 5.53508 7.64768 5.1868C7.2994 4.83852 6.82703 4.64286 6.33449 4.64286Z" fill="#535358"/>
</svg>
