<svg width="13" height="13" viewBox="0 0 13 13" fill="none" xmlns="http://www.w3.org/2000/svg">
<path d="M7.62161 0C7.7199 3.09754e-06 7.81566 0.0312036 7.8951 0.0891081C7.97453 0.147013 8.03353 0.228633 8.06361 0.322214L8.57432 1.90914C8.78882 2.01407 8.99404 2.132 9.18997 2.26479L10.8205 1.91379C10.9167 1.89326 11.0169 1.90378 11.1066 1.94383C11.1964 1.98388 11.2712 2.05139 11.3201 2.13664L12.6071 4.36429C12.6563 4.44949 12.6771 4.5481 12.6666 4.64589C12.656 4.74369 12.6147 4.83562 12.5486 4.90843L11.4297 6.14343C11.446 6.38024 11.446 6.6179 11.4297 6.85471L12.5486 8.09157C12.6147 8.16438 12.656 8.25631 12.6666 8.35411C12.6771 8.4519 12.6563 8.55051 12.6071 8.63571L11.3201 10.8643C11.271 10.9494 11.1962 11.0167 11.1064 11.0566C11.0167 11.0964 10.9166 11.1068 10.8205 11.0862L9.18997 10.7352C8.99497 10.8671 8.78882 10.9859 8.57525 11.0909L8.06361 12.6778C8.03353 12.7714 7.97453 12.853 7.8951 12.9109C7.81566 12.9688 7.7199 13 7.62161 13H5.04761C4.94931 13 4.85355 12.9688 4.77412 12.9109C4.69469 12.853 4.63569 12.7714 4.60561 12.6778L4.09582 11.0918C3.8819 10.9872 3.67556 10.8677 3.47832 10.7343L1.84868 11.0862C1.75254 11.1067 1.65237 11.0962 1.56259 11.0562C1.47281 11.0161 1.39806 10.9486 1.34911 10.8634L0.0621081 8.63571C0.012963 8.55051 -0.00785335 8.4519 0.00266058 8.35411C0.0131745 8.25631 0.0544754 8.16438 0.120608 8.09157L1.23954 6.85471C1.22333 6.61852 1.22333 6.38148 1.23954 6.14529L0.120608 4.90843C0.0544754 4.83562 0.0131745 4.74369 0.00266058 4.64589C-0.00785335 4.5481 0.012963 4.44949 0.0621081 4.36429L1.34911 2.13571C1.3982 2.05063 1.473 1.98331 1.56277 1.94343C1.65254 1.90356 1.75264 1.89318 1.84868 1.91379L3.47832 2.26571C3.67518 2.13293 3.88132 2.01314 4.09582 1.90821L4.60654 0.322214C4.63652 0.228934 4.69524 0.14753 4.7743 0.0896536C4.85336 0.031777 4.9487 0.000395263 5.04668 0H7.62068H7.62161ZM7.28175 0.928571H5.38747L4.86004 2.56936L4.50439 2.743C4.32956 2.82856 4.16079 2.92597 3.99925 3.03457L3.67054 3.25743L1.98425 2.89343L1.03711 4.53514L2.19318 5.81471L2.16532 6.20843C2.15198 6.40258 2.15198 6.59742 2.16532 6.79157L2.19318 7.18529L1.03525 8.46486L1.98332 10.1066L3.66961 9.7435L3.99832 9.96543C4.15986 10.074 4.32863 10.1714 4.50347 10.257L4.85911 10.4306L5.38747 12.0714H7.28361L7.81289 10.4297L8.16761 10.257C8.34225 10.1716 8.51073 10.0742 8.67182 9.96543L8.99961 9.7435L10.6868 10.1066L11.634 8.46486L10.477 7.18529L10.5048 6.79157C10.5182 6.59711 10.5182 6.40196 10.5048 6.2075L10.477 5.81379L11.6349 4.53514L10.6868 2.89343L8.99961 3.25557L8.67182 3.03457C8.51075 2.92576 8.34227 2.82833 8.16761 2.743L7.81289 2.57029L7.28268 0.928571H7.28175ZM6.33461 3.71429C7.07343 3.71429 7.78198 4.00778 8.30441 4.5302C8.82683 5.05263 9.12032 5.76118 9.12032 6.5C9.12032 7.23882 8.82683 7.94737 8.30441 8.4698C7.78198 8.99222 7.07343 9.28571 6.33461 9.28571C5.59579 9.28571 4.88723 8.99222 4.36481 8.4698C3.84239 7.94737 3.54889 7.23882 3.54889 6.5C3.54889 5.76118 3.84239 5.05263 4.36481 4.5302C4.88723 4.00778 5.59579 3.71429 6.33461 3.71429ZM6.33461 4.64286C5.84206 4.64286 5.36969 4.83852 5.02141 5.1868C4.67313 5.53508 4.47747 6.00745 4.47747 6.5C4.47747 6.99254 4.67313 7.46492 5.02141 7.8132C5.36969 8.16148 5.84206 8.35714 6.33461 8.35714C6.82715 8.35714 7.29952 8.16148 7.64781 7.8132C7.99609 7.46492 8.19175 6.99254 8.19175 6.5C8.19175 6.00745 7.99609 5.53508 7.64781 5.1868C7.29952 4.83852 6.82715 4.64286 6.33461 4.64286Z" fill="#2F3990"/>
</svg>
