<svg width="12" height="10" viewBox="0 0 12 10" fill="none" xmlns="http://www.w3.org/2000/svg">
<path d="M5.76244 7.49117C5.30395 7.49117 4.86424 7.30904 4.54004 6.98484C4.21584 6.66064 4.03371 6.22093 4.03371 5.76244C4.03371 5.11705 4.38522 4.55233 4.89808 4.25844L10.4934 1.01995L7.30678 6.54037C7.01865 7.10509 6.43665 7.49117 5.76244 7.49117ZM5.76244 0C6.80544 0 7.7793 0.288122 8.62637 0.760642L7.41626 1.4579C6.91493 1.26197 6.33869 1.15249 5.76244 1.15249C4.53981 1.15249 3.36725 1.63818 2.50271 2.50271C1.63818 3.36724 1.15249 4.5398 1.15249 5.76244C1.15249 7.03594 1.66535 8.18843 2.5009 9.01822H2.50666C2.7314 9.24295 2.7314 9.60599 2.50666 9.83072C2.28193 10.0555 1.91313 10.0555 1.6884 9.83648C1.15248 9.3021 0.72743 8.66709 0.437681 7.96793C0.147931 7.26878 -0.000810047 6.51926 3.31784e-06 5.76244C3.31784e-06 4.23415 0.607116 2.76845 1.68778 1.68778C2.76845 0.607112 4.23415 0 5.76244 0ZM11.5249 5.76244C11.5249 7.35287 10.8795 8.79348 9.83649 9.83648C9.61175 10.0555 9.24872 10.0555 9.02398 9.83072C8.97056 9.77741 8.92818 9.71409 8.89927 9.64438C8.87035 9.57467 8.85546 9.49994 8.85546 9.42447C8.85546 9.349 8.87035 9.27427 8.89927 9.20456C8.92818 9.13485 8.97056 9.07153 9.02398 9.01822C9.45254 8.59141 9.79233 8.08397 10.0238 7.52517C10.2552 6.96637 10.3737 6.36727 10.3724 5.76244C10.3724 5.1862 10.2629 4.60995 10.0612 4.09133L10.7585 2.88122C11.2368 3.74559 11.5249 4.71368 11.5249 5.76244Z" fill="#818181"/>
</svg>
