<svg width="14" height="13" viewBox="0 0 14 13" fill="none" xmlns="http://www.w3.org/2000/svg">
<path d="M1.52423 12.9992C1.12014 12.9988 0.732628 12.838 0.446887 12.5523C0.161145 12.2666 0.000430121 11.8791 0 11.475V2.53808C0.000430443 2.13406 0.161221 1.74672 0.446986 1.46111C0.73275 1.1755 1.12021 1.01496 1.52423 1.01474H2.13357V0H3.14913V1.01556H9.85263V0H10.869V1.01556H11.4783C11.8822 1.01599 12.2694 1.17664 12.555 1.46222C12.8406 1.74781 13.0012 2.13502 13.0017 2.5389V11.4758C13.0012 11.8798 12.8406 12.2671 12.5551 12.5528C12.2695 12.8385 11.8823 12.9994 11.4783 13L1.52423 12.9992ZM1.01645 11.475C1.01645 11.6098 1.06991 11.739 1.16512 11.8344C1.26032 11.9297 1.38949 11.9834 1.52423 11.9836H11.4783C11.613 11.9832 11.742 11.9294 11.8371 11.8341C11.9323 11.7388 11.9859 11.6097 11.9861 11.475V4.77314H1.01804L1.01645 11.475ZM1.01645 2.53808V3.75676H11.9845V2.53808C11.9843 2.40348 11.9307 2.27445 11.8356 2.17927C11.7404 2.08409 11.6113 2.03052 11.4767 2.0303H10.8674V3.04587H9.85094V2.03112H3.14745V3.04668H2.13188V2.03112H1.52255C1.38808 2.03155 1.25923 2.08522 1.16423 2.18038C1.06922 2.27554 1.01578 2.40444 1.01556 2.5389L1.01645 2.53808ZM8.02382 10.9185V9.90294H9.03939V10.9185H8.02382ZM5.9927 10.9185V9.90294H7.00737V10.9185H5.9927ZM3.96158 10.9185V9.90294H4.97714V10.9185H3.96158ZM1.93046 10.9185V9.90294H2.94602V10.9185H1.93046ZM10.0549 8.88737V7.87263H11.0705V8.88737H10.0549ZM8.02382 8.88737V7.87263H9.03939V8.88737H8.02382ZM5.9927 8.88737V7.87263H7.00737V8.88737H5.9927ZM3.96158 8.88737V7.87263H4.97714V8.88737H3.96158ZM1.93046 8.88737V7.87263H2.94602V8.88737H1.93046ZM10.0549 6.85625V5.84069H11.0705V6.85625H10.0549ZM8.02382 6.85625V5.84069H9.03939V6.85625H8.02382ZM5.9927 6.85625V5.84069H7.00737V6.85625H5.9927ZM3.96158 6.85625V5.84069H4.97714V6.85625H3.96158ZM1.93046 6.85625V5.84069H2.94602V6.85625H1.93046Z" fill="#535358"/>
</svg>
