<svg width="16" height="13" viewBox="0 0 16 13" fill="none" xmlns="http://www.w3.org/2000/svg">
<path d="M5.41974 2.16486C5.41974 1.5907 5.64782 1.04006 6.05381 0.634073C6.4598 0.228083 7.01044 0 7.5846 0C8.15875 0 8.70939 0.228083 9.11538 0.634073C9.52137 1.04006 9.74946 1.5907 9.74946 2.16486C9.74946 2.73902 9.52137 3.28966 9.11538 3.69565C8.70939 4.10164 8.15875 4.32972 7.5846 4.32972C7.01044 4.32972 6.4598 4.10164 6.05381 3.69565C5.64782 3.28966 5.41974 2.73902 5.41974 2.16486ZM7.5846 1.08351C7.44259 1.08351 7.30198 1.11148 7.17078 1.16583C7.03959 1.22017 6.92038 1.29982 6.81997 1.40023C6.71956 1.50065 6.63991 1.61985 6.58556 1.75105C6.53122 1.88224 6.50325 2.02286 6.50325 2.16486C6.50325 2.30686 6.53122 2.44748 6.58556 2.57867C6.63991 2.70987 6.71956 2.82908 6.81997 2.92949C6.92038 3.0299 7.03959 3.10955 7.17078 3.16389C7.30198 3.21824 7.44259 3.24621 7.5846 3.24621C7.87139 3.24621 8.14643 3.13228 8.34922 2.92949C8.55202 2.7267 8.66594 2.45165 8.66594 2.16486C8.66594 1.87807 8.55202 1.60302 8.34922 1.40023C8.14643 1.19744 7.87139 1.08351 7.5846 1.08351ZM10.8351 2.70662C10.8351 2.49318 10.8772 2.28184 10.9589 2.08465C11.0405 1.88747 11.1602 1.7083 11.3112 1.55738C11.4621 1.40646 11.6413 1.28674 11.8384 1.20506C12.0356 1.12339 12.247 1.08135 12.4604 1.08135C12.6738 1.08135 12.8852 1.12339 13.0824 1.20506C13.2796 1.28674 13.4587 1.40646 13.6096 1.55738C13.7606 1.7083 13.8803 1.88747 13.962 2.08465C14.0436 2.28184 14.0857 2.49318 14.0857 2.70662C14.0857 3.13767 13.9144 3.55106 13.6096 3.85586C13.3049 4.16066 12.8915 4.33189 12.4604 4.33189C12.0294 4.33189 11.616 4.16066 11.3112 3.85586C11.0064 3.55106 10.8351 3.13767 10.8351 2.70662ZM12.4604 2.16486C12.3167 2.16486 12.1789 2.22194 12.0773 2.32354C11.9757 2.42514 11.9187 2.56293 11.9187 2.70662C11.9187 2.8503 11.9757 2.9881 12.0773 3.0897C12.1789 3.1913 12.3167 3.24837 12.4604 3.24837C12.6041 3.24837 12.7419 3.1913 12.8435 3.0897C12.9451 2.9881 13.0022 2.8503 13.0022 2.70662C13.0022 2.56293 12.9451 2.42514 12.8435 2.32354C12.7419 2.22194 12.6041 2.16486 12.4604 2.16486ZM2.70878 1.08135C2.27774 1.08135 1.86434 1.25258 1.55954 1.55738C1.25475 1.86217 1.08351 2.27557 1.08351 2.70662C1.08351 3.13767 1.25475 3.55106 1.55954 3.85586C1.86434 4.16066 2.27774 4.33189 2.70878 4.33189C3.13983 4.33189 3.55323 4.16066 3.85803 3.85586C4.16282 3.55106 4.33406 3.13767 4.33406 2.70662C4.33406 2.27557 4.16282 1.86217 3.85803 1.55738C3.55323 1.25258 3.13983 1.08135 2.70878 1.08135ZM2.16703 2.70662C2.16703 2.56293 2.22411 2.42514 2.32571 2.32354C2.4273 2.22194 2.5651 2.16486 2.70878 2.16486C2.85247 2.16486 2.99027 2.22194 3.09186 2.32354C3.19346 2.42514 3.25054 2.56293 3.25054 2.70662C3.25054 2.8503 3.19346 2.9881 3.09186 3.0897C2.99027 3.1913 2.85247 3.24837 2.70878 3.24837C2.5651 3.24837 2.4273 3.1913 2.32571 3.0897C2.22411 2.9881 2.16703 2.8503 2.16703 2.70662ZM3.54092 5.4154C3.35023 5.74463 3.25005 6.11845 3.25054 6.49892H1.08351V9.2077C1.08343 9.47721 1.15036 9.74251 1.27829 9.97972C1.40623 10.2169 1.59114 10.4186 1.81639 10.5666C2.04164 10.7146 2.30015 10.8042 2.56866 10.8274C2.83717 10.8507 3.10724 10.8068 3.35456 10.6997C3.43474 11.0583 3.56043 11.4007 3.72295 11.7204C3.31172 11.8864 2.86601 11.9489 2.42497 11.9025C1.98392 11.856 1.56103 11.702 1.19343 11.4539C0.825829 11.2058 0.524767 10.8712 0.316682 10.4796C0.108596 10.0879 -0.00014741 9.65119 1.49973e-07 9.2077V6.49892C1.49973e-07 6.21155 0.114156 5.93595 0.317354 5.73276C0.520552 5.52956 0.796148 5.4154 1.08351 5.4154H3.54092ZM11.4462 11.7204C11.8575 11.8864 12.3032 11.9489 12.7442 11.9025C13.1853 11.856 13.6082 11.702 13.9758 11.4539C14.3434 11.2058 14.6444 10.8712 14.8525 10.4796C15.0606 10.0879 15.1693 9.65119 15.1692 9.2077V6.49892C15.1692 6.21155 15.055 5.93595 14.8518 5.73276C14.6486 5.52956 14.373 5.4154 14.0857 5.4154H11.6283C11.8125 5.73396 11.9187 6.10343 11.9187 6.49892H14.0857V9.2077C14.0858 9.47721 14.0188 9.74251 13.8909 9.97972C13.763 10.2169 13.5781 10.4186 13.3528 10.5666C13.1276 10.7146 12.869 10.8042 12.6005 10.8274C12.332 10.8507 12.062 10.8068 11.8146 10.6997C11.7334 11.0583 11.6088 11.4007 11.4462 11.7204ZM5.41757 5.41432C5.1302 5.41432 4.85461 5.52847 4.65141 5.73167C4.44821 5.93487 4.33406 6.21047 4.33406 6.49783V9.74946C4.33406 10.6116 4.67652 11.4383 5.28612 12.0479C5.89571 12.6575 6.7225 13 7.5846 13C8.44669 13 9.27348 12.6575 9.88308 12.0479C10.4927 11.4383 10.8351 10.6116 10.8351 9.74946V6.49892C10.8351 6.21155 10.721 5.93595 10.5178 5.73276C10.3146 5.52956 10.039 5.4154 9.75163 5.4154H5.41757V5.41432ZM5.41757 6.49783H9.75163V9.74946C9.75163 10.3242 9.52331 10.8754 9.11692 11.2818C8.71052 11.6882 8.15933 11.9165 7.5846 11.9165C7.00987 11.9165 6.45867 11.6882 6.05228 11.2818C5.64588 10.8754 5.41757 10.3242 5.41757 9.74946V6.49892V6.49783Z" fill="#2F3990"/>
</svg>
