<svg width="13" height="13" viewBox="0 0 13 13" fill="none" xmlns="http://www.w3.org/2000/svg">
<path d="M3.41255 2.6001C3.28326 2.6001 3.15926 2.65146 3.06783 2.74288C2.97641 2.83431 2.92505 2.9583 2.92505 3.0876V7.9626C2.92505 8.09189 2.97641 8.21589 3.06783 8.30731C3.15926 8.39874 3.28326 8.4501 3.41255 8.4501C3.54184 8.4501 3.66584 8.39874 3.75726 8.30731C3.84869 8.21589 3.90005 8.09189 3.90005 7.9626V3.0876C3.90005 2.9583 3.84869 2.83431 3.75726 2.74288C3.66584 2.65146 3.54184 2.6001 3.41255 2.6001ZM6.50005 2.6001C6.37076 2.6001 6.24676 2.65146 6.15533 2.74288C6.06391 2.83431 6.01255 2.9583 6.01255 3.0876V6.0126C6.01255 6.14189 6.06391 6.26589 6.15533 6.35731C6.24676 6.44874 6.37076 6.5001 6.50005 6.5001C6.62934 6.5001 6.75334 6.44874 6.84476 6.35731C6.93619 6.26589 6.98755 6.14189 6.98755 6.0126V3.0876C6.98755 2.9583 6.93619 2.83431 6.84476 2.74288C6.75334 2.65146 6.62934 2.6001 6.50005 2.6001ZM9.10005 3.0876C9.10005 2.9583 9.15141 2.83431 9.24283 2.74288C9.33426 2.65146 9.45826 2.6001 9.58755 2.6001C9.71684 2.6001 9.84084 2.65146 9.93226 2.74288C10.0237 2.83431 10.075 2.9583 10.075 3.0876V9.2626C10.075 9.39189 10.0237 9.51589 9.93226 9.60731C9.84084 9.69874 9.71684 9.7501 9.58755 9.7501C9.45826 9.7501 9.33426 9.69874 9.24283 9.60731C9.15141 9.51589 9.10005 9.39189 9.10005 9.2626V3.0876Z" fill="#535358"/>
<path fill-rule="evenodd" clip-rule="evenodd" d="M1.1375 0C0.835816 0 0.546489 0.119843 0.333166 0.333166C0.119843 0.546489 0 0.835816 0 1.1375V11.8625C0 12.4904 0.5096 13 1.1375 13H11.8625C12.1642 13 12.4535 12.8802 12.6668 12.6668C12.8802 12.4535 13 12.1642 13 11.8625V1.1375C13 0.835816 12.8802 0.546489 12.6668 0.333166C12.4535 0.119843 12.1642 0 11.8625 0H1.1375ZM0.975 1.1375C0.975 1.0944 0.992121 1.05307 1.0226 1.0226C1.05307 0.992121 1.0944 0.975 1.1375 0.975H11.8625C11.9056 0.975 11.9469 0.992121 11.9774 1.0226C12.0079 1.05307 12.025 1.0944 12.025 1.1375V11.8625C12.025 11.9056 12.0079 11.9469 11.9774 11.9774C11.9469 12.0079 11.9056 12.025 11.8625 12.025H1.1375C1.0944 12.025 1.05307 12.0079 1.0226 11.9774C0.992121 11.9469 0.975 11.9056 0.975 11.8625V1.1375Z" fill="#535358"/>
</svg>
