<svg width="16" height="15" viewBox="0 0 16 15" fill="none" xmlns="http://www.w3.org/2000/svg">
<path d="M11.3307 1.36111C11.7045 1.5858 12.0138 1.90345 12.2284 2.28314C12.4431 2.66282 12.5558 3.09162 12.5556 3.52778C12.5558 3.96394 12.4431 4.39273 12.2284 4.77242C12.0138 5.15211 11.7045 5.46975 11.3307 5.69444M15.4444 14V13.5667C15.4444 11.9489 15.4444 11.14 15.1296 10.5218C14.8526 9.97822 14.4107 9.5363 13.8671 9.25933M6.41667 6.05556C6.74862 6.05556 7.07732 5.99017 7.38401 5.86314C7.69069 5.73611 7.96935 5.54991 8.20408 5.31519C8.4388 5.08046 8.625 4.8018 8.75203 4.49512C8.87906 4.18843 8.94444 3.85973 8.94444 3.52778C8.94444 3.19583 8.87906 2.86712 8.75203 2.56044C8.625 2.25375 8.4388 1.97509 8.20408 1.74037C7.96935 1.50564 7.69069 1.31945 7.38401 1.19242C7.07732 1.06538 6.74862 1 6.41667 1C5.74626 1 5.10331 1.26632 4.62926 1.74037C4.15521 2.21442 3.88889 2.85737 3.88889 3.52778C3.88889 4.19819 4.15521 4.84114 4.62926 5.31519C5.10331 5.78924 5.74626 6.05556 6.41667 6.05556V6.05556ZM1 13.5667V14H11.8333V13.5667C11.8333 11.9489 11.8333 11.14 11.5184 10.5218C11.2415 9.97822 10.7996 9.5363 10.256 9.25933C9.63778 8.94444 8.82889 8.94444 7.21111 8.94444H5.62222C4.00444 8.94444 3.19556 8.94444 2.57733 9.25933C2.03378 9.5363 1.59185 9.97822 1.31489 10.5218C1 11.14 1 11.9489 1 13.5667Z" stroke="#535358" stroke-linecap="round" stroke-linejoin="round"/>
</svg>
