<svg width="12" height="13" viewBox="0 0 12 13" fill="none" xmlns="http://www.w3.org/2000/svg">
<path d="M4.64279 6.774L3.44029 5.5715L2.78564 6.22614L4.64279 8.08328L8.35707 4.369L7.70243 3.71436L4.64279 6.774Z" fill="#2F3990"/>
<path d="M5.57143 13L2.704 11.4711C1.88655 11.0362 1.20295 10.3869 0.726573 9.59294C0.250194 8.79895 -0.000981065 7.89022 2.87977e-06 6.96429V0.928571C0.000248708 0.682374 0.0981591 0.446331 0.272247 0.272244C0.446334 0.0981561 0.682377 0.000245828 0.928574 0H10.2143C10.4605 0.000245828 10.6965 0.0981561 10.8706 0.272244C11.0447 0.446331 11.1426 0.682374 11.1429 0.928571V6.96429C11.1438 7.89022 10.8927 8.79895 10.4163 9.59294C9.93991 10.3869 9.25631 11.0362 8.43886 11.4711L5.57143 13ZM0.928574 0.928571V6.96429C0.927804 7.72191 1.13337 8.46544 1.52321 9.11507C1.91306 9.7647 2.47245 10.2959 3.14136 10.6516L5.57143 11.9475L8.0015 10.6521C8.67048 10.2963 9.22992 9.76505 9.61977 9.11533C10.0096 8.46562 10.2151 7.72199 10.2143 6.96429V0.928571H0.928574Z" fill="#2F3990"/>
</svg>
