<svg width="13" height="18" viewBox="0 0 13 18" fill="none" xmlns="http://www.w3.org/2000/svg">
<path d="M4.59333 9.53333L5.30833 7.17167L3.42333 5.72H5.76333L6.5 3.38L7.23667 5.72H9.57667L7.67 7.17167L8.385 9.53333L6.5 8.06L4.59333 9.53333ZM1.73333 17.095V10.8983C1.18444 10.3206 0.758333 9.65611 0.455 8.905C0.151667 8.15389 0 7.35222 0 6.5C0 4.68 0.628333 3.14167 1.885 1.885C3.14167 0.628334 4.68 0 6.5 0C8.32 0 9.85833 0.628334 11.115 1.885C12.3717 3.14167 13 4.68 13 6.5C13 7.35222 12.8483 8.15389 12.545 8.905C12.2417 9.65611 11.8156 10.3206 11.2667 10.8983V17.095L6.5 15.5783L1.73333 17.095ZM6.5 11.7C7.94444 11.7 9.17222 11.1944 10.1833 10.1833C11.1944 9.17222 11.7 7.94445 11.7 6.5C11.7 5.05556 11.1944 3.82778 10.1833 2.81667C9.17222 1.80556 7.94444 1.3 6.5 1.3C5.05556 1.3 3.82778 1.80556 2.81667 2.81667C1.80556 3.82778 1.3 5.05556 1.3 6.5C1.3 7.94445 1.80556 9.17222 2.81667 10.1833C3.82778 11.1944 5.05556 11.7 6.5 11.7ZM3.03333 15.1883L6.5 14.2567L9.96667 15.1883V11.9817C9.47556 12.2994 8.93389 12.5488 8.34167 12.7296C7.74944 12.9099 7.13556 13 6.5 13C5.86444 13 5.25056 12.9099 4.65833 12.7296C4.06611 12.5488 3.52444 12.2994 3.03333 11.9817V15.1883Z" fill="#535358"/>
</svg>
