<svg width="12" height="9" viewBox="0 0 12 9" fill="none" xmlns="http://www.w3.org/2000/svg">
<path d="M11.3807 5.82473C9.81426 4.98764 8.3144 4.21805 6.78125 3.41455V8.22129C8.39459 7.34425 10.0951 6.54107 11.3874 5.82473H11.3807Z" fill="white"/>
<path d="M11.3807 5.82473C9.81426 4.98764 6.78125 3.41455 6.78125 3.41455L10.8251 6.1325C10.8254 6.1325 10.0884 6.54107 11.3807 5.82473Z" fill="#E8E0E0"/>
<path d="M4.96986 8.41738C2.68451 8.3753 1.90395 8.33746 1.42417 8.23861C1.09957 8.17293 0.817491 8.0271 0.610663 7.8156C0.450811 7.65553 0.323687 7.41129 0.225059 7.07244C0.140458 6.79014 0.107508 6.55526 0.0605321 5.98153C-0.011379 4.68669 -0.0285219 3.62806 0.0605321 2.4452C0.134002 1.79199 0.169623 1.01655 0.657639 0.564157C0.888066 0.352431 1.15612 0.216179 1.45712 0.159852C1.92733 0.0705754 3.9306 0 6.00444 0C8.07361 0 10.0813 0.0705754 10.552 0.159852C10.928 0.230427 11.2807 0.44193 11.4877 0.714658C11.933 1.41507 11.9408 2.28602 11.986 2.96728C12.0047 3.29188 12.0047 5.13508 11.986 5.45968C11.9156 6.53634 11.8591 6.91727 11.6992 7.31222C11.6004 7.56157 11.516 7.69315 11.3699 7.83898C11.1409 8.06338 10.8489 8.21265 10.5328 8.26688C8.55517 8.4156 6.87583 8.44788 4.96986 8.41738ZM7.99836 4.09114C6.8981 3.50316 5.84459 2.95793 4.7677 2.39355V5.77003C5.90092 5.154 7.09557 4.58962 8.00303 4.08646L7.99836 4.09114Z" fill="#FF0100"/>
</svg>
