<svg width="30" height="30" viewBox="0 0 30 30" fill="none" xmlns="http://www.w3.org/2000/svg">
<rect x="0.5" y="0.5" width="29" height="29" rx="4.5" stroke="#DFE1E6"/>
<path d="M18.5864 19.6658C14.7495 22.6831 9.98005 21.432 7.67433 18.4972C5.17611 15.3218 5.53394 10.882 8.34444 8.17609C11.2167 5.41054 15.6091 5.27072 18.6313 7.81549C21.6225 10.3301 22.4521 15.0164 19.6276 18.5973L21.2118 20.1744C22.02 20.9839 22.8283 21.7838 23.6248 22.5962C23.7661 22.7296 23.8793 22.89 23.9576 23.068C24.0127 23.2191 24.0141 23.3847 23.9617 23.5368C23.9092 23.6889 23.8061 23.8183 23.6696 23.9032C23.3882 24.0695 22.94 24.0195 22.685 23.7685C22.0391 23.1327 21.4013 22.4888 20.7606 21.8463C20.0347 21.1207 19.3099 20.3939 18.5864 19.6658ZM13.6936 19.88C14.5057 19.8817 15.3101 19.7222 16.0604 19.4109C16.8107 19.0996 17.492 18.6425 18.065 18.0661C18.638 17.4897 19.0914 16.8053 19.3989 16.0525C19.7065 15.2997 19.8621 14.4933 19.8569 13.68C19.8517 10.2852 17.0647 7.49832 13.6782 7.51304C10.2703 7.52481 7.48917 10.3272 7.50607 13.7329C7.5152 15.3691 8.17163 16.9349 9.33146 18.0871C10.4913 19.2394 12.0599 19.8841 13.6936 19.88Z" fill="black"/>
<path d="M14.424 12.9477C15.0544 12.9477 15.629 12.9477 16.2028 12.9477C16.5239 12.9477 16.8156 13.0824 16.8987 13.3893C16.9619 13.6203 16.9479 13.9471 16.8252 14.1333C16.7076 14.3077 16.4056 14.4173 16.1727 14.4409C15.7082 14.4768 15.2417 14.4803 14.7766 14.4512C14.5114 14.4416 14.4048 14.5145 14.4181 14.7993C14.4408 15.2761 14.4298 15.756 14.4181 16.2328C14.4063 16.7097 14.1242 17.0077 13.6774 17.0063C13.2307 17.0048 12.9427 16.7119 12.9427 16.2277C12.9353 15.6544 12.9427 15.0811 12.9427 14.4563H11.4129C10.7163 14.4563 10.3724 14.2032 10.3761 13.6998C10.3761 13.2097 10.7435 12.9507 11.4239 12.9499L12.8199 12.9455C12.862 12.9377 12.9035 12.9268 12.9441 12.9131C12.9441 12.3332 12.9331 11.7357 12.9441 11.1425C12.9573 10.5737 13.5106 10.2227 14.0007 10.4662C14.2873 10.609 14.4276 10.8511 14.424 11.1801C14.4188 11.7511 14.424 12.3244 14.424 12.9477Z" fill="black"/>
</svg>
