<svg width="30" height="30" viewBox="0 0 30 30" fill="none" xmlns="http://www.w3.org/2000/svg">
<rect x="0.5" y="0.5" width="29" height="29" rx="4.5" stroke="#DFE1E6"/>
<path d="M18.2505 19.307C14.7124 22.0592 10.1558 21.2328 7.67655 18.226C5.26652 15.3008 5.47257 10.934 8.1799 8.20537C10.8872 5.4767 15.304 5.25666 18.2343 7.67626C21.2287 10.1488 22.0668 14.701 19.3227 18.2326C19.4331 18.3488 19.5435 18.4725 19.6612 18.5902C20.9524 19.8834 22.2444 21.1759 23.5371 22.4676C23.6531 22.5721 23.7588 22.6874 23.8528 22.812C24.0736 23.1373 24.0545 23.4743 23.7851 23.7532C23.5003 24.0476 23.1545 24.0785 22.8093 23.8467C22.6854 23.7519 22.5708 23.6454 22.4672 23.5288C21.0655 22.1252 19.66 20.7179 18.2505 19.307ZM19.4971 13.4795C19.4766 11.8991 18.8335 10.3906 17.7074 9.28153C16.5814 8.17244 15.0634 7.55227 13.4828 7.55566C11.9023 7.55906 10.387 8.18573 9.2657 9.29964C8.14445 10.4136 7.50783 11.9248 7.49405 13.5052C7.49773 16.7954 10.194 19.4909 13.4849 19.4939C15.0796 19.4931 16.6087 18.8591 17.7361 17.7313C18.8635 16.6035 19.4969 15.0742 19.4971 13.4795Z" fill="black"/>
<path d="M13.5099 14.2411C12.5584 14.2411 11.6069 14.2411 10.6554 14.2411C10.077 14.2411 9.73483 13.9468 9.74808 13.4721C9.76059 13.0159 10.0895 12.7458 10.6503 12.7451C12.5523 12.7451 14.4551 12.7451 16.3586 12.7451C16.9083 12.7451 17.2416 13.032 17.2416 13.4898C17.2416 13.9475 16.9097 14.2374 16.3622 14.2396C15.4129 14.2441 14.4614 14.2411 13.5099 14.2411Z" fill="black"/>
</svg>
