<svg width="21" height="20" viewBox="0 0 21 20" fill="none" xmlns="http://www.w3.org/2000/svg">
<path d="M3.42627 0.625C3.42627 0.291667 3.1346 0 2.80127 0H1.55127C1.21794 0 0.92627 0.291667 0.92627 0.625V19.375C0.92627 19.7083 1.21794 20 1.55127 20H2.80127C3.1346 20 3.42627 19.7083 3.42627 19.375V0.625Z" fill="#959595"/>
<path d="M19.4683 2.37483C12.8016 5.87483 13.5516 -1.29184 5.50993 1.49983C5.25993 1.58316 5.09326 1.83316 5.09326 2.08316V11.7915C5.09326 12.0832 5.38493 12.2915 5.63493 12.1665C13.6349 9.49983 12.8016 16.8332 19.7599 12.9165C19.9683 12.7915 20.0933 12.5832 20.0933 12.3748V2.70816C20.0933 2.4165 19.7599 2.20816 19.4683 2.37483Z" fill="#959595"/>
</svg>
