<svg width="21" height="21" viewBox="0 0 21 21" fill="none" xmlns="http://www.w3.org/2000/svg">
<path d="M17.3973 12.3465C17.0316 13.7111 16.2696 14.9366 15.2074 15.8681C14.1453 16.7996 12.8308 17.3951 11.4301 17.5795C10.0295 17.7639 8.60565 17.5289 7.33861 16.904C6.07158 16.2792 5.01828 15.2927 4.31192 14.0692C3.60556 12.8458 3.27786 11.4403 3.37025 10.0306C3.46265 8.62093 3.971 7.27029 4.83101 6.1495C5.69102 5.02871 6.86407 4.18812 8.20182 3.73401C9.53957 3.27991 10.9819 3.23269 12.3465 3.59833L12.7163 2.21843C11.0788 1.77967 9.34792 1.83633 7.74262 2.38125C6.13732 2.92618 4.72966 3.9349 3.69765 5.27984C2.66563 6.62479 2.05562 8.24556 1.94474 9.9372C1.83387 11.6288 2.22711 13.3154 3.07474 14.7835C3.92238 16.2517 5.18633 17.4355 6.70677 18.1853C8.22721 18.9351 9.93585 19.2172 11.6166 18.9959C13.2974 18.7746 14.8748 18.0599 16.1494 16.9421C17.4239 15.8244 18.3384 14.3538 18.7772 12.7162L17.3973 12.3465Z" fill="#959595"/>
<path d="M9.78341 11.3788L7.93341 9.52884L6.92627 10.536L9.78341 13.3931L14.7834 8.39313L13.7763 7.38599L9.78341 11.3788Z" fill="#959595"/>
<path fill-rule="evenodd" clip-rule="evenodd" d="M17.4977 2.38599C17.6493 2.38599 17.7946 2.44619 17.9018 2.55335C18.0089 2.66052 18.0691 2.80586 18.0691 2.95741V8.10027C18.0691 8.25182 18.0089 8.39717 17.9018 8.50433C17.7946 8.6115 17.6493 8.6717 17.4977 8.6717C17.3461 8.6717 17.2008 8.6115 17.0936 8.50433C16.9865 8.39717 16.9263 8.25182 16.9263 8.10027V2.95741C16.9263 2.80586 16.9865 2.66052 17.0936 2.55335C17.2008 2.44619 17.3461 2.38599 17.4977 2.38599V2.38599ZM17.4977 10.386C17.6493 10.386 17.7946 10.3258 17.9018 10.2186C18.0089 10.1115 18.0691 9.96611 18.0691 9.81456C18.0691 9.66301 18.0089 9.51766 17.9018 9.4105C17.7946 9.30333 17.6493 9.24313 17.4977 9.24313C17.3461 9.24313 17.2008 9.30333 17.0936 9.4105C16.9865 9.51766 16.9263 9.66301 16.9263 9.81456C16.9263 9.96611 16.9865 10.1115 17.0936 10.2186C17.2008 10.3258 17.3461 10.386 17.4977 10.386V10.386Z" fill="#959595"/>
</svg>
