<svg width="15" height="11" viewBox="0 0 15 11" fill="none" xmlns="http://www.w3.org/2000/svg">
<path d="M8.45421 0.420129C8.315 0.423613 8.18064 0.471782 8.07067 0.557219C7.9607 0.642656 7.88117 0.761109 7.84345 0.895167L5.23757 9.58156C5.17092 9.80469 5.22818 10.0463 5.38814 10.2157C5.54795 10.3849 5.78593 10.4561 6.0124 10.4023C6.23901 10.3485 6.41957 10.1779 6.48623 9.95482L9.09211 1.26843C9.15588 1.06757 9.11847 0.84838 8.99183 0.679926C8.8652 0.511472 8.66494 0.414688 8.45425 0.420141L8.45421 0.420129ZM4.09085 1.07847C3.9221 1.08862 3.76381 1.16406 3.64974 1.28888L0.175109 4.98056C0.0625618 5.10113 0 5.26003 0 5.425C0 5.58996 0.0625618 5.74886 0.175109 5.86959L3.64974 9.56127C3.76471 9.69836 3.93104 9.78228 4.10962 9.79304C4.28821 9.80394 4.46347 9.74077 4.59419 9.61853C4.72492 9.49614 4.79945 9.32557 4.80051 9.14652C4.80157 8.96762 4.72901 8.796 4.5998 8.67226L1.54599 5.42836L4.5998 2.17778C4.72038 2.05084 4.7849 1.88073 4.77854 1.70561C4.77233 1.53066 4.69584 1.36555 4.56647 1.24756C4.43711 1.12956 4.26564 1.06851 4.09081 1.07836L4.09085 1.07847ZM10.1508 1.07847C9.98611 1.09135 9.83237 1.16618 9.72087 1.28812C9.60923 1.4099 9.54819 1.56956 9.54985 1.73469C9.55152 1.89995 9.61605 2.05825 9.72996 2.17777L12.7838 5.42835L9.72996 8.6721V8.67225C9.60075 8.796 9.52819 8.96763 9.52925 9.14651C9.53031 9.32556 9.60484 9.49612 9.73556 9.61852C9.86629 9.74076 10.0415 9.80393 10.2201 9.79302C10.3987 9.78227 10.5651 9.69835 10.68 9.56126L14.1547 5.86958C14.2672 5.74885 14.3298 5.58995 14.3298 5.42499C14.3298 5.26003 14.2672 5.10112 14.1547 4.98054L10.68 1.28871C10.5452 1.14117 10.3501 1.06361 10.1508 1.07831L10.1508 1.07847Z" fill="#818181"/>
</svg>
