<svg width="13" height="10" viewBox="0 0 13 10" fill="none" xmlns="http://www.w3.org/2000/svg">
<path d="M12.3076 0.384848C12.3076 0.282728 12.2672 0.18486 12.1949 0.112746C12.1228 0.0406317 12.0249 0.000194672 11.9229 0.000194672H7.30763C7.09528 0.000194672 6.92297 0.172369 6.92297 0.384848C6.92297 0.597199 7.09528 0.76937 7.30763 0.76937H11.9229C12.0249 0.769499 12.1228 0.728933 12.1949 0.656819C12.2672 0.584705 12.3076 0.486837 12.3076 0.384845V0.384848ZM12.3076 2.69251C12.3076 2.59039 12.2672 2.49252 12.1949 2.4204C12.1228 2.34829 12.0249 2.30785 11.9229 2.30785H7.30763C7.09528 2.30785 6.92297 2.48003 6.92297 2.69251C6.92297 2.90486 7.09528 3.07703 7.30763 3.07703H11.9229C12.0249 3.07716 12.1228 3.03659 12.1949 2.96448C12.2672 2.89236 12.3076 2.79449 12.3076 2.6925V2.69251ZM12.3076 5.00016C12.3076 4.89804 12.2672 4.80018 12.1949 4.72806C12.1228 4.65595 12.0249 4.61551 11.9229 4.61551H7.30763C7.09528 4.61551 6.92297 4.78768 6.92297 5.00016C6.92297 5.21251 7.09528 5.38469 7.30763 5.38469H11.9229C12.0249 5.38481 12.1228 5.34425 12.1949 5.27213C12.2672 5.20002 12.3076 5.10215 12.3076 5.00016V5.00016ZM12.3076 7.30782C12.3076 7.2057 12.2672 7.10783 12.1949 7.03572C12.1228 6.9636 12.0249 6.92317 11.9229 6.92317H0.384654C0.172303 6.92317 0 7.09534 0 7.30782C0 7.52017 0.172303 7.69234 0.384654 7.69234H11.9229C12.0249 7.69247 12.1228 7.65191 12.1949 7.57979C12.2672 7.50768 12.3076 7.40981 12.3076 7.30782V7.30782ZM12.3076 9.61548C12.3076 9.51336 12.2672 9.41549 12.1949 9.34338C12.1228 9.27126 12.0249 9.23083 11.9229 9.23083H0.384654C0.172303 9.23083 0 9.403 0 9.61548C0 9.82783 0.172303 10 0.384654 10H11.9229C12.0249 10.0001 12.1228 9.95956 12.1949 9.88745C12.2672 9.81533 12.3076 9.71747 12.3076 9.61547V9.61548ZM4.61518 5.38455H0.769307C0.565198 5.38455 0.369588 5.30355 0.225359 5.15933C0.0811306 5.0151 3.52121e-06 4.81937 3.52121e-06 4.61538V0.769172C3.52121e-06 0.565192 0.0811306 0.369585 0.225359 0.225356C0.369588 0.080999 0.565211 0 0.769307 0H4.61551H4.61538C4.81949 0 5.0151 0.080999 5.15933 0.225356C5.30356 0.369585 5.38469 0.565208 5.38469 0.769172V4.61538C5.38469 4.81936 5.30356 5.0151 5.15933 5.15933C5.0151 5.30355 4.81948 5.38455 4.61538 5.38455H4.61518Z" fill="#818181"/>
</svg>
