<svg width="21" height="21" viewBox="0 0 21 21" fill="none" xmlns="http://www.w3.org/2000/svg">
<path d="M11.3285 9.67148L11.3051 2.27808C11.3057 2.16833 11.2846 2.0595 11.2429 1.95799C11.2011 1.85648 11.1397 1.76428 11.0621 1.68668C10.9845 1.60908 10.8923 1.54762 10.7908 1.5059C10.6893 1.46418 10.5804 1.44308 10.4707 1.44368C10.251 1.44403 10.0405 1.53146 9.88517 1.68676C9.72986 1.84207 9.64243 2.05264 9.64209 2.27228L9.66568 9.66554L2.27228 9.64209C2.05264 9.64243 1.84207 9.72986 1.68676 9.88517C1.53146 10.0405 1.44403 10.251 1.44368 10.4707C1.44308 10.5804 1.46418 10.6893 1.5059 10.7908C1.54762 10.8923 1.60908 10.9845 1.68668 11.0621C1.76428 11.1397 1.85648 11.2011 1.95799 11.2429C2.0595 11.2846 2.16834 11.3057 2.27808 11.3051L9.67149 11.3285L9.69494 18.7219C9.69434 18.8317 9.71544 18.9405 9.75716 19.042C9.79888 19.1435 9.86034 19.2357 9.93794 19.3133C10.0155 19.3909 10.1078 19.4524 10.2093 19.4941C10.3108 19.5358 10.4196 19.5569 10.5293 19.5563C10.749 19.556 10.9595 19.4686 11.1149 19.3133C11.2702 19.158 11.3576 18.9474 11.3579 18.7277L11.3345 11.3343L18.7277 11.3579C18.9474 11.3576 19.158 11.2702 19.3133 11.1149C19.4686 10.9595 19.556 10.749 19.5563 10.5293C19.5569 10.4196 19.5358 10.3108 19.4941 10.2093C19.4524 10.1078 19.3909 10.0155 19.3133 9.93794C19.2357 9.86034 19.1435 9.79888 19.042 9.75716C18.9405 9.71544 18.8317 9.69434 18.7219 9.69494L11.3285 9.67148Z" fill="#2F3990" stroke="#2F3990"/>
</svg>
