<svg width="32" height="32" viewBox="0 0 32 32" fill="none" xmlns="http://www.w3.org/2000/svg">
<path d="M16 31.5C24.5604 31.5 31.5 24.5604 31.5 16C31.5 7.43959 24.5604 0.5 16 0.5C7.43959 0.5 0.5 7.43959 0.5 16C0.5 24.5604 7.43959 31.5 16 31.5Z" fill="white" stroke="#DFE1E6"/>
<path d="M9.87574 23.999C9.37845 23.9985 8.90158 23.8007 8.54994 23.449C8.19831 23.0973 8.00053 22.6205 8 22.1231V11.1238C8.00053 10.6265 8.1984 10.1498 8.55007 9.79829C8.90173 9.44677 9.37854 9.24918 9.87574 9.24891H10.6256V8H11.8754V9.24992H20.1248V8H21.3755V9.24992H22.1254C22.6224 9.25045 23.0989 9.44817 23.4503 9.79966C23.8017 10.1512 23.9995 10.6277 24 11.1248V22.1241C23.9995 22.6213 23.8018 23.098 23.4504 23.4496C23.099 23.8013 22.6225 23.9992 22.1254 24L9.87574 23.999ZM9.25086 22.1231C9.25086 22.2889 9.31665 22.448 9.43381 22.5654C9.55097 22.6827 9.70992 22.7488 9.87574 22.7491H22.1254C22.2911 22.7485 22.4498 22.6824 22.5669 22.5651C22.684 22.4478 22.75 22.2889 22.7502 22.1231V13.8746H9.25281L9.25086 22.1231ZM9.25086 11.1238V12.6237H22.7483V11.1238C22.748 10.9581 22.6821 10.7993 22.565 10.6822C22.4478 10.565 22.2891 10.4991 22.1234 10.4988H21.3735V11.7488H20.1227V10.4998H11.8733V11.7498H10.6235V10.4998H9.87367C9.70819 10.5004 9.54962 10.5664 9.43271 10.6835C9.3158 10.8007 9.25003 10.9593 9.24976 11.1248L9.25086 11.1238ZM17.8742 21.4381V20.1882H19.124V21.4381H17.8742ZM15.3747 21.4381V20.1882H16.6234V21.4381H15.3747ZM12.8752 21.4381V20.1882H14.1249V21.4381H12.8752ZM10.3756 21.4381V20.1882H11.6254V21.4381H10.3756ZM20.3737 18.9383V17.6894H21.6235V18.9383H20.3737ZM17.8742 18.9383V17.6894H19.124V18.9383H17.8742ZM15.3747 18.9383V17.6894H16.6234V18.9383H15.3747ZM12.8752 18.9383V17.6894H14.1249V18.9383H12.8752ZM10.3756 18.9383V17.6894H11.6254V18.9383H10.3756ZM20.3737 16.4385V15.1885H21.6235V16.4385H20.3737ZM17.8742 16.4385V15.1885H19.124V16.4385H17.8742ZM15.3747 16.4385V15.1885H16.6234V16.4385H15.3747ZM12.8752 16.4385V15.1885H14.1249V16.4385H12.8752ZM10.3756 16.4385V15.1885H11.6254V16.4385H10.3756Z" fill="#818181"/>
</svg>
