<svg width="21" height="22" viewBox="0 0 21 22" fill="none" xmlns="http://www.w3.org/2000/svg">
<path fill-rule="evenodd" clip-rule="evenodd" d="M9.48572 17.7556V7.55868H11.2199V17.7556H9.48572ZM6.11998 7.58518L7.85879 7.52232L8.23507 17.7181L6.49612 17.781L6.11998 7.58518ZM12.4713 17.7181L12.8474 7.5223L14.5864 7.58636L14.2101 17.781L12.4713 17.7181ZM12.9065 3.30321V1.72388H7.80277V3.30321H12.9065ZM4.91389 20.2773H15.7618L17.1165 5.02675H3.55928L4.91389 20.2773ZM4.11723 22C3.66654 22 3.29025 21.6587 3.25075 21.2138L1.81226 5.02565H0V3.30312H6.06108V1.43605C6.06108 0.644052 6.71098 0 7.5111 0H13.1949C13.9938 0 14.645 0.644052 14.645 1.43605V3.30312H20.7048V5.02565H18.8635L17.4251 21.2138C17.3855 21.6587 17.0093 22 16.5585 22H4.11723Z" fill="#2C2C2C"/>
</svg>
