<svg width="32" height="32" viewBox="0 0 32 32" fill="none" xmlns="http://www.w3.org/2000/svg">
<path d="M16 31.5C24.5604 31.5 31.5 24.5604 31.5 16C31.5 7.43959 24.5604 0.5 16 0.5C7.43959 0.5 0.5 7.43959 0.5 16C0.5 24.5604 7.43959 31.5 16 31.5Z" fill="white" stroke="#DFE1E6"/>
<path d="M11.7895 10.5263C11.4386 10.5263 11.1405 10.6493 10.8952 10.8952C10.6493 11.1405 10.5263 11.4386 10.5263 11.7895C10.5263 12.1404 10.6493 12.4385 10.8952 12.6838C11.1405 12.9297 11.4386 13.0526 11.7895 13.0526C12.1404 13.0526 12.4385 12.9297 12.6838 12.6838C12.9297 12.4385 13.0526 12.1404 13.0526 11.7895C13.0526 11.4386 12.9297 11.1405 12.6838 10.8952C12.4385 10.6493 12.1404 10.5263 11.7895 10.5263ZM11.7895 18.9474C11.4386 18.9474 11.1405 19.0703 10.8952 19.3162C10.6493 19.5615 10.5263 19.8596 10.5263 20.2105C10.5263 20.5614 10.6493 20.8595 10.8952 21.1048C11.1405 21.3507 11.4386 21.4737 11.7895 21.4737C12.1404 21.4737 12.4385 21.3507 12.6838 21.1048C12.9297 20.8595 13.0526 20.5614 13.0526 20.2105C13.0526 19.8596 12.9297 19.5615 12.6838 19.3162C12.4385 19.0703 12.1404 18.9474 11.7895 18.9474ZM8.84211 8H22.3158C22.5544 8 22.7542 8.08056 22.9154 8.24168C23.0771 8.40337 23.1579 8.60351 23.1579 8.84211V14.7368C23.1579 14.9754 23.0771 15.1753 22.9154 15.3364C22.7542 15.4981 22.5544 15.5789 22.3158 15.5789H8.84211C8.60351 15.5789 8.40365 15.4981 8.24253 15.3364C8.08084 15.1753 8 14.9754 8 14.7368V8.84211C8 8.60351 8.08084 8.40337 8.24253 8.24168C8.40365 8.08056 8.60351 8 8.84211 8ZM9.68421 9.68421V13.8947H21.4737V9.68421H9.68421ZM8.84211 16.4211H22.3158C22.5544 16.4211 22.7542 16.5016 22.9154 16.6627C23.0771 16.8244 23.1579 17.0246 23.1579 17.2632V23.1579C23.1579 23.3965 23.0771 23.5964 22.9154 23.7575C22.7542 23.9192 22.5544 24 22.3158 24H8.84211C8.60351 24 8.40365 23.9192 8.24253 23.7575C8.08084 23.5964 8 23.3965 8 23.1579V17.2632C8 17.0246 8.08084 16.8244 8.24253 16.6627C8.40365 16.5016 8.60351 16.4211 8.84211 16.4211ZM9.68421 18.1053V22.3158H21.4737V18.1053H9.68421Z" fill="#818181"/>
</svg>
