<svg width="16" height="16" viewBox="0 0 16 16" fill="none" xmlns="http://www.w3.org/2000/svg">
<path d="M12.5318 0H3.46821C1.55277 0 0 1.55277 0 3.46821V12.5318C0 14.4472 1.55277 16 3.46821 16H12.5318C14.4472 16 16 14.4472 16 12.5318V3.46821C16 1.55277 14.4472 0 12.5318 0Z" fill="#FF9600"/>
<path d="M7.5004 12.8418H8.5004C8.5004 12.9745 8.44772 13.1016 8.35395 13.1954C8.26019 13.2892 8.13301 13.3418 8.0004 13.3418C7.86779 13.3418 7.74061 13.2892 7.64685 13.1954C7.55308 13.1016 7.5004 12.9745 7.5004 12.8418ZM7.12583 12.3424C6.99317 12.3421 6.86602 12.2893 6.77221 12.1955C6.6784 12.1017 6.62556 11.9745 6.62525 11.8418V10.3389H9.37554V11.8418C9.37554 11.9744 9.32296 12.1016 9.22934 12.1954C9.13571 12.2892 9.00868 12.3421 8.87612 12.3424H7.12583ZM6.61023 9.59213C6.44607 8.26496 5.00098 7.74242 5.00098 5.69618C5.04839 4.93272 5.3851 4.21607 5.9425 3.69222C6.4999 3.16836 7.23605 2.87671 8.00098 2.87671C8.76591 2.87671 9.50206 3.16836 10.0595 3.69222C10.6169 4.21607 10.9536 4.93272 11.001 5.69618C11.001 7.74358 9.55705 8.2638 9.39173 9.59213H6.61023Z" fill="white"/>
</svg>
