<svg width="22" height="22" viewBox="0 0 22 22" fill="none" xmlns="http://www.w3.org/2000/svg">
<path d="M17.9373 0.670344C18.8228 -0.223448 20.2644 -0.223448 21.1506 0.670344C21.5796 1.10285 21.8161 1.67855 21.8161 2.29091C21.8161 2.90326 21.5796 3.47899 21.1506 3.91072L19.8926 5.17952L16.6793 1.93894L17.9373 0.670344Z" fill="#2C2C2C"/>
<path d="M8.52268 10.1645C8.45906 10.2286 8.41644 10.3103 8.39814 10.3982L7.75565 13.6398C7.7256 13.79 7.77292 13.9449 7.88001 14.054C7.96645 14.1411 8.08276 14.1878 8.20193 14.1878C8.23097 14.1878 8.26102 14.1851 8.29105 14.1787L11.5044 13.5307C11.5934 13.5122 11.6742 13.4692 11.737 13.4049L18.9291 6.15205L15.7157 2.91167L8.52268 10.1645Z" fill="#2C2C2C"/>
<path d="M17.2709 10.9996C16.7683 10.9996 16.3621 11.4104 16.3621 11.9162V19.2499C16.3621 19.755 15.9547 20.1665 15.453 20.1665H2.72691C2.22524 20.1665 1.81805 19.755 1.81805 19.2499V6.41613C1.81805 5.91102 2.22524 5.49948 2.72691 5.49948H9.99901C10.5017 5.49948 10.9081 5.0887 10.9081 4.58274C10.9081 4.07671 10.5017 3.66603 9.99901 3.66603H2.72691C1.22356 3.66603 0 4.89988 0 6.41613V19.2499C0 20.7661 1.22356 22 2.72691 22H15.453C16.9566 22 18.1802 20.7661 18.1802 19.2499V11.9162C18.1802 11.4093 17.7736 10.9996 17.2709 10.9996Z" fill="#2C2C2C"/>
</svg>
