<svg width="37" height="37" viewBox="0 0 37 37" fill="none" xmlns="http://www.w3.org/2000/svg">
<rect x="0.5" y="0.5" width="36" height="36" rx="6.5" fill="white" stroke="#DFE1E6"/>
<path fill-rule="evenodd" clip-rule="evenodd" d="M10.428 12H12.1402C12.3768 12 12.5683 12.1957 12.5683 12.4375V14.1875C12.5683 14.4294 12.3768 14.625 12.1403 14.625H10.428C10.1914 14.625 10 14.4294 10 14.1875V12.4375C10 12.1957 10.1914 12 10.428 12ZM10.428 17.6875H12.1402C12.3768 17.6875 12.5683 17.8832 12.5683 18.125V19.875C12.5683 20.1168 12.3768 20.3125 12.1403 20.3125H10.428C10.1914 20.3125 10 20.1168 10 19.875V18.125C10 17.8832 10.1914 17.6875 10.428 17.6875ZM12.1402 23.375H10.428C10.1914 23.375 10 23.5707 10 23.8125V25.5625C10 25.8043 10.1914 26 10.428 26H12.1403C12.3768 26 12.5683 25.8043 12.5683 25.5625V23.8125C12.5683 23.5707 12.3768 23.375 12.1402 23.375ZM14.7085 12.875H26.0436C26.2801 12.875 26.4716 13.0707 26.4716 13.3125V14.1875C26.4716 14.4294 26.2801 14.625 26.0436 14.625H14.7085C14.472 14.625 14.2805 14.4294 14.2805 14.1875V13.3125C14.2805 13.0707 14.472 12.875 14.7085 12.875ZM26.0432 18.1251H14.7081C14.4716 18.1251 14.2801 18.3208 14.2801 18.5625V19.4375C14.2801 19.6794 14.4716 19.8751 14.7081 19.8751H26.0432C26.2797 19.8751 26.4712 19.6794 26.4712 19.4375V18.5625C26.4712 18.3208 26.2797 18.1251 26.0432 18.1251ZM14.7085 23.375H26.0436C26.2801 23.375 26.4716 23.5707 26.4716 23.8125V24.6875C26.4716 24.9294 26.2801 25.125 26.0436 25.125H14.7085C14.472 25.125 14.2805 24.9294 14.2805 24.6875V23.8125C14.2805 23.5707 14.472 23.375 14.7085 23.375Z" fill="#818181"/>
</svg>
