<svg width="181" height="34" viewBox="0 0 181 34" fill="none" xmlns="http://www.w3.org/2000/svg">
<path d="M30.0602 7.72274C31.8464 10.4685 32.8002 13.6975 32.8 17.0012C32.8 19.1945 32.3793 21.3661 31.5622 23.392C30.7451 25.4179 29.5477 27.2582 28.0388 28.8079C26.5298 30.3577 24.7388 31.5865 22.7684 32.4248C20.7979 33.263 18.6863 33.6943 16.554 33.6943C13.3423 33.6946 10.2021 32.7167 7.53024 30.8835C4.85831 29.0501 2.77455 26.4433 1.54371 23.3918C0.312841 20.3403 -0.00939003 16.982 0.61809 13.7419C1.24556 10.5018 2.7943 7.52675 5.06721 5.19243C7.34003 2.8582 10.2348 1.26955 13.385 0.626074C16.5351 -0.017391 19.8004 0.312894 22.7682 1.57554C25.7361 2.83824 28.2741 4.97704 30.0602 7.72274Z" fill="white" stroke="#E8E8E8" stroke-width="0.611316"/>
<path d="M13.1367 14.8704L20.0458 23.4986C20.5532 24.1322 21.1909 24.6427 21.9131 24.9933C22.6352 25.344 23.424 25.5262 24.2228 25.5268H30.7521L23.4371 16.3773C23.0593 15.9052 22.5841 15.525 22.046 15.2643C21.5079 15.0035 20.9201 14.8685 20.3251 14.8691L13.1367 14.8704Z" fill="#41D7FF"/>
<path d="M20.5769 2.78418L2.35449 25.5286H8.88498C9.68424 25.5266 10.4733 25.3438 11.196 24.9933C11.9187 24.6427 12.5574 24.133 13.0667 23.5004L22.8358 11.2836C23.4727 10.4755 23.8202 9.46738 23.8202 8.42775C23.8202 7.38812 23.4727 6.37999 22.8358 5.57193L20.5769 2.78418Z" fill="#F241CD"/>
<path d="M16.528 19.1342L19.9453 14.8711H13.1367L16.528 19.1342Z" fill="#3D36CC"/>
<path d="M153.119 22.4046V17.822H147.96V16.185H153.117V11.832H154.897V22.4046H153.119ZM144.869 22.4046V11.832H146.644V22.4046H144.869Z" fill="#F241CD"/>
<path d="M165.827 11.832H167.57V17.7065C167.57 20.9609 166.014 22.5006 162.04 22.5006C158.102 22.5006 156.508 20.9609 156.508 17.7065V11.832H158.345V17.7065C158.345 19.8247 159.265 20.6911 162.076 20.6911C164.888 20.6911 165.808 19.8247 165.808 17.7065V11.832H165.827Z" fill="#F241CD"/>
<path d="M172.282 17.7848V16.2439H176.714C177.725 16.2439 178.213 15.8793 178.213 14.9727C178.213 13.8559 177.35 13.6833 176.019 13.6833H170.994V20.5385H176.188C177.463 20.5385 178.401 20.1739 178.401 19.1519C178.401 18.2855 177.857 17.7848 176.844 17.7848H172.282ZM169.188 22.3492V11.835H176.689C178.7 11.835 180.002 12.7598 180.002 14.551C180.002 15.8793 179.346 16.5537 178.582 16.8041C179.519 17.1115 180.195 17.9403 180.195 19.1726C180.195 21.0975 178.9 22.3492 176.895 22.3492H169.188Z" fill="#F241CD"/>
<path fill-rule="evenodd" clip-rule="evenodd" d="M52.9371 8.10254H57.1129L67.0855 22.5031H62.5299L54.912 11.1443L47.7745 21.6197H55.7722V22.5031H43.0923L52.9371 8.10254Z" fill="#253D98"/>
<path fill-rule="evenodd" clip-rule="evenodd" d="M70.1729 8.10254H73.4884V19.7214H83.9414V22.5031H70.1729V8.10254Z" fill="#253D98"/>
<path d="M90.6988 8.10254H87.3833V22.5019H90.6988V8.10254Z" fill="#253D98"/>
<path fill-rule="evenodd" clip-rule="evenodd" d="M136.737 22.5031H134.889L123.322 12.7557V22.5031H120.362V8.10254H122.614L133.775 17.8755V8.10254H136.737V22.5031Z" fill="#253D98"/>
<path fill-rule="evenodd" clip-rule="evenodd" d="M103.404 8.10254H107.58L117.552 22.5031H112.996L105.378 11.1443L98.2413 21.6197H106.239V22.5031H93.5591L103.404 8.10254Z" fill="#253D98"/>
<path fill-rule="evenodd" clip-rule="evenodd" d="M139.747 3.10156H139.241C138.656 3.16791 138.118 3.46198 137.737 3.92333C137.357 4.38469 137.163 4.97827 137.195 5.58206C137.227 6.18586 137.484 6.75398 137.911 7.16967C138.339 7.58535 138.905 7.817 139.494 7.817C140.083 7.817 140.649 7.58535 141.077 7.16967C141.505 6.75398 141.761 6.18586 141.793 5.58206C141.826 4.97827 141.631 4.38469 141.251 3.92333C140.87 3.46198 140.332 3.16791 139.747 3.10156ZM139.493 3.3191C139.083 3.3191 138.682 3.44406 138.34 3.67819C137.999 3.91233 137.733 4.24513 137.575 4.63456C137.418 5.02398 137.377 5.45255 137.456 5.86613C137.536 6.27971 137.733 6.65974 138.023 6.9582C138.313 7.25666 138.683 7.46016 139.085 7.543C139.488 7.62585 139.905 7.58431 140.285 7.42363C140.664 7.26295 140.989 6.99036 141.218 6.64027C141.447 6.29018 141.569 5.87831 141.57 5.4567C141.571 5.17617 141.518 4.89823 141.414 4.63884C141.31 4.37945 141.157 4.14372 140.964 3.94512C140.771 3.74653 140.542 3.589 140.289 3.48158C140.037 3.37415 139.767 3.31893 139.493 3.3191Z" fill="#253D98"/>
<path fill-rule="evenodd" clip-rule="evenodd" d="M139.015 6.71978H138.641V4.18601H139.694C139.829 4.18294 139.964 4.19515 140.096 4.22246C140.187 4.24214 140.273 4.28014 140.349 4.33427C140.426 4.39943 140.486 4.48287 140.524 4.57731C140.567 4.67717 140.589 4.7853 140.588 4.89449C140.589 4.99661 140.572 5.09803 140.536 5.19344C140.504 5.27964 140.452 5.35617 140.384 5.41583C140.348 5.44868 140.308 5.47683 140.265 5.49968C140.213 5.52377 140.16 5.54408 140.106 5.56044C140.173 5.59406 140.238 5.63479 140.297 5.68196C140.349 5.72251 140.392 5.77335 140.424 5.83144C140.459 5.89799 140.484 5.96973 140.497 6.0441C140.515 6.14325 140.527 6.24355 140.531 6.34428C140.531 6.41962 140.54 6.47795 140.542 6.51805C140.544 6.55066 140.547 6.58315 140.553 6.61528C140.556 6.63517 140.561 6.65469 140.568 6.6736C140.575 6.69224 140.584 6.71014 140.594 6.72707H140.21C140.204 6.71358 140.199 6.69979 140.194 6.68575C140.188 6.66487 140.183 6.64325 140.181 6.62134C140.181 6.55815 140.173 6.50955 140.172 6.47674C140.171 6.44392 140.172 6.40624 140.161 6.3625C140.153 6.24862 140.131 6.13628 140.095 6.0283C140.068 5.94417 140.019 5.86879 139.955 5.80957C139.887 5.74956 139.806 5.7078 139.719 5.68805C139.606 5.66212 139.49 5.65028 139.374 5.6528H139.009L139.015 6.71978ZM139.669 5.32954C139.754 5.33163 139.839 5.32513 139.923 5.31011C139.975 5.30167 140.024 5.27947 140.065 5.2457C140.109 5.20369 140.143 5.15227 140.165 5.09513C140.187 5.03798 140.197 4.97652 140.193 4.91516C140.194 4.84057 140.181 4.76649 140.153 4.69762C140.13 4.63778 140.089 4.58762 140.035 4.55543C139.994 4.53453 139.95 4.52135 139.906 4.51655C139.827 4.50814 139.748 4.50449 139.669 4.50562H139.015V5.33562L139.669 5.32954Z" fill="#253D98"/>
</svg>
