<svg width="18" height="18" viewBox="0 0 18 18" fill="none" xmlns="http://www.w3.org/2000/svg">
<path d="M2 2H8C8.26522 2 8.51957 1.89464 8.70711 1.70711C8.89464 1.51957 9 1.26522 9 1C9 0.734784 8.89464 0.48043 8.70711 0.292893C8.51957 0.105357 8.26522 0 8 0H2C1.46957 0 0.960859 0.210714 0.585786 0.585786C0.210714 0.960859 0 1.46957 0 2V16C0 16.5304 0.210714 17.0391 0.585786 17.4142C0.960859 17.7893 1.46957 18 2 18H8C8.26522 18 8.51957 17.8946 8.70711 17.7071C8.89464 17.5196 9 17.2652 9 17C9 16.7348 8.89464 16.4804 8.70711 16.2929C8.51957 16.1054 8.26522 16 8 16H2V2Z" fill="#2F3990"/>
<path d="M17.65 8.65005L14.86 5.86005C14.7907 5.7881 14.7013 5.73858 14.6036 5.71788C14.5058 5.69718 14.4041 5.70625 14.3115 5.74392C14.219 5.78159 14.1398 5.84613 14.0843 5.92922C14.0288 6.0123 13.9994 6.11012 14 6.21005V8.00005H7C6.73478 8.00005 6.48043 8.10541 6.29289 8.29295C6.10536 8.48048 6 8.73484 6 9.00005C6 9.26527 6.10536 9.51962 6.29289 9.70716C6.48043 9.8947 6.73478 10.0001 7 10.0001H14V11.7901C13.9963 11.8901 14.0234 11.9889 14.0776 12.0732C14.1318 12.1574 14.2105 12.223 14.3031 12.2611C14.3957 12.2992 14.4978 12.3081 14.5956 12.2864C14.6933 12.2648 14.7821 12.2137 14.85 12.1401L17.64 9.35005C17.6872 9.3051 17.725 9.25117 17.7511 9.19143C17.7772 9.1317 17.7912 9.06735 17.7921 9.00215C17.793 8.93696 17.7809 8.87224 17.7565 8.81178C17.7321 8.75132 17.6959 8.69634 17.65 8.65005Z" fill="#2F3990"/>
</svg>
