<svg width="32" height="32" viewBox="0 0 32 32" fill="none" xmlns="http://www.w3.org/2000/svg">
<path d="M16 31.5C24.5604 31.5 31.5 24.5604 31.5 16C31.5 7.43959 24.5604 0.5 16 0.5C7.43959 0.5 0.5 7.43959 0.5 16C0.5 24.5604 7.43959 31.5 16 31.5Z" fill="white" stroke="#DFE1E6"/>
<path d="M10.0869 8.5C10.0869 8.23333 9.84347 8 9.56521 8H8.52174C8.24348 8 8 8.23333 8 8.5V23.5C8 23.7667 8.24348 24 8.52174 24H9.56521C9.84347 24 10.0869 23.7667 10.0869 23.5V8.5Z" fill="#818181"/>
<path d="M23.4783 9.89987C17.9131 12.6999 18.5392 6.96654 11.8261 9.19987C11.6174 9.26654 11.4783 9.46654 11.4783 9.66654V17.4332C11.4783 17.6665 11.7218 17.8332 11.9305 17.7332C18.6087 15.5999 17.9131 21.4665 23.7217 18.3332C23.8957 18.2332 24 18.0665 24 17.8999V10.1665C24 9.93321 23.7217 9.76654 23.4783 9.89987Z" fill="#818181"/>
</svg>
