<svg width="37" height="37" viewBox="0 0 37 37" fill="none" xmlns="http://www.w3.org/2000/svg">
<rect x="0.5" y="0.5" width="36" height="36" rx="6.5" fill="white" stroke="#DFE1E6"/>
<path d="M27.2306 12.5388C27.2306 12.3958 27.174 12.2588 27.0729 12.1578C26.9719 12.0569 26.8349 12.0003 26.6921 12.0003H20.2307C19.9334 12.0003 19.6922 12.2413 19.6922 12.5388C19.6922 12.8361 19.9334 13.0771 20.2307 13.0771H26.6921C26.8349 13.0773 26.9719 13.0205 27.0729 12.9195C27.174 12.8186 27.2306 12.6816 27.2306 12.5388V12.5388ZM27.2306 15.7695C27.2306 15.6265 27.174 15.4895 27.0729 15.3886C26.9719 15.2876 26.8349 15.231 26.6921 15.231H20.2307C19.9334 15.231 19.6922 15.472 19.6922 15.7695C19.6922 16.0668 19.9334 16.3078 20.2307 16.3078H26.6921C26.8349 16.308 26.9719 16.2512 27.0729 16.1503C27.174 16.0493 27.2306 15.9123 27.2306 15.7695V15.7695ZM27.2306 19.0002C27.2306 18.8573 27.174 18.7202 27.0729 18.6193C26.9719 18.5183 26.8349 18.4617 26.6921 18.4617H20.2307C19.9334 18.4617 19.6922 18.7028 19.6922 19.0002C19.6922 19.2975 19.9334 19.5386 20.2307 19.5386H26.6921C26.8349 19.5387 26.9719 19.4819 27.0729 19.381C27.174 19.28 27.2306 19.143 27.2306 19.0002V19.0002ZM27.2306 22.2309C27.2306 22.088 27.174 21.951 27.0729 21.85C26.9719 21.749 26.8349 21.6924 26.6921 21.6924H10.5385C10.2412 21.6924 10 21.9335 10 22.2309C10 22.5282 10.2412 22.7693 10.5385 22.7693H26.6921C26.8349 22.7695 26.9719 22.7127 27.0729 22.6117C27.174 22.5107 27.2306 22.3737 27.2306 22.2309V22.2309ZM27.2306 25.4617C27.2306 25.3187 27.174 25.1817 27.0729 25.0807C26.9719 24.9798 26.8349 24.9232 26.6921 24.9232H10.5385C10.2412 24.9232 10 25.1642 10 25.4617C10 25.759 10.2412 26 10.5385 26H26.6921C26.8349 26.0002 26.9719 25.9434 27.0729 25.8424C27.174 25.7415 27.2306 25.6045 27.2306 25.4617V25.4617ZM16.4613 19.5384H11.077C10.7913 19.5384 10.5174 19.425 10.3155 19.2231C10.1136 19.0211 10 18.7471 10 18.4615V13.0768C10 12.7913 10.1136 12.5174 10.3155 12.3155C10.5174 12.1134 10.7913 12 11.077 12H16.4617H16.4615C16.7473 12 17.0211 12.1134 17.2231 12.3155C17.425 12.5174 17.5386 12.7913 17.5386 13.0768V18.4615C17.5386 18.7471 17.425 19.0211 17.2231 19.2231C17.0211 19.425 16.7473 19.5384 16.4615 19.5384H16.4613Z" fill="#818181"/>
</svg>
