<svg width="19" height="14" viewBox="0 0 19 14" fill="none" xmlns="http://www.w3.org/2000/svg">
<path d="M18.5316 0.473327C18.6793 0.618361 18.7972 0.79426 18.8778 0.990013C18.9584 1.18577 19 1.39711 19 1.61077C19 1.82443 18.9584 2.03578 18.8778 2.23154C18.7972 2.42729 18.6793 2.60322 18.5316 2.74825L7.82368 13.5294C7.5166 13.8319 7.11336 14 6.69457 14C6.27578 14 5.87242 13.8319 5.56534 13.5294L0.468423 8.39633C0.320728 8.25129 0.202878 8.07536 0.122275 7.87961C0.0416719 7.68386 0 7.47251 0 7.25885C0 7.04519 0.0416719 6.83384 0.122275 6.63809C0.202878 6.44233 0.320728 6.2664 0.468423 6.12137C0.775181 5.81902 1.17812 5.65101 1.59658 5.65101C2.01505 5.65101 2.4181 5.81902 2.72486 6.12137L6.69255 10.117L16.2713 0.471244C16.5786 0.16799 16.9825 -0.000383065 17.4019 6.54425e-07C17.8213 0.000384374 18.2248 0.169511 18.5316 0.473327Z" fill="#2F3990"/>
</svg>
