<svg width="150" height="29" viewBox="0 0 150 29" fill="none" xmlns="http://www.w3.org/2000/svg">
<path d="M27.5582 14.1524C27.5584 11.3534 26.7504 8.61724 25.2364 6.28991C23.7224 3.96258 21.5704 2.14861 19.0526 1.0774C16.5347 0.00619557 13.7641 -0.274128 11.0912 0.271873C8.4182 0.817873 5.96291 2.16568 4.03581 4.14484C2.10871 6.12401 0.796357 8.64563 0.264719 11.3908C-0.266918 14.136 0.00603701 16.9814 1.04907 19.5673C2.09209 22.1532 3.85835 24.3633 6.12446 25.9182C8.39057 27.4731 11.0547 28.3029 13.7801 28.3027C15.5894 28.3027 17.3811 27.9367 19.0527 27.2256C20.7244 26.5144 22.2433 25.4721 23.5227 24.1582C24.8021 22.8442 25.817 21.2843 26.5094 19.5675C27.2018 17.8507 27.5582 16.0106 27.5582 14.1524Z" fill="white"/>
<path d="M10.9355 12.3789L16.6869 19.5613C17.1093 20.0888 17.6401 20.5137 18.2413 20.8056C18.8424 21.0975 19.499 21.2492 20.164 21.2497H25.5992L19.5099 13.6333C19.1954 13.2404 18.7999 12.9239 18.3519 12.7068C17.904 12.4898 17.4147 12.3774 16.9194 12.3779L10.9355 12.3789Z" fill="#41D7FF"/>
<path d="M17.1291 2.31738L1.96021 21.2506H7.39639C8.06172 21.2489 8.71854 21.0967 9.32015 20.8049C9.92177 20.5131 10.4534 20.0889 10.8774 19.5622L19.0095 9.39254C19.5397 8.71989 19.8289 7.88069 19.8289 7.01527C19.8289 6.14985 19.5397 5.31065 19.0095 4.638L17.1291 2.31738Z" fill="#F241CD"/>
<path d="M13.7585 15.9276L16.6032 12.3789H10.9355L13.7585 15.9276Z" fill="#3D36CC"/>
<path d="M127.461 18.6516V14.8368H123.167V13.4742H127.459V9.85059H128.942V18.6516H127.461ZM120.594 18.6516V9.85059H122.072V18.6516H120.594Z" fill="#F241CD"/>
<path d="M138.04 9.85059H139.491V14.7407C139.491 17.4498 138.196 18.7315 134.887 18.7315C131.609 18.7315 130.282 17.4498 130.282 14.7407V9.85059H131.812V14.7407C131.812 16.5039 132.577 17.2252 134.918 17.2252C137.258 17.2252 138.024 16.5039 138.024 14.7407V9.85059H138.04Z" fill="#F241CD"/>
<path d="M143.413 14.8044V13.5217H147.102C147.944 13.5217 148.35 13.2182 148.35 12.4635C148.35 11.5339 147.632 11.3902 146.524 11.3902H142.341V17.0967H146.665C147.726 17.0967 148.507 16.7932 148.507 15.9424C148.507 15.2212 148.054 14.8044 147.21 14.8044H143.413ZM140.838 18.604V9.85156H147.081C148.756 9.85156 149.839 10.6214 149.839 12.1125C149.839 13.2182 149.294 13.7796 148.657 13.988C149.438 14.244 150 14.9339 150 15.9596C150 17.562 148.922 18.604 147.253 18.604H140.838Z" fill="#F241CD"/>
<path fill-rule="evenodd" clip-rule="evenodd" d="M44.0668 6.74512H47.5428L55.8444 18.7326H52.0521L45.7108 9.27716L39.7693 17.9972H46.4268V18.7326H35.8716L44.0668 6.74512Z" fill="#253D98"/>
<path fill-rule="evenodd" clip-rule="evenodd" d="M58.4142 6.74512H61.1742V16.4171H69.8756V18.7326H58.4142V6.74512Z" fill="#253D98"/>
<path d="M75.501 6.74512H72.741V18.7316H75.501V6.74512Z" fill="#253D98"/>
<path fill-rule="evenodd" clip-rule="evenodd" d="M113.824 18.7326H112.286L102.657 10.6186V18.7326H100.193V6.74512H102.067L111.359 14.8804V6.74512H113.824V18.7326Z" fill="#253D98"/>
<path fill-rule="evenodd" clip-rule="evenodd" d="M86.0769 6.74512H89.5529L97.8545 18.7326H94.0612L87.7198 9.27716L81.7793 17.9972H88.4369V18.7326H77.8817L86.0769 6.74512Z" fill="#253D98"/>
<path fill-rule="evenodd" clip-rule="evenodd" d="M116.33 2.58203H115.909C115.422 2.63726 114.974 2.88205 114.657 3.2661C114.34 3.65015 114.179 4.14426 114.206 4.64688C114.233 5.1495 114.446 5.62242 114.802 5.96845C115.158 6.31448 115.63 6.50731 116.12 6.50731C116.61 6.50731 117.081 6.31448 117.437 5.96845C117.793 5.62242 118.007 5.1495 118.034 4.64688C118.061 4.14426 117.899 3.65015 117.582 3.2661C117.265 2.88205 116.817 2.63726 116.33 2.58203ZM116.119 2.76311C115.777 2.76311 115.443 2.86714 115.159 3.06204C114.875 3.25694 114.653 3.53398 114.522 3.85815C114.392 4.18232 114.357 4.53907 114.423 4.88335C114.49 5.22762 114.654 5.54397 114.895 5.79242C115.137 6.04087 115.444 6.21027 115.78 6.27923C116.115 6.34819 116.462 6.31361 116.778 6.17986C117.094 6.04611 117.364 5.81919 117.555 5.52776C117.745 5.23634 117.847 4.89348 117.848 4.54252C117.849 4.309 117.804 4.07764 117.718 3.86171C117.631 3.64579 117.504 3.44955 117.343 3.28424C117.183 3.11893 116.992 2.98779 116.782 2.89837C116.572 2.80894 116.347 2.76298 116.119 2.76311Z" fill="#253D98"/>
<path fill-rule="evenodd" clip-rule="evenodd" d="M115.72 5.59396H115.409V3.48476H116.286C116.398 3.4822 116.51 3.49237 116.62 3.5151C116.696 3.53148 116.768 3.56312 116.831 3.60817C116.895 3.66242 116.945 3.73187 116.977 3.8105C117.013 3.89362 117.031 3.98363 117.03 4.07452C117.031 4.15953 117.016 4.24395 116.987 4.32337C116.96 4.39513 116.917 4.45884 116.86 4.50851C116.83 4.53585 116.797 4.55928 116.761 4.5783C116.718 4.59836 116.674 4.61526 116.628 4.62888C116.685 4.65687 116.738 4.69077 116.788 4.73004C116.831 4.76379 116.867 4.80611 116.893 4.85447C116.923 4.90986 116.943 4.96959 116.954 5.0315C116.969 5.11403 116.979 5.19752 116.983 5.28137C116.983 5.34409 116.99 5.39264 116.992 5.42603C116.993 5.45318 116.996 5.48022 117.001 5.50696C117.003 5.52352 117.008 5.53977 117.013 5.55551C117.019 5.57103 117.027 5.58593 117.035 5.60002H116.715C116.71 5.58879 116.706 5.57731 116.702 5.56563C116.697 5.54824 116.693 5.53025 116.691 5.51201C116.691 5.45941 116.685 5.41895 116.684 5.39163C116.683 5.36432 116.684 5.33295 116.675 5.29654C116.668 5.20174 116.65 5.10822 116.619 5.01835C116.597 4.94831 116.557 4.88556 116.503 4.83626C116.447 4.78631 116.379 4.75155 116.306 4.7351C116.212 4.71352 116.116 4.70366 116.02 4.70576H115.715L115.72 5.59396ZM116.265 4.43667C116.336 4.43841 116.407 4.433 116.477 4.4205C116.52 4.41347 116.561 4.39499 116.595 4.36688C116.631 4.33191 116.66 4.28911 116.678 4.24154C116.696 4.19397 116.704 4.14281 116.701 4.09172C116.702 4.02963 116.691 3.96797 116.668 3.91064C116.649 3.86083 116.614 3.81907 116.569 3.79228C116.536 3.77488 116.499 3.76391 116.462 3.75991C116.396 3.75291 116.331 3.74987 116.265 3.75081H115.72V4.44174L116.265 4.43667Z" fill="#253D98"/>
</svg>
