<svg width="13" height="12" viewBox="0 0 13 12" fill="none" xmlns="http://www.w3.org/2000/svg">
<path fill-rule="evenodd" clip-rule="evenodd" d="M0.337831 0H1.68913C1.87589 0 2.02702 0.154428 2.02702 0.345284V1.72647C2.02702 1.91734 1.87589 2.07176 1.68919 2.07176H0.337831C0.151068 2.07176 0 1.91734 0 1.72647V0.345284C0 0.154428 0.151068 0 0.337831 0ZM0.337831 4.4888H1.68913C1.87589 4.4888 2.02702 4.64322 2.02702 4.83405V6.21523C2.02702 6.40609 1.87589 6.56052 1.68919 6.56052H0.337831C0.151068 6.56052 0 6.40609 0 6.21527V4.83409C0 4.64322 0.151068 4.4888 0.337831 4.4888ZM1.68913 8.9776H0.337831C0.151068 8.9776 0 9.13202 0 9.32284V10.704C0 10.8949 0.151068 11.0493 0.337831 11.0493H1.68919C1.87589 11.0493 2.02702 10.8949 2.02702 10.704V9.32284C2.02702 9.13202 1.87589 8.9776 1.68913 8.9776ZM3.71615 0.690578H12.6622C12.8489 0.690578 13 0.845039 13 1.03591V1.72647C13 1.91734 12.8489 2.07176 12.6622 2.07176H3.71615C3.52945 2.07176 3.37832 1.91734 3.37832 1.72647V1.03591C3.37832 0.845039 3.52945 0.690578 3.71615 0.690578ZM12.6618 4.83392H3.71579C3.5291 4.83392 3.37796 4.98839 3.37796 5.17921V5.86978C3.37796 6.06064 3.5291 6.2151 3.71579 6.2151H12.6618C12.8485 6.2151 12.9996 6.06064 12.9996 5.86978V5.17921C12.9996 4.98839 12.8485 4.83392 12.6618 4.83392ZM3.71615 8.9776H12.6622C12.8489 8.9776 13 9.13202 13 9.32289V10.0135C13 10.2043 12.8489 10.3587 12.6622 10.3587H3.71615C3.52945 10.3587 3.37832 10.2043 3.37832 10.0135V9.32289C3.37832 9.13202 3.52945 8.9776 3.71615 8.9776Z" fill="#2F3990"/>
</svg>
