<svg width="10" height="10" viewBox="0 0 10 10" fill="none" xmlns="http://www.w3.org/2000/svg">
<path d="M8.26389 0C8.72433 0 9.16592 0.182911 9.49151 0.508495C9.81709 0.834079 10 1.27567 10 1.73611V8.26389C10 8.72433 9.81709 9.16592 9.49151 9.49151C9.16592 9.81709 8.72433 10 8.26389 10H1.73611C1.27567 10 0.834079 9.81709 0.508495 9.49151C0.182911 9.16592 0 8.72433 0 8.26389V1.73611C0 1.27567 0.182911 0.834079 0.508495 0.508495C0.834079 0.182911 1.27567 0 1.73611 0H8.26389ZM0.694444 3.75V6.25H3.05556V3.75H0.694444ZM0.694444 6.94444V8.26389C0.694444 8.54016 0.804191 8.80511 0.999542 9.00046C1.19489 9.19581 1.45984 9.30556 1.73611 9.30556H3.05556V6.94444H0.694444ZM3.75 9.30556H9.30556L9.60291 6.94444H3.75V9.30556ZM9.30556 9.30556H8.26389C8.54016 9.30556 8.80511 9.19581 9.00046 9.00046C9.19581 8.80511 9.30556 8.54016 9.30556 8.26389V6.94444H9.60291L9.30556 9.30556ZM9.30556 6.25V3.75H9.94444V6.25H9.30556ZM9.30556 3.05556V1.73611C9.30556 1.45984 9.19581 1.19489 9.00046 0.999542C8.80511 0.804191 8.54016 0.694444 8.26389 0.694444H9.25L9.5 3.05556H9.30556ZM9.25 0.694444H3.75V3.05556H9.5L9.25 0.694444ZM3.05556 0.694444H1.73611C1.45984 0.694444 1.19489 0.804191 0.999542 0.999542C0.804191 1.19489 0.694444 1.45984 0.694444 1.73611V3.05556H3.05556V0.694444ZM9.94444 6.25V3.75H3.75V6.25H9.94444Z" fill="#2F3990"/>
</svg>
