<svg width="21" height="20" viewBox="0 0 21 20" fill="none" xmlns="http://www.w3.org/2000/svg">
<path d="M17.2329 0.609403C18.0379 -0.203135 19.3485 -0.203135 20.1541 0.609403C20.5441 1.00259 20.7591 1.52596 20.7591 2.08264C20.7591 2.63933 20.5441 3.16271 20.1541 3.5552L19.0105 4.70865L16.0893 1.76267L17.2329 0.609403Z" fill="#3845B3"/>
<path d="M8.67416 9.24047C8.61632 9.29875 8.57758 9.37301 8.56094 9.4529L7.97686 12.3998C7.94954 12.5364 7.99256 12.6772 8.08992 12.7764C8.16849 12.8556 8.27423 12.898 8.38257 12.898C8.40897 12.898 8.43629 12.8956 8.46359 12.8897L11.3848 12.3006C11.4657 12.2838 11.5392 12.2447 11.5963 12.1863L18.1345 5.59277L15.2133 2.64697L8.67416 9.24047Z" fill="#3845B3"/>
<path d="M16.6271 9.99963C16.1701 9.99963 15.8009 10.3731 15.8009 10.8329V17.4999C15.8009 17.9591 15.4306 18.3332 14.9745 18.3332H3.40528C2.94922 18.3332 2.57905 17.9591 2.57905 17.4999V5.83284C2.57905 5.37365 2.94922 4.99952 3.40528 4.99952H10.0163C10.4733 4.99952 10.8427 4.62609 10.8427 4.16613C10.8427 3.7061 10.4733 3.33275 10.0163 3.33275H3.40528C2.0386 3.33275 0.92627 4.45444 0.92627 5.83284V17.4999C0.92627 18.8783 2.0386 20 3.40528 20H14.9745C16.3413 20 17.4537 18.8783 17.4537 17.4999V10.8329C17.4537 10.3721 17.0841 9.99963 16.6271 9.99963Z" fill="#3845B3"/>
</svg>
