<svg width="19" height="20" viewBox="0 0 19 20" fill="none" xmlns="http://www.w3.org/2000/svg">
<path d="M9.4977 18.5715C11.3921 18.5715 13.2089 17.8189 14.5485 16.4794C15.888 15.1398 16.6406 13.323 16.6406 11.4286C16.6406 9.5342 15.888 7.71739 14.5485 6.37784C13.2089 5.0383 11.3921 4.28575 9.4977 4.28575C7.60329 4.28575 5.78648 5.0383 4.44694 6.37784C3.10739 7.71739 2.35484 9.5342 2.35484 11.4286C2.35484 13.323 3.10739 15.1398 4.44694 16.4794C5.78648 17.8189 7.60329 18.5715 9.4977 18.5715V18.5715ZM9.4977 20C7.22441 20 5.04424 19.097 3.43678 17.4895C1.82933 15.8821 0.92627 13.7019 0.92627 11.4286C0.92627 9.15532 1.82933 6.97515 3.43678 5.36769C5.04424 3.76024 7.22441 2.85718 9.4977 2.85718C11.771 2.85718 13.9512 3.76024 15.5586 5.36769C17.1661 6.97515 18.0691 9.15532 18.0691 11.4286C18.0691 13.7019 17.1661 15.8821 15.5586 17.4895C13.9512 19.097 11.771 20 9.4977 20Z" fill="#3845B3"/>
<path d="M9.49769 5.71423C9.68713 5.71423 9.86881 5.78949 10.0028 5.92344C10.1367 6.0574 10.212 6.23908 10.212 6.42852L10.2005 11.4285C10.2005 11.618 10.1253 11.7996 9.99133 11.9336C9.85738 12.0676 9.6757 12.1428 9.48626 12.1428C9.29682 12.1428 9.11514 12.0676 8.98118 11.9336C8.84723 11.7996 8.77197 11.618 8.77197 11.4285L8.7834 6.42852C8.7834 6.23908 8.85866 6.0574 8.99261 5.92344C9.12657 5.78949 9.30825 5.71423 9.49769 5.71423V5.71423Z" fill="#3845B3"/>
<path d="M8.06913 11.4286C8.06913 11.8075 8.21964 12.1708 8.48755 12.4387C8.75546 12.7066 9.11882 12.8571 9.4977 12.8571C9.87658 12.8571 10.2399 12.7066 10.5079 12.4387C10.7758 12.1708 10.9263 11.8075 10.9263 11.4286C10.9263 11.0497 10.7758 10.6863 10.5079 10.4184C10.2399 10.1505 9.87658 10 9.4977 10C9.11882 10 8.75546 10.1505 8.48755 10.4184C8.21964 10.6863 8.06913 11.0497 8.06913 11.4286ZM10.212 1.42857V4.28571H8.78341V1.42857H6.64056C6.45111 1.42857 6.26943 1.35332 6.13548 1.21936C6.00152 1.08541 5.92627 0.903726 5.92627 0.714286C5.92627 0.524845 6.00152 0.343164 6.13548 0.209209C6.26943 0.0752549 6.45111 0 6.64056 0H12.3548C12.5443 0 12.726 0.0752549 12.8599 0.209209C12.9939 0.343164 13.0691 0.524845 13.0691 0.714286C13.0691 0.903726 12.9939 1.08541 12.8599 1.21936C12.726 1.35332 12.5443 1.42857 12.3548 1.42857H10.212Z" fill="#3845B3"/>
</svg>
