<svg width="21" height="22" viewBox="0 0 21 22" fill="none" xmlns="http://www.w3.org/2000/svg">
<path d="M5.66064 7C7.3175 7 8.66064 5.65685 8.66064 4C8.66064 2.34315 7.3175 1 5.66064 1C4.00379 1 2.66064 2.34315 2.66064 4C2.66064 5.65685 4.00379 7 5.66064 7Z" stroke="#3845B3" stroke-width="1.5"/>
<path d="M8.66071 11H4.55871C3.82763 11.0002 3.12178 11.2674 2.57379 11.7513C2.02579 12.2352 1.67336 12.9026 1.58271 13.628L0.941705 18.752C0.906537 19.0334 0.931627 19.3191 1.01531 19.5901C1.09899 19.8611 1.23935 20.1112 1.42708 20.3238C1.61481 20.5364 1.8456 20.7066 2.10415 20.8232C2.3627 20.9398 2.64309 21.0001 2.92671 21H7.66071M19.3797 18.752L18.7397 13.628C18.649 12.9022 18.2963 12.2346 17.7479 11.7506C17.1995 11.2667 16.4931 10.9997 15.7617 11H13.5577C12.8266 11.0002 12.1208 11.2674 11.5728 11.7513C11.0248 12.2352 10.6724 12.9026 10.5817 13.628L9.94071 18.752C9.90553 19.0335 9.93064 19.3193 10.0144 19.5903C10.0981 19.8614 10.2386 20.1116 10.4264 20.3242C10.6142 20.5368 10.8452 20.707 11.1038 20.8235C11.3625 20.94 11.643 21.0002 11.9267 21H17.3947C17.6783 21.0001 17.9587 20.9398 18.2173 20.8232C18.4758 20.7066 18.7066 20.5364 18.8943 20.3238C19.0821 20.1112 19.2224 19.8611 19.3061 19.5901C19.3898 19.3191 19.4149 19.0334 19.3797 18.752Z" stroke="#3845B3" stroke-width="1.5" stroke-linecap="round" stroke-linejoin="round"/>
<path d="M14.6606 7C16.3175 7 17.6606 5.65685 17.6606 4C17.6606 2.34315 16.3175 1 14.6606 1C13.0038 1 11.6606 2.34315 11.6606 4C11.6606 5.65685 13.0038 7 14.6606 7Z" stroke="#3845B3" stroke-width="1.5"/>
</svg>
