<svg width="19" height="20" viewBox="0 0 19 20" fill="none" xmlns="http://www.w3.org/2000/svg">
<path d="M14.4763 5.22838C14.2693 5.43373 13.9894 5.54895 13.6978 5.54895C13.4062 5.54895 13.1264 5.43373 12.9193 5.22838C12.8173 5.12731 12.7364 5.00705 12.6811 4.87452C12.6259 4.742 12.5974 4.59985 12.5974 4.45628C12.5974 4.3127 12.6259 4.17055 12.6811 4.03803C12.7364 3.90551 12.8173 3.78524 12.9193 3.68417C13.1264 3.47882 13.4062 3.36361 13.6978 3.36361C13.9894 3.36361 14.2693 3.47882 14.4763 3.68417C14.9049 4.11129 14.9049 4.80269 14.4763 5.22838ZM1.87554 11.6566C1.60853 11.3921 1.39659 11.0772 1.25195 10.7303C1.10731 10.3833 1.03284 10.0112 1.03284 9.63531C1.03284 9.25942 1.10731 8.88727 1.25195 8.54033C1.39659 8.19339 1.60853 7.87854 1.87554 7.61398L8.6752 0.85717C9.21297 0.323627 9.93899 0.0229581 10.6965 0.020069L15.3592 6.99201e-05C15.7383 -0.00257794 16.1142 0.0700042 16.4651 0.213615C16.816 0.357225 17.1349 0.569011 17.4034 0.836713C17.6719 1.10442 17.8847 1.42272 18.0293 1.77319C18.174 2.12366 18.2477 2.49935 18.2462 2.8785L18.2119 7.69683C18.2057 8.44853 17.9028 9.16735 17.3691 9.69673L10.6694 16.3535C10.1285 16.8893 9.39796 17.1899 8.63663 17.1899C7.8753 17.1899 7.14475 16.8893 6.60387 16.3535L1.87554 11.6566V11.6566ZM2.89263 8.62393C2.75913 8.75621 2.65316 8.91363 2.58084 9.0871C2.50852 9.26057 2.47128 9.44665 2.47128 9.63459C2.47128 9.82253 2.50852 10.0086 2.58084 10.1821C2.65316 10.3555 2.75913 10.513 2.89263 10.6453L7.62097 15.345C8.18237 15.9021 9.09232 15.9021 9.65372 15.345L16.3534 8.68678C16.6198 8.4219 16.7707 8.06249 16.7734 7.68683L16.8091 2.8685C16.81 2.67878 16.7733 2.49076 16.701 2.31535C16.6287 2.13993 16.5223 1.98063 16.3879 1.84667C16.2536 1.71272 16.094 1.60678 15.9183 1.53501C15.7427 1.46323 15.5546 1.42705 15.3649 1.42857L10.7022 1.44857C10.3232 1.44983 9.95993 1.60018 9.69086 1.86712L2.8912 8.62393H2.89263ZM1.107 12.4994C0.915105 13.013 0.875021 13.5709 0.991537 14.1067C1.10805 14.6424 1.37625 15.1333 1.76411 15.5207L4.56969 18.3263C5.10029 18.8569 5.73021 19.2778 6.42348 19.565C7.11676 19.8522 7.85981 20 8.6102 20C9.3606 20 10.1037 19.8522 10.7969 19.565C11.4902 19.2778 12.1201 18.8569 12.6507 18.3263L17.6248 13.3523C18.0267 12.9508 18.2528 12.4062 18.2533 11.8381V10.7238L12.6507 16.3264C12.5522 16.425 12.4507 16.5193 12.3479 16.6078L11.6408 17.3164C11.2428 17.7144 10.7703 18.0301 10.2504 18.2455C9.73037 18.4609 9.17305 18.5718 8.6102 18.5718C8.04736 18.5718 7.49003 18.4609 6.97005 18.2455C6.45006 18.0301 5.97759 17.7144 5.57964 17.3164L4.86682 16.6035C4.76458 16.5146 4.66548 16.4222 4.56969 16.3264L1.76411 13.5208C1.47416 13.2316 1.25003 12.8832 1.107 12.4994V12.4994Z" fill="#3845B3"/>
</svg>
