<svg width="18" height="20" viewBox="0 0 18 20" fill="none" xmlns="http://www.w3.org/2000/svg">
<path d="M14.7763 5.15V1.8H16.9263C17.0363 1.8 17.1263 1.71 17.1263 1.6V0.2C17.1263 0.09 17.0363 0 16.9263 0H1.12627C1.01627 0 0.92627 0.09 0.92627 0.2V1.6C0.92627 1.71 1.01627 1.8 1.12627 1.8H3.27627V5.15C3.27627 7.1875 4.33627 8.98 5.93627 10C4.33627 11.02 3.27627 12.8125 3.27627 14.85V18.2H1.12627C1.01627 18.2 0.92627 18.29 0.92627 18.4V19.8C0.92627 19.91 1.01627 20 1.12627 20H16.9263C17.0363 20 17.1263 19.91 17.1263 19.8V18.4C17.1263 18.29 17.0363 18.2 16.9263 18.2H14.7763V14.85C14.7763 12.8125 13.7163 11.02 12.1163 10C13.7163 8.98 14.7763 7.1875 14.7763 5.15ZM12.9763 14.85V18.2H5.07627V14.85C5.07627 13.795 5.48627 12.8025 6.23377 12.0575C6.97877 11.31 7.97127 10.9 9.02627 10.9C10.0813 10.9 11.0738 11.31 11.8188 12.0575C12.5663 12.8025 12.9763 13.795 12.9763 14.85ZM12.9763 5.15C12.9763 6.205 12.5663 7.1975 11.8188 7.9425C11.0738 8.69 10.0813 9.1 9.02627 9.1C7.97127 9.1 6.97877 8.69 6.23377 7.9425C5.86542 7.57696 5.5734 7.14184 5.37469 6.66245C5.17598 6.18305 5.07454 5.66894 5.07627 5.15V1.8H12.9763V5.15Z" fill="#3845B3"/>
</svg>
