<svg width="120" height="120" viewBox="0 0 120 120" fill="none" xmlns="http://www.w3.org/2000/svg">
<path d="M60.1846 15.0001C35.184 14.9491 15.0053 35.0469 15 59.9297C15 84.8458 35.1014 105 59.963 105C71.8002 105.025 83.1696 100.38 91.6036 92.074C100.038 83.768 104.856 72.471 105.012 60.6348C105.352 35.4022 85.0937 15.0529 60.1846 15.0001ZM81.1265 78.3745C80.5004 80.1489 79.1921 81.1301 77.3527 81.364C75.8229 81.5521 74.562 80.9437 73.4841 79.8693C69.5116 75.888 65.5198 71.9226 61.5667 67.922C61.0691 67.4191 60.8334 67.4771 60.3727 67.9431C56.3727 71.9783 52.3558 75.9982 48.3218 80.0029C46.099 82.2045 42.6119 81.7297 41.1365 79.0779C40.1149 77.2403 40.4331 75.16 42.0439 73.5404C45.2655 70.3001 48.4964 67.068 51.7368 63.8441C52.5017 63.0774 53.242 62.2808 54.0456 61.558C54.5204 61.129 54.5416 60.8933 54.0615 60.4185C50.0404 56.4443 46.0386 52.4502 42.0562 48.4362C40.3646 46.7357 40.085 44.4338 41.3036 42.5979C42.9003 40.1888 46.1711 39.8652 48.313 41.9455C50.1823 43.7603 52.0058 45.6261 53.8487 47.469C56.024 49.6442 58.2221 51.7966 60.3551 54.0088C60.8827 54.5575 61.1306 54.4766 61.6213 53.9807C65.5755 49.9842 69.5503 46.0047 73.5456 42.0422C75.7455 39.86 79.0743 40.1536 80.6728 42.6278C81.8651 44.4743 81.5942 46.7286 79.9324 48.3992C75.9852 52.3628 72.028 56.3189 68.0609 60.2673C67.8074 60.4934 67.5421 60.7059 67.266 60.9039L74.6517 68.2755C76.4542 70.0779 78.2777 71.8593 80.0485 73.6916C81.3428 75.0175 81.7525 76.6002 81.1265 78.3745Z" fill="#EF4647"/>
</svg>
