<svg width="26" height="26" viewBox="0 0 26 26" fill="none" xmlns="http://www.w3.org/2000/svg">
<path d="M13.0611 0.500033C19.9318 0.511758 25.5156 6.15764 25.5 13.0748C25.4843 19.9401 19.8322 25.5195 12.9106 25.5C6.04866 25.4804 0.477592 19.8267 0.500068 12.895C0.514726 6.06578 6.16785 0.484399 13.0611 0.500033ZM11.7907 17.4044C11.9284 17.4175 12.0674 17.3998 12.1974 17.3525C12.3274 17.3051 12.4452 17.2294 12.5422 17.1308C14.8074 14.8678 17.0712 12.6025 19.3338 10.3349C19.7042 9.96259 19.7403 9.51017 19.4921 9.08414C19.1295 8.46171 18.3282 8.41188 17.7507 8.98643C15.8745 10.8573 14.0021 12.7324 12.1337 14.6118C11.8923 14.8551 11.7575 14.857 11.521 14.6118C10.7656 13.8301 9.99266 13.0591 9.21285 12.2989C8.73304 11.8318 8.12228 11.8357 7.6972 12.2784C7.29556 12.6956 7.30631 13.3151 7.74606 13.7626C8.84248 14.8727 9.95162 15.9719 11.0539 17.0761C11.1457 17.1808 11.2588 17.2646 11.3858 17.3217C11.5128 17.3789 11.6505 17.4081 11.7897 17.4073L11.7907 17.4044Z" fill="#4BAE4F"/>
</svg>
