<svg width="25" height="26" viewBox="0 0 25 26" fill="none" xmlns="http://www.w3.org/2000/svg">
<path d="M12.5513 1.00003C5.60668 0.985861 0.00146541 6.5686 0 13.4805C0 20.4016 5.58372 26 12.4897 26C15.7778 26.0068 18.936 24.7166 21.2788 22.4094C23.6216 20.1022 24.9599 16.9642 25.0034 13.6763C25.0976 6.66727 19.4705 1.01468 12.5513 1.00003ZM18.3685 18.604C18.1946 19.0969 17.8311 19.3695 17.3202 19.4344C16.8952 19.4867 16.545 19.3177 16.2456 19.0192C15.1421 17.9133 14.0333 16.8118 12.9352 15.7006C12.797 15.5609 12.7315 15.577 12.6035 15.7064C11.4924 16.8273 10.3766 17.944 9.25605 19.0564C8.63862 19.6679 7.66998 19.536 7.26015 18.7994C6.97635 18.289 7.06476 17.7111 7.5122 17.2612C8.40707 16.3611 9.30457 15.4633 10.2047 14.5678C10.4171 14.3548 10.6228 14.1335 10.846 13.9328C10.9779 13.8136 10.9838 13.7481 10.8504 13.6163C9.73344 12.5123 8.62184 11.4028 7.51562 10.2878C7.04571 9.81547 6.96804 9.17605 7.30655 8.66609C7.75008 7.99688 8.65864 7.90701 9.2536 8.48487C9.77285 8.98897 10.2794 9.50724 10.7913 10.0192C11.3955 10.6234 12.0061 11.2213 12.5987 11.8358C12.7452 11.9882 12.8141 11.9657 12.9503 11.828C14.0488 10.7178 15.1529 9.61242 16.2627 8.51173C16.8737 7.90554 17.7984 7.98712 18.2424 8.6744C18.5736 9.18729 18.4984 9.81351 18.0368 10.2776C16.9403 11.3786 15.8411 12.4775 14.7391 13.5743C14.6687 13.6371 14.595 13.6961 14.5183 13.7511L16.5699 15.7987C17.0706 16.2994 17.5771 16.7942 18.069 17.3032C18.4286 17.6715 18.5424 18.1112 18.3685 18.604Z" fill="#EF4647"/>
</svg>
