<svg width="120" height="120" viewBox="0 0 120 120" fill="none" xmlns="http://www.w3.org/2000/svg">
<path d="M59.7223 15.0001C84.7319 15.0423 105.057 35.3675 105 60.2691C104.943 84.9843 84.3691 105.07 59.1746 105C34.1971 104.929 13.9184 84.5762 14.0002 59.6218C14.0536 35.0368 34.631 14.9438 59.7223 15.0001ZM55.0982 75.8559C55.5995 75.9032 56.1052 75.8393 56.5784 75.6689C57.0516 75.4985 57.4804 75.226 57.8336 74.871C66.0788 66.7241 74.3193 58.5689 82.555 50.4055C83.9031 49.0653 84.0347 47.4366 83.1312 45.9029C81.8116 43.6622 78.8948 43.4828 76.7926 45.5511C69.963 52.2863 63.1478 59.0368 56.3467 65.8024C55.4681 66.6783 54.9772 66.6853 54.1164 65.8024C51.3669 62.9883 48.5533 60.2128 45.7148 57.476C43.9683 55.7946 41.7451 55.8087 40.1978 57.4022C38.7359 58.9042 38.775 61.1344 40.3756 62.7455C44.3666 66.7416 48.4039 70.699 52.4163 74.674C52.7502 75.051 53.1622 75.3525 53.6243 75.5583C54.0864 75.764 54.5878 75.8691 55.0946 75.8664L55.0982 75.8559Z" fill="#4BAE4F"/>
</svg>
