<svg width="25" height="24" viewBox="0 0 25 24" fill="none" xmlns="http://www.w3.org/2000/svg">
<path d="M12.3635 23.5C18.7148 23.5 23.8635 18.3513 23.8635 12C23.8635 5.64873 18.7148 0.5 12.3635 0.5C6.01225 0.5 0.863525 5.64873 0.863525 12C0.863525 18.3513 6.01225 23.5 12.3635 23.5Z" fill="white" stroke="#DFE1E6"/>
<path d="M13.9999 12.3333C15.2053 12.3333 16.1817 11.3637 16.1817 10.1667C16.1817 8.96958 15.2053 8 13.9999 8C12.7944 8 11.8181 8.96958 11.8181 10.1667C11.8181 11.3637 12.7944 12.3333 13.9999 12.3333ZM9.0908 11.25V10.1667C9.0908 9.86875 8.84534 9.625 8.54534 9.625C8.24534 9.625 7.99989 9.86875 7.99989 10.1667V11.25H6.90898C6.60898 11.25 6.36353 11.4937 6.36353 11.7917C6.36353 12.0896 6.60898 12.3333 6.90898 12.3333H7.99989V13.4167C7.99989 13.7146 8.24534 13.9583 8.54534 13.9583C8.84534 13.9583 9.0908 13.7146 9.0908 13.4167V12.3333H10.1817C10.4817 12.3333 10.7272 12.0896 10.7272 11.7917C10.7272 11.4937 10.4817 11.25 10.1817 11.25H9.0908ZM13.9999 13.4167C12.5435 13.4167 9.63625 14.1425 9.63625 15.5833V16.125C9.63625 16.4229 9.88171 16.6667 10.1817 16.6667H17.8181C18.1181 16.6667 18.3635 16.4229 18.3635 16.125V15.5833C18.3635 14.1425 15.4563 13.4167 13.9999 13.4167Z" fill="#818181"/>
</svg>
