<svg width="15" height="14" viewBox="0 0 15 14" fill="none" xmlns="http://www.w3.org/2000/svg">
<path d="M1.64148 13.9991C1.2063 13.9987 0.788984 13.8256 0.481262 13.5179C0.173541 13.2101 0.000463208 12.7929 0 12.3577V2.73332C0.000463554 2.29822 0.173623 1.88108 0.481369 1.5735C0.789115 1.26592 1.20638 1.09303 1.64148 1.0928H2.29769V0H3.39137V1.09368H10.6105V0H11.7051V1.09368H12.3613C12.7962 1.09414 13.2132 1.26715 13.5207 1.5747C13.8283 1.88226 14.0013 2.29925 14.0018 2.7342V12.3586C14.0013 12.7936 13.8284 13.2107 13.5208 13.5184C13.2133 13.8261 12.7963 13.9993 12.3613 14L1.64148 13.9991ZM1.09464 12.3577C1.09464 12.5028 1.15222 12.642 1.25474 12.7447C1.35727 12.8474 1.49637 12.9052 1.64148 12.9054H12.3613C12.5063 12.905 12.6452 12.8471 12.7477 12.7445C12.8502 12.6418 12.9079 12.5028 12.9081 12.3577V5.1403H1.09635L1.09464 12.3577ZM1.09464 2.73332V4.04574H12.9064V2.73332C12.9062 2.58836 12.8485 2.4494 12.746 2.3469C12.6435 2.2444 12.5045 2.18671 12.3596 2.18648H11.7034V3.28016H10.6087V2.18736H3.38956V3.28104H2.29588V2.18736H1.63967C1.49486 2.18782 1.35609 2.24563 1.25378 2.3481C1.15147 2.45058 1.09391 2.58939 1.09368 2.7342L1.09464 2.73332ZM8.64104 11.7584V10.6647H9.73472V11.7584H8.64104ZM6.45368 11.7584V10.6647H7.5464V11.7584H6.45368ZM4.26632 11.7584V10.6647H5.36V11.7584H4.26632ZM2.07896 11.7584V10.6647H3.17264V11.7584H2.07896ZM10.8284 9.57102V8.47822H11.9221V9.57102H10.8284ZM8.64104 9.57102V8.47822H9.73472V9.57102H8.64104ZM6.45368 9.57102V8.47822H7.5464V9.57102H6.45368ZM4.26632 9.57102V8.47822H5.36V9.57102H4.26632ZM2.07896 9.57102V8.47822H3.17264V9.57102H2.07896ZM10.8284 7.38366V6.28998H11.9221V7.38366H10.8284ZM8.64104 7.38366V6.28998H9.73472V7.38366H8.64104ZM6.45368 7.38366V6.28998H7.5464V7.38366H6.45368ZM4.26632 7.38366V6.28998H5.36V7.38366H4.26632ZM2.07896 7.38366V6.28998H3.17264V7.38366H2.07896Z" fill="white"/>
</svg>
