<svg width="14" height="14" viewBox="0 0 14 14" fill="none" xmlns="http://www.w3.org/2000/svg">
<path d="M1.75 0.4375C1.75 0.204167 1.54583 0 1.3125 0H0.4375C0.204167 0 0 0.204167 0 0.4375V13.5625C0 13.7958 0.204167 14 0.4375 14H1.3125C1.54583 14 1.75 13.7958 1.75 13.5625V0.4375Z" fill="white"/>
<path d="M12.9792 1.6626C8.31258 4.1126 8.83758 -0.904067 3.20841 1.0501C3.03341 1.10843 2.91675 1.28343 2.91675 1.45843V8.25427C2.91675 8.45843 3.12091 8.60427 3.29591 8.51677C8.89591 6.6501 8.31258 11.7834 13.1834 9.04177C13.3292 8.95427 13.4167 8.80843 13.4167 8.6626V1.89593C13.4167 1.69177 13.1834 1.54593 12.9792 1.6626Z" fill="white"/>
</svg>
