<svg width="13" height="12" viewBox="0 0 13 12" fill="none" xmlns="http://www.w3.org/2000/svg">
<path d="M1.40699 11.9992C1.03397 11.9988 0.676272 11.8505 0.412511 11.5867C0.14875 11.323 0.000397035 10.9653 0 10.5923V2.34285C0.000397332 1.9699 0.14882 1.61236 0.412602 1.34872C0.676385 1.08507 1.03404 0.936884 1.40699 0.936686H1.96945V0H2.90689V0.937441H9.09473V0H10.0329V0.937441H10.5954C10.9682 0.937838 11.3256 1.08613 11.5892 1.34975C11.8528 1.61337 12.0011 1.97079 12.0015 2.3436V10.5931C12.0011 10.966 11.8529 11.3235 11.5893 11.5872C11.3257 11.851 10.9683 11.9994 10.5954 12L1.40699 11.9992ZM0.938265 10.5923C0.938265 10.7167 0.987613 10.836 1.07549 10.924C1.16337 11.012 1.2826 11.0616 1.40699 11.0618H10.5954C10.7197 11.0614 10.8388 11.0118 10.9266 10.9238C11.0144 10.8358 11.0639 10.7166 11.0641 10.5923V4.40597H0.93973L0.938265 10.5923ZM0.938265 2.34285V3.46778H11.0626V2.34285C11.0624 2.2186 11.013 2.09949 10.9251 2.01163C10.8373 1.92377 10.7182 1.87433 10.5939 1.87413H10.0314V2.81157H9.09318V1.87488H2.90533V2.81232H1.96789V1.87488H1.40543C1.28131 1.87528 1.16237 1.92482 1.07467 2.01266C0.986973 2.1005 0.937639 2.21948 0.937441 2.3436L0.938265 2.34285ZM7.40661 10.0786V9.14117H8.34405V10.0786H7.40661ZM5.53173 10.0786V9.14117H6.46834V10.0786H5.53173ZM3.65684 10.0786V9.14117H4.59429V10.0786H3.65684ZM1.78196 10.0786V9.14117H2.7194V10.0786H1.78196ZM9.28149 8.20373V7.26704H10.2189V8.20373H9.28149ZM7.40661 8.20373V7.26704H8.34405V8.20373H7.40661ZM5.53173 8.20373V7.26704H6.46834V8.20373H5.53173ZM3.65684 8.20373V7.26704H4.59429V8.20373H3.65684ZM1.78196 8.20373V7.26704H2.7194V8.20373H1.78196ZM9.28149 6.32885V5.39141H10.2189V6.32885H9.28149ZM7.40661 6.32885V5.39141H8.34405V6.32885H7.40661ZM5.53173 6.32885V5.39141H6.46834V6.32885H5.53173ZM3.65684 6.32885V5.39141H4.59429V6.32885H3.65684ZM1.78196 6.32885V5.39141H2.7194V6.32885H1.78196Z" fill="#67CB45"/>
</svg>
