<svg width="15" height="15" viewBox="0 0 15 15" fill="none" xmlns="http://www.w3.org/2000/svg">
<path d="M13.125 1.5H10.875V0.375C10.875 0.275544 10.8355 0.180161 10.7652 0.109835C10.6948 0.0395089 10.5995 0 10.5 0C10.4005 0 10.3052 0.0395089 10.2348 0.109835C10.1645 0.180161 10.125 0.275544 10.125 0.375V1.5H4.875V0.375C4.875 0.275544 4.83549 0.180161 4.76517 0.109835C4.69484 0.0395089 4.59946 0 4.5 0C4.40054 0 4.30516 0.0395089 4.23484 0.109835C4.16451 0.180161 4.125 0.275544 4.125 0.375V1.5H1.875C1.3779 1.5006 0.901334 1.69833 0.549832 2.04983C0.198331 2.40133 0.000595447 2.8779 0 3.375V13.125C0.000595447 13.6221 0.198331 14.0987 0.549832 14.4502C0.901334 14.8017 1.3779 14.9994 1.875 15H13.125C13.6222 14.9996 14.0988 14.8019 14.4504 14.4504C14.8019 14.0988 14.9996 13.6222 15 13.125V3.375C14.9996 2.87784 14.8019 2.40116 14.4504 2.04961C14.0988 1.69807 13.6222 1.5004 13.125 1.5ZM14.25 13.125C14.25 13.4234 14.1315 13.7095 13.9205 13.9205C13.7095 14.1315 13.4234 14.25 13.125 14.25H1.875C1.57663 14.25 1.29048 14.1315 1.0795 13.9205C0.868526 13.7095 0.75 13.4234 0.75 13.125V6.75H14.25V13.125ZM14.25 6H0.75V3.375C0.75 2.754 1.2525 2.25 1.875 2.25H4.125V3.375C4.125 3.47446 4.16451 3.56984 4.23484 3.64016C4.30516 3.71049 4.40054 3.75 4.5 3.75C4.59946 3.75 4.69484 3.71049 4.76517 3.64016C4.83549 3.56984 4.875 3.47446 4.875 3.375V2.25H10.125V3.375C10.125 3.47446 10.1645 3.56984 10.2348 3.64016C10.3052 3.71049 10.4005 3.75 10.5 3.75C10.5995 3.75 10.6948 3.71049 10.7652 3.64016C10.8355 3.56984 10.875 3.47446 10.875 3.375V2.25H13.125C13.4234 2.25 13.7095 2.36853 13.9205 2.5795C14.1315 2.79048 14.25 3.07663 14.25 3.375V6Z" fill="#666666"/>
</svg>
