<svg width="10" height="10" viewBox="0 0 10 10" fill="none" xmlns="http://www.w3.org/2000/svg">
<path d="M1.25 0.3125C1.25 0.145833 1.10417 0 0.9375 0H0.3125C0.145833 0 0 0.145833 0 0.3125V9.6875C0 9.85417 0.145833 10 0.3125 10H0.9375C1.10417 10 1.25 9.85417 1.25 9.6875V0.3125Z" fill="#818181"/>
<path d="M9.27075 1.18729C5.93742 2.93729 6.31242 -0.646041 2.29159 0.749792C2.16659 0.791459 2.08325 0.916459 2.08325 1.04146V5.89562C2.08325 6.04146 2.22909 6.14563 2.35409 6.08313C6.35409 4.74979 5.93742 8.41646 9.41659 6.45813C9.52075 6.39563 9.58325 6.29146 9.58325 6.18729V1.35396C9.58325 1.20813 9.41659 1.10396 9.27075 1.18729Z" fill="#818181"/>
</svg>
