<svg width="11" height="10" viewBox="0 0 11 10" fill="none" xmlns="http://www.w3.org/2000/svg">
<path d="M1.17249 9.99937C0.861643 9.99904 0.56356 9.87541 0.343759 9.65561C0.123958 9.43581 0.000330863 9.13779 0 8.82694V1.95237C0.00033111 1.64159 0.124016 1.34363 0.343835 1.12393C0.563654 0.904228 0.8617 0.780737 1.17249 0.780571H1.64121V0H2.42241V0.781201H7.57894V0H8.36076V0.781201H8.82948C9.14016 0.781532 9.43799 0.905104 9.65767 1.12479C9.87736 1.34447 10.0009 1.64232 10.0013 1.953V8.82757C10.0009 9.13831 9.87741 9.43623 9.65775 9.65601C9.43808 9.8758 9.14021 9.9995 8.82948 10L1.17249 9.99937ZM0.781887 8.82694C0.781887 8.93059 0.823011 9.03 0.896245 9.10335C0.969479 9.17671 1.06884 9.218 1.17249 9.21817H8.82948C8.93308 9.21784 9.03229 9.1765 9.10549 9.10318C9.17869 9.02987 9.21991 8.93054 9.22008 8.82694V3.67164H0.783108L0.781887 8.82694ZM0.781887 1.95237V2.88981H9.21886V1.95237C9.21869 1.84883 9.17749 1.74957 9.10427 1.67636C9.03105 1.60314 8.9318 1.56194 8.82826 1.56177H8.35954V2.34297H7.57765V1.5624H2.42111V2.3436H1.63991V1.5624H1.17119C1.06776 1.56273 0.968639 1.60402 0.895558 1.67722C0.822477 1.75041 0.781366 1.84957 0.781201 1.953L0.781887 1.95237ZM6.17217 8.39884V7.61764H6.95337V8.39884H6.17217ZM4.60977 8.39884V7.61764H5.39029V8.39884H4.60977ZM3.04737 8.39884V7.61764H3.82857V8.39884H3.04737ZM1.48497 8.39884V7.61764H2.26617V8.39884H1.48497ZM7.73457 6.83644V6.05587H8.51578V6.83644H7.73457ZM6.17217 6.83644V6.05587H6.95337V6.83644H6.17217ZM4.60977 6.83644V6.05587H5.39029V6.83644H4.60977ZM3.04737 6.83644V6.05587H3.82857V6.83644H3.04737ZM1.48497 6.83644V6.05587H2.26617V6.83644H1.48497ZM7.73457 5.27404V4.49284H8.51578V5.27404H7.73457ZM6.17217 5.27404V4.49284H6.95337V5.27404H6.17217ZM4.60977 5.27404V4.49284H5.39029V5.27404H4.60977ZM3.04737 5.27404V4.49284H3.82857V5.27404H3.04737ZM1.48497 5.27404V4.49284H2.26617V5.27404H1.48497Z" fill="#818181"/>
</svg>
