<svg width="11" height="10" viewBox="0 0 11 10" fill="none" xmlns="http://www.w3.org/2000/svg">
<path d="M9.64455 1.94665L4.64558 6.94563C4.45062 7.14059 4.13568 7.14059 3.94072 6.94563L2.52601 5.53092C2.33105 5.33596 2.33105 5.02102 2.52601 4.82606C2.72097 4.6311 3.0359 4.6311 3.23086 4.82606L4.29065 5.88584L8.9347 1.24179C9.12966 1.04683 9.44459 1.04683 9.63955 1.24179C9.83951 1.43675 9.83951 1.75169 9.64455 1.94665ZM5.0005 9.0002C2.64598 9.0002 0.76137 6.95562 1.02632 4.55112C1.22128 2.79148 2.586 1.34677 4.33064 1.05683C5.23545 0.906862 6.09528 1.06683 6.82513 1.44675C7.02009 1.54673 7.25504 1.51174 7.41001 1.35677C7.64996 1.11682 7.58997 0.711902 7.29003 0.556934C6.55518 0.18201 5.72535 -0.0229475 4.84054 0.00204736C2.27106 0.082031 0.136498 2.1716 0.0065249 4.73608C-0.138445 7.62049 2.15109 10 5.0005 10C5.60038 10 6.17026 9.89502 6.70515 9.70006C7.04508 9.57509 7.14007 9.13518 6.88012 8.87523C6.74515 8.74026 6.54019 8.69027 6.36022 8.76025C5.93531 8.91522 5.47541 9.0002 5.0005 9.0002ZM8.49979 6.50072H7.49999C7.22505 6.50072 7.00009 6.72567 7.00009 7.00061C7.00009 7.27556 7.22505 7.50051 7.49999 7.50051H8.49979V8.50031C8.49979 8.77525 8.72474 9.0002 8.99968 9.0002C9.27463 9.0002 9.49958 8.77525 9.49958 8.50031V7.50051H10.4994C10.7743 7.50051 10.9993 7.27556 10.9993 7.00061C10.9993 6.72567 10.7743 6.50072 10.4994 6.50072H9.49958V5.50092C9.49958 5.22598 9.27463 5.00102 8.99968 5.00102C8.72474 5.00102 8.49979 5.22598 8.49979 5.50092V6.50072Z" fill="#818181"/>
</svg>
