<svg width="10" height="10" viewBox="0 0 10 10" fill="none" xmlns="http://www.w3.org/2000/svg">
<path d="M7.85066 10C7.53062 10 7.21872 9.89884 6.95963 9.71095C6.70054 9.52307 6.5075 9.25808 6.40808 8.95388H3.61971C2.90238 8.95388 2.21428 8.66932 1.7065 8.16264C1.19873 7.65596 0.912692 6.96854 0.911148 6.25121V2.90311C0.660543 2.79431 0.444109 2.61971 0.284664 2.39786C0.12522 2.17601 0.0287143 1.91514 0.00548166 1.64292C-0.0177509 1.37071 0.0331541 1.09729 0.152698 0.851633C0.272242 0.605972 0.455985 0.397212 0.684528 0.247517C0.91307 0.0978226 1.17784 0.0127564 1.45081 0.00132596C1.72377 -0.0101044 1.99472 0.0525381 2.23498 0.182602C2.47523 0.312665 2.67584 0.505296 2.81551 0.740103C2.95517 0.974909 3.02869 1.24314 3.0283 1.51634C3.02899 1.84245 2.92383 2.15996 2.72858 2.42115C2.53333 2.68233 2.25859 2.87309 1.94563 2.96472V4.36226H6.40981C6.52139 4.02215 6.74931 3.73227 7.05347 3.54357C7.35764 3.35488 7.71853 3.27948 8.0728 3.33057C8.42708 3.38167 8.75202 3.556 8.99047 3.82296C9.22891 4.08991 9.36567 4.43241 9.3766 4.79018C9.38753 5.14796 9.27195 5.49815 9.05025 5.77917C8.82854 6.06018 8.5148 6.25403 8.1643 6.32665C7.81381 6.39928 7.44901 6.34601 7.13389 6.17623C6.81878 6.00646 6.57356 5.73103 6.44142 5.39837H1.9439V6.25208C1.94566 6.69462 2.12276 7.1184 2.43638 7.43062C2.75001 7.74284 3.17462 7.91804 3.61717 7.91782H6.44397C6.54679 7.66255 6.71709 7.44005 6.93675 7.27426C7.15642 7.10846 7.41715 7.00562 7.69083 6.97672C7.96452 6.94782 8.24091 6.99396 8.49036 7.11021C8.7398 7.22647 8.9528 7.40844 9.10667 7.6366C9.26055 7.86477 9.34949 8.13054 9.36379 8.40537C9.3781 8.68021 9.31726 8.95375 9.18791 9.19666C9.05855 9.43957 8.86547 9.64268 8.62944 9.78421C8.39341 9.92573 8.12332 10.0003 7.84811 10H7.85066ZM7.85066 8.00109C7.75575 8.00175 7.66318 8.03049 7.58459 8.08369C7.506 8.1369 7.44487 8.21218 7.40901 8.30004C7.37314 8.38791 7.36416 8.48445 7.38308 8.57745C7.402 8.67045 7.44801 8.75575 7.51535 8.82262C7.58269 8.8895 7.66836 8.93494 7.76149 8.95322C7.85462 8.97149 7.95102 8.96178 8.03864 8.92531C8.12626 8.88884 8.20111 8.82726 8.25377 8.7483C8.30643 8.66935 8.3346 8.57658 8.3346 8.48168C8.33394 8.35385 8.28256 8.23147 8.19186 8.14139C8.10116 8.05131 7.97849 8.00087 7.85066 8.00109V8.00109ZM7.85066 4.35895C7.75575 4.35961 7.66318 4.38836 7.58459 4.44156C7.506 4.49476 7.44487 4.57004 7.40901 4.65791C7.37314 4.74578 7.36416 4.84226 7.38308 4.93526C7.402 5.02826 7.44801 5.11361 7.51535 5.18049C7.58269 5.24736 7.66836 5.29281 7.76149 5.31108C7.85462 5.32936 7.95102 5.31964 8.03864 5.28317C8.12626 5.24671 8.20111 5.18512 8.25377 5.10617C8.30643 5.02721 8.3346 4.9344 8.3346 4.83949C8.3335 4.71195 8.282 4.59004 8.19135 4.50032C8.10069 4.41061 7.9782 4.36041 7.85066 4.36063V4.35895ZM1.50998 1.03413C1.41507 1.03479 1.3225 1.06353 1.24391 1.11673C1.16532 1.16994 1.10429 1.24522 1.06843 1.33309C1.03257 1.42095 1.02348 1.51749 1.0424 1.61049C1.06132 1.70349 1.10733 1.78879 1.17467 1.85566C1.24201 1.92254 1.32768 1.96798 1.42081 1.98626C1.51394 2.00453 1.61034 1.99482 1.69796 1.95835C1.78558 1.92188 1.86043 1.8603 1.91309 1.78134C1.96575 1.70239 1.99392 1.60957 1.99392 1.51467C1.99304 1.38698 1.94165 1.26489 1.85097 1.17499C1.7603 1.08509 1.63766 1.03472 1.50998 1.03494V1.03413Z" fill="#818181"/>
</svg>
