<svg width="12" height="12" viewBox="0 0 12 12" fill="none" xmlns="http://www.w3.org/2000/svg">
<path d="M7.06046 5.99999L11.777 1.27994C11.8477 1.21048 11.9038 1.12778 11.9421 1.03663C11.9803 0.945485 12 0.847702 12 0.748931C12 0.65016 11.9803 0.552365 11.9421 0.461217C11.9038 0.370069 11.8477 0.28738 11.777 0.217925C11.6363 0.0783692 11.4455 0 11.2468 0C11.048 0 10.8573 0.0783692 10.7165 0.217925L6.00009 4.93798L1.28352 0.217925C1.14274 0.0783692 0.952025 0 0.753243 0C0.554461 0 0.363746 0.0783692 0.222966 0.217925C0.152345 0.28738 0.0962055 0.370069 0.0579418 0.461217C0.0196781 0.552365 0 0.65016 0 0.748931C0 0.847702 0.0196781 0.945485 0.0579418 1.03663C0.0962055 1.12778 0.152345 1.21048 0.222966 1.27994L4.93954 5.99999L0.222966 10.7201C0.152345 10.7895 0.0962055 10.8722 0.0579418 10.9634C0.0196781 11.0545 0 11.1523 0 11.2511C0 11.3498 0.0196781 11.4476 0.0579418 11.5388C0.0962055 11.6299 0.152345 11.7126 0.222966 11.7821C0.363746 11.9216 0.554461 12 0.753243 12C0.952025 12 1.14274 11.9216 1.28352 11.7821L6.00009 7.06202L10.7165 11.7821C10.8573 11.9216 11.048 12 11.2468 12C11.4455 12 11.6363 11.9216 11.777 11.7821C11.8477 11.7126 11.9038 11.6299 11.9421 11.5388C11.9803 11.4476 12 11.3498 12 11.2511C12 11.1523 11.9803 11.0545 11.9421 10.9634C11.9038 10.8722 11.8477 10.7895 11.777 10.7201L7.06046 5.99999Z" fill="#CFCFCF"/>
</svg>
