<svg width="25" height="24" viewBox="0 0 25 24" fill="none" xmlns="http://www.w3.org/2000/svg">
<path d="M12.3635 23.5C18.7148 23.5 23.8635 18.3513 23.8635 12C23.8635 5.64873 18.7148 0.5 12.3635 0.5C6.01225 0.5 0.863525 5.64873 0.863525 12C0.863525 18.3513 6.01225 23.5 12.3635 23.5Z" fill="white" stroke="#DFE1E6"/>
<path d="M7.77051 17.9992C7.3975 17.9988 7.0398 17.8505 6.77604 17.5867C6.51227 17.323 6.36392 16.9653 6.36353 16.5923V8.34285C6.36392 7.9699 6.51235 7.61236 6.77613 7.34872C7.03991 7.08507 7.39757 6.93688 7.77051 6.93669H8.33298V6H9.27042V6.93744H15.4583V6H16.3964V6.93744H16.9589C17.3317 6.93784 17.6891 7.08613 17.9527 7.34975C18.2164 7.61337 18.3647 7.97079 18.3651 8.3436V16.5931C18.3647 16.966 18.2164 17.3235 17.9528 17.5872C17.6892 17.851 17.3318 17.9994 16.9589 18L7.77051 17.9992ZM7.30179 16.5923C7.30179 16.7167 7.35114 16.836 7.43902 16.924C7.5269 17.012 7.64613 17.0616 7.77051 17.0618H16.9589C17.0832 17.0614 17.2023 17.0118 17.2901 16.9238C17.378 16.8358 17.4274 16.7166 17.4276 16.5923V10.406H7.30326L7.30179 16.5923ZM7.30179 8.34285V9.46778H17.4262V8.34285C17.426 8.2186 17.3765 8.09949 17.2886 8.01163C17.2008 7.92377 17.0817 7.87433 16.9574 7.87413H16.395V8.81157H15.4567V7.87488H9.26886V8.81232H8.33142V7.87488H7.76895C7.64483 7.87528 7.52589 7.92482 7.4382 8.01266C7.3505 8.1005 7.30116 8.21948 7.30097 8.3436L7.30179 8.34285ZM13.7701 16.0786V15.1412H14.7076V16.0786H13.7701ZM11.8953 16.0786V15.1412H12.8319V16.0786H11.8953ZM10.0204 16.0786V15.1412H10.9578V16.0786H10.0204ZM8.14549 16.0786V15.1412H9.08293V16.0786H8.14549ZM15.645 14.2037V13.267H16.5825V14.2037H15.645ZM13.7701 14.2037V13.267H14.7076V14.2037H13.7701ZM11.8953 14.2037V13.267H12.8319V14.2037H11.8953ZM10.0204 14.2037V13.267H10.9578V14.2037H10.0204ZM8.14549 14.2037V13.267H9.08293V14.2037H8.14549ZM15.645 12.3288V11.3914H16.5825V12.3288H15.645ZM13.7701 12.3288V11.3914H14.7076V12.3288H13.7701ZM11.8953 12.3288V11.3914H12.8319V12.3288H11.8953ZM10.0204 12.3288V11.3914H10.9578V12.3288H10.0204ZM8.14549 12.3288V11.3914H9.08293V12.3288H8.14549Z" fill="#818181"/>
</svg>
