<svg width="24" height="24" viewBox="0 0 24 24" fill="none" xmlns="http://www.w3.org/2000/svg">
<path d="M12 23.5C18.3513 23.5 23.5 18.3513 23.5 12C23.5 5.64873 18.3513 0.5 12 0.5C5.64873 0.5 0.5 5.64873 0.5 12C0.5 18.3513 5.64873 23.5 12 23.5Z" fill="white" stroke="#DFE1E6"/>
<path d="M7.28562 8.5721H6.42854C6.31488 8.5721 6.20588 8.52695 6.12552 8.44658C6.04515 8.36622 6 8.25722 6 8.14356C6 8.0299 6.04515 7.9209 6.12552 7.84054C6.20588 7.76017 6.31488 7.71502 6.42854 7.71502H9.85687V6.42854C9.85687 6.31488 9.90202 6.20588 9.98238 6.12552C10.0628 6.04515 10.1718 6 10.2854 6H13.7137C13.8274 6 13.9364 6.04515 14.0168 6.12552C14.0971 6.20588 14.1423 6.31488 14.1423 6.42854V7.71502H17.5706C17.6843 7.71502 17.7933 7.76017 17.8736 7.84054C17.954 7.9209 17.9991 8.0299 17.9991 8.14356C17.9991 8.25722 17.954 8.36622 17.8736 8.44658C17.7933 8.52695 17.6843 8.5721 17.5706 8.5721H16.7135V17.5715C16.7135 17.6851 16.6684 17.7941 16.588 17.8745C16.5076 17.9549 16.3986 18 16.285 18H7.71416C7.60051 18 7.49151 17.9549 7.41114 17.8745C7.33077 17.7941 7.28562 17.6851 7.28562 17.5715V8.5721ZM13.2852 7.71502V6.85794H10.7139V7.71502H13.2852ZM8.1427 17.1429H15.8564V8.5721H8.1427V17.1429ZM10.7139 15.4288C10.6003 15.4288 10.4913 15.3836 10.4109 15.3032C10.3306 15.2229 10.2854 15.1139 10.2854 15.0002V10.7148C10.2854 10.6011 10.3306 10.4921 10.4109 10.4118C10.4913 10.3314 10.6003 10.2863 10.7139 10.2863C10.8276 10.2863 10.9366 10.3314 11.017 10.4118C11.0973 10.4921 11.1425 10.6011 11.1425 10.7148V15.0002C11.1425 15.1139 11.0973 15.2229 11.017 15.3032C10.9366 15.3836 10.8276 15.4288 10.7139 15.4288ZM13.2852 15.4288C13.1715 15.4288 13.0625 15.3836 12.9822 15.3032C12.9018 15.2229 12.8567 15.1139 12.8567 15.0002V10.7148C12.8567 10.6011 12.9018 10.4921 12.9822 10.4118C13.0625 10.3314 13.1715 10.2863 13.2852 10.2863C13.3988 10.2863 13.5079 10.3314 13.5882 10.4118C13.6686 10.4921 13.7137 10.6011 13.7137 10.7148V15.0002C13.7137 15.1139 13.6686 15.2229 13.5882 15.3032C13.5079 15.3836 13.3988 15.4288 13.2852 15.4288Z" fill="#818181"/>
</svg>
