<svg width="24" height="24" viewBox="0 0 24 24" fill="none" xmlns="http://www.w3.org/2000/svg">
<path d="M12 23.5C18.3513 23.5 23.5 18.3513 23.5 12C23.5 5.64873 18.3513 0.5 12 0.5C5.64873 0.5 0.5 5.64873 0.5 12C0.5 18.3513 5.64873 23.5 12 23.5Z" fill="white" stroke="#DFE1E6"/>
<path d="M11.9134 18C11.6858 17.9939 11.47 17.8978 11.3132 17.7328C11.1565 17.5678 11.0715 17.3473 11.0771 17.1198V9.03374L9.43278 10.8038C9.36045 10.8837 9.27276 10.9484 9.175 10.9938C9.07724 11.0393 8.97134 11.0647 8.8636 11.0685C8.75585 11.0723 8.64851 11.0544 8.54779 11.016C8.44707 10.9775 8.35511 10.9192 8.27732 10.8446H8.27331L8.2357 10.8054C8.08399 10.637 8 10.4183 8 10.1916C8 9.96494 8.08399 9.7463 8.2357 9.57787L11.3165 6.26425C11.3922 6.18101 11.4845 6.11452 11.5874 6.06901C11.6904 6.02351 11.8016 6 11.9142 6C12.0267 6 12.138 6.02351 12.2409 6.06901C12.3438 6.11452 12.4362 6.18101 12.512 6.26425L15.5911 9.57787C15.7435 9.7461 15.8279 9.96502 15.8279 10.192C15.8279 10.4191 15.7435 10.638 15.5911 10.8062L15.5847 10.8134C15.5086 10.8956 15.4163 10.961 15.3135 11.0055C15.2108 11.0501 15.1 11.0728 14.988 11.0722C14.876 11.0716 14.7653 11.0477 14.6631 11.0021C14.5608 10.9564 14.4692 10.89 14.394 10.807L12.7504 9.03775V17.1254C12.7545 17.3521 12.6687 17.5712 12.512 17.7351C12.3552 17.8989 12.1401 17.9941 11.9134 18Z" fill="#FF9600"/>
</svg>
