<svg width="19" height="14" viewBox="0 0 19 14" fill="none" xmlns="http://www.w3.org/2000/svg">
<path d="M7.47915 7.00989V13.5164C7.47915 13.5545 7.47915 13.5925 7.47915 13.6306C7.48168 13.7802 7.44262 13.9076 7.29246 13.9735C7.14231 14.0395 7.02512 13.9735 6.91808 13.8721C6.67864 13.6372 6.43717 13.4038 6.19671 13.1694L0.210654 7.33558C0.187826 7.31326 0.164997 7.29144 0.142676 7.26862C-0.0470511 7.07635 -0.0490804 6.92315 0.14572 6.73291C0.97024 5.92699 1.79578 5.12209 2.62232 4.3182L6.86938 0.180716C6.91237 0.134209 6.9594 0.0916015 7.0099 0.0533885C7.05011 0.0250764 7.09679 0.00734871 7.14566 0.00184178C7.19452 -0.00366515 7.24398 0.00322426 7.28948 0.0218777C7.33497 0.0405312 7.37504 0.0703471 7.40597 0.10857C7.4369 0.146793 7.45771 0.192191 7.46647 0.240577C7.47917 0.322104 7.48376 0.404691 7.48016 0.487123C7.47982 2.66037 7.47949 4.83462 7.47915 7.00989ZM11.0332 7.00989V13.5164C11.0332 13.5545 11.0332 13.5925 11.0332 13.6306C11.0332 13.7802 11.0693 13.9076 11.2194 13.9735C11.3696 14.0395 11.4868 13.9735 11.5938 13.8721C11.8332 13.6372 12.0747 13.4038 12.3152 13.1694L18.3012 7.33558C18.3241 7.31326 18.3469 7.29144 18.3692 7.26862C18.5589 7.07635 18.561 6.92315 18.3662 6.73291C17.542 5.92699 16.7164 5.12209 15.8896 4.3182L11.6425 0.180716C11.5995 0.134209 11.5525 0.0916015 11.502 0.0533885C11.4618 0.0250764 11.4151 0.00734871 11.3662 0.00184178C11.3174 -0.00366515 11.2679 0.00322426 11.2224 0.0218777C11.1769 0.0405312 11.1368 0.0703471 11.1059 0.10857C11.075 0.146793 11.0542 0.192191 11.0454 0.240577C11.0327 0.322104 11.0281 0.404691 11.0317 0.487123C11.0327 2.66037 11.0332 4.83462 11.0332 7.00989Z" fill="white"/>
</svg>
