<svg width="25" height="24" viewBox="0 0 25 24" fill="none" xmlns="http://www.w3.org/2000/svg">
<path d="M12.3635 23.5C18.7148 23.5 23.8635 18.3513 23.8635 12C23.8635 5.64873 18.7148 0.5 12.3635 0.5C6.01225 0.5 0.863525 5.64873 0.863525 12C0.863525 18.3513 6.01225 23.5 12.3635 23.5Z" fill="white" stroke="#DFE1E6"/>
<path d="M8.86353 6.375C8.86353 6.175 8.68853 6 8.48853 6H7.73853C7.53853 6 7.36353 6.175 7.36353 6.375V17.625C7.36353 17.825 7.53853 18 7.73853 18H8.48853C8.68853 18 8.86353 17.825 8.86353 17.625V6.375Z" fill="#818181"/>
<path d="M16.9885 6.92202C12.9885 9.02202 13.4385 4.72202 8.61353 6.39702C8.46353 6.44702 8.36353 6.59702 8.36353 6.74702V12.572C8.36353 12.747 8.53853 12.872 8.68853 12.797C13.4885 11.197 12.9885 15.597 17.1635 13.247C17.2885 13.172 17.3635 13.047 17.3635 12.922V7.12202C17.3635 6.94702 17.1635 6.82202 16.9885 6.92202Z" fill="#818181"/>
</svg>
