<svg width="12" height="12" viewBox="0 0 12 12" fill="none" xmlns="http://www.w3.org/2000/svg">
<path d="M1.5 0.375C1.5 0.175 1.325 0 1.125 0H0.375C0.175 0 0 0.175 0 0.375V11.625C0 11.825 0.175 12 0.375 12H1.125C1.325 12 1.5 11.825 1.5 11.625V0.375Z" fill="#F26F56"/>
<path d="M11.125 1.42495C7.125 3.52495 7.575 -0.775054 2.75 0.899946C2.6 0.949946 2.5 1.09995 2.5 1.24995V7.07495C2.5 7.24995 2.675 7.37495 2.825 7.29995C7.625 5.69995 7.125 10.0999 11.3 7.74995C11.425 7.67495 11.5 7.54995 11.5 7.42495V1.62495C11.5 1.44995 11.3 1.32495 11.125 1.42495Z" fill="#F26F56"/>
</svg>
