<svg width="14" height="14" viewBox="0 0 14 14" fill="none" xmlns="http://www.w3.org/2000/svg">
<path d="M10.84 0H3C1.34315 0 0 1.34315 0 3V10.84C0 12.4969 1.34315 13.84 3 13.84H10.84C12.4969 13.84 13.84 12.4969 13.84 10.84V3C13.84 1.34315 12.4969 0 10.84 0Z" fill="#FF9600"/>
<path d="M6.48817 11.1081H7.35317C7.35317 11.2228 7.30761 11.3328 7.2265 11.4139C7.14539 11.495 7.03538 11.5406 6.92067 11.5406C6.80597 11.5406 6.69596 11.495 6.61485 11.4139C6.53374 11.3328 6.48817 11.2228 6.48817 11.1081ZM6.16417 10.6761C6.04942 10.6759 5.93943 10.6302 5.85829 10.549C5.77714 10.4679 5.73143 10.3579 5.73117 10.2431V8.94312H8.11017V10.2431C8.11017 10.3578 8.06469 10.4678 7.9837 10.549C7.90272 10.6301 7.79284 10.6759 7.67817 10.6761H6.16417ZM5.71817 8.29712C5.57617 7.14912 4.32617 6.69712 4.32617 4.92712C4.36719 4.26673 4.65844 3.64683 5.14059 3.1937C5.62274 2.74056 6.25951 2.48828 6.92117 2.48828C7.58284 2.48828 8.21961 2.74056 8.70176 3.1937C9.18391 3.64683 9.47516 4.26673 9.51617 4.92712C9.51617 6.69812 8.26717 7.14812 8.12417 8.29712H5.71817Z" fill="white"/>
</svg>
