<svg width="13" height="11" viewBox="0 0 13 11" fill="none" xmlns="http://www.w3.org/2000/svg">
<path fill-rule="evenodd" clip-rule="evenodd" d="M4.13657 0.731324L7.7163 4.37469L9.54594 2.54505V7.31802H4.77297L6.61056 5.50429L2.9672 1.92457C2.81903 1.77552 2.73587 1.5739 2.73587 1.36374C2.73587 1.15358 2.81903 0.951964 2.9672 0.802919L3.01492 0.731324C3.16397 0.583162 3.36559 0.5 3.57575 0.5C3.78591 0.5 3.98753 0.583162 4.13657 0.731324ZM11.9324 8.90901H0.795495C0.584516 8.90901 0.382179 8.99282 0.232994 9.142C0.0838102 9.29119 0 9.49353 0 9.7045C0 9.91548 0.0838102 10.1178 0.232994 10.267C0.382179 10.4162 0.584516 10.5 0.795495 10.5H11.9324C12.1434 10.5 12.3457 10.4162 12.4949 10.267C12.6441 10.1178 12.7279 9.91548 12.7279 9.7045C12.7217 9.49769 12.6352 9.30143 12.4866 9.15737C12.3381 9.01331 12.1393 8.93278 11.9324 8.93287V8.90901Z" fill="#818181"/>
</svg>
