<svg width="10" height="10" viewBox="0 0 10 10" fill="none" xmlns="http://www.w3.org/2000/svg">
<path d="M5 0C2.23958 0 0 2.23958 0 5C0 7.76042 2.23958 10 5 10C7.76042 10 10 7.76042 10 5C10 2.23958 7.76042 0 5 0ZM8.28125 3.59036C7.75521 4.08411 7.22847 4.57734 6.70104 5.07005C6.19201 5.5454 5.68385 6.02118 5.17656 6.4974C4.78594 6.86198 4.39088 7.22656 3.98984 7.59818C3.9638 7.57214 3.93776 7.55104 3.91458 7.52604C3.16927 6.72743 2.42431 5.92882 1.67969 5.13021C1.47578 4.91146 1.42812 4.63125 1.54583 4.37266C1.60133 4.25246 1.69104 4.15129 1.80373 4.08181C1.91643 4.01233 2.04711 3.97762 2.17943 3.98203C2.38125 3.9901 2.54401 4.07995 2.68099 4.22786C3.09384 4.67404 3.50816 5.11884 3.92396 5.56224L4.05104 5.69896L4.5362 5.24609C5.48168 4.36311 6.42734 3.48029 7.37318 2.59766C7.72708 2.26849 8.27448 2.37838 8.46146 2.81094C8.57786 3.07812 8.51068 3.37448 8.28125 3.59036Z" fill="#1CB303"/>
</svg>
