<svg width="24" height="24" viewBox="0 0 24 24" fill="none" xmlns="http://www.w3.org/2000/svg">
<path d="M12 23.5C18.3513 23.5 23.5 18.3513 23.5 12C23.5 5.64873 18.3513 0.5 12 0.5C5.64873 0.5 0.5 5.64873 0.5 12C0.5 18.3513 5.64873 23.5 12 23.5Z" fill="white" stroke="#DFE1E6"/>
<path d="M14.8014 16.516L11.6375 14.0231L8.47339 16.518C8.30176 16.646 8.09344 16.7151 7.87939 16.7151C7.66535 16.7151 7.45702 16.646 7.2854 16.518C7.19693 16.453 7.12502 16.368 7.07544 16.2701C7.02586 16.1721 7 16.0638 7 15.954C7 15.8442 7.02586 15.736 7.07544 15.638C7.12502 15.54 7.19693 15.4551 7.2854 15.3901L11.0454 12.4291C11.2153 12.2975 11.4245 12.227 11.6394 12.229C11.8542 12.2277 12.0632 12.2981 12.2334 12.4291L15.9924 15.3921C16.0805 15.4572 16.1521 15.542 16.2014 15.6398C16.2507 15.7375 16.2764 15.8455 16.2764 15.9551C16.2764 16.0646 16.2507 16.1726 16.2014 16.2704C16.1521 16.3681 16.0805 16.453 15.9924 16.518C15.821 16.6472 15.612 16.717 15.3973 16.717C15.1827 16.717 14.9738 16.6472 14.8024 16.518L14.8014 16.516ZM14.8014 12.2881L11.6375 9.79503L8.47339 12.289C8.30176 12.417 8.09344 12.4861 7.87939 12.4861C7.66535 12.4861 7.45702 12.417 7.2854 12.289C7.19693 12.224 7.12502 12.1391 7.07544 12.0411C7.02586 11.9431 7 11.8348 7 11.725C7 11.6152 7.02586 11.507 7.07544 11.409C7.12502 11.311 7.19693 11.2261 7.2854 11.1611L11.0454 8.20006C11.2153 8.06846 11.4245 7.99799 11.6394 8.00004C11.8542 7.99869 12.0632 8.06909 12.2334 8.20006L15.9924 11.1631C16.0805 11.2282 16.1521 11.313 16.2014 11.4107C16.2507 11.5085 16.2764 11.6165 16.2764 11.7261C16.2764 11.8356 16.2507 11.9436 16.2014 12.0414C16.1521 12.1391 16.0805 12.224 15.9924 12.289C15.8208 12.4179 15.6119 12.4875 15.3973 12.4875C15.1827 12.4875 14.974 12.4179 14.8024 12.289L14.8014 12.2881Z" fill="#FF0000"/>
</svg>
