<svg width="12" height="14" viewBox="0 0 12 14" fill="none" xmlns="http://www.w3.org/2000/svg">
<path d="M4.90612 9.79972H4.68713C3.39726 9.79972 2.10696 9.78746 0.817537 9.80584C0.287576 9.81328 -0.0212028 9.45575 0.00113441 8.95249C0.0703359 7.3959 0.634898 6.05899 1.75307 4.97502C2.01586 4.72164 2.16346 4.4722 2.10346 4.10942C2.09379 4.02216 2.09379 3.9341 2.10346 3.84685C2.13149 3.38998 2.07061 2.97162 1.82972 2.55326C1.51349 2.00318 1.4167 1.3717 1.4075 0.734535C1.40093 0.304798 1.69132 0.00284449 2.11791 0.00196926C4.44098 -0.000656422 6.76376 -0.000656422 9.08624 0.00196926C9.51415 0.00196926 9.81023 0.303923 9.79972 0.731472C9.77957 1.53231 9.59693 2.2885 9.16114 2.97293C9.12601 3.03308 9.10771 3.10154 9.10814 3.17117C9.10332 3.60354 9.09938 4.0359 9.10814 4.46782C9.11312 4.56162 9.15149 4.65056 9.21632 4.71858C9.85008 5.32642 10.3849 6.00254 10.7313 6.81913C11.0348 7.52996 11.1941 8.29391 11.2 9.06671C11.2043 9.50433 10.9061 9.79884 10.4554 9.79972C9.14376 9.80234 7.832 9.80234 6.52009 9.79972H6.3011V10.0041C6.3011 11.0924 6.3011 12.1812 6.3011 13.27C6.3011 13.7129 5.99451 14.0139 5.57273 13.9995C5.40171 13.9935 5.23912 13.9238 5.11678 13.8043C4.99445 13.6847 4.9212 13.5238 4.91138 13.3531C4.90743 13.2875 4.90831 13.2219 4.90831 13.1562V9.79972H4.90612ZM2.91811 1.40671C2.92293 1.66053 3.0933 2.07232 3.29872 2.30119C3.43617 2.45218 3.51005 2.6503 3.50501 2.85434C3.5018 3.51601 3.5018 4.17769 3.50501 4.83936C3.50902 4.94859 3.48991 5.05745 3.44892 5.1588C3.40794 5.26015 3.34601 5.35172 3.26718 5.42751C3.06396 5.62619 2.86424 5.82837 2.66452 6.03054C2.22995 6.46454 1.89608 6.9886 1.6865 7.56569C1.59102 7.82826 1.52707 8.10571 1.44429 8.39191H9.73621C9.73052 8.34115 9.72876 8.30439 9.72176 8.26675C9.56109 7.42945 9.15674 6.65811 8.55935 6.04936C8.36532 5.84981 8.17041 5.64982 7.96807 5.45815C7.87904 5.377 7.80887 5.27736 7.76249 5.16622C7.7161 5.05509 7.69463 4.93516 7.69958 4.81485C7.70688 4.18031 7.70688 3.54592 7.69958 2.91167C7.6898 2.67529 7.77314 2.4445 7.93171 2.26881C8.14457 2.02637 8.2383 1.72573 8.30794 1.4054L2.91811 1.40671Z" fill="#818181"/>
</svg>
