<svg width="12" height="14" viewBox="0 0 12 14" fill="none" xmlns="http://www.w3.org/2000/svg">
<path d="M4.90626 9.80059H4.68724C3.39766 9.80059 2.10721 9.78834 0.817634 9.80672C0.287173 9.81416 -0.0212038 9.45663 0.00113601 8.95337C0.0703456 7.39678 0.634535 6.05987 1.75328 4.97589C2.01391 4.72252 2.16372 4.47308 2.10371 4.11029C2.09403 4.02304 2.09403 3.93498 2.10371 3.84772C2.13174 3.39086 2.07085 2.9725 1.82993 2.55414C1.51323 2.00406 1.41687 1.37258 1.40767 0.735411C1.39978 0.308299 1.6902 0.00415734 2.1151 0.00196926C4.43844 -0.000656422 6.76148 -0.000656422 9.08424 0.00196926C9.51176 0.00196926 9.80831 0.303923 9.79736 0.731472C9.77765 1.53231 9.59499 2.28851 9.15915 2.97293C9.1241 3.03313 9.10566 3.10154 9.1057 3.17117C9.10089 3.60354 9.09738 4.0359 9.1079 4.46782C9.11288 4.56162 9.15125 4.65056 9.21609 4.71858C9.84949 5.32642 10.3843 6.00254 10.7313 6.81913C11.0346 7.53002 11.1939 8.29394 11.2 9.06671C11.2043 9.50433 10.906 9.79884 10.4553 9.79972C9.14352 9.80234 7.8316 9.80234 6.51954 9.79972H6.30052V10.0041C6.30052 11.0924 6.30052 12.1812 6.30052 13.27C6.30052 13.7129 5.9939 14.0139 5.57251 13.9995C5.40147 13.9935 5.23886 13.9238 5.11651 13.8043C4.99416 13.6847 4.9209 13.5238 4.91108 13.3531C4.90713 13.2875 4.90801 13.2219 4.90801 13.1562V9.79972L4.90626 9.80059Z" fill="#2F3990"/>
</svg>
