<svg width="24" height="24" viewBox="0 0 24 24" fill="none" xmlns="http://www.w3.org/2000/svg">
<path d="M12 23.5C18.3513 23.5 23.5 18.3513 23.5 12C23.5 5.64873 18.3513 0.5 12 0.5C5.64873 0.5 0.5 5.64873 0.5 12C0.5 18.3513 5.64873 23.5 12 23.5Z" fill="white" stroke="#DFE1E6"/>
<path d="M11.9145 6C12.142 6.00608 12.3579 6.10219 12.5146 6.26721C12.6714 6.43223 12.7563 6.65268 12.7507 6.88023L12.7507 14.9663L14.3951 13.1962C14.4674 13.1163 14.5551 13.0516 14.6529 13.0062C14.7506 12.9607 14.8565 12.9353 14.9643 12.9315C15.072 12.9277 15.1794 12.9456 15.2801 12.984C15.3808 13.0225 15.4728 13.0808 15.5506 13.1554H15.5546L15.5922 13.1946C15.7439 13.363 15.8279 13.5817 15.8279 13.8084C15.8279 14.0351 15.7439 14.2537 15.5922 14.4221L12.5114 17.7357C12.4357 17.819 12.3434 17.8855 12.2405 17.931C12.1375 17.9765 12.0263 18 11.9137 18C11.8012 18 11.6899 17.9765 11.587 17.931C11.484 17.8855 11.3917 17.819 11.3159 17.7357L8.23682 14.4221C8.08438 14.2539 7.99995 14.035 7.99995 13.808C7.99995 13.5809 8.08438 13.362 8.23682 13.1938L8.24317 13.1866C8.31925 13.1044 8.4116 13.039 8.51433 12.9945C8.61707 12.9499 8.72792 12.9272 8.8399 12.9278C8.95188 12.9284 9.06254 12.9523 9.16479 12.9979C9.26704 13.0436 9.3587 13.11 9.4339 13.193L11.0775 14.9623L11.0775 6.87463C11.0734 6.64791 11.1591 6.42876 11.3159 6.26493C11.4727 6.10111 11.6878 6.00588 11.9145 6Z" fill="#5463E8"/>
</svg>
