<svg width="17" height="12" viewBox="0 0 17 12" fill="none" xmlns="http://www.w3.org/2000/svg">
<path d="M15.9602 0.405709C16.0874 0.530024 16.189 0.680794 16.2584 0.848582C16.3278 1.01637 16.3636 1.19753 16.3636 1.38066C16.3636 1.5638 16.3278 1.74496 16.2584 1.91274C16.189 2.08053 16.0874 2.23133 15.9602 2.35565L6.7381 11.5966C6.47363 11.8559 6.12634 12 5.76566 12C5.40498 12 5.05759 11.8559 4.79312 11.5966L0.403426 7.19685C0.276225 7.07254 0.174727 6.92174 0.105308 6.75395C0.0358897 6.58616 0 6.40501 0 6.22187C0 6.03873 0.0358897 5.85758 0.105308 5.68979C0.174727 5.522 0.276225 5.3712 0.403426 5.24689C0.66762 4.98773 1.01465 4.84372 1.37505 4.84372C1.73545 4.84372 2.08258 4.98773 2.34677 5.24689L5.76392 8.67173L14.0136 0.403924C14.2782 0.143992 14.6261 -0.000328341 14.9873 5.60935e-07C15.3484 0.000329463 15.696 0.145295 15.9602 0.405709Z" fill="#959595"/>
</svg>
