<svg width="116" height="23" viewBox="0 0 116 23" fill="none" xmlns="http://www.w3.org/2000/svg">
<path d="M19.3066 5.55667C20.4508 7.31556 21.0618 9.38409 21.0617 11.5006C21.0617 12.9058 20.7922 14.297 20.2687 15.5948C19.7453 16.8926 18.9783 18.0714 18.0117 19.0641C17.0452 20.0567 15.8982 20.8437 14.6362 21.3805C13.3743 21.9174 12.0221 22.1936 10.6566 22.1936C8.59994 22.1937 6.58888 21.5675 4.87769 20.3934C3.16641 19.2192 1.83162 17.5495 1.04313 15.5947C0.254612 13.6398 0.0481639 11.4883 0.450156 9.41258C0.852143 7.33686 1.8443 5.43108 3.30014 3.9359C4.75592 2.4408 6.60989 1.42341 8.6272 1.01134C10.6445 0.599281 12.7355 0.810774 14.6361 1.61939C16.5368 2.42804 18.1624 3.79786 19.3066 5.55667Z" fill="white" stroke="#E8E8E8" stroke-width="0.5"/>
<path d="M8.81982 10.0529L12.533 14.6899C12.8057 15.0305 13.1483 15.3048 13.5365 15.4933C13.9246 15.6817 14.3485 15.7796 14.7778 15.78H18.2868L14.3555 10.8627C14.1525 10.609 13.8971 10.4047 13.6079 10.2646C13.3187 10.1244 13.0028 10.0519 12.6831 10.0522L8.81982 10.0529Z" fill="#41D7FF"/>
<path d="M12.8186 3.55713L3.02539 15.7806H6.53505C6.96459 15.7795 7.38864 15.6813 7.77705 15.4929C8.16546 15.3045 8.5087 15.0306 8.7824 14.6906L14.0326 8.12492C14.3749 7.69065 14.5616 7.14886 14.5616 6.59013C14.5616 6.03141 14.3749 5.48962 14.0326 5.05534L12.8186 3.55713Z" fill="#F241CD"/>
<path d="M10.6424 12.3438L12.4789 10.0527H8.81982L10.6424 12.3438Z" fill="#3D36CC"/>
<path d="M98.57 14.9799V12.0298H95.2489V10.9761H98.5685V8.17383H99.7149V14.9799H98.57ZM93.2593 14.9799V8.17383H94.4019V14.9799H93.2593Z" fill="#F241CD"/>
<path d="M106.751 8.17383H107.873V11.9555C107.873 14.0505 106.871 15.0417 104.313 15.0417C101.778 15.0417 100.751 14.0505 100.751 11.9555V8.17383H101.934V11.9555C101.934 13.3191 102.526 13.8769 104.336 13.8769C106.146 13.8769 106.739 13.3191 106.739 11.9555V8.17383H106.751Z" fill="#F241CD"/>
<path d="M110.906 12.005V11.013H113.759C114.41 11.013 114.724 10.7783 114.724 10.1947C114.724 9.47579 114.169 9.36469 113.312 9.36469H110.077V13.7777H113.421C114.241 13.7777 114.845 13.543 114.845 12.8851C114.845 12.3273 114.495 12.005 113.843 12.005H110.906ZM108.915 14.9433V8.1748H113.743C115.038 8.1748 115.876 8.77014 115.876 9.92326C115.876 10.7783 115.454 11.2125 114.962 11.3737C115.565 11.5716 116 12.1051 116 12.8984C116 14.1376 115.167 14.9433 113.876 14.9433H108.915Z" fill="#F241CD"/>
<path fill-rule="evenodd" clip-rule="evenodd" d="M34.0783 5.77197H36.7664L43.1863 15.0423H40.2536L35.3496 7.73009L30.7549 14.4736H35.9034V15.0423H27.7407L34.0783 5.77197Z" fill="white"/>
<path fill-rule="evenodd" clip-rule="evenodd" d="M45.1738 5.77197H47.3082V13.2516H54.0373V15.0423H45.1738V5.77197Z" fill="white"/>
<path d="M58.3873 5.77197H56.2529V15.0415H58.3873V5.77197Z" fill="white"/>
<path fill-rule="evenodd" clip-rule="evenodd" d="M88.024 15.0423H86.8342L79.3883 8.76743V15.0423H77.4824V5.77197H78.932L86.1174 12.0633V5.77197H88.024V15.0423Z" fill="white"/>
<path fill-rule="evenodd" clip-rule="evenodd" d="M66.5661 5.77197H69.2542L75.6741 15.0423H72.7407L67.8367 7.73009L63.2427 14.4736H68.3912V15.0423H60.2285L66.5661 5.77197Z" fill="white"/>
<path fill-rule="evenodd" clip-rule="evenodd" d="M89.9618 2.55273H89.6366C89.2598 2.59544 88.9133 2.78475 88.6683 3.08175C88.4233 3.37874 88.2983 3.76086 88.3191 4.14955C88.34 4.53824 88.505 4.90397 88.7803 5.17157C89.0555 5.43916 89.4202 5.58828 89.7992 5.58828C90.1783 5.58828 90.5429 5.43916 90.8182 5.17157C91.0935 4.90397 91.2585 4.53824 91.2793 4.14955C91.3001 3.76086 91.1752 3.37874 90.9301 3.08175C90.6851 2.78475 90.3386 2.59544 89.9618 2.55273ZM89.7988 2.69277C89.5346 2.69277 89.2762 2.77322 89.0564 2.92394C88.8367 3.07466 88.6653 3.2889 88.5641 3.5396C88.4628 3.79029 88.4361 4.06618 88.4875 4.33242C88.5388 4.59866 88.6658 4.8433 88.8525 5.03544C89.0391 5.22757 89.2771 5.35857 89.5362 5.4119C89.7953 5.46523 90.064 5.43849 90.3083 5.33506C90.5526 5.23162 90.7616 5.05614 90.9089 4.83077C91.0562 4.6054 91.1351 4.34026 91.1357 4.06885C91.1362 3.88826 91.102 3.70934 91.035 3.54236C90.968 3.37537 90.8696 3.22362 90.7454 3.09578C90.6212 2.96793 90.4737 2.86652 90.3112 2.79737C90.1488 2.72821 89.9747 2.69267 89.7988 2.69277Z" fill="white"/>
<path fill-rule="evenodd" clip-rule="evenodd" d="M89.4902 4.8819H89.2495V3.25079H89.9275C90.0144 3.24881 90.1012 3.25667 90.1864 3.27425C90.2449 3.28692 90.3003 3.31139 90.3495 3.34623C90.3989 3.38818 90.4376 3.44189 90.4622 3.50269C90.4899 3.56697 90.5039 3.63658 90.5033 3.70687C90.504 3.77261 90.4926 3.8379 90.4698 3.89931C90.4494 3.95481 90.4156 4.00407 90.3715 4.04248C90.3484 4.06363 90.3228 4.08175 90.2954 4.09646C90.262 4.11197 90.2277 4.12504 90.1925 4.13557C90.2362 4.15722 90.2775 4.18343 90.3159 4.2138C90.3491 4.2399 90.3769 4.27263 90.3974 4.31003C90.42 4.35287 90.4359 4.39905 90.4447 4.44693C90.4562 4.51076 90.4636 4.57532 90.4668 4.64017C90.4668 4.68867 90.4721 4.72622 90.4736 4.75203C90.4745 4.77303 90.4768 4.79394 90.4805 4.81462C90.4826 4.82743 90.4859 4.84 90.4904 4.85217C90.4949 4.86417 90.5005 4.87569 90.5071 4.88659H90.2596C90.2558 4.8779 90.2525 4.86903 90.2497 4.85999C90.2453 4.84654 90.2425 4.83263 90.2413 4.81853C90.2413 4.77785 90.236 4.74656 90.2352 4.72544C90.2344 4.70431 90.2352 4.68006 90.2283 4.65189C90.2233 4.57858 90.2089 4.50626 90.1857 4.43676C90.1681 4.3826 90.1372 4.33407 90.0958 4.29595C90.0521 4.25732 89.9998 4.23044 89.9434 4.21772C89.8707 4.20103 89.7963 4.19341 89.7218 4.19503H89.4864L89.4902 4.8819ZM89.9115 3.98693C89.9663 3.98828 90.0212 3.98409 90.0752 3.97442C90.1087 3.96899 90.1402 3.9547 90.1666 3.93296C90.1948 3.90592 90.2167 3.87282 90.231 3.83603C90.2452 3.79924 90.2513 3.75968 90.2489 3.72017C90.2498 3.67216 90.241 3.62447 90.223 3.58014C90.2085 3.54161 90.1816 3.50932 90.1468 3.4886C90.1209 3.47514 90.0927 3.46666 90.0638 3.46357C90.0132 3.45815 89.9623 3.45581 89.9115 3.45653H89.4902V3.99085L89.9115 3.98693Z" fill="white"/>
</svg>
